G04 #@! TF.GenerationSoftware,KiCad,Pcbnew,9.0.1-1.fc42*
G04 #@! TF.CreationDate,2025-05-14T23:47:02-05:00*
G04 #@! TF.ProjectId,cerebellum,63657265-6265-46c6-9c75-6d2e6b696361,rev?*
G04 #@! TF.SameCoordinates,Original*
G04 #@! TF.FileFunction,Legend,Bot*
G04 #@! TF.FilePolarity,Positive*
%FSLAX46Y46*%
G04 Gerber Fmt 4.6, Leading zero omitted, Abs format (unit mm)*
G04 Created by KiCad (PCBNEW 9.0.1-1.fc42) date 2025-05-14 23:47:02*
%MOMM*%
%LPD*%
G01*
G04 APERTURE LIST*
%ADD10C,0.150000*%
%ADD11C,0.120000*%
G04 APERTURE END LIST*
D10*
X123174609Y-78391792D02*
X123212704Y-78467982D01*
X123212704Y-78467982D02*
X123212704Y-78582268D01*
X123212704Y-78582268D02*
X123174609Y-78696554D01*
X123174609Y-78696554D02*
X123098419Y-78772744D01*
X123098419Y-78772744D02*
X123022228Y-78810839D01*
X123022228Y-78810839D02*
X122869847Y-78848935D01*
X122869847Y-78848935D02*
X122755561Y-78848935D01*
X122755561Y-78848935D02*
X122603180Y-78810839D01*
X122603180Y-78810839D02*
X122526990Y-78772744D01*
X122526990Y-78772744D02*
X122450800Y-78696554D01*
X122450800Y-78696554D02*
X122412704Y-78582268D01*
X122412704Y-78582268D02*
X122412704Y-78506077D01*
X122412704Y-78506077D02*
X122450800Y-78391792D01*
X122450800Y-78391792D02*
X122488895Y-78353696D01*
X122488895Y-78353696D02*
X122755561Y-78353696D01*
X122755561Y-78353696D02*
X122755561Y-78506077D01*
X122412704Y-78010839D02*
X123212704Y-78010839D01*
X123212704Y-78010839D02*
X123212704Y-77706077D01*
X123212704Y-77706077D02*
X123174609Y-77629887D01*
X123174609Y-77629887D02*
X123136514Y-77591792D01*
X123136514Y-77591792D02*
X123060323Y-77553696D01*
X123060323Y-77553696D02*
X122946038Y-77553696D01*
X122946038Y-77553696D02*
X122869847Y-77591792D01*
X122869847Y-77591792D02*
X122831752Y-77629887D01*
X122831752Y-77629887D02*
X122793657Y-77706077D01*
X122793657Y-77706077D02*
X122793657Y-78010839D01*
X122412704Y-76791792D02*
X122412704Y-77248935D01*
X122412704Y-77020363D02*
X123212704Y-77020363D01*
X123212704Y-77020363D02*
X123098419Y-77096554D01*
X123098419Y-77096554D02*
X123022228Y-77172744D01*
X123022228Y-77172744D02*
X122984133Y-77248935D01*
X122412704Y-76410839D02*
X122412704Y-76258458D01*
X122412704Y-76258458D02*
X122450800Y-76182268D01*
X122450800Y-76182268D02*
X122488895Y-76144172D01*
X122488895Y-76144172D02*
X122603180Y-76067982D01*
X122603180Y-76067982D02*
X122755561Y-76029887D01*
X122755561Y-76029887D02*
X123060323Y-76029887D01*
X123060323Y-76029887D02*
X123136514Y-76067982D01*
X123136514Y-76067982D02*
X123174609Y-76106077D01*
X123174609Y-76106077D02*
X123212704Y-76182268D01*
X123212704Y-76182268D02*
X123212704Y-76334649D01*
X123212704Y-76334649D02*
X123174609Y-76410839D01*
X123174609Y-76410839D02*
X123136514Y-76448934D01*
X123136514Y-76448934D02*
X123060323Y-76487030D01*
X123060323Y-76487030D02*
X122869847Y-76487030D01*
X122869847Y-76487030D02*
X122793657Y-76448934D01*
X122793657Y-76448934D02*
X122755561Y-76410839D01*
X122755561Y-76410839D02*
X122717466Y-76334649D01*
X122717466Y-76334649D02*
X122717466Y-76182268D01*
X122717466Y-76182268D02*
X122755561Y-76106077D01*
X122755561Y-76106077D02*
X122793657Y-76067982D01*
X122793657Y-76067982D02*
X122869847Y-76029887D01*
X120634609Y-78391792D02*
X120672704Y-78467982D01*
X120672704Y-78467982D02*
X120672704Y-78582268D01*
X120672704Y-78582268D02*
X120634609Y-78696554D01*
X120634609Y-78696554D02*
X120558419Y-78772744D01*
X120558419Y-78772744D02*
X120482228Y-78810839D01*
X120482228Y-78810839D02*
X120329847Y-78848935D01*
X120329847Y-78848935D02*
X120215561Y-78848935D01*
X120215561Y-78848935D02*
X120063180Y-78810839D01*
X120063180Y-78810839D02*
X119986990Y-78772744D01*
X119986990Y-78772744D02*
X119910800Y-78696554D01*
X119910800Y-78696554D02*
X119872704Y-78582268D01*
X119872704Y-78582268D02*
X119872704Y-78506077D01*
X119872704Y-78506077D02*
X119910800Y-78391792D01*
X119910800Y-78391792D02*
X119948895Y-78353696D01*
X119948895Y-78353696D02*
X120215561Y-78353696D01*
X120215561Y-78353696D02*
X120215561Y-78506077D01*
X119872704Y-78010839D02*
X120672704Y-78010839D01*
X120672704Y-78010839D02*
X120672704Y-77706077D01*
X120672704Y-77706077D02*
X120634609Y-77629887D01*
X120634609Y-77629887D02*
X120596514Y-77591792D01*
X120596514Y-77591792D02*
X120520323Y-77553696D01*
X120520323Y-77553696D02*
X120406038Y-77553696D01*
X120406038Y-77553696D02*
X120329847Y-77591792D01*
X120329847Y-77591792D02*
X120291752Y-77629887D01*
X120291752Y-77629887D02*
X120253657Y-77706077D01*
X120253657Y-77706077D02*
X120253657Y-78010839D01*
X119872704Y-76791792D02*
X119872704Y-77248935D01*
X119872704Y-77020363D02*
X120672704Y-77020363D01*
X120672704Y-77020363D02*
X120558419Y-77096554D01*
X120558419Y-77096554D02*
X120482228Y-77172744D01*
X120482228Y-77172744D02*
X120444133Y-77248935D01*
X120329847Y-76334649D02*
X120367942Y-76410839D01*
X120367942Y-76410839D02*
X120406038Y-76448934D01*
X120406038Y-76448934D02*
X120482228Y-76487030D01*
X120482228Y-76487030D02*
X120520323Y-76487030D01*
X120520323Y-76487030D02*
X120596514Y-76448934D01*
X120596514Y-76448934D02*
X120634609Y-76410839D01*
X120634609Y-76410839D02*
X120672704Y-76334649D01*
X120672704Y-76334649D02*
X120672704Y-76182268D01*
X120672704Y-76182268D02*
X120634609Y-76106077D01*
X120634609Y-76106077D02*
X120596514Y-76067982D01*
X120596514Y-76067982D02*
X120520323Y-76029887D01*
X120520323Y-76029887D02*
X120482228Y-76029887D01*
X120482228Y-76029887D02*
X120406038Y-76067982D01*
X120406038Y-76067982D02*
X120367942Y-76106077D01*
X120367942Y-76106077D02*
X120329847Y-76182268D01*
X120329847Y-76182268D02*
X120329847Y-76334649D01*
X120329847Y-76334649D02*
X120291752Y-76410839D01*
X120291752Y-76410839D02*
X120253657Y-76448934D01*
X120253657Y-76448934D02*
X120177466Y-76487030D01*
X120177466Y-76487030D02*
X120025085Y-76487030D01*
X120025085Y-76487030D02*
X119948895Y-76448934D01*
X119948895Y-76448934D02*
X119910800Y-76410839D01*
X119910800Y-76410839D02*
X119872704Y-76334649D01*
X119872704Y-76334649D02*
X119872704Y-76182268D01*
X119872704Y-76182268D02*
X119910800Y-76106077D01*
X119910800Y-76106077D02*
X119948895Y-76067982D01*
X119948895Y-76067982D02*
X120025085Y-76029887D01*
X120025085Y-76029887D02*
X120177466Y-76029887D01*
X120177466Y-76029887D02*
X120253657Y-76067982D01*
X120253657Y-76067982D02*
X120291752Y-76106077D01*
X120291752Y-76106077D02*
X120329847Y-76182268D01*
X123174609Y-66112970D02*
X123212704Y-66189160D01*
X123212704Y-66189160D02*
X123212704Y-66303446D01*
X123212704Y-66303446D02*
X123174609Y-66417732D01*
X123174609Y-66417732D02*
X123098419Y-66493922D01*
X123098419Y-66493922D02*
X123022228Y-66532017D01*
X123022228Y-66532017D02*
X122869847Y-66570113D01*
X122869847Y-66570113D02*
X122755561Y-66570113D01*
X122755561Y-66570113D02*
X122603180Y-66532017D01*
X122603180Y-66532017D02*
X122526990Y-66493922D01*
X122526990Y-66493922D02*
X122450800Y-66417732D01*
X122450800Y-66417732D02*
X122412704Y-66303446D01*
X122412704Y-66303446D02*
X122412704Y-66227255D01*
X122412704Y-66227255D02*
X122450800Y-66112970D01*
X122450800Y-66112970D02*
X122488895Y-66074874D01*
X122488895Y-66074874D02*
X122755561Y-66074874D01*
X122755561Y-66074874D02*
X122755561Y-66227255D01*
X122412704Y-65732017D02*
X123212704Y-65732017D01*
X123212704Y-65732017D02*
X123212704Y-65427255D01*
X123212704Y-65427255D02*
X123174609Y-65351065D01*
X123174609Y-65351065D02*
X123136514Y-65312970D01*
X123136514Y-65312970D02*
X123060323Y-65274874D01*
X123060323Y-65274874D02*
X122946038Y-65274874D01*
X122946038Y-65274874D02*
X122869847Y-65312970D01*
X122869847Y-65312970D02*
X122831752Y-65351065D01*
X122831752Y-65351065D02*
X122793657Y-65427255D01*
X122793657Y-65427255D02*
X122793657Y-65732017D01*
X122412704Y-64512970D02*
X122412704Y-64970113D01*
X122412704Y-64741541D02*
X123212704Y-64741541D01*
X123212704Y-64741541D02*
X123098419Y-64817732D01*
X123098419Y-64817732D02*
X123022228Y-64893922D01*
X123022228Y-64893922D02*
X122984133Y-64970113D01*
X123136514Y-64208208D02*
X123174609Y-64170112D01*
X123174609Y-64170112D02*
X123212704Y-64093922D01*
X123212704Y-64093922D02*
X123212704Y-63903446D01*
X123212704Y-63903446D02*
X123174609Y-63827255D01*
X123174609Y-63827255D02*
X123136514Y-63789160D01*
X123136514Y-63789160D02*
X123060323Y-63751065D01*
X123060323Y-63751065D02*
X122984133Y-63751065D01*
X122984133Y-63751065D02*
X122869847Y-63789160D01*
X122869847Y-63789160D02*
X122412704Y-64246303D01*
X122412704Y-64246303D02*
X122412704Y-63751065D01*
X143494609Y-78391792D02*
X143532704Y-78467982D01*
X143532704Y-78467982D02*
X143532704Y-78582268D01*
X143532704Y-78582268D02*
X143494609Y-78696554D01*
X143494609Y-78696554D02*
X143418419Y-78772744D01*
X143418419Y-78772744D02*
X143342228Y-78810839D01*
X143342228Y-78810839D02*
X143189847Y-78848935D01*
X143189847Y-78848935D02*
X143075561Y-78848935D01*
X143075561Y-78848935D02*
X142923180Y-78810839D01*
X142923180Y-78810839D02*
X142846990Y-78772744D01*
X142846990Y-78772744D02*
X142770800Y-78696554D01*
X142770800Y-78696554D02*
X142732704Y-78582268D01*
X142732704Y-78582268D02*
X142732704Y-78506077D01*
X142732704Y-78506077D02*
X142770800Y-78391792D01*
X142770800Y-78391792D02*
X142808895Y-78353696D01*
X142808895Y-78353696D02*
X143075561Y-78353696D01*
X143075561Y-78353696D02*
X143075561Y-78506077D01*
X142732704Y-78010839D02*
X143532704Y-78010839D01*
X143532704Y-78010839D02*
X142732704Y-77553696D01*
X142732704Y-77553696D02*
X143532704Y-77553696D01*
X142732704Y-77172744D02*
X143532704Y-77172744D01*
X143532704Y-77172744D02*
X143532704Y-76982268D01*
X143532704Y-76982268D02*
X143494609Y-76867982D01*
X143494609Y-76867982D02*
X143418419Y-76791792D01*
X143418419Y-76791792D02*
X143342228Y-76753697D01*
X143342228Y-76753697D02*
X143189847Y-76715601D01*
X143189847Y-76715601D02*
X143075561Y-76715601D01*
X143075561Y-76715601D02*
X142923180Y-76753697D01*
X142923180Y-76753697D02*
X142846990Y-76791792D01*
X142846990Y-76791792D02*
X142770800Y-76867982D01*
X142770800Y-76867982D02*
X142732704Y-76982268D01*
X142732704Y-76982268D02*
X142732704Y-77172744D01*
X148041276Y-78848935D02*
X148041276Y-78467982D01*
X147812704Y-78925125D02*
X148612704Y-78658458D01*
X148612704Y-78658458D02*
X147812704Y-78391792D01*
X147812704Y-78125125D02*
X148612704Y-78125125D01*
X148612704Y-78125125D02*
X148612704Y-77934649D01*
X148612704Y-77934649D02*
X148574609Y-77820363D01*
X148574609Y-77820363D02*
X148498419Y-77744173D01*
X148498419Y-77744173D02*
X148422228Y-77706078D01*
X148422228Y-77706078D02*
X148269847Y-77667982D01*
X148269847Y-77667982D02*
X148155561Y-77667982D01*
X148155561Y-77667982D02*
X148003180Y-77706078D01*
X148003180Y-77706078D02*
X147926990Y-77744173D01*
X147926990Y-77744173D02*
X147850800Y-77820363D01*
X147850800Y-77820363D02*
X147812704Y-77934649D01*
X147812704Y-77934649D02*
X147812704Y-78125125D01*
X147888895Y-76867982D02*
X147850800Y-76906078D01*
X147850800Y-76906078D02*
X147812704Y-77020363D01*
X147812704Y-77020363D02*
X147812704Y-77096554D01*
X147812704Y-77096554D02*
X147850800Y-77210840D01*
X147850800Y-77210840D02*
X147926990Y-77287030D01*
X147926990Y-77287030D02*
X148003180Y-77325125D01*
X148003180Y-77325125D02*
X148155561Y-77363221D01*
X148155561Y-77363221D02*
X148269847Y-77363221D01*
X148269847Y-77363221D02*
X148422228Y-77325125D01*
X148422228Y-77325125D02*
X148498419Y-77287030D01*
X148498419Y-77287030D02*
X148574609Y-77210840D01*
X148574609Y-77210840D02*
X148612704Y-77096554D01*
X148612704Y-77096554D02*
X148612704Y-77020363D01*
X148612704Y-77020363D02*
X148574609Y-76906078D01*
X148574609Y-76906078D02*
X148536514Y-76867982D01*
X147736514Y-76715602D02*
X147736514Y-76106078D01*
X147812704Y-75458458D02*
X148193657Y-75725125D01*
X147812704Y-75915601D02*
X148612704Y-75915601D01*
X148612704Y-75915601D02*
X148612704Y-75610839D01*
X148612704Y-75610839D02*
X148574609Y-75534649D01*
X148574609Y-75534649D02*
X148536514Y-75496554D01*
X148536514Y-75496554D02*
X148460323Y-75458458D01*
X148460323Y-75458458D02*
X148346038Y-75458458D01*
X148346038Y-75458458D02*
X148269847Y-75496554D01*
X148269847Y-75496554D02*
X148231752Y-75534649D01*
X148231752Y-75534649D02*
X148193657Y-75610839D01*
X148193657Y-75610839D02*
X148193657Y-75915601D01*
X148231752Y-75115601D02*
X148231752Y-74848935D01*
X147812704Y-74734649D02*
X147812704Y-75115601D01*
X147812704Y-75115601D02*
X148612704Y-75115601D01*
X148612704Y-75115601D02*
X148612704Y-74734649D01*
X148231752Y-74125125D02*
X148231752Y-74391791D01*
X147812704Y-74391791D02*
X148612704Y-74391791D01*
X148612704Y-74391791D02*
X148612704Y-74010839D01*
X161312704Y-78925125D02*
X160512704Y-78658458D01*
X160512704Y-78658458D02*
X161312704Y-78391792D01*
X160931752Y-77858459D02*
X160893657Y-77744173D01*
X160893657Y-77744173D02*
X160855561Y-77706078D01*
X160855561Y-77706078D02*
X160779371Y-77667982D01*
X160779371Y-77667982D02*
X160665085Y-77667982D01*
X160665085Y-77667982D02*
X160588895Y-77706078D01*
X160588895Y-77706078D02*
X160550800Y-77744173D01*
X160550800Y-77744173D02*
X160512704Y-77820363D01*
X160512704Y-77820363D02*
X160512704Y-78125125D01*
X160512704Y-78125125D02*
X161312704Y-78125125D01*
X161312704Y-78125125D02*
X161312704Y-77858459D01*
X161312704Y-77858459D02*
X161274609Y-77782268D01*
X161274609Y-77782268D02*
X161236514Y-77744173D01*
X161236514Y-77744173D02*
X161160323Y-77706078D01*
X161160323Y-77706078D02*
X161084133Y-77706078D01*
X161084133Y-77706078D02*
X161007942Y-77744173D01*
X161007942Y-77744173D02*
X160969847Y-77782268D01*
X160969847Y-77782268D02*
X160931752Y-77858459D01*
X160931752Y-77858459D02*
X160931752Y-78125125D01*
X161312704Y-77325125D02*
X160665085Y-77325125D01*
X160665085Y-77325125D02*
X160588895Y-77287030D01*
X160588895Y-77287030D02*
X160550800Y-77248935D01*
X160550800Y-77248935D02*
X160512704Y-77172744D01*
X160512704Y-77172744D02*
X160512704Y-77020363D01*
X160512704Y-77020363D02*
X160550800Y-76944173D01*
X160550800Y-76944173D02*
X160588895Y-76906078D01*
X160588895Y-76906078D02*
X160665085Y-76867982D01*
X160665085Y-76867982D02*
X161312704Y-76867982D01*
X160550800Y-76525126D02*
X160512704Y-76410840D01*
X160512704Y-76410840D02*
X160512704Y-76220364D01*
X160512704Y-76220364D02*
X160550800Y-76144173D01*
X160550800Y-76144173D02*
X160588895Y-76106078D01*
X160588895Y-76106078D02*
X160665085Y-76067983D01*
X160665085Y-76067983D02*
X160741276Y-76067983D01*
X160741276Y-76067983D02*
X160817466Y-76106078D01*
X160817466Y-76106078D02*
X160855561Y-76144173D01*
X160855561Y-76144173D02*
X160893657Y-76220364D01*
X160893657Y-76220364D02*
X160931752Y-76372745D01*
X160931752Y-76372745D02*
X160969847Y-76448935D01*
X160969847Y-76448935D02*
X161007942Y-76487030D01*
X161007942Y-76487030D02*
X161084133Y-76525126D01*
X161084133Y-76525126D02*
X161160323Y-76525126D01*
X161160323Y-76525126D02*
X161236514Y-76487030D01*
X161236514Y-76487030D02*
X161274609Y-76448935D01*
X161274609Y-76448935D02*
X161312704Y-76372745D01*
X161312704Y-76372745D02*
X161312704Y-76182268D01*
X161312704Y-76182268D02*
X161274609Y-76067983D01*
X158734609Y-65351065D02*
X158772704Y-65427255D01*
X158772704Y-65427255D02*
X158772704Y-65541541D01*
X158772704Y-65541541D02*
X158734609Y-65655827D01*
X158734609Y-65655827D02*
X158658419Y-65732017D01*
X158658419Y-65732017D02*
X158582228Y-65770112D01*
X158582228Y-65770112D02*
X158429847Y-65808208D01*
X158429847Y-65808208D02*
X158315561Y-65808208D01*
X158315561Y-65808208D02*
X158163180Y-65770112D01*
X158163180Y-65770112D02*
X158086990Y-65732017D01*
X158086990Y-65732017D02*
X158010800Y-65655827D01*
X158010800Y-65655827D02*
X157972704Y-65541541D01*
X157972704Y-65541541D02*
X157972704Y-65465350D01*
X157972704Y-65465350D02*
X158010800Y-65351065D01*
X158010800Y-65351065D02*
X158048895Y-65312969D01*
X158048895Y-65312969D02*
X158315561Y-65312969D01*
X158315561Y-65312969D02*
X158315561Y-65465350D01*
X157972704Y-64970112D02*
X158772704Y-64970112D01*
X158772704Y-64970112D02*
X158772704Y-64665350D01*
X158772704Y-64665350D02*
X158734609Y-64589160D01*
X158734609Y-64589160D02*
X158696514Y-64551065D01*
X158696514Y-64551065D02*
X158620323Y-64512969D01*
X158620323Y-64512969D02*
X158506038Y-64512969D01*
X158506038Y-64512969D02*
X158429847Y-64551065D01*
X158429847Y-64551065D02*
X158391752Y-64589160D01*
X158391752Y-64589160D02*
X158353657Y-64665350D01*
X158353657Y-64665350D02*
X158353657Y-64970112D01*
X157972704Y-63751065D02*
X157972704Y-64208208D01*
X157972704Y-63979636D02*
X158772704Y-63979636D01*
X158772704Y-63979636D02*
X158658419Y-64055827D01*
X158658419Y-64055827D02*
X158582228Y-64132017D01*
X158582228Y-64132017D02*
X158544133Y-64208208D01*
X115554609Y-78391792D02*
X115592704Y-78467982D01*
X115592704Y-78467982D02*
X115592704Y-78582268D01*
X115592704Y-78582268D02*
X115554609Y-78696554D01*
X115554609Y-78696554D02*
X115478419Y-78772744D01*
X115478419Y-78772744D02*
X115402228Y-78810839D01*
X115402228Y-78810839D02*
X115249847Y-78848935D01*
X115249847Y-78848935D02*
X115135561Y-78848935D01*
X115135561Y-78848935D02*
X114983180Y-78810839D01*
X114983180Y-78810839D02*
X114906990Y-78772744D01*
X114906990Y-78772744D02*
X114830800Y-78696554D01*
X114830800Y-78696554D02*
X114792704Y-78582268D01*
X114792704Y-78582268D02*
X114792704Y-78506077D01*
X114792704Y-78506077D02*
X114830800Y-78391792D01*
X114830800Y-78391792D02*
X114868895Y-78353696D01*
X114868895Y-78353696D02*
X115135561Y-78353696D01*
X115135561Y-78353696D02*
X115135561Y-78506077D01*
X114792704Y-78010839D02*
X115592704Y-78010839D01*
X115592704Y-78010839D02*
X115592704Y-77706077D01*
X115592704Y-77706077D02*
X115554609Y-77629887D01*
X115554609Y-77629887D02*
X115516514Y-77591792D01*
X115516514Y-77591792D02*
X115440323Y-77553696D01*
X115440323Y-77553696D02*
X115326038Y-77553696D01*
X115326038Y-77553696D02*
X115249847Y-77591792D01*
X115249847Y-77591792D02*
X115211752Y-77629887D01*
X115211752Y-77629887D02*
X115173657Y-77706077D01*
X115173657Y-77706077D02*
X115173657Y-78010839D01*
X114792704Y-76791792D02*
X114792704Y-77248935D01*
X114792704Y-77020363D02*
X115592704Y-77020363D01*
X115592704Y-77020363D02*
X115478419Y-77096554D01*
X115478419Y-77096554D02*
X115402228Y-77172744D01*
X115402228Y-77172744D02*
X115364133Y-77248935D01*
X115592704Y-76525125D02*
X115592704Y-75991791D01*
X115592704Y-75991791D02*
X114792704Y-76334649D01*
X120634609Y-66112970D02*
X120672704Y-66189160D01*
X120672704Y-66189160D02*
X120672704Y-66303446D01*
X120672704Y-66303446D02*
X120634609Y-66417732D01*
X120634609Y-66417732D02*
X120558419Y-66493922D01*
X120558419Y-66493922D02*
X120482228Y-66532017D01*
X120482228Y-66532017D02*
X120329847Y-66570113D01*
X120329847Y-66570113D02*
X120215561Y-66570113D01*
X120215561Y-66570113D02*
X120063180Y-66532017D01*
X120063180Y-66532017D02*
X119986990Y-66493922D01*
X119986990Y-66493922D02*
X119910800Y-66417732D01*
X119910800Y-66417732D02*
X119872704Y-66303446D01*
X119872704Y-66303446D02*
X119872704Y-66227255D01*
X119872704Y-66227255D02*
X119910800Y-66112970D01*
X119910800Y-66112970D02*
X119948895Y-66074874D01*
X119948895Y-66074874D02*
X120215561Y-66074874D01*
X120215561Y-66074874D02*
X120215561Y-66227255D01*
X119872704Y-65732017D02*
X120672704Y-65732017D01*
X120672704Y-65732017D02*
X120672704Y-65427255D01*
X120672704Y-65427255D02*
X120634609Y-65351065D01*
X120634609Y-65351065D02*
X120596514Y-65312970D01*
X120596514Y-65312970D02*
X120520323Y-65274874D01*
X120520323Y-65274874D02*
X120406038Y-65274874D01*
X120406038Y-65274874D02*
X120329847Y-65312970D01*
X120329847Y-65312970D02*
X120291752Y-65351065D01*
X120291752Y-65351065D02*
X120253657Y-65427255D01*
X120253657Y-65427255D02*
X120253657Y-65732017D01*
X119872704Y-64512970D02*
X119872704Y-64970113D01*
X119872704Y-64741541D02*
X120672704Y-64741541D01*
X120672704Y-64741541D02*
X120558419Y-64817732D01*
X120558419Y-64817732D02*
X120482228Y-64893922D01*
X120482228Y-64893922D02*
X120444133Y-64970113D01*
X120672704Y-64246303D02*
X120672704Y-63751065D01*
X120672704Y-63751065D02*
X120367942Y-64017731D01*
X120367942Y-64017731D02*
X120367942Y-63903446D01*
X120367942Y-63903446D02*
X120329847Y-63827255D01*
X120329847Y-63827255D02*
X120291752Y-63789160D01*
X120291752Y-63789160D02*
X120215561Y-63751065D01*
X120215561Y-63751065D02*
X120025085Y-63751065D01*
X120025085Y-63751065D02*
X119948895Y-63789160D01*
X119948895Y-63789160D02*
X119910800Y-63827255D01*
X119910800Y-63827255D02*
X119872704Y-63903446D01*
X119872704Y-63903446D02*
X119872704Y-64132017D01*
X119872704Y-64132017D02*
X119910800Y-64208208D01*
X119910800Y-64208208D02*
X119948895Y-64246303D01*
X140954609Y-65351065D02*
X140992704Y-65427255D01*
X140992704Y-65427255D02*
X140992704Y-65541541D01*
X140992704Y-65541541D02*
X140954609Y-65655827D01*
X140954609Y-65655827D02*
X140878419Y-65732017D01*
X140878419Y-65732017D02*
X140802228Y-65770112D01*
X140802228Y-65770112D02*
X140649847Y-65808208D01*
X140649847Y-65808208D02*
X140535561Y-65808208D01*
X140535561Y-65808208D02*
X140383180Y-65770112D01*
X140383180Y-65770112D02*
X140306990Y-65732017D01*
X140306990Y-65732017D02*
X140230800Y-65655827D01*
X140230800Y-65655827D02*
X140192704Y-65541541D01*
X140192704Y-65541541D02*
X140192704Y-65465350D01*
X140192704Y-65465350D02*
X140230800Y-65351065D01*
X140230800Y-65351065D02*
X140268895Y-65312969D01*
X140268895Y-65312969D02*
X140535561Y-65312969D01*
X140535561Y-65312969D02*
X140535561Y-65465350D01*
X140192704Y-64970112D02*
X140992704Y-64970112D01*
X140992704Y-64970112D02*
X140992704Y-64665350D01*
X140992704Y-64665350D02*
X140954609Y-64589160D01*
X140954609Y-64589160D02*
X140916514Y-64551065D01*
X140916514Y-64551065D02*
X140840323Y-64512969D01*
X140840323Y-64512969D02*
X140726038Y-64512969D01*
X140726038Y-64512969D02*
X140649847Y-64551065D01*
X140649847Y-64551065D02*
X140611752Y-64589160D01*
X140611752Y-64589160D02*
X140573657Y-64665350D01*
X140573657Y-64665350D02*
X140573657Y-64970112D01*
X140992704Y-63827255D02*
X140992704Y-63979636D01*
X140992704Y-63979636D02*
X140954609Y-64055827D01*
X140954609Y-64055827D02*
X140916514Y-64093922D01*
X140916514Y-64093922D02*
X140802228Y-64170112D01*
X140802228Y-64170112D02*
X140649847Y-64208208D01*
X140649847Y-64208208D02*
X140345085Y-64208208D01*
X140345085Y-64208208D02*
X140268895Y-64170112D01*
X140268895Y-64170112D02*
X140230800Y-64132017D01*
X140230800Y-64132017D02*
X140192704Y-64055827D01*
X140192704Y-64055827D02*
X140192704Y-63903446D01*
X140192704Y-63903446D02*
X140230800Y-63827255D01*
X140230800Y-63827255D02*
X140268895Y-63789160D01*
X140268895Y-63789160D02*
X140345085Y-63751065D01*
X140345085Y-63751065D02*
X140535561Y-63751065D01*
X140535561Y-63751065D02*
X140611752Y-63789160D01*
X140611752Y-63789160D02*
X140649847Y-63827255D01*
X140649847Y-63827255D02*
X140687942Y-63903446D01*
X140687942Y-63903446D02*
X140687942Y-64055827D01*
X140687942Y-64055827D02*
X140649847Y-64132017D01*
X140649847Y-64132017D02*
X140611752Y-64170112D01*
X140611752Y-64170112D02*
X140535561Y-64208208D01*
X146034609Y-65351065D02*
X146072704Y-65427255D01*
X146072704Y-65427255D02*
X146072704Y-65541541D01*
X146072704Y-65541541D02*
X146034609Y-65655827D01*
X146034609Y-65655827D02*
X145958419Y-65732017D01*
X145958419Y-65732017D02*
X145882228Y-65770112D01*
X145882228Y-65770112D02*
X145729847Y-65808208D01*
X145729847Y-65808208D02*
X145615561Y-65808208D01*
X145615561Y-65808208D02*
X145463180Y-65770112D01*
X145463180Y-65770112D02*
X145386990Y-65732017D01*
X145386990Y-65732017D02*
X145310800Y-65655827D01*
X145310800Y-65655827D02*
X145272704Y-65541541D01*
X145272704Y-65541541D02*
X145272704Y-65465350D01*
X145272704Y-65465350D02*
X145310800Y-65351065D01*
X145310800Y-65351065D02*
X145348895Y-65312969D01*
X145348895Y-65312969D02*
X145615561Y-65312969D01*
X145615561Y-65312969D02*
X145615561Y-65465350D01*
X145272704Y-64970112D02*
X146072704Y-64970112D01*
X146072704Y-64970112D02*
X146072704Y-64665350D01*
X146072704Y-64665350D02*
X146034609Y-64589160D01*
X146034609Y-64589160D02*
X145996514Y-64551065D01*
X145996514Y-64551065D02*
X145920323Y-64512969D01*
X145920323Y-64512969D02*
X145806038Y-64512969D01*
X145806038Y-64512969D02*
X145729847Y-64551065D01*
X145729847Y-64551065D02*
X145691752Y-64589160D01*
X145691752Y-64589160D02*
X145653657Y-64665350D01*
X145653657Y-64665350D02*
X145653657Y-64970112D01*
X146072704Y-63789160D02*
X146072704Y-64170112D01*
X146072704Y-64170112D02*
X145691752Y-64208208D01*
X145691752Y-64208208D02*
X145729847Y-64170112D01*
X145729847Y-64170112D02*
X145767942Y-64093922D01*
X145767942Y-64093922D02*
X145767942Y-63903446D01*
X145767942Y-63903446D02*
X145729847Y-63827255D01*
X145729847Y-63827255D02*
X145691752Y-63789160D01*
X145691752Y-63789160D02*
X145615561Y-63751065D01*
X145615561Y-63751065D02*
X145425085Y-63751065D01*
X145425085Y-63751065D02*
X145348895Y-63789160D01*
X145348895Y-63789160D02*
X145310800Y-63827255D01*
X145310800Y-63827255D02*
X145272704Y-63903446D01*
X145272704Y-63903446D02*
X145272704Y-64093922D01*
X145272704Y-64093922D02*
X145310800Y-64170112D01*
X145310800Y-64170112D02*
X145348895Y-64208208D01*
X115554609Y-66112970D02*
X115592704Y-66189160D01*
X115592704Y-66189160D02*
X115592704Y-66303446D01*
X115592704Y-66303446D02*
X115554609Y-66417732D01*
X115554609Y-66417732D02*
X115478419Y-66493922D01*
X115478419Y-66493922D02*
X115402228Y-66532017D01*
X115402228Y-66532017D02*
X115249847Y-66570113D01*
X115249847Y-66570113D02*
X115135561Y-66570113D01*
X115135561Y-66570113D02*
X114983180Y-66532017D01*
X114983180Y-66532017D02*
X114906990Y-66493922D01*
X114906990Y-66493922D02*
X114830800Y-66417732D01*
X114830800Y-66417732D02*
X114792704Y-66303446D01*
X114792704Y-66303446D02*
X114792704Y-66227255D01*
X114792704Y-66227255D02*
X114830800Y-66112970D01*
X114830800Y-66112970D02*
X114868895Y-66074874D01*
X114868895Y-66074874D02*
X115135561Y-66074874D01*
X115135561Y-66074874D02*
X115135561Y-66227255D01*
X114792704Y-65732017D02*
X115592704Y-65732017D01*
X115592704Y-65732017D02*
X115592704Y-65427255D01*
X115592704Y-65427255D02*
X115554609Y-65351065D01*
X115554609Y-65351065D02*
X115516514Y-65312970D01*
X115516514Y-65312970D02*
X115440323Y-65274874D01*
X115440323Y-65274874D02*
X115326038Y-65274874D01*
X115326038Y-65274874D02*
X115249847Y-65312970D01*
X115249847Y-65312970D02*
X115211752Y-65351065D01*
X115211752Y-65351065D02*
X115173657Y-65427255D01*
X115173657Y-65427255D02*
X115173657Y-65732017D01*
X114792704Y-64512970D02*
X114792704Y-64970113D01*
X114792704Y-64741541D02*
X115592704Y-64741541D01*
X115592704Y-64741541D02*
X115478419Y-64817732D01*
X115478419Y-64817732D02*
X115402228Y-64893922D01*
X115402228Y-64893922D02*
X115364133Y-64970113D01*
X115326038Y-63827255D02*
X114792704Y-63827255D01*
X115630800Y-64017731D02*
X115059371Y-64208208D01*
X115059371Y-64208208D02*
X115059371Y-63712969D01*
X135874609Y-65351065D02*
X135912704Y-65427255D01*
X135912704Y-65427255D02*
X135912704Y-65541541D01*
X135912704Y-65541541D02*
X135874609Y-65655827D01*
X135874609Y-65655827D02*
X135798419Y-65732017D01*
X135798419Y-65732017D02*
X135722228Y-65770112D01*
X135722228Y-65770112D02*
X135569847Y-65808208D01*
X135569847Y-65808208D02*
X135455561Y-65808208D01*
X135455561Y-65808208D02*
X135303180Y-65770112D01*
X135303180Y-65770112D02*
X135226990Y-65732017D01*
X135226990Y-65732017D02*
X135150800Y-65655827D01*
X135150800Y-65655827D02*
X135112704Y-65541541D01*
X135112704Y-65541541D02*
X135112704Y-65465350D01*
X135112704Y-65465350D02*
X135150800Y-65351065D01*
X135150800Y-65351065D02*
X135188895Y-65312969D01*
X135188895Y-65312969D02*
X135455561Y-65312969D01*
X135455561Y-65312969D02*
X135455561Y-65465350D01*
X135112704Y-64970112D02*
X135912704Y-64970112D01*
X135912704Y-64970112D02*
X135912704Y-64665350D01*
X135912704Y-64665350D02*
X135874609Y-64589160D01*
X135874609Y-64589160D02*
X135836514Y-64551065D01*
X135836514Y-64551065D02*
X135760323Y-64512969D01*
X135760323Y-64512969D02*
X135646038Y-64512969D01*
X135646038Y-64512969D02*
X135569847Y-64551065D01*
X135569847Y-64551065D02*
X135531752Y-64589160D01*
X135531752Y-64589160D02*
X135493657Y-64665350D01*
X135493657Y-64665350D02*
X135493657Y-64970112D01*
X135569847Y-64055827D02*
X135607942Y-64132017D01*
X135607942Y-64132017D02*
X135646038Y-64170112D01*
X135646038Y-64170112D02*
X135722228Y-64208208D01*
X135722228Y-64208208D02*
X135760323Y-64208208D01*
X135760323Y-64208208D02*
X135836514Y-64170112D01*
X135836514Y-64170112D02*
X135874609Y-64132017D01*
X135874609Y-64132017D02*
X135912704Y-64055827D01*
X135912704Y-64055827D02*
X135912704Y-63903446D01*
X135912704Y-63903446D02*
X135874609Y-63827255D01*
X135874609Y-63827255D02*
X135836514Y-63789160D01*
X135836514Y-63789160D02*
X135760323Y-63751065D01*
X135760323Y-63751065D02*
X135722228Y-63751065D01*
X135722228Y-63751065D02*
X135646038Y-63789160D01*
X135646038Y-63789160D02*
X135607942Y-63827255D01*
X135607942Y-63827255D02*
X135569847Y-63903446D01*
X135569847Y-63903446D02*
X135569847Y-64055827D01*
X135569847Y-64055827D02*
X135531752Y-64132017D01*
X135531752Y-64132017D02*
X135493657Y-64170112D01*
X135493657Y-64170112D02*
X135417466Y-64208208D01*
X135417466Y-64208208D02*
X135265085Y-64208208D01*
X135265085Y-64208208D02*
X135188895Y-64170112D01*
X135188895Y-64170112D02*
X135150800Y-64132017D01*
X135150800Y-64132017D02*
X135112704Y-64055827D01*
X135112704Y-64055827D02*
X135112704Y-63903446D01*
X135112704Y-63903446D02*
X135150800Y-63827255D01*
X135150800Y-63827255D02*
X135188895Y-63789160D01*
X135188895Y-63789160D02*
X135265085Y-63751065D01*
X135265085Y-63751065D02*
X135417466Y-63751065D01*
X135417466Y-63751065D02*
X135493657Y-63789160D01*
X135493657Y-63789160D02*
X135531752Y-63827255D01*
X135531752Y-63827255D02*
X135569847Y-63903446D01*
X158772704Y-78925125D02*
X157972704Y-78658458D01*
X157972704Y-78658458D02*
X158772704Y-78391792D01*
X158010800Y-78163221D02*
X157972704Y-78048935D01*
X157972704Y-78048935D02*
X157972704Y-77858459D01*
X157972704Y-77858459D02*
X158010800Y-77782268D01*
X158010800Y-77782268D02*
X158048895Y-77744173D01*
X158048895Y-77744173D02*
X158125085Y-77706078D01*
X158125085Y-77706078D02*
X158201276Y-77706078D01*
X158201276Y-77706078D02*
X158277466Y-77744173D01*
X158277466Y-77744173D02*
X158315561Y-77782268D01*
X158315561Y-77782268D02*
X158353657Y-77858459D01*
X158353657Y-77858459D02*
X158391752Y-78010840D01*
X158391752Y-78010840D02*
X158429847Y-78087030D01*
X158429847Y-78087030D02*
X158467942Y-78125125D01*
X158467942Y-78125125D02*
X158544133Y-78163221D01*
X158544133Y-78163221D02*
X158620323Y-78163221D01*
X158620323Y-78163221D02*
X158696514Y-78125125D01*
X158696514Y-78125125D02*
X158734609Y-78087030D01*
X158734609Y-78087030D02*
X158772704Y-78010840D01*
X158772704Y-78010840D02*
X158772704Y-77820363D01*
X158772704Y-77820363D02*
X158734609Y-77706078D01*
X158353657Y-77210839D02*
X157972704Y-77210839D01*
X158772704Y-77477506D02*
X158353657Y-77210839D01*
X158353657Y-77210839D02*
X158772704Y-76944173D01*
X158010800Y-76715602D02*
X157972704Y-76601316D01*
X157972704Y-76601316D02*
X157972704Y-76410840D01*
X157972704Y-76410840D02*
X158010800Y-76334649D01*
X158010800Y-76334649D02*
X158048895Y-76296554D01*
X158048895Y-76296554D02*
X158125085Y-76258459D01*
X158125085Y-76258459D02*
X158201276Y-76258459D01*
X158201276Y-76258459D02*
X158277466Y-76296554D01*
X158277466Y-76296554D02*
X158315561Y-76334649D01*
X158315561Y-76334649D02*
X158353657Y-76410840D01*
X158353657Y-76410840D02*
X158391752Y-76563221D01*
X158391752Y-76563221D02*
X158429847Y-76639411D01*
X158429847Y-76639411D02*
X158467942Y-76677506D01*
X158467942Y-76677506D02*
X158544133Y-76715602D01*
X158544133Y-76715602D02*
X158620323Y-76715602D01*
X158620323Y-76715602D02*
X158696514Y-76677506D01*
X158696514Y-76677506D02*
X158734609Y-76639411D01*
X158734609Y-76639411D02*
X158772704Y-76563221D01*
X158772704Y-76563221D02*
X158772704Y-76372744D01*
X158772704Y-76372744D02*
X158734609Y-76258459D01*
X118094609Y-65427255D02*
X118132704Y-65503445D01*
X118132704Y-65503445D02*
X118132704Y-65617731D01*
X118132704Y-65617731D02*
X118094609Y-65732017D01*
X118094609Y-65732017D02*
X118018419Y-65808207D01*
X118018419Y-65808207D02*
X117942228Y-65846302D01*
X117942228Y-65846302D02*
X117789847Y-65884398D01*
X117789847Y-65884398D02*
X117675561Y-65884398D01*
X117675561Y-65884398D02*
X117523180Y-65846302D01*
X117523180Y-65846302D02*
X117446990Y-65808207D01*
X117446990Y-65808207D02*
X117370800Y-65732017D01*
X117370800Y-65732017D02*
X117332704Y-65617731D01*
X117332704Y-65617731D02*
X117332704Y-65541540D01*
X117332704Y-65541540D02*
X117370800Y-65427255D01*
X117370800Y-65427255D02*
X117408895Y-65389159D01*
X117408895Y-65389159D02*
X117675561Y-65389159D01*
X117675561Y-65389159D02*
X117675561Y-65541540D01*
X117332704Y-65046302D02*
X118132704Y-65046302D01*
X118132704Y-65046302D02*
X117332704Y-64589159D01*
X117332704Y-64589159D02*
X118132704Y-64589159D01*
X117332704Y-64208207D02*
X118132704Y-64208207D01*
X118132704Y-64208207D02*
X118132704Y-64017731D01*
X118132704Y-64017731D02*
X118094609Y-63903445D01*
X118094609Y-63903445D02*
X118018419Y-63827255D01*
X118018419Y-63827255D02*
X117942228Y-63789160D01*
X117942228Y-63789160D02*
X117789847Y-63751064D01*
X117789847Y-63751064D02*
X117675561Y-63751064D01*
X117675561Y-63751064D02*
X117523180Y-63789160D01*
X117523180Y-63789160D02*
X117446990Y-63827255D01*
X117446990Y-63827255D02*
X117370800Y-63903445D01*
X117370800Y-63903445D02*
X117332704Y-64017731D01*
X117332704Y-64017731D02*
X117332704Y-64208207D01*
X156194609Y-78391792D02*
X156232704Y-78467982D01*
X156232704Y-78467982D02*
X156232704Y-78582268D01*
X156232704Y-78582268D02*
X156194609Y-78696554D01*
X156194609Y-78696554D02*
X156118419Y-78772744D01*
X156118419Y-78772744D02*
X156042228Y-78810839D01*
X156042228Y-78810839D02*
X155889847Y-78848935D01*
X155889847Y-78848935D02*
X155775561Y-78848935D01*
X155775561Y-78848935D02*
X155623180Y-78810839D01*
X155623180Y-78810839D02*
X155546990Y-78772744D01*
X155546990Y-78772744D02*
X155470800Y-78696554D01*
X155470800Y-78696554D02*
X155432704Y-78582268D01*
X155432704Y-78582268D02*
X155432704Y-78506077D01*
X155432704Y-78506077D02*
X155470800Y-78391792D01*
X155470800Y-78391792D02*
X155508895Y-78353696D01*
X155508895Y-78353696D02*
X155775561Y-78353696D01*
X155775561Y-78353696D02*
X155775561Y-78506077D01*
X155432704Y-78010839D02*
X156232704Y-78010839D01*
X156232704Y-78010839D02*
X155432704Y-77553696D01*
X155432704Y-77553696D02*
X156232704Y-77553696D01*
X155432704Y-77172744D02*
X156232704Y-77172744D01*
X156232704Y-77172744D02*
X156232704Y-76982268D01*
X156232704Y-76982268D02*
X156194609Y-76867982D01*
X156194609Y-76867982D02*
X156118419Y-76791792D01*
X156118419Y-76791792D02*
X156042228Y-76753697D01*
X156042228Y-76753697D02*
X155889847Y-76715601D01*
X155889847Y-76715601D02*
X155775561Y-76715601D01*
X155775561Y-76715601D02*
X155623180Y-76753697D01*
X155623180Y-76753697D02*
X155546990Y-76791792D01*
X155546990Y-76791792D02*
X155470800Y-76867982D01*
X155470800Y-76867982D02*
X155432704Y-76982268D01*
X155432704Y-76982268D02*
X155432704Y-77172744D01*
X161274609Y-65351065D02*
X161312704Y-65427255D01*
X161312704Y-65427255D02*
X161312704Y-65541541D01*
X161312704Y-65541541D02*
X161274609Y-65655827D01*
X161274609Y-65655827D02*
X161198419Y-65732017D01*
X161198419Y-65732017D02*
X161122228Y-65770112D01*
X161122228Y-65770112D02*
X160969847Y-65808208D01*
X160969847Y-65808208D02*
X160855561Y-65808208D01*
X160855561Y-65808208D02*
X160703180Y-65770112D01*
X160703180Y-65770112D02*
X160626990Y-65732017D01*
X160626990Y-65732017D02*
X160550800Y-65655827D01*
X160550800Y-65655827D02*
X160512704Y-65541541D01*
X160512704Y-65541541D02*
X160512704Y-65465350D01*
X160512704Y-65465350D02*
X160550800Y-65351065D01*
X160550800Y-65351065D02*
X160588895Y-65312969D01*
X160588895Y-65312969D02*
X160855561Y-65312969D01*
X160855561Y-65312969D02*
X160855561Y-65465350D01*
X160512704Y-64970112D02*
X161312704Y-64970112D01*
X161312704Y-64970112D02*
X161312704Y-64665350D01*
X161312704Y-64665350D02*
X161274609Y-64589160D01*
X161274609Y-64589160D02*
X161236514Y-64551065D01*
X161236514Y-64551065D02*
X161160323Y-64512969D01*
X161160323Y-64512969D02*
X161046038Y-64512969D01*
X161046038Y-64512969D02*
X160969847Y-64551065D01*
X160969847Y-64551065D02*
X160931752Y-64589160D01*
X160931752Y-64589160D02*
X160893657Y-64665350D01*
X160893657Y-64665350D02*
X160893657Y-64970112D01*
X161312704Y-64017731D02*
X161312704Y-63941541D01*
X161312704Y-63941541D02*
X161274609Y-63865350D01*
X161274609Y-63865350D02*
X161236514Y-63827255D01*
X161236514Y-63827255D02*
X161160323Y-63789160D01*
X161160323Y-63789160D02*
X161007942Y-63751065D01*
X161007942Y-63751065D02*
X160817466Y-63751065D01*
X160817466Y-63751065D02*
X160665085Y-63789160D01*
X160665085Y-63789160D02*
X160588895Y-63827255D01*
X160588895Y-63827255D02*
X160550800Y-63865350D01*
X160550800Y-63865350D02*
X160512704Y-63941541D01*
X160512704Y-63941541D02*
X160512704Y-64017731D01*
X160512704Y-64017731D02*
X160550800Y-64093922D01*
X160550800Y-64093922D02*
X160588895Y-64132017D01*
X160588895Y-64132017D02*
X160665085Y-64170112D01*
X160665085Y-64170112D02*
X160817466Y-64208208D01*
X160817466Y-64208208D02*
X161007942Y-64208208D01*
X161007942Y-64208208D02*
X161160323Y-64170112D01*
X161160323Y-64170112D02*
X161236514Y-64132017D01*
X161236514Y-64132017D02*
X161274609Y-64093922D01*
X161274609Y-64093922D02*
X161312704Y-64017731D01*
X135112704Y-78353696D02*
X135493657Y-78620363D01*
X135112704Y-78810839D02*
X135912704Y-78810839D01*
X135912704Y-78810839D02*
X135912704Y-78506077D01*
X135912704Y-78506077D02*
X135874609Y-78429887D01*
X135874609Y-78429887D02*
X135836514Y-78391792D01*
X135836514Y-78391792D02*
X135760323Y-78353696D01*
X135760323Y-78353696D02*
X135646038Y-78353696D01*
X135646038Y-78353696D02*
X135569847Y-78391792D01*
X135569847Y-78391792D02*
X135531752Y-78429887D01*
X135531752Y-78429887D02*
X135493657Y-78506077D01*
X135493657Y-78506077D02*
X135493657Y-78810839D01*
X135912704Y-78010839D02*
X135265085Y-78010839D01*
X135265085Y-78010839D02*
X135188895Y-77972744D01*
X135188895Y-77972744D02*
X135150800Y-77934649D01*
X135150800Y-77934649D02*
X135112704Y-77858458D01*
X135112704Y-77858458D02*
X135112704Y-77706077D01*
X135112704Y-77706077D02*
X135150800Y-77629887D01*
X135150800Y-77629887D02*
X135188895Y-77591792D01*
X135188895Y-77591792D02*
X135265085Y-77553696D01*
X135265085Y-77553696D02*
X135912704Y-77553696D01*
X135112704Y-77172744D02*
X135912704Y-77172744D01*
X135912704Y-77172744D02*
X135112704Y-76715601D01*
X135112704Y-76715601D02*
X135912704Y-76715601D01*
X128254609Y-78391792D02*
X128292704Y-78467982D01*
X128292704Y-78467982D02*
X128292704Y-78582268D01*
X128292704Y-78582268D02*
X128254609Y-78696554D01*
X128254609Y-78696554D02*
X128178419Y-78772744D01*
X128178419Y-78772744D02*
X128102228Y-78810839D01*
X128102228Y-78810839D02*
X127949847Y-78848935D01*
X127949847Y-78848935D02*
X127835561Y-78848935D01*
X127835561Y-78848935D02*
X127683180Y-78810839D01*
X127683180Y-78810839D02*
X127606990Y-78772744D01*
X127606990Y-78772744D02*
X127530800Y-78696554D01*
X127530800Y-78696554D02*
X127492704Y-78582268D01*
X127492704Y-78582268D02*
X127492704Y-78506077D01*
X127492704Y-78506077D02*
X127530800Y-78391792D01*
X127530800Y-78391792D02*
X127568895Y-78353696D01*
X127568895Y-78353696D02*
X127835561Y-78353696D01*
X127835561Y-78353696D02*
X127835561Y-78506077D01*
X127492704Y-78010839D02*
X128292704Y-78010839D01*
X128292704Y-78010839D02*
X128292704Y-77706077D01*
X128292704Y-77706077D02*
X128254609Y-77629887D01*
X128254609Y-77629887D02*
X128216514Y-77591792D01*
X128216514Y-77591792D02*
X128140323Y-77553696D01*
X128140323Y-77553696D02*
X128026038Y-77553696D01*
X128026038Y-77553696D02*
X127949847Y-77591792D01*
X127949847Y-77591792D02*
X127911752Y-77629887D01*
X127911752Y-77629887D02*
X127873657Y-77706077D01*
X127873657Y-77706077D02*
X127873657Y-78010839D01*
X128216514Y-77248935D02*
X128254609Y-77210839D01*
X128254609Y-77210839D02*
X128292704Y-77134649D01*
X128292704Y-77134649D02*
X128292704Y-76944173D01*
X128292704Y-76944173D02*
X128254609Y-76867982D01*
X128254609Y-76867982D02*
X128216514Y-76829887D01*
X128216514Y-76829887D02*
X128140323Y-76791792D01*
X128140323Y-76791792D02*
X128064133Y-76791792D01*
X128064133Y-76791792D02*
X127949847Y-76829887D01*
X127949847Y-76829887D02*
X127492704Y-77287030D01*
X127492704Y-77287030D02*
X127492704Y-76791792D01*
X127492704Y-76029887D02*
X127492704Y-76487030D01*
X127492704Y-76258458D02*
X128292704Y-76258458D01*
X128292704Y-76258458D02*
X128178419Y-76334649D01*
X128178419Y-76334649D02*
X128102228Y-76410839D01*
X128102228Y-76410839D02*
X128064133Y-76487030D01*
X148574609Y-65351065D02*
X148612704Y-65427255D01*
X148612704Y-65427255D02*
X148612704Y-65541541D01*
X148612704Y-65541541D02*
X148574609Y-65655827D01*
X148574609Y-65655827D02*
X148498419Y-65732017D01*
X148498419Y-65732017D02*
X148422228Y-65770112D01*
X148422228Y-65770112D02*
X148269847Y-65808208D01*
X148269847Y-65808208D02*
X148155561Y-65808208D01*
X148155561Y-65808208D02*
X148003180Y-65770112D01*
X148003180Y-65770112D02*
X147926990Y-65732017D01*
X147926990Y-65732017D02*
X147850800Y-65655827D01*
X147850800Y-65655827D02*
X147812704Y-65541541D01*
X147812704Y-65541541D02*
X147812704Y-65465350D01*
X147812704Y-65465350D02*
X147850800Y-65351065D01*
X147850800Y-65351065D02*
X147888895Y-65312969D01*
X147888895Y-65312969D02*
X148155561Y-65312969D01*
X148155561Y-65312969D02*
X148155561Y-65465350D01*
X147812704Y-64970112D02*
X148612704Y-64970112D01*
X148612704Y-64970112D02*
X148612704Y-64665350D01*
X148612704Y-64665350D02*
X148574609Y-64589160D01*
X148574609Y-64589160D02*
X148536514Y-64551065D01*
X148536514Y-64551065D02*
X148460323Y-64512969D01*
X148460323Y-64512969D02*
X148346038Y-64512969D01*
X148346038Y-64512969D02*
X148269847Y-64551065D01*
X148269847Y-64551065D02*
X148231752Y-64589160D01*
X148231752Y-64589160D02*
X148193657Y-64665350D01*
X148193657Y-64665350D02*
X148193657Y-64970112D01*
X148346038Y-63827255D02*
X147812704Y-63827255D01*
X148650800Y-64017731D02*
X148079371Y-64208208D01*
X148079371Y-64208208D02*
X148079371Y-63712969D01*
X156194609Y-65427255D02*
X156232704Y-65503445D01*
X156232704Y-65503445D02*
X156232704Y-65617731D01*
X156232704Y-65617731D02*
X156194609Y-65732017D01*
X156194609Y-65732017D02*
X156118419Y-65808207D01*
X156118419Y-65808207D02*
X156042228Y-65846302D01*
X156042228Y-65846302D02*
X155889847Y-65884398D01*
X155889847Y-65884398D02*
X155775561Y-65884398D01*
X155775561Y-65884398D02*
X155623180Y-65846302D01*
X155623180Y-65846302D02*
X155546990Y-65808207D01*
X155546990Y-65808207D02*
X155470800Y-65732017D01*
X155470800Y-65732017D02*
X155432704Y-65617731D01*
X155432704Y-65617731D02*
X155432704Y-65541540D01*
X155432704Y-65541540D02*
X155470800Y-65427255D01*
X155470800Y-65427255D02*
X155508895Y-65389159D01*
X155508895Y-65389159D02*
X155775561Y-65389159D01*
X155775561Y-65389159D02*
X155775561Y-65541540D01*
X155432704Y-65046302D02*
X156232704Y-65046302D01*
X156232704Y-65046302D02*
X155432704Y-64589159D01*
X155432704Y-64589159D02*
X156232704Y-64589159D01*
X155432704Y-64208207D02*
X156232704Y-64208207D01*
X156232704Y-64208207D02*
X156232704Y-64017731D01*
X156232704Y-64017731D02*
X156194609Y-63903445D01*
X156194609Y-63903445D02*
X156118419Y-63827255D01*
X156118419Y-63827255D02*
X156042228Y-63789160D01*
X156042228Y-63789160D02*
X155889847Y-63751064D01*
X155889847Y-63751064D02*
X155775561Y-63751064D01*
X155775561Y-63751064D02*
X155623180Y-63789160D01*
X155623180Y-63789160D02*
X155546990Y-63827255D01*
X155546990Y-63827255D02*
X155470800Y-63903445D01*
X155470800Y-63903445D02*
X155432704Y-64017731D01*
X155432704Y-64017731D02*
X155432704Y-64208207D01*
X151114609Y-65351065D02*
X151152704Y-65427255D01*
X151152704Y-65427255D02*
X151152704Y-65541541D01*
X151152704Y-65541541D02*
X151114609Y-65655827D01*
X151114609Y-65655827D02*
X151038419Y-65732017D01*
X151038419Y-65732017D02*
X150962228Y-65770112D01*
X150962228Y-65770112D02*
X150809847Y-65808208D01*
X150809847Y-65808208D02*
X150695561Y-65808208D01*
X150695561Y-65808208D02*
X150543180Y-65770112D01*
X150543180Y-65770112D02*
X150466990Y-65732017D01*
X150466990Y-65732017D02*
X150390800Y-65655827D01*
X150390800Y-65655827D02*
X150352704Y-65541541D01*
X150352704Y-65541541D02*
X150352704Y-65465350D01*
X150352704Y-65465350D02*
X150390800Y-65351065D01*
X150390800Y-65351065D02*
X150428895Y-65312969D01*
X150428895Y-65312969D02*
X150695561Y-65312969D01*
X150695561Y-65312969D02*
X150695561Y-65465350D01*
X150352704Y-64970112D02*
X151152704Y-64970112D01*
X151152704Y-64970112D02*
X151152704Y-64665350D01*
X151152704Y-64665350D02*
X151114609Y-64589160D01*
X151114609Y-64589160D02*
X151076514Y-64551065D01*
X151076514Y-64551065D02*
X151000323Y-64512969D01*
X151000323Y-64512969D02*
X150886038Y-64512969D01*
X150886038Y-64512969D02*
X150809847Y-64551065D01*
X150809847Y-64551065D02*
X150771752Y-64589160D01*
X150771752Y-64589160D02*
X150733657Y-64665350D01*
X150733657Y-64665350D02*
X150733657Y-64970112D01*
X151152704Y-64246303D02*
X151152704Y-63751065D01*
X151152704Y-63751065D02*
X150847942Y-64017731D01*
X150847942Y-64017731D02*
X150847942Y-63903446D01*
X150847942Y-63903446D02*
X150809847Y-63827255D01*
X150809847Y-63827255D02*
X150771752Y-63789160D01*
X150771752Y-63789160D02*
X150695561Y-63751065D01*
X150695561Y-63751065D02*
X150505085Y-63751065D01*
X150505085Y-63751065D02*
X150428895Y-63789160D01*
X150428895Y-63789160D02*
X150390800Y-63827255D01*
X150390800Y-63827255D02*
X150352704Y-63903446D01*
X150352704Y-63903446D02*
X150352704Y-64132017D01*
X150352704Y-64132017D02*
X150390800Y-64208208D01*
X150390800Y-64208208D02*
X150428895Y-64246303D01*
X125714609Y-78391792D02*
X125752704Y-78467982D01*
X125752704Y-78467982D02*
X125752704Y-78582268D01*
X125752704Y-78582268D02*
X125714609Y-78696554D01*
X125714609Y-78696554D02*
X125638419Y-78772744D01*
X125638419Y-78772744D02*
X125562228Y-78810839D01*
X125562228Y-78810839D02*
X125409847Y-78848935D01*
X125409847Y-78848935D02*
X125295561Y-78848935D01*
X125295561Y-78848935D02*
X125143180Y-78810839D01*
X125143180Y-78810839D02*
X125066990Y-78772744D01*
X125066990Y-78772744D02*
X124990800Y-78696554D01*
X124990800Y-78696554D02*
X124952704Y-78582268D01*
X124952704Y-78582268D02*
X124952704Y-78506077D01*
X124952704Y-78506077D02*
X124990800Y-78391792D01*
X124990800Y-78391792D02*
X125028895Y-78353696D01*
X125028895Y-78353696D02*
X125295561Y-78353696D01*
X125295561Y-78353696D02*
X125295561Y-78506077D01*
X124952704Y-78010839D02*
X125752704Y-78010839D01*
X125752704Y-78010839D02*
X125752704Y-77706077D01*
X125752704Y-77706077D02*
X125714609Y-77629887D01*
X125714609Y-77629887D02*
X125676514Y-77591792D01*
X125676514Y-77591792D02*
X125600323Y-77553696D01*
X125600323Y-77553696D02*
X125486038Y-77553696D01*
X125486038Y-77553696D02*
X125409847Y-77591792D01*
X125409847Y-77591792D02*
X125371752Y-77629887D01*
X125371752Y-77629887D02*
X125333657Y-77706077D01*
X125333657Y-77706077D02*
X125333657Y-78010839D01*
X125676514Y-77248935D02*
X125714609Y-77210839D01*
X125714609Y-77210839D02*
X125752704Y-77134649D01*
X125752704Y-77134649D02*
X125752704Y-76944173D01*
X125752704Y-76944173D02*
X125714609Y-76867982D01*
X125714609Y-76867982D02*
X125676514Y-76829887D01*
X125676514Y-76829887D02*
X125600323Y-76791792D01*
X125600323Y-76791792D02*
X125524133Y-76791792D01*
X125524133Y-76791792D02*
X125409847Y-76829887D01*
X125409847Y-76829887D02*
X124952704Y-77287030D01*
X124952704Y-77287030D02*
X124952704Y-76791792D01*
X125752704Y-76296553D02*
X125752704Y-76220363D01*
X125752704Y-76220363D02*
X125714609Y-76144172D01*
X125714609Y-76144172D02*
X125676514Y-76106077D01*
X125676514Y-76106077D02*
X125600323Y-76067982D01*
X125600323Y-76067982D02*
X125447942Y-76029887D01*
X125447942Y-76029887D02*
X125257466Y-76029887D01*
X125257466Y-76029887D02*
X125105085Y-76067982D01*
X125105085Y-76067982D02*
X125028895Y-76106077D01*
X125028895Y-76106077D02*
X124990800Y-76144172D01*
X124990800Y-76144172D02*
X124952704Y-76220363D01*
X124952704Y-76220363D02*
X124952704Y-76296553D01*
X124952704Y-76296553D02*
X124990800Y-76372744D01*
X124990800Y-76372744D02*
X125028895Y-76410839D01*
X125028895Y-76410839D02*
X125105085Y-76448934D01*
X125105085Y-76448934D02*
X125257466Y-76487030D01*
X125257466Y-76487030D02*
X125447942Y-76487030D01*
X125447942Y-76487030D02*
X125600323Y-76448934D01*
X125600323Y-76448934D02*
X125676514Y-76410839D01*
X125676514Y-76410839D02*
X125714609Y-76372744D01*
X125714609Y-76372744D02*
X125752704Y-76296553D01*
X138414609Y-78391792D02*
X138452704Y-78467982D01*
X138452704Y-78467982D02*
X138452704Y-78582268D01*
X138452704Y-78582268D02*
X138414609Y-78696554D01*
X138414609Y-78696554D02*
X138338419Y-78772744D01*
X138338419Y-78772744D02*
X138262228Y-78810839D01*
X138262228Y-78810839D02*
X138109847Y-78848935D01*
X138109847Y-78848935D02*
X137995561Y-78848935D01*
X137995561Y-78848935D02*
X137843180Y-78810839D01*
X137843180Y-78810839D02*
X137766990Y-78772744D01*
X137766990Y-78772744D02*
X137690800Y-78696554D01*
X137690800Y-78696554D02*
X137652704Y-78582268D01*
X137652704Y-78582268D02*
X137652704Y-78506077D01*
X137652704Y-78506077D02*
X137690800Y-78391792D01*
X137690800Y-78391792D02*
X137728895Y-78353696D01*
X137728895Y-78353696D02*
X137995561Y-78353696D01*
X137995561Y-78353696D02*
X137995561Y-78506077D01*
X137652704Y-78010839D02*
X138452704Y-78010839D01*
X138452704Y-78010839D02*
X138452704Y-77706077D01*
X138452704Y-77706077D02*
X138414609Y-77629887D01*
X138414609Y-77629887D02*
X138376514Y-77591792D01*
X138376514Y-77591792D02*
X138300323Y-77553696D01*
X138300323Y-77553696D02*
X138186038Y-77553696D01*
X138186038Y-77553696D02*
X138109847Y-77591792D01*
X138109847Y-77591792D02*
X138071752Y-77629887D01*
X138071752Y-77629887D02*
X138033657Y-77706077D01*
X138033657Y-77706077D02*
X138033657Y-78010839D01*
X138376514Y-77248935D02*
X138414609Y-77210839D01*
X138414609Y-77210839D02*
X138452704Y-77134649D01*
X138452704Y-77134649D02*
X138452704Y-76944173D01*
X138452704Y-76944173D02*
X138414609Y-76867982D01*
X138414609Y-76867982D02*
X138376514Y-76829887D01*
X138376514Y-76829887D02*
X138300323Y-76791792D01*
X138300323Y-76791792D02*
X138224133Y-76791792D01*
X138224133Y-76791792D02*
X138109847Y-76829887D01*
X138109847Y-76829887D02*
X137652704Y-77287030D01*
X137652704Y-77287030D02*
X137652704Y-76791792D01*
X138452704Y-76106077D02*
X138452704Y-76258458D01*
X138452704Y-76258458D02*
X138414609Y-76334649D01*
X138414609Y-76334649D02*
X138376514Y-76372744D01*
X138376514Y-76372744D02*
X138262228Y-76448934D01*
X138262228Y-76448934D02*
X138109847Y-76487030D01*
X138109847Y-76487030D02*
X137805085Y-76487030D01*
X137805085Y-76487030D02*
X137728895Y-76448934D01*
X137728895Y-76448934D02*
X137690800Y-76410839D01*
X137690800Y-76410839D02*
X137652704Y-76334649D01*
X137652704Y-76334649D02*
X137652704Y-76182268D01*
X137652704Y-76182268D02*
X137690800Y-76106077D01*
X137690800Y-76106077D02*
X137728895Y-76067982D01*
X137728895Y-76067982D02*
X137805085Y-76029887D01*
X137805085Y-76029887D02*
X137995561Y-76029887D01*
X137995561Y-76029887D02*
X138071752Y-76067982D01*
X138071752Y-76067982D02*
X138109847Y-76106077D01*
X138109847Y-76106077D02*
X138147942Y-76182268D01*
X138147942Y-76182268D02*
X138147942Y-76334649D01*
X138147942Y-76334649D02*
X138109847Y-76410839D01*
X138109847Y-76410839D02*
X138071752Y-76448934D01*
X138071752Y-76448934D02*
X137995561Y-76487030D01*
X133334609Y-78391792D02*
X133372704Y-78467982D01*
X133372704Y-78467982D02*
X133372704Y-78582268D01*
X133372704Y-78582268D02*
X133334609Y-78696554D01*
X133334609Y-78696554D02*
X133258419Y-78772744D01*
X133258419Y-78772744D02*
X133182228Y-78810839D01*
X133182228Y-78810839D02*
X133029847Y-78848935D01*
X133029847Y-78848935D02*
X132915561Y-78848935D01*
X132915561Y-78848935D02*
X132763180Y-78810839D01*
X132763180Y-78810839D02*
X132686990Y-78772744D01*
X132686990Y-78772744D02*
X132610800Y-78696554D01*
X132610800Y-78696554D02*
X132572704Y-78582268D01*
X132572704Y-78582268D02*
X132572704Y-78506077D01*
X132572704Y-78506077D02*
X132610800Y-78391792D01*
X132610800Y-78391792D02*
X132648895Y-78353696D01*
X132648895Y-78353696D02*
X132915561Y-78353696D01*
X132915561Y-78353696D02*
X132915561Y-78506077D01*
X132572704Y-78010839D02*
X133372704Y-78010839D01*
X133372704Y-78010839D02*
X133372704Y-77706077D01*
X133372704Y-77706077D02*
X133334609Y-77629887D01*
X133334609Y-77629887D02*
X133296514Y-77591792D01*
X133296514Y-77591792D02*
X133220323Y-77553696D01*
X133220323Y-77553696D02*
X133106038Y-77553696D01*
X133106038Y-77553696D02*
X133029847Y-77591792D01*
X133029847Y-77591792D02*
X132991752Y-77629887D01*
X132991752Y-77629887D02*
X132953657Y-77706077D01*
X132953657Y-77706077D02*
X132953657Y-78010839D01*
X133296514Y-77248935D02*
X133334609Y-77210839D01*
X133334609Y-77210839D02*
X133372704Y-77134649D01*
X133372704Y-77134649D02*
X133372704Y-76944173D01*
X133372704Y-76944173D02*
X133334609Y-76867982D01*
X133334609Y-76867982D02*
X133296514Y-76829887D01*
X133296514Y-76829887D02*
X133220323Y-76791792D01*
X133220323Y-76791792D02*
X133144133Y-76791792D01*
X133144133Y-76791792D02*
X133029847Y-76829887D01*
X133029847Y-76829887D02*
X132572704Y-77287030D01*
X132572704Y-77287030D02*
X132572704Y-76791792D01*
X133296514Y-76487030D02*
X133334609Y-76448934D01*
X133334609Y-76448934D02*
X133372704Y-76372744D01*
X133372704Y-76372744D02*
X133372704Y-76182268D01*
X133372704Y-76182268D02*
X133334609Y-76106077D01*
X133334609Y-76106077D02*
X133296514Y-76067982D01*
X133296514Y-76067982D02*
X133220323Y-76029887D01*
X133220323Y-76029887D02*
X133144133Y-76029887D01*
X133144133Y-76029887D02*
X133029847Y-76067982D01*
X133029847Y-76067982D02*
X132572704Y-76525125D01*
X132572704Y-76525125D02*
X132572704Y-76029887D01*
X125714609Y-66112970D02*
X125752704Y-66189160D01*
X125752704Y-66189160D02*
X125752704Y-66303446D01*
X125752704Y-66303446D02*
X125714609Y-66417732D01*
X125714609Y-66417732D02*
X125638419Y-66493922D01*
X125638419Y-66493922D02*
X125562228Y-66532017D01*
X125562228Y-66532017D02*
X125409847Y-66570113D01*
X125409847Y-66570113D02*
X125295561Y-66570113D01*
X125295561Y-66570113D02*
X125143180Y-66532017D01*
X125143180Y-66532017D02*
X125066990Y-66493922D01*
X125066990Y-66493922D02*
X124990800Y-66417732D01*
X124990800Y-66417732D02*
X124952704Y-66303446D01*
X124952704Y-66303446D02*
X124952704Y-66227255D01*
X124952704Y-66227255D02*
X124990800Y-66112970D01*
X124990800Y-66112970D02*
X125028895Y-66074874D01*
X125028895Y-66074874D02*
X125295561Y-66074874D01*
X125295561Y-66074874D02*
X125295561Y-66227255D01*
X124952704Y-65732017D02*
X125752704Y-65732017D01*
X125752704Y-65732017D02*
X125752704Y-65427255D01*
X125752704Y-65427255D02*
X125714609Y-65351065D01*
X125714609Y-65351065D02*
X125676514Y-65312970D01*
X125676514Y-65312970D02*
X125600323Y-65274874D01*
X125600323Y-65274874D02*
X125486038Y-65274874D01*
X125486038Y-65274874D02*
X125409847Y-65312970D01*
X125409847Y-65312970D02*
X125371752Y-65351065D01*
X125371752Y-65351065D02*
X125333657Y-65427255D01*
X125333657Y-65427255D02*
X125333657Y-65732017D01*
X124952704Y-64512970D02*
X124952704Y-64970113D01*
X124952704Y-64741541D02*
X125752704Y-64741541D01*
X125752704Y-64741541D02*
X125638419Y-64817732D01*
X125638419Y-64817732D02*
X125562228Y-64893922D01*
X125562228Y-64893922D02*
X125524133Y-64970113D01*
X124952704Y-63751065D02*
X124952704Y-64208208D01*
X124952704Y-63979636D02*
X125752704Y-63979636D01*
X125752704Y-63979636D02*
X125638419Y-64055827D01*
X125638419Y-64055827D02*
X125562228Y-64132017D01*
X125562228Y-64132017D02*
X125524133Y-64208208D01*
X143494609Y-65427255D02*
X143532704Y-65503445D01*
X143532704Y-65503445D02*
X143532704Y-65617731D01*
X143532704Y-65617731D02*
X143494609Y-65732017D01*
X143494609Y-65732017D02*
X143418419Y-65808207D01*
X143418419Y-65808207D02*
X143342228Y-65846302D01*
X143342228Y-65846302D02*
X143189847Y-65884398D01*
X143189847Y-65884398D02*
X143075561Y-65884398D01*
X143075561Y-65884398D02*
X142923180Y-65846302D01*
X142923180Y-65846302D02*
X142846990Y-65808207D01*
X142846990Y-65808207D02*
X142770800Y-65732017D01*
X142770800Y-65732017D02*
X142732704Y-65617731D01*
X142732704Y-65617731D02*
X142732704Y-65541540D01*
X142732704Y-65541540D02*
X142770800Y-65427255D01*
X142770800Y-65427255D02*
X142808895Y-65389159D01*
X142808895Y-65389159D02*
X143075561Y-65389159D01*
X143075561Y-65389159D02*
X143075561Y-65541540D01*
X142732704Y-65046302D02*
X143532704Y-65046302D01*
X143532704Y-65046302D02*
X142732704Y-64589159D01*
X142732704Y-64589159D02*
X143532704Y-64589159D01*
X142732704Y-64208207D02*
X143532704Y-64208207D01*
X143532704Y-64208207D02*
X143532704Y-64017731D01*
X143532704Y-64017731D02*
X143494609Y-63903445D01*
X143494609Y-63903445D02*
X143418419Y-63827255D01*
X143418419Y-63827255D02*
X143342228Y-63789160D01*
X143342228Y-63789160D02*
X143189847Y-63751064D01*
X143189847Y-63751064D02*
X143075561Y-63751064D01*
X143075561Y-63751064D02*
X142923180Y-63789160D01*
X142923180Y-63789160D02*
X142846990Y-63827255D01*
X142846990Y-63827255D02*
X142770800Y-63903445D01*
X142770800Y-63903445D02*
X142732704Y-64017731D01*
X142732704Y-64017731D02*
X142732704Y-64208207D01*
X128254609Y-66112970D02*
X128292704Y-66189160D01*
X128292704Y-66189160D02*
X128292704Y-66303446D01*
X128292704Y-66303446D02*
X128254609Y-66417732D01*
X128254609Y-66417732D02*
X128178419Y-66493922D01*
X128178419Y-66493922D02*
X128102228Y-66532017D01*
X128102228Y-66532017D02*
X127949847Y-66570113D01*
X127949847Y-66570113D02*
X127835561Y-66570113D01*
X127835561Y-66570113D02*
X127683180Y-66532017D01*
X127683180Y-66532017D02*
X127606990Y-66493922D01*
X127606990Y-66493922D02*
X127530800Y-66417732D01*
X127530800Y-66417732D02*
X127492704Y-66303446D01*
X127492704Y-66303446D02*
X127492704Y-66227255D01*
X127492704Y-66227255D02*
X127530800Y-66112970D01*
X127530800Y-66112970D02*
X127568895Y-66074874D01*
X127568895Y-66074874D02*
X127835561Y-66074874D01*
X127835561Y-66074874D02*
X127835561Y-66227255D01*
X127492704Y-65732017D02*
X128292704Y-65732017D01*
X128292704Y-65732017D02*
X128292704Y-65427255D01*
X128292704Y-65427255D02*
X128254609Y-65351065D01*
X128254609Y-65351065D02*
X128216514Y-65312970D01*
X128216514Y-65312970D02*
X128140323Y-65274874D01*
X128140323Y-65274874D02*
X128026038Y-65274874D01*
X128026038Y-65274874D02*
X127949847Y-65312970D01*
X127949847Y-65312970D02*
X127911752Y-65351065D01*
X127911752Y-65351065D02*
X127873657Y-65427255D01*
X127873657Y-65427255D02*
X127873657Y-65732017D01*
X127492704Y-64512970D02*
X127492704Y-64970113D01*
X127492704Y-64741541D02*
X128292704Y-64741541D01*
X128292704Y-64741541D02*
X128178419Y-64817732D01*
X128178419Y-64817732D02*
X128102228Y-64893922D01*
X128102228Y-64893922D02*
X128064133Y-64970113D01*
X128292704Y-64017731D02*
X128292704Y-63941541D01*
X128292704Y-63941541D02*
X128254609Y-63865350D01*
X128254609Y-63865350D02*
X128216514Y-63827255D01*
X128216514Y-63827255D02*
X128140323Y-63789160D01*
X128140323Y-63789160D02*
X127987942Y-63751065D01*
X127987942Y-63751065D02*
X127797466Y-63751065D01*
X127797466Y-63751065D02*
X127645085Y-63789160D01*
X127645085Y-63789160D02*
X127568895Y-63827255D01*
X127568895Y-63827255D02*
X127530800Y-63865350D01*
X127530800Y-63865350D02*
X127492704Y-63941541D01*
X127492704Y-63941541D02*
X127492704Y-64017731D01*
X127492704Y-64017731D02*
X127530800Y-64093922D01*
X127530800Y-64093922D02*
X127568895Y-64132017D01*
X127568895Y-64132017D02*
X127645085Y-64170112D01*
X127645085Y-64170112D02*
X127797466Y-64208208D01*
X127797466Y-64208208D02*
X127987942Y-64208208D01*
X127987942Y-64208208D02*
X128140323Y-64170112D01*
X128140323Y-64170112D02*
X128216514Y-64132017D01*
X128216514Y-64132017D02*
X128254609Y-64093922D01*
X128254609Y-64093922D02*
X128292704Y-64017731D01*
X138414609Y-65351065D02*
X138452704Y-65427255D01*
X138452704Y-65427255D02*
X138452704Y-65541541D01*
X138452704Y-65541541D02*
X138414609Y-65655827D01*
X138414609Y-65655827D02*
X138338419Y-65732017D01*
X138338419Y-65732017D02*
X138262228Y-65770112D01*
X138262228Y-65770112D02*
X138109847Y-65808208D01*
X138109847Y-65808208D02*
X137995561Y-65808208D01*
X137995561Y-65808208D02*
X137843180Y-65770112D01*
X137843180Y-65770112D02*
X137766990Y-65732017D01*
X137766990Y-65732017D02*
X137690800Y-65655827D01*
X137690800Y-65655827D02*
X137652704Y-65541541D01*
X137652704Y-65541541D02*
X137652704Y-65465350D01*
X137652704Y-65465350D02*
X137690800Y-65351065D01*
X137690800Y-65351065D02*
X137728895Y-65312969D01*
X137728895Y-65312969D02*
X137995561Y-65312969D01*
X137995561Y-65312969D02*
X137995561Y-65465350D01*
X137652704Y-64970112D02*
X138452704Y-64970112D01*
X138452704Y-64970112D02*
X138452704Y-64665350D01*
X138452704Y-64665350D02*
X138414609Y-64589160D01*
X138414609Y-64589160D02*
X138376514Y-64551065D01*
X138376514Y-64551065D02*
X138300323Y-64512969D01*
X138300323Y-64512969D02*
X138186038Y-64512969D01*
X138186038Y-64512969D02*
X138109847Y-64551065D01*
X138109847Y-64551065D02*
X138071752Y-64589160D01*
X138071752Y-64589160D02*
X138033657Y-64665350D01*
X138033657Y-64665350D02*
X138033657Y-64970112D01*
X138452704Y-64246303D02*
X138452704Y-63712969D01*
X138452704Y-63712969D02*
X137652704Y-64055827D01*
X153654609Y-65351065D02*
X153692704Y-65427255D01*
X153692704Y-65427255D02*
X153692704Y-65541541D01*
X153692704Y-65541541D02*
X153654609Y-65655827D01*
X153654609Y-65655827D02*
X153578419Y-65732017D01*
X153578419Y-65732017D02*
X153502228Y-65770112D01*
X153502228Y-65770112D02*
X153349847Y-65808208D01*
X153349847Y-65808208D02*
X153235561Y-65808208D01*
X153235561Y-65808208D02*
X153083180Y-65770112D01*
X153083180Y-65770112D02*
X153006990Y-65732017D01*
X153006990Y-65732017D02*
X152930800Y-65655827D01*
X152930800Y-65655827D02*
X152892704Y-65541541D01*
X152892704Y-65541541D02*
X152892704Y-65465350D01*
X152892704Y-65465350D02*
X152930800Y-65351065D01*
X152930800Y-65351065D02*
X152968895Y-65312969D01*
X152968895Y-65312969D02*
X153235561Y-65312969D01*
X153235561Y-65312969D02*
X153235561Y-65465350D01*
X152892704Y-64970112D02*
X153692704Y-64970112D01*
X153692704Y-64970112D02*
X153692704Y-64665350D01*
X153692704Y-64665350D02*
X153654609Y-64589160D01*
X153654609Y-64589160D02*
X153616514Y-64551065D01*
X153616514Y-64551065D02*
X153540323Y-64512969D01*
X153540323Y-64512969D02*
X153426038Y-64512969D01*
X153426038Y-64512969D02*
X153349847Y-64551065D01*
X153349847Y-64551065D02*
X153311752Y-64589160D01*
X153311752Y-64589160D02*
X153273657Y-64665350D01*
X153273657Y-64665350D02*
X153273657Y-64970112D01*
X153616514Y-64208208D02*
X153654609Y-64170112D01*
X153654609Y-64170112D02*
X153692704Y-64093922D01*
X153692704Y-64093922D02*
X153692704Y-63903446D01*
X153692704Y-63903446D02*
X153654609Y-63827255D01*
X153654609Y-63827255D02*
X153616514Y-63789160D01*
X153616514Y-63789160D02*
X153540323Y-63751065D01*
X153540323Y-63751065D02*
X153464133Y-63751065D01*
X153464133Y-63751065D02*
X153349847Y-63789160D01*
X153349847Y-63789160D02*
X152892704Y-64246303D01*
X152892704Y-64246303D02*
X152892704Y-63751065D01*
X130794609Y-78391792D02*
X130832704Y-78467982D01*
X130832704Y-78467982D02*
X130832704Y-78582268D01*
X130832704Y-78582268D02*
X130794609Y-78696554D01*
X130794609Y-78696554D02*
X130718419Y-78772744D01*
X130718419Y-78772744D02*
X130642228Y-78810839D01*
X130642228Y-78810839D02*
X130489847Y-78848935D01*
X130489847Y-78848935D02*
X130375561Y-78848935D01*
X130375561Y-78848935D02*
X130223180Y-78810839D01*
X130223180Y-78810839D02*
X130146990Y-78772744D01*
X130146990Y-78772744D02*
X130070800Y-78696554D01*
X130070800Y-78696554D02*
X130032704Y-78582268D01*
X130032704Y-78582268D02*
X130032704Y-78506077D01*
X130032704Y-78506077D02*
X130070800Y-78391792D01*
X130070800Y-78391792D02*
X130108895Y-78353696D01*
X130108895Y-78353696D02*
X130375561Y-78353696D01*
X130375561Y-78353696D02*
X130375561Y-78506077D01*
X130032704Y-78010839D02*
X130832704Y-78010839D01*
X130832704Y-78010839D02*
X130032704Y-77553696D01*
X130032704Y-77553696D02*
X130832704Y-77553696D01*
X130032704Y-77172744D02*
X130832704Y-77172744D01*
X130832704Y-77172744D02*
X130832704Y-76982268D01*
X130832704Y-76982268D02*
X130794609Y-76867982D01*
X130794609Y-76867982D02*
X130718419Y-76791792D01*
X130718419Y-76791792D02*
X130642228Y-76753697D01*
X130642228Y-76753697D02*
X130489847Y-76715601D01*
X130489847Y-76715601D02*
X130375561Y-76715601D01*
X130375561Y-76715601D02*
X130223180Y-76753697D01*
X130223180Y-76753697D02*
X130146990Y-76791792D01*
X130146990Y-76791792D02*
X130070800Y-76867982D01*
X130070800Y-76867982D02*
X130032704Y-76982268D01*
X130032704Y-76982268D02*
X130032704Y-77172744D01*
X113014609Y-66112970D02*
X113052704Y-66189160D01*
X113052704Y-66189160D02*
X113052704Y-66303446D01*
X113052704Y-66303446D02*
X113014609Y-66417732D01*
X113014609Y-66417732D02*
X112938419Y-66493922D01*
X112938419Y-66493922D02*
X112862228Y-66532017D01*
X112862228Y-66532017D02*
X112709847Y-66570113D01*
X112709847Y-66570113D02*
X112595561Y-66570113D01*
X112595561Y-66570113D02*
X112443180Y-66532017D01*
X112443180Y-66532017D02*
X112366990Y-66493922D01*
X112366990Y-66493922D02*
X112290800Y-66417732D01*
X112290800Y-66417732D02*
X112252704Y-66303446D01*
X112252704Y-66303446D02*
X112252704Y-66227255D01*
X112252704Y-66227255D02*
X112290800Y-66112970D01*
X112290800Y-66112970D02*
X112328895Y-66074874D01*
X112328895Y-66074874D02*
X112595561Y-66074874D01*
X112595561Y-66074874D02*
X112595561Y-66227255D01*
X112252704Y-65732017D02*
X113052704Y-65732017D01*
X113052704Y-65732017D02*
X113052704Y-65427255D01*
X113052704Y-65427255D02*
X113014609Y-65351065D01*
X113014609Y-65351065D02*
X112976514Y-65312970D01*
X112976514Y-65312970D02*
X112900323Y-65274874D01*
X112900323Y-65274874D02*
X112786038Y-65274874D01*
X112786038Y-65274874D02*
X112709847Y-65312970D01*
X112709847Y-65312970D02*
X112671752Y-65351065D01*
X112671752Y-65351065D02*
X112633657Y-65427255D01*
X112633657Y-65427255D02*
X112633657Y-65732017D01*
X112252704Y-64512970D02*
X112252704Y-64970113D01*
X112252704Y-64741541D02*
X113052704Y-64741541D01*
X113052704Y-64741541D02*
X112938419Y-64817732D01*
X112938419Y-64817732D02*
X112862228Y-64893922D01*
X112862228Y-64893922D02*
X112824133Y-64970113D01*
X113052704Y-63789160D02*
X113052704Y-64170112D01*
X113052704Y-64170112D02*
X112671752Y-64208208D01*
X112671752Y-64208208D02*
X112709847Y-64170112D01*
X112709847Y-64170112D02*
X112747942Y-64093922D01*
X112747942Y-64093922D02*
X112747942Y-63903446D01*
X112747942Y-63903446D02*
X112709847Y-63827255D01*
X112709847Y-63827255D02*
X112671752Y-63789160D01*
X112671752Y-63789160D02*
X112595561Y-63751065D01*
X112595561Y-63751065D02*
X112405085Y-63751065D01*
X112405085Y-63751065D02*
X112328895Y-63789160D01*
X112328895Y-63789160D02*
X112290800Y-63827255D01*
X112290800Y-63827255D02*
X112252704Y-63903446D01*
X112252704Y-63903446D02*
X112252704Y-64093922D01*
X112252704Y-64093922D02*
X112290800Y-64170112D01*
X112290800Y-64170112D02*
X112328895Y-64208208D01*
X151152704Y-78887030D02*
X151152704Y-78391792D01*
X151152704Y-78391792D02*
X150847942Y-78658458D01*
X150847942Y-78658458D02*
X150847942Y-78544173D01*
X150847942Y-78544173D02*
X150809847Y-78467982D01*
X150809847Y-78467982D02*
X150771752Y-78429887D01*
X150771752Y-78429887D02*
X150695561Y-78391792D01*
X150695561Y-78391792D02*
X150505085Y-78391792D01*
X150505085Y-78391792D02*
X150428895Y-78429887D01*
X150428895Y-78429887D02*
X150390800Y-78467982D01*
X150390800Y-78467982D02*
X150352704Y-78544173D01*
X150352704Y-78544173D02*
X150352704Y-78772744D01*
X150352704Y-78772744D02*
X150390800Y-78848935D01*
X150390800Y-78848935D02*
X150428895Y-78887030D01*
X151152704Y-78163220D02*
X150352704Y-77896553D01*
X150352704Y-77896553D02*
X151152704Y-77629887D01*
X151152704Y-77439411D02*
X151152704Y-76944173D01*
X151152704Y-76944173D02*
X150847942Y-77210839D01*
X150847942Y-77210839D02*
X150847942Y-77096554D01*
X150847942Y-77096554D02*
X150809847Y-77020363D01*
X150809847Y-77020363D02*
X150771752Y-76982268D01*
X150771752Y-76982268D02*
X150695561Y-76944173D01*
X150695561Y-76944173D02*
X150505085Y-76944173D01*
X150505085Y-76944173D02*
X150428895Y-76982268D01*
X150428895Y-76982268D02*
X150390800Y-77020363D01*
X150390800Y-77020363D02*
X150352704Y-77096554D01*
X150352704Y-77096554D02*
X150352704Y-77325125D01*
X150352704Y-77325125D02*
X150390800Y-77401316D01*
X150390800Y-77401316D02*
X150428895Y-77439411D01*
X150047942Y-76372744D02*
X150086038Y-76410839D01*
X150086038Y-76410839D02*
X150200323Y-76487030D01*
X150200323Y-76487030D02*
X150276514Y-76525125D01*
X150276514Y-76525125D02*
X150390800Y-76563220D01*
X150390800Y-76563220D02*
X150581276Y-76601315D01*
X150581276Y-76601315D02*
X150733657Y-76601315D01*
X150733657Y-76601315D02*
X150924133Y-76563220D01*
X150924133Y-76563220D02*
X151038419Y-76525125D01*
X151038419Y-76525125D02*
X151114609Y-76487030D01*
X151114609Y-76487030D02*
X151228895Y-76410839D01*
X151228895Y-76410839D02*
X151266990Y-76372744D01*
X151152704Y-75915601D02*
X151152704Y-75763220D01*
X151152704Y-75763220D02*
X151114609Y-75687030D01*
X151114609Y-75687030D02*
X151038419Y-75610839D01*
X151038419Y-75610839D02*
X150886038Y-75572744D01*
X150886038Y-75572744D02*
X150619371Y-75572744D01*
X150619371Y-75572744D02*
X150466990Y-75610839D01*
X150466990Y-75610839D02*
X150390800Y-75687030D01*
X150390800Y-75687030D02*
X150352704Y-75763220D01*
X150352704Y-75763220D02*
X150352704Y-75915601D01*
X150352704Y-75915601D02*
X150390800Y-75991792D01*
X150390800Y-75991792D02*
X150466990Y-76067982D01*
X150466990Y-76067982D02*
X150619371Y-76106078D01*
X150619371Y-76106078D02*
X150886038Y-76106078D01*
X150886038Y-76106078D02*
X151038419Y-76067982D01*
X151038419Y-76067982D02*
X151114609Y-75991792D01*
X151114609Y-75991792D02*
X151152704Y-75915601D01*
X151152704Y-75229887D02*
X150505085Y-75229887D01*
X150505085Y-75229887D02*
X150428895Y-75191792D01*
X150428895Y-75191792D02*
X150390800Y-75153697D01*
X150390800Y-75153697D02*
X150352704Y-75077506D01*
X150352704Y-75077506D02*
X150352704Y-74925125D01*
X150352704Y-74925125D02*
X150390800Y-74848935D01*
X150390800Y-74848935D02*
X150428895Y-74810840D01*
X150428895Y-74810840D02*
X150505085Y-74772744D01*
X150505085Y-74772744D02*
X151152704Y-74772744D01*
X151152704Y-74506078D02*
X151152704Y-74048935D01*
X150352704Y-74277507D02*
X151152704Y-74277507D01*
X150047942Y-73858459D02*
X150086038Y-73820364D01*
X150086038Y-73820364D02*
X150200323Y-73744173D01*
X150200323Y-73744173D02*
X150276514Y-73706078D01*
X150276514Y-73706078D02*
X150390800Y-73667983D01*
X150390800Y-73667983D02*
X150581276Y-73629887D01*
X150581276Y-73629887D02*
X150733657Y-73629887D01*
X150733657Y-73629887D02*
X150924133Y-73667983D01*
X150924133Y-73667983D02*
X151038419Y-73706078D01*
X151038419Y-73706078D02*
X151114609Y-73744173D01*
X151114609Y-73744173D02*
X151228895Y-73820364D01*
X151228895Y-73820364D02*
X151266990Y-73858459D01*
X118094609Y-78391792D02*
X118132704Y-78467982D01*
X118132704Y-78467982D02*
X118132704Y-78582268D01*
X118132704Y-78582268D02*
X118094609Y-78696554D01*
X118094609Y-78696554D02*
X118018419Y-78772744D01*
X118018419Y-78772744D02*
X117942228Y-78810839D01*
X117942228Y-78810839D02*
X117789847Y-78848935D01*
X117789847Y-78848935D02*
X117675561Y-78848935D01*
X117675561Y-78848935D02*
X117523180Y-78810839D01*
X117523180Y-78810839D02*
X117446990Y-78772744D01*
X117446990Y-78772744D02*
X117370800Y-78696554D01*
X117370800Y-78696554D02*
X117332704Y-78582268D01*
X117332704Y-78582268D02*
X117332704Y-78506077D01*
X117332704Y-78506077D02*
X117370800Y-78391792D01*
X117370800Y-78391792D02*
X117408895Y-78353696D01*
X117408895Y-78353696D02*
X117675561Y-78353696D01*
X117675561Y-78353696D02*
X117675561Y-78506077D01*
X117332704Y-78010839D02*
X118132704Y-78010839D01*
X118132704Y-78010839D02*
X117332704Y-77553696D01*
X117332704Y-77553696D02*
X118132704Y-77553696D01*
X117332704Y-77172744D02*
X118132704Y-77172744D01*
X118132704Y-77172744D02*
X118132704Y-76982268D01*
X118132704Y-76982268D02*
X118094609Y-76867982D01*
X118094609Y-76867982D02*
X118018419Y-76791792D01*
X118018419Y-76791792D02*
X117942228Y-76753697D01*
X117942228Y-76753697D02*
X117789847Y-76715601D01*
X117789847Y-76715601D02*
X117675561Y-76715601D01*
X117675561Y-76715601D02*
X117523180Y-76753697D01*
X117523180Y-76753697D02*
X117446990Y-76791792D01*
X117446990Y-76791792D02*
X117370800Y-76867982D01*
X117370800Y-76867982D02*
X117332704Y-76982268D01*
X117332704Y-76982268D02*
X117332704Y-77172744D01*
X133334609Y-65351065D02*
X133372704Y-65427255D01*
X133372704Y-65427255D02*
X133372704Y-65541541D01*
X133372704Y-65541541D02*
X133334609Y-65655827D01*
X133334609Y-65655827D02*
X133258419Y-65732017D01*
X133258419Y-65732017D02*
X133182228Y-65770112D01*
X133182228Y-65770112D02*
X133029847Y-65808208D01*
X133029847Y-65808208D02*
X132915561Y-65808208D01*
X132915561Y-65808208D02*
X132763180Y-65770112D01*
X132763180Y-65770112D02*
X132686990Y-65732017D01*
X132686990Y-65732017D02*
X132610800Y-65655827D01*
X132610800Y-65655827D02*
X132572704Y-65541541D01*
X132572704Y-65541541D02*
X132572704Y-65465350D01*
X132572704Y-65465350D02*
X132610800Y-65351065D01*
X132610800Y-65351065D02*
X132648895Y-65312969D01*
X132648895Y-65312969D02*
X132915561Y-65312969D01*
X132915561Y-65312969D02*
X132915561Y-65465350D01*
X132572704Y-64970112D02*
X133372704Y-64970112D01*
X133372704Y-64970112D02*
X133372704Y-64665350D01*
X133372704Y-64665350D02*
X133334609Y-64589160D01*
X133334609Y-64589160D02*
X133296514Y-64551065D01*
X133296514Y-64551065D02*
X133220323Y-64512969D01*
X133220323Y-64512969D02*
X133106038Y-64512969D01*
X133106038Y-64512969D02*
X133029847Y-64551065D01*
X133029847Y-64551065D02*
X132991752Y-64589160D01*
X132991752Y-64589160D02*
X132953657Y-64665350D01*
X132953657Y-64665350D02*
X132953657Y-64970112D01*
X132572704Y-64132017D02*
X132572704Y-63979636D01*
X132572704Y-63979636D02*
X132610800Y-63903446D01*
X132610800Y-63903446D02*
X132648895Y-63865350D01*
X132648895Y-63865350D02*
X132763180Y-63789160D01*
X132763180Y-63789160D02*
X132915561Y-63751065D01*
X132915561Y-63751065D02*
X133220323Y-63751065D01*
X133220323Y-63751065D02*
X133296514Y-63789160D01*
X133296514Y-63789160D02*
X133334609Y-63827255D01*
X133334609Y-63827255D02*
X133372704Y-63903446D01*
X133372704Y-63903446D02*
X133372704Y-64055827D01*
X133372704Y-64055827D02*
X133334609Y-64132017D01*
X133334609Y-64132017D02*
X133296514Y-64170112D01*
X133296514Y-64170112D02*
X133220323Y-64208208D01*
X133220323Y-64208208D02*
X133029847Y-64208208D01*
X133029847Y-64208208D02*
X132953657Y-64170112D01*
X132953657Y-64170112D02*
X132915561Y-64132017D01*
X132915561Y-64132017D02*
X132877466Y-64055827D01*
X132877466Y-64055827D02*
X132877466Y-63903446D01*
X132877466Y-63903446D02*
X132915561Y-63827255D01*
X132915561Y-63827255D02*
X132953657Y-63789160D01*
X132953657Y-63789160D02*
X133029847Y-63751065D01*
X153692704Y-78887030D02*
X153692704Y-78391792D01*
X153692704Y-78391792D02*
X153387942Y-78658458D01*
X153387942Y-78658458D02*
X153387942Y-78544173D01*
X153387942Y-78544173D02*
X153349847Y-78467982D01*
X153349847Y-78467982D02*
X153311752Y-78429887D01*
X153311752Y-78429887D02*
X153235561Y-78391792D01*
X153235561Y-78391792D02*
X153045085Y-78391792D01*
X153045085Y-78391792D02*
X152968895Y-78429887D01*
X152968895Y-78429887D02*
X152930800Y-78467982D01*
X152930800Y-78467982D02*
X152892704Y-78544173D01*
X152892704Y-78544173D02*
X152892704Y-78772744D01*
X152892704Y-78772744D02*
X152930800Y-78848935D01*
X152930800Y-78848935D02*
X152968895Y-78887030D01*
X153692704Y-78163220D02*
X152892704Y-77896553D01*
X152892704Y-77896553D02*
X153692704Y-77629887D01*
X153692704Y-77439411D02*
X153692704Y-76944173D01*
X153692704Y-76944173D02*
X153387942Y-77210839D01*
X153387942Y-77210839D02*
X153387942Y-77096554D01*
X153387942Y-77096554D02*
X153349847Y-77020363D01*
X153349847Y-77020363D02*
X153311752Y-76982268D01*
X153311752Y-76982268D02*
X153235561Y-76944173D01*
X153235561Y-76944173D02*
X153045085Y-76944173D01*
X153045085Y-76944173D02*
X152968895Y-76982268D01*
X152968895Y-76982268D02*
X152930800Y-77020363D01*
X152930800Y-77020363D02*
X152892704Y-77096554D01*
X152892704Y-77096554D02*
X152892704Y-77325125D01*
X152892704Y-77325125D02*
X152930800Y-77401316D01*
X152930800Y-77401316D02*
X152968895Y-77439411D01*
X152816514Y-76791792D02*
X152816514Y-76182268D01*
X153311752Y-75991791D02*
X153311752Y-75725125D01*
X152892704Y-75610839D02*
X152892704Y-75991791D01*
X152892704Y-75991791D02*
X153692704Y-75991791D01*
X153692704Y-75991791D02*
X153692704Y-75610839D01*
X152892704Y-75267981D02*
X153692704Y-75267981D01*
X153692704Y-75267981D02*
X152892704Y-74810838D01*
X152892704Y-74810838D02*
X153692704Y-74810838D01*
X140954609Y-78391792D02*
X140992704Y-78467982D01*
X140992704Y-78467982D02*
X140992704Y-78582268D01*
X140992704Y-78582268D02*
X140954609Y-78696554D01*
X140954609Y-78696554D02*
X140878419Y-78772744D01*
X140878419Y-78772744D02*
X140802228Y-78810839D01*
X140802228Y-78810839D02*
X140649847Y-78848935D01*
X140649847Y-78848935D02*
X140535561Y-78848935D01*
X140535561Y-78848935D02*
X140383180Y-78810839D01*
X140383180Y-78810839D02*
X140306990Y-78772744D01*
X140306990Y-78772744D02*
X140230800Y-78696554D01*
X140230800Y-78696554D02*
X140192704Y-78582268D01*
X140192704Y-78582268D02*
X140192704Y-78506077D01*
X140192704Y-78506077D02*
X140230800Y-78391792D01*
X140230800Y-78391792D02*
X140268895Y-78353696D01*
X140268895Y-78353696D02*
X140535561Y-78353696D01*
X140535561Y-78353696D02*
X140535561Y-78506077D01*
X140192704Y-78010839D02*
X140992704Y-78010839D01*
X140992704Y-78010839D02*
X140992704Y-77706077D01*
X140992704Y-77706077D02*
X140954609Y-77629887D01*
X140954609Y-77629887D02*
X140916514Y-77591792D01*
X140916514Y-77591792D02*
X140840323Y-77553696D01*
X140840323Y-77553696D02*
X140726038Y-77553696D01*
X140726038Y-77553696D02*
X140649847Y-77591792D01*
X140649847Y-77591792D02*
X140611752Y-77629887D01*
X140611752Y-77629887D02*
X140573657Y-77706077D01*
X140573657Y-77706077D02*
X140573657Y-78010839D01*
X140916514Y-77248935D02*
X140954609Y-77210839D01*
X140954609Y-77210839D02*
X140992704Y-77134649D01*
X140992704Y-77134649D02*
X140992704Y-76944173D01*
X140992704Y-76944173D02*
X140954609Y-76867982D01*
X140954609Y-76867982D02*
X140916514Y-76829887D01*
X140916514Y-76829887D02*
X140840323Y-76791792D01*
X140840323Y-76791792D02*
X140764133Y-76791792D01*
X140764133Y-76791792D02*
X140649847Y-76829887D01*
X140649847Y-76829887D02*
X140192704Y-77287030D01*
X140192704Y-77287030D02*
X140192704Y-76791792D01*
X140992704Y-76525125D02*
X140992704Y-75991791D01*
X140992704Y-75991791D02*
X140192704Y-76334649D01*
X130794609Y-65427255D02*
X130832704Y-65503445D01*
X130832704Y-65503445D02*
X130832704Y-65617731D01*
X130832704Y-65617731D02*
X130794609Y-65732017D01*
X130794609Y-65732017D02*
X130718419Y-65808207D01*
X130718419Y-65808207D02*
X130642228Y-65846302D01*
X130642228Y-65846302D02*
X130489847Y-65884398D01*
X130489847Y-65884398D02*
X130375561Y-65884398D01*
X130375561Y-65884398D02*
X130223180Y-65846302D01*
X130223180Y-65846302D02*
X130146990Y-65808207D01*
X130146990Y-65808207D02*
X130070800Y-65732017D01*
X130070800Y-65732017D02*
X130032704Y-65617731D01*
X130032704Y-65617731D02*
X130032704Y-65541540D01*
X130032704Y-65541540D02*
X130070800Y-65427255D01*
X130070800Y-65427255D02*
X130108895Y-65389159D01*
X130108895Y-65389159D02*
X130375561Y-65389159D01*
X130375561Y-65389159D02*
X130375561Y-65541540D01*
X130032704Y-65046302D02*
X130832704Y-65046302D01*
X130832704Y-65046302D02*
X130032704Y-64589159D01*
X130032704Y-64589159D02*
X130832704Y-64589159D01*
X130032704Y-64208207D02*
X130832704Y-64208207D01*
X130832704Y-64208207D02*
X130832704Y-64017731D01*
X130832704Y-64017731D02*
X130794609Y-63903445D01*
X130794609Y-63903445D02*
X130718419Y-63827255D01*
X130718419Y-63827255D02*
X130642228Y-63789160D01*
X130642228Y-63789160D02*
X130489847Y-63751064D01*
X130489847Y-63751064D02*
X130375561Y-63751064D01*
X130375561Y-63751064D02*
X130223180Y-63789160D01*
X130223180Y-63789160D02*
X130146990Y-63827255D01*
X130146990Y-63827255D02*
X130070800Y-63903445D01*
X130070800Y-63903445D02*
X130032704Y-64017731D01*
X130032704Y-64017731D02*
X130032704Y-64208207D01*
X146034609Y-78391792D02*
X146072704Y-78467982D01*
X146072704Y-78467982D02*
X146072704Y-78582268D01*
X146072704Y-78582268D02*
X146034609Y-78696554D01*
X146034609Y-78696554D02*
X145958419Y-78772744D01*
X145958419Y-78772744D02*
X145882228Y-78810839D01*
X145882228Y-78810839D02*
X145729847Y-78848935D01*
X145729847Y-78848935D02*
X145615561Y-78848935D01*
X145615561Y-78848935D02*
X145463180Y-78810839D01*
X145463180Y-78810839D02*
X145386990Y-78772744D01*
X145386990Y-78772744D02*
X145310800Y-78696554D01*
X145310800Y-78696554D02*
X145272704Y-78582268D01*
X145272704Y-78582268D02*
X145272704Y-78506077D01*
X145272704Y-78506077D02*
X145310800Y-78391792D01*
X145310800Y-78391792D02*
X145348895Y-78353696D01*
X145348895Y-78353696D02*
X145615561Y-78353696D01*
X145615561Y-78353696D02*
X145615561Y-78506077D01*
X145272704Y-78010839D02*
X146072704Y-78010839D01*
X146072704Y-78010839D02*
X146072704Y-77706077D01*
X146072704Y-77706077D02*
X146034609Y-77629887D01*
X146034609Y-77629887D02*
X145996514Y-77591792D01*
X145996514Y-77591792D02*
X145920323Y-77553696D01*
X145920323Y-77553696D02*
X145806038Y-77553696D01*
X145806038Y-77553696D02*
X145729847Y-77591792D01*
X145729847Y-77591792D02*
X145691752Y-77629887D01*
X145691752Y-77629887D02*
X145653657Y-77706077D01*
X145653657Y-77706077D02*
X145653657Y-78010839D01*
X145996514Y-77248935D02*
X146034609Y-77210839D01*
X146034609Y-77210839D02*
X146072704Y-77134649D01*
X146072704Y-77134649D02*
X146072704Y-76944173D01*
X146072704Y-76944173D02*
X146034609Y-76867982D01*
X146034609Y-76867982D02*
X145996514Y-76829887D01*
X145996514Y-76829887D02*
X145920323Y-76791792D01*
X145920323Y-76791792D02*
X145844133Y-76791792D01*
X145844133Y-76791792D02*
X145729847Y-76829887D01*
X145729847Y-76829887D02*
X145272704Y-77287030D01*
X145272704Y-77287030D02*
X145272704Y-76791792D01*
X145729847Y-76334649D02*
X145767942Y-76410839D01*
X145767942Y-76410839D02*
X145806038Y-76448934D01*
X145806038Y-76448934D02*
X145882228Y-76487030D01*
X145882228Y-76487030D02*
X145920323Y-76487030D01*
X145920323Y-76487030D02*
X145996514Y-76448934D01*
X145996514Y-76448934D02*
X146034609Y-76410839D01*
X146034609Y-76410839D02*
X146072704Y-76334649D01*
X146072704Y-76334649D02*
X146072704Y-76182268D01*
X146072704Y-76182268D02*
X146034609Y-76106077D01*
X146034609Y-76106077D02*
X145996514Y-76067982D01*
X145996514Y-76067982D02*
X145920323Y-76029887D01*
X145920323Y-76029887D02*
X145882228Y-76029887D01*
X145882228Y-76029887D02*
X145806038Y-76067982D01*
X145806038Y-76067982D02*
X145767942Y-76106077D01*
X145767942Y-76106077D02*
X145729847Y-76182268D01*
X145729847Y-76182268D02*
X145729847Y-76334649D01*
X145729847Y-76334649D02*
X145691752Y-76410839D01*
X145691752Y-76410839D02*
X145653657Y-76448934D01*
X145653657Y-76448934D02*
X145577466Y-76487030D01*
X145577466Y-76487030D02*
X145425085Y-76487030D01*
X145425085Y-76487030D02*
X145348895Y-76448934D01*
X145348895Y-76448934D02*
X145310800Y-76410839D01*
X145310800Y-76410839D02*
X145272704Y-76334649D01*
X145272704Y-76334649D02*
X145272704Y-76182268D01*
X145272704Y-76182268D02*
X145310800Y-76106077D01*
X145310800Y-76106077D02*
X145348895Y-76067982D01*
X145348895Y-76067982D02*
X145425085Y-76029887D01*
X145425085Y-76029887D02*
X145577466Y-76029887D01*
X145577466Y-76029887D02*
X145653657Y-76067982D01*
X145653657Y-76067982D02*
X145691752Y-76106077D01*
X145691752Y-76106077D02*
X145729847Y-76182268D01*
X113014609Y-78391792D02*
X113052704Y-78467982D01*
X113052704Y-78467982D02*
X113052704Y-78582268D01*
X113052704Y-78582268D02*
X113014609Y-78696554D01*
X113014609Y-78696554D02*
X112938419Y-78772744D01*
X112938419Y-78772744D02*
X112862228Y-78810839D01*
X112862228Y-78810839D02*
X112709847Y-78848935D01*
X112709847Y-78848935D02*
X112595561Y-78848935D01*
X112595561Y-78848935D02*
X112443180Y-78810839D01*
X112443180Y-78810839D02*
X112366990Y-78772744D01*
X112366990Y-78772744D02*
X112290800Y-78696554D01*
X112290800Y-78696554D02*
X112252704Y-78582268D01*
X112252704Y-78582268D02*
X112252704Y-78506077D01*
X112252704Y-78506077D02*
X112290800Y-78391792D01*
X112290800Y-78391792D02*
X112328895Y-78353696D01*
X112328895Y-78353696D02*
X112595561Y-78353696D01*
X112595561Y-78353696D02*
X112595561Y-78506077D01*
X112252704Y-78010839D02*
X113052704Y-78010839D01*
X113052704Y-78010839D02*
X113052704Y-77706077D01*
X113052704Y-77706077D02*
X113014609Y-77629887D01*
X113014609Y-77629887D02*
X112976514Y-77591792D01*
X112976514Y-77591792D02*
X112900323Y-77553696D01*
X112900323Y-77553696D02*
X112786038Y-77553696D01*
X112786038Y-77553696D02*
X112709847Y-77591792D01*
X112709847Y-77591792D02*
X112671752Y-77629887D01*
X112671752Y-77629887D02*
X112633657Y-77706077D01*
X112633657Y-77706077D02*
X112633657Y-78010839D01*
X112252704Y-76791792D02*
X112252704Y-77248935D01*
X112252704Y-77020363D02*
X113052704Y-77020363D01*
X113052704Y-77020363D02*
X112938419Y-77096554D01*
X112938419Y-77096554D02*
X112862228Y-77172744D01*
X112862228Y-77172744D02*
X112824133Y-77248935D01*
X113052704Y-76106077D02*
X113052704Y-76258458D01*
X113052704Y-76258458D02*
X113014609Y-76334649D01*
X113014609Y-76334649D02*
X112976514Y-76372744D01*
X112976514Y-76372744D02*
X112862228Y-76448934D01*
X112862228Y-76448934D02*
X112709847Y-76487030D01*
X112709847Y-76487030D02*
X112405085Y-76487030D01*
X112405085Y-76487030D02*
X112328895Y-76448934D01*
X112328895Y-76448934D02*
X112290800Y-76410839D01*
X112290800Y-76410839D02*
X112252704Y-76334649D01*
X112252704Y-76334649D02*
X112252704Y-76182268D01*
X112252704Y-76182268D02*
X112290800Y-76106077D01*
X112290800Y-76106077D02*
X112328895Y-76067982D01*
X112328895Y-76067982D02*
X112405085Y-76029887D01*
X112405085Y-76029887D02*
X112595561Y-76029887D01*
X112595561Y-76029887D02*
X112671752Y-76067982D01*
X112671752Y-76067982D02*
X112709847Y-76106077D01*
X112709847Y-76106077D02*
X112747942Y-76182268D01*
X112747942Y-76182268D02*
X112747942Y-76334649D01*
X112747942Y-76334649D02*
X112709847Y-76410839D01*
X112709847Y-76410839D02*
X112671752Y-76448934D01*
X112671752Y-76448934D02*
X112595561Y-76487030D01*
X108703333Y-50724819D02*
X108703333Y-51439104D01*
X108703333Y-51439104D02*
X108750952Y-51581961D01*
X108750952Y-51581961D02*
X108846190Y-51677200D01*
X108846190Y-51677200D02*
X108989047Y-51724819D01*
X108989047Y-51724819D02*
X109084285Y-51724819D01*
X107703333Y-51724819D02*
X108274761Y-51724819D01*
X107989047Y-51724819D02*
X107989047Y-50724819D01*
X107989047Y-50724819D02*
X108084285Y-50867676D01*
X108084285Y-50867676D02*
X108179523Y-50962914D01*
X108179523Y-50962914D02*
X108274761Y-51010533D01*
D11*
X107040000Y-44900000D02*
X107040000Y-47500000D01*
X107040000Y-44900000D02*
X157960000Y-44900000D01*
X107040000Y-47500000D02*
X109640000Y-47500000D01*
X107040000Y-48770000D02*
X107040000Y-50100000D01*
X107040000Y-50100000D02*
X108370000Y-50100000D01*
X109640000Y-47500000D02*
X109640000Y-50100000D01*
X109640000Y-50100000D02*
X157960000Y-50100000D01*
X157960000Y-44900000D02*
X157960000Y-50100000D01*
M02*
