M48
; DRILL file {KiCad 9.0.2-1.fc42} date 2025-05-23T23:36:09-0500
; FORMAT={-:-/ absolute / metric / decimal}
; #@! TF.CreationDate,2025-05-23T23:36:09-05:00
; #@! TF.GenerationSoftware,Kicad,Pcbnew,9.0.2-1.fc42
; #@! TF.FileFunction,Plated,1,4,PTH
FMAT,2
METRIC
; #@! TA.AperFunction,Plated,PTH,ViaDrill
T1C0.300
; #@! TA.AperFunction,Plated,PTH,ComponentDrill
T2C0.800
; #@! TA.AperFunction,Plated,PTH,ComponentDrill
T3C0.900
; #@! TA.AperFunction,Plated,PTH,ComponentDrill
T4C1.000
; #@! TA.AperFunction,Plated,PTH,ComponentDrill
T5C1.020
; #@! TA.AperFunction,Plated,PTH,ComponentDrill
T6C1.040
; #@! TA.AperFunction,Plated,PTH,ComponentDrill
T7C1.100
%
G90
G05
T1
X101.05Y-57.975
X102.65Y-59.175
X112.925Y-57.975
X126.85Y-65.4
X129.075Y-86.875
X130.775Y-86.45
T2
X105.595Y-84.62
X105.595Y-87.85
X105.595Y-91.05
X115.755Y-84.62
X115.755Y-87.85
X115.755Y-91.05
X118.64Y-53.07
X118.64Y-56.84
X118.95Y-89.625
X122.875Y-84.46
X127.875Y-84.46
X128.8Y-53.07
X128.8Y-56.84
X129.11Y-89.625
X131.415Y-89.625
X132.94Y-84.46
X137.94Y-84.46
X141.575Y-89.625
T3
X109.248Y-96.45
X111.407Y-96.45
X113.566Y-96.45
X115.725Y-96.45
T4
X73.535Y-91.215
X76.075Y-91.215
X83.33Y-46.08
X83.33Y-97.93
X85.87Y-46.08
X85.87Y-97.93
X88.41Y-46.08
X88.41Y-97.93
X90.95Y-46.08
X90.95Y-97.93
X93.49Y-46.08
X93.49Y-97.93
X96.03Y-46.08
X96.03Y-97.93
X108.37Y-46.23
X108.37Y-48.77
X110.91Y-46.23
X110.91Y-48.77
X112.63Y-62.33
X112.63Y-80.11
X113.45Y-46.23
X113.45Y-48.77
X115.17Y-62.33
X115.17Y-80.11
X115.99Y-46.23
X115.99Y-48.77
X117.71Y-62.33
X117.71Y-80.11
X118.53Y-46.23
X118.53Y-48.77
X120.25Y-62.33
X120.25Y-80.11
X121.07Y-46.23
X121.07Y-48.77
X122.79Y-62.33
X122.79Y-80.11
X123.61Y-46.23
X123.61Y-48.77
X125.33Y-62.33
X125.33Y-80.11
X126.15Y-46.23
X126.15Y-48.77
X127.87Y-62.33
X127.87Y-80.11
X128.69Y-46.23
X128.69Y-48.77
X130.41Y-62.33
X130.41Y-80.11
X131.23Y-46.23
X131.23Y-48.77
X132.95Y-62.33
X132.95Y-80.11
X133.77Y-46.23
X133.77Y-48.77
X135.49Y-62.33
X135.49Y-80.11
X136.31Y-46.23
X136.31Y-48.77
X138.015Y-55.1
X138.03Y-62.33
X138.03Y-80.11
X138.85Y-46.23
X138.85Y-48.77
X140.555Y-55.1
X140.57Y-62.33
X140.57Y-80.11
X141.39Y-46.23
X141.39Y-48.77
X143.11Y-62.33
X143.11Y-80.11
X143.93Y-46.23
X143.93Y-48.77
X145.42Y-86.75
X145.42Y-89.29
X145.42Y-91.83
X145.635Y-55.1
X145.65Y-62.33
X145.65Y-80.11
X146.47Y-46.23
X146.47Y-48.77
X148.175Y-55.1
X148.19Y-62.33
X148.19Y-80.11
X149.01Y-46.23
X149.01Y-48.77
X150.715Y-55.1
X150.73Y-62.33
X150.73Y-80.11
X151.55Y-46.23
X151.55Y-48.77
X153.255Y-55.1
X153.27Y-62.33
X153.27Y-80.11
X154.09Y-46.23
X154.09Y-48.77
X155.81Y-62.33
X155.81Y-80.11
X156.63Y-46.23
X156.63Y-48.77
X158.335Y-55.1
X158.35Y-62.33
X158.35Y-80.11
X159.985Y-85.96
X159.985Y-88.5
X160.875Y-55.1
X160.89Y-62.33
X160.89Y-80.11
X162.525Y-85.96
X162.525Y-88.5
T5
X73.25Y-67.455
X73.25Y-69.995
X73.25Y-72.535
X73.25Y-75.075
T6
X80.7Y-62.26
X80.7Y-64.8
X80.7Y-67.34
X80.7Y-69.88
X80.7Y-72.42
X80.7Y-74.96
X80.7Y-77.5
X80.7Y-80.04
X93.4Y-62.26
X93.4Y-64.8
X93.4Y-67.34
X93.4Y-69.88
X93.4Y-72.42
X93.4Y-74.96
X93.4Y-77.5
X93.4Y-80.04
T7
X120.375Y-93.75
X120.375Y-98.25
X126.875Y-93.75
X126.875Y-98.25
X131.78Y-93.75
X131.78Y-98.25
X138.28Y-93.75
X138.28Y-98.25
M30
