G04 #@! TF.GenerationSoftware,KiCad,Pcbnew,9.0.1-1.fc42*
G04 #@! TF.CreationDate,2025-05-14T23:47:02-05:00*
G04 #@! TF.ProjectId,cerebellum,63657265-6265-46c6-9c75-6d2e6b696361,rev?*
G04 #@! TF.SameCoordinates,Original*
G04 #@! TF.FileFunction,Profile,NP*
%FSLAX46Y46*%
G04 Gerber Fmt 4.6, Leading zero omitted, Abs format (unit mm)*
G04 Created by KiCad (PCBNEW 9.0.1-1.fc42) date 2025-05-14 23:47:02*
%MOMM*%
%LPD*%
G01*
G04 APERTURE LIST*
G04 #@! TA.AperFunction,Profile*
%ADD10C,0.100000*%
G04 #@! TD*
G04 APERTURE END LIST*
D10*
X158300000Y-100000000D02*
G75*
G02*
X157500000Y-99200000I0J800000D01*
G01*
X162000000Y-44000000D02*
G75*
G02*
X165000000Y-47000000I0J-3000000D01*
G01*
X165000000Y-97000000D02*
X165000000Y-47000000D01*
X146700000Y-100000000D02*
X73000000Y-100000000D01*
X156700000Y-84000000D02*
G75*
G02*
X157500000Y-84800000I0J-800000D01*
G01*
X147500000Y-99200000D02*
G75*
G02*
X146700000Y-100000000I-800000J0D01*
G01*
X70000000Y-47000000D02*
X70000000Y-97000000D01*
X100000000Y-80500000D02*
G75*
G02*
X99500000Y-80000000I0J500000D01*
G01*
X147500000Y-84800000D02*
X147500000Y-99200000D01*
X99500000Y-64000000D02*
X99500000Y-80000000D01*
X162000000Y-100000000D02*
X158300000Y-100000000D01*
X157500000Y-99200000D02*
X157500000Y-84800000D01*
X104500000Y-80500000D02*
X100000000Y-80500000D01*
X70000000Y-47000000D02*
G75*
G02*
X73000000Y-44000000I3000000J0D01*
G01*
X165000000Y-97000000D02*
G75*
G02*
X162000000Y-100000000I-3000000J0D01*
G01*
X105000000Y-64000000D02*
X105000000Y-80000000D01*
X99500000Y-64000000D02*
G75*
G02*
X100000000Y-63500000I500000J0D01*
G01*
X147500000Y-84800000D02*
G75*
G02*
X148300000Y-84000000I800000J0D01*
G01*
X73000000Y-100000000D02*
G75*
G02*
X70000000Y-97000000I0J3000000D01*
G01*
X100000000Y-63500000D02*
X104500000Y-63500000D01*
X156700000Y-84000000D02*
X148300000Y-84000000D01*
X105000000Y-80000000D02*
G75*
G02*
X104500000Y-80500000I-500000J0D01*
G01*
X104500000Y-63500000D02*
G75*
G02*
X105000000Y-64000000I0J-500000D01*
G01*
X162000000Y-44000000D02*
X73000000Y-44000000D01*
M02*
