G04 #@! TF.GenerationSoftware,KiCad,Pcbnew,9.0.1-9.0.1-0~ubuntu24.04.1*
G04 #@! TF.CreationDate,2025-04-23T21:02:07-05:00*
G04 #@! TF.ProjectId,cerebellum,63657265-6265-46c6-9c75-6d2e6b696361,rev?*
G04 #@! TF.SameCoordinates,Original*
G04 #@! TF.FileFunction,Soldermask,Bot*
G04 #@! TF.FilePolarity,Negative*
%FSLAX46Y46*%
G04 Gerber Fmt 4.6, Leading zero omitted, Abs format (unit mm)*
G04 Created by KiCad (PCBNEW 9.0.1-9.0.1-0~ubuntu24.04.1) date 2025-04-23 21:02:07*
%MOMM*%
%LPD*%
G01*
G04 APERTURE LIST*
G04 APERTURE END LIST*
G36*
X126890285Y-95943060D02*
G01*
X127071397Y-96018079D01*
X127234393Y-96126990D01*
X127373010Y-96265607D01*
X127481921Y-96428603D01*
X127556940Y-96609715D01*
X127595185Y-96801983D01*
X127595185Y-96998017D01*
X127556940Y-97190285D01*
X127481921Y-97371397D01*
X127373010Y-97534393D01*
X127234393Y-97673010D01*
X127071397Y-97781921D01*
X126890285Y-97856940D01*
X126698017Y-97895185D01*
X126501983Y-97895185D01*
X126309715Y-97856940D01*
X126128603Y-97781921D01*
X125965607Y-97673010D01*
X125826990Y-97534393D01*
X125718079Y-97371397D01*
X125643060Y-97190285D01*
X125604815Y-96998017D01*
X125604815Y-96801983D01*
X125643060Y-96609715D01*
X125718079Y-96428603D01*
X125826990Y-96265607D01*
X125965607Y-96126990D01*
X126128603Y-96018079D01*
X126309715Y-95943060D01*
X126501983Y-95904815D01*
X126698017Y-95904815D01*
X126890285Y-95943060D01*
G37*
G36*
X133390285Y-95943060D02*
G01*
X133571397Y-96018079D01*
X133734393Y-96126990D01*
X133873010Y-96265607D01*
X133981921Y-96428603D01*
X134056940Y-96609715D01*
X134095185Y-96801983D01*
X134095185Y-96998017D01*
X134056940Y-97190285D01*
X133981921Y-97371397D01*
X133873010Y-97534393D01*
X133734393Y-97673010D01*
X133571397Y-97781921D01*
X133390285Y-97856940D01*
X133198017Y-97895185D01*
X133001983Y-97895185D01*
X132809715Y-97856940D01*
X132628603Y-97781921D01*
X132465607Y-97673010D01*
X132326990Y-97534393D01*
X132218079Y-97371397D01*
X132143060Y-97190285D01*
X132104815Y-96998017D01*
X132104815Y-96801983D01*
X132143060Y-96609715D01*
X132218079Y-96428603D01*
X132326990Y-96265607D01*
X132465607Y-96126990D01*
X132628603Y-96018079D01*
X132809715Y-95943060D01*
X133001983Y-95904815D01*
X133198017Y-95904815D01*
X133390285Y-95943060D01*
G37*
G36*
X137090285Y-95943060D02*
G01*
X137271397Y-96018079D01*
X137434393Y-96126990D01*
X137573010Y-96265607D01*
X137681921Y-96428603D01*
X137756940Y-96609715D01*
X137795185Y-96801983D01*
X137795185Y-96998017D01*
X137756940Y-97190285D01*
X137681921Y-97371397D01*
X137573010Y-97534393D01*
X137434393Y-97673010D01*
X137271397Y-97781921D01*
X137090285Y-97856940D01*
X136898017Y-97895185D01*
X136701983Y-97895185D01*
X136509715Y-97856940D01*
X136328603Y-97781921D01*
X136165607Y-97673010D01*
X136026990Y-97534393D01*
X135918079Y-97371397D01*
X135843060Y-97190285D01*
X135804815Y-96998017D01*
X135804815Y-96801983D01*
X135843060Y-96609715D01*
X135918079Y-96428603D01*
X136026990Y-96265607D01*
X136165607Y-96126990D01*
X136328603Y-96018079D01*
X136509715Y-95943060D01*
X136701983Y-95904815D01*
X136898017Y-95904815D01*
X137090285Y-95943060D01*
G37*
G36*
X143590285Y-95943060D02*
G01*
X143771397Y-96018079D01*
X143934393Y-96126990D01*
X144073010Y-96265607D01*
X144181921Y-96428603D01*
X144256940Y-96609715D01*
X144295185Y-96801983D01*
X144295185Y-96998017D01*
X144256940Y-97190285D01*
X144181921Y-97371397D01*
X144073010Y-97534393D01*
X143934393Y-97673010D01*
X143771397Y-97781921D01*
X143590285Y-97856940D01*
X143398017Y-97895185D01*
X143201983Y-97895185D01*
X143009715Y-97856940D01*
X142828603Y-97781921D01*
X142665607Y-97673010D01*
X142526990Y-97534393D01*
X142418079Y-97371397D01*
X142343060Y-97190285D01*
X142304815Y-96998017D01*
X142304815Y-96801983D01*
X142343060Y-96609715D01*
X142418079Y-96428603D01*
X142526990Y-96265607D01*
X142665607Y-96126990D01*
X142828603Y-96018079D01*
X143009715Y-95943060D01*
X143201983Y-95904815D01*
X143398017Y-95904815D01*
X143590285Y-95943060D01*
G37*
G36*
X103815151Y-95187301D02*
G01*
X104016623Y-95252763D01*
X104205373Y-95348936D01*
X104376755Y-95473452D01*
X104526548Y-95623245D01*
X104651064Y-95794627D01*
X104747237Y-95983377D01*
X104812699Y-96184849D01*
X104845838Y-96394080D01*
X104845838Y-96605920D01*
X104812699Y-96815151D01*
X104747237Y-97016623D01*
X104651064Y-97205373D01*
X104526548Y-97376755D01*
X104376755Y-97526548D01*
X104205373Y-97651064D01*
X104016623Y-97747237D01*
X103815151Y-97812699D01*
X103605920Y-97845838D01*
X103394080Y-97845838D01*
X103184849Y-97812699D01*
X102983377Y-97747237D01*
X102794627Y-97651064D01*
X102623245Y-97526548D01*
X102473452Y-97376755D01*
X102348936Y-97205373D01*
X102252763Y-97016623D01*
X102187301Y-96815151D01*
X102154162Y-96605920D01*
X102154162Y-96394080D01*
X102187301Y-96184849D01*
X102252763Y-95983377D01*
X102348936Y-95794627D01*
X102473452Y-95623245D01*
X102623245Y-95473452D01*
X102794627Y-95348936D01*
X102983377Y-95252763D01*
X103184849Y-95187301D01*
X103394080Y-95154162D01*
X103605920Y-95154162D01*
X103815151Y-95187301D01*
G37*
G36*
X161815151Y-95187301D02*
G01*
X162016623Y-95252763D01*
X162205373Y-95348936D01*
X162376755Y-95473452D01*
X162526548Y-95623245D01*
X162651064Y-95794627D01*
X162747237Y-95983377D01*
X162812699Y-96184849D01*
X162845838Y-96394080D01*
X162845838Y-96605920D01*
X162812699Y-96815151D01*
X162747237Y-97016623D01*
X162651064Y-97205373D01*
X162526548Y-97376755D01*
X162376755Y-97526548D01*
X162205373Y-97651064D01*
X162016623Y-97747237D01*
X161815151Y-97812699D01*
X161605920Y-97845838D01*
X161394080Y-97845838D01*
X161184849Y-97812699D01*
X160983377Y-97747237D01*
X160794627Y-97651064D01*
X160623245Y-97526548D01*
X160473452Y-97376755D01*
X160348936Y-97205373D01*
X160252763Y-97016623D01*
X160187301Y-96815151D01*
X160154162Y-96605920D01*
X160154162Y-96394080D01*
X160187301Y-96184849D01*
X160252763Y-95983377D01*
X160348936Y-95794627D01*
X160473452Y-95623245D01*
X160623245Y-95473452D01*
X160794627Y-95348936D01*
X160983377Y-95252763D01*
X161184849Y-95187301D01*
X161394080Y-95154162D01*
X161605920Y-95154162D01*
X161815151Y-95187301D01*
G37*
G36*
X87125000Y-96350000D02*
G01*
X85425000Y-96350000D01*
X85425000Y-94650000D01*
X87125000Y-94650000D01*
X87125000Y-96350000D01*
G37*
G36*
X83981742Y-94686601D02*
G01*
X84135687Y-94750367D01*
X84274234Y-94842941D01*
X84392059Y-94960766D01*
X84484633Y-95099313D01*
X84548399Y-95253258D01*
X84580907Y-95416685D01*
X84580907Y-95583315D01*
X84548399Y-95746742D01*
X84484633Y-95900687D01*
X84392059Y-96039234D01*
X84274234Y-96157059D01*
X84135687Y-96249633D01*
X83981742Y-96313399D01*
X83818315Y-96345907D01*
X83651685Y-96345907D01*
X83488258Y-96313399D01*
X83334313Y-96249633D01*
X83195766Y-96157059D01*
X83077941Y-96039234D01*
X82985367Y-95900687D01*
X82921601Y-95746742D01*
X82889093Y-95583315D01*
X82889093Y-95416685D01*
X82921601Y-95253258D01*
X82985367Y-95099313D01*
X83077941Y-94960766D01*
X83195766Y-94842941D01*
X83334313Y-94750367D01*
X83488258Y-94686601D01*
X83651685Y-94654093D01*
X83818315Y-94654093D01*
X83981742Y-94686601D01*
G37*
G36*
X110126228Y-93838448D02*
G01*
X110271117Y-93898463D01*
X110401515Y-93985592D01*
X110512408Y-94096485D01*
X110599537Y-94226883D01*
X110659552Y-94371772D01*
X110690148Y-94525586D01*
X110690148Y-94682414D01*
X110659552Y-94836228D01*
X110599537Y-94981117D01*
X110512408Y-95111515D01*
X110401515Y-95222408D01*
X110271117Y-95309537D01*
X110126228Y-95369552D01*
X109972414Y-95400148D01*
X109815586Y-95400148D01*
X109661772Y-95369552D01*
X109516883Y-95309537D01*
X109386485Y-95222408D01*
X109275592Y-95111515D01*
X109188463Y-94981117D01*
X109128448Y-94836228D01*
X109097852Y-94682414D01*
X109097852Y-94525586D01*
X109128448Y-94371772D01*
X109188463Y-94226883D01*
X109275592Y-94096485D01*
X109386485Y-93985592D01*
X109516883Y-93898463D01*
X109661772Y-93838448D01*
X109815586Y-93807852D01*
X109972414Y-93807852D01*
X110126228Y-93838448D01*
G37*
G36*
X120286228Y-93838448D02*
G01*
X120431117Y-93898463D01*
X120561515Y-93985592D01*
X120672408Y-94096485D01*
X120759537Y-94226883D01*
X120819552Y-94371772D01*
X120850148Y-94525586D01*
X120850148Y-94682414D01*
X120819552Y-94836228D01*
X120759537Y-94981117D01*
X120672408Y-95111515D01*
X120561515Y-95222408D01*
X120431117Y-95309537D01*
X120286228Y-95369552D01*
X120132414Y-95400148D01*
X119975586Y-95400148D01*
X119821772Y-95369552D01*
X119676883Y-95309537D01*
X119546485Y-95222408D01*
X119435592Y-95111515D01*
X119348463Y-94981117D01*
X119288448Y-94836228D01*
X119257852Y-94682414D01*
X119257852Y-94525586D01*
X119288448Y-94371772D01*
X119348463Y-94226883D01*
X119435592Y-94096485D01*
X119546485Y-93985592D01*
X119676883Y-93898463D01*
X119821772Y-93838448D01*
X119975586Y-93807852D01*
X120132414Y-93807852D01*
X120286228Y-93838448D01*
G37*
G36*
X126890285Y-91443060D02*
G01*
X127071397Y-91518079D01*
X127234393Y-91626990D01*
X127373010Y-91765607D01*
X127481921Y-91928603D01*
X127556940Y-92109715D01*
X127595185Y-92301983D01*
X127595185Y-92498017D01*
X127556940Y-92690285D01*
X127481921Y-92871397D01*
X127373010Y-93034393D01*
X127234393Y-93173010D01*
X127071397Y-93281921D01*
X126890285Y-93356940D01*
X126698017Y-93395185D01*
X126501983Y-93395185D01*
X126309715Y-93356940D01*
X126128603Y-93281921D01*
X125965607Y-93173010D01*
X125826990Y-93034393D01*
X125718079Y-92871397D01*
X125643060Y-92690285D01*
X125604815Y-92498017D01*
X125604815Y-92301983D01*
X125643060Y-92109715D01*
X125718079Y-91928603D01*
X125826990Y-91765607D01*
X125965607Y-91626990D01*
X126128603Y-91518079D01*
X126309715Y-91443060D01*
X126501983Y-91404815D01*
X126698017Y-91404815D01*
X126890285Y-91443060D01*
G37*
G36*
X133390285Y-91443060D02*
G01*
X133571397Y-91518079D01*
X133734393Y-91626990D01*
X133873010Y-91765607D01*
X133981921Y-91928603D01*
X134056940Y-92109715D01*
X134095185Y-92301983D01*
X134095185Y-92498017D01*
X134056940Y-92690285D01*
X133981921Y-92871397D01*
X133873010Y-93034393D01*
X133734393Y-93173010D01*
X133571397Y-93281921D01*
X133390285Y-93356940D01*
X133198017Y-93395185D01*
X133001983Y-93395185D01*
X132809715Y-93356940D01*
X132628603Y-93281921D01*
X132465607Y-93173010D01*
X132326990Y-93034393D01*
X132218079Y-92871397D01*
X132143060Y-92690285D01*
X132104815Y-92498017D01*
X132104815Y-92301983D01*
X132143060Y-92109715D01*
X132218079Y-91928603D01*
X132326990Y-91765607D01*
X132465607Y-91626990D01*
X132628603Y-91518079D01*
X132809715Y-91443060D01*
X133001983Y-91404815D01*
X133198017Y-91404815D01*
X133390285Y-91443060D01*
G37*
G36*
X137090285Y-91443060D02*
G01*
X137271397Y-91518079D01*
X137434393Y-91626990D01*
X137573010Y-91765607D01*
X137681921Y-91928603D01*
X137756940Y-92109715D01*
X137795185Y-92301983D01*
X137795185Y-92498017D01*
X137756940Y-92690285D01*
X137681921Y-92871397D01*
X137573010Y-93034393D01*
X137434393Y-93173010D01*
X137271397Y-93281921D01*
X137090285Y-93356940D01*
X136898017Y-93395185D01*
X136701983Y-93395185D01*
X136509715Y-93356940D01*
X136328603Y-93281921D01*
X136165607Y-93173010D01*
X136026990Y-93034393D01*
X135918079Y-92871397D01*
X135843060Y-92690285D01*
X135804815Y-92498017D01*
X135804815Y-92301983D01*
X135843060Y-92109715D01*
X135918079Y-91928603D01*
X136026990Y-91765607D01*
X136165607Y-91626990D01*
X136328603Y-91518079D01*
X136509715Y-91443060D01*
X136701983Y-91404815D01*
X136898017Y-91404815D01*
X137090285Y-91443060D01*
G37*
G36*
X143590285Y-91443060D02*
G01*
X143771397Y-91518079D01*
X143934393Y-91626990D01*
X144073010Y-91765607D01*
X144181921Y-91928603D01*
X144256940Y-92109715D01*
X144295185Y-92301983D01*
X144295185Y-92498017D01*
X144256940Y-92690285D01*
X144181921Y-92871397D01*
X144073010Y-93034393D01*
X143934393Y-93173010D01*
X143771397Y-93281921D01*
X143590285Y-93356940D01*
X143398017Y-93395185D01*
X143201983Y-93395185D01*
X143009715Y-93356940D01*
X142828603Y-93281921D01*
X142665607Y-93173010D01*
X142526990Y-93034393D01*
X142418079Y-92871397D01*
X142343060Y-92690285D01*
X142304815Y-92498017D01*
X142304815Y-92301983D01*
X142343060Y-92109715D01*
X142418079Y-91928603D01*
X142526990Y-91765607D01*
X142665607Y-91626990D01*
X142828603Y-91518079D01*
X143009715Y-91443060D01*
X143201983Y-91404815D01*
X143398017Y-91404815D01*
X143590285Y-91443060D01*
G37*
G36*
X110126228Y-90282448D02*
G01*
X110271117Y-90342463D01*
X110401515Y-90429592D01*
X110512408Y-90540485D01*
X110599537Y-90670883D01*
X110659552Y-90815772D01*
X110690148Y-90969586D01*
X110690148Y-91126414D01*
X110659552Y-91280228D01*
X110599537Y-91425117D01*
X110512408Y-91555515D01*
X110401515Y-91666408D01*
X110271117Y-91753537D01*
X110126228Y-91813552D01*
X109972414Y-91844148D01*
X109815586Y-91844148D01*
X109661772Y-91813552D01*
X109516883Y-91753537D01*
X109386485Y-91666408D01*
X109275592Y-91555515D01*
X109188463Y-91425117D01*
X109128448Y-91280228D01*
X109097852Y-91126414D01*
X109097852Y-90969586D01*
X109128448Y-90815772D01*
X109188463Y-90670883D01*
X109275592Y-90540485D01*
X109386485Y-90429592D01*
X109516883Y-90342463D01*
X109661772Y-90282448D01*
X109815586Y-90251852D01*
X109972414Y-90251852D01*
X110126228Y-90282448D01*
G37*
G36*
X120286228Y-90282448D02*
G01*
X120431117Y-90342463D01*
X120561515Y-90429592D01*
X120672408Y-90540485D01*
X120759537Y-90670883D01*
X120819552Y-90815772D01*
X120850148Y-90969586D01*
X120850148Y-91126414D01*
X120819552Y-91280228D01*
X120759537Y-91425117D01*
X120672408Y-91555515D01*
X120561515Y-91666408D01*
X120431117Y-91753537D01*
X120286228Y-91813552D01*
X120132414Y-91844148D01*
X119975586Y-91844148D01*
X119821772Y-91813552D01*
X119676883Y-91753537D01*
X119546485Y-91666408D01*
X119435592Y-91555515D01*
X119348463Y-91425117D01*
X119288448Y-91280228D01*
X119257852Y-91126414D01*
X119257852Y-90969586D01*
X119288448Y-90815772D01*
X119348463Y-90670883D01*
X119435592Y-90540485D01*
X119546485Y-90429592D01*
X119676883Y-90342463D01*
X119821772Y-90282448D01*
X119975586Y-90251852D01*
X120132414Y-90251852D01*
X120286228Y-90282448D01*
G37*
G36*
X159532228Y-89954448D02*
G01*
X159677117Y-90014463D01*
X159807515Y-90101592D01*
X159918408Y-90212485D01*
X160005537Y-90342883D01*
X160065552Y-90487772D01*
X160096148Y-90641586D01*
X160096148Y-90798414D01*
X160065552Y-90952228D01*
X160005537Y-91097117D01*
X159918408Y-91227515D01*
X159807515Y-91338408D01*
X159677117Y-91425537D01*
X159532228Y-91485552D01*
X159378414Y-91516148D01*
X159221586Y-91516148D01*
X159067772Y-91485552D01*
X158922883Y-91425537D01*
X158792485Y-91338408D01*
X158681592Y-91227515D01*
X158594463Y-91097117D01*
X158534448Y-90952228D01*
X158503852Y-90798414D01*
X158503852Y-90641586D01*
X158534448Y-90487772D01*
X158594463Y-90342883D01*
X158681592Y-90212485D01*
X158792485Y-90101592D01*
X158922883Y-90014463D01*
X159067772Y-89954448D01*
X159221586Y-89923852D01*
X159378414Y-89923852D01*
X159532228Y-89954448D01*
G37*
G36*
X162732228Y-89954448D02*
G01*
X162877117Y-90014463D01*
X163007515Y-90101592D01*
X163118408Y-90212485D01*
X163205537Y-90342883D01*
X163265552Y-90487772D01*
X163296148Y-90641586D01*
X163296148Y-90798414D01*
X163265552Y-90952228D01*
X163205537Y-91097117D01*
X163118408Y-91227515D01*
X163007515Y-91338408D01*
X162877117Y-91425537D01*
X162732228Y-91485552D01*
X162578414Y-91516148D01*
X162421586Y-91516148D01*
X162267772Y-91485552D01*
X162122883Y-91425537D01*
X161992485Y-91338408D01*
X161881592Y-91227515D01*
X161794463Y-91097117D01*
X161734448Y-90952228D01*
X161703852Y-90798414D01*
X161703852Y-90641586D01*
X161734448Y-90487772D01*
X161794463Y-90342883D01*
X161881592Y-90212485D01*
X161992485Y-90101592D01*
X162122883Y-90014463D01*
X162267772Y-89954448D01*
X162421586Y-89923852D01*
X162578414Y-89923852D01*
X162732228Y-89954448D01*
G37*
G36*
X146450000Y-89250000D02*
G01*
X144750000Y-89250000D01*
X144750000Y-87550000D01*
X146450000Y-87550000D01*
X146450000Y-89250000D01*
G37*
G36*
X143306742Y-87586601D02*
G01*
X143460687Y-87650367D01*
X143599234Y-87742941D01*
X143717059Y-87860766D01*
X143809633Y-87999313D01*
X143873399Y-88153258D01*
X143905907Y-88316685D01*
X143905907Y-88483315D01*
X143873399Y-88646742D01*
X143809633Y-88800687D01*
X143717059Y-88939234D01*
X143599234Y-89057059D01*
X143460687Y-89149633D01*
X143306742Y-89213399D01*
X143143315Y-89245907D01*
X142976685Y-89245907D01*
X142813258Y-89213399D01*
X142659313Y-89149633D01*
X142520766Y-89057059D01*
X142402941Y-88939234D01*
X142310367Y-88800687D01*
X142246601Y-88646742D01*
X142214093Y-88483315D01*
X142214093Y-88316685D01*
X142246601Y-88153258D01*
X142310367Y-87999313D01*
X142402941Y-87860766D01*
X142520766Y-87742941D01*
X142659313Y-87650367D01*
X142813258Y-87586601D01*
X142976685Y-87554093D01*
X143143315Y-87554093D01*
X143306742Y-87586601D01*
G37*
G36*
X159532228Y-87454448D02*
G01*
X159677117Y-87514463D01*
X159807515Y-87601592D01*
X159918408Y-87712485D01*
X160005537Y-87842883D01*
X160065552Y-87987772D01*
X160096148Y-88141586D01*
X160096148Y-88298414D01*
X160065552Y-88452228D01*
X160005537Y-88597117D01*
X159918408Y-88727515D01*
X159807515Y-88838408D01*
X159677117Y-88925537D01*
X159532228Y-88985552D01*
X159378414Y-89016148D01*
X159221586Y-89016148D01*
X159067772Y-88985552D01*
X158922883Y-88925537D01*
X158792485Y-88838408D01*
X158681592Y-88727515D01*
X158594463Y-88597117D01*
X158534448Y-88452228D01*
X158503852Y-88298414D01*
X158503852Y-88141586D01*
X158534448Y-87987772D01*
X158594463Y-87842883D01*
X158681592Y-87712485D01*
X158792485Y-87601592D01*
X158922883Y-87514463D01*
X159067772Y-87454448D01*
X159221586Y-87423852D01*
X159378414Y-87423852D01*
X159532228Y-87454448D01*
G37*
G36*
X162732228Y-87454448D02*
G01*
X162877117Y-87514463D01*
X163007515Y-87601592D01*
X163118408Y-87712485D01*
X163205537Y-87842883D01*
X163265552Y-87987772D01*
X163296148Y-88141586D01*
X163296148Y-88298414D01*
X163265552Y-88452228D01*
X163205537Y-88597117D01*
X163118408Y-88727515D01*
X163007515Y-88838408D01*
X162877117Y-88925537D01*
X162732228Y-88985552D01*
X162578414Y-89016148D01*
X162421586Y-89016148D01*
X162267772Y-88985552D01*
X162122883Y-88925537D01*
X161992485Y-88838408D01*
X161881592Y-88727515D01*
X161794463Y-88597117D01*
X161734448Y-88452228D01*
X161703852Y-88298414D01*
X161703852Y-88141586D01*
X161734448Y-87987772D01*
X161794463Y-87842883D01*
X161881592Y-87712485D01*
X161992485Y-87601592D01*
X162122883Y-87514463D01*
X162267772Y-87454448D01*
X162421586Y-87423852D01*
X162578414Y-87423852D01*
X162732228Y-87454448D01*
G37*
G36*
X97425000Y-88400000D02*
G01*
X96355000Y-88400000D01*
X96355000Y-86600000D01*
X97425000Y-86600000D01*
X97425000Y-88400000D01*
G37*
G36*
X98364736Y-86640724D02*
G01*
X98485687Y-86710556D01*
X98584444Y-86809313D01*
X98654276Y-86930264D01*
X98690423Y-87065168D01*
X98695000Y-87135000D01*
X98695000Y-87865000D01*
X98690423Y-87934832D01*
X98654276Y-88069736D01*
X98584444Y-88190687D01*
X98485687Y-88289444D01*
X98364736Y-88359276D01*
X98229832Y-88395423D01*
X98090168Y-88395423D01*
X97955264Y-88359276D01*
X97834313Y-88289444D01*
X97735556Y-88190687D01*
X97665724Y-88069736D01*
X97629577Y-87934832D01*
X97625000Y-87865000D01*
X97625000Y-87135000D01*
X97629577Y-87065168D01*
X97665724Y-86930264D01*
X97735556Y-86809313D01*
X97834313Y-86710556D01*
X97955264Y-86640724D01*
X98090168Y-86604577D01*
X98229832Y-86604577D01*
X98364736Y-86640724D01*
G37*
G36*
X99634736Y-86640724D02*
G01*
X99755687Y-86710556D01*
X99854444Y-86809313D01*
X99924276Y-86930264D01*
X99960423Y-87065168D01*
X99965000Y-87135000D01*
X99965000Y-87865000D01*
X99960423Y-87934832D01*
X99924276Y-88069736D01*
X99854444Y-88190687D01*
X99755687Y-88289444D01*
X99634736Y-88359276D01*
X99499832Y-88395423D01*
X99360168Y-88395423D01*
X99225264Y-88359276D01*
X99104313Y-88289444D01*
X99005556Y-88190687D01*
X98935724Y-88069736D01*
X98899577Y-87934832D01*
X98895000Y-87865000D01*
X98895000Y-87135000D01*
X98899577Y-87065168D01*
X98935724Y-86930264D01*
X99005556Y-86809313D01*
X99104313Y-86710556D01*
X99225264Y-86640724D01*
X99360168Y-86604577D01*
X99499832Y-86604577D01*
X99634736Y-86640724D01*
G37*
G36*
X100904736Y-86640724D02*
G01*
X101025687Y-86710556D01*
X101124444Y-86809313D01*
X101194276Y-86930264D01*
X101230423Y-87065168D01*
X101235000Y-87135000D01*
X101235000Y-87865000D01*
X101230423Y-87934832D01*
X101194276Y-88069736D01*
X101124444Y-88190687D01*
X101025687Y-88289444D01*
X100904736Y-88359276D01*
X100769832Y-88395423D01*
X100630168Y-88395423D01*
X100495264Y-88359276D01*
X100374313Y-88289444D01*
X100275556Y-88190687D01*
X100205724Y-88069736D01*
X100169577Y-87934832D01*
X100165000Y-87865000D01*
X100165000Y-87135000D01*
X100169577Y-87065168D01*
X100205724Y-86930264D01*
X100275556Y-86809313D01*
X100374313Y-86710556D01*
X100495264Y-86640724D01*
X100630168Y-86604577D01*
X100769832Y-86604577D01*
X100904736Y-86640724D01*
G37*
G36*
X110126228Y-86726448D02*
G01*
X110271117Y-86786463D01*
X110401515Y-86873592D01*
X110512408Y-86984485D01*
X110599537Y-87114883D01*
X110659552Y-87259772D01*
X110690148Y-87413586D01*
X110690148Y-87570414D01*
X110659552Y-87724228D01*
X110599537Y-87869117D01*
X110512408Y-87999515D01*
X110401515Y-88110408D01*
X110271117Y-88197537D01*
X110126228Y-88257552D01*
X109972414Y-88288148D01*
X109815586Y-88288148D01*
X109661772Y-88257552D01*
X109516883Y-88197537D01*
X109386485Y-88110408D01*
X109275592Y-87999515D01*
X109188463Y-87869117D01*
X109128448Y-87724228D01*
X109097852Y-87570414D01*
X109097852Y-87413586D01*
X109128448Y-87259772D01*
X109188463Y-87114883D01*
X109275592Y-86984485D01*
X109386485Y-86873592D01*
X109516883Y-86786463D01*
X109661772Y-86726448D01*
X109815586Y-86695852D01*
X109972414Y-86695852D01*
X110126228Y-86726448D01*
G37*
G36*
X120286228Y-86726448D02*
G01*
X120431117Y-86786463D01*
X120561515Y-86873592D01*
X120672408Y-86984485D01*
X120759537Y-87114883D01*
X120819552Y-87259772D01*
X120850148Y-87413586D01*
X120850148Y-87570414D01*
X120819552Y-87724228D01*
X120759537Y-87869117D01*
X120672408Y-87999515D01*
X120561515Y-88110408D01*
X120431117Y-88197537D01*
X120286228Y-88257552D01*
X120132414Y-88288148D01*
X119975586Y-88288148D01*
X119821772Y-88257552D01*
X119676883Y-88197537D01*
X119546485Y-88110408D01*
X119435592Y-87999515D01*
X119348463Y-87869117D01*
X119288448Y-87724228D01*
X119257852Y-87570414D01*
X119257852Y-87413586D01*
X119288448Y-87259772D01*
X119348463Y-87114883D01*
X119435592Y-86984485D01*
X119546485Y-86873592D01*
X119676883Y-86786463D01*
X119821772Y-86726448D01*
X119975586Y-86695852D01*
X120132414Y-86695852D01*
X120286228Y-86726448D01*
G37*
G36*
X163300000Y-86520000D02*
G01*
X161700000Y-86520000D01*
X161700000Y-84920000D01*
X163300000Y-84920000D01*
X163300000Y-86520000D01*
G37*
G36*
X159532228Y-84954448D02*
G01*
X159677117Y-85014463D01*
X159807515Y-85101592D01*
X159918408Y-85212485D01*
X160005537Y-85342883D01*
X160065552Y-85487772D01*
X160096148Y-85641586D01*
X160096148Y-85798414D01*
X160065552Y-85952228D01*
X160005537Y-86097117D01*
X159918408Y-86227515D01*
X159807515Y-86338408D01*
X159677117Y-86425537D01*
X159532228Y-86485552D01*
X159378414Y-86516148D01*
X159221586Y-86516148D01*
X159067772Y-86485552D01*
X158922883Y-86425537D01*
X158792485Y-86338408D01*
X158681592Y-86227515D01*
X158594463Y-86097117D01*
X158534448Y-85952228D01*
X158503852Y-85798414D01*
X158503852Y-85641586D01*
X158534448Y-85487772D01*
X158594463Y-85342883D01*
X158681592Y-85212485D01*
X158792485Y-85101592D01*
X158922883Y-85014463D01*
X159067772Y-84954448D01*
X159221586Y-84923852D01*
X159378414Y-84923852D01*
X159532228Y-84954448D01*
G37*
G36*
X162746742Y-80136601D02*
G01*
X162900687Y-80200367D01*
X163039234Y-80292941D01*
X163157059Y-80410766D01*
X163249633Y-80549313D01*
X163313399Y-80703258D01*
X163345907Y-80866685D01*
X163345907Y-81033315D01*
X163313399Y-81196742D01*
X163249633Y-81350687D01*
X163157059Y-81489234D01*
X163039234Y-81607059D01*
X162900687Y-81699633D01*
X162746742Y-81763399D01*
X162583315Y-81795907D01*
X162416685Y-81795907D01*
X162253258Y-81763399D01*
X162099313Y-81699633D01*
X161960766Y-81607059D01*
X161842941Y-81489234D01*
X161750367Y-81350687D01*
X161686601Y-81196742D01*
X161654093Y-81033315D01*
X161654093Y-80866685D01*
X161686601Y-80703258D01*
X161750367Y-80549313D01*
X161842941Y-80410766D01*
X161960766Y-80292941D01*
X162099313Y-80200367D01*
X162253258Y-80136601D01*
X162416685Y-80104093D01*
X162583315Y-80104093D01*
X162746742Y-80136601D01*
G37*
G36*
X81519034Y-79165764D02*
G01*
X81552125Y-79187875D01*
X81574236Y-79220966D01*
X81582000Y-79260000D01*
X81582000Y-80820000D01*
X81574236Y-80859034D01*
X81552125Y-80892125D01*
X81519034Y-80914236D01*
X81480000Y-80922000D01*
X79920000Y-80922000D01*
X79880966Y-80914236D01*
X79847875Y-80892125D01*
X79825764Y-80859034D01*
X79818000Y-80820000D01*
X79818000Y-79260000D01*
X79825764Y-79220966D01*
X79847875Y-79187875D01*
X79880966Y-79165764D01*
X79920000Y-79158000D01*
X81480000Y-79158000D01*
X81519034Y-79165764D01*
G37*
G36*
X94219034Y-79165764D02*
G01*
X94252125Y-79187875D01*
X94274236Y-79220966D01*
X94282000Y-79260000D01*
X94282000Y-80820000D01*
X94274236Y-80859034D01*
X94252125Y-80892125D01*
X94219034Y-80914236D01*
X94180000Y-80922000D01*
X92620000Y-80922000D01*
X92580966Y-80914236D01*
X92547875Y-80892125D01*
X92525764Y-80859034D01*
X92518000Y-80820000D01*
X92518000Y-79260000D01*
X92525764Y-79220966D01*
X92547875Y-79187875D01*
X92580966Y-79165764D01*
X92620000Y-79158000D01*
X94180000Y-79158000D01*
X94219034Y-79165764D01*
G37*
G36*
X116223536Y-79236464D02*
G01*
X116225915Y-79238843D01*
X116254015Y-79238843D01*
X116259018Y-79238843D01*
X116260931Y-79239224D01*
X116265549Y-79241137D01*
X116265554Y-79241138D01*
X116328404Y-79267171D01*
X116328408Y-79267173D01*
X116333027Y-79269087D01*
X116334650Y-79270170D01*
X116389830Y-79325350D01*
X116390913Y-79326973D01*
X116392826Y-79331592D01*
X116392828Y-79331595D01*
X116394105Y-79334679D01*
X116420776Y-79399069D01*
X116421157Y-79400982D01*
X116421157Y-79434085D01*
X116423536Y-79436464D01*
X116425000Y-79440000D01*
X116425000Y-80040000D01*
X116423536Y-80043536D01*
X116421148Y-80044524D01*
X116421148Y-80118414D01*
X116421052Y-80119389D01*
X116390456Y-80273203D01*
X116390171Y-80274141D01*
X116389217Y-80276443D01*
X116389215Y-80276451D01*
X116331115Y-80416717D01*
X116331110Y-80416724D01*
X116330156Y-80419030D01*
X116329694Y-80419895D01*
X116242565Y-80550293D01*
X116241944Y-80551051D01*
X116131051Y-80661944D01*
X116130293Y-80662565D01*
X115999895Y-80749694D01*
X115999030Y-80750156D01*
X115996724Y-80751110D01*
X115996717Y-80751115D01*
X115856451Y-80809215D01*
X115856443Y-80809217D01*
X115854141Y-80810171D01*
X115853203Y-80810456D01*
X115699389Y-80841052D01*
X115698414Y-80841148D01*
X115695924Y-80841148D01*
X115544076Y-80841148D01*
X115541586Y-80841148D01*
X115540611Y-80841052D01*
X115386797Y-80810456D01*
X115385859Y-80810171D01*
X115383559Y-80809218D01*
X115383548Y-80809215D01*
X115243282Y-80751115D01*
X115243270Y-80751109D01*
X115240970Y-80750156D01*
X115240105Y-80749694D01*
X115170608Y-80703258D01*
X115111785Y-80663954D01*
X115111781Y-80663951D01*
X115109707Y-80662565D01*
X115108949Y-80661944D01*
X114998056Y-80551051D01*
X114997435Y-80550293D01*
X114996049Y-80548219D01*
X114996045Y-80548214D01*
X114911695Y-80421974D01*
X114911694Y-80421972D01*
X114910306Y-80419895D01*
X114909844Y-80419030D01*
X114908892Y-80416732D01*
X114908884Y-80416717D01*
X114850784Y-80276451D01*
X114850778Y-80276434D01*
X114849829Y-80274141D01*
X114849544Y-80273203D01*
X114822418Y-80136835D01*
X114819433Y-80121830D01*
X114819432Y-80121824D01*
X114818948Y-80119389D01*
X114818852Y-80118414D01*
X114818852Y-80044524D01*
X114816464Y-80043536D01*
X114815000Y-80040000D01*
X114815000Y-79440000D01*
X114816464Y-79436464D01*
X114818843Y-79434085D01*
X114818843Y-79400982D01*
X114819224Y-79399069D01*
X114821136Y-79394451D01*
X114821138Y-79394445D01*
X114847171Y-79331595D01*
X114847174Y-79331589D01*
X114849087Y-79326973D01*
X114850170Y-79325350D01*
X114853706Y-79321813D01*
X114853709Y-79321810D01*
X114901810Y-79273709D01*
X114901813Y-79273706D01*
X114905350Y-79270170D01*
X114906973Y-79269087D01*
X114911589Y-79267174D01*
X114911595Y-79267171D01*
X114974445Y-79241138D01*
X114974451Y-79241136D01*
X114979069Y-79239224D01*
X114980982Y-79238843D01*
X115014085Y-79238843D01*
X115016464Y-79236464D01*
X115020000Y-79235000D01*
X116220000Y-79235000D01*
X116223536Y-79236464D01*
G37*
G36*
X128923536Y-79236464D02*
G01*
X128925915Y-79238843D01*
X128954015Y-79238843D01*
X128959018Y-79238843D01*
X128960931Y-79239224D01*
X128965549Y-79241137D01*
X128965554Y-79241138D01*
X129028404Y-79267171D01*
X129028408Y-79267173D01*
X129033027Y-79269087D01*
X129034650Y-79270170D01*
X129089830Y-79325350D01*
X129090913Y-79326973D01*
X129092826Y-79331592D01*
X129092828Y-79331595D01*
X129094105Y-79334679D01*
X129120776Y-79399069D01*
X129121157Y-79400982D01*
X129121157Y-79434085D01*
X129123536Y-79436464D01*
X129125000Y-79440000D01*
X129125000Y-80040000D01*
X129123536Y-80043536D01*
X129121148Y-80044524D01*
X129121148Y-80118414D01*
X129121052Y-80119389D01*
X129090456Y-80273203D01*
X129090171Y-80274141D01*
X129089217Y-80276443D01*
X129089215Y-80276451D01*
X129031115Y-80416717D01*
X129031110Y-80416724D01*
X129030156Y-80419030D01*
X129029694Y-80419895D01*
X128942565Y-80550293D01*
X128941944Y-80551051D01*
X128831051Y-80661944D01*
X128830293Y-80662565D01*
X128699895Y-80749694D01*
X128699030Y-80750156D01*
X128696724Y-80751110D01*
X128696717Y-80751115D01*
X128556451Y-80809215D01*
X128556443Y-80809217D01*
X128554141Y-80810171D01*
X128553203Y-80810456D01*
X128399389Y-80841052D01*
X128398414Y-80841148D01*
X128395924Y-80841148D01*
X128244076Y-80841148D01*
X128241586Y-80841148D01*
X128240611Y-80841052D01*
X128086797Y-80810456D01*
X128085859Y-80810171D01*
X128083559Y-80809218D01*
X128083548Y-80809215D01*
X127943282Y-80751115D01*
X127943270Y-80751109D01*
X127940970Y-80750156D01*
X127940105Y-80749694D01*
X127870608Y-80703258D01*
X127811785Y-80663954D01*
X127811781Y-80663951D01*
X127809707Y-80662565D01*
X127808949Y-80661944D01*
X127698056Y-80551051D01*
X127697435Y-80550293D01*
X127696049Y-80548219D01*
X127696045Y-80548214D01*
X127611695Y-80421974D01*
X127611694Y-80421972D01*
X127610306Y-80419895D01*
X127609844Y-80419030D01*
X127608892Y-80416732D01*
X127608884Y-80416717D01*
X127550784Y-80276451D01*
X127550778Y-80276434D01*
X127549829Y-80274141D01*
X127549544Y-80273203D01*
X127522418Y-80136835D01*
X127519433Y-80121830D01*
X127519432Y-80121824D01*
X127518948Y-80119389D01*
X127518852Y-80118414D01*
X127518852Y-80044524D01*
X127516464Y-80043536D01*
X127515000Y-80040000D01*
X127515000Y-79440000D01*
X127516464Y-79436464D01*
X127518843Y-79434085D01*
X127518843Y-79400982D01*
X127519224Y-79399069D01*
X127521136Y-79394451D01*
X127521138Y-79394445D01*
X127547171Y-79331595D01*
X127547174Y-79331589D01*
X127549087Y-79326973D01*
X127550170Y-79325350D01*
X127553706Y-79321813D01*
X127553709Y-79321810D01*
X127601810Y-79273709D01*
X127601813Y-79273706D01*
X127605350Y-79270170D01*
X127606973Y-79269087D01*
X127611589Y-79267174D01*
X127611595Y-79267171D01*
X127674445Y-79241138D01*
X127674451Y-79241136D01*
X127679069Y-79239224D01*
X127680982Y-79238843D01*
X127714085Y-79238843D01*
X127716464Y-79236464D01*
X127720000Y-79235000D01*
X128920000Y-79235000D01*
X128923536Y-79236464D01*
G37*
G36*
X141623536Y-79236464D02*
G01*
X141625915Y-79238843D01*
X141654015Y-79238843D01*
X141659018Y-79238843D01*
X141660931Y-79239224D01*
X141665549Y-79241137D01*
X141665554Y-79241138D01*
X141728404Y-79267171D01*
X141728408Y-79267173D01*
X141733027Y-79269087D01*
X141734650Y-79270170D01*
X141789830Y-79325350D01*
X141790913Y-79326973D01*
X141792826Y-79331592D01*
X141792828Y-79331595D01*
X141794105Y-79334679D01*
X141820776Y-79399069D01*
X141821157Y-79400982D01*
X141821157Y-79434085D01*
X141823536Y-79436464D01*
X141825000Y-79440000D01*
X141825000Y-80040000D01*
X141823536Y-80043536D01*
X141821148Y-80044524D01*
X141821148Y-80118414D01*
X141821052Y-80119389D01*
X141790456Y-80273203D01*
X141790171Y-80274141D01*
X141789217Y-80276443D01*
X141789215Y-80276451D01*
X141731115Y-80416717D01*
X141731110Y-80416724D01*
X141730156Y-80419030D01*
X141729694Y-80419895D01*
X141642565Y-80550293D01*
X141641944Y-80551051D01*
X141531051Y-80661944D01*
X141530293Y-80662565D01*
X141399895Y-80749694D01*
X141399030Y-80750156D01*
X141396724Y-80751110D01*
X141396717Y-80751115D01*
X141256451Y-80809215D01*
X141256443Y-80809217D01*
X141254141Y-80810171D01*
X141253203Y-80810456D01*
X141099389Y-80841052D01*
X141098414Y-80841148D01*
X141095924Y-80841148D01*
X140944076Y-80841148D01*
X140941586Y-80841148D01*
X140940611Y-80841052D01*
X140786797Y-80810456D01*
X140785859Y-80810171D01*
X140783559Y-80809218D01*
X140783548Y-80809215D01*
X140643282Y-80751115D01*
X140643270Y-80751109D01*
X140640970Y-80750156D01*
X140640105Y-80749694D01*
X140570608Y-80703258D01*
X140511785Y-80663954D01*
X140511781Y-80663951D01*
X140509707Y-80662565D01*
X140508949Y-80661944D01*
X140398056Y-80551051D01*
X140397435Y-80550293D01*
X140396049Y-80548219D01*
X140396045Y-80548214D01*
X140311695Y-80421974D01*
X140311694Y-80421972D01*
X140310306Y-80419895D01*
X140309844Y-80419030D01*
X140308892Y-80416732D01*
X140308884Y-80416717D01*
X140250784Y-80276451D01*
X140250778Y-80276434D01*
X140249829Y-80274141D01*
X140249544Y-80273203D01*
X140222418Y-80136835D01*
X140219433Y-80121830D01*
X140219432Y-80121824D01*
X140218948Y-80119389D01*
X140218852Y-80118414D01*
X140218852Y-80044524D01*
X140216464Y-80043536D01*
X140215000Y-80040000D01*
X140215000Y-79440000D01*
X140216464Y-79436464D01*
X140218843Y-79434085D01*
X140218843Y-79400982D01*
X140219224Y-79399069D01*
X140221136Y-79394451D01*
X140221138Y-79394445D01*
X140247171Y-79331595D01*
X140247174Y-79331589D01*
X140249087Y-79326973D01*
X140250170Y-79325350D01*
X140253706Y-79321813D01*
X140253709Y-79321810D01*
X140301810Y-79273709D01*
X140301813Y-79273706D01*
X140305350Y-79270170D01*
X140306973Y-79269087D01*
X140311589Y-79267174D01*
X140311595Y-79267171D01*
X140374445Y-79241138D01*
X140374451Y-79241136D01*
X140379069Y-79239224D01*
X140380982Y-79238843D01*
X140414085Y-79238843D01*
X140416464Y-79236464D01*
X140420000Y-79235000D01*
X141620000Y-79235000D01*
X141623536Y-79236464D01*
G37*
G36*
X154323536Y-79236464D02*
G01*
X154325915Y-79238843D01*
X154354015Y-79238843D01*
X154359018Y-79238843D01*
X154360931Y-79239224D01*
X154365549Y-79241137D01*
X154365554Y-79241138D01*
X154428404Y-79267171D01*
X154428408Y-79267173D01*
X154433027Y-79269087D01*
X154434650Y-79270170D01*
X154489830Y-79325350D01*
X154490913Y-79326973D01*
X154492826Y-79331592D01*
X154492828Y-79331595D01*
X154494105Y-79334679D01*
X154520776Y-79399069D01*
X154521157Y-79400982D01*
X154521157Y-79434085D01*
X154523536Y-79436464D01*
X154525000Y-79440000D01*
X154525000Y-80040000D01*
X154523536Y-80043536D01*
X154521148Y-80044524D01*
X154521148Y-80118414D01*
X154521052Y-80119389D01*
X154490456Y-80273203D01*
X154490171Y-80274141D01*
X154489217Y-80276443D01*
X154489215Y-80276451D01*
X154431115Y-80416717D01*
X154431110Y-80416724D01*
X154430156Y-80419030D01*
X154429694Y-80419895D01*
X154342565Y-80550293D01*
X154341944Y-80551051D01*
X154231051Y-80661944D01*
X154230293Y-80662565D01*
X154099895Y-80749694D01*
X154099030Y-80750156D01*
X154096724Y-80751110D01*
X154096717Y-80751115D01*
X153956451Y-80809215D01*
X153956443Y-80809217D01*
X153954141Y-80810171D01*
X153953203Y-80810456D01*
X153799389Y-80841052D01*
X153798414Y-80841148D01*
X153795924Y-80841148D01*
X153644076Y-80841148D01*
X153641586Y-80841148D01*
X153640611Y-80841052D01*
X153486797Y-80810456D01*
X153485859Y-80810171D01*
X153483559Y-80809218D01*
X153483548Y-80809215D01*
X153343282Y-80751115D01*
X153343270Y-80751109D01*
X153340970Y-80750156D01*
X153340105Y-80749694D01*
X153270608Y-80703258D01*
X153211785Y-80663954D01*
X153211781Y-80663951D01*
X153209707Y-80662565D01*
X153208949Y-80661944D01*
X153098056Y-80551051D01*
X153097435Y-80550293D01*
X153096049Y-80548219D01*
X153096045Y-80548214D01*
X153011695Y-80421974D01*
X153011694Y-80421972D01*
X153010306Y-80419895D01*
X153009844Y-80419030D01*
X153008892Y-80416732D01*
X153008884Y-80416717D01*
X152950784Y-80276451D01*
X152950778Y-80276434D01*
X152949829Y-80274141D01*
X152949544Y-80273203D01*
X152922418Y-80136835D01*
X152919433Y-80121830D01*
X152919432Y-80121824D01*
X152918948Y-80119389D01*
X152918852Y-80118414D01*
X152918852Y-80044524D01*
X152916464Y-80043536D01*
X152915000Y-80040000D01*
X152915000Y-79440000D01*
X152916464Y-79436464D01*
X152918843Y-79434085D01*
X152918843Y-79400982D01*
X152919224Y-79399069D01*
X152921136Y-79394451D01*
X152921138Y-79394445D01*
X152947171Y-79331595D01*
X152947174Y-79331589D01*
X152949087Y-79326973D01*
X152950170Y-79325350D01*
X152953706Y-79321813D01*
X152953709Y-79321810D01*
X153001810Y-79273709D01*
X153001813Y-79273706D01*
X153005350Y-79270170D01*
X153006973Y-79269087D01*
X153011589Y-79267174D01*
X153011595Y-79267171D01*
X153074445Y-79241138D01*
X153074451Y-79241136D01*
X153079069Y-79239224D01*
X153080982Y-79238843D01*
X153114085Y-79238843D01*
X153116464Y-79236464D01*
X153120000Y-79235000D01*
X154320000Y-79235000D01*
X154323536Y-79236464D01*
G37*
G36*
X110772228Y-79274448D02*
G01*
X110917117Y-79334463D01*
X111047515Y-79421592D01*
X111158408Y-79532485D01*
X111245537Y-79662883D01*
X111305552Y-79807772D01*
X111336148Y-79961586D01*
X111336148Y-80118414D01*
X111305552Y-80272228D01*
X111245537Y-80417117D01*
X111158408Y-80547515D01*
X111047515Y-80658408D01*
X110917117Y-80745537D01*
X110772228Y-80805552D01*
X110618414Y-80836148D01*
X110461586Y-80836148D01*
X110307772Y-80805552D01*
X110162883Y-80745537D01*
X110032485Y-80658408D01*
X109921592Y-80547515D01*
X109834463Y-80417117D01*
X109774448Y-80272228D01*
X109743852Y-80118414D01*
X109743852Y-79961586D01*
X109774448Y-79807772D01*
X109834463Y-79662883D01*
X109921592Y-79532485D01*
X110032485Y-79421592D01*
X110162883Y-79334463D01*
X110307772Y-79274448D01*
X110461586Y-79243852D01*
X110618414Y-79243852D01*
X110772228Y-79274448D01*
G37*
G36*
X113312228Y-79274448D02*
G01*
X113457117Y-79334463D01*
X113587515Y-79421592D01*
X113698408Y-79532485D01*
X113785537Y-79662883D01*
X113845552Y-79807772D01*
X113876148Y-79961586D01*
X113876148Y-80118414D01*
X113845552Y-80272228D01*
X113785537Y-80417117D01*
X113698408Y-80547515D01*
X113587515Y-80658408D01*
X113457117Y-80745537D01*
X113312228Y-80805552D01*
X113158414Y-80836148D01*
X113001586Y-80836148D01*
X112847772Y-80805552D01*
X112702883Y-80745537D01*
X112572485Y-80658408D01*
X112461592Y-80547515D01*
X112374463Y-80417117D01*
X112314448Y-80272228D01*
X112283852Y-80118414D01*
X112283852Y-79961586D01*
X112314448Y-79807772D01*
X112374463Y-79662883D01*
X112461592Y-79532485D01*
X112572485Y-79421592D01*
X112702883Y-79334463D01*
X112847772Y-79274448D01*
X113001586Y-79243852D01*
X113158414Y-79243852D01*
X113312228Y-79274448D01*
G37*
G36*
X118392228Y-79274448D02*
G01*
X118537117Y-79334463D01*
X118667515Y-79421592D01*
X118778408Y-79532485D01*
X118865537Y-79662883D01*
X118925552Y-79807772D01*
X118956148Y-79961586D01*
X118956148Y-80118414D01*
X118925552Y-80272228D01*
X118865537Y-80417117D01*
X118778408Y-80547515D01*
X118667515Y-80658408D01*
X118537117Y-80745537D01*
X118392228Y-80805552D01*
X118238414Y-80836148D01*
X118081586Y-80836148D01*
X117927772Y-80805552D01*
X117782883Y-80745537D01*
X117652485Y-80658408D01*
X117541592Y-80547515D01*
X117454463Y-80417117D01*
X117394448Y-80272228D01*
X117363852Y-80118414D01*
X117363852Y-79961586D01*
X117394448Y-79807772D01*
X117454463Y-79662883D01*
X117541592Y-79532485D01*
X117652485Y-79421592D01*
X117782883Y-79334463D01*
X117927772Y-79274448D01*
X118081586Y-79243852D01*
X118238414Y-79243852D01*
X118392228Y-79274448D01*
G37*
G36*
X120932228Y-79274448D02*
G01*
X121077117Y-79334463D01*
X121207515Y-79421592D01*
X121318408Y-79532485D01*
X121405537Y-79662883D01*
X121465552Y-79807772D01*
X121496148Y-79961586D01*
X121496148Y-80118414D01*
X121465552Y-80272228D01*
X121405537Y-80417117D01*
X121318408Y-80547515D01*
X121207515Y-80658408D01*
X121077117Y-80745537D01*
X120932228Y-80805552D01*
X120778414Y-80836148D01*
X120621586Y-80836148D01*
X120467772Y-80805552D01*
X120322883Y-80745537D01*
X120192485Y-80658408D01*
X120081592Y-80547515D01*
X119994463Y-80417117D01*
X119934448Y-80272228D01*
X119903852Y-80118414D01*
X119903852Y-79961586D01*
X119934448Y-79807772D01*
X119994463Y-79662883D01*
X120081592Y-79532485D01*
X120192485Y-79421592D01*
X120322883Y-79334463D01*
X120467772Y-79274448D01*
X120621586Y-79243852D01*
X120778414Y-79243852D01*
X120932228Y-79274448D01*
G37*
G36*
X123472228Y-79274448D02*
G01*
X123617117Y-79334463D01*
X123747515Y-79421592D01*
X123858408Y-79532485D01*
X123945537Y-79662883D01*
X124005552Y-79807772D01*
X124036148Y-79961586D01*
X124036148Y-80118414D01*
X124005552Y-80272228D01*
X123945537Y-80417117D01*
X123858408Y-80547515D01*
X123747515Y-80658408D01*
X123617117Y-80745537D01*
X123472228Y-80805552D01*
X123318414Y-80836148D01*
X123161586Y-80836148D01*
X123007772Y-80805552D01*
X122862883Y-80745537D01*
X122732485Y-80658408D01*
X122621592Y-80547515D01*
X122534463Y-80417117D01*
X122474448Y-80272228D01*
X122443852Y-80118414D01*
X122443852Y-79961586D01*
X122474448Y-79807772D01*
X122534463Y-79662883D01*
X122621592Y-79532485D01*
X122732485Y-79421592D01*
X122862883Y-79334463D01*
X123007772Y-79274448D01*
X123161586Y-79243852D01*
X123318414Y-79243852D01*
X123472228Y-79274448D01*
G37*
G36*
X126012228Y-79274448D02*
G01*
X126157117Y-79334463D01*
X126287515Y-79421592D01*
X126398408Y-79532485D01*
X126485537Y-79662883D01*
X126545552Y-79807772D01*
X126576148Y-79961586D01*
X126576148Y-80118414D01*
X126545552Y-80272228D01*
X126485537Y-80417117D01*
X126398408Y-80547515D01*
X126287515Y-80658408D01*
X126157117Y-80745537D01*
X126012228Y-80805552D01*
X125858414Y-80836148D01*
X125701586Y-80836148D01*
X125547772Y-80805552D01*
X125402883Y-80745537D01*
X125272485Y-80658408D01*
X125161592Y-80547515D01*
X125074463Y-80417117D01*
X125014448Y-80272228D01*
X124983852Y-80118414D01*
X124983852Y-79961586D01*
X125014448Y-79807772D01*
X125074463Y-79662883D01*
X125161592Y-79532485D01*
X125272485Y-79421592D01*
X125402883Y-79334463D01*
X125547772Y-79274448D01*
X125701586Y-79243852D01*
X125858414Y-79243852D01*
X126012228Y-79274448D01*
G37*
G36*
X131092228Y-79274448D02*
G01*
X131237117Y-79334463D01*
X131367515Y-79421592D01*
X131478408Y-79532485D01*
X131565537Y-79662883D01*
X131625552Y-79807772D01*
X131656148Y-79961586D01*
X131656148Y-80118414D01*
X131625552Y-80272228D01*
X131565537Y-80417117D01*
X131478408Y-80547515D01*
X131367515Y-80658408D01*
X131237117Y-80745537D01*
X131092228Y-80805552D01*
X130938414Y-80836148D01*
X130781586Y-80836148D01*
X130627772Y-80805552D01*
X130482883Y-80745537D01*
X130352485Y-80658408D01*
X130241592Y-80547515D01*
X130154463Y-80417117D01*
X130094448Y-80272228D01*
X130063852Y-80118414D01*
X130063852Y-79961586D01*
X130094448Y-79807772D01*
X130154463Y-79662883D01*
X130241592Y-79532485D01*
X130352485Y-79421592D01*
X130482883Y-79334463D01*
X130627772Y-79274448D01*
X130781586Y-79243852D01*
X130938414Y-79243852D01*
X131092228Y-79274448D01*
G37*
G36*
X133632228Y-79274448D02*
G01*
X133777117Y-79334463D01*
X133907515Y-79421592D01*
X134018408Y-79532485D01*
X134105537Y-79662883D01*
X134165552Y-79807772D01*
X134196148Y-79961586D01*
X134196148Y-80118414D01*
X134165552Y-80272228D01*
X134105537Y-80417117D01*
X134018408Y-80547515D01*
X133907515Y-80658408D01*
X133777117Y-80745537D01*
X133632228Y-80805552D01*
X133478414Y-80836148D01*
X133321586Y-80836148D01*
X133167772Y-80805552D01*
X133022883Y-80745537D01*
X132892485Y-80658408D01*
X132781592Y-80547515D01*
X132694463Y-80417117D01*
X132634448Y-80272228D01*
X132603852Y-80118414D01*
X132603852Y-79961586D01*
X132634448Y-79807772D01*
X132694463Y-79662883D01*
X132781592Y-79532485D01*
X132892485Y-79421592D01*
X133022883Y-79334463D01*
X133167772Y-79274448D01*
X133321586Y-79243852D01*
X133478414Y-79243852D01*
X133632228Y-79274448D01*
G37*
G36*
X136172228Y-79274448D02*
G01*
X136317117Y-79334463D01*
X136447515Y-79421592D01*
X136558408Y-79532485D01*
X136645537Y-79662883D01*
X136705552Y-79807772D01*
X136736148Y-79961586D01*
X136736148Y-80118414D01*
X136705552Y-80272228D01*
X136645537Y-80417117D01*
X136558408Y-80547515D01*
X136447515Y-80658408D01*
X136317117Y-80745537D01*
X136172228Y-80805552D01*
X136018414Y-80836148D01*
X135861586Y-80836148D01*
X135707772Y-80805552D01*
X135562883Y-80745537D01*
X135432485Y-80658408D01*
X135321592Y-80547515D01*
X135234463Y-80417117D01*
X135174448Y-80272228D01*
X135143852Y-80118414D01*
X135143852Y-79961586D01*
X135174448Y-79807772D01*
X135234463Y-79662883D01*
X135321592Y-79532485D01*
X135432485Y-79421592D01*
X135562883Y-79334463D01*
X135707772Y-79274448D01*
X135861586Y-79243852D01*
X136018414Y-79243852D01*
X136172228Y-79274448D01*
G37*
G36*
X138712228Y-79274448D02*
G01*
X138857117Y-79334463D01*
X138987515Y-79421592D01*
X139098408Y-79532485D01*
X139185537Y-79662883D01*
X139245552Y-79807772D01*
X139276148Y-79961586D01*
X139276148Y-80118414D01*
X139245552Y-80272228D01*
X139185537Y-80417117D01*
X139098408Y-80547515D01*
X138987515Y-80658408D01*
X138857117Y-80745537D01*
X138712228Y-80805552D01*
X138558414Y-80836148D01*
X138401586Y-80836148D01*
X138247772Y-80805552D01*
X138102883Y-80745537D01*
X137972485Y-80658408D01*
X137861592Y-80547515D01*
X137774463Y-80417117D01*
X137714448Y-80272228D01*
X137683852Y-80118414D01*
X137683852Y-79961586D01*
X137714448Y-79807772D01*
X137774463Y-79662883D01*
X137861592Y-79532485D01*
X137972485Y-79421592D01*
X138102883Y-79334463D01*
X138247772Y-79274448D01*
X138401586Y-79243852D01*
X138558414Y-79243852D01*
X138712228Y-79274448D01*
G37*
G36*
X143792228Y-79274448D02*
G01*
X143937117Y-79334463D01*
X144067515Y-79421592D01*
X144178408Y-79532485D01*
X144265537Y-79662883D01*
X144325552Y-79807772D01*
X144356148Y-79961586D01*
X144356148Y-80118414D01*
X144325552Y-80272228D01*
X144265537Y-80417117D01*
X144178408Y-80547515D01*
X144067515Y-80658408D01*
X143937117Y-80745537D01*
X143792228Y-80805552D01*
X143638414Y-80836148D01*
X143481586Y-80836148D01*
X143327772Y-80805552D01*
X143182883Y-80745537D01*
X143052485Y-80658408D01*
X142941592Y-80547515D01*
X142854463Y-80417117D01*
X142794448Y-80272228D01*
X142763852Y-80118414D01*
X142763852Y-79961586D01*
X142794448Y-79807772D01*
X142854463Y-79662883D01*
X142941592Y-79532485D01*
X143052485Y-79421592D01*
X143182883Y-79334463D01*
X143327772Y-79274448D01*
X143481586Y-79243852D01*
X143638414Y-79243852D01*
X143792228Y-79274448D01*
G37*
G36*
X146332228Y-79274448D02*
G01*
X146477117Y-79334463D01*
X146607515Y-79421592D01*
X146718408Y-79532485D01*
X146805537Y-79662883D01*
X146865552Y-79807772D01*
X146896148Y-79961586D01*
X146896148Y-80118414D01*
X146865552Y-80272228D01*
X146805537Y-80417117D01*
X146718408Y-80547515D01*
X146607515Y-80658408D01*
X146477117Y-80745537D01*
X146332228Y-80805552D01*
X146178414Y-80836148D01*
X146021586Y-80836148D01*
X145867772Y-80805552D01*
X145722883Y-80745537D01*
X145592485Y-80658408D01*
X145481592Y-80547515D01*
X145394463Y-80417117D01*
X145334448Y-80272228D01*
X145303852Y-80118414D01*
X145303852Y-79961586D01*
X145334448Y-79807772D01*
X145394463Y-79662883D01*
X145481592Y-79532485D01*
X145592485Y-79421592D01*
X145722883Y-79334463D01*
X145867772Y-79274448D01*
X146021586Y-79243852D01*
X146178414Y-79243852D01*
X146332228Y-79274448D01*
G37*
G36*
X148872228Y-79274448D02*
G01*
X149017117Y-79334463D01*
X149147515Y-79421592D01*
X149258408Y-79532485D01*
X149345537Y-79662883D01*
X149405552Y-79807772D01*
X149436148Y-79961586D01*
X149436148Y-80118414D01*
X149405552Y-80272228D01*
X149345537Y-80417117D01*
X149258408Y-80547515D01*
X149147515Y-80658408D01*
X149017117Y-80745537D01*
X148872228Y-80805552D01*
X148718414Y-80836148D01*
X148561586Y-80836148D01*
X148407772Y-80805552D01*
X148262883Y-80745537D01*
X148132485Y-80658408D01*
X148021592Y-80547515D01*
X147934463Y-80417117D01*
X147874448Y-80272228D01*
X147843852Y-80118414D01*
X147843852Y-79961586D01*
X147874448Y-79807772D01*
X147934463Y-79662883D01*
X148021592Y-79532485D01*
X148132485Y-79421592D01*
X148262883Y-79334463D01*
X148407772Y-79274448D01*
X148561586Y-79243852D01*
X148718414Y-79243852D01*
X148872228Y-79274448D01*
G37*
G36*
X151412228Y-79274448D02*
G01*
X151557117Y-79334463D01*
X151687515Y-79421592D01*
X151798408Y-79532485D01*
X151885537Y-79662883D01*
X151945552Y-79807772D01*
X151976148Y-79961586D01*
X151976148Y-80118414D01*
X151945552Y-80272228D01*
X151885537Y-80417117D01*
X151798408Y-80547515D01*
X151687515Y-80658408D01*
X151557117Y-80745537D01*
X151412228Y-80805552D01*
X151258414Y-80836148D01*
X151101586Y-80836148D01*
X150947772Y-80805552D01*
X150802883Y-80745537D01*
X150672485Y-80658408D01*
X150561592Y-80547515D01*
X150474463Y-80417117D01*
X150414448Y-80272228D01*
X150383852Y-80118414D01*
X150383852Y-79961586D01*
X150414448Y-79807772D01*
X150474463Y-79662883D01*
X150561592Y-79532485D01*
X150672485Y-79421592D01*
X150802883Y-79334463D01*
X150947772Y-79274448D01*
X151101586Y-79243852D01*
X151258414Y-79243852D01*
X151412228Y-79274448D01*
G37*
G36*
X156492228Y-79274448D02*
G01*
X156637117Y-79334463D01*
X156767515Y-79421592D01*
X156878408Y-79532485D01*
X156965537Y-79662883D01*
X157025552Y-79807772D01*
X157056148Y-79961586D01*
X157056148Y-80118414D01*
X157025552Y-80272228D01*
X156965537Y-80417117D01*
X156878408Y-80547515D01*
X156767515Y-80658408D01*
X156637117Y-80745537D01*
X156492228Y-80805552D01*
X156338414Y-80836148D01*
X156181586Y-80836148D01*
X156027772Y-80805552D01*
X155882883Y-80745537D01*
X155752485Y-80658408D01*
X155641592Y-80547515D01*
X155554463Y-80417117D01*
X155494448Y-80272228D01*
X155463852Y-80118414D01*
X155463852Y-79961586D01*
X155494448Y-79807772D01*
X155554463Y-79662883D01*
X155641592Y-79532485D01*
X155752485Y-79421592D01*
X155882883Y-79334463D01*
X156027772Y-79274448D01*
X156181586Y-79243852D01*
X156338414Y-79243852D01*
X156492228Y-79274448D01*
G37*
G36*
X159032228Y-79274448D02*
G01*
X159177117Y-79334463D01*
X159307515Y-79421592D01*
X159418408Y-79532485D01*
X159505537Y-79662883D01*
X159565552Y-79807772D01*
X159596148Y-79961586D01*
X159596148Y-80118414D01*
X159565552Y-80272228D01*
X159505537Y-80417117D01*
X159418408Y-80547515D01*
X159307515Y-80658408D01*
X159177117Y-80745537D01*
X159032228Y-80805552D01*
X158878414Y-80836148D01*
X158721586Y-80836148D01*
X158567772Y-80805552D01*
X158422883Y-80745537D01*
X158292485Y-80658408D01*
X158181592Y-80547515D01*
X158094463Y-80417117D01*
X158034448Y-80272228D01*
X158003852Y-80118414D01*
X158003852Y-79961586D01*
X158034448Y-79807772D01*
X158094463Y-79662883D01*
X158181592Y-79532485D01*
X158292485Y-79421592D01*
X158422883Y-79334463D01*
X158567772Y-79274448D01*
X158721586Y-79243852D01*
X158878414Y-79243852D01*
X159032228Y-79274448D01*
G37*
G36*
X163350000Y-79260000D02*
G01*
X161650000Y-79260000D01*
X161650000Y-77560000D01*
X163350000Y-77560000D01*
X163350000Y-79260000D01*
G37*
G36*
X80956031Y-76655979D02*
G01*
X81115772Y-76722145D01*
X81259535Y-76818205D01*
X81381795Y-76940465D01*
X81477855Y-77084228D01*
X81544021Y-77243969D01*
X81577753Y-77413549D01*
X81577753Y-77586451D01*
X81544021Y-77756031D01*
X81477855Y-77915772D01*
X81381795Y-78059535D01*
X81259535Y-78181795D01*
X81115772Y-78277855D01*
X80956031Y-78344021D01*
X80786451Y-78377753D01*
X80613549Y-78377753D01*
X80443969Y-78344021D01*
X80284228Y-78277855D01*
X80140465Y-78181795D01*
X80018205Y-78059535D01*
X79922145Y-77915772D01*
X79855979Y-77756031D01*
X79822247Y-77586451D01*
X79822247Y-77413549D01*
X79855979Y-77243969D01*
X79922145Y-77084228D01*
X80018205Y-76940465D01*
X80140465Y-76818205D01*
X80284228Y-76722145D01*
X80443969Y-76655979D01*
X80613549Y-76622247D01*
X80786451Y-76622247D01*
X80956031Y-76655979D01*
G37*
G36*
X93656031Y-76655979D02*
G01*
X93815772Y-76722145D01*
X93959535Y-76818205D01*
X94081795Y-76940465D01*
X94177855Y-77084228D01*
X94244021Y-77243969D01*
X94277753Y-77413549D01*
X94277753Y-77586451D01*
X94244021Y-77756031D01*
X94177855Y-77915772D01*
X94081795Y-78059535D01*
X93959535Y-78181795D01*
X93815772Y-78277855D01*
X93656031Y-78344021D01*
X93486451Y-78377753D01*
X93313549Y-78377753D01*
X93143969Y-78344021D01*
X92984228Y-78277855D01*
X92840465Y-78181795D01*
X92718205Y-78059535D01*
X92622145Y-77915772D01*
X92555979Y-77756031D01*
X92522247Y-77586451D01*
X92522247Y-77413549D01*
X92555979Y-77243969D01*
X92622145Y-77084228D01*
X92718205Y-76940465D01*
X92840465Y-76818205D01*
X92984228Y-76722145D01*
X93143969Y-76655979D01*
X93313549Y-76622247D01*
X93486451Y-76622247D01*
X93656031Y-76655979D01*
G37*
G36*
X71846677Y-74220333D02*
G01*
X72003701Y-74285374D01*
X72145019Y-74379800D01*
X72265200Y-74499981D01*
X72359626Y-74641299D01*
X72424667Y-74798323D01*
X72457825Y-74965019D01*
X72457825Y-75134981D01*
X72424667Y-75301677D01*
X72359626Y-75458701D01*
X72265200Y-75600019D01*
X72145019Y-75720200D01*
X72003701Y-75814626D01*
X71846677Y-75879667D01*
X71679981Y-75912825D01*
X71510019Y-75912825D01*
X71343323Y-75879667D01*
X71186299Y-75814626D01*
X71044981Y-75720200D01*
X70924800Y-75600019D01*
X70830374Y-75458701D01*
X70765333Y-75301677D01*
X70732175Y-75134981D01*
X70732175Y-74965019D01*
X70765333Y-74798323D01*
X70830374Y-74641299D01*
X70924800Y-74499981D01*
X71044981Y-74379800D01*
X71186299Y-74285374D01*
X71343323Y-74220333D01*
X71510019Y-74187175D01*
X71679981Y-74187175D01*
X71846677Y-74220333D01*
G37*
G36*
X80956031Y-74115979D02*
G01*
X81115772Y-74182145D01*
X81259535Y-74278205D01*
X81381795Y-74400465D01*
X81477855Y-74544228D01*
X81544021Y-74703969D01*
X81577753Y-74873549D01*
X81577753Y-75046451D01*
X81544021Y-75216031D01*
X81477855Y-75375772D01*
X81381795Y-75519535D01*
X81259535Y-75641795D01*
X81115772Y-75737855D01*
X80956031Y-75804021D01*
X80786451Y-75837753D01*
X80613549Y-75837753D01*
X80443969Y-75804021D01*
X80284228Y-75737855D01*
X80140465Y-75641795D01*
X80018205Y-75519535D01*
X79922145Y-75375772D01*
X79855979Y-75216031D01*
X79822247Y-75046451D01*
X79822247Y-74873549D01*
X79855979Y-74703969D01*
X79922145Y-74544228D01*
X80018205Y-74400465D01*
X80140465Y-74278205D01*
X80284228Y-74182145D01*
X80443969Y-74115979D01*
X80613549Y-74082247D01*
X80786451Y-74082247D01*
X80956031Y-74115979D01*
G37*
G36*
X93656031Y-74115979D02*
G01*
X93815772Y-74182145D01*
X93959535Y-74278205D01*
X94081795Y-74400465D01*
X94177855Y-74544228D01*
X94244021Y-74703969D01*
X94277753Y-74873549D01*
X94277753Y-75046451D01*
X94244021Y-75216031D01*
X94177855Y-75375772D01*
X94081795Y-75519535D01*
X93959535Y-75641795D01*
X93815772Y-75737855D01*
X93656031Y-75804021D01*
X93486451Y-75837753D01*
X93313549Y-75837753D01*
X93143969Y-75804021D01*
X92984228Y-75737855D01*
X92840465Y-75641795D01*
X92718205Y-75519535D01*
X92622145Y-75375772D01*
X92555979Y-75216031D01*
X92522247Y-75046451D01*
X92522247Y-74873549D01*
X92555979Y-74703969D01*
X92622145Y-74544228D01*
X92718205Y-74400465D01*
X92840465Y-74278205D01*
X92984228Y-74182145D01*
X93143969Y-74115979D01*
X93313549Y-74082247D01*
X93486451Y-74082247D01*
X93656031Y-74115979D01*
G37*
G36*
X71846677Y-71680333D02*
G01*
X72003701Y-71745374D01*
X72145019Y-71839800D01*
X72265200Y-71959981D01*
X72359626Y-72101299D01*
X72424667Y-72258323D01*
X72457825Y-72425019D01*
X72457825Y-72594981D01*
X72424667Y-72761677D01*
X72359626Y-72918701D01*
X72265200Y-73060019D01*
X72145019Y-73180200D01*
X72003701Y-73274626D01*
X71846677Y-73339667D01*
X71679981Y-73372825D01*
X71510019Y-73372825D01*
X71343323Y-73339667D01*
X71186299Y-73274626D01*
X71044981Y-73180200D01*
X70924800Y-73060019D01*
X70830374Y-72918701D01*
X70765333Y-72761677D01*
X70732175Y-72594981D01*
X70732175Y-72425019D01*
X70765333Y-72258323D01*
X70830374Y-72101299D01*
X70924800Y-71959981D01*
X71044981Y-71839800D01*
X71186299Y-71745374D01*
X71343323Y-71680333D01*
X71510019Y-71647175D01*
X71679981Y-71647175D01*
X71846677Y-71680333D01*
G37*
G36*
X80956031Y-71575979D02*
G01*
X81115772Y-71642145D01*
X81259535Y-71738205D01*
X81381795Y-71860465D01*
X81477855Y-72004228D01*
X81544021Y-72163969D01*
X81577753Y-72333549D01*
X81577753Y-72506451D01*
X81544021Y-72676031D01*
X81477855Y-72835772D01*
X81381795Y-72979535D01*
X81259535Y-73101795D01*
X81115772Y-73197855D01*
X80956031Y-73264021D01*
X80786451Y-73297753D01*
X80613549Y-73297753D01*
X80443969Y-73264021D01*
X80284228Y-73197855D01*
X80140465Y-73101795D01*
X80018205Y-72979535D01*
X79922145Y-72835772D01*
X79855979Y-72676031D01*
X79822247Y-72506451D01*
X79822247Y-72333549D01*
X79855979Y-72163969D01*
X79922145Y-72004228D01*
X80018205Y-71860465D01*
X80140465Y-71738205D01*
X80284228Y-71642145D01*
X80443969Y-71575979D01*
X80613549Y-71542247D01*
X80786451Y-71542247D01*
X80956031Y-71575979D01*
G37*
G36*
X93656031Y-71575979D02*
G01*
X93815772Y-71642145D01*
X93959535Y-71738205D01*
X94081795Y-71860465D01*
X94177855Y-72004228D01*
X94244021Y-72163969D01*
X94277753Y-72333549D01*
X94277753Y-72506451D01*
X94244021Y-72676031D01*
X94177855Y-72835772D01*
X94081795Y-72979535D01*
X93959535Y-73101795D01*
X93815772Y-73197855D01*
X93656031Y-73264021D01*
X93486451Y-73297753D01*
X93313549Y-73297753D01*
X93143969Y-73264021D01*
X92984228Y-73197855D01*
X92840465Y-73101795D01*
X92718205Y-72979535D01*
X92622145Y-72835772D01*
X92555979Y-72676031D01*
X92522247Y-72506451D01*
X92522247Y-72333549D01*
X92555979Y-72163969D01*
X92622145Y-72004228D01*
X92718205Y-71860465D01*
X92840465Y-71738205D01*
X92984228Y-71642145D01*
X93143969Y-71575979D01*
X93313549Y-71542247D01*
X93486451Y-71542247D01*
X93656031Y-71575979D01*
G37*
G36*
X71846677Y-69140333D02*
G01*
X72003701Y-69205374D01*
X72145019Y-69299800D01*
X72265200Y-69419981D01*
X72359626Y-69561299D01*
X72424667Y-69718323D01*
X72457825Y-69885019D01*
X72457825Y-70054981D01*
X72424667Y-70221677D01*
X72359626Y-70378701D01*
X72265200Y-70520019D01*
X72145019Y-70640200D01*
X72003701Y-70734626D01*
X71846677Y-70799667D01*
X71679981Y-70832825D01*
X71510019Y-70832825D01*
X71343323Y-70799667D01*
X71186299Y-70734626D01*
X71044981Y-70640200D01*
X70924800Y-70520019D01*
X70830374Y-70378701D01*
X70765333Y-70221677D01*
X70732175Y-70054981D01*
X70732175Y-69885019D01*
X70765333Y-69718323D01*
X70830374Y-69561299D01*
X70924800Y-69419981D01*
X71044981Y-69299800D01*
X71186299Y-69205374D01*
X71343323Y-69140333D01*
X71510019Y-69107175D01*
X71679981Y-69107175D01*
X71846677Y-69140333D01*
G37*
G36*
X80956031Y-69035979D02*
G01*
X81115772Y-69102145D01*
X81259535Y-69198205D01*
X81381795Y-69320465D01*
X81477855Y-69464228D01*
X81544021Y-69623969D01*
X81577753Y-69793549D01*
X81577753Y-69966451D01*
X81544021Y-70136031D01*
X81477855Y-70295772D01*
X81381795Y-70439535D01*
X81259535Y-70561795D01*
X81115772Y-70657855D01*
X80956031Y-70724021D01*
X80786451Y-70757753D01*
X80613549Y-70757753D01*
X80443969Y-70724021D01*
X80284228Y-70657855D01*
X80140465Y-70561795D01*
X80018205Y-70439535D01*
X79922145Y-70295772D01*
X79855979Y-70136031D01*
X79822247Y-69966451D01*
X79822247Y-69793549D01*
X79855979Y-69623969D01*
X79922145Y-69464228D01*
X80018205Y-69320465D01*
X80140465Y-69198205D01*
X80284228Y-69102145D01*
X80443969Y-69035979D01*
X80613549Y-69002247D01*
X80786451Y-69002247D01*
X80956031Y-69035979D01*
G37*
G36*
X93656031Y-69035979D02*
G01*
X93815772Y-69102145D01*
X93959535Y-69198205D01*
X94081795Y-69320465D01*
X94177855Y-69464228D01*
X94244021Y-69623969D01*
X94277753Y-69793549D01*
X94277753Y-69966451D01*
X94244021Y-70136031D01*
X94177855Y-70295772D01*
X94081795Y-70439535D01*
X93959535Y-70561795D01*
X93815772Y-70657855D01*
X93656031Y-70724021D01*
X93486451Y-70757753D01*
X93313549Y-70757753D01*
X93143969Y-70724021D01*
X92984228Y-70657855D01*
X92840465Y-70561795D01*
X92718205Y-70439535D01*
X92622145Y-70295772D01*
X92555979Y-70136031D01*
X92522247Y-69966451D01*
X92522247Y-69793549D01*
X92555979Y-69623969D01*
X92622145Y-69464228D01*
X92718205Y-69320465D01*
X92840465Y-69198205D01*
X92984228Y-69102145D01*
X93143969Y-69035979D01*
X93313549Y-69002247D01*
X93486451Y-69002247D01*
X93656031Y-69035979D01*
G37*
G36*
X71846677Y-66600333D02*
G01*
X72003701Y-66665374D01*
X72145019Y-66759800D01*
X72265200Y-66879981D01*
X72359626Y-67021299D01*
X72424667Y-67178323D01*
X72457825Y-67345019D01*
X72457825Y-67514981D01*
X72424667Y-67681677D01*
X72359626Y-67838701D01*
X72265200Y-67980019D01*
X72145019Y-68100200D01*
X72003701Y-68194626D01*
X71846677Y-68259667D01*
X71679981Y-68292825D01*
X71510019Y-68292825D01*
X71343323Y-68259667D01*
X71186299Y-68194626D01*
X71044981Y-68100200D01*
X70924800Y-67980019D01*
X70830374Y-67838701D01*
X70765333Y-67681677D01*
X70732175Y-67514981D01*
X70732175Y-67345019D01*
X70765333Y-67178323D01*
X70830374Y-67021299D01*
X70924800Y-66879981D01*
X71044981Y-66759800D01*
X71186299Y-66665374D01*
X71343323Y-66600333D01*
X71510019Y-66567175D01*
X71679981Y-66567175D01*
X71846677Y-66600333D01*
G37*
G36*
X80956031Y-66495979D02*
G01*
X81115772Y-66562145D01*
X81259535Y-66658205D01*
X81381795Y-66780465D01*
X81477855Y-66924228D01*
X81544021Y-67083969D01*
X81577753Y-67253549D01*
X81577753Y-67426451D01*
X81544021Y-67596031D01*
X81477855Y-67755772D01*
X81381795Y-67899535D01*
X81259535Y-68021795D01*
X81115772Y-68117855D01*
X80956031Y-68184021D01*
X80786451Y-68217753D01*
X80613549Y-68217753D01*
X80443969Y-68184021D01*
X80284228Y-68117855D01*
X80140465Y-68021795D01*
X80018205Y-67899535D01*
X79922145Y-67755772D01*
X79855979Y-67596031D01*
X79822247Y-67426451D01*
X79822247Y-67253549D01*
X79855979Y-67083969D01*
X79922145Y-66924228D01*
X80018205Y-66780465D01*
X80140465Y-66658205D01*
X80284228Y-66562145D01*
X80443969Y-66495979D01*
X80613549Y-66462247D01*
X80786451Y-66462247D01*
X80956031Y-66495979D01*
G37*
G36*
X93656031Y-66495979D02*
G01*
X93815772Y-66562145D01*
X93959535Y-66658205D01*
X94081795Y-66780465D01*
X94177855Y-66924228D01*
X94244021Y-67083969D01*
X94277753Y-67253549D01*
X94277753Y-67426451D01*
X94244021Y-67596031D01*
X94177855Y-67755772D01*
X94081795Y-67899535D01*
X93959535Y-68021795D01*
X93815772Y-68117855D01*
X93656031Y-68184021D01*
X93486451Y-68217753D01*
X93313549Y-68217753D01*
X93143969Y-68184021D01*
X92984228Y-68117855D01*
X92840465Y-68021795D01*
X92718205Y-67899535D01*
X92622145Y-67755772D01*
X92555979Y-67596031D01*
X92522247Y-67426451D01*
X92522247Y-67253549D01*
X92555979Y-67083969D01*
X92622145Y-66924228D01*
X92718205Y-66780465D01*
X92840465Y-66658205D01*
X92984228Y-66562145D01*
X93143969Y-66495979D01*
X93313549Y-66462247D01*
X93486451Y-66462247D01*
X93656031Y-66495979D01*
G37*
G36*
X80956031Y-63955979D02*
G01*
X81115772Y-64022145D01*
X81259535Y-64118205D01*
X81381795Y-64240465D01*
X81477855Y-64384228D01*
X81544021Y-64543969D01*
X81577753Y-64713549D01*
X81577753Y-64886451D01*
X81544021Y-65056031D01*
X81477855Y-65215772D01*
X81381795Y-65359535D01*
X81259535Y-65481795D01*
X81115772Y-65577855D01*
X80956031Y-65644021D01*
X80786451Y-65677753D01*
X80613549Y-65677753D01*
X80443969Y-65644021D01*
X80284228Y-65577855D01*
X80140465Y-65481795D01*
X80018205Y-65359535D01*
X79922145Y-65215772D01*
X79855979Y-65056031D01*
X79822247Y-64886451D01*
X79822247Y-64713549D01*
X79855979Y-64543969D01*
X79922145Y-64384228D01*
X80018205Y-64240465D01*
X80140465Y-64118205D01*
X80284228Y-64022145D01*
X80443969Y-63955979D01*
X80613549Y-63922247D01*
X80786451Y-63922247D01*
X80956031Y-63955979D01*
G37*
G36*
X93656031Y-63955979D02*
G01*
X93815772Y-64022145D01*
X93959535Y-64118205D01*
X94081795Y-64240465D01*
X94177855Y-64384228D01*
X94244021Y-64543969D01*
X94277753Y-64713549D01*
X94277753Y-64886451D01*
X94244021Y-65056031D01*
X94177855Y-65215772D01*
X94081795Y-65359535D01*
X93959535Y-65481795D01*
X93815772Y-65577855D01*
X93656031Y-65644021D01*
X93486451Y-65677753D01*
X93313549Y-65677753D01*
X93143969Y-65644021D01*
X92984228Y-65577855D01*
X92840465Y-65481795D01*
X92718205Y-65359535D01*
X92622145Y-65215772D01*
X92555979Y-65056031D01*
X92522247Y-64886451D01*
X92522247Y-64713549D01*
X92555979Y-64543969D01*
X92622145Y-64384228D01*
X92718205Y-64240465D01*
X92840465Y-64118205D01*
X92984228Y-64022145D01*
X93143969Y-63955979D01*
X93313549Y-63922247D01*
X93486451Y-63922247D01*
X93656031Y-63955979D01*
G37*
G36*
X81519034Y-61385764D02*
G01*
X81552125Y-61407875D01*
X81574236Y-61440966D01*
X81582000Y-61480000D01*
X81582000Y-63040000D01*
X81574236Y-63079034D01*
X81552125Y-63112125D01*
X81519034Y-63134236D01*
X81480000Y-63142000D01*
X79920000Y-63142000D01*
X79880966Y-63134236D01*
X79847875Y-63112125D01*
X79825764Y-63079034D01*
X79818000Y-63040000D01*
X79818000Y-61480000D01*
X79825764Y-61440966D01*
X79847875Y-61407875D01*
X79880966Y-61385764D01*
X79920000Y-61378000D01*
X81480000Y-61378000D01*
X81519034Y-61385764D01*
G37*
G36*
X93656031Y-61415979D02*
G01*
X93815772Y-61482145D01*
X93959535Y-61578205D01*
X94081795Y-61700465D01*
X94177855Y-61844228D01*
X94244021Y-62003969D01*
X94277753Y-62173549D01*
X94277753Y-62346451D01*
X94244021Y-62516031D01*
X94177855Y-62675772D01*
X94081795Y-62819535D01*
X93959535Y-62941795D01*
X93815772Y-63037855D01*
X93656031Y-63104021D01*
X93486451Y-63137753D01*
X93313549Y-63137753D01*
X93143969Y-63104021D01*
X92984228Y-63037855D01*
X92840465Y-62941795D01*
X92718205Y-62819535D01*
X92622145Y-62675772D01*
X92555979Y-62516031D01*
X92522247Y-62346451D01*
X92522247Y-62173549D01*
X92555979Y-62003969D01*
X92622145Y-61844228D01*
X92718205Y-61700465D01*
X92840465Y-61578205D01*
X92984228Y-61482145D01*
X93143969Y-61415979D01*
X93313549Y-61382247D01*
X93486451Y-61382247D01*
X93656031Y-61415979D01*
G37*
G36*
X115699389Y-61458948D02*
G01*
X115701824Y-61459432D01*
X115701830Y-61459433D01*
X115805223Y-61480000D01*
X115853203Y-61489544D01*
X115854141Y-61489829D01*
X115856434Y-61490778D01*
X115856451Y-61490784D01*
X115996717Y-61548884D01*
X115996732Y-61548892D01*
X115999030Y-61549844D01*
X115999895Y-61550306D01*
X116001972Y-61551694D01*
X116001974Y-61551695D01*
X116128214Y-61636045D01*
X116128219Y-61636049D01*
X116130293Y-61637435D01*
X116131051Y-61638056D01*
X116241944Y-61748949D01*
X116242565Y-61749707D01*
X116243951Y-61751781D01*
X116243954Y-61751785D01*
X116305722Y-61844228D01*
X116329694Y-61880105D01*
X116330156Y-61880970D01*
X116331109Y-61883270D01*
X116331115Y-61883282D01*
X116389215Y-62023548D01*
X116389218Y-62023559D01*
X116390171Y-62025859D01*
X116390456Y-62026797D01*
X116421052Y-62180611D01*
X116421148Y-62181586D01*
X116421148Y-62255475D01*
X116423536Y-62256464D01*
X116425000Y-62260000D01*
X116425000Y-62860000D01*
X116423536Y-62863536D01*
X116421157Y-62865915D01*
X116421157Y-62899018D01*
X116420776Y-62900931D01*
X116418860Y-62905554D01*
X116418861Y-62905554D01*
X116394016Y-62965537D01*
X116390913Y-62973027D01*
X116389830Y-62974650D01*
X116334650Y-63029830D01*
X116333027Y-63030913D01*
X116328404Y-63032827D01*
X116328404Y-63032828D01*
X116311089Y-63040000D01*
X116260931Y-63060776D01*
X116259018Y-63061157D01*
X116225915Y-63061157D01*
X116223536Y-63063536D01*
X116220000Y-63065000D01*
X116209896Y-63065000D01*
X115030104Y-63065000D01*
X115020000Y-63065000D01*
X115016464Y-63063536D01*
X115014085Y-63061157D01*
X114985985Y-63061157D01*
X114980982Y-63061157D01*
X114979069Y-63060776D01*
X114974446Y-63058861D01*
X114974445Y-63058861D01*
X114911595Y-63032828D01*
X114911592Y-63032826D01*
X114906973Y-63030913D01*
X114905350Y-63029830D01*
X114850170Y-62974650D01*
X114849087Y-62973027D01*
X114847173Y-62968408D01*
X114847171Y-62968404D01*
X114821138Y-62905554D01*
X114821137Y-62905549D01*
X114819224Y-62900931D01*
X114818843Y-62899018D01*
X114818843Y-62865915D01*
X114816464Y-62863536D01*
X114815000Y-62860000D01*
X114815000Y-62260000D01*
X114816464Y-62256464D01*
X114818852Y-62255475D01*
X114818852Y-62181586D01*
X114818948Y-62180611D01*
X114819432Y-62178176D01*
X114819433Y-62178169D01*
X114849057Y-62029245D01*
X114849057Y-62029244D01*
X114849544Y-62026797D01*
X114849829Y-62025859D01*
X114850777Y-62023568D01*
X114850784Y-62023548D01*
X114908884Y-61883282D01*
X114908894Y-61883262D01*
X114909844Y-61880970D01*
X114910306Y-61880105D01*
X114911691Y-61878031D01*
X114911695Y-61878025D01*
X114996045Y-61751785D01*
X114996053Y-61751774D01*
X114997435Y-61749707D01*
X114998056Y-61748949D01*
X114999822Y-61747182D01*
X114999827Y-61747177D01*
X115107177Y-61639827D01*
X115107182Y-61639822D01*
X115108949Y-61638056D01*
X115109707Y-61637435D01*
X115111774Y-61636053D01*
X115111785Y-61636045D01*
X115238025Y-61551695D01*
X115238031Y-61551691D01*
X115240105Y-61550306D01*
X115240970Y-61549844D01*
X115243262Y-61548894D01*
X115243282Y-61548884D01*
X115383548Y-61490784D01*
X115383568Y-61490777D01*
X115385859Y-61489829D01*
X115386797Y-61489544D01*
X115389245Y-61489057D01*
X115538169Y-61459433D01*
X115538176Y-61459432D01*
X115540611Y-61458948D01*
X115541586Y-61458852D01*
X115698414Y-61458852D01*
X115699389Y-61458948D01*
G37*
G36*
X128399389Y-61458948D02*
G01*
X128401824Y-61459432D01*
X128401830Y-61459433D01*
X128505223Y-61480000D01*
X128553203Y-61489544D01*
X128554141Y-61489829D01*
X128556434Y-61490778D01*
X128556451Y-61490784D01*
X128696717Y-61548884D01*
X128696732Y-61548892D01*
X128699030Y-61549844D01*
X128699895Y-61550306D01*
X128701972Y-61551694D01*
X128701974Y-61551695D01*
X128828214Y-61636045D01*
X128828219Y-61636049D01*
X128830293Y-61637435D01*
X128831051Y-61638056D01*
X128941944Y-61748949D01*
X128942565Y-61749707D01*
X128943951Y-61751781D01*
X128943954Y-61751785D01*
X129005722Y-61844228D01*
X129029694Y-61880105D01*
X129030156Y-61880970D01*
X129031109Y-61883270D01*
X129031115Y-61883282D01*
X129089215Y-62023548D01*
X129089218Y-62023559D01*
X129090171Y-62025859D01*
X129090456Y-62026797D01*
X129121052Y-62180611D01*
X129121148Y-62181586D01*
X129121148Y-62255475D01*
X129123536Y-62256464D01*
X129125000Y-62260000D01*
X129125000Y-62860000D01*
X129123536Y-62863536D01*
X129121157Y-62865915D01*
X129121157Y-62899018D01*
X129120776Y-62900931D01*
X129118860Y-62905554D01*
X129118861Y-62905554D01*
X129094016Y-62965537D01*
X129090913Y-62973027D01*
X129089830Y-62974650D01*
X129034650Y-63029830D01*
X129033027Y-63030913D01*
X129028404Y-63032827D01*
X129028404Y-63032828D01*
X129011089Y-63040000D01*
X128960931Y-63060776D01*
X128959018Y-63061157D01*
X128925915Y-63061157D01*
X128923536Y-63063536D01*
X128920000Y-63065000D01*
X128909896Y-63065000D01*
X127730104Y-63065000D01*
X127720000Y-63065000D01*
X127716464Y-63063536D01*
X127714085Y-63061157D01*
X127685985Y-63061157D01*
X127680982Y-63061157D01*
X127679069Y-63060776D01*
X127674446Y-63058861D01*
X127674445Y-63058861D01*
X127611595Y-63032828D01*
X127611592Y-63032826D01*
X127606973Y-63030913D01*
X127605350Y-63029830D01*
X127550170Y-62974650D01*
X127549087Y-62973027D01*
X127547173Y-62968408D01*
X127547171Y-62968404D01*
X127521138Y-62905554D01*
X127521137Y-62905549D01*
X127519224Y-62900931D01*
X127518843Y-62899018D01*
X127518843Y-62865915D01*
X127516464Y-62863536D01*
X127515000Y-62860000D01*
X127515000Y-62260000D01*
X127516464Y-62256464D01*
X127518852Y-62255475D01*
X127518852Y-62181586D01*
X127518948Y-62180611D01*
X127519432Y-62178176D01*
X127519433Y-62178169D01*
X127549057Y-62029245D01*
X127549057Y-62029244D01*
X127549544Y-62026797D01*
X127549829Y-62025859D01*
X127550777Y-62023568D01*
X127550784Y-62023548D01*
X127608884Y-61883282D01*
X127608894Y-61883262D01*
X127609844Y-61880970D01*
X127610306Y-61880105D01*
X127611691Y-61878031D01*
X127611695Y-61878025D01*
X127696045Y-61751785D01*
X127696053Y-61751774D01*
X127697435Y-61749707D01*
X127698056Y-61748949D01*
X127699822Y-61747182D01*
X127699827Y-61747177D01*
X127807177Y-61639827D01*
X127807182Y-61639822D01*
X127808949Y-61638056D01*
X127809707Y-61637435D01*
X127811774Y-61636053D01*
X127811785Y-61636045D01*
X127938025Y-61551695D01*
X127938031Y-61551691D01*
X127940105Y-61550306D01*
X127940970Y-61549844D01*
X127943262Y-61548894D01*
X127943282Y-61548884D01*
X128083548Y-61490784D01*
X128083568Y-61490777D01*
X128085859Y-61489829D01*
X128086797Y-61489544D01*
X128089245Y-61489057D01*
X128238169Y-61459433D01*
X128238176Y-61459432D01*
X128240611Y-61458948D01*
X128241586Y-61458852D01*
X128398414Y-61458852D01*
X128399389Y-61458948D01*
G37*
G36*
X141099389Y-61458948D02*
G01*
X141101824Y-61459432D01*
X141101830Y-61459433D01*
X141205223Y-61480000D01*
X141253203Y-61489544D01*
X141254141Y-61489829D01*
X141256434Y-61490778D01*
X141256451Y-61490784D01*
X141396717Y-61548884D01*
X141396732Y-61548892D01*
X141399030Y-61549844D01*
X141399895Y-61550306D01*
X141401972Y-61551694D01*
X141401974Y-61551695D01*
X141528214Y-61636045D01*
X141528219Y-61636049D01*
X141530293Y-61637435D01*
X141531051Y-61638056D01*
X141641944Y-61748949D01*
X141642565Y-61749707D01*
X141643951Y-61751781D01*
X141643954Y-61751785D01*
X141705722Y-61844228D01*
X141729694Y-61880105D01*
X141730156Y-61880970D01*
X141731109Y-61883270D01*
X141731115Y-61883282D01*
X141789215Y-62023548D01*
X141789218Y-62023559D01*
X141790171Y-62025859D01*
X141790456Y-62026797D01*
X141821052Y-62180611D01*
X141821148Y-62181586D01*
X141821148Y-62255475D01*
X141823536Y-62256464D01*
X141825000Y-62260000D01*
X141825000Y-62860000D01*
X141823536Y-62863536D01*
X141821157Y-62865915D01*
X141821157Y-62899018D01*
X141820776Y-62900931D01*
X141818860Y-62905554D01*
X141818861Y-62905554D01*
X141794016Y-62965537D01*
X141790913Y-62973027D01*
X141789830Y-62974650D01*
X141734650Y-63029830D01*
X141733027Y-63030913D01*
X141728404Y-63032827D01*
X141728404Y-63032828D01*
X141711089Y-63040000D01*
X141660931Y-63060776D01*
X141659018Y-63061157D01*
X141625915Y-63061157D01*
X141623536Y-63063536D01*
X141620000Y-63065000D01*
X141609896Y-63065000D01*
X140430104Y-63065000D01*
X140420000Y-63065000D01*
X140416464Y-63063536D01*
X140414085Y-63061157D01*
X140385985Y-63061157D01*
X140380982Y-63061157D01*
X140379069Y-63060776D01*
X140374446Y-63058861D01*
X140374445Y-63058861D01*
X140311595Y-63032828D01*
X140311592Y-63032826D01*
X140306973Y-63030913D01*
X140305350Y-63029830D01*
X140250170Y-62974650D01*
X140249087Y-62973027D01*
X140247173Y-62968408D01*
X140247171Y-62968404D01*
X140221138Y-62905554D01*
X140221137Y-62905549D01*
X140219224Y-62900931D01*
X140218843Y-62899018D01*
X140218843Y-62865915D01*
X140216464Y-62863536D01*
X140215000Y-62860000D01*
X140215000Y-62260000D01*
X140216464Y-62256464D01*
X140218852Y-62255475D01*
X140218852Y-62181586D01*
X140218948Y-62180611D01*
X140219432Y-62178176D01*
X140219433Y-62178169D01*
X140249057Y-62029245D01*
X140249057Y-62029244D01*
X140249544Y-62026797D01*
X140249829Y-62025859D01*
X140250777Y-62023568D01*
X140250784Y-62023548D01*
X140308884Y-61883282D01*
X140308894Y-61883262D01*
X140309844Y-61880970D01*
X140310306Y-61880105D01*
X140311691Y-61878031D01*
X140311695Y-61878025D01*
X140396045Y-61751785D01*
X140396053Y-61751774D01*
X140397435Y-61749707D01*
X140398056Y-61748949D01*
X140399822Y-61747182D01*
X140399827Y-61747177D01*
X140507177Y-61639827D01*
X140507182Y-61639822D01*
X140508949Y-61638056D01*
X140509707Y-61637435D01*
X140511774Y-61636053D01*
X140511785Y-61636045D01*
X140638025Y-61551695D01*
X140638031Y-61551691D01*
X140640105Y-61550306D01*
X140640970Y-61549844D01*
X140643262Y-61548894D01*
X140643282Y-61548884D01*
X140783548Y-61490784D01*
X140783568Y-61490777D01*
X140785859Y-61489829D01*
X140786797Y-61489544D01*
X140789245Y-61489057D01*
X140938169Y-61459433D01*
X140938176Y-61459432D01*
X140940611Y-61458948D01*
X140941586Y-61458852D01*
X141098414Y-61458852D01*
X141099389Y-61458948D01*
G37*
G36*
X153799389Y-61458948D02*
G01*
X153801824Y-61459432D01*
X153801830Y-61459433D01*
X153905223Y-61480000D01*
X153953203Y-61489544D01*
X153954141Y-61489829D01*
X153956434Y-61490778D01*
X153956451Y-61490784D01*
X154096717Y-61548884D01*
X154096732Y-61548892D01*
X154099030Y-61549844D01*
X154099895Y-61550306D01*
X154101972Y-61551694D01*
X154101974Y-61551695D01*
X154228214Y-61636045D01*
X154228219Y-61636049D01*
X154230293Y-61637435D01*
X154231051Y-61638056D01*
X154341944Y-61748949D01*
X154342565Y-61749707D01*
X154343951Y-61751781D01*
X154343954Y-61751785D01*
X154405722Y-61844228D01*
X154429694Y-61880105D01*
X154430156Y-61880970D01*
X154431109Y-61883270D01*
X154431115Y-61883282D01*
X154489215Y-62023548D01*
X154489218Y-62023559D01*
X154490171Y-62025859D01*
X154490456Y-62026797D01*
X154521052Y-62180611D01*
X154521148Y-62181586D01*
X154521148Y-62255475D01*
X154523536Y-62256464D01*
X154525000Y-62260000D01*
X154525000Y-62860000D01*
X154523536Y-62863536D01*
X154521157Y-62865915D01*
X154521157Y-62899018D01*
X154520776Y-62900931D01*
X154518860Y-62905554D01*
X154518861Y-62905554D01*
X154494016Y-62965537D01*
X154490913Y-62973027D01*
X154489830Y-62974650D01*
X154434650Y-63029830D01*
X154433027Y-63030913D01*
X154428404Y-63032827D01*
X154428404Y-63032828D01*
X154411089Y-63040000D01*
X154360931Y-63060776D01*
X154359018Y-63061157D01*
X154325915Y-63061157D01*
X154323536Y-63063536D01*
X154320000Y-63065000D01*
X154309896Y-63065000D01*
X153130104Y-63065000D01*
X153120000Y-63065000D01*
X153116464Y-63063536D01*
X153114085Y-63061157D01*
X153085985Y-63061157D01*
X153080982Y-63061157D01*
X153079069Y-63060776D01*
X153074446Y-63058861D01*
X153074445Y-63058861D01*
X153011595Y-63032828D01*
X153011592Y-63032826D01*
X153006973Y-63030913D01*
X153005350Y-63029830D01*
X152950170Y-62974650D01*
X152949087Y-62973027D01*
X152947173Y-62968408D01*
X152947171Y-62968404D01*
X152921138Y-62905554D01*
X152921137Y-62905549D01*
X152919224Y-62900931D01*
X152918843Y-62899018D01*
X152918843Y-62865915D01*
X152916464Y-62863536D01*
X152915000Y-62860000D01*
X152915000Y-62260000D01*
X152916464Y-62256464D01*
X152918852Y-62255475D01*
X152918852Y-62181586D01*
X152918948Y-62180611D01*
X152919432Y-62178176D01*
X152919433Y-62178169D01*
X152949057Y-62029245D01*
X152949057Y-62029244D01*
X152949544Y-62026797D01*
X152949829Y-62025859D01*
X152950777Y-62023568D01*
X152950784Y-62023548D01*
X153008884Y-61883282D01*
X153008894Y-61883262D01*
X153009844Y-61880970D01*
X153010306Y-61880105D01*
X153011691Y-61878031D01*
X153011695Y-61878025D01*
X153096045Y-61751785D01*
X153096053Y-61751774D01*
X153097435Y-61749707D01*
X153098056Y-61748949D01*
X153099822Y-61747182D01*
X153099827Y-61747177D01*
X153207177Y-61639827D01*
X153207182Y-61639822D01*
X153208949Y-61638056D01*
X153209707Y-61637435D01*
X153211774Y-61636053D01*
X153211785Y-61636045D01*
X153338025Y-61551695D01*
X153338031Y-61551691D01*
X153340105Y-61550306D01*
X153340970Y-61549844D01*
X153343262Y-61548894D01*
X153343282Y-61548884D01*
X153483548Y-61490784D01*
X153483568Y-61490777D01*
X153485859Y-61489829D01*
X153486797Y-61489544D01*
X153489245Y-61489057D01*
X153638169Y-61459433D01*
X153638176Y-61459432D01*
X153640611Y-61458948D01*
X153641586Y-61458852D01*
X153798414Y-61458852D01*
X153799389Y-61458948D01*
G37*
G36*
X159476537Y-61475224D02*
G01*
X159541421Y-61518579D01*
X159584776Y-61583463D01*
X159600000Y-61660000D01*
X159600000Y-62860000D01*
X159584776Y-62936537D01*
X159541421Y-63001421D01*
X159476537Y-63044776D01*
X159400000Y-63060000D01*
X158200000Y-63060000D01*
X158123463Y-63044776D01*
X158058579Y-63001421D01*
X158015224Y-62936537D01*
X158000000Y-62860000D01*
X158000000Y-61660000D01*
X158015224Y-61583463D01*
X158058579Y-61518579D01*
X158123463Y-61475224D01*
X158200000Y-61460000D01*
X159400000Y-61460000D01*
X159476537Y-61475224D01*
G37*
G36*
X110772228Y-61494448D02*
G01*
X110917117Y-61554463D01*
X111047515Y-61641592D01*
X111158408Y-61752485D01*
X111245537Y-61882883D01*
X111305552Y-62027772D01*
X111336148Y-62181586D01*
X111336148Y-62338414D01*
X111305552Y-62492228D01*
X111245537Y-62637117D01*
X111158408Y-62767515D01*
X111047515Y-62878408D01*
X110917117Y-62965537D01*
X110772228Y-63025552D01*
X110618414Y-63056148D01*
X110461586Y-63056148D01*
X110307772Y-63025552D01*
X110162883Y-62965537D01*
X110032485Y-62878408D01*
X109921592Y-62767515D01*
X109834463Y-62637117D01*
X109774448Y-62492228D01*
X109743852Y-62338414D01*
X109743852Y-62181586D01*
X109774448Y-62027772D01*
X109834463Y-61882883D01*
X109921592Y-61752485D01*
X110032485Y-61641592D01*
X110162883Y-61554463D01*
X110307772Y-61494448D01*
X110461586Y-61463852D01*
X110618414Y-61463852D01*
X110772228Y-61494448D01*
G37*
G36*
X113312228Y-61494448D02*
G01*
X113457117Y-61554463D01*
X113587515Y-61641592D01*
X113698408Y-61752485D01*
X113785537Y-61882883D01*
X113845552Y-62027772D01*
X113876148Y-62181586D01*
X113876148Y-62338414D01*
X113845552Y-62492228D01*
X113785537Y-62637117D01*
X113698408Y-62767515D01*
X113587515Y-62878408D01*
X113457117Y-62965537D01*
X113312228Y-63025552D01*
X113158414Y-63056148D01*
X113001586Y-63056148D01*
X112847772Y-63025552D01*
X112702883Y-62965537D01*
X112572485Y-62878408D01*
X112461592Y-62767515D01*
X112374463Y-62637117D01*
X112314448Y-62492228D01*
X112283852Y-62338414D01*
X112283852Y-62181586D01*
X112314448Y-62027772D01*
X112374463Y-61882883D01*
X112461592Y-61752485D01*
X112572485Y-61641592D01*
X112702883Y-61554463D01*
X112847772Y-61494448D01*
X113001586Y-61463852D01*
X113158414Y-61463852D01*
X113312228Y-61494448D01*
G37*
G36*
X118392228Y-61494448D02*
G01*
X118537117Y-61554463D01*
X118667515Y-61641592D01*
X118778408Y-61752485D01*
X118865537Y-61882883D01*
X118925552Y-62027772D01*
X118956148Y-62181586D01*
X118956148Y-62338414D01*
X118925552Y-62492228D01*
X118865537Y-62637117D01*
X118778408Y-62767515D01*
X118667515Y-62878408D01*
X118537117Y-62965537D01*
X118392228Y-63025552D01*
X118238414Y-63056148D01*
X118081586Y-63056148D01*
X117927772Y-63025552D01*
X117782883Y-62965537D01*
X117652485Y-62878408D01*
X117541592Y-62767515D01*
X117454463Y-62637117D01*
X117394448Y-62492228D01*
X117363852Y-62338414D01*
X117363852Y-62181586D01*
X117394448Y-62027772D01*
X117454463Y-61882883D01*
X117541592Y-61752485D01*
X117652485Y-61641592D01*
X117782883Y-61554463D01*
X117927772Y-61494448D01*
X118081586Y-61463852D01*
X118238414Y-61463852D01*
X118392228Y-61494448D01*
G37*
G36*
X120932228Y-61494448D02*
G01*
X121077117Y-61554463D01*
X121207515Y-61641592D01*
X121318408Y-61752485D01*
X121405537Y-61882883D01*
X121465552Y-62027772D01*
X121496148Y-62181586D01*
X121496148Y-62338414D01*
X121465552Y-62492228D01*
X121405537Y-62637117D01*
X121318408Y-62767515D01*
X121207515Y-62878408D01*
X121077117Y-62965537D01*
X120932228Y-63025552D01*
X120778414Y-63056148D01*
X120621586Y-63056148D01*
X120467772Y-63025552D01*
X120322883Y-62965537D01*
X120192485Y-62878408D01*
X120081592Y-62767515D01*
X119994463Y-62637117D01*
X119934448Y-62492228D01*
X119903852Y-62338414D01*
X119903852Y-62181586D01*
X119934448Y-62027772D01*
X119994463Y-61882883D01*
X120081592Y-61752485D01*
X120192485Y-61641592D01*
X120322883Y-61554463D01*
X120467772Y-61494448D01*
X120621586Y-61463852D01*
X120778414Y-61463852D01*
X120932228Y-61494448D01*
G37*
G36*
X123472228Y-61494448D02*
G01*
X123617117Y-61554463D01*
X123747515Y-61641592D01*
X123858408Y-61752485D01*
X123945537Y-61882883D01*
X124005552Y-62027772D01*
X124036148Y-62181586D01*
X124036148Y-62338414D01*
X124005552Y-62492228D01*
X123945537Y-62637117D01*
X123858408Y-62767515D01*
X123747515Y-62878408D01*
X123617117Y-62965537D01*
X123472228Y-63025552D01*
X123318414Y-63056148D01*
X123161586Y-63056148D01*
X123007772Y-63025552D01*
X122862883Y-62965537D01*
X122732485Y-62878408D01*
X122621592Y-62767515D01*
X122534463Y-62637117D01*
X122474448Y-62492228D01*
X122443852Y-62338414D01*
X122443852Y-62181586D01*
X122474448Y-62027772D01*
X122534463Y-61882883D01*
X122621592Y-61752485D01*
X122732485Y-61641592D01*
X122862883Y-61554463D01*
X123007772Y-61494448D01*
X123161586Y-61463852D01*
X123318414Y-61463852D01*
X123472228Y-61494448D01*
G37*
G36*
X126012228Y-61494448D02*
G01*
X126157117Y-61554463D01*
X126287515Y-61641592D01*
X126398408Y-61752485D01*
X126485537Y-61882883D01*
X126545552Y-62027772D01*
X126576148Y-62181586D01*
X126576148Y-62338414D01*
X126545552Y-62492228D01*
X126485537Y-62637117D01*
X126398408Y-62767515D01*
X126287515Y-62878408D01*
X126157117Y-62965537D01*
X126012228Y-63025552D01*
X125858414Y-63056148D01*
X125701586Y-63056148D01*
X125547772Y-63025552D01*
X125402883Y-62965537D01*
X125272485Y-62878408D01*
X125161592Y-62767515D01*
X125074463Y-62637117D01*
X125014448Y-62492228D01*
X124983852Y-62338414D01*
X124983852Y-62181586D01*
X125014448Y-62027772D01*
X125074463Y-61882883D01*
X125161592Y-61752485D01*
X125272485Y-61641592D01*
X125402883Y-61554463D01*
X125547772Y-61494448D01*
X125701586Y-61463852D01*
X125858414Y-61463852D01*
X126012228Y-61494448D01*
G37*
G36*
X131092228Y-61494448D02*
G01*
X131237117Y-61554463D01*
X131367515Y-61641592D01*
X131478408Y-61752485D01*
X131565537Y-61882883D01*
X131625552Y-62027772D01*
X131656148Y-62181586D01*
X131656148Y-62338414D01*
X131625552Y-62492228D01*
X131565537Y-62637117D01*
X131478408Y-62767515D01*
X131367515Y-62878408D01*
X131237117Y-62965537D01*
X131092228Y-63025552D01*
X130938414Y-63056148D01*
X130781586Y-63056148D01*
X130627772Y-63025552D01*
X130482883Y-62965537D01*
X130352485Y-62878408D01*
X130241592Y-62767515D01*
X130154463Y-62637117D01*
X130094448Y-62492228D01*
X130063852Y-62338414D01*
X130063852Y-62181586D01*
X130094448Y-62027772D01*
X130154463Y-61882883D01*
X130241592Y-61752485D01*
X130352485Y-61641592D01*
X130482883Y-61554463D01*
X130627772Y-61494448D01*
X130781586Y-61463852D01*
X130938414Y-61463852D01*
X131092228Y-61494448D01*
G37*
G36*
X133632228Y-61494448D02*
G01*
X133777117Y-61554463D01*
X133907515Y-61641592D01*
X134018408Y-61752485D01*
X134105537Y-61882883D01*
X134165552Y-62027772D01*
X134196148Y-62181586D01*
X134196148Y-62338414D01*
X134165552Y-62492228D01*
X134105537Y-62637117D01*
X134018408Y-62767515D01*
X133907515Y-62878408D01*
X133777117Y-62965537D01*
X133632228Y-63025552D01*
X133478414Y-63056148D01*
X133321586Y-63056148D01*
X133167772Y-63025552D01*
X133022883Y-62965537D01*
X132892485Y-62878408D01*
X132781592Y-62767515D01*
X132694463Y-62637117D01*
X132634448Y-62492228D01*
X132603852Y-62338414D01*
X132603852Y-62181586D01*
X132634448Y-62027772D01*
X132694463Y-61882883D01*
X132781592Y-61752485D01*
X132892485Y-61641592D01*
X133022883Y-61554463D01*
X133167772Y-61494448D01*
X133321586Y-61463852D01*
X133478414Y-61463852D01*
X133632228Y-61494448D01*
G37*
G36*
X136172228Y-61494448D02*
G01*
X136317117Y-61554463D01*
X136447515Y-61641592D01*
X136558408Y-61752485D01*
X136645537Y-61882883D01*
X136705552Y-62027772D01*
X136736148Y-62181586D01*
X136736148Y-62338414D01*
X136705552Y-62492228D01*
X136645537Y-62637117D01*
X136558408Y-62767515D01*
X136447515Y-62878408D01*
X136317117Y-62965537D01*
X136172228Y-63025552D01*
X136018414Y-63056148D01*
X135861586Y-63056148D01*
X135707772Y-63025552D01*
X135562883Y-62965537D01*
X135432485Y-62878408D01*
X135321592Y-62767515D01*
X135234463Y-62637117D01*
X135174448Y-62492228D01*
X135143852Y-62338414D01*
X135143852Y-62181586D01*
X135174448Y-62027772D01*
X135234463Y-61882883D01*
X135321592Y-61752485D01*
X135432485Y-61641592D01*
X135562883Y-61554463D01*
X135707772Y-61494448D01*
X135861586Y-61463852D01*
X136018414Y-61463852D01*
X136172228Y-61494448D01*
G37*
G36*
X138712228Y-61494448D02*
G01*
X138857117Y-61554463D01*
X138987515Y-61641592D01*
X139098408Y-61752485D01*
X139185537Y-61882883D01*
X139245552Y-62027772D01*
X139276148Y-62181586D01*
X139276148Y-62338414D01*
X139245552Y-62492228D01*
X139185537Y-62637117D01*
X139098408Y-62767515D01*
X138987515Y-62878408D01*
X138857117Y-62965537D01*
X138712228Y-63025552D01*
X138558414Y-63056148D01*
X138401586Y-63056148D01*
X138247772Y-63025552D01*
X138102883Y-62965537D01*
X137972485Y-62878408D01*
X137861592Y-62767515D01*
X137774463Y-62637117D01*
X137714448Y-62492228D01*
X137683852Y-62338414D01*
X137683852Y-62181586D01*
X137714448Y-62027772D01*
X137774463Y-61882883D01*
X137861592Y-61752485D01*
X137972485Y-61641592D01*
X138102883Y-61554463D01*
X138247772Y-61494448D01*
X138401586Y-61463852D01*
X138558414Y-61463852D01*
X138712228Y-61494448D01*
G37*
G36*
X143792228Y-61494448D02*
G01*
X143937117Y-61554463D01*
X144067515Y-61641592D01*
X144178408Y-61752485D01*
X144265537Y-61882883D01*
X144325552Y-62027772D01*
X144356148Y-62181586D01*
X144356148Y-62338414D01*
X144325552Y-62492228D01*
X144265537Y-62637117D01*
X144178408Y-62767515D01*
X144067515Y-62878408D01*
X143937117Y-62965537D01*
X143792228Y-63025552D01*
X143638414Y-63056148D01*
X143481586Y-63056148D01*
X143327772Y-63025552D01*
X143182883Y-62965537D01*
X143052485Y-62878408D01*
X142941592Y-62767515D01*
X142854463Y-62637117D01*
X142794448Y-62492228D01*
X142763852Y-62338414D01*
X142763852Y-62181586D01*
X142794448Y-62027772D01*
X142854463Y-61882883D01*
X142941592Y-61752485D01*
X143052485Y-61641592D01*
X143182883Y-61554463D01*
X143327772Y-61494448D01*
X143481586Y-61463852D01*
X143638414Y-61463852D01*
X143792228Y-61494448D01*
G37*
G36*
X146332228Y-61494448D02*
G01*
X146477117Y-61554463D01*
X146607515Y-61641592D01*
X146718408Y-61752485D01*
X146805537Y-61882883D01*
X146865552Y-62027772D01*
X146896148Y-62181586D01*
X146896148Y-62338414D01*
X146865552Y-62492228D01*
X146805537Y-62637117D01*
X146718408Y-62767515D01*
X146607515Y-62878408D01*
X146477117Y-62965537D01*
X146332228Y-63025552D01*
X146178414Y-63056148D01*
X146021586Y-63056148D01*
X145867772Y-63025552D01*
X145722883Y-62965537D01*
X145592485Y-62878408D01*
X145481592Y-62767515D01*
X145394463Y-62637117D01*
X145334448Y-62492228D01*
X145303852Y-62338414D01*
X145303852Y-62181586D01*
X145334448Y-62027772D01*
X145394463Y-61882883D01*
X145481592Y-61752485D01*
X145592485Y-61641592D01*
X145722883Y-61554463D01*
X145867772Y-61494448D01*
X146021586Y-61463852D01*
X146178414Y-61463852D01*
X146332228Y-61494448D01*
G37*
G36*
X148872228Y-61494448D02*
G01*
X149017117Y-61554463D01*
X149147515Y-61641592D01*
X149258408Y-61752485D01*
X149345537Y-61882883D01*
X149405552Y-62027772D01*
X149436148Y-62181586D01*
X149436148Y-62338414D01*
X149405552Y-62492228D01*
X149345537Y-62637117D01*
X149258408Y-62767515D01*
X149147515Y-62878408D01*
X149017117Y-62965537D01*
X148872228Y-63025552D01*
X148718414Y-63056148D01*
X148561586Y-63056148D01*
X148407772Y-63025552D01*
X148262883Y-62965537D01*
X148132485Y-62878408D01*
X148021592Y-62767515D01*
X147934463Y-62637117D01*
X147874448Y-62492228D01*
X147843852Y-62338414D01*
X147843852Y-62181586D01*
X147874448Y-62027772D01*
X147934463Y-61882883D01*
X148021592Y-61752485D01*
X148132485Y-61641592D01*
X148262883Y-61554463D01*
X148407772Y-61494448D01*
X148561586Y-61463852D01*
X148718414Y-61463852D01*
X148872228Y-61494448D01*
G37*
G36*
X151412228Y-61494448D02*
G01*
X151557117Y-61554463D01*
X151687515Y-61641592D01*
X151798408Y-61752485D01*
X151885537Y-61882883D01*
X151945552Y-62027772D01*
X151976148Y-62181586D01*
X151976148Y-62338414D01*
X151945552Y-62492228D01*
X151885537Y-62637117D01*
X151798408Y-62767515D01*
X151687515Y-62878408D01*
X151557117Y-62965537D01*
X151412228Y-63025552D01*
X151258414Y-63056148D01*
X151101586Y-63056148D01*
X150947772Y-63025552D01*
X150802883Y-62965537D01*
X150672485Y-62878408D01*
X150561592Y-62767515D01*
X150474463Y-62637117D01*
X150414448Y-62492228D01*
X150383852Y-62338414D01*
X150383852Y-62181586D01*
X150414448Y-62027772D01*
X150474463Y-61882883D01*
X150561592Y-61752485D01*
X150672485Y-61641592D01*
X150802883Y-61554463D01*
X150947772Y-61494448D01*
X151101586Y-61463852D01*
X151258414Y-61463852D01*
X151412228Y-61494448D01*
G37*
G36*
X156492228Y-61494448D02*
G01*
X156637117Y-61554463D01*
X156767515Y-61641592D01*
X156878408Y-61752485D01*
X156965537Y-61882883D01*
X157025552Y-62027772D01*
X157056148Y-62181586D01*
X157056148Y-62338414D01*
X157025552Y-62492228D01*
X156965537Y-62637117D01*
X156878408Y-62767515D01*
X156767515Y-62878408D01*
X156637117Y-62965537D01*
X156492228Y-63025552D01*
X156338414Y-63056148D01*
X156181586Y-63056148D01*
X156027772Y-63025552D01*
X155882883Y-62965537D01*
X155752485Y-62878408D01*
X155641592Y-62767515D01*
X155554463Y-62637117D01*
X155494448Y-62492228D01*
X155463852Y-62338414D01*
X155463852Y-62181586D01*
X155494448Y-62027772D01*
X155554463Y-61882883D01*
X155641592Y-61752485D01*
X155752485Y-61641592D01*
X155882883Y-61554463D01*
X156027772Y-61494448D01*
X156181586Y-61463852D01*
X156338414Y-61463852D01*
X156492228Y-61494448D01*
G37*
G36*
X139290000Y-55150000D02*
G01*
X137590000Y-55150000D01*
X137590000Y-53450000D01*
X139290000Y-53450000D01*
X139290000Y-55150000D01*
G37*
G36*
X152030000Y-55150000D02*
G01*
X150330000Y-55150000D01*
X150330000Y-53450000D01*
X152030000Y-53450000D01*
X152030000Y-55150000D01*
G37*
G36*
X159650000Y-55150000D02*
G01*
X157950000Y-55150000D01*
X157950000Y-53450000D01*
X159650000Y-53450000D01*
X159650000Y-55150000D01*
G37*
G36*
X136146742Y-53486601D02*
G01*
X136300687Y-53550367D01*
X136439234Y-53642941D01*
X136557059Y-53760766D01*
X136649633Y-53899313D01*
X136713399Y-54053258D01*
X136745907Y-54216685D01*
X136745907Y-54383315D01*
X136713399Y-54546742D01*
X136649633Y-54700687D01*
X136557059Y-54839234D01*
X136439234Y-54957059D01*
X136300687Y-55049633D01*
X136146742Y-55113399D01*
X135983315Y-55145907D01*
X135816685Y-55145907D01*
X135653258Y-55113399D01*
X135499313Y-55049633D01*
X135360766Y-54957059D01*
X135242941Y-54839234D01*
X135150367Y-54700687D01*
X135086601Y-54546742D01*
X135054093Y-54383315D01*
X135054093Y-54216685D01*
X135086601Y-54053258D01*
X135150367Y-53899313D01*
X135242941Y-53760766D01*
X135360766Y-53642941D01*
X135499313Y-53550367D01*
X135653258Y-53486601D01*
X135816685Y-53454093D01*
X135983315Y-53454093D01*
X136146742Y-53486601D01*
G37*
G36*
X143806742Y-53486601D02*
G01*
X143960687Y-53550367D01*
X144099234Y-53642941D01*
X144217059Y-53760766D01*
X144309633Y-53899313D01*
X144373399Y-54053258D01*
X144405907Y-54216685D01*
X144405907Y-54383315D01*
X144373399Y-54546742D01*
X144309633Y-54700687D01*
X144217059Y-54839234D01*
X144099234Y-54957059D01*
X143960687Y-55049633D01*
X143806742Y-55113399D01*
X143643315Y-55145907D01*
X143476685Y-55145907D01*
X143313258Y-55113399D01*
X143159313Y-55049633D01*
X143020766Y-54957059D01*
X142902941Y-54839234D01*
X142810367Y-54700687D01*
X142746601Y-54546742D01*
X142714093Y-54383315D01*
X142714093Y-54216685D01*
X142746601Y-54053258D01*
X142810367Y-53899313D01*
X142902941Y-53760766D01*
X143020766Y-53642941D01*
X143159313Y-53550367D01*
X143313258Y-53486601D01*
X143476685Y-53454093D01*
X143643315Y-53454093D01*
X143806742Y-53486601D01*
G37*
G36*
X146346742Y-53486601D02*
G01*
X146500687Y-53550367D01*
X146639234Y-53642941D01*
X146757059Y-53760766D01*
X146849633Y-53899313D01*
X146913399Y-54053258D01*
X146945907Y-54216685D01*
X146945907Y-54383315D01*
X146913399Y-54546742D01*
X146849633Y-54700687D01*
X146757059Y-54839234D01*
X146639234Y-54957059D01*
X146500687Y-55049633D01*
X146346742Y-55113399D01*
X146183315Y-55145907D01*
X146016685Y-55145907D01*
X145853258Y-55113399D01*
X145699313Y-55049633D01*
X145560766Y-54957059D01*
X145442941Y-54839234D01*
X145350367Y-54700687D01*
X145286601Y-54546742D01*
X145254093Y-54383315D01*
X145254093Y-54216685D01*
X145286601Y-54053258D01*
X145350367Y-53899313D01*
X145442941Y-53760766D01*
X145560766Y-53642941D01*
X145699313Y-53550367D01*
X145853258Y-53486601D01*
X146016685Y-53454093D01*
X146183315Y-53454093D01*
X146346742Y-53486601D01*
G37*
G36*
X148886742Y-53486601D02*
G01*
X149040687Y-53550367D01*
X149179234Y-53642941D01*
X149297059Y-53760766D01*
X149389633Y-53899313D01*
X149453399Y-54053258D01*
X149485907Y-54216685D01*
X149485907Y-54383315D01*
X149453399Y-54546742D01*
X149389633Y-54700687D01*
X149297059Y-54839234D01*
X149179234Y-54957059D01*
X149040687Y-55049633D01*
X148886742Y-55113399D01*
X148723315Y-55145907D01*
X148556685Y-55145907D01*
X148393258Y-55113399D01*
X148239313Y-55049633D01*
X148100766Y-54957059D01*
X147982941Y-54839234D01*
X147890367Y-54700687D01*
X147826601Y-54546742D01*
X147794093Y-54383315D01*
X147794093Y-54216685D01*
X147826601Y-54053258D01*
X147890367Y-53899313D01*
X147982941Y-53760766D01*
X148100766Y-53642941D01*
X148239313Y-53550367D01*
X148393258Y-53486601D01*
X148556685Y-53454093D01*
X148723315Y-53454093D01*
X148886742Y-53486601D01*
G37*
G36*
X156506742Y-53486601D02*
G01*
X156660687Y-53550367D01*
X156799234Y-53642941D01*
X156917059Y-53760766D01*
X157009633Y-53899313D01*
X157073399Y-54053258D01*
X157105907Y-54216685D01*
X157105907Y-54383315D01*
X157073399Y-54546742D01*
X157009633Y-54700687D01*
X156917059Y-54839234D01*
X156799234Y-54957059D01*
X156660687Y-55049633D01*
X156506742Y-55113399D01*
X156343315Y-55145907D01*
X156176685Y-55145907D01*
X156013258Y-55113399D01*
X155859313Y-55049633D01*
X155720766Y-54957059D01*
X155602941Y-54839234D01*
X155510367Y-54700687D01*
X155446601Y-54546742D01*
X155414093Y-54383315D01*
X155414093Y-54216685D01*
X155446601Y-54053258D01*
X155510367Y-53899313D01*
X155602941Y-53760766D01*
X155720766Y-53642941D01*
X155859313Y-53550367D01*
X156013258Y-53486601D01*
X156176685Y-53454093D01*
X156343315Y-53454093D01*
X156506742Y-53486601D01*
G37*
G36*
X109220000Y-49620000D02*
G01*
X107520000Y-49620000D01*
X107520000Y-47920000D01*
X109220000Y-47920000D01*
X109220000Y-49620000D01*
G37*
G36*
X111156742Y-47956601D02*
G01*
X111310687Y-48020367D01*
X111449234Y-48112941D01*
X111567059Y-48230766D01*
X111659633Y-48369313D01*
X111723399Y-48523258D01*
X111755907Y-48686685D01*
X111755907Y-48853315D01*
X111723399Y-49016742D01*
X111659633Y-49170687D01*
X111567059Y-49309234D01*
X111449234Y-49427059D01*
X111310687Y-49519633D01*
X111156742Y-49583399D01*
X110993315Y-49615907D01*
X110826685Y-49615907D01*
X110663258Y-49583399D01*
X110509313Y-49519633D01*
X110370766Y-49427059D01*
X110252941Y-49309234D01*
X110160367Y-49170687D01*
X110096601Y-49016742D01*
X110064093Y-48853315D01*
X110064093Y-48686685D01*
X110096601Y-48523258D01*
X110160367Y-48369313D01*
X110252941Y-48230766D01*
X110370766Y-48112941D01*
X110509313Y-48020367D01*
X110663258Y-47956601D01*
X110826685Y-47924093D01*
X110993315Y-47924093D01*
X111156742Y-47956601D01*
G37*
G36*
X113696742Y-47956601D02*
G01*
X113850687Y-48020367D01*
X113989234Y-48112941D01*
X114107059Y-48230766D01*
X114199633Y-48369313D01*
X114263399Y-48523258D01*
X114295907Y-48686685D01*
X114295907Y-48853315D01*
X114263399Y-49016742D01*
X114199633Y-49170687D01*
X114107059Y-49309234D01*
X113989234Y-49427059D01*
X113850687Y-49519633D01*
X113696742Y-49583399D01*
X113533315Y-49615907D01*
X113366685Y-49615907D01*
X113203258Y-49583399D01*
X113049313Y-49519633D01*
X112910766Y-49427059D01*
X112792941Y-49309234D01*
X112700367Y-49170687D01*
X112636601Y-49016742D01*
X112604093Y-48853315D01*
X112604093Y-48686685D01*
X112636601Y-48523258D01*
X112700367Y-48369313D01*
X112792941Y-48230766D01*
X112910766Y-48112941D01*
X113049313Y-48020367D01*
X113203258Y-47956601D01*
X113366685Y-47924093D01*
X113533315Y-47924093D01*
X113696742Y-47956601D01*
G37*
G36*
X116236742Y-47956601D02*
G01*
X116390687Y-48020367D01*
X116529234Y-48112941D01*
X116647059Y-48230766D01*
X116739633Y-48369313D01*
X116803399Y-48523258D01*
X116835907Y-48686685D01*
X116835907Y-48853315D01*
X116803399Y-49016742D01*
X116739633Y-49170687D01*
X116647059Y-49309234D01*
X116529234Y-49427059D01*
X116390687Y-49519633D01*
X116236742Y-49583399D01*
X116073315Y-49615907D01*
X115906685Y-49615907D01*
X115743258Y-49583399D01*
X115589313Y-49519633D01*
X115450766Y-49427059D01*
X115332941Y-49309234D01*
X115240367Y-49170687D01*
X115176601Y-49016742D01*
X115144093Y-48853315D01*
X115144093Y-48686685D01*
X115176601Y-48523258D01*
X115240367Y-48369313D01*
X115332941Y-48230766D01*
X115450766Y-48112941D01*
X115589313Y-48020367D01*
X115743258Y-47956601D01*
X115906685Y-47924093D01*
X116073315Y-47924093D01*
X116236742Y-47956601D01*
G37*
G36*
X118776742Y-47956601D02*
G01*
X118930687Y-48020367D01*
X119069234Y-48112941D01*
X119187059Y-48230766D01*
X119279633Y-48369313D01*
X119343399Y-48523258D01*
X119375907Y-48686685D01*
X119375907Y-48853315D01*
X119343399Y-49016742D01*
X119279633Y-49170687D01*
X119187059Y-49309234D01*
X119069234Y-49427059D01*
X118930687Y-49519633D01*
X118776742Y-49583399D01*
X118613315Y-49615907D01*
X118446685Y-49615907D01*
X118283258Y-49583399D01*
X118129313Y-49519633D01*
X117990766Y-49427059D01*
X117872941Y-49309234D01*
X117780367Y-49170687D01*
X117716601Y-49016742D01*
X117684093Y-48853315D01*
X117684093Y-48686685D01*
X117716601Y-48523258D01*
X117780367Y-48369313D01*
X117872941Y-48230766D01*
X117990766Y-48112941D01*
X118129313Y-48020367D01*
X118283258Y-47956601D01*
X118446685Y-47924093D01*
X118613315Y-47924093D01*
X118776742Y-47956601D01*
G37*
G36*
X121316742Y-47956601D02*
G01*
X121470687Y-48020367D01*
X121609234Y-48112941D01*
X121727059Y-48230766D01*
X121819633Y-48369313D01*
X121883399Y-48523258D01*
X121915907Y-48686685D01*
X121915907Y-48853315D01*
X121883399Y-49016742D01*
X121819633Y-49170687D01*
X121727059Y-49309234D01*
X121609234Y-49427059D01*
X121470687Y-49519633D01*
X121316742Y-49583399D01*
X121153315Y-49615907D01*
X120986685Y-49615907D01*
X120823258Y-49583399D01*
X120669313Y-49519633D01*
X120530766Y-49427059D01*
X120412941Y-49309234D01*
X120320367Y-49170687D01*
X120256601Y-49016742D01*
X120224093Y-48853315D01*
X120224093Y-48686685D01*
X120256601Y-48523258D01*
X120320367Y-48369313D01*
X120412941Y-48230766D01*
X120530766Y-48112941D01*
X120669313Y-48020367D01*
X120823258Y-47956601D01*
X120986685Y-47924093D01*
X121153315Y-47924093D01*
X121316742Y-47956601D01*
G37*
G36*
X123856742Y-47956601D02*
G01*
X124010687Y-48020367D01*
X124149234Y-48112941D01*
X124267059Y-48230766D01*
X124359633Y-48369313D01*
X124423399Y-48523258D01*
X124455907Y-48686685D01*
X124455907Y-48853315D01*
X124423399Y-49016742D01*
X124359633Y-49170687D01*
X124267059Y-49309234D01*
X124149234Y-49427059D01*
X124010687Y-49519633D01*
X123856742Y-49583399D01*
X123693315Y-49615907D01*
X123526685Y-49615907D01*
X123363258Y-49583399D01*
X123209313Y-49519633D01*
X123070766Y-49427059D01*
X122952941Y-49309234D01*
X122860367Y-49170687D01*
X122796601Y-49016742D01*
X122764093Y-48853315D01*
X122764093Y-48686685D01*
X122796601Y-48523258D01*
X122860367Y-48369313D01*
X122952941Y-48230766D01*
X123070766Y-48112941D01*
X123209313Y-48020367D01*
X123363258Y-47956601D01*
X123526685Y-47924093D01*
X123693315Y-47924093D01*
X123856742Y-47956601D01*
G37*
G36*
X126396742Y-47956601D02*
G01*
X126550687Y-48020367D01*
X126689234Y-48112941D01*
X126807059Y-48230766D01*
X126899633Y-48369313D01*
X126963399Y-48523258D01*
X126995907Y-48686685D01*
X126995907Y-48853315D01*
X126963399Y-49016742D01*
X126899633Y-49170687D01*
X126807059Y-49309234D01*
X126689234Y-49427059D01*
X126550687Y-49519633D01*
X126396742Y-49583399D01*
X126233315Y-49615907D01*
X126066685Y-49615907D01*
X125903258Y-49583399D01*
X125749313Y-49519633D01*
X125610766Y-49427059D01*
X125492941Y-49309234D01*
X125400367Y-49170687D01*
X125336601Y-49016742D01*
X125304093Y-48853315D01*
X125304093Y-48686685D01*
X125336601Y-48523258D01*
X125400367Y-48369313D01*
X125492941Y-48230766D01*
X125610766Y-48112941D01*
X125749313Y-48020367D01*
X125903258Y-47956601D01*
X126066685Y-47924093D01*
X126233315Y-47924093D01*
X126396742Y-47956601D01*
G37*
G36*
X128936742Y-47956601D02*
G01*
X129090687Y-48020367D01*
X129229234Y-48112941D01*
X129347059Y-48230766D01*
X129439633Y-48369313D01*
X129503399Y-48523258D01*
X129535907Y-48686685D01*
X129535907Y-48853315D01*
X129503399Y-49016742D01*
X129439633Y-49170687D01*
X129347059Y-49309234D01*
X129229234Y-49427059D01*
X129090687Y-49519633D01*
X128936742Y-49583399D01*
X128773315Y-49615907D01*
X128606685Y-49615907D01*
X128443258Y-49583399D01*
X128289313Y-49519633D01*
X128150766Y-49427059D01*
X128032941Y-49309234D01*
X127940367Y-49170687D01*
X127876601Y-49016742D01*
X127844093Y-48853315D01*
X127844093Y-48686685D01*
X127876601Y-48523258D01*
X127940367Y-48369313D01*
X128032941Y-48230766D01*
X128150766Y-48112941D01*
X128289313Y-48020367D01*
X128443258Y-47956601D01*
X128606685Y-47924093D01*
X128773315Y-47924093D01*
X128936742Y-47956601D01*
G37*
G36*
X131476742Y-47956601D02*
G01*
X131630687Y-48020367D01*
X131769234Y-48112941D01*
X131887059Y-48230766D01*
X131979633Y-48369313D01*
X132043399Y-48523258D01*
X132075907Y-48686685D01*
X132075907Y-48853315D01*
X132043399Y-49016742D01*
X131979633Y-49170687D01*
X131887059Y-49309234D01*
X131769234Y-49427059D01*
X131630687Y-49519633D01*
X131476742Y-49583399D01*
X131313315Y-49615907D01*
X131146685Y-49615907D01*
X130983258Y-49583399D01*
X130829313Y-49519633D01*
X130690766Y-49427059D01*
X130572941Y-49309234D01*
X130480367Y-49170687D01*
X130416601Y-49016742D01*
X130384093Y-48853315D01*
X130384093Y-48686685D01*
X130416601Y-48523258D01*
X130480367Y-48369313D01*
X130572941Y-48230766D01*
X130690766Y-48112941D01*
X130829313Y-48020367D01*
X130983258Y-47956601D01*
X131146685Y-47924093D01*
X131313315Y-47924093D01*
X131476742Y-47956601D01*
G37*
G36*
X134016742Y-47956601D02*
G01*
X134170687Y-48020367D01*
X134309234Y-48112941D01*
X134427059Y-48230766D01*
X134519633Y-48369313D01*
X134583399Y-48523258D01*
X134615907Y-48686685D01*
X134615907Y-48853315D01*
X134583399Y-49016742D01*
X134519633Y-49170687D01*
X134427059Y-49309234D01*
X134309234Y-49427059D01*
X134170687Y-49519633D01*
X134016742Y-49583399D01*
X133853315Y-49615907D01*
X133686685Y-49615907D01*
X133523258Y-49583399D01*
X133369313Y-49519633D01*
X133230766Y-49427059D01*
X133112941Y-49309234D01*
X133020367Y-49170687D01*
X132956601Y-49016742D01*
X132924093Y-48853315D01*
X132924093Y-48686685D01*
X132956601Y-48523258D01*
X133020367Y-48369313D01*
X133112941Y-48230766D01*
X133230766Y-48112941D01*
X133369313Y-48020367D01*
X133523258Y-47956601D01*
X133686685Y-47924093D01*
X133853315Y-47924093D01*
X134016742Y-47956601D01*
G37*
G36*
X136556742Y-47956601D02*
G01*
X136710687Y-48020367D01*
X136849234Y-48112941D01*
X136967059Y-48230766D01*
X137059633Y-48369313D01*
X137123399Y-48523258D01*
X137155907Y-48686685D01*
X137155907Y-48853315D01*
X137123399Y-49016742D01*
X137059633Y-49170687D01*
X136967059Y-49309234D01*
X136849234Y-49427059D01*
X136710687Y-49519633D01*
X136556742Y-49583399D01*
X136393315Y-49615907D01*
X136226685Y-49615907D01*
X136063258Y-49583399D01*
X135909313Y-49519633D01*
X135770766Y-49427059D01*
X135652941Y-49309234D01*
X135560367Y-49170687D01*
X135496601Y-49016742D01*
X135464093Y-48853315D01*
X135464093Y-48686685D01*
X135496601Y-48523258D01*
X135560367Y-48369313D01*
X135652941Y-48230766D01*
X135770766Y-48112941D01*
X135909313Y-48020367D01*
X136063258Y-47956601D01*
X136226685Y-47924093D01*
X136393315Y-47924093D01*
X136556742Y-47956601D01*
G37*
G36*
X139096742Y-47956601D02*
G01*
X139250687Y-48020367D01*
X139389234Y-48112941D01*
X139507059Y-48230766D01*
X139599633Y-48369313D01*
X139663399Y-48523258D01*
X139695907Y-48686685D01*
X139695907Y-48853315D01*
X139663399Y-49016742D01*
X139599633Y-49170687D01*
X139507059Y-49309234D01*
X139389234Y-49427059D01*
X139250687Y-49519633D01*
X139096742Y-49583399D01*
X138933315Y-49615907D01*
X138766685Y-49615907D01*
X138603258Y-49583399D01*
X138449313Y-49519633D01*
X138310766Y-49427059D01*
X138192941Y-49309234D01*
X138100367Y-49170687D01*
X138036601Y-49016742D01*
X138004093Y-48853315D01*
X138004093Y-48686685D01*
X138036601Y-48523258D01*
X138100367Y-48369313D01*
X138192941Y-48230766D01*
X138310766Y-48112941D01*
X138449313Y-48020367D01*
X138603258Y-47956601D01*
X138766685Y-47924093D01*
X138933315Y-47924093D01*
X139096742Y-47956601D01*
G37*
G36*
X141636742Y-47956601D02*
G01*
X141790687Y-48020367D01*
X141929234Y-48112941D01*
X142047059Y-48230766D01*
X142139633Y-48369313D01*
X142203399Y-48523258D01*
X142235907Y-48686685D01*
X142235907Y-48853315D01*
X142203399Y-49016742D01*
X142139633Y-49170687D01*
X142047059Y-49309234D01*
X141929234Y-49427059D01*
X141790687Y-49519633D01*
X141636742Y-49583399D01*
X141473315Y-49615907D01*
X141306685Y-49615907D01*
X141143258Y-49583399D01*
X140989313Y-49519633D01*
X140850766Y-49427059D01*
X140732941Y-49309234D01*
X140640367Y-49170687D01*
X140576601Y-49016742D01*
X140544093Y-48853315D01*
X140544093Y-48686685D01*
X140576601Y-48523258D01*
X140640367Y-48369313D01*
X140732941Y-48230766D01*
X140850766Y-48112941D01*
X140989313Y-48020367D01*
X141143258Y-47956601D01*
X141306685Y-47924093D01*
X141473315Y-47924093D01*
X141636742Y-47956601D01*
G37*
G36*
X144176742Y-47956601D02*
G01*
X144330687Y-48020367D01*
X144469234Y-48112941D01*
X144587059Y-48230766D01*
X144679633Y-48369313D01*
X144743399Y-48523258D01*
X144775907Y-48686685D01*
X144775907Y-48853315D01*
X144743399Y-49016742D01*
X144679633Y-49170687D01*
X144587059Y-49309234D01*
X144469234Y-49427059D01*
X144330687Y-49519633D01*
X144176742Y-49583399D01*
X144013315Y-49615907D01*
X143846685Y-49615907D01*
X143683258Y-49583399D01*
X143529313Y-49519633D01*
X143390766Y-49427059D01*
X143272941Y-49309234D01*
X143180367Y-49170687D01*
X143116601Y-49016742D01*
X143084093Y-48853315D01*
X143084093Y-48686685D01*
X143116601Y-48523258D01*
X143180367Y-48369313D01*
X143272941Y-48230766D01*
X143390766Y-48112941D01*
X143529313Y-48020367D01*
X143683258Y-47956601D01*
X143846685Y-47924093D01*
X144013315Y-47924093D01*
X144176742Y-47956601D01*
G37*
G36*
X146716742Y-47956601D02*
G01*
X146870687Y-48020367D01*
X147009234Y-48112941D01*
X147127059Y-48230766D01*
X147219633Y-48369313D01*
X147283399Y-48523258D01*
X147315907Y-48686685D01*
X147315907Y-48853315D01*
X147283399Y-49016742D01*
X147219633Y-49170687D01*
X147127059Y-49309234D01*
X147009234Y-49427059D01*
X146870687Y-49519633D01*
X146716742Y-49583399D01*
X146553315Y-49615907D01*
X146386685Y-49615907D01*
X146223258Y-49583399D01*
X146069313Y-49519633D01*
X145930766Y-49427059D01*
X145812941Y-49309234D01*
X145720367Y-49170687D01*
X145656601Y-49016742D01*
X145624093Y-48853315D01*
X145624093Y-48686685D01*
X145656601Y-48523258D01*
X145720367Y-48369313D01*
X145812941Y-48230766D01*
X145930766Y-48112941D01*
X146069313Y-48020367D01*
X146223258Y-47956601D01*
X146386685Y-47924093D01*
X146553315Y-47924093D01*
X146716742Y-47956601D01*
G37*
G36*
X149256742Y-47956601D02*
G01*
X149410687Y-48020367D01*
X149549234Y-48112941D01*
X149667059Y-48230766D01*
X149759633Y-48369313D01*
X149823399Y-48523258D01*
X149855907Y-48686685D01*
X149855907Y-48853315D01*
X149823399Y-49016742D01*
X149759633Y-49170687D01*
X149667059Y-49309234D01*
X149549234Y-49427059D01*
X149410687Y-49519633D01*
X149256742Y-49583399D01*
X149093315Y-49615907D01*
X148926685Y-49615907D01*
X148763258Y-49583399D01*
X148609313Y-49519633D01*
X148470766Y-49427059D01*
X148352941Y-49309234D01*
X148260367Y-49170687D01*
X148196601Y-49016742D01*
X148164093Y-48853315D01*
X148164093Y-48686685D01*
X148196601Y-48523258D01*
X148260367Y-48369313D01*
X148352941Y-48230766D01*
X148470766Y-48112941D01*
X148609313Y-48020367D01*
X148763258Y-47956601D01*
X148926685Y-47924093D01*
X149093315Y-47924093D01*
X149256742Y-47956601D01*
G37*
G36*
X151796742Y-47956601D02*
G01*
X151950687Y-48020367D01*
X152089234Y-48112941D01*
X152207059Y-48230766D01*
X152299633Y-48369313D01*
X152363399Y-48523258D01*
X152395907Y-48686685D01*
X152395907Y-48853315D01*
X152363399Y-49016742D01*
X152299633Y-49170687D01*
X152207059Y-49309234D01*
X152089234Y-49427059D01*
X151950687Y-49519633D01*
X151796742Y-49583399D01*
X151633315Y-49615907D01*
X151466685Y-49615907D01*
X151303258Y-49583399D01*
X151149313Y-49519633D01*
X151010766Y-49427059D01*
X150892941Y-49309234D01*
X150800367Y-49170687D01*
X150736601Y-49016742D01*
X150704093Y-48853315D01*
X150704093Y-48686685D01*
X150736601Y-48523258D01*
X150800367Y-48369313D01*
X150892941Y-48230766D01*
X151010766Y-48112941D01*
X151149313Y-48020367D01*
X151303258Y-47956601D01*
X151466685Y-47924093D01*
X151633315Y-47924093D01*
X151796742Y-47956601D01*
G37*
G36*
X154336742Y-47956601D02*
G01*
X154490687Y-48020367D01*
X154629234Y-48112941D01*
X154747059Y-48230766D01*
X154839633Y-48369313D01*
X154903399Y-48523258D01*
X154935907Y-48686685D01*
X154935907Y-48853315D01*
X154903399Y-49016742D01*
X154839633Y-49170687D01*
X154747059Y-49309234D01*
X154629234Y-49427059D01*
X154490687Y-49519633D01*
X154336742Y-49583399D01*
X154173315Y-49615907D01*
X154006685Y-49615907D01*
X153843258Y-49583399D01*
X153689313Y-49519633D01*
X153550766Y-49427059D01*
X153432941Y-49309234D01*
X153340367Y-49170687D01*
X153276601Y-49016742D01*
X153244093Y-48853315D01*
X153244093Y-48686685D01*
X153276601Y-48523258D01*
X153340367Y-48369313D01*
X153432941Y-48230766D01*
X153550766Y-48112941D01*
X153689313Y-48020367D01*
X153843258Y-47956601D01*
X154006685Y-47924093D01*
X154173315Y-47924093D01*
X154336742Y-47956601D01*
G37*
G36*
X156876742Y-47956601D02*
G01*
X157030687Y-48020367D01*
X157169234Y-48112941D01*
X157287059Y-48230766D01*
X157379633Y-48369313D01*
X157443399Y-48523258D01*
X157475907Y-48686685D01*
X157475907Y-48853315D01*
X157443399Y-49016742D01*
X157379633Y-49170687D01*
X157287059Y-49309234D01*
X157169234Y-49427059D01*
X157030687Y-49519633D01*
X156876742Y-49583399D01*
X156713315Y-49615907D01*
X156546685Y-49615907D01*
X156383258Y-49583399D01*
X156229313Y-49519633D01*
X156090766Y-49427059D01*
X155972941Y-49309234D01*
X155880367Y-49170687D01*
X155816601Y-49016742D01*
X155784093Y-48853315D01*
X155784093Y-48686685D01*
X155816601Y-48523258D01*
X155880367Y-48369313D01*
X155972941Y-48230766D01*
X156090766Y-48112941D01*
X156229313Y-48020367D01*
X156383258Y-47956601D01*
X156546685Y-47924093D01*
X156713315Y-47924093D01*
X156876742Y-47956601D01*
G37*
G36*
X103815151Y-46187301D02*
G01*
X104016623Y-46252763D01*
X104205373Y-46348936D01*
X104376755Y-46473452D01*
X104526548Y-46623245D01*
X104651064Y-46794627D01*
X104747237Y-46983377D01*
X104812699Y-47184849D01*
X104845838Y-47394080D01*
X104845838Y-47605920D01*
X104812699Y-47815151D01*
X104747237Y-48016623D01*
X104651064Y-48205373D01*
X104526548Y-48376755D01*
X104376755Y-48526548D01*
X104205373Y-48651064D01*
X104016623Y-48747237D01*
X103815151Y-48812699D01*
X103605920Y-48845838D01*
X103394080Y-48845838D01*
X103184849Y-48812699D01*
X102983377Y-48747237D01*
X102794627Y-48651064D01*
X102623245Y-48526548D01*
X102473452Y-48376755D01*
X102348936Y-48205373D01*
X102252763Y-48016623D01*
X102187301Y-47815151D01*
X102154162Y-47605920D01*
X102154162Y-47394080D01*
X102187301Y-47184849D01*
X102252763Y-46983377D01*
X102348936Y-46794627D01*
X102473452Y-46623245D01*
X102623245Y-46473452D01*
X102794627Y-46348936D01*
X102983377Y-46252763D01*
X103184849Y-46187301D01*
X103394080Y-46154162D01*
X103605920Y-46154162D01*
X103815151Y-46187301D01*
G37*
G36*
X161815151Y-46187301D02*
G01*
X162016623Y-46252763D01*
X162205373Y-46348936D01*
X162376755Y-46473452D01*
X162526548Y-46623245D01*
X162651064Y-46794627D01*
X162747237Y-46983377D01*
X162812699Y-47184849D01*
X162845838Y-47394080D01*
X162845838Y-47605920D01*
X162812699Y-47815151D01*
X162747237Y-48016623D01*
X162651064Y-48205373D01*
X162526548Y-48376755D01*
X162376755Y-48526548D01*
X162205373Y-48651064D01*
X162016623Y-48747237D01*
X161815151Y-48812699D01*
X161605920Y-48845838D01*
X161394080Y-48845838D01*
X161184849Y-48812699D01*
X160983377Y-48747237D01*
X160794627Y-48651064D01*
X160623245Y-48526548D01*
X160473452Y-48376755D01*
X160348936Y-48205373D01*
X160252763Y-48016623D01*
X160187301Y-47815151D01*
X160154162Y-47605920D01*
X160154162Y-47394080D01*
X160187301Y-47184849D01*
X160252763Y-46983377D01*
X160348936Y-46794627D01*
X160473452Y-46623245D01*
X160623245Y-46473452D01*
X160794627Y-46348936D01*
X160983377Y-46252763D01*
X161184849Y-46187301D01*
X161394080Y-46154162D01*
X161605920Y-46154162D01*
X161815151Y-46187301D01*
G37*
G36*
X108616742Y-45416601D02*
G01*
X108770687Y-45480367D01*
X108909234Y-45572941D01*
X109027059Y-45690766D01*
X109119633Y-45829313D01*
X109183399Y-45983258D01*
X109215907Y-46146685D01*
X109215907Y-46313315D01*
X109183399Y-46476742D01*
X109119633Y-46630687D01*
X109027059Y-46769234D01*
X108909234Y-46887059D01*
X108770687Y-46979633D01*
X108616742Y-47043399D01*
X108453315Y-47075907D01*
X108286685Y-47075907D01*
X108123258Y-47043399D01*
X107969313Y-46979633D01*
X107830766Y-46887059D01*
X107712941Y-46769234D01*
X107620367Y-46630687D01*
X107556601Y-46476742D01*
X107524093Y-46313315D01*
X107524093Y-46146685D01*
X107556601Y-45983258D01*
X107620367Y-45829313D01*
X107712941Y-45690766D01*
X107830766Y-45572941D01*
X107969313Y-45480367D01*
X108123258Y-45416601D01*
X108286685Y-45384093D01*
X108453315Y-45384093D01*
X108616742Y-45416601D01*
G37*
G36*
X111156742Y-45416601D02*
G01*
X111310687Y-45480367D01*
X111449234Y-45572941D01*
X111567059Y-45690766D01*
X111659633Y-45829313D01*
X111723399Y-45983258D01*
X111755907Y-46146685D01*
X111755907Y-46313315D01*
X111723399Y-46476742D01*
X111659633Y-46630687D01*
X111567059Y-46769234D01*
X111449234Y-46887059D01*
X111310687Y-46979633D01*
X111156742Y-47043399D01*
X110993315Y-47075907D01*
X110826685Y-47075907D01*
X110663258Y-47043399D01*
X110509313Y-46979633D01*
X110370766Y-46887059D01*
X110252941Y-46769234D01*
X110160367Y-46630687D01*
X110096601Y-46476742D01*
X110064093Y-46313315D01*
X110064093Y-46146685D01*
X110096601Y-45983258D01*
X110160367Y-45829313D01*
X110252941Y-45690766D01*
X110370766Y-45572941D01*
X110509313Y-45480367D01*
X110663258Y-45416601D01*
X110826685Y-45384093D01*
X110993315Y-45384093D01*
X111156742Y-45416601D01*
G37*
G36*
X113696742Y-45416601D02*
G01*
X113850687Y-45480367D01*
X113989234Y-45572941D01*
X114107059Y-45690766D01*
X114199633Y-45829313D01*
X114263399Y-45983258D01*
X114295907Y-46146685D01*
X114295907Y-46313315D01*
X114263399Y-46476742D01*
X114199633Y-46630687D01*
X114107059Y-46769234D01*
X113989234Y-46887059D01*
X113850687Y-46979633D01*
X113696742Y-47043399D01*
X113533315Y-47075907D01*
X113366685Y-47075907D01*
X113203258Y-47043399D01*
X113049313Y-46979633D01*
X112910766Y-46887059D01*
X112792941Y-46769234D01*
X112700367Y-46630687D01*
X112636601Y-46476742D01*
X112604093Y-46313315D01*
X112604093Y-46146685D01*
X112636601Y-45983258D01*
X112700367Y-45829313D01*
X112792941Y-45690766D01*
X112910766Y-45572941D01*
X113049313Y-45480367D01*
X113203258Y-45416601D01*
X113366685Y-45384093D01*
X113533315Y-45384093D01*
X113696742Y-45416601D01*
G37*
G36*
X116236742Y-45416601D02*
G01*
X116390687Y-45480367D01*
X116529234Y-45572941D01*
X116647059Y-45690766D01*
X116739633Y-45829313D01*
X116803399Y-45983258D01*
X116835907Y-46146685D01*
X116835907Y-46313315D01*
X116803399Y-46476742D01*
X116739633Y-46630687D01*
X116647059Y-46769234D01*
X116529234Y-46887059D01*
X116390687Y-46979633D01*
X116236742Y-47043399D01*
X116073315Y-47075907D01*
X115906685Y-47075907D01*
X115743258Y-47043399D01*
X115589313Y-46979633D01*
X115450766Y-46887059D01*
X115332941Y-46769234D01*
X115240367Y-46630687D01*
X115176601Y-46476742D01*
X115144093Y-46313315D01*
X115144093Y-46146685D01*
X115176601Y-45983258D01*
X115240367Y-45829313D01*
X115332941Y-45690766D01*
X115450766Y-45572941D01*
X115589313Y-45480367D01*
X115743258Y-45416601D01*
X115906685Y-45384093D01*
X116073315Y-45384093D01*
X116236742Y-45416601D01*
G37*
G36*
X118776742Y-45416601D02*
G01*
X118930687Y-45480367D01*
X119069234Y-45572941D01*
X119187059Y-45690766D01*
X119279633Y-45829313D01*
X119343399Y-45983258D01*
X119375907Y-46146685D01*
X119375907Y-46313315D01*
X119343399Y-46476742D01*
X119279633Y-46630687D01*
X119187059Y-46769234D01*
X119069234Y-46887059D01*
X118930687Y-46979633D01*
X118776742Y-47043399D01*
X118613315Y-47075907D01*
X118446685Y-47075907D01*
X118283258Y-47043399D01*
X118129313Y-46979633D01*
X117990766Y-46887059D01*
X117872941Y-46769234D01*
X117780367Y-46630687D01*
X117716601Y-46476742D01*
X117684093Y-46313315D01*
X117684093Y-46146685D01*
X117716601Y-45983258D01*
X117780367Y-45829313D01*
X117872941Y-45690766D01*
X117990766Y-45572941D01*
X118129313Y-45480367D01*
X118283258Y-45416601D01*
X118446685Y-45384093D01*
X118613315Y-45384093D01*
X118776742Y-45416601D01*
G37*
G36*
X121316742Y-45416601D02*
G01*
X121470687Y-45480367D01*
X121609234Y-45572941D01*
X121727059Y-45690766D01*
X121819633Y-45829313D01*
X121883399Y-45983258D01*
X121915907Y-46146685D01*
X121915907Y-46313315D01*
X121883399Y-46476742D01*
X121819633Y-46630687D01*
X121727059Y-46769234D01*
X121609234Y-46887059D01*
X121470687Y-46979633D01*
X121316742Y-47043399D01*
X121153315Y-47075907D01*
X120986685Y-47075907D01*
X120823258Y-47043399D01*
X120669313Y-46979633D01*
X120530766Y-46887059D01*
X120412941Y-46769234D01*
X120320367Y-46630687D01*
X120256601Y-46476742D01*
X120224093Y-46313315D01*
X120224093Y-46146685D01*
X120256601Y-45983258D01*
X120320367Y-45829313D01*
X120412941Y-45690766D01*
X120530766Y-45572941D01*
X120669313Y-45480367D01*
X120823258Y-45416601D01*
X120986685Y-45384093D01*
X121153315Y-45384093D01*
X121316742Y-45416601D01*
G37*
G36*
X123856742Y-45416601D02*
G01*
X124010687Y-45480367D01*
X124149234Y-45572941D01*
X124267059Y-45690766D01*
X124359633Y-45829313D01*
X124423399Y-45983258D01*
X124455907Y-46146685D01*
X124455907Y-46313315D01*
X124423399Y-46476742D01*
X124359633Y-46630687D01*
X124267059Y-46769234D01*
X124149234Y-46887059D01*
X124010687Y-46979633D01*
X123856742Y-47043399D01*
X123693315Y-47075907D01*
X123526685Y-47075907D01*
X123363258Y-47043399D01*
X123209313Y-46979633D01*
X123070766Y-46887059D01*
X122952941Y-46769234D01*
X122860367Y-46630687D01*
X122796601Y-46476742D01*
X122764093Y-46313315D01*
X122764093Y-46146685D01*
X122796601Y-45983258D01*
X122860367Y-45829313D01*
X122952941Y-45690766D01*
X123070766Y-45572941D01*
X123209313Y-45480367D01*
X123363258Y-45416601D01*
X123526685Y-45384093D01*
X123693315Y-45384093D01*
X123856742Y-45416601D01*
G37*
G36*
X126396742Y-45416601D02*
G01*
X126550687Y-45480367D01*
X126689234Y-45572941D01*
X126807059Y-45690766D01*
X126899633Y-45829313D01*
X126963399Y-45983258D01*
X126995907Y-46146685D01*
X126995907Y-46313315D01*
X126963399Y-46476742D01*
X126899633Y-46630687D01*
X126807059Y-46769234D01*
X126689234Y-46887059D01*
X126550687Y-46979633D01*
X126396742Y-47043399D01*
X126233315Y-47075907D01*
X126066685Y-47075907D01*
X125903258Y-47043399D01*
X125749313Y-46979633D01*
X125610766Y-46887059D01*
X125492941Y-46769234D01*
X125400367Y-46630687D01*
X125336601Y-46476742D01*
X125304093Y-46313315D01*
X125304093Y-46146685D01*
X125336601Y-45983258D01*
X125400367Y-45829313D01*
X125492941Y-45690766D01*
X125610766Y-45572941D01*
X125749313Y-45480367D01*
X125903258Y-45416601D01*
X126066685Y-45384093D01*
X126233315Y-45384093D01*
X126396742Y-45416601D01*
G37*
G36*
X128936742Y-45416601D02*
G01*
X129090687Y-45480367D01*
X129229234Y-45572941D01*
X129347059Y-45690766D01*
X129439633Y-45829313D01*
X129503399Y-45983258D01*
X129535907Y-46146685D01*
X129535907Y-46313315D01*
X129503399Y-46476742D01*
X129439633Y-46630687D01*
X129347059Y-46769234D01*
X129229234Y-46887059D01*
X129090687Y-46979633D01*
X128936742Y-47043399D01*
X128773315Y-47075907D01*
X128606685Y-47075907D01*
X128443258Y-47043399D01*
X128289313Y-46979633D01*
X128150766Y-46887059D01*
X128032941Y-46769234D01*
X127940367Y-46630687D01*
X127876601Y-46476742D01*
X127844093Y-46313315D01*
X127844093Y-46146685D01*
X127876601Y-45983258D01*
X127940367Y-45829313D01*
X128032941Y-45690766D01*
X128150766Y-45572941D01*
X128289313Y-45480367D01*
X128443258Y-45416601D01*
X128606685Y-45384093D01*
X128773315Y-45384093D01*
X128936742Y-45416601D01*
G37*
G36*
X131476742Y-45416601D02*
G01*
X131630687Y-45480367D01*
X131769234Y-45572941D01*
X131887059Y-45690766D01*
X131979633Y-45829313D01*
X132043399Y-45983258D01*
X132075907Y-46146685D01*
X132075907Y-46313315D01*
X132043399Y-46476742D01*
X131979633Y-46630687D01*
X131887059Y-46769234D01*
X131769234Y-46887059D01*
X131630687Y-46979633D01*
X131476742Y-47043399D01*
X131313315Y-47075907D01*
X131146685Y-47075907D01*
X130983258Y-47043399D01*
X130829313Y-46979633D01*
X130690766Y-46887059D01*
X130572941Y-46769234D01*
X130480367Y-46630687D01*
X130416601Y-46476742D01*
X130384093Y-46313315D01*
X130384093Y-46146685D01*
X130416601Y-45983258D01*
X130480367Y-45829313D01*
X130572941Y-45690766D01*
X130690766Y-45572941D01*
X130829313Y-45480367D01*
X130983258Y-45416601D01*
X131146685Y-45384093D01*
X131313315Y-45384093D01*
X131476742Y-45416601D01*
G37*
G36*
X134016742Y-45416601D02*
G01*
X134170687Y-45480367D01*
X134309234Y-45572941D01*
X134427059Y-45690766D01*
X134519633Y-45829313D01*
X134583399Y-45983258D01*
X134615907Y-46146685D01*
X134615907Y-46313315D01*
X134583399Y-46476742D01*
X134519633Y-46630687D01*
X134427059Y-46769234D01*
X134309234Y-46887059D01*
X134170687Y-46979633D01*
X134016742Y-47043399D01*
X133853315Y-47075907D01*
X133686685Y-47075907D01*
X133523258Y-47043399D01*
X133369313Y-46979633D01*
X133230766Y-46887059D01*
X133112941Y-46769234D01*
X133020367Y-46630687D01*
X132956601Y-46476742D01*
X132924093Y-46313315D01*
X132924093Y-46146685D01*
X132956601Y-45983258D01*
X133020367Y-45829313D01*
X133112941Y-45690766D01*
X133230766Y-45572941D01*
X133369313Y-45480367D01*
X133523258Y-45416601D01*
X133686685Y-45384093D01*
X133853315Y-45384093D01*
X134016742Y-45416601D01*
G37*
G36*
X136556742Y-45416601D02*
G01*
X136710687Y-45480367D01*
X136849234Y-45572941D01*
X136967059Y-45690766D01*
X137059633Y-45829313D01*
X137123399Y-45983258D01*
X137155907Y-46146685D01*
X137155907Y-46313315D01*
X137123399Y-46476742D01*
X137059633Y-46630687D01*
X136967059Y-46769234D01*
X136849234Y-46887059D01*
X136710687Y-46979633D01*
X136556742Y-47043399D01*
X136393315Y-47075907D01*
X136226685Y-47075907D01*
X136063258Y-47043399D01*
X135909313Y-46979633D01*
X135770766Y-46887059D01*
X135652941Y-46769234D01*
X135560367Y-46630687D01*
X135496601Y-46476742D01*
X135464093Y-46313315D01*
X135464093Y-46146685D01*
X135496601Y-45983258D01*
X135560367Y-45829313D01*
X135652941Y-45690766D01*
X135770766Y-45572941D01*
X135909313Y-45480367D01*
X136063258Y-45416601D01*
X136226685Y-45384093D01*
X136393315Y-45384093D01*
X136556742Y-45416601D01*
G37*
G36*
X139096742Y-45416601D02*
G01*
X139250687Y-45480367D01*
X139389234Y-45572941D01*
X139507059Y-45690766D01*
X139599633Y-45829313D01*
X139663399Y-45983258D01*
X139695907Y-46146685D01*
X139695907Y-46313315D01*
X139663399Y-46476742D01*
X139599633Y-46630687D01*
X139507059Y-46769234D01*
X139389234Y-46887059D01*
X139250687Y-46979633D01*
X139096742Y-47043399D01*
X138933315Y-47075907D01*
X138766685Y-47075907D01*
X138603258Y-47043399D01*
X138449313Y-46979633D01*
X138310766Y-46887059D01*
X138192941Y-46769234D01*
X138100367Y-46630687D01*
X138036601Y-46476742D01*
X138004093Y-46313315D01*
X138004093Y-46146685D01*
X138036601Y-45983258D01*
X138100367Y-45829313D01*
X138192941Y-45690766D01*
X138310766Y-45572941D01*
X138449313Y-45480367D01*
X138603258Y-45416601D01*
X138766685Y-45384093D01*
X138933315Y-45384093D01*
X139096742Y-45416601D01*
G37*
G36*
X141636742Y-45416601D02*
G01*
X141790687Y-45480367D01*
X141929234Y-45572941D01*
X142047059Y-45690766D01*
X142139633Y-45829313D01*
X142203399Y-45983258D01*
X142235907Y-46146685D01*
X142235907Y-46313315D01*
X142203399Y-46476742D01*
X142139633Y-46630687D01*
X142047059Y-46769234D01*
X141929234Y-46887059D01*
X141790687Y-46979633D01*
X141636742Y-47043399D01*
X141473315Y-47075907D01*
X141306685Y-47075907D01*
X141143258Y-47043399D01*
X140989313Y-46979633D01*
X140850766Y-46887059D01*
X140732941Y-46769234D01*
X140640367Y-46630687D01*
X140576601Y-46476742D01*
X140544093Y-46313315D01*
X140544093Y-46146685D01*
X140576601Y-45983258D01*
X140640367Y-45829313D01*
X140732941Y-45690766D01*
X140850766Y-45572941D01*
X140989313Y-45480367D01*
X141143258Y-45416601D01*
X141306685Y-45384093D01*
X141473315Y-45384093D01*
X141636742Y-45416601D01*
G37*
G36*
X144176742Y-45416601D02*
G01*
X144330687Y-45480367D01*
X144469234Y-45572941D01*
X144587059Y-45690766D01*
X144679633Y-45829313D01*
X144743399Y-45983258D01*
X144775907Y-46146685D01*
X144775907Y-46313315D01*
X144743399Y-46476742D01*
X144679633Y-46630687D01*
X144587059Y-46769234D01*
X144469234Y-46887059D01*
X144330687Y-46979633D01*
X144176742Y-47043399D01*
X144013315Y-47075907D01*
X143846685Y-47075907D01*
X143683258Y-47043399D01*
X143529313Y-46979633D01*
X143390766Y-46887059D01*
X143272941Y-46769234D01*
X143180367Y-46630687D01*
X143116601Y-46476742D01*
X143084093Y-46313315D01*
X143084093Y-46146685D01*
X143116601Y-45983258D01*
X143180367Y-45829313D01*
X143272941Y-45690766D01*
X143390766Y-45572941D01*
X143529313Y-45480367D01*
X143683258Y-45416601D01*
X143846685Y-45384093D01*
X144013315Y-45384093D01*
X144176742Y-45416601D01*
G37*
G36*
X146716742Y-45416601D02*
G01*
X146870687Y-45480367D01*
X147009234Y-45572941D01*
X147127059Y-45690766D01*
X147219633Y-45829313D01*
X147283399Y-45983258D01*
X147315907Y-46146685D01*
X147315907Y-46313315D01*
X147283399Y-46476742D01*
X147219633Y-46630687D01*
X147127059Y-46769234D01*
X147009234Y-46887059D01*
X146870687Y-46979633D01*
X146716742Y-47043399D01*
X146553315Y-47075907D01*
X146386685Y-47075907D01*
X146223258Y-47043399D01*
X146069313Y-46979633D01*
X145930766Y-46887059D01*
X145812941Y-46769234D01*
X145720367Y-46630687D01*
X145656601Y-46476742D01*
X145624093Y-46313315D01*
X145624093Y-46146685D01*
X145656601Y-45983258D01*
X145720367Y-45829313D01*
X145812941Y-45690766D01*
X145930766Y-45572941D01*
X146069313Y-45480367D01*
X146223258Y-45416601D01*
X146386685Y-45384093D01*
X146553315Y-45384093D01*
X146716742Y-45416601D01*
G37*
G36*
X149256742Y-45416601D02*
G01*
X149410687Y-45480367D01*
X149549234Y-45572941D01*
X149667059Y-45690766D01*
X149759633Y-45829313D01*
X149823399Y-45983258D01*
X149855907Y-46146685D01*
X149855907Y-46313315D01*
X149823399Y-46476742D01*
X149759633Y-46630687D01*
X149667059Y-46769234D01*
X149549234Y-46887059D01*
X149410687Y-46979633D01*
X149256742Y-47043399D01*
X149093315Y-47075907D01*
X148926685Y-47075907D01*
X148763258Y-47043399D01*
X148609313Y-46979633D01*
X148470766Y-46887059D01*
X148352941Y-46769234D01*
X148260367Y-46630687D01*
X148196601Y-46476742D01*
X148164093Y-46313315D01*
X148164093Y-46146685D01*
X148196601Y-45983258D01*
X148260367Y-45829313D01*
X148352941Y-45690766D01*
X148470766Y-45572941D01*
X148609313Y-45480367D01*
X148763258Y-45416601D01*
X148926685Y-45384093D01*
X149093315Y-45384093D01*
X149256742Y-45416601D01*
G37*
G36*
X151796742Y-45416601D02*
G01*
X151950687Y-45480367D01*
X152089234Y-45572941D01*
X152207059Y-45690766D01*
X152299633Y-45829313D01*
X152363399Y-45983258D01*
X152395907Y-46146685D01*
X152395907Y-46313315D01*
X152363399Y-46476742D01*
X152299633Y-46630687D01*
X152207059Y-46769234D01*
X152089234Y-46887059D01*
X151950687Y-46979633D01*
X151796742Y-47043399D01*
X151633315Y-47075907D01*
X151466685Y-47075907D01*
X151303258Y-47043399D01*
X151149313Y-46979633D01*
X151010766Y-46887059D01*
X150892941Y-46769234D01*
X150800367Y-46630687D01*
X150736601Y-46476742D01*
X150704093Y-46313315D01*
X150704093Y-46146685D01*
X150736601Y-45983258D01*
X150800367Y-45829313D01*
X150892941Y-45690766D01*
X151010766Y-45572941D01*
X151149313Y-45480367D01*
X151303258Y-45416601D01*
X151466685Y-45384093D01*
X151633315Y-45384093D01*
X151796742Y-45416601D01*
G37*
G36*
X154336742Y-45416601D02*
G01*
X154490687Y-45480367D01*
X154629234Y-45572941D01*
X154747059Y-45690766D01*
X154839633Y-45829313D01*
X154903399Y-45983258D01*
X154935907Y-46146685D01*
X154935907Y-46313315D01*
X154903399Y-46476742D01*
X154839633Y-46630687D01*
X154747059Y-46769234D01*
X154629234Y-46887059D01*
X154490687Y-46979633D01*
X154336742Y-47043399D01*
X154173315Y-47075907D01*
X154006685Y-47075907D01*
X153843258Y-47043399D01*
X153689313Y-46979633D01*
X153550766Y-46887059D01*
X153432941Y-46769234D01*
X153340367Y-46630687D01*
X153276601Y-46476742D01*
X153244093Y-46313315D01*
X153244093Y-46146685D01*
X153276601Y-45983258D01*
X153340367Y-45829313D01*
X153432941Y-45690766D01*
X153550766Y-45572941D01*
X153689313Y-45480367D01*
X153843258Y-45416601D01*
X154006685Y-45384093D01*
X154173315Y-45384093D01*
X154336742Y-45416601D01*
G37*
G36*
X156876742Y-45416601D02*
G01*
X157030687Y-45480367D01*
X157169234Y-45572941D01*
X157287059Y-45690766D01*
X157379633Y-45829313D01*
X157443399Y-45983258D01*
X157475907Y-46146685D01*
X157475907Y-46313315D01*
X157443399Y-46476742D01*
X157379633Y-46630687D01*
X157287059Y-46769234D01*
X157169234Y-46887059D01*
X157030687Y-46979633D01*
X156876742Y-47043399D01*
X156713315Y-47075907D01*
X156546685Y-47075907D01*
X156383258Y-47043399D01*
X156229313Y-46979633D01*
X156090766Y-46887059D01*
X155972941Y-46769234D01*
X155880367Y-46630687D01*
X155816601Y-46476742D01*
X155784093Y-46313315D01*
X155784093Y-46146685D01*
X155816601Y-45983258D01*
X155880367Y-45829313D01*
X155972941Y-45690766D01*
X156090766Y-45572941D01*
X156229313Y-45480367D01*
X156383258Y-45416601D01*
X156546685Y-45384093D01*
X156713315Y-45384093D01*
X156876742Y-45416601D01*
G37*
M02*
