M48
; DRILL file {KiCad 9.0.1-9.0.1-0~ubuntu24.04.1} date 2025-04-23T21:06:30-0500
; FORMAT={-:-/ absolute / metric / decimal}
; #@! TF.CreationDate,2025-04-23T21:06:30-05:00
; #@! TF.GenerationSoftware,Kicad,Pcbnew,9.0.1-9.0.1-0~ubuntu24.04.1
; #@! TF.FileFunction,Plated,1,4,PTH
FMAT,2
METRIC
; #@! TA.AperFunction,Plated,PTH,ViaDrill
T1C0.300
; #@! TA.AperFunction,Plated,PTH,ComponentDrill
T2C0.800
; #@! TA.AperFunction,Plated,PTH,ComponentDrill
T3C0.900
; #@! TA.AperFunction,Plated,PTH,ComponentDrill
T4C1.000
; #@! TA.AperFunction,Plated,PTH,ComponentDrill
T5C1.020
; #@! TA.AperFunction,Plated,PTH,ComponentDrill
T6C1.040
; #@! TA.AperFunction,Plated,PTH,ComponentDrill
T7C1.100
%
G90
G05
T1
X71.4Y-80.1
X71.7Y-57.7
X77.7Y-54.4
X77.8Y-56.5
X77.8Y-64.0
X78.5Y-63.1
X83.0Y-71.511
X88.5Y-69.1
X91.7Y-57.149
X95.0Y-91.6
X126.6Y-83.8
X131.6Y-84.0
X156.7Y-82.6
T2
X109.894Y-87.492
X109.894Y-91.048
X109.894Y-94.604
X120.054Y-87.492
X120.054Y-91.048
X120.054Y-94.604
X159.3Y-85.72
X159.3Y-88.22
X159.3Y-90.72
X162.5Y-85.72
X162.5Y-88.22
X162.5Y-90.72
T3
X96.89Y-87.5
X98.16Y-87.5
X99.43Y-87.5
X100.7Y-87.5
T4
X83.735Y-95.5
X86.275Y-95.5
X108.37Y-46.23
X108.37Y-48.77
X110.54Y-62.26
X110.54Y-80.04
X110.91Y-46.23
X110.91Y-48.77
X113.08Y-62.26
X113.08Y-80.04
X113.45Y-46.23
X113.45Y-48.77
X115.62Y-62.26
X115.62Y-80.04
X115.99Y-46.23
X115.99Y-48.77
X118.16Y-62.26
X118.16Y-80.04
X118.53Y-46.23
X118.53Y-48.77
X120.7Y-62.26
X120.7Y-80.04
X121.07Y-46.23
X121.07Y-48.77
X123.24Y-62.26
X123.24Y-80.04
X123.61Y-46.23
X123.61Y-48.77
X125.78Y-62.26
X125.78Y-80.04
X126.15Y-46.23
X126.15Y-48.77
X128.32Y-62.26
X128.32Y-80.04
X128.69Y-46.23
X128.69Y-48.77
X130.86Y-62.26
X130.86Y-80.04
X131.23Y-46.23
X131.23Y-48.77
X133.4Y-62.26
X133.4Y-80.04
X133.77Y-46.23
X133.77Y-48.77
X135.9Y-54.3
X135.94Y-62.26
X135.94Y-80.04
X136.31Y-46.23
X136.31Y-48.77
X138.44Y-54.3
X138.48Y-62.26
X138.48Y-80.04
X138.85Y-46.23
X138.85Y-48.77
X141.02Y-62.26
X141.02Y-80.04
X141.39Y-46.23
X141.39Y-48.77
X143.06Y-88.4
X143.56Y-54.3
X143.56Y-62.26
X143.56Y-80.04
X143.93Y-46.23
X143.93Y-48.77
X145.6Y-88.4
X146.1Y-54.3
X146.1Y-62.26
X146.1Y-80.04
X146.47Y-46.23
X146.47Y-48.77
X148.64Y-54.3
X148.64Y-62.26
X148.64Y-80.04
X149.01Y-46.23
X149.01Y-48.77
X151.18Y-54.3
X151.18Y-62.26
X151.18Y-80.04
X151.55Y-46.23
X151.55Y-48.77
X153.72Y-62.26
X153.72Y-80.04
X154.09Y-46.23
X154.09Y-48.77
X156.26Y-54.3
X156.26Y-62.26
X156.26Y-80.04
X156.63Y-46.23
X156.63Y-48.77
X158.8Y-54.3
X158.8Y-62.26
X158.8Y-80.04
X162.5Y-78.41
X162.5Y-80.95
T5
X71.595Y-67.43
X71.595Y-69.97
X71.595Y-72.51
X71.595Y-75.05
T6
X80.7Y-62.26
X80.7Y-64.8
X80.7Y-67.34
X80.7Y-69.88
X80.7Y-72.42
X80.7Y-74.96
X80.7Y-77.5
X80.7Y-80.04
X93.4Y-62.26
X93.4Y-64.8
X93.4Y-67.34
X93.4Y-69.88
X93.4Y-72.42
X93.4Y-74.96
X93.4Y-77.5
X93.4Y-80.04
T7
X126.6Y-92.4
X126.6Y-96.9
X133.1Y-92.4
X133.1Y-96.9
X136.8Y-92.4
X136.8Y-96.9
X143.3Y-92.4
X143.3Y-96.9
M30
