G04 #@! TF.GenerationSoftware,KiCad,Pcbnew,9.0.1-9.0.1-0~ubuntu24.04.1*
G04 #@! TF.CreationDate,2025-04-23T21:02:07-05:00*
G04 #@! TF.ProjectId,cerebellum,63657265-6265-46c6-9c75-6d2e6b696361,rev?*
G04 #@! TF.SameCoordinates,Original*
G04 #@! TF.FileFunction,Legend,Top*
G04 #@! TF.FilePolarity,Positive*
%FSLAX46Y46*%
G04 Gerber Fmt 4.6, Leading zero omitted, Abs format (unit mm)*
G04 Created by KiCad (PCBNEW 9.0.1-9.0.1-0~ubuntu24.04.1) date 2025-04-23 21:02:07*
%MOMM*%
%LPD*%
G01*
G04 APERTURE LIST*
%ADD10C,0.100000*%
%ADD11C,0.150000*%
%ADD12C,0.120000*%
%ADD13C,0.000000*%
%ADD14C,0.127000*%
%ADD15C,0.300000*%
G04 APERTURE END LIST*
D10*
X111165009Y-76175312D02*
X111203104Y-76099122D01*
X111203104Y-76099122D02*
X111203104Y-75984836D01*
X111203104Y-75984836D02*
X111165009Y-75870550D01*
X111165009Y-75870550D02*
X111088819Y-75794360D01*
X111088819Y-75794360D02*
X111012628Y-75756265D01*
X111012628Y-75756265D02*
X110860247Y-75718169D01*
X110860247Y-75718169D02*
X110745961Y-75718169D01*
X110745961Y-75718169D02*
X110593580Y-75756265D01*
X110593580Y-75756265D02*
X110517390Y-75794360D01*
X110517390Y-75794360D02*
X110441200Y-75870550D01*
X110441200Y-75870550D02*
X110403104Y-75984836D01*
X110403104Y-75984836D02*
X110403104Y-76061027D01*
X110403104Y-76061027D02*
X110441200Y-76175312D01*
X110441200Y-76175312D02*
X110479295Y-76213408D01*
X110479295Y-76213408D02*
X110745961Y-76213408D01*
X110745961Y-76213408D02*
X110745961Y-76061027D01*
X110403104Y-76556265D02*
X111203104Y-76556265D01*
X111203104Y-76556265D02*
X111203104Y-76861027D01*
X111203104Y-76861027D02*
X111165009Y-76937217D01*
X111165009Y-76937217D02*
X111126914Y-76975312D01*
X111126914Y-76975312D02*
X111050723Y-77013408D01*
X111050723Y-77013408D02*
X110936438Y-77013408D01*
X110936438Y-77013408D02*
X110860247Y-76975312D01*
X110860247Y-76975312D02*
X110822152Y-76937217D01*
X110822152Y-76937217D02*
X110784057Y-76861027D01*
X110784057Y-76861027D02*
X110784057Y-76556265D01*
X110403104Y-77775312D02*
X110403104Y-77318169D01*
X110403104Y-77546741D02*
X111203104Y-77546741D01*
X111203104Y-77546741D02*
X111088819Y-77470550D01*
X111088819Y-77470550D02*
X111012628Y-77394360D01*
X111012628Y-77394360D02*
X110974533Y-77318169D01*
X111203104Y-78461027D02*
X111203104Y-78308646D01*
X111203104Y-78308646D02*
X111165009Y-78232455D01*
X111165009Y-78232455D02*
X111126914Y-78194360D01*
X111126914Y-78194360D02*
X111012628Y-78118170D01*
X111012628Y-78118170D02*
X110860247Y-78080074D01*
X110860247Y-78080074D02*
X110555485Y-78080074D01*
X110555485Y-78080074D02*
X110479295Y-78118170D01*
X110479295Y-78118170D02*
X110441200Y-78156265D01*
X110441200Y-78156265D02*
X110403104Y-78232455D01*
X110403104Y-78232455D02*
X110403104Y-78384836D01*
X110403104Y-78384836D02*
X110441200Y-78461027D01*
X110441200Y-78461027D02*
X110479295Y-78499122D01*
X110479295Y-78499122D02*
X110555485Y-78537217D01*
X110555485Y-78537217D02*
X110745961Y-78537217D01*
X110745961Y-78537217D02*
X110822152Y-78499122D01*
X110822152Y-78499122D02*
X110860247Y-78461027D01*
X110860247Y-78461027D02*
X110898342Y-78384836D01*
X110898342Y-78384836D02*
X110898342Y-78232455D01*
X110898342Y-78232455D02*
X110860247Y-78156265D01*
X110860247Y-78156265D02*
X110822152Y-78118170D01*
X110822152Y-78118170D02*
X110745961Y-78080074D01*
X95372931Y-74852847D02*
X95487217Y-74890942D01*
X95487217Y-74890942D02*
X95525312Y-74929038D01*
X95525312Y-74929038D02*
X95563408Y-75005228D01*
X95563408Y-75005228D02*
X95563408Y-75119514D01*
X95563408Y-75119514D02*
X95525312Y-75195704D01*
X95525312Y-75195704D02*
X95487217Y-75233800D01*
X95487217Y-75233800D02*
X95411027Y-75271895D01*
X95411027Y-75271895D02*
X95106265Y-75271895D01*
X95106265Y-75271895D02*
X95106265Y-74471895D01*
X95106265Y-74471895D02*
X95372931Y-74471895D01*
X95372931Y-74471895D02*
X95449122Y-74509990D01*
X95449122Y-74509990D02*
X95487217Y-74548085D01*
X95487217Y-74548085D02*
X95525312Y-74624276D01*
X95525312Y-74624276D02*
X95525312Y-74700466D01*
X95525312Y-74700466D02*
X95487217Y-74776657D01*
X95487217Y-74776657D02*
X95449122Y-74814752D01*
X95449122Y-74814752D02*
X95372931Y-74852847D01*
X95372931Y-74852847D02*
X95106265Y-74852847D01*
X95906265Y-75271895D02*
X95906265Y-74471895D01*
X96287217Y-75271895D02*
X96287217Y-74471895D01*
X96287217Y-74471895D02*
X96744360Y-75271895D01*
X96744360Y-75271895D02*
X96744360Y-74471895D01*
X97087216Y-74548085D02*
X97125312Y-74509990D01*
X97125312Y-74509990D02*
X97201502Y-74471895D01*
X97201502Y-74471895D02*
X97391978Y-74471895D01*
X97391978Y-74471895D02*
X97468169Y-74509990D01*
X97468169Y-74509990D02*
X97506264Y-74548085D01*
X97506264Y-74548085D02*
X97544359Y-74624276D01*
X97544359Y-74624276D02*
X97544359Y-74700466D01*
X97544359Y-74700466D02*
X97506264Y-74814752D01*
X97506264Y-74814752D02*
X97049121Y-75271895D01*
X97049121Y-75271895D02*
X97544359Y-75271895D01*
X95550312Y-79734990D02*
X95474122Y-79696895D01*
X95474122Y-79696895D02*
X95359836Y-79696895D01*
X95359836Y-79696895D02*
X95245550Y-79734990D01*
X95245550Y-79734990D02*
X95169360Y-79811180D01*
X95169360Y-79811180D02*
X95131265Y-79887371D01*
X95131265Y-79887371D02*
X95093169Y-80039752D01*
X95093169Y-80039752D02*
X95093169Y-80154038D01*
X95093169Y-80154038D02*
X95131265Y-80306419D01*
X95131265Y-80306419D02*
X95169360Y-80382609D01*
X95169360Y-80382609D02*
X95245550Y-80458800D01*
X95245550Y-80458800D02*
X95359836Y-80496895D01*
X95359836Y-80496895D02*
X95436027Y-80496895D01*
X95436027Y-80496895D02*
X95550312Y-80458800D01*
X95550312Y-80458800D02*
X95588408Y-80420704D01*
X95588408Y-80420704D02*
X95588408Y-80154038D01*
X95588408Y-80154038D02*
X95436027Y-80154038D01*
X95931265Y-80496895D02*
X95931265Y-79696895D01*
X95931265Y-79696895D02*
X96388408Y-80496895D01*
X96388408Y-80496895D02*
X96388408Y-79696895D01*
X96769360Y-80496895D02*
X96769360Y-79696895D01*
X96769360Y-79696895D02*
X96959836Y-79696895D01*
X96959836Y-79696895D02*
X97074122Y-79734990D01*
X97074122Y-79734990D02*
X97150312Y-79811180D01*
X97150312Y-79811180D02*
X97188407Y-79887371D01*
X97188407Y-79887371D02*
X97226503Y-80039752D01*
X97226503Y-80039752D02*
X97226503Y-80154038D01*
X97226503Y-80154038D02*
X97188407Y-80306419D01*
X97188407Y-80306419D02*
X97150312Y-80382609D01*
X97150312Y-80382609D02*
X97074122Y-80458800D01*
X97074122Y-80458800D02*
X96959836Y-80496895D01*
X96959836Y-80496895D02*
X96769360Y-80496895D01*
D11*
X88419048Y-95673866D02*
X89180953Y-95673866D01*
X88800000Y-96054819D02*
X88800000Y-95292914D01*
X138361905Y-95007200D02*
X138504762Y-95054819D01*
X138504762Y-95054819D02*
X138742857Y-95054819D01*
X138742857Y-95054819D02*
X138838095Y-95007200D01*
X138838095Y-95007200D02*
X138885714Y-94959580D01*
X138885714Y-94959580D02*
X138933333Y-94864342D01*
X138933333Y-94864342D02*
X138933333Y-94769104D01*
X138933333Y-94769104D02*
X138885714Y-94673866D01*
X138885714Y-94673866D02*
X138838095Y-94626247D01*
X138838095Y-94626247D02*
X138742857Y-94578628D01*
X138742857Y-94578628D02*
X138552381Y-94531009D01*
X138552381Y-94531009D02*
X138457143Y-94483390D01*
X138457143Y-94483390D02*
X138409524Y-94435771D01*
X138409524Y-94435771D02*
X138361905Y-94340533D01*
X138361905Y-94340533D02*
X138361905Y-94245295D01*
X138361905Y-94245295D02*
X138409524Y-94150057D01*
X138409524Y-94150057D02*
X138457143Y-94102438D01*
X138457143Y-94102438D02*
X138552381Y-94054819D01*
X138552381Y-94054819D02*
X138790476Y-94054819D01*
X138790476Y-94054819D02*
X138933333Y-94102438D01*
X139266667Y-94054819D02*
X139504762Y-95054819D01*
X139504762Y-95054819D02*
X139695238Y-94340533D01*
X139695238Y-94340533D02*
X139885714Y-95054819D01*
X139885714Y-95054819D02*
X140123810Y-94054819D01*
X140266667Y-95150057D02*
X141028571Y-95150057D01*
X141266667Y-95054819D02*
X141266667Y-94054819D01*
X141266667Y-94054819D02*
X141504762Y-94054819D01*
X141504762Y-94054819D02*
X141647619Y-94102438D01*
X141647619Y-94102438D02*
X141742857Y-94197676D01*
X141742857Y-94197676D02*
X141790476Y-94292914D01*
X141790476Y-94292914D02*
X141838095Y-94483390D01*
X141838095Y-94483390D02*
X141838095Y-94626247D01*
X141838095Y-94626247D02*
X141790476Y-94816723D01*
X141790476Y-94816723D02*
X141742857Y-94911961D01*
X141742857Y-94911961D02*
X141647619Y-95007200D01*
X141647619Y-95007200D02*
X141504762Y-95054819D01*
X141504762Y-95054819D02*
X141266667Y-95054819D01*
D10*
X78513408Y-55746895D02*
X78513408Y-54946895D01*
X78970551Y-55746895D02*
X78627693Y-55289752D01*
X78970551Y-54946895D02*
X78513408Y-55404038D01*
X78970551Y-54746895D02*
X78703884Y-54365942D01*
X78513408Y-54746895D02*
X78513408Y-53946895D01*
X78513408Y-53946895D02*
X78818170Y-53946895D01*
X78818170Y-53946895D02*
X78894360Y-53984990D01*
X78894360Y-53984990D02*
X78932455Y-54023085D01*
X78932455Y-54023085D02*
X78970551Y-54099276D01*
X78970551Y-54099276D02*
X78970551Y-54213561D01*
X78970551Y-54213561D02*
X78932455Y-54289752D01*
X78932455Y-54289752D02*
X78894360Y-54327847D01*
X78894360Y-54327847D02*
X78818170Y-54365942D01*
X78818170Y-54365942D02*
X78513408Y-54365942D01*
X95106265Y-62646895D02*
X95106265Y-61846895D01*
X95106265Y-61846895D02*
X95411027Y-61846895D01*
X95411027Y-61846895D02*
X95487217Y-61884990D01*
X95487217Y-61884990D02*
X95525312Y-61923085D01*
X95525312Y-61923085D02*
X95563408Y-61999276D01*
X95563408Y-61999276D02*
X95563408Y-62113561D01*
X95563408Y-62113561D02*
X95525312Y-62189752D01*
X95525312Y-62189752D02*
X95487217Y-62227847D01*
X95487217Y-62227847D02*
X95411027Y-62265942D01*
X95411027Y-62265942D02*
X95106265Y-62265942D01*
X95830074Y-61846895D02*
X96020550Y-62646895D01*
X96020550Y-62646895D02*
X96172931Y-62075466D01*
X96172931Y-62075466D02*
X96325312Y-62646895D01*
X96325312Y-62646895D02*
X96515789Y-61846895D01*
X96820551Y-62646895D02*
X96820551Y-61846895D01*
X96820551Y-61846895D02*
X97087217Y-62418323D01*
X97087217Y-62418323D02*
X97353884Y-61846895D01*
X97353884Y-61846895D02*
X97353884Y-62646895D01*
X97696741Y-62418323D02*
X98077694Y-62418323D01*
X97620551Y-62646895D02*
X97887218Y-61846895D01*
X97887218Y-61846895D02*
X98153884Y-62646895D01*
X77068169Y-67518323D02*
X77449122Y-67518323D01*
X76991979Y-67746895D02*
X77258646Y-66946895D01*
X77258646Y-66946895D02*
X77525312Y-67746895D01*
X77944360Y-66946895D02*
X78096741Y-66946895D01*
X78096741Y-66946895D02*
X78172931Y-66984990D01*
X78172931Y-66984990D02*
X78249122Y-67061180D01*
X78249122Y-67061180D02*
X78287217Y-67213561D01*
X78287217Y-67213561D02*
X78287217Y-67480228D01*
X78287217Y-67480228D02*
X78249122Y-67632609D01*
X78249122Y-67632609D02*
X78172931Y-67708800D01*
X78172931Y-67708800D02*
X78096741Y-67746895D01*
X78096741Y-67746895D02*
X77944360Y-67746895D01*
X77944360Y-67746895D02*
X77868169Y-67708800D01*
X77868169Y-67708800D02*
X77791979Y-67632609D01*
X77791979Y-67632609D02*
X77753883Y-67480228D01*
X77753883Y-67480228D02*
X77753883Y-67213561D01*
X77753883Y-67213561D02*
X77791979Y-67061180D01*
X77791979Y-67061180D02*
X77868169Y-66984990D01*
X77868169Y-66984990D02*
X77944360Y-66946895D01*
X79049121Y-67746895D02*
X78591978Y-67746895D01*
X78820550Y-67746895D02*
X78820550Y-66946895D01*
X78820550Y-66946895D02*
X78744359Y-67061180D01*
X78744359Y-67061180D02*
X78668169Y-67137371D01*
X78668169Y-67137371D02*
X78591978Y-67175466D01*
X95422931Y-72402847D02*
X95537217Y-72440942D01*
X95537217Y-72440942D02*
X95575312Y-72479038D01*
X95575312Y-72479038D02*
X95613408Y-72555228D01*
X95613408Y-72555228D02*
X95613408Y-72669514D01*
X95613408Y-72669514D02*
X95575312Y-72745704D01*
X95575312Y-72745704D02*
X95537217Y-72783800D01*
X95537217Y-72783800D02*
X95461027Y-72821895D01*
X95461027Y-72821895D02*
X95156265Y-72821895D01*
X95156265Y-72821895D02*
X95156265Y-72021895D01*
X95156265Y-72021895D02*
X95422931Y-72021895D01*
X95422931Y-72021895D02*
X95499122Y-72059990D01*
X95499122Y-72059990D02*
X95537217Y-72098085D01*
X95537217Y-72098085D02*
X95575312Y-72174276D01*
X95575312Y-72174276D02*
X95575312Y-72250466D01*
X95575312Y-72250466D02*
X95537217Y-72326657D01*
X95537217Y-72326657D02*
X95499122Y-72364752D01*
X95499122Y-72364752D02*
X95422931Y-72402847D01*
X95422931Y-72402847D02*
X95156265Y-72402847D01*
X95956265Y-72821895D02*
X95956265Y-72021895D01*
X96337217Y-72821895D02*
X96337217Y-72021895D01*
X96337217Y-72021895D02*
X96794360Y-72821895D01*
X96794360Y-72821895D02*
X96794360Y-72021895D01*
X97594359Y-72821895D02*
X97137216Y-72821895D01*
X97365788Y-72821895D02*
X97365788Y-72021895D01*
X97365788Y-72021895D02*
X97289597Y-72136180D01*
X97289597Y-72136180D02*
X97213407Y-72212371D01*
X97213407Y-72212371D02*
X97137216Y-72250466D01*
X111065009Y-64575312D02*
X111103104Y-64499122D01*
X111103104Y-64499122D02*
X111103104Y-64384836D01*
X111103104Y-64384836D02*
X111065009Y-64270550D01*
X111065009Y-64270550D02*
X110988819Y-64194360D01*
X110988819Y-64194360D02*
X110912628Y-64156265D01*
X110912628Y-64156265D02*
X110760247Y-64118169D01*
X110760247Y-64118169D02*
X110645961Y-64118169D01*
X110645961Y-64118169D02*
X110493580Y-64156265D01*
X110493580Y-64156265D02*
X110417390Y-64194360D01*
X110417390Y-64194360D02*
X110341200Y-64270550D01*
X110341200Y-64270550D02*
X110303104Y-64384836D01*
X110303104Y-64384836D02*
X110303104Y-64461027D01*
X110303104Y-64461027D02*
X110341200Y-64575312D01*
X110341200Y-64575312D02*
X110379295Y-64613408D01*
X110379295Y-64613408D02*
X110645961Y-64613408D01*
X110645961Y-64613408D02*
X110645961Y-64461027D01*
X110303104Y-64956265D02*
X111103104Y-64956265D01*
X111103104Y-64956265D02*
X111103104Y-65261027D01*
X111103104Y-65261027D02*
X111065009Y-65337217D01*
X111065009Y-65337217D02*
X111026914Y-65375312D01*
X111026914Y-65375312D02*
X110950723Y-65413408D01*
X110950723Y-65413408D02*
X110836438Y-65413408D01*
X110836438Y-65413408D02*
X110760247Y-65375312D01*
X110760247Y-65375312D02*
X110722152Y-65337217D01*
X110722152Y-65337217D02*
X110684057Y-65261027D01*
X110684057Y-65261027D02*
X110684057Y-64956265D01*
X110303104Y-66175312D02*
X110303104Y-65718169D01*
X110303104Y-65946741D02*
X111103104Y-65946741D01*
X111103104Y-65946741D02*
X110988819Y-65870550D01*
X110988819Y-65870550D02*
X110912628Y-65794360D01*
X110912628Y-65794360D02*
X110874533Y-65718169D01*
X111103104Y-66899122D02*
X111103104Y-66518170D01*
X111103104Y-66518170D02*
X110722152Y-66480074D01*
X110722152Y-66480074D02*
X110760247Y-66518170D01*
X110760247Y-66518170D02*
X110798342Y-66594360D01*
X110798342Y-66594360D02*
X110798342Y-66784836D01*
X110798342Y-66784836D02*
X110760247Y-66861027D01*
X110760247Y-66861027D02*
X110722152Y-66899122D01*
X110722152Y-66899122D02*
X110645961Y-66937217D01*
X110645961Y-66937217D02*
X110455485Y-66937217D01*
X110455485Y-66937217D02*
X110379295Y-66899122D01*
X110379295Y-66899122D02*
X110341200Y-66861027D01*
X110341200Y-66861027D02*
X110303104Y-66784836D01*
X110303104Y-66784836D02*
X110303104Y-66594360D01*
X110303104Y-66594360D02*
X110341200Y-66518170D01*
X110341200Y-66518170D02*
X110379295Y-66480074D01*
X77068169Y-70018323D02*
X77449122Y-70018323D01*
X76991979Y-70246895D02*
X77258646Y-69446895D01*
X77258646Y-69446895D02*
X77525312Y-70246895D01*
X77944360Y-69446895D02*
X78096741Y-69446895D01*
X78096741Y-69446895D02*
X78172931Y-69484990D01*
X78172931Y-69484990D02*
X78249122Y-69561180D01*
X78249122Y-69561180D02*
X78287217Y-69713561D01*
X78287217Y-69713561D02*
X78287217Y-69980228D01*
X78287217Y-69980228D02*
X78249122Y-70132609D01*
X78249122Y-70132609D02*
X78172931Y-70208800D01*
X78172931Y-70208800D02*
X78096741Y-70246895D01*
X78096741Y-70246895D02*
X77944360Y-70246895D01*
X77944360Y-70246895D02*
X77868169Y-70208800D01*
X77868169Y-70208800D02*
X77791979Y-70132609D01*
X77791979Y-70132609D02*
X77753883Y-69980228D01*
X77753883Y-69980228D02*
X77753883Y-69713561D01*
X77753883Y-69713561D02*
X77791979Y-69561180D01*
X77791979Y-69561180D02*
X77868169Y-69484990D01*
X77868169Y-69484990D02*
X77944360Y-69446895D01*
X78591978Y-69523085D02*
X78630074Y-69484990D01*
X78630074Y-69484990D02*
X78706264Y-69446895D01*
X78706264Y-69446895D02*
X78896740Y-69446895D01*
X78896740Y-69446895D02*
X78972931Y-69484990D01*
X78972931Y-69484990D02*
X79011026Y-69523085D01*
X79011026Y-69523085D02*
X79049121Y-69599276D01*
X79049121Y-69599276D02*
X79049121Y-69675466D01*
X79049121Y-69675466D02*
X79011026Y-69789752D01*
X79011026Y-69789752D02*
X78553883Y-70246895D01*
X78553883Y-70246895D02*
X79049121Y-70246895D01*
X95131265Y-77896895D02*
X95131265Y-77096895D01*
X95131265Y-77096895D02*
X95436027Y-77096895D01*
X95436027Y-77096895D02*
X95512217Y-77134990D01*
X95512217Y-77134990D02*
X95550312Y-77173085D01*
X95550312Y-77173085D02*
X95588408Y-77249276D01*
X95588408Y-77249276D02*
X95588408Y-77363561D01*
X95588408Y-77363561D02*
X95550312Y-77439752D01*
X95550312Y-77439752D02*
X95512217Y-77477847D01*
X95512217Y-77477847D02*
X95436027Y-77515942D01*
X95436027Y-77515942D02*
X95131265Y-77515942D01*
X95855074Y-77096895D02*
X96045550Y-77896895D01*
X96045550Y-77896895D02*
X96197931Y-77325466D01*
X96197931Y-77325466D02*
X96350312Y-77896895D01*
X96350312Y-77896895D02*
X96540789Y-77096895D01*
X96845551Y-77896895D02*
X96845551Y-77096895D01*
X96845551Y-77096895D02*
X97112217Y-77668323D01*
X97112217Y-77668323D02*
X97378884Y-77096895D01*
X97378884Y-77096895D02*
X97378884Y-77896895D01*
X98026503Y-77477847D02*
X98140789Y-77515942D01*
X98140789Y-77515942D02*
X98178884Y-77554038D01*
X98178884Y-77554038D02*
X98216980Y-77630228D01*
X98216980Y-77630228D02*
X98216980Y-77744514D01*
X98216980Y-77744514D02*
X98178884Y-77820704D01*
X98178884Y-77820704D02*
X98140789Y-77858800D01*
X98140789Y-77858800D02*
X98064599Y-77896895D01*
X98064599Y-77896895D02*
X97759837Y-77896895D01*
X97759837Y-77896895D02*
X97759837Y-77096895D01*
X97759837Y-77096895D02*
X98026503Y-77096895D01*
X98026503Y-77096895D02*
X98102694Y-77134990D01*
X98102694Y-77134990D02*
X98140789Y-77173085D01*
X98140789Y-77173085D02*
X98178884Y-77249276D01*
X98178884Y-77249276D02*
X98178884Y-77325466D01*
X98178884Y-77325466D02*
X98140789Y-77401657D01*
X98140789Y-77401657D02*
X98102694Y-77439752D01*
X98102694Y-77439752D02*
X98026503Y-77477847D01*
X98026503Y-77477847D02*
X97759837Y-77477847D01*
X146458800Y-58981830D02*
X146496895Y-58867544D01*
X146496895Y-58867544D02*
X146496895Y-58677068D01*
X146496895Y-58677068D02*
X146458800Y-58600877D01*
X146458800Y-58600877D02*
X146420704Y-58562782D01*
X146420704Y-58562782D02*
X146344514Y-58524687D01*
X146344514Y-58524687D02*
X146268323Y-58524687D01*
X146268323Y-58524687D02*
X146192133Y-58562782D01*
X146192133Y-58562782D02*
X146154038Y-58600877D01*
X146154038Y-58600877D02*
X146115942Y-58677068D01*
X146115942Y-58677068D02*
X146077847Y-58829449D01*
X146077847Y-58829449D02*
X146039752Y-58905639D01*
X146039752Y-58905639D02*
X146001657Y-58943734D01*
X146001657Y-58943734D02*
X145925466Y-58981830D01*
X145925466Y-58981830D02*
X145849276Y-58981830D01*
X145849276Y-58981830D02*
X145773085Y-58943734D01*
X145773085Y-58943734D02*
X145734990Y-58905639D01*
X145734990Y-58905639D02*
X145696895Y-58829449D01*
X145696895Y-58829449D02*
X145696895Y-58638972D01*
X145696895Y-58638972D02*
X145734990Y-58524687D01*
X146496895Y-57724686D02*
X146115942Y-57991353D01*
X146496895Y-58181829D02*
X145696895Y-58181829D01*
X145696895Y-58181829D02*
X145696895Y-57877067D01*
X145696895Y-57877067D02*
X145734990Y-57800877D01*
X145734990Y-57800877D02*
X145773085Y-57762782D01*
X145773085Y-57762782D02*
X145849276Y-57724686D01*
X145849276Y-57724686D02*
X145963561Y-57724686D01*
X145963561Y-57724686D02*
X146039752Y-57762782D01*
X146039752Y-57762782D02*
X146077847Y-57800877D01*
X146077847Y-57800877D02*
X146115942Y-57877067D01*
X146115942Y-57877067D02*
X146115942Y-58181829D01*
X145696895Y-57458020D02*
X146496895Y-56924686D01*
X145696895Y-56924686D02*
X146496895Y-57458020D01*
X145696895Y-56467543D02*
X145696895Y-56391353D01*
X145696895Y-56391353D02*
X145734990Y-56315162D01*
X145734990Y-56315162D02*
X145773085Y-56277067D01*
X145773085Y-56277067D02*
X145849276Y-56238972D01*
X145849276Y-56238972D02*
X146001657Y-56200877D01*
X146001657Y-56200877D02*
X146192133Y-56200877D01*
X146192133Y-56200877D02*
X146344514Y-56238972D01*
X146344514Y-56238972D02*
X146420704Y-56277067D01*
X146420704Y-56277067D02*
X146458800Y-56315162D01*
X146458800Y-56315162D02*
X146496895Y-56391353D01*
X146496895Y-56391353D02*
X146496895Y-56467543D01*
X146496895Y-56467543D02*
X146458800Y-56543734D01*
X146458800Y-56543734D02*
X146420704Y-56581829D01*
X146420704Y-56581829D02*
X146344514Y-56619924D01*
X146344514Y-56619924D02*
X146192133Y-56658020D01*
X146192133Y-56658020D02*
X146001657Y-56658020D01*
X146001657Y-56658020D02*
X145849276Y-56619924D01*
X145849276Y-56619924D02*
X145773085Y-56581829D01*
X145773085Y-56581829D02*
X145734990Y-56543734D01*
X145734990Y-56543734D02*
X145696895Y-56467543D01*
D11*
X83774874Y-70794295D02*
X84232017Y-70794295D01*
X84003445Y-71594295D02*
X84003445Y-70794295D01*
X84765350Y-71175247D02*
X84879636Y-71213342D01*
X84879636Y-71213342D02*
X84917731Y-71251438D01*
X84917731Y-71251438D02*
X84955827Y-71327628D01*
X84955827Y-71327628D02*
X84955827Y-71441914D01*
X84955827Y-71441914D02*
X84917731Y-71518104D01*
X84917731Y-71518104D02*
X84879636Y-71556200D01*
X84879636Y-71556200D02*
X84803446Y-71594295D01*
X84803446Y-71594295D02*
X84498684Y-71594295D01*
X84498684Y-71594295D02*
X84498684Y-70794295D01*
X84498684Y-70794295D02*
X84765350Y-70794295D01*
X84765350Y-70794295D02*
X84841541Y-70832390D01*
X84841541Y-70832390D02*
X84879636Y-70870485D01*
X84879636Y-70870485D02*
X84917731Y-70946676D01*
X84917731Y-70946676D02*
X84917731Y-71022866D01*
X84917731Y-71022866D02*
X84879636Y-71099057D01*
X84879636Y-71099057D02*
X84841541Y-71137152D01*
X84841541Y-71137152D02*
X84765350Y-71175247D01*
X84765350Y-71175247D02*
X84498684Y-71175247D01*
X85641541Y-70794295D02*
X85489160Y-70794295D01*
X85489160Y-70794295D02*
X85412969Y-70832390D01*
X85412969Y-70832390D02*
X85374874Y-70870485D01*
X85374874Y-70870485D02*
X85298684Y-70984771D01*
X85298684Y-70984771D02*
X85260588Y-71137152D01*
X85260588Y-71137152D02*
X85260588Y-71441914D01*
X85260588Y-71441914D02*
X85298684Y-71518104D01*
X85298684Y-71518104D02*
X85336779Y-71556200D01*
X85336779Y-71556200D02*
X85412969Y-71594295D01*
X85412969Y-71594295D02*
X85565350Y-71594295D01*
X85565350Y-71594295D02*
X85641541Y-71556200D01*
X85641541Y-71556200D02*
X85679636Y-71518104D01*
X85679636Y-71518104D02*
X85717731Y-71441914D01*
X85717731Y-71441914D02*
X85717731Y-71251438D01*
X85717731Y-71251438D02*
X85679636Y-71175247D01*
X85679636Y-71175247D02*
X85641541Y-71137152D01*
X85641541Y-71137152D02*
X85565350Y-71099057D01*
X85565350Y-71099057D02*
X85412969Y-71099057D01*
X85412969Y-71099057D02*
X85336779Y-71137152D01*
X85336779Y-71137152D02*
X85298684Y-71175247D01*
X85298684Y-71175247D02*
X85260588Y-71251438D01*
X86403446Y-70794295D02*
X86251065Y-70794295D01*
X86251065Y-70794295D02*
X86174874Y-70832390D01*
X86174874Y-70832390D02*
X86136779Y-70870485D01*
X86136779Y-70870485D02*
X86060589Y-70984771D01*
X86060589Y-70984771D02*
X86022493Y-71137152D01*
X86022493Y-71137152D02*
X86022493Y-71441914D01*
X86022493Y-71441914D02*
X86060589Y-71518104D01*
X86060589Y-71518104D02*
X86098684Y-71556200D01*
X86098684Y-71556200D02*
X86174874Y-71594295D01*
X86174874Y-71594295D02*
X86327255Y-71594295D01*
X86327255Y-71594295D02*
X86403446Y-71556200D01*
X86403446Y-71556200D02*
X86441541Y-71518104D01*
X86441541Y-71518104D02*
X86479636Y-71441914D01*
X86479636Y-71441914D02*
X86479636Y-71251438D01*
X86479636Y-71251438D02*
X86441541Y-71175247D01*
X86441541Y-71175247D02*
X86403446Y-71137152D01*
X86403446Y-71137152D02*
X86327255Y-71099057D01*
X86327255Y-71099057D02*
X86174874Y-71099057D01*
X86174874Y-71099057D02*
X86098684Y-71137152D01*
X86098684Y-71137152D02*
X86060589Y-71175247D01*
X86060589Y-71175247D02*
X86022493Y-71251438D01*
X87241541Y-71594295D02*
X86784398Y-71594295D01*
X87012970Y-71594295D02*
X87012970Y-70794295D01*
X87012970Y-70794295D02*
X86936779Y-70908580D01*
X86936779Y-70908580D02*
X86860589Y-70984771D01*
X86860589Y-70984771D02*
X86784398Y-71022866D01*
X87546303Y-70870485D02*
X87584399Y-70832390D01*
X87584399Y-70832390D02*
X87660589Y-70794295D01*
X87660589Y-70794295D02*
X87851065Y-70794295D01*
X87851065Y-70794295D02*
X87927256Y-70832390D01*
X87927256Y-70832390D02*
X87965351Y-70870485D01*
X87965351Y-70870485D02*
X88003446Y-70946676D01*
X88003446Y-70946676D02*
X88003446Y-71022866D01*
X88003446Y-71022866D02*
X87965351Y-71137152D01*
X87965351Y-71137152D02*
X87508208Y-71594295D01*
X87508208Y-71594295D02*
X88003446Y-71594295D01*
X88612970Y-71175247D02*
X88346304Y-71175247D01*
X88346304Y-71594295D02*
X88346304Y-70794295D01*
X88346304Y-70794295D02*
X88727256Y-70794295D01*
X89032018Y-71594295D02*
X89032018Y-70794295D01*
X89032018Y-70794295D02*
X89489161Y-71594295D01*
X89489161Y-71594295D02*
X89489161Y-70794295D01*
X90289160Y-70832390D02*
X90212970Y-70794295D01*
X90212970Y-70794295D02*
X90098684Y-70794295D01*
X90098684Y-70794295D02*
X89984398Y-70832390D01*
X89984398Y-70832390D02*
X89908208Y-70908580D01*
X89908208Y-70908580D02*
X89870113Y-70984771D01*
X89870113Y-70984771D02*
X89832017Y-71137152D01*
X89832017Y-71137152D02*
X89832017Y-71251438D01*
X89832017Y-71251438D02*
X89870113Y-71403819D01*
X89870113Y-71403819D02*
X89908208Y-71480009D01*
X89908208Y-71480009D02*
X89984398Y-71556200D01*
X89984398Y-71556200D02*
X90098684Y-71594295D01*
X90098684Y-71594295D02*
X90174875Y-71594295D01*
X90174875Y-71594295D02*
X90289160Y-71556200D01*
X90289160Y-71556200D02*
X90327256Y-71518104D01*
X90327256Y-71518104D02*
X90327256Y-71251438D01*
X90327256Y-71251438D02*
X90174875Y-71251438D01*
D10*
X159258609Y-64675312D02*
X159296704Y-64599122D01*
X159296704Y-64599122D02*
X159296704Y-64484836D01*
X159296704Y-64484836D02*
X159258609Y-64370550D01*
X159258609Y-64370550D02*
X159182419Y-64294360D01*
X159182419Y-64294360D02*
X159106228Y-64256265D01*
X159106228Y-64256265D02*
X158953847Y-64218169D01*
X158953847Y-64218169D02*
X158839561Y-64218169D01*
X158839561Y-64218169D02*
X158687180Y-64256265D01*
X158687180Y-64256265D02*
X158610990Y-64294360D01*
X158610990Y-64294360D02*
X158534800Y-64370550D01*
X158534800Y-64370550D02*
X158496704Y-64484836D01*
X158496704Y-64484836D02*
X158496704Y-64561027D01*
X158496704Y-64561027D02*
X158534800Y-64675312D01*
X158534800Y-64675312D02*
X158572895Y-64713408D01*
X158572895Y-64713408D02*
X158839561Y-64713408D01*
X158839561Y-64713408D02*
X158839561Y-64561027D01*
X158496704Y-65056265D02*
X159296704Y-65056265D01*
X159296704Y-65056265D02*
X159296704Y-65361027D01*
X159296704Y-65361027D02*
X159258609Y-65437217D01*
X159258609Y-65437217D02*
X159220514Y-65475312D01*
X159220514Y-65475312D02*
X159144323Y-65513408D01*
X159144323Y-65513408D02*
X159030038Y-65513408D01*
X159030038Y-65513408D02*
X158953847Y-65475312D01*
X158953847Y-65475312D02*
X158915752Y-65437217D01*
X158915752Y-65437217D02*
X158877657Y-65361027D01*
X158877657Y-65361027D02*
X158877657Y-65056265D01*
X159296704Y-66008646D02*
X159296704Y-66084836D01*
X159296704Y-66084836D02*
X159258609Y-66161027D01*
X159258609Y-66161027D02*
X159220514Y-66199122D01*
X159220514Y-66199122D02*
X159144323Y-66237217D01*
X159144323Y-66237217D02*
X158991942Y-66275312D01*
X158991942Y-66275312D02*
X158801466Y-66275312D01*
X158801466Y-66275312D02*
X158649085Y-66237217D01*
X158649085Y-66237217D02*
X158572895Y-66199122D01*
X158572895Y-66199122D02*
X158534800Y-66161027D01*
X158534800Y-66161027D02*
X158496704Y-66084836D01*
X158496704Y-66084836D02*
X158496704Y-66008646D01*
X158496704Y-66008646D02*
X158534800Y-65932455D01*
X158534800Y-65932455D02*
X158572895Y-65894360D01*
X158572895Y-65894360D02*
X158649085Y-65856265D01*
X158649085Y-65856265D02*
X158801466Y-65818169D01*
X158801466Y-65818169D02*
X158991942Y-65818169D01*
X158991942Y-65818169D02*
X159144323Y-65856265D01*
X159144323Y-65856265D02*
X159220514Y-65894360D01*
X159220514Y-65894360D02*
X159258609Y-65932455D01*
X159258609Y-65932455D02*
X159296704Y-66008646D01*
X77350312Y-79684990D02*
X77274122Y-79646895D01*
X77274122Y-79646895D02*
X77159836Y-79646895D01*
X77159836Y-79646895D02*
X77045550Y-79684990D01*
X77045550Y-79684990D02*
X76969360Y-79761180D01*
X76969360Y-79761180D02*
X76931265Y-79837371D01*
X76931265Y-79837371D02*
X76893169Y-79989752D01*
X76893169Y-79989752D02*
X76893169Y-80104038D01*
X76893169Y-80104038D02*
X76931265Y-80256419D01*
X76931265Y-80256419D02*
X76969360Y-80332609D01*
X76969360Y-80332609D02*
X77045550Y-80408800D01*
X77045550Y-80408800D02*
X77159836Y-80446895D01*
X77159836Y-80446895D02*
X77236027Y-80446895D01*
X77236027Y-80446895D02*
X77350312Y-80408800D01*
X77350312Y-80408800D02*
X77388408Y-80370704D01*
X77388408Y-80370704D02*
X77388408Y-80104038D01*
X77388408Y-80104038D02*
X77236027Y-80104038D01*
X77731265Y-80446895D02*
X77731265Y-79646895D01*
X77731265Y-79646895D02*
X78188408Y-80446895D01*
X78188408Y-80446895D02*
X78188408Y-79646895D01*
X78569360Y-80446895D02*
X78569360Y-79646895D01*
X78569360Y-79646895D02*
X78759836Y-79646895D01*
X78759836Y-79646895D02*
X78874122Y-79684990D01*
X78874122Y-79684990D02*
X78950312Y-79761180D01*
X78950312Y-79761180D02*
X78988407Y-79837371D01*
X78988407Y-79837371D02*
X79026503Y-79989752D01*
X79026503Y-79989752D02*
X79026503Y-80104038D01*
X79026503Y-80104038D02*
X78988407Y-80256419D01*
X78988407Y-80256419D02*
X78950312Y-80332609D01*
X78950312Y-80332609D02*
X78874122Y-80408800D01*
X78874122Y-80408800D02*
X78759836Y-80446895D01*
X78759836Y-80446895D02*
X78569360Y-80446895D01*
D11*
X128138095Y-95107200D02*
X128280952Y-95154819D01*
X128280952Y-95154819D02*
X128519047Y-95154819D01*
X128519047Y-95154819D02*
X128614285Y-95107200D01*
X128614285Y-95107200D02*
X128661904Y-95059580D01*
X128661904Y-95059580D02*
X128709523Y-94964342D01*
X128709523Y-94964342D02*
X128709523Y-94869104D01*
X128709523Y-94869104D02*
X128661904Y-94773866D01*
X128661904Y-94773866D02*
X128614285Y-94726247D01*
X128614285Y-94726247D02*
X128519047Y-94678628D01*
X128519047Y-94678628D02*
X128328571Y-94631009D01*
X128328571Y-94631009D02*
X128233333Y-94583390D01*
X128233333Y-94583390D02*
X128185714Y-94535771D01*
X128185714Y-94535771D02*
X128138095Y-94440533D01*
X128138095Y-94440533D02*
X128138095Y-94345295D01*
X128138095Y-94345295D02*
X128185714Y-94250057D01*
X128185714Y-94250057D02*
X128233333Y-94202438D01*
X128233333Y-94202438D02*
X128328571Y-94154819D01*
X128328571Y-94154819D02*
X128566666Y-94154819D01*
X128566666Y-94154819D02*
X128709523Y-94202438D01*
X129042857Y-94154819D02*
X129280952Y-95154819D01*
X129280952Y-95154819D02*
X129471428Y-94440533D01*
X129471428Y-94440533D02*
X129661904Y-95154819D01*
X129661904Y-95154819D02*
X129900000Y-94154819D01*
X130042857Y-95250057D02*
X130804761Y-95250057D01*
X131042857Y-94154819D02*
X131042857Y-94964342D01*
X131042857Y-94964342D02*
X131090476Y-95059580D01*
X131090476Y-95059580D02*
X131138095Y-95107200D01*
X131138095Y-95107200D02*
X131233333Y-95154819D01*
X131233333Y-95154819D02*
X131423809Y-95154819D01*
X131423809Y-95154819D02*
X131519047Y-95107200D01*
X131519047Y-95107200D02*
X131566666Y-95059580D01*
X131566666Y-95059580D02*
X131614285Y-94964342D01*
X131614285Y-94964342D02*
X131614285Y-94154819D01*
D10*
X77272931Y-75027847D02*
X77387217Y-75065942D01*
X77387217Y-75065942D02*
X77425312Y-75104038D01*
X77425312Y-75104038D02*
X77463408Y-75180228D01*
X77463408Y-75180228D02*
X77463408Y-75294514D01*
X77463408Y-75294514D02*
X77425312Y-75370704D01*
X77425312Y-75370704D02*
X77387217Y-75408800D01*
X77387217Y-75408800D02*
X77311027Y-75446895D01*
X77311027Y-75446895D02*
X77006265Y-75446895D01*
X77006265Y-75446895D02*
X77006265Y-74646895D01*
X77006265Y-74646895D02*
X77272931Y-74646895D01*
X77272931Y-74646895D02*
X77349122Y-74684990D01*
X77349122Y-74684990D02*
X77387217Y-74723085D01*
X77387217Y-74723085D02*
X77425312Y-74799276D01*
X77425312Y-74799276D02*
X77425312Y-74875466D01*
X77425312Y-74875466D02*
X77387217Y-74951657D01*
X77387217Y-74951657D02*
X77349122Y-74989752D01*
X77349122Y-74989752D02*
X77272931Y-75027847D01*
X77272931Y-75027847D02*
X77006265Y-75027847D01*
X77958646Y-74646895D02*
X78111027Y-74646895D01*
X78111027Y-74646895D02*
X78187217Y-74684990D01*
X78187217Y-74684990D02*
X78263408Y-74761180D01*
X78263408Y-74761180D02*
X78301503Y-74913561D01*
X78301503Y-74913561D02*
X78301503Y-75180228D01*
X78301503Y-75180228D02*
X78263408Y-75332609D01*
X78263408Y-75332609D02*
X78187217Y-75408800D01*
X78187217Y-75408800D02*
X78111027Y-75446895D01*
X78111027Y-75446895D02*
X77958646Y-75446895D01*
X77958646Y-75446895D02*
X77882455Y-75408800D01*
X77882455Y-75408800D02*
X77806265Y-75332609D01*
X77806265Y-75332609D02*
X77768169Y-75180228D01*
X77768169Y-75180228D02*
X77768169Y-74913561D01*
X77768169Y-74913561D02*
X77806265Y-74761180D01*
X77806265Y-74761180D02*
X77882455Y-74684990D01*
X77882455Y-74684990D02*
X77958646Y-74646895D01*
X79063407Y-75446895D02*
X78606264Y-75446895D01*
X78834836Y-75446895D02*
X78834836Y-74646895D01*
X78834836Y-74646895D02*
X78758645Y-74761180D01*
X78758645Y-74761180D02*
X78682455Y-74837371D01*
X78682455Y-74837371D02*
X78606264Y-74875466D01*
D11*
X82138096Y-54806340D02*
X81871429Y-54425387D01*
X81680953Y-54806340D02*
X81680953Y-54006340D01*
X81680953Y-54006340D02*
X81985715Y-54006340D01*
X81985715Y-54006340D02*
X82061905Y-54044435D01*
X82061905Y-54044435D02*
X82100000Y-54082530D01*
X82100000Y-54082530D02*
X82138096Y-54158721D01*
X82138096Y-54158721D02*
X82138096Y-54273006D01*
X82138096Y-54273006D02*
X82100000Y-54349197D01*
X82100000Y-54349197D02*
X82061905Y-54387292D01*
X82061905Y-54387292D02*
X81985715Y-54425387D01*
X81985715Y-54425387D02*
X81680953Y-54425387D01*
X82900000Y-54806340D02*
X82442857Y-54806340D01*
X82671429Y-54806340D02*
X82671429Y-54006340D01*
X82671429Y-54006340D02*
X82595238Y-54120625D01*
X82595238Y-54120625D02*
X82519048Y-54196816D01*
X82519048Y-54196816D02*
X82442857Y-54234911D01*
X83852382Y-54806340D02*
X83852382Y-54006340D01*
X83852382Y-54006340D02*
X84042858Y-54006340D01*
X84042858Y-54006340D02*
X84157144Y-54044435D01*
X84157144Y-54044435D02*
X84233334Y-54120625D01*
X84233334Y-54120625D02*
X84271429Y-54196816D01*
X84271429Y-54196816D02*
X84309525Y-54349197D01*
X84309525Y-54349197D02*
X84309525Y-54463483D01*
X84309525Y-54463483D02*
X84271429Y-54615864D01*
X84271429Y-54615864D02*
X84233334Y-54692054D01*
X84233334Y-54692054D02*
X84157144Y-54768245D01*
X84157144Y-54768245D02*
X84042858Y-54806340D01*
X84042858Y-54806340D02*
X83852382Y-54806340D01*
X84652382Y-54806340D02*
X84652382Y-54273006D01*
X84652382Y-54006340D02*
X84614286Y-54044435D01*
X84614286Y-54044435D02*
X84652382Y-54082530D01*
X84652382Y-54082530D02*
X84690477Y-54044435D01*
X84690477Y-54044435D02*
X84652382Y-54006340D01*
X84652382Y-54006340D02*
X84652382Y-54082530D01*
X84919048Y-54273006D02*
X85223810Y-54273006D01*
X85033334Y-54806340D02*
X85033334Y-54120625D01*
X85033334Y-54120625D02*
X85071429Y-54044435D01*
X85071429Y-54044435D02*
X85147619Y-54006340D01*
X85147619Y-54006340D02*
X85223810Y-54006340D01*
X85376191Y-54273006D02*
X85680953Y-54273006D01*
X85490477Y-54806340D02*
X85490477Y-54120625D01*
X85490477Y-54120625D02*
X85528572Y-54044435D01*
X85528572Y-54044435D02*
X85604762Y-54006340D01*
X85604762Y-54006340D02*
X85680953Y-54006340D01*
X85947620Y-54806340D02*
X85947620Y-54006340D01*
X85947620Y-54006340D02*
X86138096Y-54006340D01*
X86138096Y-54006340D02*
X86252382Y-54044435D01*
X86252382Y-54044435D02*
X86328572Y-54120625D01*
X86328572Y-54120625D02*
X86366667Y-54196816D01*
X86366667Y-54196816D02*
X86404763Y-54349197D01*
X86404763Y-54349197D02*
X86404763Y-54463483D01*
X86404763Y-54463483D02*
X86366667Y-54615864D01*
X86366667Y-54615864D02*
X86328572Y-54692054D01*
X86328572Y-54692054D02*
X86252382Y-54768245D01*
X86252382Y-54768245D02*
X86138096Y-54806340D01*
X86138096Y-54806340D02*
X85947620Y-54806340D01*
X86747620Y-54806340D02*
X86747620Y-54273006D01*
X86747620Y-54425387D02*
X86785715Y-54349197D01*
X86785715Y-54349197D02*
X86823810Y-54311102D01*
X86823810Y-54311102D02*
X86900001Y-54273006D01*
X86900001Y-54273006D02*
X86976191Y-54273006D01*
X87242858Y-54806340D02*
X87242858Y-54273006D01*
X87242858Y-54006340D02*
X87204762Y-54044435D01*
X87204762Y-54044435D02*
X87242858Y-54082530D01*
X87242858Y-54082530D02*
X87280953Y-54044435D01*
X87280953Y-54044435D02*
X87242858Y-54006340D01*
X87242858Y-54006340D02*
X87242858Y-54082530D01*
X87547619Y-54273006D02*
X87738095Y-54806340D01*
X87738095Y-54806340D02*
X87928572Y-54273006D01*
X88538096Y-54768245D02*
X88461905Y-54806340D01*
X88461905Y-54806340D02*
X88309524Y-54806340D01*
X88309524Y-54806340D02*
X88233334Y-54768245D01*
X88233334Y-54768245D02*
X88195238Y-54692054D01*
X88195238Y-54692054D02*
X88195238Y-54387292D01*
X88195238Y-54387292D02*
X88233334Y-54311102D01*
X88233334Y-54311102D02*
X88309524Y-54273006D01*
X88309524Y-54273006D02*
X88461905Y-54273006D01*
X88461905Y-54273006D02*
X88538096Y-54311102D01*
X88538096Y-54311102D02*
X88576191Y-54387292D01*
X88576191Y-54387292D02*
X88576191Y-54463483D01*
X88576191Y-54463483D02*
X88195238Y-54539673D01*
X88919048Y-54806340D02*
X88919048Y-54273006D01*
X88919048Y-54425387D02*
X88957143Y-54349197D01*
X88957143Y-54349197D02*
X88995238Y-54311102D01*
X88995238Y-54311102D02*
X89071429Y-54273006D01*
X89071429Y-54273006D02*
X89147619Y-54273006D01*
X90480953Y-54730149D02*
X90442857Y-54768245D01*
X90442857Y-54768245D02*
X90328572Y-54806340D01*
X90328572Y-54806340D02*
X90252381Y-54806340D01*
X90252381Y-54806340D02*
X90138095Y-54768245D01*
X90138095Y-54768245D02*
X90061905Y-54692054D01*
X90061905Y-54692054D02*
X90023810Y-54615864D01*
X90023810Y-54615864D02*
X89985714Y-54463483D01*
X89985714Y-54463483D02*
X89985714Y-54349197D01*
X89985714Y-54349197D02*
X90023810Y-54196816D01*
X90023810Y-54196816D02*
X90061905Y-54120625D01*
X90061905Y-54120625D02*
X90138095Y-54044435D01*
X90138095Y-54044435D02*
X90252381Y-54006340D01*
X90252381Y-54006340D02*
X90328572Y-54006340D01*
X90328572Y-54006340D02*
X90442857Y-54044435D01*
X90442857Y-54044435D02*
X90480953Y-54082530D01*
X91166667Y-54806340D02*
X91166667Y-54387292D01*
X91166667Y-54387292D02*
X91128572Y-54311102D01*
X91128572Y-54311102D02*
X91052381Y-54273006D01*
X91052381Y-54273006D02*
X90900000Y-54273006D01*
X90900000Y-54273006D02*
X90823810Y-54311102D01*
X91166667Y-54768245D02*
X91090476Y-54806340D01*
X91090476Y-54806340D02*
X90900000Y-54806340D01*
X90900000Y-54806340D02*
X90823810Y-54768245D01*
X90823810Y-54768245D02*
X90785714Y-54692054D01*
X90785714Y-54692054D02*
X90785714Y-54615864D01*
X90785714Y-54615864D02*
X90823810Y-54539673D01*
X90823810Y-54539673D02*
X90900000Y-54501578D01*
X90900000Y-54501578D02*
X91090476Y-54501578D01*
X91090476Y-54501578D02*
X91166667Y-54463483D01*
X91547620Y-54806340D02*
X91547620Y-54273006D01*
X91547620Y-54425387D02*
X91585715Y-54349197D01*
X91585715Y-54349197D02*
X91623810Y-54311102D01*
X91623810Y-54311102D02*
X91700001Y-54273006D01*
X91700001Y-54273006D02*
X91776191Y-54273006D01*
X92042858Y-54806340D02*
X92042858Y-54273006D01*
X92042858Y-54425387D02*
X92080953Y-54349197D01*
X92080953Y-54349197D02*
X92119048Y-54311102D01*
X92119048Y-54311102D02*
X92195239Y-54273006D01*
X92195239Y-54273006D02*
X92271429Y-54273006D01*
X92538096Y-54806340D02*
X92538096Y-54273006D01*
X92538096Y-54006340D02*
X92500000Y-54044435D01*
X92500000Y-54044435D02*
X92538096Y-54082530D01*
X92538096Y-54082530D02*
X92576191Y-54044435D01*
X92576191Y-54044435D02*
X92538096Y-54006340D01*
X92538096Y-54006340D02*
X92538096Y-54082530D01*
X93223810Y-54768245D02*
X93147619Y-54806340D01*
X93147619Y-54806340D02*
X92995238Y-54806340D01*
X92995238Y-54806340D02*
X92919048Y-54768245D01*
X92919048Y-54768245D02*
X92880952Y-54692054D01*
X92880952Y-54692054D02*
X92880952Y-54387292D01*
X92880952Y-54387292D02*
X92919048Y-54311102D01*
X92919048Y-54311102D02*
X92995238Y-54273006D01*
X92995238Y-54273006D02*
X93147619Y-54273006D01*
X93147619Y-54273006D02*
X93223810Y-54311102D01*
X93223810Y-54311102D02*
X93261905Y-54387292D01*
X93261905Y-54387292D02*
X93261905Y-54463483D01*
X93261905Y-54463483D02*
X92880952Y-54539673D01*
X93604762Y-54806340D02*
X93604762Y-54273006D01*
X93604762Y-54425387D02*
X93642857Y-54349197D01*
X93642857Y-54349197D02*
X93680952Y-54311102D01*
X93680952Y-54311102D02*
X93757143Y-54273006D01*
X93757143Y-54273006D02*
X93833333Y-54273006D01*
X84957142Y-55294295D02*
X85223809Y-56094295D01*
X85223809Y-56094295D02*
X85490475Y-55294295D01*
X85719046Y-55370485D02*
X85757142Y-55332390D01*
X85757142Y-55332390D02*
X85833332Y-55294295D01*
X85833332Y-55294295D02*
X86023808Y-55294295D01*
X86023808Y-55294295D02*
X86099999Y-55332390D01*
X86099999Y-55332390D02*
X86138094Y-55370485D01*
X86138094Y-55370485D02*
X86176189Y-55446676D01*
X86176189Y-55446676D02*
X86176189Y-55522866D01*
X86176189Y-55522866D02*
X86138094Y-55637152D01*
X86138094Y-55637152D02*
X85680951Y-56094295D01*
X85680951Y-56094295D02*
X86176189Y-56094295D01*
X86671428Y-55294295D02*
X86747618Y-55294295D01*
X86747618Y-55294295D02*
X86823809Y-55332390D01*
X86823809Y-55332390D02*
X86861904Y-55370485D01*
X86861904Y-55370485D02*
X86899999Y-55446676D01*
X86899999Y-55446676D02*
X86938094Y-55599057D01*
X86938094Y-55599057D02*
X86938094Y-55789533D01*
X86938094Y-55789533D02*
X86899999Y-55941914D01*
X86899999Y-55941914D02*
X86861904Y-56018104D01*
X86861904Y-56018104D02*
X86823809Y-56056200D01*
X86823809Y-56056200D02*
X86747618Y-56094295D01*
X86747618Y-56094295D02*
X86671428Y-56094295D01*
X86671428Y-56094295D02*
X86595237Y-56056200D01*
X86595237Y-56056200D02*
X86557142Y-56018104D01*
X86557142Y-56018104D02*
X86519047Y-55941914D01*
X86519047Y-55941914D02*
X86480951Y-55789533D01*
X86480951Y-55789533D02*
X86480951Y-55599057D01*
X86480951Y-55599057D02*
X86519047Y-55446676D01*
X86519047Y-55446676D02*
X86557142Y-55370485D01*
X86557142Y-55370485D02*
X86595237Y-55332390D01*
X86595237Y-55332390D02*
X86671428Y-55294295D01*
X87242856Y-55370485D02*
X87280952Y-55332390D01*
X87280952Y-55332390D02*
X87357142Y-55294295D01*
X87357142Y-55294295D02*
X87547618Y-55294295D01*
X87547618Y-55294295D02*
X87623809Y-55332390D01*
X87623809Y-55332390D02*
X87661904Y-55370485D01*
X87661904Y-55370485D02*
X87699999Y-55446676D01*
X87699999Y-55446676D02*
X87699999Y-55522866D01*
X87699999Y-55522866D02*
X87661904Y-55637152D01*
X87661904Y-55637152D02*
X87204761Y-56094295D01*
X87204761Y-56094295D02*
X87699999Y-56094295D01*
X88423809Y-55294295D02*
X88042857Y-55294295D01*
X88042857Y-55294295D02*
X88004761Y-55675247D01*
X88004761Y-55675247D02*
X88042857Y-55637152D01*
X88042857Y-55637152D02*
X88119047Y-55599057D01*
X88119047Y-55599057D02*
X88309523Y-55599057D01*
X88309523Y-55599057D02*
X88385714Y-55637152D01*
X88385714Y-55637152D02*
X88423809Y-55675247D01*
X88423809Y-55675247D02*
X88461904Y-55751438D01*
X88461904Y-55751438D02*
X88461904Y-55941914D01*
X88461904Y-55941914D02*
X88423809Y-56018104D01*
X88423809Y-56018104D02*
X88385714Y-56056200D01*
X88385714Y-56056200D02*
X88309523Y-56094295D01*
X88309523Y-56094295D02*
X88119047Y-56094295D01*
X88119047Y-56094295D02*
X88042857Y-56056200D01*
X88042857Y-56056200D02*
X88004761Y-56018104D01*
X88804762Y-56018104D02*
X88842857Y-56056200D01*
X88842857Y-56056200D02*
X88804762Y-56094295D01*
X88804762Y-56094295D02*
X88766666Y-56056200D01*
X88766666Y-56056200D02*
X88804762Y-56018104D01*
X88804762Y-56018104D02*
X88804762Y-56094295D01*
X89338095Y-55294295D02*
X89414285Y-55294295D01*
X89414285Y-55294295D02*
X89490476Y-55332390D01*
X89490476Y-55332390D02*
X89528571Y-55370485D01*
X89528571Y-55370485D02*
X89566666Y-55446676D01*
X89566666Y-55446676D02*
X89604761Y-55599057D01*
X89604761Y-55599057D02*
X89604761Y-55789533D01*
X89604761Y-55789533D02*
X89566666Y-55941914D01*
X89566666Y-55941914D02*
X89528571Y-56018104D01*
X89528571Y-56018104D02*
X89490476Y-56056200D01*
X89490476Y-56056200D02*
X89414285Y-56094295D01*
X89414285Y-56094295D02*
X89338095Y-56094295D01*
X89338095Y-56094295D02*
X89261904Y-56056200D01*
X89261904Y-56056200D02*
X89223809Y-56018104D01*
X89223809Y-56018104D02*
X89185714Y-55941914D01*
X89185714Y-55941914D02*
X89147618Y-55789533D01*
X89147618Y-55789533D02*
X89147618Y-55599057D01*
X89147618Y-55599057D02*
X89185714Y-55446676D01*
X89185714Y-55446676D02*
X89223809Y-55370485D01*
X89223809Y-55370485D02*
X89261904Y-55332390D01*
X89261904Y-55332390D02*
X89338095Y-55294295D01*
X90290476Y-55560961D02*
X90290476Y-56094295D01*
X90100000Y-55256200D02*
X89909523Y-55827628D01*
X89909523Y-55827628D02*
X90404762Y-55827628D01*
D10*
X77899122Y-84996895D02*
X77899122Y-84196895D01*
X78356265Y-84996895D02*
X78013407Y-84539752D01*
X78356265Y-84196895D02*
X77899122Y-84654038D01*
X78722932Y-57365942D02*
X78722932Y-57746895D01*
X78456265Y-56946895D02*
X78722932Y-57365942D01*
X78722932Y-57365942D02*
X78989598Y-56946895D01*
X136058800Y-58881830D02*
X136096895Y-58767544D01*
X136096895Y-58767544D02*
X136096895Y-58577068D01*
X136096895Y-58577068D02*
X136058800Y-58500877D01*
X136058800Y-58500877D02*
X136020704Y-58462782D01*
X136020704Y-58462782D02*
X135944514Y-58424687D01*
X135944514Y-58424687D02*
X135868323Y-58424687D01*
X135868323Y-58424687D02*
X135792133Y-58462782D01*
X135792133Y-58462782D02*
X135754038Y-58500877D01*
X135754038Y-58500877D02*
X135715942Y-58577068D01*
X135715942Y-58577068D02*
X135677847Y-58729449D01*
X135677847Y-58729449D02*
X135639752Y-58805639D01*
X135639752Y-58805639D02*
X135601657Y-58843734D01*
X135601657Y-58843734D02*
X135525466Y-58881830D01*
X135525466Y-58881830D02*
X135449276Y-58881830D01*
X135449276Y-58881830D02*
X135373085Y-58843734D01*
X135373085Y-58843734D02*
X135334990Y-58805639D01*
X135334990Y-58805639D02*
X135296895Y-58729449D01*
X135296895Y-58729449D02*
X135296895Y-58538972D01*
X135296895Y-58538972D02*
X135334990Y-58424687D01*
X136020704Y-57624686D02*
X136058800Y-57662782D01*
X136058800Y-57662782D02*
X136096895Y-57777067D01*
X136096895Y-57777067D02*
X136096895Y-57853258D01*
X136096895Y-57853258D02*
X136058800Y-57967544D01*
X136058800Y-57967544D02*
X135982609Y-58043734D01*
X135982609Y-58043734D02*
X135906419Y-58081829D01*
X135906419Y-58081829D02*
X135754038Y-58119925D01*
X135754038Y-58119925D02*
X135639752Y-58119925D01*
X135639752Y-58119925D02*
X135487371Y-58081829D01*
X135487371Y-58081829D02*
X135411180Y-58043734D01*
X135411180Y-58043734D02*
X135334990Y-57967544D01*
X135334990Y-57967544D02*
X135296895Y-57853258D01*
X135296895Y-57853258D02*
X135296895Y-57777067D01*
X135296895Y-57777067D02*
X135334990Y-57662782D01*
X135334990Y-57662782D02*
X135373085Y-57624686D01*
X136096895Y-56900877D02*
X136096895Y-57281829D01*
X136096895Y-57281829D02*
X135296895Y-57281829D01*
X136096895Y-56215163D02*
X136096895Y-56672306D01*
X136096895Y-56443734D02*
X135296895Y-56443734D01*
X135296895Y-56443734D02*
X135411180Y-56519925D01*
X135411180Y-56519925D02*
X135487371Y-56596115D01*
X135487371Y-56596115D02*
X135525466Y-56672306D01*
X156596895Y-57686591D02*
X156215942Y-57953258D01*
X156596895Y-58143734D02*
X155796895Y-58143734D01*
X155796895Y-58143734D02*
X155796895Y-57838972D01*
X155796895Y-57838972D02*
X155834990Y-57762782D01*
X155834990Y-57762782D02*
X155873085Y-57724687D01*
X155873085Y-57724687D02*
X155949276Y-57686591D01*
X155949276Y-57686591D02*
X156063561Y-57686591D01*
X156063561Y-57686591D02*
X156139752Y-57724687D01*
X156139752Y-57724687D02*
X156177847Y-57762782D01*
X156177847Y-57762782D02*
X156215942Y-57838972D01*
X156215942Y-57838972D02*
X156215942Y-58143734D01*
X155796895Y-57419925D02*
X156596895Y-56886591D01*
X155796895Y-56886591D02*
X156596895Y-57419925D01*
X155796895Y-56429448D02*
X155796895Y-56353258D01*
X155796895Y-56353258D02*
X155834990Y-56277067D01*
X155834990Y-56277067D02*
X155873085Y-56238972D01*
X155873085Y-56238972D02*
X155949276Y-56200877D01*
X155949276Y-56200877D02*
X156101657Y-56162782D01*
X156101657Y-56162782D02*
X156292133Y-56162782D01*
X156292133Y-56162782D02*
X156444514Y-56200877D01*
X156444514Y-56200877D02*
X156520704Y-56238972D01*
X156520704Y-56238972D02*
X156558800Y-56277067D01*
X156558800Y-56277067D02*
X156596895Y-56353258D01*
X156596895Y-56353258D02*
X156596895Y-56429448D01*
X156596895Y-56429448D02*
X156558800Y-56505639D01*
X156558800Y-56505639D02*
X156520704Y-56543734D01*
X156520704Y-56543734D02*
X156444514Y-56581829D01*
X156444514Y-56581829D02*
X156292133Y-56619925D01*
X156292133Y-56619925D02*
X156101657Y-56619925D01*
X156101657Y-56619925D02*
X155949276Y-56581829D01*
X155949276Y-56581829D02*
X155873085Y-56543734D01*
X155873085Y-56543734D02*
X155834990Y-56505639D01*
X155834990Y-56505639D02*
X155796895Y-56429448D01*
X95118169Y-70158800D02*
X95232455Y-70196895D01*
X95232455Y-70196895D02*
X95422931Y-70196895D01*
X95422931Y-70196895D02*
X95499122Y-70158800D01*
X95499122Y-70158800D02*
X95537217Y-70120704D01*
X95537217Y-70120704D02*
X95575312Y-70044514D01*
X95575312Y-70044514D02*
X95575312Y-69968323D01*
X95575312Y-69968323D02*
X95537217Y-69892133D01*
X95537217Y-69892133D02*
X95499122Y-69854038D01*
X95499122Y-69854038D02*
X95422931Y-69815942D01*
X95422931Y-69815942D02*
X95270550Y-69777847D01*
X95270550Y-69777847D02*
X95194360Y-69739752D01*
X95194360Y-69739752D02*
X95156265Y-69701657D01*
X95156265Y-69701657D02*
X95118169Y-69625466D01*
X95118169Y-69625466D02*
X95118169Y-69549276D01*
X95118169Y-69549276D02*
X95156265Y-69473085D01*
X95156265Y-69473085D02*
X95194360Y-69434990D01*
X95194360Y-69434990D02*
X95270550Y-69396895D01*
X95270550Y-69396895D02*
X95461027Y-69396895D01*
X95461027Y-69396895D02*
X95575312Y-69434990D01*
X95803884Y-69396895D02*
X96261027Y-69396895D01*
X96032455Y-70196895D02*
X96032455Y-69396895D01*
X96794360Y-69777847D02*
X96908646Y-69815942D01*
X96908646Y-69815942D02*
X96946741Y-69854038D01*
X96946741Y-69854038D02*
X96984837Y-69930228D01*
X96984837Y-69930228D02*
X96984837Y-70044514D01*
X96984837Y-70044514D02*
X96946741Y-70120704D01*
X96946741Y-70120704D02*
X96908646Y-70158800D01*
X96908646Y-70158800D02*
X96832456Y-70196895D01*
X96832456Y-70196895D02*
X96527694Y-70196895D01*
X96527694Y-70196895D02*
X96527694Y-69396895D01*
X96527694Y-69396895D02*
X96794360Y-69396895D01*
X96794360Y-69396895D02*
X96870551Y-69434990D01*
X96870551Y-69434990D02*
X96908646Y-69473085D01*
X96908646Y-69473085D02*
X96946741Y-69549276D01*
X96946741Y-69549276D02*
X96946741Y-69625466D01*
X96946741Y-69625466D02*
X96908646Y-69701657D01*
X96908646Y-69701657D02*
X96870551Y-69739752D01*
X96870551Y-69739752D02*
X96794360Y-69777847D01*
X96794360Y-69777847D02*
X96527694Y-69777847D01*
X97480075Y-69815942D02*
X97480075Y-70196895D01*
X97213408Y-69396895D02*
X97480075Y-69815942D01*
X97480075Y-69815942D02*
X97746741Y-69396895D01*
X162596895Y-75862782D02*
X162596895Y-76243734D01*
X162596895Y-76243734D02*
X162977847Y-76281830D01*
X162977847Y-76281830D02*
X162939752Y-76243734D01*
X162939752Y-76243734D02*
X162901657Y-76167544D01*
X162901657Y-76167544D02*
X162901657Y-75977068D01*
X162901657Y-75977068D02*
X162939752Y-75900877D01*
X162939752Y-75900877D02*
X162977847Y-75862782D01*
X162977847Y-75862782D02*
X163054038Y-75824687D01*
X163054038Y-75824687D02*
X163244514Y-75824687D01*
X163244514Y-75824687D02*
X163320704Y-75862782D01*
X163320704Y-75862782D02*
X163358800Y-75900877D01*
X163358800Y-75900877D02*
X163396895Y-75977068D01*
X163396895Y-75977068D02*
X163396895Y-76167544D01*
X163396895Y-76167544D02*
X163358800Y-76243734D01*
X163358800Y-76243734D02*
X163320704Y-76281830D01*
X162596895Y-75596115D02*
X163396895Y-75329448D01*
X163396895Y-75329448D02*
X162596895Y-75062782D01*
X163701657Y-74567544D02*
X163663561Y-74605639D01*
X163663561Y-74605639D02*
X163549276Y-74681830D01*
X163549276Y-74681830D02*
X163473085Y-74719925D01*
X163473085Y-74719925D02*
X163358800Y-74758020D01*
X163358800Y-74758020D02*
X163168323Y-74796115D01*
X163168323Y-74796115D02*
X163015942Y-74796115D01*
X163015942Y-74796115D02*
X162825466Y-74758020D01*
X162825466Y-74758020D02*
X162711180Y-74719925D01*
X162711180Y-74719925D02*
X162634990Y-74681830D01*
X162634990Y-74681830D02*
X162520704Y-74605639D01*
X162520704Y-74605639D02*
X162482609Y-74567544D01*
X162596895Y-74110401D02*
X162596895Y-73958020D01*
X162596895Y-73958020D02*
X162634990Y-73881830D01*
X162634990Y-73881830D02*
X162711180Y-73805639D01*
X162711180Y-73805639D02*
X162863561Y-73767544D01*
X162863561Y-73767544D02*
X163130228Y-73767544D01*
X163130228Y-73767544D02*
X163282609Y-73805639D01*
X163282609Y-73805639D02*
X163358800Y-73881830D01*
X163358800Y-73881830D02*
X163396895Y-73958020D01*
X163396895Y-73958020D02*
X163396895Y-74110401D01*
X163396895Y-74110401D02*
X163358800Y-74186592D01*
X163358800Y-74186592D02*
X163282609Y-74262782D01*
X163282609Y-74262782D02*
X163130228Y-74300878D01*
X163130228Y-74300878D02*
X162863561Y-74300878D01*
X162863561Y-74300878D02*
X162711180Y-74262782D01*
X162711180Y-74262782D02*
X162634990Y-74186592D01*
X162634990Y-74186592D02*
X162596895Y-74110401D01*
X162596895Y-73424687D02*
X163244514Y-73424687D01*
X163244514Y-73424687D02*
X163320704Y-73386592D01*
X163320704Y-73386592D02*
X163358800Y-73348497D01*
X163358800Y-73348497D02*
X163396895Y-73272306D01*
X163396895Y-73272306D02*
X163396895Y-73119925D01*
X163396895Y-73119925D02*
X163358800Y-73043735D01*
X163358800Y-73043735D02*
X163320704Y-73005640D01*
X163320704Y-73005640D02*
X163244514Y-72967544D01*
X163244514Y-72967544D02*
X162596895Y-72967544D01*
X162596895Y-72700878D02*
X162596895Y-72243735D01*
X163396895Y-72472307D02*
X162596895Y-72472307D01*
X163701657Y-72053259D02*
X163663561Y-72015164D01*
X163663561Y-72015164D02*
X163549276Y-71938973D01*
X163549276Y-71938973D02*
X163473085Y-71900878D01*
X163473085Y-71900878D02*
X163358800Y-71862783D01*
X163358800Y-71862783D02*
X163168323Y-71824687D01*
X163168323Y-71824687D02*
X163015942Y-71824687D01*
X163015942Y-71824687D02*
X162825466Y-71862783D01*
X162825466Y-71862783D02*
X162711180Y-71900878D01*
X162711180Y-71900878D02*
X162634990Y-71938973D01*
X162634990Y-71938973D02*
X162520704Y-72015164D01*
X162520704Y-72015164D02*
X162482609Y-72053259D01*
X78932455Y-58984990D02*
X78856265Y-58946895D01*
X78856265Y-58946895D02*
X78741979Y-58946895D01*
X78741979Y-58946895D02*
X78627693Y-58984990D01*
X78627693Y-58984990D02*
X78551503Y-59061180D01*
X78551503Y-59061180D02*
X78513408Y-59137371D01*
X78513408Y-59137371D02*
X78475312Y-59289752D01*
X78475312Y-59289752D02*
X78475312Y-59404038D01*
X78475312Y-59404038D02*
X78513408Y-59556419D01*
X78513408Y-59556419D02*
X78551503Y-59632609D01*
X78551503Y-59632609D02*
X78627693Y-59708800D01*
X78627693Y-59708800D02*
X78741979Y-59746895D01*
X78741979Y-59746895D02*
X78818170Y-59746895D01*
X78818170Y-59746895D02*
X78932455Y-59708800D01*
X78932455Y-59708800D02*
X78970551Y-59670704D01*
X78970551Y-59670704D02*
X78970551Y-59404038D01*
X78970551Y-59404038D02*
X78818170Y-59404038D01*
X78165788Y-85577847D02*
X78280074Y-85615942D01*
X78280074Y-85615942D02*
X78318169Y-85654038D01*
X78318169Y-85654038D02*
X78356265Y-85730228D01*
X78356265Y-85730228D02*
X78356265Y-85844514D01*
X78356265Y-85844514D02*
X78318169Y-85920704D01*
X78318169Y-85920704D02*
X78280074Y-85958800D01*
X78280074Y-85958800D02*
X78203884Y-85996895D01*
X78203884Y-85996895D02*
X77899122Y-85996895D01*
X77899122Y-85996895D02*
X77899122Y-85196895D01*
X77899122Y-85196895D02*
X78165788Y-85196895D01*
X78165788Y-85196895D02*
X78241979Y-85234990D01*
X78241979Y-85234990D02*
X78280074Y-85273085D01*
X78280074Y-85273085D02*
X78318169Y-85349276D01*
X78318169Y-85349276D02*
X78318169Y-85425466D01*
X78318169Y-85425466D02*
X78280074Y-85501657D01*
X78280074Y-85501657D02*
X78241979Y-85539752D01*
X78241979Y-85539752D02*
X78165788Y-85577847D01*
X78165788Y-85577847D02*
X77899122Y-85577847D01*
X77765788Y-87196895D02*
X77956264Y-87996895D01*
X77956264Y-87996895D02*
X78108645Y-87425466D01*
X78108645Y-87425466D02*
X78261026Y-87996895D01*
X78261026Y-87996895D02*
X78451503Y-87196895D01*
X77030074Y-64446895D02*
X77525312Y-64446895D01*
X77525312Y-64446895D02*
X77258646Y-64751657D01*
X77258646Y-64751657D02*
X77372931Y-64751657D01*
X77372931Y-64751657D02*
X77449122Y-64789752D01*
X77449122Y-64789752D02*
X77487217Y-64827847D01*
X77487217Y-64827847D02*
X77525312Y-64904038D01*
X77525312Y-64904038D02*
X77525312Y-65094514D01*
X77525312Y-65094514D02*
X77487217Y-65170704D01*
X77487217Y-65170704D02*
X77449122Y-65208800D01*
X77449122Y-65208800D02*
X77372931Y-65246895D01*
X77372931Y-65246895D02*
X77144360Y-65246895D01*
X77144360Y-65246895D02*
X77068169Y-65208800D01*
X77068169Y-65208800D02*
X77030074Y-65170704D01*
X77753884Y-64446895D02*
X78020551Y-65246895D01*
X78020551Y-65246895D02*
X78287217Y-64446895D01*
X78477693Y-64446895D02*
X78972931Y-64446895D01*
X78972931Y-64446895D02*
X78706265Y-64751657D01*
X78706265Y-64751657D02*
X78820550Y-64751657D01*
X78820550Y-64751657D02*
X78896741Y-64789752D01*
X78896741Y-64789752D02*
X78934836Y-64827847D01*
X78934836Y-64827847D02*
X78972931Y-64904038D01*
X78972931Y-64904038D02*
X78972931Y-65094514D01*
X78972931Y-65094514D02*
X78934836Y-65170704D01*
X78934836Y-65170704D02*
X78896741Y-65208800D01*
X78896741Y-65208800D02*
X78820550Y-65246895D01*
X78820550Y-65246895D02*
X78591979Y-65246895D01*
X78591979Y-65246895D02*
X78515788Y-65208800D01*
X78515788Y-65208800D02*
X78477693Y-65170704D01*
X158903104Y-75516979D02*
X158103104Y-75783646D01*
X158103104Y-75783646D02*
X158903104Y-76050312D01*
X158522152Y-76583645D02*
X158484057Y-76697931D01*
X158484057Y-76697931D02*
X158445961Y-76736026D01*
X158445961Y-76736026D02*
X158369771Y-76774122D01*
X158369771Y-76774122D02*
X158255485Y-76774122D01*
X158255485Y-76774122D02*
X158179295Y-76736026D01*
X158179295Y-76736026D02*
X158141200Y-76697931D01*
X158141200Y-76697931D02*
X158103104Y-76621741D01*
X158103104Y-76621741D02*
X158103104Y-76316979D01*
X158103104Y-76316979D02*
X158903104Y-76316979D01*
X158903104Y-76316979D02*
X158903104Y-76583645D01*
X158903104Y-76583645D02*
X158865009Y-76659836D01*
X158865009Y-76659836D02*
X158826914Y-76697931D01*
X158826914Y-76697931D02*
X158750723Y-76736026D01*
X158750723Y-76736026D02*
X158674533Y-76736026D01*
X158674533Y-76736026D02*
X158598342Y-76697931D01*
X158598342Y-76697931D02*
X158560247Y-76659836D01*
X158560247Y-76659836D02*
X158522152Y-76583645D01*
X158522152Y-76583645D02*
X158522152Y-76316979D01*
X158903104Y-77116979D02*
X158255485Y-77116979D01*
X158255485Y-77116979D02*
X158179295Y-77155074D01*
X158179295Y-77155074D02*
X158141200Y-77193169D01*
X158141200Y-77193169D02*
X158103104Y-77269360D01*
X158103104Y-77269360D02*
X158103104Y-77421741D01*
X158103104Y-77421741D02*
X158141200Y-77497931D01*
X158141200Y-77497931D02*
X158179295Y-77536026D01*
X158179295Y-77536026D02*
X158255485Y-77574122D01*
X158255485Y-77574122D02*
X158903104Y-77574122D01*
X158141200Y-77916978D02*
X158103104Y-78031264D01*
X158103104Y-78031264D02*
X158103104Y-78221740D01*
X158103104Y-78221740D02*
X158141200Y-78297931D01*
X158141200Y-78297931D02*
X158179295Y-78336026D01*
X158179295Y-78336026D02*
X158255485Y-78374121D01*
X158255485Y-78374121D02*
X158331676Y-78374121D01*
X158331676Y-78374121D02*
X158407866Y-78336026D01*
X158407866Y-78336026D02*
X158445961Y-78297931D01*
X158445961Y-78297931D02*
X158484057Y-78221740D01*
X158484057Y-78221740D02*
X158522152Y-78069359D01*
X158522152Y-78069359D02*
X158560247Y-77993169D01*
X158560247Y-77993169D02*
X158598342Y-77955074D01*
X158598342Y-77955074D02*
X158674533Y-77916978D01*
X158674533Y-77916978D02*
X158750723Y-77916978D01*
X158750723Y-77916978D02*
X158826914Y-77955074D01*
X158826914Y-77955074D02*
X158865009Y-77993169D01*
X158865009Y-77993169D02*
X158903104Y-78069359D01*
X158903104Y-78069359D02*
X158903104Y-78259836D01*
X158903104Y-78259836D02*
X158865009Y-78374121D01*
X78780074Y-56327847D02*
X78894360Y-56365942D01*
X78894360Y-56365942D02*
X78932455Y-56404038D01*
X78932455Y-56404038D02*
X78970551Y-56480228D01*
X78970551Y-56480228D02*
X78970551Y-56594514D01*
X78970551Y-56594514D02*
X78932455Y-56670704D01*
X78932455Y-56670704D02*
X78894360Y-56708800D01*
X78894360Y-56708800D02*
X78818170Y-56746895D01*
X78818170Y-56746895D02*
X78513408Y-56746895D01*
X78513408Y-56746895D02*
X78513408Y-55946895D01*
X78513408Y-55946895D02*
X78780074Y-55946895D01*
X78780074Y-55946895D02*
X78856265Y-55984990D01*
X78856265Y-55984990D02*
X78894360Y-56023085D01*
X78894360Y-56023085D02*
X78932455Y-56099276D01*
X78932455Y-56099276D02*
X78932455Y-56175466D01*
X78932455Y-56175466D02*
X78894360Y-56251657D01*
X78894360Y-56251657D02*
X78856265Y-56289752D01*
X78856265Y-56289752D02*
X78780074Y-56327847D01*
X78780074Y-56327847D02*
X78513408Y-56327847D01*
X78108646Y-86615942D02*
X78108646Y-86996895D01*
X77841979Y-86196895D02*
X78108646Y-86615942D01*
X78108646Y-86615942D02*
X78375312Y-86196895D01*
X138658800Y-58881830D02*
X138696895Y-58767544D01*
X138696895Y-58767544D02*
X138696895Y-58577068D01*
X138696895Y-58577068D02*
X138658800Y-58500877D01*
X138658800Y-58500877D02*
X138620704Y-58462782D01*
X138620704Y-58462782D02*
X138544514Y-58424687D01*
X138544514Y-58424687D02*
X138468323Y-58424687D01*
X138468323Y-58424687D02*
X138392133Y-58462782D01*
X138392133Y-58462782D02*
X138354038Y-58500877D01*
X138354038Y-58500877D02*
X138315942Y-58577068D01*
X138315942Y-58577068D02*
X138277847Y-58729449D01*
X138277847Y-58729449D02*
X138239752Y-58805639D01*
X138239752Y-58805639D02*
X138201657Y-58843734D01*
X138201657Y-58843734D02*
X138125466Y-58881830D01*
X138125466Y-58881830D02*
X138049276Y-58881830D01*
X138049276Y-58881830D02*
X137973085Y-58843734D01*
X137973085Y-58843734D02*
X137934990Y-58805639D01*
X137934990Y-58805639D02*
X137896895Y-58729449D01*
X137896895Y-58729449D02*
X137896895Y-58538972D01*
X137896895Y-58538972D02*
X137934990Y-58424687D01*
X138696895Y-58081829D02*
X137896895Y-58081829D01*
X137896895Y-58081829D02*
X137896895Y-57891353D01*
X137896895Y-57891353D02*
X137934990Y-57777067D01*
X137934990Y-57777067D02*
X138011180Y-57700877D01*
X138011180Y-57700877D02*
X138087371Y-57662782D01*
X138087371Y-57662782D02*
X138239752Y-57624686D01*
X138239752Y-57624686D02*
X138354038Y-57624686D01*
X138354038Y-57624686D02*
X138506419Y-57662782D01*
X138506419Y-57662782D02*
X138582609Y-57700877D01*
X138582609Y-57700877D02*
X138658800Y-57777067D01*
X138658800Y-57777067D02*
X138696895Y-57891353D01*
X138696895Y-57891353D02*
X138696895Y-58081829D01*
X138468323Y-57319925D02*
X138468323Y-56938972D01*
X138696895Y-57396115D02*
X137896895Y-57129448D01*
X137896895Y-57129448D02*
X138696895Y-56862782D01*
X138696895Y-56177068D02*
X138696895Y-56634211D01*
X138696895Y-56405639D02*
X137896895Y-56405639D01*
X137896895Y-56405639D02*
X138011180Y-56481830D01*
X138011180Y-56481830D02*
X138087371Y-56558020D01*
X138087371Y-56558020D02*
X138125466Y-56634211D01*
X149058800Y-58781830D02*
X149096895Y-58667544D01*
X149096895Y-58667544D02*
X149096895Y-58477068D01*
X149096895Y-58477068D02*
X149058800Y-58400877D01*
X149058800Y-58400877D02*
X149020704Y-58362782D01*
X149020704Y-58362782D02*
X148944514Y-58324687D01*
X148944514Y-58324687D02*
X148868323Y-58324687D01*
X148868323Y-58324687D02*
X148792133Y-58362782D01*
X148792133Y-58362782D02*
X148754038Y-58400877D01*
X148754038Y-58400877D02*
X148715942Y-58477068D01*
X148715942Y-58477068D02*
X148677847Y-58629449D01*
X148677847Y-58629449D02*
X148639752Y-58705639D01*
X148639752Y-58705639D02*
X148601657Y-58743734D01*
X148601657Y-58743734D02*
X148525466Y-58781830D01*
X148525466Y-58781830D02*
X148449276Y-58781830D01*
X148449276Y-58781830D02*
X148373085Y-58743734D01*
X148373085Y-58743734D02*
X148334990Y-58705639D01*
X148334990Y-58705639D02*
X148296895Y-58629449D01*
X148296895Y-58629449D02*
X148296895Y-58438972D01*
X148296895Y-58438972D02*
X148334990Y-58324687D01*
X148296895Y-58096115D02*
X148296895Y-57638972D01*
X149096895Y-57867544D02*
X148296895Y-57867544D01*
X148296895Y-57448496D02*
X149096895Y-56915162D01*
X148296895Y-56915162D02*
X149096895Y-57448496D01*
X148296895Y-56458019D02*
X148296895Y-56381829D01*
X148296895Y-56381829D02*
X148334990Y-56305638D01*
X148334990Y-56305638D02*
X148373085Y-56267543D01*
X148373085Y-56267543D02*
X148449276Y-56229448D01*
X148449276Y-56229448D02*
X148601657Y-56191353D01*
X148601657Y-56191353D02*
X148792133Y-56191353D01*
X148792133Y-56191353D02*
X148944514Y-56229448D01*
X148944514Y-56229448D02*
X149020704Y-56267543D01*
X149020704Y-56267543D02*
X149058800Y-56305638D01*
X149058800Y-56305638D02*
X149096895Y-56381829D01*
X149096895Y-56381829D02*
X149096895Y-56458019D01*
X149096895Y-56458019D02*
X149058800Y-56534210D01*
X149058800Y-56534210D02*
X149020704Y-56572305D01*
X149020704Y-56572305D02*
X148944514Y-56610400D01*
X148944514Y-56610400D02*
X148792133Y-56648496D01*
X148792133Y-56648496D02*
X148601657Y-56648496D01*
X148601657Y-56648496D02*
X148449276Y-56610400D01*
X148449276Y-56610400D02*
X148373085Y-56572305D01*
X148373085Y-56572305D02*
X148334990Y-56534210D01*
X148334990Y-56534210D02*
X148296895Y-56458019D01*
X95143169Y-64893323D02*
X95524122Y-64893323D01*
X95066979Y-65121895D02*
X95333646Y-64321895D01*
X95333646Y-64321895D02*
X95600312Y-65121895D01*
X95866979Y-65121895D02*
X95866979Y-64321895D01*
X96247931Y-65121895D02*
X96247931Y-64321895D01*
X96247931Y-64321895D02*
X96705074Y-65121895D01*
X96705074Y-65121895D02*
X96705074Y-64321895D01*
X97047930Y-64398085D02*
X97086026Y-64359990D01*
X97086026Y-64359990D02*
X97162216Y-64321895D01*
X97162216Y-64321895D02*
X97352692Y-64321895D01*
X97352692Y-64321895D02*
X97428883Y-64359990D01*
X97428883Y-64359990D02*
X97466978Y-64398085D01*
X97466978Y-64398085D02*
X97505073Y-64474276D01*
X97505073Y-64474276D02*
X97505073Y-64550466D01*
X97505073Y-64550466D02*
X97466978Y-64664752D01*
X97466978Y-64664752D02*
X97009835Y-65121895D01*
X97009835Y-65121895D02*
X97505073Y-65121895D01*
D11*
X81119048Y-95673866D02*
X81880953Y-95673866D01*
D10*
X158396895Y-58058020D02*
X158396895Y-57600877D01*
X159196895Y-57829449D02*
X158396895Y-57829449D01*
X158396895Y-57410401D02*
X159196895Y-56877067D01*
X158396895Y-56877067D02*
X159196895Y-57410401D01*
X158396895Y-56419924D02*
X158396895Y-56343734D01*
X158396895Y-56343734D02*
X158434990Y-56267543D01*
X158434990Y-56267543D02*
X158473085Y-56229448D01*
X158473085Y-56229448D02*
X158549276Y-56191353D01*
X158549276Y-56191353D02*
X158701657Y-56153258D01*
X158701657Y-56153258D02*
X158892133Y-56153258D01*
X158892133Y-56153258D02*
X159044514Y-56191353D01*
X159044514Y-56191353D02*
X159120704Y-56229448D01*
X159120704Y-56229448D02*
X159158800Y-56267543D01*
X159158800Y-56267543D02*
X159196895Y-56343734D01*
X159196895Y-56343734D02*
X159196895Y-56419924D01*
X159196895Y-56419924D02*
X159158800Y-56496115D01*
X159158800Y-56496115D02*
X159120704Y-56534210D01*
X159120704Y-56534210D02*
X159044514Y-56572305D01*
X159044514Y-56572305D02*
X158892133Y-56610401D01*
X158892133Y-56610401D02*
X158701657Y-56610401D01*
X158701657Y-56610401D02*
X158549276Y-56572305D01*
X158549276Y-56572305D02*
X158473085Y-56534210D01*
X158473085Y-56534210D02*
X158434990Y-56496115D01*
X158434990Y-56496115D02*
X158396895Y-56419924D01*
X151358800Y-58981830D02*
X151396895Y-58867544D01*
X151396895Y-58867544D02*
X151396895Y-58677068D01*
X151396895Y-58677068D02*
X151358800Y-58600877D01*
X151358800Y-58600877D02*
X151320704Y-58562782D01*
X151320704Y-58562782D02*
X151244514Y-58524687D01*
X151244514Y-58524687D02*
X151168323Y-58524687D01*
X151168323Y-58524687D02*
X151092133Y-58562782D01*
X151092133Y-58562782D02*
X151054038Y-58600877D01*
X151054038Y-58600877D02*
X151015942Y-58677068D01*
X151015942Y-58677068D02*
X150977847Y-58829449D01*
X150977847Y-58829449D02*
X150939752Y-58905639D01*
X150939752Y-58905639D02*
X150901657Y-58943734D01*
X150901657Y-58943734D02*
X150825466Y-58981830D01*
X150825466Y-58981830D02*
X150749276Y-58981830D01*
X150749276Y-58981830D02*
X150673085Y-58943734D01*
X150673085Y-58943734D02*
X150634990Y-58905639D01*
X150634990Y-58905639D02*
X150596895Y-58829449D01*
X150596895Y-58829449D02*
X150596895Y-58638972D01*
X150596895Y-58638972D02*
X150634990Y-58524687D01*
X151320704Y-57724686D02*
X151358800Y-57762782D01*
X151358800Y-57762782D02*
X151396895Y-57877067D01*
X151396895Y-57877067D02*
X151396895Y-57953258D01*
X151396895Y-57953258D02*
X151358800Y-58067544D01*
X151358800Y-58067544D02*
X151282609Y-58143734D01*
X151282609Y-58143734D02*
X151206419Y-58181829D01*
X151206419Y-58181829D02*
X151054038Y-58219925D01*
X151054038Y-58219925D02*
X150939752Y-58219925D01*
X150939752Y-58219925D02*
X150787371Y-58181829D01*
X150787371Y-58181829D02*
X150711180Y-58143734D01*
X150711180Y-58143734D02*
X150634990Y-58067544D01*
X150634990Y-58067544D02*
X150596895Y-57953258D01*
X150596895Y-57953258D02*
X150596895Y-57877067D01*
X150596895Y-57877067D02*
X150634990Y-57762782D01*
X150634990Y-57762782D02*
X150673085Y-57724686D01*
X151396895Y-57381829D02*
X150596895Y-57381829D01*
X151396895Y-56924686D02*
X150939752Y-57267544D01*
X150596895Y-56924686D02*
X151054038Y-57381829D01*
X150596895Y-56429448D02*
X150596895Y-56353258D01*
X150596895Y-56353258D02*
X150634990Y-56277067D01*
X150634990Y-56277067D02*
X150673085Y-56238972D01*
X150673085Y-56238972D02*
X150749276Y-56200877D01*
X150749276Y-56200877D02*
X150901657Y-56162782D01*
X150901657Y-56162782D02*
X151092133Y-56162782D01*
X151092133Y-56162782D02*
X151244514Y-56200877D01*
X151244514Y-56200877D02*
X151320704Y-56238972D01*
X151320704Y-56238972D02*
X151358800Y-56277067D01*
X151358800Y-56277067D02*
X151396895Y-56353258D01*
X151396895Y-56353258D02*
X151396895Y-56429448D01*
X151396895Y-56429448D02*
X151358800Y-56505639D01*
X151358800Y-56505639D02*
X151320704Y-56543734D01*
X151320704Y-56543734D02*
X151244514Y-56581829D01*
X151244514Y-56581829D02*
X151092133Y-56619925D01*
X151092133Y-56619925D02*
X150901657Y-56619925D01*
X150901657Y-56619925D02*
X150749276Y-56581829D01*
X150749276Y-56581829D02*
X150673085Y-56543734D01*
X150673085Y-56543734D02*
X150634990Y-56505639D01*
X150634990Y-56505639D02*
X150596895Y-56429448D01*
X76141979Y-77171895D02*
X76408646Y-77971895D01*
X76408646Y-77971895D02*
X76675312Y-77171895D01*
X76941979Y-77971895D02*
X76941979Y-77171895D01*
X76941979Y-77171895D02*
X77208645Y-77743323D01*
X77208645Y-77743323D02*
X77475312Y-77171895D01*
X77475312Y-77171895D02*
X77475312Y-77971895D01*
X78008646Y-77171895D02*
X78161027Y-77171895D01*
X78161027Y-77171895D02*
X78237217Y-77209990D01*
X78237217Y-77209990D02*
X78313408Y-77286180D01*
X78313408Y-77286180D02*
X78351503Y-77438561D01*
X78351503Y-77438561D02*
X78351503Y-77705228D01*
X78351503Y-77705228D02*
X78313408Y-77857609D01*
X78313408Y-77857609D02*
X78237217Y-77933800D01*
X78237217Y-77933800D02*
X78161027Y-77971895D01*
X78161027Y-77971895D02*
X78008646Y-77971895D01*
X78008646Y-77971895D02*
X77932455Y-77933800D01*
X77932455Y-77933800D02*
X77856265Y-77857609D01*
X77856265Y-77857609D02*
X77818169Y-77705228D01*
X77818169Y-77705228D02*
X77818169Y-77438561D01*
X77818169Y-77438561D02*
X77856265Y-77286180D01*
X77856265Y-77286180D02*
X77932455Y-77209990D01*
X77932455Y-77209990D02*
X78008646Y-77171895D01*
X78580074Y-77171895D02*
X79037217Y-77171895D01*
X78808645Y-77971895D02*
X78808645Y-77171895D01*
X78318169Y-88234990D02*
X78241979Y-88196895D01*
X78241979Y-88196895D02*
X78127693Y-88196895D01*
X78127693Y-88196895D02*
X78013407Y-88234990D01*
X78013407Y-88234990D02*
X77937217Y-88311180D01*
X77937217Y-88311180D02*
X77899122Y-88387371D01*
X77899122Y-88387371D02*
X77861026Y-88539752D01*
X77861026Y-88539752D02*
X77861026Y-88654038D01*
X77861026Y-88654038D02*
X77899122Y-88806419D01*
X77899122Y-88806419D02*
X77937217Y-88882609D01*
X77937217Y-88882609D02*
X78013407Y-88958800D01*
X78013407Y-88958800D02*
X78127693Y-88996895D01*
X78127693Y-88996895D02*
X78203884Y-88996895D01*
X78203884Y-88996895D02*
X78318169Y-88958800D01*
X78318169Y-88958800D02*
X78356265Y-88920704D01*
X78356265Y-88920704D02*
X78356265Y-88654038D01*
X78356265Y-88654038D02*
X78203884Y-88654038D01*
X145096895Y-86094925D02*
X145096895Y-85599687D01*
X145096895Y-85599687D02*
X145401657Y-85866353D01*
X145401657Y-85866353D02*
X145401657Y-85752068D01*
X145401657Y-85752068D02*
X145439752Y-85675877D01*
X145439752Y-85675877D02*
X145477847Y-85637782D01*
X145477847Y-85637782D02*
X145554038Y-85599687D01*
X145554038Y-85599687D02*
X145744514Y-85599687D01*
X145744514Y-85599687D02*
X145820704Y-85637782D01*
X145820704Y-85637782D02*
X145858800Y-85675877D01*
X145858800Y-85675877D02*
X145896895Y-85752068D01*
X145896895Y-85752068D02*
X145896895Y-85980639D01*
X145896895Y-85980639D02*
X145858800Y-86056830D01*
X145858800Y-86056830D02*
X145820704Y-86094925D01*
X145096895Y-85371115D02*
X145896895Y-85104448D01*
X145896895Y-85104448D02*
X145096895Y-84837782D01*
X145096895Y-84647306D02*
X145096895Y-84152068D01*
X145096895Y-84152068D02*
X145401657Y-84418734D01*
X145401657Y-84418734D02*
X145401657Y-84304449D01*
X145401657Y-84304449D02*
X145439752Y-84228258D01*
X145439752Y-84228258D02*
X145477847Y-84190163D01*
X145477847Y-84190163D02*
X145554038Y-84152068D01*
X145554038Y-84152068D02*
X145744514Y-84152068D01*
X145744514Y-84152068D02*
X145820704Y-84190163D01*
X145820704Y-84190163D02*
X145858800Y-84228258D01*
X145858800Y-84228258D02*
X145896895Y-84304449D01*
X145896895Y-84304449D02*
X145896895Y-84533020D01*
X145896895Y-84533020D02*
X145858800Y-84609211D01*
X145858800Y-84609211D02*
X145820704Y-84647306D01*
X78356265Y-83996895D02*
X78089598Y-83615942D01*
X77899122Y-83996895D02*
X77899122Y-83196895D01*
X77899122Y-83196895D02*
X78203884Y-83196895D01*
X78203884Y-83196895D02*
X78280074Y-83234990D01*
X78280074Y-83234990D02*
X78318169Y-83273085D01*
X78318169Y-83273085D02*
X78356265Y-83349276D01*
X78356265Y-83349276D02*
X78356265Y-83463561D01*
X78356265Y-83463561D02*
X78318169Y-83539752D01*
X78318169Y-83539752D02*
X78280074Y-83577847D01*
X78280074Y-83577847D02*
X78203884Y-83615942D01*
X78203884Y-83615942D02*
X77899122Y-83615942D01*
X143820704Y-58386591D02*
X143858800Y-58424687D01*
X143858800Y-58424687D02*
X143896895Y-58538972D01*
X143896895Y-58538972D02*
X143896895Y-58615163D01*
X143896895Y-58615163D02*
X143858800Y-58729449D01*
X143858800Y-58729449D02*
X143782609Y-58805639D01*
X143782609Y-58805639D02*
X143706419Y-58843734D01*
X143706419Y-58843734D02*
X143554038Y-58881830D01*
X143554038Y-58881830D02*
X143439752Y-58881830D01*
X143439752Y-58881830D02*
X143287371Y-58843734D01*
X143287371Y-58843734D02*
X143211180Y-58805639D01*
X143211180Y-58805639D02*
X143134990Y-58729449D01*
X143134990Y-58729449D02*
X143096895Y-58615163D01*
X143096895Y-58615163D02*
X143096895Y-58538972D01*
X143096895Y-58538972D02*
X143134990Y-58424687D01*
X143134990Y-58424687D02*
X143173085Y-58386591D01*
X143858800Y-58081830D02*
X143896895Y-57967544D01*
X143896895Y-57967544D02*
X143896895Y-57777068D01*
X143896895Y-57777068D02*
X143858800Y-57700877D01*
X143858800Y-57700877D02*
X143820704Y-57662782D01*
X143820704Y-57662782D02*
X143744514Y-57624687D01*
X143744514Y-57624687D02*
X143668323Y-57624687D01*
X143668323Y-57624687D02*
X143592133Y-57662782D01*
X143592133Y-57662782D02*
X143554038Y-57700877D01*
X143554038Y-57700877D02*
X143515942Y-57777068D01*
X143515942Y-57777068D02*
X143477847Y-57929449D01*
X143477847Y-57929449D02*
X143439752Y-58005639D01*
X143439752Y-58005639D02*
X143401657Y-58043734D01*
X143401657Y-58043734D02*
X143325466Y-58081830D01*
X143325466Y-58081830D02*
X143249276Y-58081830D01*
X143249276Y-58081830D02*
X143173085Y-58043734D01*
X143173085Y-58043734D02*
X143134990Y-58005639D01*
X143134990Y-58005639D02*
X143096895Y-57929449D01*
X143096895Y-57929449D02*
X143096895Y-57738972D01*
X143096895Y-57738972D02*
X143134990Y-57624687D01*
X143363561Y-57281829D02*
X143896895Y-57281829D01*
X143439752Y-57281829D02*
X143401657Y-57243734D01*
X143401657Y-57243734D02*
X143363561Y-57167544D01*
X143363561Y-57167544D02*
X143363561Y-57053258D01*
X143363561Y-57053258D02*
X143401657Y-56977067D01*
X143401657Y-56977067D02*
X143477847Y-56938972D01*
X143477847Y-56938972D02*
X143896895Y-56938972D01*
X143096895Y-56405638D02*
X143096895Y-56329448D01*
X143096895Y-56329448D02*
X143134990Y-56253257D01*
X143134990Y-56253257D02*
X143173085Y-56215162D01*
X143173085Y-56215162D02*
X143249276Y-56177067D01*
X143249276Y-56177067D02*
X143401657Y-56138972D01*
X143401657Y-56138972D02*
X143592133Y-56138972D01*
X143592133Y-56138972D02*
X143744514Y-56177067D01*
X143744514Y-56177067D02*
X143820704Y-56215162D01*
X143820704Y-56215162D02*
X143858800Y-56253257D01*
X143858800Y-56253257D02*
X143896895Y-56329448D01*
X143896895Y-56329448D02*
X143896895Y-56405638D01*
X143896895Y-56405638D02*
X143858800Y-56481829D01*
X143858800Y-56481829D02*
X143820704Y-56519924D01*
X143820704Y-56519924D02*
X143744514Y-56558019D01*
X143744514Y-56558019D02*
X143592133Y-56596115D01*
X143592133Y-56596115D02*
X143401657Y-56596115D01*
X143401657Y-56596115D02*
X143249276Y-56558019D01*
X143249276Y-56558019D02*
X143173085Y-56519924D01*
X143173085Y-56519924D02*
X143134990Y-56481829D01*
X143134990Y-56481829D02*
X143096895Y-56405638D01*
X142434990Y-85599687D02*
X142396895Y-85675877D01*
X142396895Y-85675877D02*
X142396895Y-85790163D01*
X142396895Y-85790163D02*
X142434990Y-85904449D01*
X142434990Y-85904449D02*
X142511180Y-85980639D01*
X142511180Y-85980639D02*
X142587371Y-86018734D01*
X142587371Y-86018734D02*
X142739752Y-86056830D01*
X142739752Y-86056830D02*
X142854038Y-86056830D01*
X142854038Y-86056830D02*
X143006419Y-86018734D01*
X143006419Y-86018734D02*
X143082609Y-85980639D01*
X143082609Y-85980639D02*
X143158800Y-85904449D01*
X143158800Y-85904449D02*
X143196895Y-85790163D01*
X143196895Y-85790163D02*
X143196895Y-85713972D01*
X143196895Y-85713972D02*
X143158800Y-85599687D01*
X143158800Y-85599687D02*
X143120704Y-85561591D01*
X143120704Y-85561591D02*
X142854038Y-85561591D01*
X142854038Y-85561591D02*
X142854038Y-85713972D01*
X143196895Y-85218734D02*
X142396895Y-85218734D01*
X142396895Y-85218734D02*
X143196895Y-84761591D01*
X143196895Y-84761591D02*
X142396895Y-84761591D01*
X143196895Y-84380639D02*
X142396895Y-84380639D01*
X142396895Y-84380639D02*
X142396895Y-84190163D01*
X142396895Y-84190163D02*
X142434990Y-84075877D01*
X142434990Y-84075877D02*
X142511180Y-83999687D01*
X142511180Y-83999687D02*
X142587371Y-83961592D01*
X142587371Y-83961592D02*
X142739752Y-83923496D01*
X142739752Y-83923496D02*
X142854038Y-83923496D01*
X142854038Y-83923496D02*
X143006419Y-83961592D01*
X143006419Y-83961592D02*
X143082609Y-83999687D01*
X143082609Y-83999687D02*
X143158800Y-84075877D01*
X143158800Y-84075877D02*
X143196895Y-84190163D01*
X143196895Y-84190163D02*
X143196895Y-84380639D01*
D11*
X130080951Y-71754819D02*
X129747618Y-71278628D01*
X129509523Y-71754819D02*
X129509523Y-70754819D01*
X129509523Y-70754819D02*
X129890475Y-70754819D01*
X129890475Y-70754819D02*
X129985713Y-70802438D01*
X129985713Y-70802438D02*
X130033332Y-70850057D01*
X130033332Y-70850057D02*
X130080951Y-70945295D01*
X130080951Y-70945295D02*
X130080951Y-71088152D01*
X130080951Y-71088152D02*
X130033332Y-71183390D01*
X130033332Y-71183390D02*
X129985713Y-71231009D01*
X129985713Y-71231009D02*
X129890475Y-71278628D01*
X129890475Y-71278628D02*
X129509523Y-71278628D01*
X130938094Y-71754819D02*
X130938094Y-71231009D01*
X130938094Y-71231009D02*
X130890475Y-71135771D01*
X130890475Y-71135771D02*
X130795237Y-71088152D01*
X130795237Y-71088152D02*
X130604761Y-71088152D01*
X130604761Y-71088152D02*
X130509523Y-71135771D01*
X130938094Y-71707200D02*
X130842856Y-71754819D01*
X130842856Y-71754819D02*
X130604761Y-71754819D01*
X130604761Y-71754819D02*
X130509523Y-71707200D01*
X130509523Y-71707200D02*
X130461904Y-71611961D01*
X130461904Y-71611961D02*
X130461904Y-71516723D01*
X130461904Y-71516723D02*
X130509523Y-71421485D01*
X130509523Y-71421485D02*
X130604761Y-71373866D01*
X130604761Y-71373866D02*
X130842856Y-71373866D01*
X130842856Y-71373866D02*
X130938094Y-71326247D01*
X131366666Y-71707200D02*
X131461904Y-71754819D01*
X131461904Y-71754819D02*
X131652380Y-71754819D01*
X131652380Y-71754819D02*
X131747618Y-71707200D01*
X131747618Y-71707200D02*
X131795237Y-71611961D01*
X131795237Y-71611961D02*
X131795237Y-71564342D01*
X131795237Y-71564342D02*
X131747618Y-71469104D01*
X131747618Y-71469104D02*
X131652380Y-71421485D01*
X131652380Y-71421485D02*
X131509523Y-71421485D01*
X131509523Y-71421485D02*
X131414285Y-71373866D01*
X131414285Y-71373866D02*
X131366666Y-71278628D01*
X131366666Y-71278628D02*
X131366666Y-71231009D01*
X131366666Y-71231009D02*
X131414285Y-71135771D01*
X131414285Y-71135771D02*
X131509523Y-71088152D01*
X131509523Y-71088152D02*
X131652380Y-71088152D01*
X131652380Y-71088152D02*
X131747618Y-71135771D01*
X132223809Y-71088152D02*
X132223809Y-72088152D01*
X132223809Y-71135771D02*
X132319047Y-71088152D01*
X132319047Y-71088152D02*
X132509523Y-71088152D01*
X132509523Y-71088152D02*
X132604761Y-71135771D01*
X132604761Y-71135771D02*
X132652380Y-71183390D01*
X132652380Y-71183390D02*
X132699999Y-71278628D01*
X132699999Y-71278628D02*
X132699999Y-71564342D01*
X132699999Y-71564342D02*
X132652380Y-71659580D01*
X132652380Y-71659580D02*
X132604761Y-71707200D01*
X132604761Y-71707200D02*
X132509523Y-71754819D01*
X132509523Y-71754819D02*
X132319047Y-71754819D01*
X132319047Y-71754819D02*
X132223809Y-71707200D01*
X133128571Y-71754819D02*
X133128571Y-70754819D01*
X133128571Y-71135771D02*
X133223809Y-71088152D01*
X133223809Y-71088152D02*
X133414285Y-71088152D01*
X133414285Y-71088152D02*
X133509523Y-71135771D01*
X133509523Y-71135771D02*
X133557142Y-71183390D01*
X133557142Y-71183390D02*
X133604761Y-71278628D01*
X133604761Y-71278628D02*
X133604761Y-71564342D01*
X133604761Y-71564342D02*
X133557142Y-71659580D01*
X133557142Y-71659580D02*
X133509523Y-71707200D01*
X133509523Y-71707200D02*
X133414285Y-71754819D01*
X133414285Y-71754819D02*
X133223809Y-71754819D01*
X133223809Y-71754819D02*
X133128571Y-71707200D01*
X134414285Y-71707200D02*
X134319047Y-71754819D01*
X134319047Y-71754819D02*
X134128571Y-71754819D01*
X134128571Y-71754819D02*
X134033333Y-71707200D01*
X134033333Y-71707200D02*
X133985714Y-71611961D01*
X133985714Y-71611961D02*
X133985714Y-71231009D01*
X133985714Y-71231009D02*
X134033333Y-71135771D01*
X134033333Y-71135771D02*
X134128571Y-71088152D01*
X134128571Y-71088152D02*
X134319047Y-71088152D01*
X134319047Y-71088152D02*
X134414285Y-71135771D01*
X134414285Y-71135771D02*
X134461904Y-71231009D01*
X134461904Y-71231009D02*
X134461904Y-71326247D01*
X134461904Y-71326247D02*
X133985714Y-71421485D01*
X134890476Y-71754819D02*
X134890476Y-71088152D01*
X134890476Y-71278628D02*
X134938095Y-71183390D01*
X134938095Y-71183390D02*
X134985714Y-71135771D01*
X134985714Y-71135771D02*
X135080952Y-71088152D01*
X135080952Y-71088152D02*
X135176190Y-71088152D01*
X135509524Y-71754819D02*
X135509524Y-71088152D01*
X135509524Y-71278628D02*
X135557143Y-71183390D01*
X135557143Y-71183390D02*
X135604762Y-71135771D01*
X135604762Y-71135771D02*
X135700000Y-71088152D01*
X135700000Y-71088152D02*
X135795238Y-71088152D01*
X136033334Y-71088152D02*
X136271429Y-71754819D01*
X136509524Y-71088152D02*
X136271429Y-71754819D01*
X136271429Y-71754819D02*
X136176191Y-71992914D01*
X136176191Y-71992914D02*
X136128572Y-72040533D01*
X136128572Y-72040533D02*
X136033334Y-72088152D01*
X136890477Y-71754819D02*
X136890477Y-70754819D01*
X136890477Y-70754819D02*
X137271429Y-70754819D01*
X137271429Y-70754819D02*
X137366667Y-70802438D01*
X137366667Y-70802438D02*
X137414286Y-70850057D01*
X137414286Y-70850057D02*
X137461905Y-70945295D01*
X137461905Y-70945295D02*
X137461905Y-71088152D01*
X137461905Y-71088152D02*
X137414286Y-71183390D01*
X137414286Y-71183390D02*
X137366667Y-71231009D01*
X137366667Y-71231009D02*
X137271429Y-71278628D01*
X137271429Y-71278628D02*
X136890477Y-71278628D01*
X137890477Y-71754819D02*
X137890477Y-71088152D01*
X137890477Y-70754819D02*
X137842858Y-70802438D01*
X137842858Y-70802438D02*
X137890477Y-70850057D01*
X137890477Y-70850057D02*
X137938096Y-70802438D01*
X137938096Y-70802438D02*
X137890477Y-70754819D01*
X137890477Y-70754819D02*
X137890477Y-70850057D01*
X139128572Y-71754819D02*
X139128572Y-70754819D01*
X139128572Y-70754819D02*
X139509524Y-70754819D01*
X139509524Y-70754819D02*
X139604762Y-70802438D01*
X139604762Y-70802438D02*
X139652381Y-70850057D01*
X139652381Y-70850057D02*
X139700000Y-70945295D01*
X139700000Y-70945295D02*
X139700000Y-71088152D01*
X139700000Y-71088152D02*
X139652381Y-71183390D01*
X139652381Y-71183390D02*
X139604762Y-71231009D01*
X139604762Y-71231009D02*
X139509524Y-71278628D01*
X139509524Y-71278628D02*
X139128572Y-71278628D01*
X140128572Y-71754819D02*
X140128572Y-71088152D01*
X140128572Y-70754819D02*
X140080953Y-70802438D01*
X140080953Y-70802438D02*
X140128572Y-70850057D01*
X140128572Y-70850057D02*
X140176191Y-70802438D01*
X140176191Y-70802438D02*
X140128572Y-70754819D01*
X140128572Y-70754819D02*
X140128572Y-70850057D01*
X141033333Y-71707200D02*
X140938095Y-71754819D01*
X140938095Y-71754819D02*
X140747619Y-71754819D01*
X140747619Y-71754819D02*
X140652381Y-71707200D01*
X140652381Y-71707200D02*
X140604762Y-71659580D01*
X140604762Y-71659580D02*
X140557143Y-71564342D01*
X140557143Y-71564342D02*
X140557143Y-71278628D01*
X140557143Y-71278628D02*
X140604762Y-71183390D01*
X140604762Y-71183390D02*
X140652381Y-71135771D01*
X140652381Y-71135771D02*
X140747619Y-71088152D01*
X140747619Y-71088152D02*
X140938095Y-71088152D01*
X140938095Y-71088152D02*
X141033333Y-71135771D01*
X141604762Y-71754819D02*
X141509524Y-71707200D01*
X141509524Y-71707200D02*
X141461905Y-71659580D01*
X141461905Y-71659580D02*
X141414286Y-71564342D01*
X141414286Y-71564342D02*
X141414286Y-71278628D01*
X141414286Y-71278628D02*
X141461905Y-71183390D01*
X141461905Y-71183390D02*
X141509524Y-71135771D01*
X141509524Y-71135771D02*
X141604762Y-71088152D01*
X141604762Y-71088152D02*
X141747619Y-71088152D01*
X141747619Y-71088152D02*
X141842857Y-71135771D01*
X141842857Y-71135771D02*
X141890476Y-71183390D01*
X141890476Y-71183390D02*
X141938095Y-71278628D01*
X141938095Y-71278628D02*
X141938095Y-71564342D01*
X141938095Y-71564342D02*
X141890476Y-71659580D01*
X141890476Y-71659580D02*
X141842857Y-71707200D01*
X141842857Y-71707200D02*
X141747619Y-71754819D01*
X141747619Y-71754819D02*
X141604762Y-71754819D01*
D10*
X157935104Y-68045238D02*
X158735104Y-68045238D01*
X158735104Y-68045238D02*
X158163676Y-68311904D01*
X158163676Y-68311904D02*
X158735104Y-68578571D01*
X158735104Y-68578571D02*
X157935104Y-68578571D01*
X157935104Y-68959524D02*
X158468438Y-68959524D01*
X158735104Y-68959524D02*
X158697009Y-68921428D01*
X158697009Y-68921428D02*
X158658914Y-68959524D01*
X158658914Y-68959524D02*
X158697009Y-68997619D01*
X158697009Y-68997619D02*
X158735104Y-68959524D01*
X158735104Y-68959524D02*
X158658914Y-68959524D01*
X157973200Y-69683333D02*
X157935104Y-69607142D01*
X157935104Y-69607142D02*
X157935104Y-69454761D01*
X157935104Y-69454761D02*
X157973200Y-69378571D01*
X157973200Y-69378571D02*
X158011295Y-69340476D01*
X158011295Y-69340476D02*
X158087485Y-69302380D01*
X158087485Y-69302380D02*
X158316057Y-69302380D01*
X158316057Y-69302380D02*
X158392247Y-69340476D01*
X158392247Y-69340476D02*
X158430342Y-69378571D01*
X158430342Y-69378571D02*
X158468438Y-69454761D01*
X158468438Y-69454761D02*
X158468438Y-69607142D01*
X158468438Y-69607142D02*
X158430342Y-69683333D01*
X157935104Y-70026190D02*
X158468438Y-70026190D01*
X158316057Y-70026190D02*
X158392247Y-70064285D01*
X158392247Y-70064285D02*
X158430342Y-70102380D01*
X158430342Y-70102380D02*
X158468438Y-70178571D01*
X158468438Y-70178571D02*
X158468438Y-70254761D01*
X157935104Y-70635713D02*
X157973200Y-70559523D01*
X157973200Y-70559523D02*
X158011295Y-70521428D01*
X158011295Y-70521428D02*
X158087485Y-70483332D01*
X158087485Y-70483332D02*
X158316057Y-70483332D01*
X158316057Y-70483332D02*
X158392247Y-70521428D01*
X158392247Y-70521428D02*
X158430342Y-70559523D01*
X158430342Y-70559523D02*
X158468438Y-70635713D01*
X158468438Y-70635713D02*
X158468438Y-70749999D01*
X158468438Y-70749999D02*
X158430342Y-70826190D01*
X158430342Y-70826190D02*
X158392247Y-70864285D01*
X158392247Y-70864285D02*
X158316057Y-70902380D01*
X158316057Y-70902380D02*
X158087485Y-70902380D01*
X158087485Y-70902380D02*
X158011295Y-70864285D01*
X158011295Y-70864285D02*
X157973200Y-70826190D01*
X157973200Y-70826190D02*
X157935104Y-70749999D01*
X157935104Y-70749999D02*
X157935104Y-70635713D01*
X158239866Y-71245238D02*
X158239866Y-71854762D01*
X158735104Y-72235714D02*
X158087485Y-72235714D01*
X158087485Y-72235714D02*
X158011295Y-72273809D01*
X158011295Y-72273809D02*
X157973200Y-72311904D01*
X157973200Y-72311904D02*
X157935104Y-72388095D01*
X157935104Y-72388095D02*
X157935104Y-72540476D01*
X157935104Y-72540476D02*
X157973200Y-72616666D01*
X157973200Y-72616666D02*
X158011295Y-72654761D01*
X158011295Y-72654761D02*
X158087485Y-72692857D01*
X158087485Y-72692857D02*
X158735104Y-72692857D01*
X157973200Y-73035713D02*
X157935104Y-73149999D01*
X157935104Y-73149999D02*
X157935104Y-73340475D01*
X157935104Y-73340475D02*
X157973200Y-73416666D01*
X157973200Y-73416666D02*
X158011295Y-73454761D01*
X158011295Y-73454761D02*
X158087485Y-73492856D01*
X158087485Y-73492856D02*
X158163676Y-73492856D01*
X158163676Y-73492856D02*
X158239866Y-73454761D01*
X158239866Y-73454761D02*
X158277961Y-73416666D01*
X158277961Y-73416666D02*
X158316057Y-73340475D01*
X158316057Y-73340475D02*
X158354152Y-73188094D01*
X158354152Y-73188094D02*
X158392247Y-73111904D01*
X158392247Y-73111904D02*
X158430342Y-73073809D01*
X158430342Y-73073809D02*
X158506533Y-73035713D01*
X158506533Y-73035713D02*
X158582723Y-73035713D01*
X158582723Y-73035713D02*
X158658914Y-73073809D01*
X158658914Y-73073809D02*
X158697009Y-73111904D01*
X158697009Y-73111904D02*
X158735104Y-73188094D01*
X158735104Y-73188094D02*
X158735104Y-73378571D01*
X158735104Y-73378571D02*
X158697009Y-73492856D01*
X158354152Y-74102380D02*
X158316057Y-74216666D01*
X158316057Y-74216666D02*
X158277961Y-74254761D01*
X158277961Y-74254761D02*
X158201771Y-74292857D01*
X158201771Y-74292857D02*
X158087485Y-74292857D01*
X158087485Y-74292857D02*
X158011295Y-74254761D01*
X158011295Y-74254761D02*
X157973200Y-74216666D01*
X157973200Y-74216666D02*
X157935104Y-74140476D01*
X157935104Y-74140476D02*
X157935104Y-73835714D01*
X157935104Y-73835714D02*
X158735104Y-73835714D01*
X158735104Y-73835714D02*
X158735104Y-74102380D01*
X158735104Y-74102380D02*
X158697009Y-74178571D01*
X158697009Y-74178571D02*
X158658914Y-74216666D01*
X158658914Y-74216666D02*
X158582723Y-74254761D01*
X158582723Y-74254761D02*
X158506533Y-74254761D01*
X158506533Y-74254761D02*
X158430342Y-74216666D01*
X158430342Y-74216666D02*
X158392247Y-74178571D01*
X158392247Y-74178571D02*
X158354152Y-74102380D01*
X158354152Y-74102380D02*
X158354152Y-73835714D01*
X78380074Y-57946895D02*
X78570550Y-58746895D01*
X78570550Y-58746895D02*
X78722931Y-58175466D01*
X78722931Y-58175466D02*
X78875312Y-58746895D01*
X78875312Y-58746895D02*
X79065789Y-57946895D01*
X77272931Y-72527847D02*
X77387217Y-72565942D01*
X77387217Y-72565942D02*
X77425312Y-72604038D01*
X77425312Y-72604038D02*
X77463408Y-72680228D01*
X77463408Y-72680228D02*
X77463408Y-72794514D01*
X77463408Y-72794514D02*
X77425312Y-72870704D01*
X77425312Y-72870704D02*
X77387217Y-72908800D01*
X77387217Y-72908800D02*
X77311027Y-72946895D01*
X77311027Y-72946895D02*
X77006265Y-72946895D01*
X77006265Y-72946895D02*
X77006265Y-72146895D01*
X77006265Y-72146895D02*
X77272931Y-72146895D01*
X77272931Y-72146895D02*
X77349122Y-72184990D01*
X77349122Y-72184990D02*
X77387217Y-72223085D01*
X77387217Y-72223085D02*
X77425312Y-72299276D01*
X77425312Y-72299276D02*
X77425312Y-72375466D01*
X77425312Y-72375466D02*
X77387217Y-72451657D01*
X77387217Y-72451657D02*
X77349122Y-72489752D01*
X77349122Y-72489752D02*
X77272931Y-72527847D01*
X77272931Y-72527847D02*
X77006265Y-72527847D01*
X77958646Y-72146895D02*
X78111027Y-72146895D01*
X78111027Y-72146895D02*
X78187217Y-72184990D01*
X78187217Y-72184990D02*
X78263408Y-72261180D01*
X78263408Y-72261180D02*
X78301503Y-72413561D01*
X78301503Y-72413561D02*
X78301503Y-72680228D01*
X78301503Y-72680228D02*
X78263408Y-72832609D01*
X78263408Y-72832609D02*
X78187217Y-72908800D01*
X78187217Y-72908800D02*
X78111027Y-72946895D01*
X78111027Y-72946895D02*
X77958646Y-72946895D01*
X77958646Y-72946895D02*
X77882455Y-72908800D01*
X77882455Y-72908800D02*
X77806265Y-72832609D01*
X77806265Y-72832609D02*
X77768169Y-72680228D01*
X77768169Y-72680228D02*
X77768169Y-72413561D01*
X77768169Y-72413561D02*
X77806265Y-72261180D01*
X77806265Y-72261180D02*
X77882455Y-72184990D01*
X77882455Y-72184990D02*
X77958646Y-72146895D01*
X78606264Y-72223085D02*
X78644360Y-72184990D01*
X78644360Y-72184990D02*
X78720550Y-72146895D01*
X78720550Y-72146895D02*
X78911026Y-72146895D01*
X78911026Y-72146895D02*
X78987217Y-72184990D01*
X78987217Y-72184990D02*
X79025312Y-72223085D01*
X79025312Y-72223085D02*
X79063407Y-72299276D01*
X79063407Y-72299276D02*
X79063407Y-72375466D01*
X79063407Y-72375466D02*
X79025312Y-72489752D01*
X79025312Y-72489752D02*
X78568169Y-72946895D01*
X78568169Y-72946895D02*
X79063407Y-72946895D01*
X95118169Y-67443323D02*
X95499122Y-67443323D01*
X95041979Y-67671895D02*
X95308646Y-66871895D01*
X95308646Y-66871895D02*
X95575312Y-67671895D01*
X95841979Y-67671895D02*
X95841979Y-66871895D01*
X96222931Y-67671895D02*
X96222931Y-66871895D01*
X96222931Y-66871895D02*
X96680074Y-67671895D01*
X96680074Y-67671895D02*
X96680074Y-66871895D01*
X97480073Y-67671895D02*
X97022930Y-67671895D01*
X97251502Y-67671895D02*
X97251502Y-66871895D01*
X97251502Y-66871895D02*
X97175311Y-66986180D01*
X97175311Y-66986180D02*
X97099121Y-67062371D01*
X97099121Y-67062371D02*
X97022930Y-67100466D01*
D11*
X154752380Y-51354819D02*
X154752380Y-52069104D01*
X154752380Y-52069104D02*
X154704761Y-52211961D01*
X154704761Y-52211961D02*
X154609523Y-52307200D01*
X154609523Y-52307200D02*
X154466666Y-52354819D01*
X154466666Y-52354819D02*
X154371428Y-52354819D01*
X155657142Y-51354819D02*
X155466666Y-51354819D01*
X155466666Y-51354819D02*
X155371428Y-51402438D01*
X155371428Y-51402438D02*
X155323809Y-51450057D01*
X155323809Y-51450057D02*
X155228571Y-51592914D01*
X155228571Y-51592914D02*
X155180952Y-51783390D01*
X155180952Y-51783390D02*
X155180952Y-52164342D01*
X155180952Y-52164342D02*
X155228571Y-52259580D01*
X155228571Y-52259580D02*
X155276190Y-52307200D01*
X155276190Y-52307200D02*
X155371428Y-52354819D01*
X155371428Y-52354819D02*
X155561904Y-52354819D01*
X155561904Y-52354819D02*
X155657142Y-52307200D01*
X155657142Y-52307200D02*
X155704761Y-52259580D01*
X155704761Y-52259580D02*
X155752380Y-52164342D01*
X155752380Y-52164342D02*
X155752380Y-51926247D01*
X155752380Y-51926247D02*
X155704761Y-51831009D01*
X155704761Y-51831009D02*
X155657142Y-51783390D01*
X155657142Y-51783390D02*
X155561904Y-51735771D01*
X155561904Y-51735771D02*
X155371428Y-51735771D01*
X155371428Y-51735771D02*
X155276190Y-51783390D01*
X155276190Y-51783390D02*
X155228571Y-51831009D01*
X155228571Y-51831009D02*
X155180952Y-51926247D01*
X156942857Y-51354819D02*
X156942857Y-52164342D01*
X156942857Y-52164342D02*
X156990476Y-52259580D01*
X156990476Y-52259580D02*
X157038095Y-52307200D01*
X157038095Y-52307200D02*
X157133333Y-52354819D01*
X157133333Y-52354819D02*
X157323809Y-52354819D01*
X157323809Y-52354819D02*
X157419047Y-52307200D01*
X157419047Y-52307200D02*
X157466666Y-52259580D01*
X157466666Y-52259580D02*
X157514285Y-52164342D01*
X157514285Y-52164342D02*
X157514285Y-51354819D01*
X157942857Y-52069104D02*
X158419047Y-52069104D01*
X157847619Y-52354819D02*
X158180952Y-51354819D01*
X158180952Y-51354819D02*
X158514285Y-52354819D01*
X159419047Y-52354819D02*
X159085714Y-51878628D01*
X158847619Y-52354819D02*
X158847619Y-51354819D01*
X158847619Y-51354819D02*
X159228571Y-51354819D01*
X159228571Y-51354819D02*
X159323809Y-51402438D01*
X159323809Y-51402438D02*
X159371428Y-51450057D01*
X159371428Y-51450057D02*
X159419047Y-51545295D01*
X159419047Y-51545295D02*
X159419047Y-51688152D01*
X159419047Y-51688152D02*
X159371428Y-51783390D01*
X159371428Y-51783390D02*
X159323809Y-51831009D01*
X159323809Y-51831009D02*
X159228571Y-51878628D01*
X159228571Y-51878628D02*
X158847619Y-51878628D01*
X159704762Y-51354819D02*
X160276190Y-51354819D01*
X159990476Y-52354819D02*
X159990476Y-51354819D01*
X110333333Y-93554819D02*
X110000000Y-93078628D01*
X109761905Y-93554819D02*
X109761905Y-92554819D01*
X109761905Y-92554819D02*
X110142857Y-92554819D01*
X110142857Y-92554819D02*
X110238095Y-92602438D01*
X110238095Y-92602438D02*
X110285714Y-92650057D01*
X110285714Y-92650057D02*
X110333333Y-92745295D01*
X110333333Y-92745295D02*
X110333333Y-92888152D01*
X110333333Y-92888152D02*
X110285714Y-92983390D01*
X110285714Y-92983390D02*
X110238095Y-93031009D01*
X110238095Y-93031009D02*
X110142857Y-93078628D01*
X110142857Y-93078628D02*
X109761905Y-93078628D01*
X111238095Y-92554819D02*
X110761905Y-92554819D01*
X110761905Y-92554819D02*
X110714286Y-93031009D01*
X110714286Y-93031009D02*
X110761905Y-92983390D01*
X110761905Y-92983390D02*
X110857143Y-92935771D01*
X110857143Y-92935771D02*
X111095238Y-92935771D01*
X111095238Y-92935771D02*
X111190476Y-92983390D01*
X111190476Y-92983390D02*
X111238095Y-93031009D01*
X111238095Y-93031009D02*
X111285714Y-93126247D01*
X111285714Y-93126247D02*
X111285714Y-93364342D01*
X111285714Y-93364342D02*
X111238095Y-93459580D01*
X111238095Y-93459580D02*
X111190476Y-93507200D01*
X111190476Y-93507200D02*
X111095238Y-93554819D01*
X111095238Y-93554819D02*
X110857143Y-93554819D01*
X110857143Y-93554819D02*
X110761905Y-93507200D01*
X110761905Y-93507200D02*
X110714286Y-93459580D01*
X113235905Y-94150057D02*
X113283524Y-94102438D01*
X113283524Y-94102438D02*
X113378762Y-94054819D01*
X113378762Y-94054819D02*
X113616857Y-94054819D01*
X113616857Y-94054819D02*
X113712095Y-94102438D01*
X113712095Y-94102438D02*
X113759714Y-94150057D01*
X113759714Y-94150057D02*
X113807333Y-94245295D01*
X113807333Y-94245295D02*
X113807333Y-94340533D01*
X113807333Y-94340533D02*
X113759714Y-94483390D01*
X113759714Y-94483390D02*
X113188286Y-95054819D01*
X113188286Y-95054819D02*
X113807333Y-95054819D01*
X114188286Y-94150057D02*
X114235905Y-94102438D01*
X114235905Y-94102438D02*
X114331143Y-94054819D01*
X114331143Y-94054819D02*
X114569238Y-94054819D01*
X114569238Y-94054819D02*
X114664476Y-94102438D01*
X114664476Y-94102438D02*
X114712095Y-94150057D01*
X114712095Y-94150057D02*
X114759714Y-94245295D01*
X114759714Y-94245295D02*
X114759714Y-94340533D01*
X114759714Y-94340533D02*
X114712095Y-94483390D01*
X114712095Y-94483390D02*
X114140667Y-95054819D01*
X114140667Y-95054819D02*
X114759714Y-95054819D01*
X115378762Y-94054819D02*
X115474000Y-94054819D01*
X115474000Y-94054819D02*
X115569238Y-94102438D01*
X115569238Y-94102438D02*
X115616857Y-94150057D01*
X115616857Y-94150057D02*
X115664476Y-94245295D01*
X115664476Y-94245295D02*
X115712095Y-94435771D01*
X115712095Y-94435771D02*
X115712095Y-94673866D01*
X115712095Y-94673866D02*
X115664476Y-94864342D01*
X115664476Y-94864342D02*
X115616857Y-94959580D01*
X115616857Y-94959580D02*
X115569238Y-95007200D01*
X115569238Y-95007200D02*
X115474000Y-95054819D01*
X115474000Y-95054819D02*
X115378762Y-95054819D01*
X115378762Y-95054819D02*
X115283524Y-95007200D01*
X115283524Y-95007200D02*
X115235905Y-94959580D01*
X115235905Y-94959580D02*
X115188286Y-94864342D01*
X115188286Y-94864342D02*
X115140667Y-94673866D01*
X115140667Y-94673866D02*
X115140667Y-94435771D01*
X115140667Y-94435771D02*
X115188286Y-94245295D01*
X115188286Y-94245295D02*
X115235905Y-94150057D01*
X115235905Y-94150057D02*
X115283524Y-94102438D01*
X115283524Y-94102438D02*
X115378762Y-94054819D01*
X116712095Y-95054819D02*
X116378762Y-94578628D01*
X116140667Y-95054819D02*
X116140667Y-94054819D01*
X116140667Y-94054819D02*
X116521619Y-94054819D01*
X116521619Y-94054819D02*
X116616857Y-94102438D01*
X116616857Y-94102438D02*
X116664476Y-94150057D01*
X116664476Y-94150057D02*
X116712095Y-94245295D01*
X116712095Y-94245295D02*
X116712095Y-94388152D01*
X116712095Y-94388152D02*
X116664476Y-94483390D01*
X116664476Y-94483390D02*
X116616857Y-94531009D01*
X116616857Y-94531009D02*
X116521619Y-94578628D01*
X116521619Y-94578628D02*
X116140667Y-94578628D01*
X134833333Y-88854819D02*
X134500000Y-88378628D01*
X134261905Y-88854819D02*
X134261905Y-87854819D01*
X134261905Y-87854819D02*
X134642857Y-87854819D01*
X134642857Y-87854819D02*
X134738095Y-87902438D01*
X134738095Y-87902438D02*
X134785714Y-87950057D01*
X134785714Y-87950057D02*
X134833333Y-88045295D01*
X134833333Y-88045295D02*
X134833333Y-88188152D01*
X134833333Y-88188152D02*
X134785714Y-88283390D01*
X134785714Y-88283390D02*
X134738095Y-88331009D01*
X134738095Y-88331009D02*
X134642857Y-88378628D01*
X134642857Y-88378628D02*
X134261905Y-88378628D01*
X135309524Y-88854819D02*
X135500000Y-88854819D01*
X135500000Y-88854819D02*
X135595238Y-88807200D01*
X135595238Y-88807200D02*
X135642857Y-88759580D01*
X135642857Y-88759580D02*
X135738095Y-88616723D01*
X135738095Y-88616723D02*
X135785714Y-88426247D01*
X135785714Y-88426247D02*
X135785714Y-88045295D01*
X135785714Y-88045295D02*
X135738095Y-87950057D01*
X135738095Y-87950057D02*
X135690476Y-87902438D01*
X135690476Y-87902438D02*
X135595238Y-87854819D01*
X135595238Y-87854819D02*
X135404762Y-87854819D01*
X135404762Y-87854819D02*
X135309524Y-87902438D01*
X135309524Y-87902438D02*
X135261905Y-87950057D01*
X135261905Y-87950057D02*
X135214286Y-88045295D01*
X135214286Y-88045295D02*
X135214286Y-88283390D01*
X135214286Y-88283390D02*
X135261905Y-88378628D01*
X135261905Y-88378628D02*
X135309524Y-88426247D01*
X135309524Y-88426247D02*
X135404762Y-88473866D01*
X135404762Y-88473866D02*
X135595238Y-88473866D01*
X135595238Y-88473866D02*
X135690476Y-88426247D01*
X135690476Y-88426247D02*
X135738095Y-88378628D01*
X135738095Y-88378628D02*
X135785714Y-88283390D01*
X138330952Y-88754819D02*
X137759524Y-88754819D01*
X138045238Y-88754819D02*
X138045238Y-87754819D01*
X138045238Y-87754819D02*
X137950000Y-87897676D01*
X137950000Y-87897676D02*
X137854762Y-87992914D01*
X137854762Y-87992914D02*
X137759524Y-88040533D01*
X138759524Y-88754819D02*
X138759524Y-87754819D01*
X138854762Y-88373866D02*
X139140476Y-88754819D01*
X139140476Y-88088152D02*
X138759524Y-88469104D01*
X129033333Y-57654819D02*
X128700000Y-57178628D01*
X128461905Y-57654819D02*
X128461905Y-56654819D01*
X128461905Y-56654819D02*
X128842857Y-56654819D01*
X128842857Y-56654819D02*
X128938095Y-56702438D01*
X128938095Y-56702438D02*
X128985714Y-56750057D01*
X128985714Y-56750057D02*
X129033333Y-56845295D01*
X129033333Y-56845295D02*
X129033333Y-56988152D01*
X129033333Y-56988152D02*
X128985714Y-57083390D01*
X128985714Y-57083390D02*
X128938095Y-57131009D01*
X128938095Y-57131009D02*
X128842857Y-57178628D01*
X128842857Y-57178628D02*
X128461905Y-57178628D01*
X129366667Y-56654819D02*
X129985714Y-56654819D01*
X129985714Y-56654819D02*
X129652381Y-57035771D01*
X129652381Y-57035771D02*
X129795238Y-57035771D01*
X129795238Y-57035771D02*
X129890476Y-57083390D01*
X129890476Y-57083390D02*
X129938095Y-57131009D01*
X129938095Y-57131009D02*
X129985714Y-57226247D01*
X129985714Y-57226247D02*
X129985714Y-57464342D01*
X129985714Y-57464342D02*
X129938095Y-57559580D01*
X129938095Y-57559580D02*
X129890476Y-57607200D01*
X129890476Y-57607200D02*
X129795238Y-57654819D01*
X129795238Y-57654819D02*
X129509524Y-57654819D01*
X129509524Y-57654819D02*
X129414286Y-57607200D01*
X129414286Y-57607200D02*
X129366667Y-57559580D01*
X130590057Y-54690475D02*
X130542438Y-54642856D01*
X130542438Y-54642856D02*
X130494819Y-54547618D01*
X130494819Y-54547618D02*
X130494819Y-54309523D01*
X130494819Y-54309523D02*
X130542438Y-54214285D01*
X130542438Y-54214285D02*
X130590057Y-54166666D01*
X130590057Y-54166666D02*
X130685295Y-54119047D01*
X130685295Y-54119047D02*
X130780533Y-54119047D01*
X130780533Y-54119047D02*
X130923390Y-54166666D01*
X130923390Y-54166666D02*
X131494819Y-54738094D01*
X131494819Y-54738094D02*
X131494819Y-54119047D01*
X131494819Y-53690475D02*
X130494819Y-53690475D01*
X131113866Y-53595237D02*
X131494819Y-53309523D01*
X130828152Y-53309523D02*
X131209104Y-53690475D01*
X124533333Y-86354819D02*
X124200000Y-85878628D01*
X123961905Y-86354819D02*
X123961905Y-85354819D01*
X123961905Y-85354819D02*
X124342857Y-85354819D01*
X124342857Y-85354819D02*
X124438095Y-85402438D01*
X124438095Y-85402438D02*
X124485714Y-85450057D01*
X124485714Y-85450057D02*
X124533333Y-85545295D01*
X124533333Y-85545295D02*
X124533333Y-85688152D01*
X124533333Y-85688152D02*
X124485714Y-85783390D01*
X124485714Y-85783390D02*
X124438095Y-85831009D01*
X124438095Y-85831009D02*
X124342857Y-85878628D01*
X124342857Y-85878628D02*
X123961905Y-85878628D01*
X125104762Y-85783390D02*
X125009524Y-85735771D01*
X125009524Y-85735771D02*
X124961905Y-85688152D01*
X124961905Y-85688152D02*
X124914286Y-85592914D01*
X124914286Y-85592914D02*
X124914286Y-85545295D01*
X124914286Y-85545295D02*
X124961905Y-85450057D01*
X124961905Y-85450057D02*
X125009524Y-85402438D01*
X125009524Y-85402438D02*
X125104762Y-85354819D01*
X125104762Y-85354819D02*
X125295238Y-85354819D01*
X125295238Y-85354819D02*
X125390476Y-85402438D01*
X125390476Y-85402438D02*
X125438095Y-85450057D01*
X125438095Y-85450057D02*
X125485714Y-85545295D01*
X125485714Y-85545295D02*
X125485714Y-85592914D01*
X125485714Y-85592914D02*
X125438095Y-85688152D01*
X125438095Y-85688152D02*
X125390476Y-85735771D01*
X125390476Y-85735771D02*
X125295238Y-85783390D01*
X125295238Y-85783390D02*
X125104762Y-85783390D01*
X125104762Y-85783390D02*
X125009524Y-85831009D01*
X125009524Y-85831009D02*
X124961905Y-85878628D01*
X124961905Y-85878628D02*
X124914286Y-85973866D01*
X124914286Y-85973866D02*
X124914286Y-86164342D01*
X124914286Y-86164342D02*
X124961905Y-86259580D01*
X124961905Y-86259580D02*
X125009524Y-86307200D01*
X125009524Y-86307200D02*
X125104762Y-86354819D01*
X125104762Y-86354819D02*
X125295238Y-86354819D01*
X125295238Y-86354819D02*
X125390476Y-86307200D01*
X125390476Y-86307200D02*
X125438095Y-86259580D01*
X125438095Y-86259580D02*
X125485714Y-86164342D01*
X125485714Y-86164342D02*
X125485714Y-85973866D01*
X125485714Y-85973866D02*
X125438095Y-85878628D01*
X125438095Y-85878628D02*
X125390476Y-85831009D01*
X125390476Y-85831009D02*
X125295238Y-85783390D01*
X128030952Y-86354819D02*
X127459524Y-86354819D01*
X127745238Y-86354819D02*
X127745238Y-85354819D01*
X127745238Y-85354819D02*
X127650000Y-85497676D01*
X127650000Y-85497676D02*
X127554762Y-85592914D01*
X127554762Y-85592914D02*
X127459524Y-85640533D01*
X128459524Y-86354819D02*
X128459524Y-85354819D01*
X128554762Y-85973866D02*
X128840476Y-86354819D01*
X128840476Y-85688152D02*
X128459524Y-86069104D01*
X157233333Y-82962295D02*
X157233333Y-83533723D01*
X157233333Y-83533723D02*
X157195238Y-83648009D01*
X157195238Y-83648009D02*
X157119047Y-83724200D01*
X157119047Y-83724200D02*
X157004762Y-83762295D01*
X157004762Y-83762295D02*
X156928571Y-83762295D01*
X157728571Y-83305152D02*
X157652381Y-83267057D01*
X157652381Y-83267057D02*
X157614286Y-83228961D01*
X157614286Y-83228961D02*
X157576190Y-83152771D01*
X157576190Y-83152771D02*
X157576190Y-83114676D01*
X157576190Y-83114676D02*
X157614286Y-83038485D01*
X157614286Y-83038485D02*
X157652381Y-83000390D01*
X157652381Y-83000390D02*
X157728571Y-82962295D01*
X157728571Y-82962295D02*
X157880952Y-82962295D01*
X157880952Y-82962295D02*
X157957143Y-83000390D01*
X157957143Y-83000390D02*
X157995238Y-83038485D01*
X157995238Y-83038485D02*
X158033333Y-83114676D01*
X158033333Y-83114676D02*
X158033333Y-83152771D01*
X158033333Y-83152771D02*
X157995238Y-83228961D01*
X157995238Y-83228961D02*
X157957143Y-83267057D01*
X157957143Y-83267057D02*
X157880952Y-83305152D01*
X157880952Y-83305152D02*
X157728571Y-83305152D01*
X157728571Y-83305152D02*
X157652381Y-83343247D01*
X157652381Y-83343247D02*
X157614286Y-83381342D01*
X157614286Y-83381342D02*
X157576190Y-83457533D01*
X157576190Y-83457533D02*
X157576190Y-83609914D01*
X157576190Y-83609914D02*
X157614286Y-83686104D01*
X157614286Y-83686104D02*
X157652381Y-83724200D01*
X157652381Y-83724200D02*
X157728571Y-83762295D01*
X157728571Y-83762295D02*
X157880952Y-83762295D01*
X157880952Y-83762295D02*
X157957143Y-83724200D01*
X157957143Y-83724200D02*
X157995238Y-83686104D01*
X157995238Y-83686104D02*
X158033333Y-83609914D01*
X158033333Y-83609914D02*
X158033333Y-83457533D01*
X158033333Y-83457533D02*
X157995238Y-83381342D01*
X157995238Y-83381342D02*
X157957143Y-83343247D01*
X157957143Y-83343247D02*
X157880952Y-83305152D01*
X138766667Y-99607200D02*
X138909524Y-99654819D01*
X138909524Y-99654819D02*
X139147619Y-99654819D01*
X139147619Y-99654819D02*
X139242857Y-99607200D01*
X139242857Y-99607200D02*
X139290476Y-99559580D01*
X139290476Y-99559580D02*
X139338095Y-99464342D01*
X139338095Y-99464342D02*
X139338095Y-99369104D01*
X139338095Y-99369104D02*
X139290476Y-99273866D01*
X139290476Y-99273866D02*
X139242857Y-99226247D01*
X139242857Y-99226247D02*
X139147619Y-99178628D01*
X139147619Y-99178628D02*
X138957143Y-99131009D01*
X138957143Y-99131009D02*
X138861905Y-99083390D01*
X138861905Y-99083390D02*
X138814286Y-99035771D01*
X138814286Y-99035771D02*
X138766667Y-98940533D01*
X138766667Y-98940533D02*
X138766667Y-98845295D01*
X138766667Y-98845295D02*
X138814286Y-98750057D01*
X138814286Y-98750057D02*
X138861905Y-98702438D01*
X138861905Y-98702438D02*
X138957143Y-98654819D01*
X138957143Y-98654819D02*
X139195238Y-98654819D01*
X139195238Y-98654819D02*
X139338095Y-98702438D01*
X139671429Y-98654819D02*
X139909524Y-99654819D01*
X139909524Y-99654819D02*
X140100000Y-98940533D01*
X140100000Y-98940533D02*
X140290476Y-99654819D01*
X140290476Y-99654819D02*
X140528572Y-98654819D01*
X140861905Y-98750057D02*
X140909524Y-98702438D01*
X140909524Y-98702438D02*
X141004762Y-98654819D01*
X141004762Y-98654819D02*
X141242857Y-98654819D01*
X141242857Y-98654819D02*
X141338095Y-98702438D01*
X141338095Y-98702438D02*
X141385714Y-98750057D01*
X141385714Y-98750057D02*
X141433333Y-98845295D01*
X141433333Y-98845295D02*
X141433333Y-98940533D01*
X141433333Y-98940533D02*
X141385714Y-99083390D01*
X141385714Y-99083390D02*
X140814286Y-99654819D01*
X140814286Y-99654819D02*
X141433333Y-99654819D01*
X130333333Y-89059580D02*
X130285714Y-89107200D01*
X130285714Y-89107200D02*
X130142857Y-89154819D01*
X130142857Y-89154819D02*
X130047619Y-89154819D01*
X130047619Y-89154819D02*
X129904762Y-89107200D01*
X129904762Y-89107200D02*
X129809524Y-89011961D01*
X129809524Y-89011961D02*
X129761905Y-88916723D01*
X129761905Y-88916723D02*
X129714286Y-88726247D01*
X129714286Y-88726247D02*
X129714286Y-88583390D01*
X129714286Y-88583390D02*
X129761905Y-88392914D01*
X129761905Y-88392914D02*
X129809524Y-88297676D01*
X129809524Y-88297676D02*
X129904762Y-88202438D01*
X129904762Y-88202438D02*
X130047619Y-88154819D01*
X130047619Y-88154819D02*
X130142857Y-88154819D01*
X130142857Y-88154819D02*
X130285714Y-88202438D01*
X130285714Y-88202438D02*
X130333333Y-88250057D01*
X130714286Y-88250057D02*
X130761905Y-88202438D01*
X130761905Y-88202438D02*
X130857143Y-88154819D01*
X130857143Y-88154819D02*
X131095238Y-88154819D01*
X131095238Y-88154819D02*
X131190476Y-88202438D01*
X131190476Y-88202438D02*
X131238095Y-88250057D01*
X131238095Y-88250057D02*
X131285714Y-88345295D01*
X131285714Y-88345295D02*
X131285714Y-88440533D01*
X131285714Y-88440533D02*
X131238095Y-88583390D01*
X131238095Y-88583390D02*
X130666667Y-89154819D01*
X130666667Y-89154819D02*
X131285714Y-89154819D01*
X126530952Y-90634819D02*
X125959524Y-90634819D01*
X126245238Y-90634819D02*
X126245238Y-89634819D01*
X126245238Y-89634819D02*
X126150000Y-89777676D01*
X126150000Y-89777676D02*
X126054762Y-89872914D01*
X126054762Y-89872914D02*
X125959524Y-89920533D01*
X127150000Y-89634819D02*
X127245238Y-89634819D01*
X127245238Y-89634819D02*
X127340476Y-89682438D01*
X127340476Y-89682438D02*
X127388095Y-89730057D01*
X127388095Y-89730057D02*
X127435714Y-89825295D01*
X127435714Y-89825295D02*
X127483333Y-90015771D01*
X127483333Y-90015771D02*
X127483333Y-90253866D01*
X127483333Y-90253866D02*
X127435714Y-90444342D01*
X127435714Y-90444342D02*
X127388095Y-90539580D01*
X127388095Y-90539580D02*
X127340476Y-90587200D01*
X127340476Y-90587200D02*
X127245238Y-90634819D01*
X127245238Y-90634819D02*
X127150000Y-90634819D01*
X127150000Y-90634819D02*
X127054762Y-90587200D01*
X127054762Y-90587200D02*
X127007143Y-90539580D01*
X127007143Y-90539580D02*
X126959524Y-90444342D01*
X126959524Y-90444342D02*
X126911905Y-90253866D01*
X126911905Y-90253866D02*
X126911905Y-90015771D01*
X126911905Y-90015771D02*
X126959524Y-89825295D01*
X126959524Y-89825295D02*
X127007143Y-89730057D01*
X127007143Y-89730057D02*
X127054762Y-89682438D01*
X127054762Y-89682438D02*
X127150000Y-89634819D01*
X128102381Y-89634819D02*
X128197619Y-89634819D01*
X128197619Y-89634819D02*
X128292857Y-89682438D01*
X128292857Y-89682438D02*
X128340476Y-89730057D01*
X128340476Y-89730057D02*
X128388095Y-89825295D01*
X128388095Y-89825295D02*
X128435714Y-90015771D01*
X128435714Y-90015771D02*
X128435714Y-90253866D01*
X128435714Y-90253866D02*
X128388095Y-90444342D01*
X128388095Y-90444342D02*
X128340476Y-90539580D01*
X128340476Y-90539580D02*
X128292857Y-90587200D01*
X128292857Y-90587200D02*
X128197619Y-90634819D01*
X128197619Y-90634819D02*
X128102381Y-90634819D01*
X128102381Y-90634819D02*
X128007143Y-90587200D01*
X128007143Y-90587200D02*
X127959524Y-90539580D01*
X127959524Y-90539580D02*
X127911905Y-90444342D01*
X127911905Y-90444342D02*
X127864286Y-90253866D01*
X127864286Y-90253866D02*
X127864286Y-90015771D01*
X127864286Y-90015771D02*
X127911905Y-89825295D01*
X127911905Y-89825295D02*
X127959524Y-89730057D01*
X127959524Y-89730057D02*
X128007143Y-89682438D01*
X128007143Y-89682438D02*
X128102381Y-89634819D01*
X128864286Y-89968152D02*
X128864286Y-90634819D01*
X128864286Y-90063390D02*
X128911905Y-90015771D01*
X128911905Y-90015771D02*
X129007143Y-89968152D01*
X129007143Y-89968152D02*
X129150000Y-89968152D01*
X129150000Y-89968152D02*
X129245238Y-90015771D01*
X129245238Y-90015771D02*
X129292857Y-90111009D01*
X129292857Y-90111009D02*
X129292857Y-90634819D01*
X70454539Y-65662300D02*
X71264484Y-65662300D01*
X71264484Y-65662300D02*
X71359772Y-65614657D01*
X71359772Y-65614657D02*
X71407416Y-65567013D01*
X71407416Y-65567013D02*
X71455059Y-65471725D01*
X71455059Y-65471725D02*
X71455059Y-65281150D01*
X71455059Y-65281150D02*
X71407416Y-65185862D01*
X71407416Y-65185862D02*
X71359772Y-65138219D01*
X71359772Y-65138219D02*
X71264484Y-65090575D01*
X71264484Y-65090575D02*
X70454539Y-65090575D01*
X70454539Y-64709424D02*
X70454539Y-64090055D01*
X70454539Y-64090055D02*
X70835690Y-64423561D01*
X70835690Y-64423561D02*
X70835690Y-64280630D01*
X70835690Y-64280630D02*
X70883334Y-64185342D01*
X70883334Y-64185342D02*
X70930977Y-64137698D01*
X70930977Y-64137698D02*
X71026265Y-64090055D01*
X71026265Y-64090055D02*
X71264484Y-64090055D01*
X71264484Y-64090055D02*
X71359772Y-64137698D01*
X71359772Y-64137698D02*
X71407416Y-64185342D01*
X71407416Y-64185342D02*
X71455059Y-64280630D01*
X71455059Y-64280630D02*
X71455059Y-64566493D01*
X71455059Y-64566493D02*
X71407416Y-64661780D01*
X71407416Y-64661780D02*
X71359772Y-64709424D01*
X74355602Y-74538975D02*
X73353909Y-74538975D01*
X73830906Y-74538975D02*
X73830906Y-73966579D01*
X74355602Y-73966579D02*
X73353909Y-73966579D01*
X74260203Y-72917186D02*
X74307903Y-72964886D01*
X74307903Y-72964886D02*
X74355602Y-73107985D01*
X74355602Y-73107985D02*
X74355602Y-73203384D01*
X74355602Y-73203384D02*
X74307903Y-73346483D01*
X74307903Y-73346483D02*
X74212503Y-73441883D01*
X74212503Y-73441883D02*
X74117104Y-73489582D01*
X74117104Y-73489582D02*
X73926305Y-73537282D01*
X73926305Y-73537282D02*
X73783206Y-73537282D01*
X73783206Y-73537282D02*
X73592408Y-73489582D01*
X73592408Y-73489582D02*
X73497008Y-73441883D01*
X73497008Y-73441883D02*
X73401609Y-73346483D01*
X73401609Y-73346483D02*
X73353909Y-73203384D01*
X73353909Y-73203384D02*
X73353909Y-73107985D01*
X73353909Y-73107985D02*
X73401609Y-72964886D01*
X73401609Y-72964886D02*
X73449309Y-72917186D01*
X73974005Y-72487889D02*
X73974005Y-71724695D01*
X74307903Y-71295398D02*
X74355602Y-71152299D01*
X74355602Y-71152299D02*
X74355602Y-70913801D01*
X74355602Y-70913801D02*
X74307903Y-70818401D01*
X74307903Y-70818401D02*
X74260203Y-70770702D01*
X74260203Y-70770702D02*
X74164804Y-70723002D01*
X74164804Y-70723002D02*
X74069404Y-70723002D01*
X74069404Y-70723002D02*
X73974005Y-70770702D01*
X73974005Y-70770702D02*
X73926305Y-70818401D01*
X73926305Y-70818401D02*
X73878606Y-70913801D01*
X73878606Y-70913801D02*
X73830906Y-71104599D01*
X73830906Y-71104599D02*
X73783206Y-71199999D01*
X73783206Y-71199999D02*
X73735507Y-71247698D01*
X73735507Y-71247698D02*
X73640107Y-71295398D01*
X73640107Y-71295398D02*
X73544708Y-71295398D01*
X73544708Y-71295398D02*
X73449309Y-71247698D01*
X73449309Y-71247698D02*
X73401609Y-71199999D01*
X73401609Y-71199999D02*
X73353909Y-71104599D01*
X73353909Y-71104599D02*
X73353909Y-70866101D01*
X73353909Y-70866101D02*
X73401609Y-70723002D01*
X74355602Y-69721309D02*
X73878606Y-70055207D01*
X74355602Y-70293705D02*
X73353909Y-70293705D01*
X73353909Y-70293705D02*
X73353909Y-69912108D01*
X73353909Y-69912108D02*
X73401609Y-69816709D01*
X73401609Y-69816709D02*
X73449309Y-69769009D01*
X73449309Y-69769009D02*
X73544708Y-69721309D01*
X73544708Y-69721309D02*
X73687807Y-69721309D01*
X73687807Y-69721309D02*
X73783206Y-69769009D01*
X73783206Y-69769009D02*
X73830906Y-69816709D01*
X73830906Y-69816709D02*
X73878606Y-69912108D01*
X73878606Y-69912108D02*
X73878606Y-70293705D01*
X73353909Y-69101214D02*
X73353909Y-69005814D01*
X73353909Y-69005814D02*
X73401609Y-68910415D01*
X73401609Y-68910415D02*
X73449309Y-68862715D01*
X73449309Y-68862715D02*
X73544708Y-68815016D01*
X73544708Y-68815016D02*
X73735507Y-68767316D01*
X73735507Y-68767316D02*
X73974005Y-68767316D01*
X73974005Y-68767316D02*
X74164804Y-68815016D01*
X74164804Y-68815016D02*
X74260203Y-68862715D01*
X74260203Y-68862715D02*
X74307903Y-68910415D01*
X74307903Y-68910415D02*
X74355602Y-69005814D01*
X74355602Y-69005814D02*
X74355602Y-69101214D01*
X74355602Y-69101214D02*
X74307903Y-69196613D01*
X74307903Y-69196613D02*
X74260203Y-69244313D01*
X74260203Y-69244313D02*
X74164804Y-69292012D01*
X74164804Y-69292012D02*
X73974005Y-69339712D01*
X73974005Y-69339712D02*
X73735507Y-69339712D01*
X73735507Y-69339712D02*
X73544708Y-69292012D01*
X73544708Y-69292012D02*
X73449309Y-69244313D01*
X73449309Y-69244313D02*
X73401609Y-69196613D01*
X73401609Y-69196613D02*
X73353909Y-69101214D01*
X73687807Y-67908722D02*
X74355602Y-67908722D01*
X73306210Y-68147221D02*
X74021705Y-68385719D01*
X74021705Y-68385719D02*
X74021705Y-67765623D01*
X102261905Y-85754819D02*
X102261905Y-84754819D01*
X102261905Y-84754819D02*
X102500000Y-84754819D01*
X102500000Y-84754819D02*
X102642857Y-84802438D01*
X102642857Y-84802438D02*
X102738095Y-84897676D01*
X102738095Y-84897676D02*
X102785714Y-84992914D01*
X102785714Y-84992914D02*
X102833333Y-85183390D01*
X102833333Y-85183390D02*
X102833333Y-85326247D01*
X102833333Y-85326247D02*
X102785714Y-85516723D01*
X102785714Y-85516723D02*
X102738095Y-85611961D01*
X102738095Y-85611961D02*
X102642857Y-85707200D01*
X102642857Y-85707200D02*
X102500000Y-85754819D01*
X102500000Y-85754819D02*
X102261905Y-85754819D01*
X103785714Y-85754819D02*
X103214286Y-85754819D01*
X103500000Y-85754819D02*
X103500000Y-84754819D01*
X103500000Y-84754819D02*
X103404762Y-84897676D01*
X103404762Y-84897676D02*
X103309524Y-84992914D01*
X103309524Y-84992914D02*
X103214286Y-85040533D01*
X97609523Y-92154819D02*
X97276190Y-91678628D01*
X97038095Y-92154819D02*
X97038095Y-91154819D01*
X97038095Y-91154819D02*
X97419047Y-91154819D01*
X97419047Y-91154819D02*
X97514285Y-91202438D01*
X97514285Y-91202438D02*
X97561904Y-91250057D01*
X97561904Y-91250057D02*
X97609523Y-91345295D01*
X97609523Y-91345295D02*
X97609523Y-91488152D01*
X97609523Y-91488152D02*
X97561904Y-91583390D01*
X97561904Y-91583390D02*
X97514285Y-91631009D01*
X97514285Y-91631009D02*
X97419047Y-91678628D01*
X97419047Y-91678628D02*
X97038095Y-91678628D01*
X98038095Y-92154819D02*
X98038095Y-91154819D01*
X98609523Y-92154819D02*
X98180952Y-91583390D01*
X98609523Y-91154819D02*
X98038095Y-91726247D01*
X99561904Y-91202438D02*
X99466666Y-91154819D01*
X99466666Y-91154819D02*
X99323809Y-91154819D01*
X99323809Y-91154819D02*
X99180952Y-91202438D01*
X99180952Y-91202438D02*
X99085714Y-91297676D01*
X99085714Y-91297676D02*
X99038095Y-91392914D01*
X99038095Y-91392914D02*
X98990476Y-91583390D01*
X98990476Y-91583390D02*
X98990476Y-91726247D01*
X98990476Y-91726247D02*
X99038095Y-91916723D01*
X99038095Y-91916723D02*
X99085714Y-92011961D01*
X99085714Y-92011961D02*
X99180952Y-92107200D01*
X99180952Y-92107200D02*
X99323809Y-92154819D01*
X99323809Y-92154819D02*
X99419047Y-92154819D01*
X99419047Y-92154819D02*
X99561904Y-92107200D01*
X99561904Y-92107200D02*
X99609523Y-92059580D01*
X99609523Y-92059580D02*
X99609523Y-91726247D01*
X99609523Y-91726247D02*
X99419047Y-91726247D01*
X100371428Y-91631009D02*
X100514285Y-91678628D01*
X100514285Y-91678628D02*
X100561904Y-91726247D01*
X100561904Y-91726247D02*
X100609523Y-91821485D01*
X100609523Y-91821485D02*
X100609523Y-91964342D01*
X100609523Y-91964342D02*
X100561904Y-92059580D01*
X100561904Y-92059580D02*
X100514285Y-92107200D01*
X100514285Y-92107200D02*
X100419047Y-92154819D01*
X100419047Y-92154819D02*
X100038095Y-92154819D01*
X100038095Y-92154819D02*
X100038095Y-91154819D01*
X100038095Y-91154819D02*
X100371428Y-91154819D01*
X100371428Y-91154819D02*
X100466666Y-91202438D01*
X100466666Y-91202438D02*
X100514285Y-91250057D01*
X100514285Y-91250057D02*
X100561904Y-91345295D01*
X100561904Y-91345295D02*
X100561904Y-91440533D01*
X100561904Y-91440533D02*
X100514285Y-91535771D01*
X100514285Y-91535771D02*
X100466666Y-91583390D01*
X100466666Y-91583390D02*
X100371428Y-91631009D01*
X100371428Y-91631009D02*
X100038095Y-91631009D01*
X134933333Y-86159580D02*
X134885714Y-86207200D01*
X134885714Y-86207200D02*
X134742857Y-86254819D01*
X134742857Y-86254819D02*
X134647619Y-86254819D01*
X134647619Y-86254819D02*
X134504762Y-86207200D01*
X134504762Y-86207200D02*
X134409524Y-86111961D01*
X134409524Y-86111961D02*
X134361905Y-86016723D01*
X134361905Y-86016723D02*
X134314286Y-85826247D01*
X134314286Y-85826247D02*
X134314286Y-85683390D01*
X134314286Y-85683390D02*
X134361905Y-85492914D01*
X134361905Y-85492914D02*
X134409524Y-85397676D01*
X134409524Y-85397676D02*
X134504762Y-85302438D01*
X134504762Y-85302438D02*
X134647619Y-85254819D01*
X134647619Y-85254819D02*
X134742857Y-85254819D01*
X134742857Y-85254819D02*
X134885714Y-85302438D01*
X134885714Y-85302438D02*
X134933333Y-85350057D01*
X135266667Y-85254819D02*
X135885714Y-85254819D01*
X135885714Y-85254819D02*
X135552381Y-85635771D01*
X135552381Y-85635771D02*
X135695238Y-85635771D01*
X135695238Y-85635771D02*
X135790476Y-85683390D01*
X135790476Y-85683390D02*
X135838095Y-85731009D01*
X135838095Y-85731009D02*
X135885714Y-85826247D01*
X135885714Y-85826247D02*
X135885714Y-86064342D01*
X135885714Y-86064342D02*
X135838095Y-86159580D01*
X135838095Y-86159580D02*
X135790476Y-86207200D01*
X135790476Y-86207200D02*
X135695238Y-86254819D01*
X135695238Y-86254819D02*
X135409524Y-86254819D01*
X135409524Y-86254819D02*
X135314286Y-86207200D01*
X135314286Y-86207200D02*
X135266667Y-86159580D01*
X136843452Y-84574819D02*
X136272024Y-84574819D01*
X136557738Y-84574819D02*
X136557738Y-83574819D01*
X136557738Y-83574819D02*
X136462500Y-83717676D01*
X136462500Y-83717676D02*
X136367262Y-83812914D01*
X136367262Y-83812914D02*
X136272024Y-83860533D01*
X137462500Y-83574819D02*
X137557738Y-83574819D01*
X137557738Y-83574819D02*
X137652976Y-83622438D01*
X137652976Y-83622438D02*
X137700595Y-83670057D01*
X137700595Y-83670057D02*
X137748214Y-83765295D01*
X137748214Y-83765295D02*
X137795833Y-83955771D01*
X137795833Y-83955771D02*
X137795833Y-84193866D01*
X137795833Y-84193866D02*
X137748214Y-84384342D01*
X137748214Y-84384342D02*
X137700595Y-84479580D01*
X137700595Y-84479580D02*
X137652976Y-84527200D01*
X137652976Y-84527200D02*
X137557738Y-84574819D01*
X137557738Y-84574819D02*
X137462500Y-84574819D01*
X137462500Y-84574819D02*
X137367262Y-84527200D01*
X137367262Y-84527200D02*
X137319643Y-84479580D01*
X137319643Y-84479580D02*
X137272024Y-84384342D01*
X137272024Y-84384342D02*
X137224405Y-84193866D01*
X137224405Y-84193866D02*
X137224405Y-83955771D01*
X137224405Y-83955771D02*
X137272024Y-83765295D01*
X137272024Y-83765295D02*
X137319643Y-83670057D01*
X137319643Y-83670057D02*
X137367262Y-83622438D01*
X137367262Y-83622438D02*
X137462500Y-83574819D01*
X138414881Y-83574819D02*
X138510119Y-83574819D01*
X138510119Y-83574819D02*
X138605357Y-83622438D01*
X138605357Y-83622438D02*
X138652976Y-83670057D01*
X138652976Y-83670057D02*
X138700595Y-83765295D01*
X138700595Y-83765295D02*
X138748214Y-83955771D01*
X138748214Y-83955771D02*
X138748214Y-84193866D01*
X138748214Y-84193866D02*
X138700595Y-84384342D01*
X138700595Y-84384342D02*
X138652976Y-84479580D01*
X138652976Y-84479580D02*
X138605357Y-84527200D01*
X138605357Y-84527200D02*
X138510119Y-84574819D01*
X138510119Y-84574819D02*
X138414881Y-84574819D01*
X138414881Y-84574819D02*
X138319643Y-84527200D01*
X138319643Y-84527200D02*
X138272024Y-84479580D01*
X138272024Y-84479580D02*
X138224405Y-84384342D01*
X138224405Y-84384342D02*
X138176786Y-84193866D01*
X138176786Y-84193866D02*
X138176786Y-83955771D01*
X138176786Y-83955771D02*
X138224405Y-83765295D01*
X138224405Y-83765295D02*
X138272024Y-83670057D01*
X138272024Y-83670057D02*
X138319643Y-83622438D01*
X138319643Y-83622438D02*
X138414881Y-83574819D01*
X139176786Y-83908152D02*
X139176786Y-84574819D01*
X139176786Y-84003390D02*
X139224405Y-83955771D01*
X139224405Y-83955771D02*
X139319643Y-83908152D01*
X139319643Y-83908152D02*
X139462500Y-83908152D01*
X139462500Y-83908152D02*
X139557738Y-83955771D01*
X139557738Y-83955771D02*
X139605357Y-84051009D01*
X139605357Y-84051009D02*
X139605357Y-84574819D01*
X163754819Y-92657142D02*
X163754819Y-92466666D01*
X163754819Y-92466666D02*
X163802438Y-92371428D01*
X163802438Y-92371428D02*
X163897676Y-92276190D01*
X163897676Y-92276190D02*
X164088152Y-92228571D01*
X164088152Y-92228571D02*
X164421485Y-92228571D01*
X164421485Y-92228571D02*
X164611961Y-92276190D01*
X164611961Y-92276190D02*
X164707200Y-92371428D01*
X164707200Y-92371428D02*
X164754819Y-92466666D01*
X164754819Y-92466666D02*
X164754819Y-92657142D01*
X164754819Y-92657142D02*
X164707200Y-92752380D01*
X164707200Y-92752380D02*
X164611961Y-92847618D01*
X164611961Y-92847618D02*
X164421485Y-92895237D01*
X164421485Y-92895237D02*
X164088152Y-92895237D01*
X164088152Y-92895237D02*
X163897676Y-92847618D01*
X163897676Y-92847618D02*
X163802438Y-92752380D01*
X163802438Y-92752380D02*
X163754819Y-92657142D01*
X164231009Y-91466666D02*
X164231009Y-91799999D01*
X164754819Y-91799999D02*
X163754819Y-91799999D01*
X163754819Y-91799999D02*
X163754819Y-91323809D01*
X164231009Y-90609523D02*
X164231009Y-90942856D01*
X164754819Y-90942856D02*
X163754819Y-90942856D01*
X163754819Y-90942856D02*
X163754819Y-90466666D01*
X164754819Y-89323808D02*
X163754819Y-89323808D01*
X163754819Y-89323808D02*
X163754819Y-88942856D01*
X163754819Y-88942856D02*
X163802438Y-88847618D01*
X163802438Y-88847618D02*
X163850057Y-88799999D01*
X163850057Y-88799999D02*
X163945295Y-88752380D01*
X163945295Y-88752380D02*
X164088152Y-88752380D01*
X164088152Y-88752380D02*
X164183390Y-88799999D01*
X164183390Y-88799999D02*
X164231009Y-88847618D01*
X164231009Y-88847618D02*
X164278628Y-88942856D01*
X164278628Y-88942856D02*
X164278628Y-89323808D01*
X163754819Y-88133332D02*
X163754819Y-87942856D01*
X163754819Y-87942856D02*
X163802438Y-87847618D01*
X163802438Y-87847618D02*
X163897676Y-87752380D01*
X163897676Y-87752380D02*
X164088152Y-87704761D01*
X164088152Y-87704761D02*
X164421485Y-87704761D01*
X164421485Y-87704761D02*
X164611961Y-87752380D01*
X164611961Y-87752380D02*
X164707200Y-87847618D01*
X164707200Y-87847618D02*
X164754819Y-87942856D01*
X164754819Y-87942856D02*
X164754819Y-88133332D01*
X164754819Y-88133332D02*
X164707200Y-88228570D01*
X164707200Y-88228570D02*
X164611961Y-88323808D01*
X164611961Y-88323808D02*
X164421485Y-88371427D01*
X164421485Y-88371427D02*
X164088152Y-88371427D01*
X164088152Y-88371427D02*
X163897676Y-88323808D01*
X163897676Y-88323808D02*
X163802438Y-88228570D01*
X163802438Y-88228570D02*
X163754819Y-88133332D01*
X163754819Y-87371427D02*
X164754819Y-87133332D01*
X164754819Y-87133332D02*
X164040533Y-86942856D01*
X164040533Y-86942856D02*
X164754819Y-86752380D01*
X164754819Y-86752380D02*
X163754819Y-86514285D01*
X163754819Y-85180951D02*
X163754819Y-84990475D01*
X163754819Y-84990475D02*
X163802438Y-84895237D01*
X163802438Y-84895237D02*
X163897676Y-84799999D01*
X163897676Y-84799999D02*
X164088152Y-84752380D01*
X164088152Y-84752380D02*
X164421485Y-84752380D01*
X164421485Y-84752380D02*
X164611961Y-84799999D01*
X164611961Y-84799999D02*
X164707200Y-84895237D01*
X164707200Y-84895237D02*
X164754819Y-84990475D01*
X164754819Y-84990475D02*
X164754819Y-85180951D01*
X164754819Y-85180951D02*
X164707200Y-85276189D01*
X164707200Y-85276189D02*
X164611961Y-85371427D01*
X164611961Y-85371427D02*
X164421485Y-85419046D01*
X164421485Y-85419046D02*
X164088152Y-85419046D01*
X164088152Y-85419046D02*
X163897676Y-85371427D01*
X163897676Y-85371427D02*
X163802438Y-85276189D01*
X163802438Y-85276189D02*
X163754819Y-85180951D01*
X164754819Y-84323808D02*
X163754819Y-84323808D01*
X163754819Y-84323808D02*
X164754819Y-83752380D01*
X164754819Y-83752380D02*
X163754819Y-83752380D01*
X70699819Y-57193333D02*
X71414104Y-57193333D01*
X71414104Y-57193333D02*
X71556961Y-57240952D01*
X71556961Y-57240952D02*
X71652200Y-57336190D01*
X71652200Y-57336190D02*
X71699819Y-57479047D01*
X71699819Y-57479047D02*
X71699819Y-57574285D01*
X70795057Y-56764761D02*
X70747438Y-56717142D01*
X70747438Y-56717142D02*
X70699819Y-56621904D01*
X70699819Y-56621904D02*
X70699819Y-56383809D01*
X70699819Y-56383809D02*
X70747438Y-56288571D01*
X70747438Y-56288571D02*
X70795057Y-56240952D01*
X70795057Y-56240952D02*
X70890295Y-56193333D01*
X70890295Y-56193333D02*
X70985533Y-56193333D01*
X70985533Y-56193333D02*
X71128390Y-56240952D01*
X71128390Y-56240952D02*
X71699819Y-56812380D01*
X71699819Y-56812380D02*
X71699819Y-56193333D01*
X72933333Y-51454819D02*
X72933333Y-50454819D01*
X72933333Y-50454819D02*
X73266666Y-51169104D01*
X73266666Y-51169104D02*
X73599999Y-50454819D01*
X73599999Y-50454819D02*
X73599999Y-51454819D01*
X74266666Y-50454819D02*
X74457142Y-50454819D01*
X74457142Y-50454819D02*
X74552380Y-50502438D01*
X74552380Y-50502438D02*
X74647618Y-50597676D01*
X74647618Y-50597676D02*
X74695237Y-50788152D01*
X74695237Y-50788152D02*
X74695237Y-51121485D01*
X74695237Y-51121485D02*
X74647618Y-51311961D01*
X74647618Y-51311961D02*
X74552380Y-51407200D01*
X74552380Y-51407200D02*
X74457142Y-51454819D01*
X74457142Y-51454819D02*
X74266666Y-51454819D01*
X74266666Y-51454819D02*
X74171428Y-51407200D01*
X74171428Y-51407200D02*
X74076190Y-51311961D01*
X74076190Y-51311961D02*
X74028571Y-51121485D01*
X74028571Y-51121485D02*
X74028571Y-50788152D01*
X74028571Y-50788152D02*
X74076190Y-50597676D01*
X74076190Y-50597676D02*
X74171428Y-50502438D01*
X74171428Y-50502438D02*
X74266666Y-50454819D01*
X74980952Y-50454819D02*
X75552380Y-50454819D01*
X75266666Y-51454819D02*
X75266666Y-50454819D01*
X75838095Y-51169104D02*
X76314285Y-51169104D01*
X75742857Y-51454819D02*
X76076190Y-50454819D01*
X76076190Y-50454819D02*
X76409523Y-51454819D01*
X142071428Y-51354819D02*
X142071428Y-52069104D01*
X142071428Y-52069104D02*
X142023809Y-52211961D01*
X142023809Y-52211961D02*
X141928571Y-52307200D01*
X141928571Y-52307200D02*
X141785714Y-52354819D01*
X141785714Y-52354819D02*
X141690476Y-52354819D01*
X143023809Y-51354819D02*
X142547619Y-51354819D01*
X142547619Y-51354819D02*
X142500000Y-51831009D01*
X142500000Y-51831009D02*
X142547619Y-51783390D01*
X142547619Y-51783390D02*
X142642857Y-51735771D01*
X142642857Y-51735771D02*
X142880952Y-51735771D01*
X142880952Y-51735771D02*
X142976190Y-51783390D01*
X142976190Y-51783390D02*
X143023809Y-51831009D01*
X143023809Y-51831009D02*
X143071428Y-51926247D01*
X143071428Y-51926247D02*
X143071428Y-52164342D01*
X143071428Y-52164342D02*
X143023809Y-52259580D01*
X143023809Y-52259580D02*
X142976190Y-52307200D01*
X142976190Y-52307200D02*
X142880952Y-52354819D01*
X142880952Y-52354819D02*
X142642857Y-52354819D01*
X142642857Y-52354819D02*
X142547619Y-52307200D01*
X142547619Y-52307200D02*
X142500000Y-52259580D01*
X144214286Y-52307200D02*
X144357143Y-52354819D01*
X144357143Y-52354819D02*
X144595238Y-52354819D01*
X144595238Y-52354819D02*
X144690476Y-52307200D01*
X144690476Y-52307200D02*
X144738095Y-52259580D01*
X144738095Y-52259580D02*
X144785714Y-52164342D01*
X144785714Y-52164342D02*
X144785714Y-52069104D01*
X144785714Y-52069104D02*
X144738095Y-51973866D01*
X144738095Y-51973866D02*
X144690476Y-51926247D01*
X144690476Y-51926247D02*
X144595238Y-51878628D01*
X144595238Y-51878628D02*
X144404762Y-51831009D01*
X144404762Y-51831009D02*
X144309524Y-51783390D01*
X144309524Y-51783390D02*
X144261905Y-51735771D01*
X144261905Y-51735771D02*
X144214286Y-51640533D01*
X144214286Y-51640533D02*
X144214286Y-51545295D01*
X144214286Y-51545295D02*
X144261905Y-51450057D01*
X144261905Y-51450057D02*
X144309524Y-51402438D01*
X144309524Y-51402438D02*
X144404762Y-51354819D01*
X144404762Y-51354819D02*
X144642857Y-51354819D01*
X144642857Y-51354819D02*
X144785714Y-51402438D01*
X145214286Y-52354819D02*
X145214286Y-51354819D01*
X145214286Y-51354819D02*
X145595238Y-51354819D01*
X145595238Y-51354819D02*
X145690476Y-51402438D01*
X145690476Y-51402438D02*
X145738095Y-51450057D01*
X145738095Y-51450057D02*
X145785714Y-51545295D01*
X145785714Y-51545295D02*
X145785714Y-51688152D01*
X145785714Y-51688152D02*
X145738095Y-51783390D01*
X145738095Y-51783390D02*
X145690476Y-51831009D01*
X145690476Y-51831009D02*
X145595238Y-51878628D01*
X145595238Y-51878628D02*
X145214286Y-51878628D01*
X146214286Y-52354819D02*
X146214286Y-51354819D01*
X128566667Y-99607200D02*
X128709524Y-99654819D01*
X128709524Y-99654819D02*
X128947619Y-99654819D01*
X128947619Y-99654819D02*
X129042857Y-99607200D01*
X129042857Y-99607200D02*
X129090476Y-99559580D01*
X129090476Y-99559580D02*
X129138095Y-99464342D01*
X129138095Y-99464342D02*
X129138095Y-99369104D01*
X129138095Y-99369104D02*
X129090476Y-99273866D01*
X129090476Y-99273866D02*
X129042857Y-99226247D01*
X129042857Y-99226247D02*
X128947619Y-99178628D01*
X128947619Y-99178628D02*
X128757143Y-99131009D01*
X128757143Y-99131009D02*
X128661905Y-99083390D01*
X128661905Y-99083390D02*
X128614286Y-99035771D01*
X128614286Y-99035771D02*
X128566667Y-98940533D01*
X128566667Y-98940533D02*
X128566667Y-98845295D01*
X128566667Y-98845295D02*
X128614286Y-98750057D01*
X128614286Y-98750057D02*
X128661905Y-98702438D01*
X128661905Y-98702438D02*
X128757143Y-98654819D01*
X128757143Y-98654819D02*
X128995238Y-98654819D01*
X128995238Y-98654819D02*
X129138095Y-98702438D01*
X129471429Y-98654819D02*
X129709524Y-99654819D01*
X129709524Y-99654819D02*
X129900000Y-98940533D01*
X129900000Y-98940533D02*
X130090476Y-99654819D01*
X130090476Y-99654819D02*
X130328572Y-98654819D01*
X131233333Y-99654819D02*
X130661905Y-99654819D01*
X130947619Y-99654819D02*
X130947619Y-98654819D01*
X130947619Y-98654819D02*
X130852381Y-98797676D01*
X130852381Y-98797676D02*
X130757143Y-98892914D01*
X130757143Y-98892914D02*
X130661905Y-98940533D01*
X134471428Y-51354819D02*
X134471428Y-52069104D01*
X134471428Y-52069104D02*
X134423809Y-52211961D01*
X134423809Y-52211961D02*
X134328571Y-52307200D01*
X134328571Y-52307200D02*
X134185714Y-52354819D01*
X134185714Y-52354819D02*
X134090476Y-52354819D01*
X134852381Y-51354819D02*
X135519047Y-51354819D01*
X135519047Y-51354819D02*
X135090476Y-52354819D01*
X136661905Y-52354819D02*
X136661905Y-51354819D01*
X137090476Y-51450057D02*
X137138095Y-51402438D01*
X137138095Y-51402438D02*
X137233333Y-51354819D01*
X137233333Y-51354819D02*
X137471428Y-51354819D01*
X137471428Y-51354819D02*
X137566666Y-51402438D01*
X137566666Y-51402438D02*
X137614285Y-51450057D01*
X137614285Y-51450057D02*
X137661904Y-51545295D01*
X137661904Y-51545295D02*
X137661904Y-51640533D01*
X137661904Y-51640533D02*
X137614285Y-51783390D01*
X137614285Y-51783390D02*
X137042857Y-52354819D01*
X137042857Y-52354819D02*
X137661904Y-52354819D01*
X138661904Y-52259580D02*
X138614285Y-52307200D01*
X138614285Y-52307200D02*
X138471428Y-52354819D01*
X138471428Y-52354819D02*
X138376190Y-52354819D01*
X138376190Y-52354819D02*
X138233333Y-52307200D01*
X138233333Y-52307200D02*
X138138095Y-52211961D01*
X138138095Y-52211961D02*
X138090476Y-52116723D01*
X138090476Y-52116723D02*
X138042857Y-51926247D01*
X138042857Y-51926247D02*
X138042857Y-51783390D01*
X138042857Y-51783390D02*
X138090476Y-51592914D01*
X138090476Y-51592914D02*
X138138095Y-51497676D01*
X138138095Y-51497676D02*
X138233333Y-51402438D01*
X138233333Y-51402438D02*
X138376190Y-51354819D01*
X138376190Y-51354819D02*
X138471428Y-51354819D01*
X138471428Y-51354819D02*
X138614285Y-51402438D01*
X138614285Y-51402438D02*
X138661904Y-51450057D01*
X120533333Y-55954819D02*
X120200000Y-55478628D01*
X119961905Y-55954819D02*
X119961905Y-54954819D01*
X119961905Y-54954819D02*
X120342857Y-54954819D01*
X120342857Y-54954819D02*
X120438095Y-55002438D01*
X120438095Y-55002438D02*
X120485714Y-55050057D01*
X120485714Y-55050057D02*
X120533333Y-55145295D01*
X120533333Y-55145295D02*
X120533333Y-55288152D01*
X120533333Y-55288152D02*
X120485714Y-55383390D01*
X120485714Y-55383390D02*
X120438095Y-55431009D01*
X120438095Y-55431009D02*
X120342857Y-55478628D01*
X120342857Y-55478628D02*
X119961905Y-55478628D01*
X121390476Y-55288152D02*
X121390476Y-55954819D01*
X121152381Y-54907200D02*
X120914286Y-55621485D01*
X120914286Y-55621485D02*
X121533333Y-55621485D01*
X123296666Y-54174819D02*
X122725238Y-54174819D01*
X123010952Y-54174819D02*
X123010952Y-53174819D01*
X123010952Y-53174819D02*
X122915714Y-53317676D01*
X122915714Y-53317676D02*
X122820476Y-53412914D01*
X122820476Y-53412914D02*
X122725238Y-53460533D01*
X123725238Y-54079580D02*
X123772857Y-54127200D01*
X123772857Y-54127200D02*
X123725238Y-54174819D01*
X123725238Y-54174819D02*
X123677619Y-54127200D01*
X123677619Y-54127200D02*
X123725238Y-54079580D01*
X123725238Y-54079580D02*
X123725238Y-54174819D01*
X124153809Y-53270057D02*
X124201428Y-53222438D01*
X124201428Y-53222438D02*
X124296666Y-53174819D01*
X124296666Y-53174819D02*
X124534761Y-53174819D01*
X124534761Y-53174819D02*
X124629999Y-53222438D01*
X124629999Y-53222438D02*
X124677618Y-53270057D01*
X124677618Y-53270057D02*
X124725237Y-53365295D01*
X124725237Y-53365295D02*
X124725237Y-53460533D01*
X124725237Y-53460533D02*
X124677618Y-53603390D01*
X124677618Y-53603390D02*
X124106190Y-54174819D01*
X124106190Y-54174819D02*
X124725237Y-54174819D01*
X125153809Y-54174819D02*
X125153809Y-53174819D01*
X125249047Y-53793866D02*
X125534761Y-54174819D01*
X125534761Y-53508152D02*
X125153809Y-53889104D01*
X70699819Y-86403333D02*
X71414104Y-86403333D01*
X71414104Y-86403333D02*
X71556961Y-86450952D01*
X71556961Y-86450952D02*
X71652200Y-86546190D01*
X71652200Y-86546190D02*
X71699819Y-86689047D01*
X71699819Y-86689047D02*
X71699819Y-86784285D01*
X70699819Y-86022380D02*
X70699819Y-85403333D01*
X70699819Y-85403333D02*
X71080771Y-85736666D01*
X71080771Y-85736666D02*
X71080771Y-85593809D01*
X71080771Y-85593809D02*
X71128390Y-85498571D01*
X71128390Y-85498571D02*
X71176009Y-85450952D01*
X71176009Y-85450952D02*
X71271247Y-85403333D01*
X71271247Y-85403333D02*
X71509342Y-85403333D01*
X71509342Y-85403333D02*
X71604580Y-85450952D01*
X71604580Y-85450952D02*
X71652200Y-85498571D01*
X71652200Y-85498571D02*
X71699819Y-85593809D01*
X71699819Y-85593809D02*
X71699819Y-85879523D01*
X71699819Y-85879523D02*
X71652200Y-85974761D01*
X71652200Y-85974761D02*
X71604580Y-86022380D01*
X72786905Y-92454819D02*
X72786905Y-91454819D01*
X72786905Y-91454819D02*
X73120238Y-92169104D01*
X73120238Y-92169104D02*
X73453571Y-91454819D01*
X73453571Y-91454819D02*
X73453571Y-92454819D01*
X74120238Y-91454819D02*
X74310714Y-91454819D01*
X74310714Y-91454819D02*
X74405952Y-91502438D01*
X74405952Y-91502438D02*
X74501190Y-91597676D01*
X74501190Y-91597676D02*
X74548809Y-91788152D01*
X74548809Y-91788152D02*
X74548809Y-92121485D01*
X74548809Y-92121485D02*
X74501190Y-92311961D01*
X74501190Y-92311961D02*
X74405952Y-92407200D01*
X74405952Y-92407200D02*
X74310714Y-92454819D01*
X74310714Y-92454819D02*
X74120238Y-92454819D01*
X74120238Y-92454819D02*
X74025000Y-92407200D01*
X74025000Y-92407200D02*
X73929762Y-92311961D01*
X73929762Y-92311961D02*
X73882143Y-92121485D01*
X73882143Y-92121485D02*
X73882143Y-91788152D01*
X73882143Y-91788152D02*
X73929762Y-91597676D01*
X73929762Y-91597676D02*
X74025000Y-91502438D01*
X74025000Y-91502438D02*
X74120238Y-91454819D01*
X74834524Y-91454819D02*
X75405952Y-91454819D01*
X75120238Y-92454819D02*
X75120238Y-91454819D01*
X76072619Y-91931009D02*
X76215476Y-91978628D01*
X76215476Y-91978628D02*
X76263095Y-92026247D01*
X76263095Y-92026247D02*
X76310714Y-92121485D01*
X76310714Y-92121485D02*
X76310714Y-92264342D01*
X76310714Y-92264342D02*
X76263095Y-92359580D01*
X76263095Y-92359580D02*
X76215476Y-92407200D01*
X76215476Y-92407200D02*
X76120238Y-92454819D01*
X76120238Y-92454819D02*
X75739286Y-92454819D01*
X75739286Y-92454819D02*
X75739286Y-91454819D01*
X75739286Y-91454819D02*
X76072619Y-91454819D01*
X76072619Y-91454819D02*
X76167857Y-91502438D01*
X76167857Y-91502438D02*
X76215476Y-91550057D01*
X76215476Y-91550057D02*
X76263095Y-91645295D01*
X76263095Y-91645295D02*
X76263095Y-91740533D01*
X76263095Y-91740533D02*
X76215476Y-91835771D01*
X76215476Y-91835771D02*
X76167857Y-91883390D01*
X76167857Y-91883390D02*
X76072619Y-91931009D01*
X76072619Y-91931009D02*
X75739286Y-91931009D01*
X89066666Y-97904819D02*
X89066666Y-98619104D01*
X89066666Y-98619104D02*
X89019047Y-98761961D01*
X89019047Y-98761961D02*
X88923809Y-98857200D01*
X88923809Y-98857200D02*
X88780952Y-98904819D01*
X88780952Y-98904819D02*
X88685714Y-98904819D01*
X89971428Y-98238152D02*
X89971428Y-98904819D01*
X89733333Y-97857200D02*
X89495238Y-98571485D01*
X89495238Y-98571485D02*
X90114285Y-98571485D01*
X80015476Y-59712295D02*
X80015476Y-60359914D01*
X80015476Y-60359914D02*
X80053571Y-60436104D01*
X80053571Y-60436104D02*
X80091666Y-60474200D01*
X80091666Y-60474200D02*
X80167857Y-60512295D01*
X80167857Y-60512295D02*
X80320238Y-60512295D01*
X80320238Y-60512295D02*
X80396428Y-60474200D01*
X80396428Y-60474200D02*
X80434523Y-60436104D01*
X80434523Y-60436104D02*
X80472619Y-60359914D01*
X80472619Y-60359914D02*
X80472619Y-59712295D01*
X80815475Y-59788485D02*
X80853571Y-59750390D01*
X80853571Y-59750390D02*
X80929761Y-59712295D01*
X80929761Y-59712295D02*
X81120237Y-59712295D01*
X81120237Y-59712295D02*
X81196428Y-59750390D01*
X81196428Y-59750390D02*
X81234523Y-59788485D01*
X81234523Y-59788485D02*
X81272618Y-59864676D01*
X81272618Y-59864676D02*
X81272618Y-59940866D01*
X81272618Y-59940866D02*
X81234523Y-60055152D01*
X81234523Y-60055152D02*
X80777380Y-60512295D01*
X80777380Y-60512295D02*
X81272618Y-60512295D01*
X110333333Y-89954819D02*
X110000000Y-89478628D01*
X109761905Y-89954819D02*
X109761905Y-88954819D01*
X109761905Y-88954819D02*
X110142857Y-88954819D01*
X110142857Y-88954819D02*
X110238095Y-89002438D01*
X110238095Y-89002438D02*
X110285714Y-89050057D01*
X110285714Y-89050057D02*
X110333333Y-89145295D01*
X110333333Y-89145295D02*
X110333333Y-89288152D01*
X110333333Y-89288152D02*
X110285714Y-89383390D01*
X110285714Y-89383390D02*
X110238095Y-89431009D01*
X110238095Y-89431009D02*
X110142857Y-89478628D01*
X110142857Y-89478628D02*
X109761905Y-89478628D01*
X111190476Y-88954819D02*
X111000000Y-88954819D01*
X111000000Y-88954819D02*
X110904762Y-89002438D01*
X110904762Y-89002438D02*
X110857143Y-89050057D01*
X110857143Y-89050057D02*
X110761905Y-89192914D01*
X110761905Y-89192914D02*
X110714286Y-89383390D01*
X110714286Y-89383390D02*
X110714286Y-89764342D01*
X110714286Y-89764342D02*
X110761905Y-89859580D01*
X110761905Y-89859580D02*
X110809524Y-89907200D01*
X110809524Y-89907200D02*
X110904762Y-89954819D01*
X110904762Y-89954819D02*
X111095238Y-89954819D01*
X111095238Y-89954819D02*
X111190476Y-89907200D01*
X111190476Y-89907200D02*
X111238095Y-89859580D01*
X111238095Y-89859580D02*
X111285714Y-89764342D01*
X111285714Y-89764342D02*
X111285714Y-89526247D01*
X111285714Y-89526247D02*
X111238095Y-89431009D01*
X111238095Y-89431009D02*
X111190476Y-89383390D01*
X111190476Y-89383390D02*
X111095238Y-89335771D01*
X111095238Y-89335771D02*
X110904762Y-89335771D01*
X110904762Y-89335771D02*
X110809524Y-89383390D01*
X110809524Y-89383390D02*
X110761905Y-89431009D01*
X110761905Y-89431009D02*
X110714286Y-89526247D01*
X113235905Y-90550057D02*
X113283524Y-90502438D01*
X113283524Y-90502438D02*
X113378762Y-90454819D01*
X113378762Y-90454819D02*
X113616857Y-90454819D01*
X113616857Y-90454819D02*
X113712095Y-90502438D01*
X113712095Y-90502438D02*
X113759714Y-90550057D01*
X113759714Y-90550057D02*
X113807333Y-90645295D01*
X113807333Y-90645295D02*
X113807333Y-90740533D01*
X113807333Y-90740533D02*
X113759714Y-90883390D01*
X113759714Y-90883390D02*
X113188286Y-91454819D01*
X113188286Y-91454819D02*
X113807333Y-91454819D01*
X114188286Y-90550057D02*
X114235905Y-90502438D01*
X114235905Y-90502438D02*
X114331143Y-90454819D01*
X114331143Y-90454819D02*
X114569238Y-90454819D01*
X114569238Y-90454819D02*
X114664476Y-90502438D01*
X114664476Y-90502438D02*
X114712095Y-90550057D01*
X114712095Y-90550057D02*
X114759714Y-90645295D01*
X114759714Y-90645295D02*
X114759714Y-90740533D01*
X114759714Y-90740533D02*
X114712095Y-90883390D01*
X114712095Y-90883390D02*
X114140667Y-91454819D01*
X114140667Y-91454819D02*
X114759714Y-91454819D01*
X115378762Y-90454819D02*
X115474000Y-90454819D01*
X115474000Y-90454819D02*
X115569238Y-90502438D01*
X115569238Y-90502438D02*
X115616857Y-90550057D01*
X115616857Y-90550057D02*
X115664476Y-90645295D01*
X115664476Y-90645295D02*
X115712095Y-90835771D01*
X115712095Y-90835771D02*
X115712095Y-91073866D01*
X115712095Y-91073866D02*
X115664476Y-91264342D01*
X115664476Y-91264342D02*
X115616857Y-91359580D01*
X115616857Y-91359580D02*
X115569238Y-91407200D01*
X115569238Y-91407200D02*
X115474000Y-91454819D01*
X115474000Y-91454819D02*
X115378762Y-91454819D01*
X115378762Y-91454819D02*
X115283524Y-91407200D01*
X115283524Y-91407200D02*
X115235905Y-91359580D01*
X115235905Y-91359580D02*
X115188286Y-91264342D01*
X115188286Y-91264342D02*
X115140667Y-91073866D01*
X115140667Y-91073866D02*
X115140667Y-90835771D01*
X115140667Y-90835771D02*
X115188286Y-90645295D01*
X115188286Y-90645295D02*
X115235905Y-90550057D01*
X115235905Y-90550057D02*
X115283524Y-90502438D01*
X115283524Y-90502438D02*
X115378762Y-90454819D01*
X116712095Y-91454819D02*
X116378762Y-90978628D01*
X116140667Y-91454819D02*
X116140667Y-90454819D01*
X116140667Y-90454819D02*
X116521619Y-90454819D01*
X116521619Y-90454819D02*
X116616857Y-90502438D01*
X116616857Y-90502438D02*
X116664476Y-90550057D01*
X116664476Y-90550057D02*
X116712095Y-90645295D01*
X116712095Y-90645295D02*
X116712095Y-90788152D01*
X116712095Y-90788152D02*
X116664476Y-90883390D01*
X116664476Y-90883390D02*
X116616857Y-90931009D01*
X116616857Y-90931009D02*
X116521619Y-90978628D01*
X116521619Y-90978628D02*
X116140667Y-90978628D01*
X146166666Y-90554819D02*
X146166666Y-91269104D01*
X146166666Y-91269104D02*
X146119047Y-91411961D01*
X146119047Y-91411961D02*
X146023809Y-91507200D01*
X146023809Y-91507200D02*
X145880952Y-91554819D01*
X145880952Y-91554819D02*
X145785714Y-91554819D01*
X146690476Y-91554819D02*
X146880952Y-91554819D01*
X146880952Y-91554819D02*
X146976190Y-91507200D01*
X146976190Y-91507200D02*
X147023809Y-91459580D01*
X147023809Y-91459580D02*
X147119047Y-91316723D01*
X147119047Y-91316723D02*
X147166666Y-91126247D01*
X147166666Y-91126247D02*
X147166666Y-90745295D01*
X147166666Y-90745295D02*
X147119047Y-90650057D01*
X147119047Y-90650057D02*
X147071428Y-90602438D01*
X147071428Y-90602438D02*
X146976190Y-90554819D01*
X146976190Y-90554819D02*
X146785714Y-90554819D01*
X146785714Y-90554819D02*
X146690476Y-90602438D01*
X146690476Y-90602438D02*
X146642857Y-90650057D01*
X146642857Y-90650057D02*
X146595238Y-90745295D01*
X146595238Y-90745295D02*
X146595238Y-90983390D01*
X146595238Y-90983390D02*
X146642857Y-91078628D01*
X146642857Y-91078628D02*
X146690476Y-91126247D01*
X146690476Y-91126247D02*
X146785714Y-91173866D01*
X146785714Y-91173866D02*
X146976190Y-91173866D01*
X146976190Y-91173866D02*
X147071428Y-91126247D01*
X147071428Y-91126247D02*
X147119047Y-91078628D01*
X147119047Y-91078628D02*
X147166666Y-90983390D01*
X135489160Y-68869104D02*
X135965350Y-68869104D01*
X135393922Y-69154819D02*
X135727255Y-68154819D01*
X135727255Y-68154819D02*
X136060588Y-69154819D01*
X136917731Y-69154819D02*
X136346303Y-69154819D01*
X136632017Y-69154819D02*
X136632017Y-68154819D01*
X136632017Y-68154819D02*
X136536779Y-68297676D01*
X136536779Y-68297676D02*
X136441541Y-68392914D01*
X136441541Y-68392914D02*
X136346303Y-68440533D01*
X110533333Y-86254819D02*
X110200000Y-85778628D01*
X109961905Y-86254819D02*
X109961905Y-85254819D01*
X109961905Y-85254819D02*
X110342857Y-85254819D01*
X110342857Y-85254819D02*
X110438095Y-85302438D01*
X110438095Y-85302438D02*
X110485714Y-85350057D01*
X110485714Y-85350057D02*
X110533333Y-85445295D01*
X110533333Y-85445295D02*
X110533333Y-85588152D01*
X110533333Y-85588152D02*
X110485714Y-85683390D01*
X110485714Y-85683390D02*
X110438095Y-85731009D01*
X110438095Y-85731009D02*
X110342857Y-85778628D01*
X110342857Y-85778628D02*
X109961905Y-85778628D01*
X110866667Y-85254819D02*
X111533333Y-85254819D01*
X111533333Y-85254819D02*
X111104762Y-86254819D01*
X113235905Y-86950057D02*
X113283524Y-86902438D01*
X113283524Y-86902438D02*
X113378762Y-86854819D01*
X113378762Y-86854819D02*
X113616857Y-86854819D01*
X113616857Y-86854819D02*
X113712095Y-86902438D01*
X113712095Y-86902438D02*
X113759714Y-86950057D01*
X113759714Y-86950057D02*
X113807333Y-87045295D01*
X113807333Y-87045295D02*
X113807333Y-87140533D01*
X113807333Y-87140533D02*
X113759714Y-87283390D01*
X113759714Y-87283390D02*
X113188286Y-87854819D01*
X113188286Y-87854819D02*
X113807333Y-87854819D01*
X114188286Y-86950057D02*
X114235905Y-86902438D01*
X114235905Y-86902438D02*
X114331143Y-86854819D01*
X114331143Y-86854819D02*
X114569238Y-86854819D01*
X114569238Y-86854819D02*
X114664476Y-86902438D01*
X114664476Y-86902438D02*
X114712095Y-86950057D01*
X114712095Y-86950057D02*
X114759714Y-87045295D01*
X114759714Y-87045295D02*
X114759714Y-87140533D01*
X114759714Y-87140533D02*
X114712095Y-87283390D01*
X114712095Y-87283390D02*
X114140667Y-87854819D01*
X114140667Y-87854819D02*
X114759714Y-87854819D01*
X115378762Y-86854819D02*
X115474000Y-86854819D01*
X115474000Y-86854819D02*
X115569238Y-86902438D01*
X115569238Y-86902438D02*
X115616857Y-86950057D01*
X115616857Y-86950057D02*
X115664476Y-87045295D01*
X115664476Y-87045295D02*
X115712095Y-87235771D01*
X115712095Y-87235771D02*
X115712095Y-87473866D01*
X115712095Y-87473866D02*
X115664476Y-87664342D01*
X115664476Y-87664342D02*
X115616857Y-87759580D01*
X115616857Y-87759580D02*
X115569238Y-87807200D01*
X115569238Y-87807200D02*
X115474000Y-87854819D01*
X115474000Y-87854819D02*
X115378762Y-87854819D01*
X115378762Y-87854819D02*
X115283524Y-87807200D01*
X115283524Y-87807200D02*
X115235905Y-87759580D01*
X115235905Y-87759580D02*
X115188286Y-87664342D01*
X115188286Y-87664342D02*
X115140667Y-87473866D01*
X115140667Y-87473866D02*
X115140667Y-87235771D01*
X115140667Y-87235771D02*
X115188286Y-87045295D01*
X115188286Y-87045295D02*
X115235905Y-86950057D01*
X115235905Y-86950057D02*
X115283524Y-86902438D01*
X115283524Y-86902438D02*
X115378762Y-86854819D01*
X116712095Y-87854819D02*
X116378762Y-87378628D01*
X116140667Y-87854819D02*
X116140667Y-86854819D01*
X116140667Y-86854819D02*
X116521619Y-86854819D01*
X116521619Y-86854819D02*
X116616857Y-86902438D01*
X116616857Y-86902438D02*
X116664476Y-86950057D01*
X116664476Y-86950057D02*
X116712095Y-87045295D01*
X116712095Y-87045295D02*
X116712095Y-87188152D01*
X116712095Y-87188152D02*
X116664476Y-87283390D01*
X116664476Y-87283390D02*
X116616857Y-87331009D01*
X116616857Y-87331009D02*
X116521619Y-87378628D01*
X116521619Y-87378628D02*
X116140667Y-87378628D01*
D12*
X154880000Y-52920000D02*
X154880000Y-55680000D01*
X157530000Y-52920000D02*
X154880000Y-52920000D01*
X157530000Y-52920000D02*
X157530000Y-55680000D01*
X157530000Y-55680000D02*
X154880000Y-55680000D01*
X158800000Y-52920000D02*
X160180000Y-52920000D01*
X160180000Y-52920000D02*
X160180000Y-54300000D01*
X110934000Y-94604000D02*
X111704000Y-94604000D01*
X111704000Y-93234000D02*
X111704000Y-95974000D01*
X111704000Y-95974000D02*
X118244000Y-95974000D01*
X118244000Y-93234000D02*
X111704000Y-93234000D01*
X118244000Y-95974000D02*
X118244000Y-93234000D01*
X119014000Y-94604000D02*
X118244000Y-94604000D01*
X139177064Y-87490000D02*
X137722936Y-87490000D01*
X139177064Y-89310000D02*
X137722936Y-89310000D01*
D13*
G36*
X84439118Y-45141935D02*
G01*
X84535776Y-45146518D01*
X84622356Y-45155193D01*
X84676324Y-45164354D01*
X84831853Y-45205171D01*
X84996983Y-45262251D01*
X85164980Y-45332718D01*
X85329111Y-45413696D01*
X85482642Y-45502310D01*
X85512927Y-45521632D01*
X85626151Y-45595214D01*
X85733085Y-45579478D01*
X85801267Y-45570072D01*
X85888861Y-45558937D01*
X85990230Y-45546706D01*
X86099737Y-45534016D01*
X86211745Y-45521502D01*
X86320615Y-45509798D01*
X86420711Y-45499540D01*
X86506396Y-45491364D01*
X86544526Y-45488051D01*
X86799634Y-45469476D01*
X87044975Y-45457038D01*
X87284786Y-45450854D01*
X87523302Y-45451042D01*
X87764758Y-45457720D01*
X88013389Y-45471004D01*
X88273431Y-45491012D01*
X88549119Y-45517862D01*
X88844688Y-45551671D01*
X88846755Y-45551922D01*
X89173848Y-45591733D01*
X89293089Y-45514382D01*
X89488921Y-45400186D01*
X89699563Y-45300990D01*
X89917602Y-45219996D01*
X90085933Y-45172032D01*
X90136240Y-45160561D01*
X90182831Y-45152469D01*
X90231937Y-45147211D01*
X90289784Y-45144244D01*
X90362602Y-45143024D01*
X90419316Y-45142907D01*
X90500332Y-45143318D01*
X90561901Y-45144718D01*
X90609733Y-45147708D01*
X90649537Y-45152889D01*
X90687025Y-45160862D01*
X90727906Y-45172228D01*
X90743986Y-45177093D01*
X90899652Y-45236238D01*
X91037540Y-45313023D01*
X91157797Y-45407614D01*
X91260570Y-45520177D01*
X91346005Y-45650877D01*
X91414248Y-45799880D01*
X91465446Y-45967353D01*
X91473695Y-46003268D01*
X91483546Y-46053385D01*
X91490698Y-46103351D01*
X91495549Y-46158652D01*
X91498499Y-46224770D01*
X91499947Y-46307191D01*
X91500264Y-46368102D01*
X91498637Y-46504161D01*
X91492434Y-46624524D01*
X91480618Y-46737541D01*
X91462154Y-46851566D01*
X91436008Y-46974948D01*
X91413556Y-47067482D01*
X91371181Y-47235718D01*
X91433733Y-47339726D01*
X91467668Y-47399202D01*
X91509001Y-47476434D01*
X91555118Y-47566099D01*
X91603403Y-47662870D01*
X91651238Y-47761423D01*
X91696010Y-47856433D01*
X91735101Y-47942574D01*
X91765897Y-48014522D01*
X91769106Y-48022436D01*
X91881789Y-48332540D01*
X91969435Y-48640557D01*
X92024672Y-48903070D01*
X92035337Y-48968483D01*
X92043140Y-49029661D01*
X92048500Y-49092734D01*
X92051841Y-49163833D01*
X92053584Y-49249088D01*
X92054109Y-49330807D01*
X92053200Y-49435443D01*
X92050105Y-49532369D01*
X92045092Y-49618753D01*
X92038428Y-49691764D01*
X92030382Y-49748571D01*
X92021220Y-49786343D01*
X92011210Y-49802248D01*
X92009531Y-49802575D01*
X91996629Y-49795208D01*
X91968785Y-49775444D01*
X91930553Y-49746793D01*
X91886489Y-49712760D01*
X91841146Y-49676853D01*
X91799080Y-49642581D01*
X91771718Y-49619450D01*
X91765069Y-49616129D01*
X91760116Y-49621293D01*
X91756579Y-49637925D01*
X91754179Y-49669005D01*
X91752638Y-49717518D01*
X91751677Y-49786443D01*
X91751267Y-49838085D01*
X91739397Y-50137450D01*
X91708181Y-50427308D01*
X91658078Y-50706529D01*
X91589547Y-50973981D01*
X91503047Y-51228534D01*
X91399037Y-51469057D01*
X91277977Y-51694419D01*
X91140325Y-51903490D01*
X90986541Y-52095139D01*
X90817084Y-52268236D01*
X90735059Y-52340428D01*
X90531978Y-52494432D01*
X90311971Y-52629901D01*
X90075256Y-52746721D01*
X89822045Y-52844779D01*
X89722938Y-52876673D01*
X89674024Y-52891863D01*
X89643344Y-52899443D01*
X89628758Y-52896170D01*
X89628125Y-52878800D01*
X89639307Y-52844089D01*
X89660162Y-52788792D01*
X89661898Y-52784150D01*
X89678715Y-52737399D01*
X89692646Y-52695681D01*
X89700194Y-52669814D01*
X89707977Y-52637252D01*
X89546402Y-52684482D01*
X89475174Y-52703942D01*
X89388344Y-52725582D01*
X89295090Y-52747227D01*
X89204592Y-52766703D01*
X89169907Y-52773656D01*
X89089786Y-52789362D01*
X89030994Y-52801958D01*
X88990229Y-52813464D01*
X88964187Y-52825900D01*
X88949565Y-52841284D01*
X88943061Y-52861635D01*
X88941369Y-52888974D01*
X88941281Y-52913414D01*
X88931777Y-52979967D01*
X88905459Y-53055829D01*
X88864965Y-53134355D01*
X88835994Y-53178542D01*
X88754097Y-53272165D01*
X88649355Y-53355656D01*
X88522001Y-53428905D01*
X88372270Y-53491803D01*
X88200395Y-53544239D01*
X88006610Y-53586105D01*
X87947251Y-53596109D01*
X87892463Y-53602597D01*
X87817170Y-53608346D01*
X87726018Y-53613270D01*
X87623656Y-53617279D01*
X87514730Y-53620287D01*
X87403887Y-53622204D01*
X87295774Y-53622943D01*
X87195039Y-53622416D01*
X87106329Y-53620534D01*
X87034290Y-53617211D01*
X86997424Y-53614106D01*
X86783074Y-53583915D01*
X86590398Y-53542847D01*
X86419564Y-53491006D01*
X86270741Y-53428495D01*
X86144097Y-53355417D01*
X86039801Y-53271874D01*
X85958021Y-53177970D01*
X85898927Y-53073807D01*
X85862686Y-52959488D01*
X85855477Y-52917427D01*
X85841090Y-52811921D01*
X85746201Y-52797119D01*
X85664443Y-52782667D01*
X85567782Y-52762909D01*
X85464402Y-52739741D01*
X85362483Y-52715060D01*
X85270211Y-52690762D01*
X85204895Y-52671646D01*
X85148699Y-52655021D01*
X85113053Y-52647106D01*
X85095085Y-52647417D01*
X85091480Y-52652595D01*
X85095564Y-52670395D01*
X85106311Y-52705179D01*
X85121461Y-52750402D01*
X85138756Y-52799522D01*
X85155938Y-52845996D01*
X85170749Y-52883280D01*
X85172604Y-52887625D01*
X85176145Y-52899419D01*
X85169764Y-52903238D01*
X85148523Y-52899267D01*
X85114722Y-52889797D01*
X84855138Y-52803105D01*
X84613357Y-52698781D01*
X84388906Y-52576482D01*
X84181310Y-52435868D01*
X83990094Y-52276597D01*
X83814785Y-52098328D01*
X83654908Y-51900720D01*
X83569457Y-51777711D01*
X83516831Y-51691606D01*
X83460125Y-51588488D01*
X83402750Y-51475366D01*
X83348114Y-51359246D01*
X83299627Y-51247138D01*
X83260700Y-51146049D01*
X83257044Y-51135603D01*
X83174724Y-50862495D01*
X83111547Y-50575897D01*
X83068067Y-50279281D01*
X83044844Y-49976119D01*
X83040861Y-49787846D01*
X83040861Y-49600644D01*
X82962233Y-49667228D01*
X82901612Y-49717728D01*
X82851040Y-49758183D01*
X82813071Y-49786635D01*
X82790257Y-49801124D01*
X82785811Y-49802575D01*
X82778030Y-49790596D01*
X82769281Y-49756977D01*
X82760130Y-49705188D01*
X82751145Y-49638703D01*
X82742892Y-49560995D01*
X82738936Y-49515546D01*
X82732842Y-49314505D01*
X82745519Y-49098189D01*
X82753578Y-49038822D01*
X83473082Y-49038822D01*
X83491295Y-49336056D01*
X83501528Y-49425160D01*
X83550010Y-49714998D01*
X83620425Y-49997091D01*
X83712016Y-50269838D01*
X83824025Y-50531643D01*
X83955694Y-50780906D01*
X84106266Y-51016029D01*
X84274984Y-51235412D01*
X84449588Y-51425995D01*
X84632806Y-51594049D01*
X84828520Y-51744252D01*
X85034177Y-51875131D01*
X85247229Y-51985210D01*
X85465125Y-52073018D01*
X85676473Y-52134986D01*
X85736141Y-52148760D01*
X85773643Y-52154624D01*
X85791250Y-52150668D01*
X85791230Y-52134982D01*
X85775854Y-52105656D01*
X85753454Y-52070207D01*
X85636475Y-51868552D01*
X85531448Y-51647060D01*
X85439062Y-51408393D01*
X85360002Y-51155212D01*
X85294956Y-50890179D01*
X85253494Y-50664338D01*
X86272293Y-50664338D01*
X86279335Y-50697483D01*
X86283361Y-50721284D01*
X86289761Y-50764778D01*
X86297795Y-50822691D01*
X86306722Y-50889749D01*
X86311145Y-50923932D01*
X86333954Y-51119385D01*
X86353698Y-51326631D01*
X86370545Y-51548206D01*
X86384659Y-51786644D01*
X86396206Y-52044482D01*
X86405352Y-52324255D01*
X86407169Y-52393382D01*
X86415535Y-52725992D01*
X86480031Y-52790316D01*
X86550947Y-52845539D01*
X86644515Y-52892224D01*
X86761010Y-52930457D01*
X86900704Y-52960324D01*
X87063873Y-52981914D01*
X87094773Y-52984839D01*
X87174670Y-52989750D01*
X87271946Y-52992203D01*
X87380301Y-52992350D01*
X87493437Y-52990346D01*
X87605055Y-52986345D01*
X87708855Y-52980501D01*
X87798538Y-52972967D01*
X87852556Y-52966328D01*
X87987391Y-52940995D01*
X88105619Y-52907852D01*
X88205260Y-52867712D01*
X88284331Y-52821393D01*
X88340852Y-52769708D01*
X88345890Y-52763360D01*
X88359687Y-52744396D01*
X88369416Y-52726469D01*
X88375880Y-52704779D01*
X88379883Y-52674525D01*
X88382227Y-52630905D01*
X88383715Y-52569119D01*
X88384329Y-52533569D01*
X88391526Y-52232139D01*
X88394729Y-52149228D01*
X88991431Y-52149228D01*
X88998819Y-52154545D01*
X89022338Y-52153417D01*
X89064018Y-52145469D01*
X89125887Y-52130329D01*
X89193719Y-52112119D01*
X89427932Y-52034690D01*
X89653187Y-51933990D01*
X89868869Y-51810489D01*
X90074361Y-51664654D01*
X90269049Y-51496953D01*
X90452317Y-51307855D01*
X90623548Y-51097827D01*
X90734252Y-50941109D01*
X90883162Y-50695177D01*
X91010742Y-50437294D01*
X91116673Y-50169354D01*
X91200635Y-49893251D01*
X91262306Y-49610878D01*
X91301367Y-49324130D01*
X91317498Y-49034900D01*
X91310379Y-48745081D01*
X91279689Y-48456569D01*
X91225108Y-48171257D01*
X91211747Y-48116523D01*
X91197139Y-48062578D01*
X91178507Y-47999371D01*
X91157403Y-47931561D01*
X91135379Y-47863806D01*
X91113987Y-47800767D01*
X91094779Y-47747101D01*
X91079308Y-47707469D01*
X91069126Y-47686530D01*
X91068040Y-47685172D01*
X91065001Y-47694252D01*
X91061727Y-47725193D01*
X91058413Y-47774699D01*
X91055256Y-47839472D01*
X91052452Y-47916216D01*
X91050823Y-47974523D01*
X91041421Y-48193633D01*
X91024151Y-48392670D01*
X90998405Y-48575653D01*
X90963575Y-48746600D01*
X90919054Y-48909528D01*
X90900878Y-48965972D01*
X90881537Y-49019031D01*
X90857269Y-49078674D01*
X90830381Y-49139995D01*
X90803181Y-49198084D01*
X90777975Y-49248034D01*
X90757070Y-49284938D01*
X90742774Y-49303888D01*
X90741658Y-49304694D01*
X90733750Y-49297646D01*
X90725834Y-49271805D01*
X90721444Y-49245900D01*
X90708723Y-49167060D01*
X90689471Y-49073182D01*
X90665757Y-48972873D01*
X90639651Y-48874742D01*
X90613222Y-48787395D01*
X90606085Y-48766154D01*
X90558310Y-48642278D01*
X90498966Y-48511449D01*
X90431357Y-48379684D01*
X90358786Y-48252995D01*
X90284557Y-48137398D01*
X90211974Y-48038907D01*
X90195854Y-48019298D01*
X90150837Y-47965838D01*
X90143243Y-48050749D01*
X90125606Y-48203426D01*
X90101411Y-48336998D01*
X90077778Y-48430049D01*
X90056255Y-48496259D01*
X90028739Y-48569134D01*
X89998411Y-48641156D01*
X89968452Y-48704812D01*
X89942044Y-48752584D01*
X89939715Y-48756207D01*
X89920552Y-48785470D01*
X89855422Y-48724216D01*
X89748931Y-48635075D01*
X89627363Y-48552133D01*
X89526139Y-48495016D01*
X89475855Y-48470836D01*
X89421301Y-48447073D01*
X89367637Y-48425667D01*
X89320028Y-48408554D01*
X89283635Y-48397673D01*
X89263620Y-48394962D01*
X89261787Y-48395781D01*
X89265370Y-48408115D01*
X89278592Y-48438418D01*
X89299450Y-48482350D01*
X89325939Y-48535577D01*
X89330683Y-48544895D01*
X89420838Y-48746234D01*
X89495246Y-48965931D01*
X89553401Y-49202330D01*
X89584806Y-49381128D01*
X89591519Y-49443962D01*
X89596548Y-49527298D01*
X89599923Y-49626537D01*
X89601675Y-49737079D01*
X89601833Y-49854325D01*
X89600428Y-49973675D01*
X89597490Y-50090528D01*
X89593049Y-50200286D01*
X89587136Y-50298348D01*
X89579779Y-50380115D01*
X89578168Y-50393858D01*
X89534695Y-50688112D01*
X89478661Y-50967027D01*
X89410583Y-51228493D01*
X89330978Y-51470400D01*
X89285778Y-51586362D01*
X89249046Y-51670766D01*
X89205659Y-51763100D01*
X89159051Y-51856594D01*
X89112657Y-51944477D01*
X89069913Y-52019978D01*
X89046481Y-52058019D01*
X89020889Y-52098359D01*
X89001630Y-52130013D01*
X88991970Y-52147567D01*
X88991431Y-52149228D01*
X88394729Y-52149228D01*
X88402849Y-51939064D01*
X88418088Y-51657742D01*
X88437036Y-51391574D01*
X88459482Y-51143957D01*
X88482177Y-50942388D01*
X88491700Y-50865311D01*
X88500051Y-50796480D01*
X88506754Y-50739902D01*
X88511337Y-50699585D01*
X88513326Y-50679535D01*
X88513372Y-50678422D01*
X88508197Y-50676375D01*
X88494255Y-50692980D01*
X88473928Y-50724333D01*
X88449595Y-50766530D01*
X88423634Y-50815665D01*
X88399866Y-50864705D01*
X88334460Y-51024988D01*
X88275860Y-51206930D01*
X88224597Y-51407825D01*
X88181204Y-51624964D01*
X88146215Y-51855641D01*
X88120161Y-52097149D01*
X88103575Y-52346781D01*
X88102233Y-52377480D01*
X88094324Y-52569150D01*
X88011352Y-52587726D01*
X87935381Y-52603726D01*
X87864261Y-52616166D01*
X87793140Y-52625443D01*
X87717167Y-52631955D01*
X87631493Y-52636098D01*
X87531265Y-52638270D01*
X87411633Y-52638869D01*
X87387419Y-52638840D01*
X87242051Y-52637359D01*
X87117967Y-52633303D01*
X87011391Y-52626340D01*
X86918546Y-52616138D01*
X86835656Y-52602364D01*
X86758943Y-52584685D01*
X86752435Y-52582951D01*
X86705009Y-52570181D01*
X86696640Y-52416120D01*
X86677093Y-52140725D01*
X86827658Y-52140725D01*
X86830202Y-52190980D01*
X86836603Y-52239559D01*
X86841107Y-52259919D01*
X86850127Y-52284331D01*
X86864202Y-52303860D01*
X86886559Y-52319725D01*
X86920427Y-52333146D01*
X86969035Y-52345344D01*
X87035612Y-52357538D01*
X87123386Y-52370947D01*
X87142099Y-52373644D01*
X87185874Y-52377425D01*
X87248927Y-52379616D01*
X87325430Y-52380324D01*
X87409560Y-52379651D01*
X87495488Y-52377703D01*
X87577390Y-52374586D01*
X87649438Y-52370402D01*
X87705807Y-52365258D01*
X87720802Y-52363242D01*
X87779645Y-52353244D01*
X87835078Y-52342017D01*
X87878218Y-52331427D01*
X87890638Y-52327581D01*
X87923549Y-52313114D01*
X87942083Y-52293249D01*
X87954606Y-52258604D01*
X87955673Y-52254630D01*
X87965437Y-52206574D01*
X87971017Y-52157715D01*
X87971399Y-52148333D01*
X87967915Y-52102056D01*
X87957628Y-52044507D01*
X87943005Y-51986425D01*
X87926511Y-51938551D01*
X87920135Y-51925024D01*
X87911898Y-51913125D01*
X87904384Y-51914908D01*
X87895093Y-51933715D01*
X87881522Y-51972891D01*
X87879356Y-51979520D01*
X87861749Y-52026946D01*
X87840048Y-52075940D01*
X87817169Y-52120970D01*
X87796028Y-52156504D01*
X87779541Y-52177011D01*
X87773739Y-52179897D01*
X87761939Y-52170424D01*
X87740648Y-52146327D01*
X87721197Y-52121618D01*
X87677561Y-52063727D01*
X87632130Y-52114922D01*
X87586698Y-52166117D01*
X87540719Y-52120138D01*
X87494740Y-52074158D01*
X87444669Y-52123051D01*
X87394598Y-52171944D01*
X87346947Y-52118247D01*
X87299295Y-52064550D01*
X87256115Y-52118282D01*
X87212934Y-52172015D01*
X87166734Y-52118372D01*
X87120534Y-52064730D01*
X87073051Y-52122676D01*
X87045227Y-52154669D01*
X87026933Y-52169171D01*
X87013245Y-52169286D01*
X87006359Y-52164729D01*
X86987878Y-52141335D01*
X86965427Y-52101617D01*
X86942552Y-52053262D01*
X86922802Y-52003957D01*
X86909726Y-51961388D01*
X86907570Y-51950693D01*
X86900165Y-51920421D01*
X86891441Y-51904319D01*
X86889387Y-51903516D01*
X86878831Y-51914938D01*
X86866261Y-51945094D01*
X86853281Y-51987820D01*
X86841497Y-52036949D01*
X86832513Y-52086316D01*
X86827933Y-52129756D01*
X86827658Y-52140725D01*
X86677093Y-52140725D01*
X86675577Y-52119371D01*
X86645813Y-51845490D01*
X86607215Y-51593689D01*
X86559653Y-51363181D01*
X86502995Y-51153178D01*
X86468949Y-51049105D01*
X86437656Y-50965549D01*
X86403329Y-50884171D01*
X86368414Y-50810082D01*
X86335360Y-50748395D01*
X86306616Y-50704222D01*
X86299761Y-50695789D01*
X86272293Y-50664338D01*
X85253494Y-50664338D01*
X85244611Y-50615956D01*
X85209655Y-50335205D01*
X85190774Y-50050586D01*
X85187447Y-49878058D01*
X85188002Y-49763944D01*
X85190140Y-49670728D01*
X85194077Y-49594185D01*
X85200027Y-49530090D01*
X85208012Y-49475332D01*
X85252540Y-49276770D01*
X85313331Y-49096836D01*
X85390254Y-48935733D01*
X85483177Y-48793664D01*
X85591969Y-48670833D01*
X85716499Y-48567443D01*
X85845582Y-48489294D01*
X85932801Y-48446926D01*
X86003344Y-48418507D01*
X86060767Y-48403031D01*
X86108628Y-48399493D01*
X86143954Y-48404987D01*
X86196192Y-48419053D01*
X86086836Y-48528966D01*
X85991959Y-48637635D01*
X85916920Y-48754253D01*
X85859937Y-48882524D01*
X85819227Y-49026155D01*
X85801905Y-49121014D01*
X85785934Y-49296076D01*
X85789572Y-49481004D01*
X85812952Y-49677502D01*
X85856206Y-49887276D01*
X85864252Y-49919347D01*
X85884555Y-49993492D01*
X85909189Y-50075567D01*
X85936282Y-50160044D01*
X85963964Y-50241396D01*
X85990363Y-50314098D01*
X86013607Y-50372621D01*
X86029149Y-50406438D01*
X86045433Y-50437889D01*
X86051887Y-50406438D01*
X86057658Y-50377628D01*
X86066187Y-50334289D01*
X86074188Y-50293214D01*
X86102179Y-50195282D01*
X86145771Y-50101513D01*
X86201618Y-50016671D01*
X86210679Y-50006715D01*
X86635668Y-50006715D01*
X86644285Y-50102788D01*
X86658959Y-50193956D01*
X86685782Y-50293990D01*
X86721360Y-50392522D01*
X86762301Y-50479186D01*
X86774274Y-50499932D01*
X86802278Y-50542863D01*
X86833255Y-50585432D01*
X86863482Y-50623130D01*
X86889236Y-50651452D01*
X86906794Y-50665891D01*
X86911652Y-50666240D01*
X86912388Y-50652195D01*
X86909357Y-50620455D01*
X86903693Y-50580989D01*
X86897333Y-50525500D01*
X86893552Y-50458503D01*
X86892406Y-50388117D01*
X86893952Y-50322463D01*
X86898245Y-50269660D01*
X86901414Y-50250731D01*
X86909361Y-50214539D01*
X87006991Y-50316779D01*
X87046302Y-50357555D01*
X87078877Y-50390607D01*
X87101061Y-50412274D01*
X87109094Y-50419018D01*
X87115339Y-50408200D01*
X87127256Y-50379944D01*
X87141090Y-50343536D01*
X87155877Y-50304719D01*
X87167466Y-50277477D01*
X87173036Y-50268053D01*
X87181966Y-50277449D01*
X87202120Y-50302589D01*
X87229879Y-50338897D01*
X87244018Y-50357835D01*
X87310576Y-50447617D01*
X87326913Y-50411302D01*
X87341540Y-50378156D01*
X87360347Y-50334738D01*
X87370045Y-50312084D01*
X87396839Y-50249182D01*
X87420024Y-50299504D01*
X87440318Y-50344984D01*
X87460088Y-50391410D01*
X87462764Y-50397940D01*
X87482319Y-50446054D01*
X87553285Y-50355356D01*
X87624251Y-50264658D01*
X87645365Y-50319822D01*
X87660133Y-50358700D01*
X87672249Y-50391084D01*
X87675275Y-50399350D01*
X87681184Y-50407952D01*
X87691842Y-50406946D01*
X87710391Y-50394169D01*
X87739970Y-50367457D01*
X87783704Y-50324665D01*
X87827382Y-50281888D01*
X87856918Y-50255128D01*
X87875531Y-50242192D01*
X87886443Y-50240885D01*
X87892871Y-50249013D01*
X87893278Y-50249980D01*
X87897804Y-50274987D01*
X87900431Y-50318830D01*
X87901263Y-50375260D01*
X87900407Y-50438034D01*
X87897970Y-50500904D01*
X87894057Y-50557625D01*
X87888774Y-50601950D01*
X87887149Y-50610871D01*
X87882119Y-50645304D01*
X87882738Y-50666900D01*
X87885680Y-50670628D01*
X87899918Y-50660836D01*
X87923847Y-50634757D01*
X87953659Y-50597333D01*
X87985544Y-50553511D01*
X88015693Y-50508234D01*
X88033386Y-50478915D01*
X88056888Y-50432334D01*
X88081902Y-50374288D01*
X88102647Y-50318375D01*
X88116437Y-50271288D01*
X88129709Y-50216135D01*
X88141464Y-50158603D01*
X88150704Y-50104377D01*
X88156429Y-50059145D01*
X88157642Y-50028591D01*
X88155236Y-50018947D01*
X88141278Y-50019111D01*
X88107794Y-50024098D01*
X88059771Y-50033055D01*
X88002196Y-50045125D01*
X88000980Y-50045393D01*
X87745317Y-50090952D01*
X87496206Y-50113114D01*
X87250827Y-50111834D01*
X87006363Y-50087067D01*
X86759996Y-50038767D01*
X86703322Y-50024470D01*
X86635668Y-50006715D01*
X86210679Y-50006715D01*
X86266372Y-49945522D01*
X86336688Y-49892831D01*
X86365874Y-49877879D01*
X86460460Y-49848359D01*
X86568767Y-49836101D01*
X86686110Y-49841213D01*
X86807801Y-49863802D01*
X86821297Y-49867371D01*
X86878569Y-49877549D01*
X86945910Y-49881416D01*
X87014215Y-49879188D01*
X87074381Y-49871084D01*
X87110648Y-49860467D01*
X87183083Y-49816663D01*
X87238843Y-49754882D01*
X87276948Y-49676814D01*
X87296416Y-49584151D01*
X87298847Y-49536372D01*
X87298122Y-49484774D01*
X87293816Y-49449433D01*
X87283726Y-49421483D01*
X87265648Y-49392055D01*
X87261499Y-49386093D01*
X87205485Y-49327096D01*
X87134996Y-49288432D01*
X87050979Y-49270556D01*
X87017709Y-49269297D01*
X86937406Y-49278082D01*
X86875089Y-49303422D01*
X86831499Y-49344697D01*
X86807378Y-49401290D01*
X86802473Y-49448784D01*
X86802426Y-49503859D01*
X86748959Y-49495612D01*
X86642052Y-49470989D01*
X86549336Y-49433083D01*
X86473699Y-49383530D01*
X86418027Y-49323968D01*
X86402869Y-49299355D01*
X86386175Y-49263793D01*
X86377918Y-49230451D01*
X86376310Y-49188983D01*
X86377866Y-49154680D01*
X86394193Y-49060173D01*
X86431381Y-48977070D01*
X86490033Y-48904746D01*
X86570753Y-48842574D01*
X86674144Y-48789930D01*
X86759758Y-48758597D01*
X86881901Y-48726467D01*
X87020515Y-48703359D01*
X87177882Y-48689003D01*
X87356282Y-48683128D01*
X87397499Y-48682947D01*
X87580370Y-48686959D01*
X87741595Y-48699188D01*
X87883438Y-48720015D01*
X88008162Y-48749818D01*
X88118030Y-48788979D01*
X88168458Y-48812367D01*
X88239045Y-48855598D01*
X88303782Y-48909412D01*
X88356664Y-48968030D01*
X88391683Y-49025668D01*
X88392809Y-49028306D01*
X88418896Y-49117634D01*
X88421100Y-49201194D01*
X88400321Y-49277550D01*
X88357463Y-49345269D01*
X88293425Y-49402916D01*
X88209110Y-49449056D01*
X88107893Y-49481676D01*
X88064828Y-49491373D01*
X88030960Y-49498169D01*
X88015050Y-49500457D01*
X88005698Y-49489280D01*
X87997231Y-49460535D01*
X87993741Y-49438701D01*
X87977982Y-49371216D01*
X87947711Y-49322155D01*
X87901012Y-49290021D01*
X87835968Y-49273316D01*
X87777774Y-49270001D01*
X87693035Y-49278453D01*
X87622999Y-49305192D01*
X87563127Y-49352291D01*
X87539881Y-49378692D01*
X87508953Y-49436003D01*
X87494632Y-49506302D01*
X87496554Y-49584007D01*
X87514353Y-49663532D01*
X87547664Y-49739292D01*
X87565317Y-49767389D01*
X87618268Y-49822211D01*
X87688287Y-49859325D01*
X87774361Y-49878518D01*
X87875475Y-49879579D01*
X87990616Y-49862293D01*
X88003863Y-49859317D01*
X88135374Y-49838410D01*
X88257429Y-49838396D01*
X88368431Y-49859044D01*
X88466779Y-49900126D01*
X88516924Y-49932872D01*
X88578641Y-49992711D01*
X88634140Y-50071845D01*
X88680639Y-50164642D01*
X88715353Y-50265470D01*
X88735498Y-50368699D01*
X88736384Y-50376768D01*
X88740777Y-50416281D01*
X88744787Y-50433852D01*
X88750605Y-50432568D01*
X88760426Y-50415516D01*
X88761906Y-50412693D01*
X88788033Y-50355855D01*
X88817692Y-50279775D01*
X88849201Y-50189827D01*
X88880881Y-50091385D01*
X88911050Y-49989822D01*
X88938029Y-49890512D01*
X88960136Y-49798829D01*
X88972060Y-49740736D01*
X88999332Y-49546977D01*
X89008206Y-49361480D01*
X88999075Y-49185801D01*
X88972332Y-49021496D01*
X88928370Y-48870122D01*
X88867581Y-48733235D01*
X88790360Y-48612391D01*
X88697098Y-48509146D01*
X88651151Y-48469749D01*
X88588085Y-48419899D01*
X88641937Y-48406035D01*
X88773657Y-48366443D01*
X88888741Y-48318722D01*
X88995314Y-48259218D01*
X89049918Y-48222511D01*
X89133015Y-48150115D01*
X89201785Y-48062928D01*
X89253042Y-47966192D01*
X89283601Y-47865148D01*
X89288842Y-47829503D01*
X89292179Y-47789203D01*
X89292831Y-47761164D01*
X89290983Y-47751956D01*
X89281513Y-47761625D01*
X89263122Y-47786666D01*
X89245294Y-47813262D01*
X89184696Y-47884932D01*
X89106145Y-47944399D01*
X89014825Y-47989345D01*
X88915921Y-48017454D01*
X88814618Y-48026409D01*
X88773698Y-48024017D01*
X88720805Y-48017592D01*
X88672233Y-48009177D01*
X88624588Y-47997446D01*
X88574476Y-47981073D01*
X88518504Y-47958730D01*
X88453278Y-47929092D01*
X88375406Y-47890833D01*
X88281492Y-47842625D01*
X88198860Y-47799338D01*
X88026200Y-47716262D01*
X87974216Y-47696528D01*
X88490999Y-47696528D01*
X88492425Y-47722320D01*
X88513647Y-47760770D01*
X88516817Y-47765521D01*
X88541308Y-47795511D01*
X88570851Y-47822815D01*
X88601365Y-47845163D01*
X88628770Y-47860285D01*
X88648984Y-47865910D01*
X88657926Y-47859768D01*
X88652200Y-47840846D01*
X88641084Y-47796258D01*
X88650083Y-47750954D01*
X88675240Y-47711537D01*
X88712596Y-47684610D01*
X88750732Y-47676473D01*
X88795376Y-47688003D01*
X88834017Y-47718435D01*
X88859622Y-47761530D01*
X88863879Y-47776806D01*
X88872739Y-47820130D01*
X88903779Y-47776607D01*
X88921664Y-47746535D01*
X88931169Y-47714021D01*
X88934614Y-47669505D01*
X88934819Y-47648796D01*
X88932897Y-47603836D01*
X88927872Y-47568435D01*
X88921203Y-47550891D01*
X88906646Y-47547740D01*
X88876298Y-47553598D01*
X88827804Y-47569093D01*
X88763947Y-47592861D01*
X88700772Y-47616534D01*
X88639063Y-47638315D01*
X88586460Y-47655581D01*
X88554259Y-47664838D01*
X88511049Y-47678875D01*
X88490999Y-47696528D01*
X87974216Y-47696528D01*
X87861717Y-47653822D01*
X87701187Y-47610762D01*
X87540390Y-47585824D01*
X87462197Y-47579938D01*
X87326842Y-47579277D01*
X87192589Y-47591792D01*
X87056417Y-47618374D01*
X86915308Y-47659912D01*
X86766240Y-47717296D01*
X86606193Y-47791416D01*
X86432148Y-47883160D01*
X86431302Y-47883629D01*
X86292131Y-47951818D01*
X86160653Y-47998047D01*
X86037779Y-48022095D01*
X85924422Y-48023741D01*
X85879092Y-48017556D01*
X85767517Y-47985468D01*
X85670217Y-47933944D01*
X85588969Y-47864118D01*
X85540842Y-47802278D01*
X85503976Y-47745665D01*
X85510036Y-47829189D01*
X85530173Y-47932963D01*
X85575350Y-48034574D01*
X85623996Y-48107171D01*
X85669736Y-48166744D01*
X85635363Y-48174407D01*
X85451831Y-48227923D01*
X85271399Y-48305555D01*
X85095996Y-48406283D01*
X84927551Y-48529090D01*
X84867235Y-48580044D01*
X84826681Y-48614327D01*
X84800294Y-48632804D01*
X84784499Y-48637515D01*
X84776471Y-48631808D01*
X84768379Y-48613408D01*
X84754416Y-48576317D01*
X84736483Y-48525772D01*
X84716483Y-48467013D01*
X84714763Y-48461849D01*
X84673339Y-48317117D01*
X84648436Y-48182720D01*
X84640448Y-48061421D01*
X84645993Y-47979247D01*
X84651022Y-47935841D01*
X84652841Y-47904180D01*
X84651119Y-47890484D01*
X84650709Y-47890341D01*
X84639525Y-47898845D01*
X84614582Y-47922028D01*
X84579518Y-47956394D01*
X84537975Y-47998447D01*
X84536055Y-48000420D01*
X84421466Y-48130456D01*
X84330390Y-48261806D01*
X84261244Y-48397608D01*
X84212447Y-48540999D01*
X84182415Y-48695115D01*
X84181300Y-48703773D01*
X84165831Y-48826944D01*
X84107133Y-48732766D01*
X84012276Y-48558633D01*
X83934440Y-48369078D01*
X83875420Y-48168711D01*
X83859752Y-48097919D01*
X83846022Y-48018876D01*
X83834074Y-47928582D01*
X83824435Y-47833595D01*
X83817634Y-47740470D01*
X83814196Y-47655766D01*
X83814473Y-47613316D01*
X85852373Y-47613316D01*
X85854560Y-47681095D01*
X85878308Y-47746581D01*
X85922551Y-47804390D01*
X85923629Y-47805423D01*
X85952147Y-47831561D01*
X85972886Y-47848693D01*
X85979504Y-47852599D01*
X85981675Y-47841784D01*
X85978773Y-47815221D01*
X85977823Y-47809892D01*
X85978424Y-47756099D01*
X85999959Y-47713487D01*
X86039313Y-47685837D01*
X86087366Y-47676873D01*
X86133392Y-47687580D01*
X86170031Y-47716416D01*
X86191823Y-47757175D01*
X86194312Y-47798436D01*
X86192470Y-47826321D01*
X86196849Y-47839792D01*
X86197890Y-47840019D01*
X86215752Y-47830730D01*
X86239837Y-47806913D01*
X86265812Y-47774637D01*
X86289340Y-47739975D01*
X86306087Y-47708999D01*
X86311717Y-47687780D01*
X86309791Y-47683298D01*
X86296643Y-47678191D01*
X86265008Y-47667737D01*
X86220513Y-47653767D01*
X86195553Y-47646141D01*
X86129227Y-47624528D01*
X86056265Y-47598406D01*
X85991249Y-47573022D01*
X85984682Y-47570278D01*
X85935634Y-47550153D01*
X85904565Y-47539482D01*
X85886544Y-47537310D01*
X85876643Y-47542684D01*
X85872811Y-47548626D01*
X85852373Y-47613316D01*
X83814473Y-47613316D01*
X83814651Y-47586039D01*
X83816436Y-47559507D01*
X83819241Y-47517862D01*
X83816997Y-47496985D01*
X83808966Y-47497489D01*
X83794412Y-47519982D01*
X83772599Y-47565077D01*
X83751260Y-47613570D01*
X83646723Y-47888097D01*
X83566538Y-48168606D01*
X83510803Y-48454377D01*
X83479618Y-48744689D01*
X83473082Y-49038822D01*
X82753578Y-49038822D01*
X82776785Y-48867872D01*
X82826464Y-48624832D01*
X82894374Y-48370345D01*
X82904392Y-48336948D01*
X82944365Y-48215850D01*
X82994971Y-48079129D01*
X83053681Y-47932604D01*
X83117965Y-47782095D01*
X83185293Y-47633420D01*
X83253133Y-47492399D01*
X83318957Y-47364851D01*
X83356543Y-47297014D01*
X83421957Y-47182705D01*
X83377032Y-46998707D01*
X83352479Y-46896341D01*
X83333656Y-46811682D01*
X83319825Y-46738475D01*
X83310248Y-46670466D01*
X83304188Y-46601403D01*
X83300907Y-46525031D01*
X83299667Y-46435096D01*
X83299668Y-46342941D01*
X83299960Y-46285069D01*
X83801817Y-46285069D01*
X83802189Y-46419653D01*
X83820709Y-46558369D01*
X83858093Y-46699200D01*
X83915059Y-46840132D01*
X83921023Y-46852451D01*
X83953986Y-46914470D01*
X83991808Y-46977725D01*
X84028655Y-47032744D01*
X84046802Y-47056568D01*
X84078639Y-47092398D01*
X84118374Y-47132660D01*
X84161517Y-47173343D01*
X84203578Y-47210436D01*
X84240068Y-47239931D01*
X84266498Y-47257815D01*
X84276020Y-47261317D01*
X84276067Y-47250950D01*
X84267340Y-47223921D01*
X84253586Y-47190408D01*
X84212403Y-47075920D01*
X84185806Y-46955026D01*
X84174718Y-46834834D01*
X84180064Y-46722451D01*
X84187261Y-46680088D01*
X84219483Y-46581930D01*
X84272301Y-46485002D01*
X84341596Y-46395262D01*
X84423252Y-46318669D01*
X84451365Y-46297877D01*
X84501977Y-46262803D01*
X84470952Y-46246548D01*
X84444645Y-46235577D01*
X84401981Y-46220703D01*
X84350878Y-46204639D01*
X84334822Y-46199917D01*
X84229717Y-46169541D01*
X84281184Y-46155651D01*
X84417523Y-46127752D01*
X84555317Y-46116181D01*
X84689770Y-46120629D01*
X84816084Y-46140784D01*
X84929461Y-46176334D01*
X84982339Y-46201136D01*
X85014793Y-46221888D01*
X85055167Y-46252520D01*
X85098925Y-46288948D01*
X85141528Y-46327087D01*
X85178438Y-46362851D01*
X85205118Y-46392156D01*
X85217030Y-46410918D01*
X85217263Y-46412613D01*
X85207477Y-46425763D01*
X85182524Y-46445954D01*
X85163796Y-46458598D01*
X85087724Y-46516258D01*
X85026043Y-46582157D01*
X84981551Y-46652272D01*
X84957046Y-46722577D01*
X84953095Y-46761557D01*
X84963958Y-46833747D01*
X84996965Y-46902832D01*
X85052739Y-46969442D01*
X85131906Y-47034204D01*
X85235090Y-47097746D01*
X85339460Y-47150029D01*
X85382495Y-47168676D01*
X85436819Y-47190399D01*
X85497902Y-47213600D01*
X85561213Y-47236682D01*
X85622224Y-47258046D01*
X85676404Y-47276096D01*
X85719223Y-47289234D01*
X85746152Y-47295863D01*
X85753035Y-47295882D01*
X85750889Y-47282975D01*
X85741094Y-47253311D01*
X85725817Y-47213431D01*
X85707990Y-47164871D01*
X85689410Y-47107029D01*
X85671955Y-47046694D01*
X85657501Y-46990658D01*
X85647925Y-46945712D01*
X85645022Y-46921087D01*
X85649842Y-46914230D01*
X85666125Y-46918362D01*
X85696605Y-46934746D01*
X85744018Y-46964643D01*
X85755193Y-46971974D01*
X85914779Y-47071917D01*
X86076312Y-47163244D01*
X86235409Y-47243790D01*
X86387684Y-47311389D01*
X86528752Y-47363875D01*
X86582712Y-47380634D01*
X86668355Y-47404241D01*
X86738208Y-47420050D01*
X86800010Y-47429174D01*
X86861503Y-47432726D01*
X86930425Y-47431820D01*
X86936888Y-47431572D01*
X87003536Y-47427152D01*
X87055022Y-47418726D01*
X87101266Y-47404286D01*
X87128709Y-47392763D01*
X87210972Y-47342431D01*
X87281609Y-47271912D01*
X87338076Y-47184485D01*
X87377828Y-47083427D01*
X87382641Y-47065526D01*
X87397872Y-47005037D01*
X87418629Y-47079710D01*
X87455683Y-47183339D01*
X87504246Y-47266484D01*
X87566140Y-47331885D01*
X87605522Y-47360642D01*
X87695642Y-47404947D01*
X87798176Y-47429916D01*
X87913615Y-47435482D01*
X88042446Y-47421576D01*
X88185158Y-47388133D01*
X88342239Y-47335083D01*
X88514177Y-47262360D01*
X88595146Y-47223876D01*
X88846467Y-47090146D01*
X89098022Y-46935490D01*
X89109861Y-46927691D01*
X89146518Y-46903469D01*
X89138093Y-46975152D01*
X89129942Y-47019065D01*
X89115131Y-47076901D01*
X89096210Y-47139170D01*
X89085993Y-47169035D01*
X89068248Y-47220075D01*
X89054794Y-47261482D01*
X89047240Y-47288123D01*
X89046368Y-47295286D01*
X89059588Y-47293307D01*
X89091742Y-47283991D01*
X89138247Y-47268951D01*
X89194521Y-47249797D01*
X89255980Y-47228140D01*
X89318043Y-47205594D01*
X89376126Y-47183768D01*
X89425647Y-47164275D01*
X89458242Y-47150448D01*
X89561734Y-47097995D01*
X89652955Y-47040095D01*
X89729142Y-46979098D01*
X89787529Y-46917354D01*
X89825353Y-46857213D01*
X89835344Y-46829791D01*
X89842704Y-46755552D01*
X89826207Y-46680280D01*
X89786950Y-46606183D01*
X89726026Y-46535470D01*
X89663848Y-46483851D01*
X89625769Y-46454485D01*
X89597276Y-46429177D01*
X89583341Y-46412443D01*
X89582714Y-46410143D01*
X89591103Y-46394988D01*
X89613469Y-46367469D01*
X89645603Y-46332613D01*
X89658828Y-46319162D01*
X89748521Y-46245336D01*
X89854687Y-46184725D01*
X89970471Y-46141119D01*
X89991077Y-46135552D01*
X90064580Y-46123125D01*
X90153957Y-46117619D01*
X90251590Y-46118642D01*
X90349859Y-46125797D01*
X90441145Y-46138689D01*
X90517829Y-46156923D01*
X90538317Y-46163927D01*
X90556085Y-46171655D01*
X90555033Y-46176852D01*
X90532602Y-46182356D01*
X90519447Y-46184839D01*
X90480188Y-46193858D01*
X90433018Y-46207154D01*
X90385098Y-46222387D01*
X90343588Y-46237216D01*
X90315651Y-46249300D01*
X90308957Y-46253633D01*
X90313448Y-46265120D01*
X90334109Y-46287118D01*
X90366772Y-46315326D01*
X90375042Y-46321851D01*
X90468430Y-46409550D01*
X90540759Y-46510782D01*
X90591345Y-46624316D01*
X90619501Y-46748923D01*
X90621322Y-46764387D01*
X90622600Y-46836436D01*
X90614156Y-46922429D01*
X90597490Y-47013789D01*
X90574099Y-47101939D01*
X90551318Y-47164945D01*
X90534133Y-47207501D01*
X90522310Y-47240018D01*
X90517972Y-47256574D01*
X90518191Y-47257451D01*
X90530849Y-47253747D01*
X90557049Y-47236550D01*
X90592041Y-47209644D01*
X90631074Y-47176810D01*
X90669398Y-47141832D01*
X90693473Y-47117873D01*
X90793828Y-46995307D01*
X90874865Y-46858217D01*
X90935481Y-46709434D01*
X90974571Y-46551792D01*
X90991032Y-46388127D01*
X90991510Y-46352907D01*
X90982691Y-46205440D01*
X90956272Y-46074644D01*
X90911514Y-45958519D01*
X90847677Y-45855062D01*
X90778916Y-45776627D01*
X90694486Y-45704004D01*
X90606372Y-45651943D01*
X90506716Y-45616192D01*
X90462970Y-45605741D01*
X90345273Y-45592759D01*
X90216428Y-45600611D01*
X90078346Y-45628626D01*
X89932938Y-45676130D01*
X89782113Y-45742451D01*
X89627782Y-45826917D01*
X89471856Y-45928853D01*
X89403733Y-45978691D01*
X89346295Y-46020523D01*
X89304820Y-46046820D01*
X89276728Y-46059055D01*
X89261911Y-46059639D01*
X89104296Y-46018120D01*
X88939766Y-45982303D01*
X88766094Y-45951966D01*
X88581048Y-45926885D01*
X88382399Y-45906836D01*
X88167918Y-45891596D01*
X87935374Y-45880941D01*
X87682538Y-45874649D01*
X87407180Y-45872496D01*
X87393709Y-45872493D01*
X87109108Y-45874757D01*
X86847372Y-45881613D01*
X86606594Y-45893232D01*
X86384870Y-45909786D01*
X86180294Y-45931445D01*
X85990961Y-45958380D01*
X85814966Y-45990764D01*
X85650403Y-46028768D01*
X85647753Y-46029448D01*
X85505810Y-46065945D01*
X85427595Y-46004715D01*
X85278984Y-45896927D01*
X85128231Y-45803908D01*
X84977800Y-45726600D01*
X84830153Y-45665943D01*
X84687753Y-45622880D01*
X84553062Y-45598352D01*
X84428545Y-45593300D01*
X84366264Y-45599022D01*
X84247225Y-45627987D01*
X84140606Y-45677210D01*
X84047124Y-45744675D01*
X83967494Y-45828365D01*
X83902432Y-45926265D01*
X83852654Y-46036360D01*
X83818877Y-46156633D01*
X83801817Y-46285069D01*
X83299960Y-46285069D01*
X83300139Y-46249461D01*
X83301137Y-46176551D01*
X83303047Y-46119619D01*
X83306256Y-46074075D01*
X83311150Y-46035327D01*
X83318115Y-45998786D01*
X83327537Y-45959859D01*
X83333928Y-45935688D01*
X83385076Y-45783080D01*
X83452475Y-45643090D01*
X83534279Y-45518781D01*
X83628639Y-45413212D01*
X83673003Y-45374023D01*
X83739762Y-45326319D01*
X83822501Y-45277514D01*
X83912748Y-45231853D01*
X84002027Y-45193581D01*
X84081864Y-45166943D01*
X84091332Y-45164500D01*
X84158490Y-45152728D01*
X84243494Y-45145042D01*
X84339364Y-45141444D01*
X84439118Y-45141935D01*
G37*
D12*
X128300000Y-54727064D02*
X128300000Y-53272936D01*
X130120000Y-54727064D02*
X130120000Y-53272936D01*
X127422936Y-84990000D02*
X128877064Y-84990000D01*
X127422936Y-86810000D02*
X128877064Y-86810000D01*
X161120000Y-77030000D02*
X162500000Y-77030000D01*
X161120000Y-78410000D02*
X161120000Y-77030000D01*
X161120000Y-79680000D02*
X161120000Y-82330000D01*
X161120000Y-79680000D02*
X163880000Y-79680000D01*
X161120000Y-82330000D02*
X163880000Y-82330000D01*
X163880000Y-79680000D02*
X163880000Y-82330000D01*
X136550000Y-93900000D02*
X136550000Y-95400000D01*
X137800000Y-97900000D02*
X142300000Y-97900000D01*
X142300000Y-91400000D02*
X137800000Y-91400000D01*
X143550000Y-95400000D02*
X143550000Y-93900000D01*
X127388748Y-87765000D02*
X127911252Y-87765000D01*
X127388748Y-89235000D02*
X127911252Y-89235000D01*
D14*
X52325000Y-49740000D02*
X52325000Y-65740000D01*
X52325000Y-76740000D02*
X52325000Y-92740000D01*
X66125000Y-48740000D02*
X67325000Y-48740000D01*
X66125000Y-49740000D02*
X52325000Y-49740000D01*
X66125000Y-49740000D02*
X66125000Y-48740000D01*
X66125000Y-65740000D02*
X52325000Y-65740000D01*
X66125000Y-65740000D02*
X66125000Y-49740000D01*
X66125000Y-76740000D02*
X52325000Y-76740000D01*
X66125000Y-76740000D02*
X66125000Y-65740000D01*
X66125000Y-92740000D02*
X52325000Y-92740000D01*
X66125000Y-92740000D02*
X66125000Y-76740000D01*
X66125000Y-93740000D02*
X66125000Y-92740000D01*
X67325000Y-48740000D02*
X67325000Y-93740000D01*
X67325000Y-93740000D02*
X66125000Y-93740000D01*
D12*
X96235000Y-85955000D02*
X96235000Y-86420000D01*
X96235000Y-88580000D02*
X96235000Y-89045000D01*
X96235000Y-85955170D02*
G75*
G02*
X101583107Y-86419925I2560000J-1544830D01*
G01*
X96540316Y-86420000D02*
G75*
G02*
X101049656Y-86419941I2254684J-1080000D01*
G01*
X101049656Y-88580059D02*
G75*
G02*
X96540316Y-88580000I-2254656J1080059D01*
G01*
X101583107Y-88580075D02*
G75*
G02*
X96235000Y-89044830I-2788107J1080075D01*
G01*
X138223752Y-85065000D02*
X137701248Y-85065000D01*
X138223752Y-86535000D02*
X137701248Y-86535000D01*
X159050000Y-83870000D02*
X162750000Y-83870000D01*
X159050000Y-84750000D02*
X159050000Y-83870000D01*
X159050000Y-87250000D02*
X159050000Y-86690000D01*
X159050000Y-89740000D02*
X159050000Y-89190000D01*
X159050000Y-92570000D02*
X159050000Y-91700000D01*
X162050000Y-83570000D02*
X163050000Y-83570000D01*
X162750000Y-83870000D02*
X162750000Y-84720000D01*
X162750000Y-86720000D02*
X162750000Y-87250000D01*
X162750000Y-89190000D02*
X162750000Y-89750000D01*
X162750000Y-91690000D02*
X162750000Y-92570000D01*
X162750000Y-92570000D02*
X159050000Y-92570000D01*
X163050000Y-83570000D02*
X163050000Y-84570000D01*
X72535000Y-59800000D02*
X72535000Y-53920000D01*
X74505000Y-52750000D02*
X75655000Y-52750000D01*
X74505000Y-60970000D02*
X75655000Y-60970000D01*
X75655000Y-52750000D02*
X75655000Y-53800000D01*
X75655000Y-59920000D02*
X76645000Y-59920000D01*
X75655000Y-60970000D02*
X75655000Y-59920000D01*
X142180000Y-52920000D02*
X142180000Y-55680000D01*
X149910000Y-52920000D02*
X142180000Y-52920000D01*
X149910000Y-52920000D02*
X149910000Y-55680000D01*
X149910000Y-55680000D02*
X142180000Y-55680000D01*
X151180000Y-52920000D02*
X152560000Y-52920000D01*
X152560000Y-52920000D02*
X152560000Y-54300000D01*
X126350000Y-93900000D02*
X126350000Y-95400000D01*
X127600000Y-97900000D02*
X132100000Y-97900000D01*
X132100000Y-91400000D02*
X127600000Y-91400000D01*
X133350000Y-95400000D02*
X133350000Y-93900000D01*
X134520000Y-52920000D02*
X134520000Y-55680000D01*
X137170000Y-52920000D02*
X134520000Y-52920000D01*
X137170000Y-52920000D02*
X137170000Y-55680000D01*
X137170000Y-55680000D02*
X134520000Y-55680000D01*
X138440000Y-52920000D02*
X139820000Y-52920000D01*
X139820000Y-52920000D02*
X139820000Y-54300000D01*
X124857064Y-54640000D02*
X123402936Y-54640000D01*
X124857064Y-56460000D02*
X123402936Y-56460000D01*
X72535000Y-89010000D02*
X72535000Y-83130000D01*
X74505000Y-81960000D02*
X75655000Y-81960000D01*
X74505000Y-90180000D02*
X75655000Y-90180000D01*
X75655000Y-81960000D02*
X75655000Y-83010000D01*
X75655000Y-89130000D02*
X76645000Y-89130000D01*
X75655000Y-90180000D02*
X75655000Y-89130000D01*
X82355000Y-96890000D02*
X82355000Y-99650000D01*
X82355000Y-99650000D02*
X87655000Y-99650000D01*
X83305000Y-96577358D02*
X83305000Y-96890000D01*
X83305000Y-105650000D02*
X83305000Y-99650000D01*
X84165000Y-96577358D02*
X84165000Y-96890000D01*
X84165000Y-99650000D02*
X84165000Y-105650000D01*
X84165000Y-105650000D02*
X83305000Y-105650000D01*
X85005000Y-96890000D02*
X85005000Y-99650000D01*
X85845000Y-96660000D02*
X85845000Y-96890000D01*
X86275000Y-94230000D02*
X87545000Y-94230000D01*
X86705000Y-96660000D02*
X86705000Y-96890000D01*
X87545000Y-94230000D02*
X87545000Y-95500000D01*
X87655000Y-96890000D02*
X82355000Y-96890000D01*
X87655000Y-99650000D02*
X87655000Y-96890000D01*
X86705000Y-99650000D02*
X85845000Y-99650000D01*
X85845000Y-105650000D01*
X86705000Y-105650000D01*
X86705000Y-99650000D01*
G36*
X86705000Y-99650000D02*
G01*
X85845000Y-99650000D01*
X85845000Y-105650000D01*
X86705000Y-105650000D01*
X86705000Y-99650000D01*
G37*
D14*
X79430000Y-60990000D02*
X94670000Y-60990000D01*
X79430000Y-81310000D02*
X79430000Y-60990000D01*
X94670000Y-60990000D02*
X94670000Y-81310000D01*
X94670000Y-81310000D02*
X79430000Y-81310000D01*
D15*
X79000000Y-62250000D02*
G75*
G02*
X78700000Y-62250000I-150000J0D01*
G01*
X78700000Y-62250000D02*
G75*
G02*
X79000000Y-62250000I150000J0D01*
G01*
D12*
X110934000Y-91048000D02*
X111704000Y-91048000D01*
X111704000Y-89678000D02*
X111704000Y-92418000D01*
X111704000Y-92418000D02*
X118244000Y-92418000D01*
X118244000Y-89678000D02*
X111704000Y-89678000D01*
X118244000Y-92418000D02*
X118244000Y-89678000D01*
X119014000Y-91048000D02*
X118244000Y-91048000D01*
X141680000Y-87020000D02*
X141680000Y-89780000D01*
X144330000Y-87020000D02*
X141680000Y-87020000D01*
X144330000Y-87020000D02*
X144330000Y-89780000D01*
X144330000Y-89780000D02*
X141680000Y-89780000D01*
X145600000Y-87020000D02*
X146980000Y-87020000D01*
X146980000Y-87020000D02*
X146980000Y-88400000D01*
X109060000Y-61150000D02*
X109060000Y-64987939D01*
X109060000Y-67550000D02*
X109060000Y-65912061D01*
X109060000Y-74750000D02*
X109060000Y-67550000D01*
X109060000Y-76387939D02*
X109060000Y-74750000D01*
X109060000Y-77312061D02*
X109060000Y-81150000D01*
X109123000Y-81420000D02*
X160217000Y-81420000D01*
X109973520Y-63640000D02*
X109060000Y-63640000D01*
X109973520Y-78660000D02*
X109060000Y-78660000D01*
X155760000Y-75050000D02*
X155760000Y-67250000D01*
X156973520Y-63640000D02*
X112366480Y-63640000D01*
X156973520Y-78660000D02*
X112366480Y-78660000D01*
X156976000Y-67250000D02*
X155760000Y-67250000D01*
X156976000Y-75050000D02*
X155760000Y-75050000D01*
X158000000Y-60220000D02*
X159600000Y-60220000D01*
X159670000Y-60540000D02*
X109670000Y-60540000D01*
X159670000Y-81760000D02*
X109670000Y-81760000D01*
X160217000Y-60880000D02*
X109123000Y-60880000D01*
X160280000Y-61150000D02*
X160280000Y-63640000D01*
X160280000Y-63640000D02*
X159366480Y-63640000D01*
X160280000Y-63640000D02*
X160280000Y-64987940D01*
X160280000Y-65912061D02*
X160280000Y-66915000D01*
X160280000Y-66915000D02*
X160280000Y-75385000D01*
X160280000Y-75385000D02*
X160280000Y-76387939D01*
X160280000Y-77312061D02*
X160280000Y-78660000D01*
X160280000Y-78660000D02*
X159366480Y-78660000D01*
X160280000Y-81150000D02*
X160280000Y-78660000D01*
X160760000Y-67040000D02*
X160760000Y-67250000D01*
X160760000Y-67250000D02*
X159364000Y-67250000D01*
X160760000Y-75050000D02*
X159364000Y-75050000D01*
X160760000Y-75260000D02*
X160760000Y-75050000D01*
X161580000Y-67040000D02*
X160760000Y-67040000D01*
X161580000Y-67040000D02*
X161580000Y-75260000D01*
X161580000Y-75260000D02*
X160760000Y-75260000D01*
X109060000Y-61150000D02*
G75*
G02*
X109670000Y-60540000I609901J99D01*
G01*
X109670000Y-81760000D02*
G75*
G02*
X109060000Y-81150000I0J610000D01*
G01*
X159670000Y-60540000D02*
G75*
G02*
X160280000Y-61150000I0J-610000D01*
G01*
X160280000Y-81150000D02*
G75*
G02*
X159670000Y-81760000I-610000J0D01*
G01*
X110934000Y-87492000D02*
X111704000Y-87492000D01*
X111704000Y-86122000D02*
X111704000Y-88862000D01*
X111704000Y-88862000D02*
X118244000Y-88862000D01*
X118244000Y-86122000D02*
X111704000Y-86122000D01*
X118244000Y-88862000D02*
X118244000Y-86122000D01*
X119014000Y-87492000D02*
X118244000Y-87492000D01*
M02*
