G04 #@! TF.GenerationSoftware,KiCad,Pcbnew,9.0.1-1.fc42*
G04 #@! TF.CreationDate,2025-05-14T23:42:12-05:00*
G04 #@! TF.ProjectId,cerebellum,63657265-6265-46c6-9c75-6d2e6b696361,rev?*
G04 #@! TF.SameCoordinates,Original*
G04 #@! TF.FileFunction,Soldermask,Top*
G04 #@! TF.FilePolarity,Negative*
%FSLAX46Y46*%
G04 Gerber Fmt 4.6, Leading zero omitted, Abs format (unit mm)*
G04 Created by KiCad (PCBNEW 9.0.1-1.fc42) date 2025-05-14 23:42:12*
%MOMM*%
%LPD*%
G01*
G04 APERTURE LIST*
G04 APERTURE END LIST*
G36*
X91654116Y-97200818D02*
G01*
X91705379Y-97206766D01*
X91722892Y-97214499D01*
X91745671Y-97219030D01*
X91770057Y-97235324D01*
X91790788Y-97244478D01*
X91804946Y-97258636D01*
X91826777Y-97273223D01*
X91841363Y-97295053D01*
X91855521Y-97309211D01*
X91864673Y-97329939D01*
X91880970Y-97354329D01*
X91885501Y-97377109D01*
X91893233Y-97394620D01*
X91899178Y-97445872D01*
X91900000Y-97450000D01*
X91900000Y-98750000D01*
X91899178Y-98754128D01*
X91893233Y-98805379D01*
X91885501Y-98822888D01*
X91880970Y-98845671D01*
X91864672Y-98870062D01*
X91855521Y-98890788D01*
X91841365Y-98904943D01*
X91826777Y-98926777D01*
X91804943Y-98941365D01*
X91790788Y-98955521D01*
X91770062Y-98964672D01*
X91745671Y-98980970D01*
X91722888Y-98985501D01*
X91705379Y-98993233D01*
X91654129Y-98999178D01*
X91650000Y-99000000D01*
X90950000Y-99000000D01*
X90945873Y-98999179D01*
X90894620Y-98993233D01*
X90877109Y-98985501D01*
X90854329Y-98980970D01*
X90829939Y-98964673D01*
X90809211Y-98955521D01*
X90795053Y-98941363D01*
X90773223Y-98926777D01*
X90758636Y-98904946D01*
X90744478Y-98890788D01*
X90735324Y-98870057D01*
X90719030Y-98845671D01*
X90714499Y-98822892D01*
X90706766Y-98805379D01*
X90700818Y-98754117D01*
X90700000Y-98750000D01*
X90700000Y-97450000D01*
X90700818Y-97445885D01*
X90706766Y-97394620D01*
X90714499Y-97377105D01*
X90719030Y-97354329D01*
X90735323Y-97329944D01*
X90744478Y-97309211D01*
X90758638Y-97295050D01*
X90773223Y-97273223D01*
X90795050Y-97258638D01*
X90809211Y-97244478D01*
X90829944Y-97235323D01*
X90854329Y-97219030D01*
X90877105Y-97214499D01*
X90894620Y-97206766D01*
X90945884Y-97200818D01*
X90950000Y-97200000D01*
X91650000Y-97200000D01*
X91654116Y-97200818D01*
G37*
G36*
X99254116Y-97200818D02*
G01*
X99305379Y-97206766D01*
X99322892Y-97214499D01*
X99345671Y-97219030D01*
X99370057Y-97235324D01*
X99390788Y-97244478D01*
X99404946Y-97258636D01*
X99426777Y-97273223D01*
X99441363Y-97295053D01*
X99455521Y-97309211D01*
X99464673Y-97329939D01*
X99480970Y-97354329D01*
X99485501Y-97377109D01*
X99493233Y-97394620D01*
X99499178Y-97445872D01*
X99500000Y-97450000D01*
X99500000Y-98750000D01*
X99499178Y-98754128D01*
X99493233Y-98805379D01*
X99485501Y-98822888D01*
X99480970Y-98845671D01*
X99464672Y-98870062D01*
X99455521Y-98890788D01*
X99441365Y-98904943D01*
X99426777Y-98926777D01*
X99404943Y-98941365D01*
X99390788Y-98955521D01*
X99370062Y-98964672D01*
X99345671Y-98980970D01*
X99322888Y-98985501D01*
X99305379Y-98993233D01*
X99254129Y-98999178D01*
X99250000Y-99000000D01*
X98550000Y-99000000D01*
X98545873Y-98999179D01*
X98494620Y-98993233D01*
X98477109Y-98985501D01*
X98454329Y-98980970D01*
X98429939Y-98964673D01*
X98409211Y-98955521D01*
X98395053Y-98941363D01*
X98373223Y-98926777D01*
X98358636Y-98904946D01*
X98344478Y-98890788D01*
X98335324Y-98870057D01*
X98319030Y-98845671D01*
X98314499Y-98822892D01*
X98306766Y-98805379D01*
X98300818Y-98754117D01*
X98300000Y-98750000D01*
X98300000Y-97450000D01*
X98300818Y-97445885D01*
X98306766Y-97394620D01*
X98314499Y-97377105D01*
X98319030Y-97354329D01*
X98335323Y-97329944D01*
X98344478Y-97309211D01*
X98358638Y-97295050D01*
X98373223Y-97273223D01*
X98395050Y-97258638D01*
X98409211Y-97244478D01*
X98429944Y-97235323D01*
X98454329Y-97219030D01*
X98477105Y-97214499D01*
X98494620Y-97206766D01*
X98545884Y-97200818D01*
X98550000Y-97200000D01*
X99250000Y-97200000D01*
X99254116Y-97200818D01*
G37*
G36*
X128040285Y-95993060D02*
G01*
X128221397Y-96068079D01*
X128384393Y-96176990D01*
X128523010Y-96315607D01*
X128631921Y-96478603D01*
X128706940Y-96659715D01*
X128745185Y-96851983D01*
X128745185Y-97048017D01*
X128706940Y-97240285D01*
X128631921Y-97421397D01*
X128523010Y-97584393D01*
X128384393Y-97723010D01*
X128221397Y-97831921D01*
X128040285Y-97906940D01*
X127848017Y-97945185D01*
X127651983Y-97945185D01*
X127459715Y-97906940D01*
X127278603Y-97831921D01*
X127115607Y-97723010D01*
X126976990Y-97584393D01*
X126868079Y-97421397D01*
X126793060Y-97240285D01*
X126754815Y-97048017D01*
X126754815Y-96851983D01*
X126793060Y-96659715D01*
X126868079Y-96478603D01*
X126976990Y-96315607D01*
X127115607Y-96176990D01*
X127278603Y-96068079D01*
X127459715Y-95993060D01*
X127651983Y-95954815D01*
X127848017Y-95954815D01*
X128040285Y-95993060D01*
G37*
G36*
X132540285Y-95993060D02*
G01*
X132721397Y-96068079D01*
X132884393Y-96176990D01*
X133023010Y-96315607D01*
X133131921Y-96478603D01*
X133206940Y-96659715D01*
X133245185Y-96851983D01*
X133245185Y-97048017D01*
X133206940Y-97240285D01*
X133131921Y-97421397D01*
X133023010Y-97584393D01*
X132884393Y-97723010D01*
X132721397Y-97831921D01*
X132540285Y-97906940D01*
X132348017Y-97945185D01*
X132151983Y-97945185D01*
X131959715Y-97906940D01*
X131778603Y-97831921D01*
X131615607Y-97723010D01*
X131476990Y-97584393D01*
X131368079Y-97421397D01*
X131293060Y-97240285D01*
X131254815Y-97048017D01*
X131254815Y-96851983D01*
X131293060Y-96659715D01*
X131368079Y-96478603D01*
X131476990Y-96315607D01*
X131615607Y-96176990D01*
X131778603Y-96068079D01*
X131959715Y-95993060D01*
X132151983Y-95954815D01*
X132348017Y-95954815D01*
X132540285Y-95993060D01*
G37*
G36*
X137640285Y-95993060D02*
G01*
X137821397Y-96068079D01*
X137984393Y-96176990D01*
X138123010Y-96315607D01*
X138231921Y-96478603D01*
X138306940Y-96659715D01*
X138345185Y-96851983D01*
X138345185Y-97048017D01*
X138306940Y-97240285D01*
X138231921Y-97421397D01*
X138123010Y-97584393D01*
X137984393Y-97723010D01*
X137821397Y-97831921D01*
X137640285Y-97906940D01*
X137448017Y-97945185D01*
X137251983Y-97945185D01*
X137059715Y-97906940D01*
X136878603Y-97831921D01*
X136715607Y-97723010D01*
X136576990Y-97584393D01*
X136468079Y-97421397D01*
X136393060Y-97240285D01*
X136354815Y-97048017D01*
X136354815Y-96851983D01*
X136393060Y-96659715D01*
X136468079Y-96478603D01*
X136576990Y-96315607D01*
X136715607Y-96176990D01*
X136878603Y-96068079D01*
X137059715Y-95993060D01*
X137251983Y-95954815D01*
X137448017Y-95954815D01*
X137640285Y-95993060D01*
G37*
G36*
X142140285Y-95993060D02*
G01*
X142321397Y-96068079D01*
X142484393Y-96176990D01*
X142623010Y-96315607D01*
X142731921Y-96478603D01*
X142806940Y-96659715D01*
X142845185Y-96851983D01*
X142845185Y-97048017D01*
X142806940Y-97240285D01*
X142731921Y-97421397D01*
X142623010Y-97584393D01*
X142484393Y-97723010D01*
X142321397Y-97831921D01*
X142140285Y-97906940D01*
X141948017Y-97945185D01*
X141751983Y-97945185D01*
X141559715Y-97906940D01*
X141378603Y-97831921D01*
X141215607Y-97723010D01*
X141076990Y-97584393D01*
X140968079Y-97421397D01*
X140893060Y-97240285D01*
X140854815Y-97048017D01*
X140854815Y-96851983D01*
X140893060Y-96659715D01*
X140968079Y-96478603D01*
X141076990Y-96315607D01*
X141215607Y-96176990D01*
X141378603Y-96068079D01*
X141559715Y-95993060D01*
X141751983Y-95954815D01*
X141948017Y-95954815D01*
X142140285Y-95993060D01*
G37*
G36*
X103815151Y-95187301D02*
G01*
X104016623Y-95252763D01*
X104205373Y-95348936D01*
X104376755Y-95473452D01*
X104526548Y-95623245D01*
X104651064Y-95794627D01*
X104747237Y-95983377D01*
X104812699Y-96184849D01*
X104845838Y-96394080D01*
X104845838Y-96605920D01*
X104812699Y-96815151D01*
X104747237Y-97016623D01*
X104651064Y-97205373D01*
X104526548Y-97376755D01*
X104376755Y-97526548D01*
X104205373Y-97651064D01*
X104016623Y-97747237D01*
X103815151Y-97812699D01*
X103605920Y-97845838D01*
X103394080Y-97845838D01*
X103184849Y-97812699D01*
X102983377Y-97747237D01*
X102794627Y-97651064D01*
X102623245Y-97526548D01*
X102473452Y-97376755D01*
X102348936Y-97205373D01*
X102252763Y-97016623D01*
X102187301Y-96815151D01*
X102154162Y-96605920D01*
X102154162Y-96394080D01*
X102187301Y-96184849D01*
X102252763Y-95983377D01*
X102348936Y-95794627D01*
X102473452Y-95623245D01*
X102623245Y-95473452D01*
X102794627Y-95348936D01*
X102983377Y-95252763D01*
X103184849Y-95187301D01*
X103394080Y-95154162D01*
X103605920Y-95154162D01*
X103815151Y-95187301D01*
G37*
G36*
X161815151Y-95187301D02*
G01*
X162016623Y-95252763D01*
X162205373Y-95348936D01*
X162376755Y-95473452D01*
X162526548Y-95623245D01*
X162651064Y-95794627D01*
X162747237Y-95983377D01*
X162812699Y-96184849D01*
X162845838Y-96394080D01*
X162845838Y-96605920D01*
X162812699Y-96815151D01*
X162747237Y-97016623D01*
X162651064Y-97205373D01*
X162526548Y-97376755D01*
X162376755Y-97526548D01*
X162205373Y-97651064D01*
X162016623Y-97747237D01*
X161815151Y-97812699D01*
X161605920Y-97845838D01*
X161394080Y-97845838D01*
X161184849Y-97812699D01*
X160983377Y-97747237D01*
X160794627Y-97651064D01*
X160623245Y-97526548D01*
X160473452Y-97376755D01*
X160348936Y-97205373D01*
X160252763Y-97016623D01*
X160187301Y-96815151D01*
X160154162Y-96605920D01*
X160154162Y-96394080D01*
X160187301Y-96184849D01*
X160252763Y-95983377D01*
X160348936Y-95794627D01*
X160473452Y-95623245D01*
X160623245Y-95473452D01*
X160794627Y-95348936D01*
X160983377Y-95252763D01*
X161184849Y-95187301D01*
X161394080Y-95154162D01*
X161605920Y-95154162D01*
X161815151Y-95187301D01*
G37*
G36*
X111961256Y-95938754D02*
G01*
X112124257Y-96006271D01*
X112270954Y-96104291D01*
X112395709Y-96229046D01*
X112493729Y-96375743D01*
X112561246Y-96538744D01*
X112595666Y-96711785D01*
X112595666Y-96888215D01*
X112561246Y-97061256D01*
X112493729Y-97224257D01*
X112395709Y-97370954D01*
X112270954Y-97495709D01*
X112124257Y-97593729D01*
X111961256Y-97661246D01*
X111788215Y-97695666D01*
X111611785Y-97695666D01*
X111438744Y-97661246D01*
X111275743Y-97593729D01*
X111129046Y-97495709D01*
X111004291Y-97370954D01*
X110906271Y-97224257D01*
X110838754Y-97061256D01*
X110804334Y-96888215D01*
X110804334Y-96711785D01*
X110838754Y-96538744D01*
X110906271Y-96375743D01*
X111004291Y-96229046D01*
X111129046Y-96104291D01*
X111275743Y-96006271D01*
X111438744Y-95938754D01*
X111611785Y-95904334D01*
X111788215Y-95904334D01*
X111961256Y-95938754D01*
G37*
G36*
X117032228Y-96034448D02*
G01*
X117177117Y-96094463D01*
X117307515Y-96181592D01*
X117418408Y-96292485D01*
X117505537Y-96422883D01*
X117565552Y-96567772D01*
X117596148Y-96721586D01*
X117596148Y-96878414D01*
X117565552Y-97032228D01*
X117505537Y-97177117D01*
X117418408Y-97307515D01*
X117307515Y-97418408D01*
X117177117Y-97505537D01*
X117032228Y-97565552D01*
X116878414Y-97596148D01*
X116721586Y-97596148D01*
X116567772Y-97565552D01*
X116422883Y-97505537D01*
X116292485Y-97418408D01*
X116181592Y-97307515D01*
X116094463Y-97177117D01*
X116034448Y-97032228D01*
X116003852Y-96878414D01*
X116003852Y-96721586D01*
X116034448Y-96567772D01*
X116094463Y-96422883D01*
X116181592Y-96292485D01*
X116292485Y-96181592D01*
X116422883Y-96094463D01*
X116567772Y-96034448D01*
X116721586Y-96003852D01*
X116878414Y-96003852D01*
X117032228Y-96034448D01*
G37*
G36*
X120157228Y-96034448D02*
G01*
X120302117Y-96094463D01*
X120432515Y-96181592D01*
X120543408Y-96292485D01*
X120630537Y-96422883D01*
X120690552Y-96567772D01*
X120721148Y-96721586D01*
X120721148Y-96878414D01*
X120690552Y-97032228D01*
X120630537Y-97177117D01*
X120543408Y-97307515D01*
X120432515Y-97418408D01*
X120302117Y-97505537D01*
X120157228Y-97565552D01*
X120003414Y-97596148D01*
X119846586Y-97596148D01*
X119692772Y-97565552D01*
X119547883Y-97505537D01*
X119417485Y-97418408D01*
X119306592Y-97307515D01*
X119219463Y-97177117D01*
X119159448Y-97032228D01*
X119128852Y-96878414D01*
X119128852Y-96721586D01*
X119159448Y-96567772D01*
X119219463Y-96422883D01*
X119306592Y-96292485D01*
X119417485Y-96181592D01*
X119547883Y-96094463D01*
X119692772Y-96034448D01*
X119846586Y-96003852D01*
X120003414Y-96003852D01*
X120157228Y-96034448D01*
G37*
G36*
X123282228Y-96034448D02*
G01*
X123427117Y-96094463D01*
X123557515Y-96181592D01*
X123668408Y-96292485D01*
X123755537Y-96422883D01*
X123815552Y-96567772D01*
X123846148Y-96721586D01*
X123846148Y-96878414D01*
X123815552Y-97032228D01*
X123755537Y-97177117D01*
X123668408Y-97307515D01*
X123557515Y-97418408D01*
X123427117Y-97505537D01*
X123282228Y-97565552D01*
X123128414Y-97596148D01*
X122971586Y-97596148D01*
X122817772Y-97565552D01*
X122672883Y-97505537D01*
X122542485Y-97418408D01*
X122431592Y-97307515D01*
X122344463Y-97177117D01*
X122284448Y-97032228D01*
X122253852Y-96878414D01*
X122253852Y-96721586D01*
X122284448Y-96567772D01*
X122344463Y-96422883D01*
X122431592Y-96292485D01*
X122542485Y-96181592D01*
X122672883Y-96094463D01*
X122817772Y-96034448D01*
X122971586Y-96003852D01*
X123128414Y-96003852D01*
X123282228Y-96034448D01*
G37*
G36*
X92807403Y-94811418D02*
G01*
X92856066Y-94843934D01*
X92888582Y-94892597D01*
X92900000Y-94950000D01*
X92900000Y-96200000D01*
X92888582Y-96257403D01*
X92856066Y-96306066D01*
X92807403Y-96338582D01*
X92750000Y-96350000D01*
X92450000Y-96350000D01*
X92392597Y-96338582D01*
X92343934Y-96306066D01*
X92311418Y-96257403D01*
X92300000Y-96200000D01*
X92300000Y-94950000D01*
X92311418Y-94892597D01*
X92343934Y-94843934D01*
X92392597Y-94811418D01*
X92450000Y-94800000D01*
X92750000Y-94800000D01*
X92807403Y-94811418D01*
G37*
G36*
X93807403Y-94811418D02*
G01*
X93856066Y-94843934D01*
X93888582Y-94892597D01*
X93900000Y-94950000D01*
X93900000Y-96200000D01*
X93888582Y-96257403D01*
X93856066Y-96306066D01*
X93807403Y-96338582D01*
X93750000Y-96350000D01*
X93450000Y-96350000D01*
X93392597Y-96338582D01*
X93343934Y-96306066D01*
X93311418Y-96257403D01*
X93300000Y-96200000D01*
X93300000Y-94950000D01*
X93311418Y-94892597D01*
X93343934Y-94843934D01*
X93392597Y-94811418D01*
X93450000Y-94800000D01*
X93750000Y-94800000D01*
X93807403Y-94811418D01*
G37*
G36*
X94807403Y-94811418D02*
G01*
X94856066Y-94843934D01*
X94888582Y-94892597D01*
X94900000Y-94950000D01*
X94900000Y-96200000D01*
X94888582Y-96257403D01*
X94856066Y-96306066D01*
X94807403Y-96338582D01*
X94750000Y-96350000D01*
X94450000Y-96350000D01*
X94392597Y-96338582D01*
X94343934Y-96306066D01*
X94311418Y-96257403D01*
X94300000Y-96200000D01*
X94300000Y-94950000D01*
X94311418Y-94892597D01*
X94343934Y-94843934D01*
X94392597Y-94811418D01*
X94450000Y-94800000D01*
X94750000Y-94800000D01*
X94807403Y-94811418D01*
G37*
G36*
X95807403Y-94811418D02*
G01*
X95856066Y-94843934D01*
X95888582Y-94892597D01*
X95900000Y-94950000D01*
X95900000Y-96200000D01*
X95888582Y-96257403D01*
X95856066Y-96306066D01*
X95807403Y-96338582D01*
X95750000Y-96350000D01*
X95450000Y-96350000D01*
X95392597Y-96338582D01*
X95343934Y-96306066D01*
X95311418Y-96257403D01*
X95300000Y-96200000D01*
X95300000Y-94950000D01*
X95311418Y-94892597D01*
X95343934Y-94843934D01*
X95392597Y-94811418D01*
X95450000Y-94800000D01*
X95750000Y-94800000D01*
X95807403Y-94811418D01*
G37*
G36*
X96807403Y-94811418D02*
G01*
X96856066Y-94843934D01*
X96888582Y-94892597D01*
X96900000Y-94950000D01*
X96900000Y-96200000D01*
X96888582Y-96257403D01*
X96856066Y-96306066D01*
X96807403Y-96338582D01*
X96750000Y-96350000D01*
X96450000Y-96350000D01*
X96392597Y-96338582D01*
X96343934Y-96306066D01*
X96311418Y-96257403D01*
X96300000Y-96200000D01*
X96300000Y-94950000D01*
X96311418Y-94892597D01*
X96343934Y-94843934D01*
X96392597Y-94811418D01*
X96450000Y-94800000D01*
X96750000Y-94800000D01*
X96807403Y-94811418D01*
G37*
G36*
X97807403Y-94811418D02*
G01*
X97856066Y-94843934D01*
X97888582Y-94892597D01*
X97900000Y-94950000D01*
X97900000Y-96200000D01*
X97888582Y-96257403D01*
X97856066Y-96306066D01*
X97807403Y-96338582D01*
X97750000Y-96350000D01*
X97450000Y-96350000D01*
X97392597Y-96338582D01*
X97343934Y-96306066D01*
X97311418Y-96257403D01*
X97300000Y-96200000D01*
X97300000Y-94950000D01*
X97311418Y-94892597D01*
X97343934Y-94843934D01*
X97392597Y-94811418D01*
X97450000Y-94800000D01*
X97750000Y-94800000D01*
X97807403Y-94811418D01*
G37*
G36*
X111961256Y-93779754D02*
G01*
X112124257Y-93847271D01*
X112270954Y-93945291D01*
X112395709Y-94070046D01*
X112493729Y-94216743D01*
X112561246Y-94379744D01*
X112595666Y-94552785D01*
X112595666Y-94729215D01*
X112561246Y-94902256D01*
X112493729Y-95065257D01*
X112395709Y-95211954D01*
X112270954Y-95336709D01*
X112124257Y-95434729D01*
X111961256Y-95502246D01*
X111788215Y-95536666D01*
X111611785Y-95536666D01*
X111438744Y-95502246D01*
X111275743Y-95434729D01*
X111129046Y-95336709D01*
X111004291Y-95211954D01*
X110906271Y-95065257D01*
X110838754Y-94902256D01*
X110804334Y-94729215D01*
X110804334Y-94552785D01*
X110838754Y-94379744D01*
X110906271Y-94216743D01*
X111004291Y-94070046D01*
X111129046Y-93945291D01*
X111275743Y-93847271D01*
X111438744Y-93779754D01*
X111611785Y-93745334D01*
X111788215Y-93745334D01*
X111961256Y-93779754D01*
G37*
G36*
X111961256Y-91620754D02*
G01*
X112124257Y-91688271D01*
X112270954Y-91786291D01*
X112395709Y-91911046D01*
X112493729Y-92057743D01*
X112561246Y-92220744D01*
X112595666Y-92393785D01*
X112595666Y-92570215D01*
X112561246Y-92743256D01*
X112493729Y-92906257D01*
X112395709Y-93052954D01*
X112270954Y-93177709D01*
X112124257Y-93275729D01*
X111961256Y-93343246D01*
X111788215Y-93377666D01*
X111611785Y-93377666D01*
X111438744Y-93343246D01*
X111275743Y-93275729D01*
X111129046Y-93177709D01*
X111004291Y-93052954D01*
X110906271Y-92906257D01*
X110838754Y-92743256D01*
X110804334Y-92570215D01*
X110804334Y-92393785D01*
X110838754Y-92220744D01*
X110906271Y-92057743D01*
X111004291Y-91911046D01*
X111129046Y-91786291D01*
X111275743Y-91688271D01*
X111438744Y-91620754D01*
X111611785Y-91586334D01*
X111788215Y-91586334D01*
X111961256Y-91620754D01*
G37*
G36*
X76925000Y-92065000D02*
G01*
X75225000Y-92065000D01*
X75225000Y-90365000D01*
X76925000Y-90365000D01*
X76925000Y-92065000D01*
G37*
G36*
X73781742Y-90401601D02*
G01*
X73935687Y-90465367D01*
X74074234Y-90557941D01*
X74192059Y-90675766D01*
X74284633Y-90814313D01*
X74348399Y-90968258D01*
X74380907Y-91131685D01*
X74380907Y-91298315D01*
X74348399Y-91461742D01*
X74284633Y-91615687D01*
X74192059Y-91754234D01*
X74074234Y-91872059D01*
X73935687Y-91964633D01*
X73781742Y-92028399D01*
X73618315Y-92060907D01*
X73451685Y-92060907D01*
X73288258Y-92028399D01*
X73134313Y-91964633D01*
X72995766Y-91872059D01*
X72877941Y-91754234D01*
X72785367Y-91615687D01*
X72721601Y-91461742D01*
X72689093Y-91298315D01*
X72689093Y-91131685D01*
X72721601Y-90968258D01*
X72785367Y-90814313D01*
X72877941Y-90675766D01*
X72995766Y-90557941D01*
X73134313Y-90465367D01*
X73288258Y-90401601D01*
X73451685Y-90369093D01*
X73618315Y-90369093D01*
X73781742Y-90401601D01*
G37*
G36*
X128040285Y-89493060D02*
G01*
X128221397Y-89568079D01*
X128384393Y-89676990D01*
X128523010Y-89815607D01*
X128631921Y-89978603D01*
X128706940Y-90159715D01*
X128745185Y-90351983D01*
X128745185Y-90548017D01*
X128706940Y-90740285D01*
X128631921Y-90921397D01*
X128523010Y-91084393D01*
X128384393Y-91223010D01*
X128221397Y-91331921D01*
X128040285Y-91406940D01*
X127848017Y-91445185D01*
X127651983Y-91445185D01*
X127459715Y-91406940D01*
X127278603Y-91331921D01*
X127115607Y-91223010D01*
X126976990Y-91084393D01*
X126868079Y-90921397D01*
X126793060Y-90740285D01*
X126754815Y-90548017D01*
X126754815Y-90351983D01*
X126793060Y-90159715D01*
X126868079Y-89978603D01*
X126976990Y-89815607D01*
X127115607Y-89676990D01*
X127278603Y-89568079D01*
X127459715Y-89493060D01*
X127651983Y-89454815D01*
X127848017Y-89454815D01*
X128040285Y-89493060D01*
G37*
G36*
X132540285Y-89493060D02*
G01*
X132721397Y-89568079D01*
X132884393Y-89676990D01*
X133023010Y-89815607D01*
X133131921Y-89978603D01*
X133206940Y-90159715D01*
X133245185Y-90351983D01*
X133245185Y-90548017D01*
X133206940Y-90740285D01*
X133131921Y-90921397D01*
X133023010Y-91084393D01*
X132884393Y-91223010D01*
X132721397Y-91331921D01*
X132540285Y-91406940D01*
X132348017Y-91445185D01*
X132151983Y-91445185D01*
X131959715Y-91406940D01*
X131778603Y-91331921D01*
X131615607Y-91223010D01*
X131476990Y-91084393D01*
X131368079Y-90921397D01*
X131293060Y-90740285D01*
X131254815Y-90548017D01*
X131254815Y-90351983D01*
X131293060Y-90159715D01*
X131368079Y-89978603D01*
X131476990Y-89815607D01*
X131615607Y-89676990D01*
X131778603Y-89568079D01*
X131959715Y-89493060D01*
X132151983Y-89454815D01*
X132348017Y-89454815D01*
X132540285Y-89493060D01*
G37*
G36*
X137640285Y-89493060D02*
G01*
X137821397Y-89568079D01*
X137984393Y-89676990D01*
X138123010Y-89815607D01*
X138231921Y-89978603D01*
X138306940Y-90159715D01*
X138345185Y-90351983D01*
X138345185Y-90548017D01*
X138306940Y-90740285D01*
X138231921Y-90921397D01*
X138123010Y-91084393D01*
X137984393Y-91223010D01*
X137821397Y-91331921D01*
X137640285Y-91406940D01*
X137448017Y-91445185D01*
X137251983Y-91445185D01*
X137059715Y-91406940D01*
X136878603Y-91331921D01*
X136715607Y-91223010D01*
X136576990Y-91084393D01*
X136468079Y-90921397D01*
X136393060Y-90740285D01*
X136354815Y-90548017D01*
X136354815Y-90351983D01*
X136393060Y-90159715D01*
X136468079Y-89978603D01*
X136576990Y-89815607D01*
X136715607Y-89676990D01*
X136878603Y-89568079D01*
X137059715Y-89493060D01*
X137251983Y-89454815D01*
X137448017Y-89454815D01*
X137640285Y-89493060D01*
G37*
G36*
X142140285Y-89493060D02*
G01*
X142321397Y-89568079D01*
X142484393Y-89676990D01*
X142623010Y-89815607D01*
X142731921Y-89978603D01*
X142806940Y-90159715D01*
X142845185Y-90351983D01*
X142845185Y-90548017D01*
X142806940Y-90740285D01*
X142731921Y-90921397D01*
X142623010Y-91084393D01*
X142484393Y-91223010D01*
X142321397Y-91331921D01*
X142140285Y-91406940D01*
X141948017Y-91445185D01*
X141751983Y-91445185D01*
X141559715Y-91406940D01*
X141378603Y-91331921D01*
X141215607Y-91223010D01*
X141076990Y-91084393D01*
X140968079Y-90921397D01*
X140893060Y-90740285D01*
X140854815Y-90548017D01*
X140854815Y-90351983D01*
X140893060Y-90159715D01*
X140968079Y-89978603D01*
X141076990Y-89815607D01*
X141215607Y-89676990D01*
X141378603Y-89568079D01*
X141559715Y-89493060D01*
X141751983Y-89454815D01*
X141948017Y-89454815D01*
X142140285Y-89493060D01*
G37*
G36*
X145621742Y-89651601D02*
G01*
X145775687Y-89715367D01*
X145914234Y-89807941D01*
X146032059Y-89925766D01*
X146124633Y-90064313D01*
X146188399Y-90218258D01*
X146220907Y-90381685D01*
X146220907Y-90548315D01*
X146188399Y-90711742D01*
X146124633Y-90865687D01*
X146032059Y-91004234D01*
X145914234Y-91122059D01*
X145775687Y-91214633D01*
X145621742Y-91278399D01*
X145458315Y-91310907D01*
X145291685Y-91310907D01*
X145128258Y-91278399D01*
X144974313Y-91214633D01*
X144835766Y-91122059D01*
X144717941Y-91004234D01*
X144625367Y-90865687D01*
X144561601Y-90711742D01*
X144529093Y-90548315D01*
X144529093Y-90381685D01*
X144561601Y-90218258D01*
X144625367Y-90064313D01*
X144717941Y-89925766D01*
X144835766Y-89807941D01*
X144974313Y-89715367D01*
X145128258Y-89651601D01*
X145291685Y-89619093D01*
X145458315Y-89619093D01*
X145621742Y-89651601D01*
G37*
G36*
X161146742Y-89651601D02*
G01*
X161300687Y-89715367D01*
X161439234Y-89807941D01*
X161557059Y-89925766D01*
X161649633Y-90064313D01*
X161713399Y-90218258D01*
X161745907Y-90381685D01*
X161745907Y-90548315D01*
X161713399Y-90711742D01*
X161649633Y-90865687D01*
X161557059Y-91004234D01*
X161439234Y-91122059D01*
X161300687Y-91214633D01*
X161146742Y-91278399D01*
X160983315Y-91310907D01*
X160816685Y-91310907D01*
X160653258Y-91278399D01*
X160499313Y-91214633D01*
X160360766Y-91122059D01*
X160242941Y-91004234D01*
X160150367Y-90865687D01*
X160086601Y-90711742D01*
X160054093Y-90548315D01*
X160054093Y-90381685D01*
X160086601Y-90218258D01*
X160150367Y-90064313D01*
X160242941Y-89925766D01*
X160360766Y-89807941D01*
X160499313Y-89715367D01*
X160653258Y-89651601D01*
X160816685Y-89619093D01*
X160983315Y-89619093D01*
X161146742Y-89651601D01*
G37*
G36*
X112600000Y-91223000D02*
G01*
X110800000Y-91223000D01*
X110800000Y-89423000D01*
X112600000Y-89423000D01*
X112600000Y-91223000D01*
G37*
G36*
X146225000Y-88775000D02*
G01*
X144525000Y-88775000D01*
X144525000Y-87075000D01*
X146225000Y-87075000D01*
X146225000Y-88775000D01*
G37*
G36*
X161750000Y-88775000D02*
G01*
X160050000Y-88775000D01*
X160050000Y-87075000D01*
X161750000Y-87075000D01*
X161750000Y-88775000D01*
G37*
G36*
X129554116Y-86550818D02*
G01*
X129605379Y-86556766D01*
X129622892Y-86564499D01*
X129645671Y-86569030D01*
X129670057Y-86585324D01*
X129690788Y-86594478D01*
X129704946Y-86608636D01*
X129726777Y-86623223D01*
X129741363Y-86645053D01*
X129755521Y-86659211D01*
X129764673Y-86679939D01*
X129780970Y-86704329D01*
X129785501Y-86727109D01*
X129793233Y-86744620D01*
X129799178Y-86795872D01*
X129800000Y-86800000D01*
X129800000Y-88050000D01*
X129799178Y-88054128D01*
X129793233Y-88105379D01*
X129785501Y-88122888D01*
X129780970Y-88145671D01*
X129764672Y-88170062D01*
X129755521Y-88190788D01*
X129741365Y-88204943D01*
X129726777Y-88226777D01*
X129704943Y-88241365D01*
X129690788Y-88255521D01*
X129670062Y-88264672D01*
X129645671Y-88280970D01*
X129622888Y-88285501D01*
X129605379Y-88293233D01*
X129554129Y-88299178D01*
X129550000Y-88300000D01*
X128750000Y-88300000D01*
X128745873Y-88299179D01*
X128694620Y-88293233D01*
X128677109Y-88285501D01*
X128654329Y-88280970D01*
X128629939Y-88264673D01*
X128609211Y-88255521D01*
X128595053Y-88241363D01*
X128573223Y-88226777D01*
X128558636Y-88204946D01*
X128544478Y-88190788D01*
X128535324Y-88170057D01*
X128519030Y-88145671D01*
X128514499Y-88122892D01*
X128506766Y-88105379D01*
X128500818Y-88054117D01*
X128500000Y-88050000D01*
X128500000Y-86800000D01*
X128500818Y-86795885D01*
X128506766Y-86744620D01*
X128514499Y-86727105D01*
X128519030Y-86704329D01*
X128535323Y-86679944D01*
X128544478Y-86659211D01*
X128558638Y-86645050D01*
X128573223Y-86623223D01*
X128595050Y-86608638D01*
X128609211Y-86594478D01*
X128629944Y-86585323D01*
X128654329Y-86569030D01*
X128677105Y-86564499D01*
X128694620Y-86556766D01*
X128745884Y-86550818D01*
X128750000Y-86550000D01*
X129550000Y-86550000D01*
X129554116Y-86550818D01*
G37*
G36*
X132654116Y-86550818D02*
G01*
X132705379Y-86556766D01*
X132722892Y-86564499D01*
X132745671Y-86569030D01*
X132770057Y-86585324D01*
X132790788Y-86594478D01*
X132804946Y-86608636D01*
X132826777Y-86623223D01*
X132841363Y-86645053D01*
X132855521Y-86659211D01*
X132864673Y-86679939D01*
X132880970Y-86704329D01*
X132885501Y-86727109D01*
X132893233Y-86744620D01*
X132899178Y-86795872D01*
X132900000Y-86800000D01*
X132900000Y-88050000D01*
X132899178Y-88054128D01*
X132893233Y-88105379D01*
X132885501Y-88122888D01*
X132880970Y-88145671D01*
X132864672Y-88170062D01*
X132855521Y-88190788D01*
X132841365Y-88204943D01*
X132826777Y-88226777D01*
X132804943Y-88241365D01*
X132790788Y-88255521D01*
X132770062Y-88264672D01*
X132745671Y-88280970D01*
X132722888Y-88285501D01*
X132705379Y-88293233D01*
X132654129Y-88299178D01*
X132650000Y-88300000D01*
X131850000Y-88300000D01*
X131845873Y-88299179D01*
X131794620Y-88293233D01*
X131777109Y-88285501D01*
X131754329Y-88280970D01*
X131729939Y-88264673D01*
X131709211Y-88255521D01*
X131695053Y-88241363D01*
X131673223Y-88226777D01*
X131658636Y-88204946D01*
X131644478Y-88190788D01*
X131635324Y-88170057D01*
X131619030Y-88145671D01*
X131614499Y-88122892D01*
X131606766Y-88105379D01*
X131600818Y-88054117D01*
X131600000Y-88050000D01*
X131600000Y-86800000D01*
X131600818Y-86795885D01*
X131606766Y-86744620D01*
X131614499Y-86727105D01*
X131619030Y-86704329D01*
X131635323Y-86679944D01*
X131644478Y-86659211D01*
X131658638Y-86645050D01*
X131673223Y-86623223D01*
X131695050Y-86608638D01*
X131709211Y-86594478D01*
X131729944Y-86585323D01*
X131754329Y-86569030D01*
X131777105Y-86564499D01*
X131794620Y-86556766D01*
X131845884Y-86550818D01*
X131850000Y-86550000D01*
X132650000Y-86550000D01*
X132654116Y-86550818D01*
G37*
G36*
X137729116Y-86550818D02*
G01*
X137780379Y-86556766D01*
X137797892Y-86564499D01*
X137820671Y-86569030D01*
X137845057Y-86585324D01*
X137865788Y-86594478D01*
X137879946Y-86608636D01*
X137901777Y-86623223D01*
X137916363Y-86645053D01*
X137930521Y-86659211D01*
X137939673Y-86679939D01*
X137955970Y-86704329D01*
X137960501Y-86727109D01*
X137968233Y-86744620D01*
X137974178Y-86795872D01*
X137975000Y-86800000D01*
X137975000Y-88050000D01*
X137974178Y-88054128D01*
X137968233Y-88105379D01*
X137960501Y-88122888D01*
X137955970Y-88145671D01*
X137939672Y-88170062D01*
X137930521Y-88190788D01*
X137916365Y-88204943D01*
X137901777Y-88226777D01*
X137879943Y-88241365D01*
X137865788Y-88255521D01*
X137845062Y-88264672D01*
X137820671Y-88280970D01*
X137797888Y-88285501D01*
X137780379Y-88293233D01*
X137729129Y-88299178D01*
X137725000Y-88300000D01*
X136925000Y-88300000D01*
X136920873Y-88299179D01*
X136869620Y-88293233D01*
X136852109Y-88285501D01*
X136829329Y-88280970D01*
X136804939Y-88264673D01*
X136784211Y-88255521D01*
X136770053Y-88241363D01*
X136748223Y-88226777D01*
X136733636Y-88204946D01*
X136719478Y-88190788D01*
X136710324Y-88170057D01*
X136694030Y-88145671D01*
X136689499Y-88122892D01*
X136681766Y-88105379D01*
X136675818Y-88054117D01*
X136675000Y-88050000D01*
X136675000Y-86800000D01*
X136675818Y-86795885D01*
X136681766Y-86744620D01*
X136689499Y-86727105D01*
X136694030Y-86704329D01*
X136710323Y-86679944D01*
X136719478Y-86659211D01*
X136733638Y-86645050D01*
X136748223Y-86623223D01*
X136770050Y-86608638D01*
X136784211Y-86594478D01*
X136804944Y-86585323D01*
X136829329Y-86569030D01*
X136852105Y-86564499D01*
X136869620Y-86556766D01*
X136920884Y-86550818D01*
X136925000Y-86550000D01*
X137725000Y-86550000D01*
X137729116Y-86550818D01*
G37*
G36*
X140829116Y-86550818D02*
G01*
X140880379Y-86556766D01*
X140897892Y-86564499D01*
X140920671Y-86569030D01*
X140945057Y-86585324D01*
X140965788Y-86594478D01*
X140979946Y-86608636D01*
X141001777Y-86623223D01*
X141016363Y-86645053D01*
X141030521Y-86659211D01*
X141039673Y-86679939D01*
X141055970Y-86704329D01*
X141060501Y-86727109D01*
X141068233Y-86744620D01*
X141074178Y-86795872D01*
X141075000Y-86800000D01*
X141075000Y-88050000D01*
X141074178Y-88054128D01*
X141068233Y-88105379D01*
X141060501Y-88122888D01*
X141055970Y-88145671D01*
X141039672Y-88170062D01*
X141030521Y-88190788D01*
X141016365Y-88204943D01*
X141001777Y-88226777D01*
X140979943Y-88241365D01*
X140965788Y-88255521D01*
X140945062Y-88264672D01*
X140920671Y-88280970D01*
X140897888Y-88285501D01*
X140880379Y-88293233D01*
X140829129Y-88299178D01*
X140825000Y-88300000D01*
X140025000Y-88300000D01*
X140020873Y-88299179D01*
X139969620Y-88293233D01*
X139952109Y-88285501D01*
X139929329Y-88280970D01*
X139904939Y-88264673D01*
X139884211Y-88255521D01*
X139870053Y-88241363D01*
X139848223Y-88226777D01*
X139833636Y-88204946D01*
X139819478Y-88190788D01*
X139810324Y-88170057D01*
X139794030Y-88145671D01*
X139789499Y-88122892D01*
X139781766Y-88105379D01*
X139775818Y-88054117D01*
X139775000Y-88050000D01*
X139775000Y-86800000D01*
X139775818Y-86795885D01*
X139781766Y-86744620D01*
X139789499Y-86727105D01*
X139794030Y-86704329D01*
X139810323Y-86679944D01*
X139819478Y-86659211D01*
X139833638Y-86645050D01*
X139848223Y-86623223D01*
X139870050Y-86608638D01*
X139884211Y-86594478D01*
X139904944Y-86585323D01*
X139929329Y-86569030D01*
X139952105Y-86564499D01*
X139969620Y-86556766D01*
X140020884Y-86550818D01*
X140025000Y-86550000D01*
X140825000Y-86550000D01*
X140829116Y-86550818D01*
G37*
G36*
X117032228Y-85874448D02*
G01*
X117177117Y-85934463D01*
X117307515Y-86021592D01*
X117418408Y-86132485D01*
X117505537Y-86262883D01*
X117565552Y-86407772D01*
X117596148Y-86561586D01*
X117596148Y-86718414D01*
X117565552Y-86872228D01*
X117505537Y-87017117D01*
X117418408Y-87147515D01*
X117307515Y-87258408D01*
X117177117Y-87345537D01*
X117032228Y-87405552D01*
X116878414Y-87436148D01*
X116721586Y-87436148D01*
X116567772Y-87405552D01*
X116422883Y-87345537D01*
X116292485Y-87258408D01*
X116181592Y-87147515D01*
X116094463Y-87017117D01*
X116034448Y-86872228D01*
X116003852Y-86718414D01*
X116003852Y-86561586D01*
X116034448Y-86407772D01*
X116094463Y-86262883D01*
X116181592Y-86132485D01*
X116292485Y-86021592D01*
X116422883Y-85934463D01*
X116567772Y-85874448D01*
X116721586Y-85843852D01*
X116878414Y-85843852D01*
X117032228Y-85874448D01*
G37*
G36*
X120157228Y-85874448D02*
G01*
X120302117Y-85934463D01*
X120432515Y-86021592D01*
X120543408Y-86132485D01*
X120630537Y-86262883D01*
X120690552Y-86407772D01*
X120721148Y-86561586D01*
X120721148Y-86718414D01*
X120690552Y-86872228D01*
X120630537Y-87017117D01*
X120543408Y-87147515D01*
X120432515Y-87258408D01*
X120302117Y-87345537D01*
X120157228Y-87405552D01*
X120003414Y-87436148D01*
X119846586Y-87436148D01*
X119692772Y-87405552D01*
X119547883Y-87345537D01*
X119417485Y-87258408D01*
X119306592Y-87147515D01*
X119219463Y-87017117D01*
X119159448Y-86872228D01*
X119128852Y-86718414D01*
X119128852Y-86561586D01*
X119159448Y-86407772D01*
X119219463Y-86262883D01*
X119306592Y-86132485D01*
X119417485Y-86021592D01*
X119547883Y-85934463D01*
X119692772Y-85874448D01*
X119846586Y-85843852D01*
X120003414Y-85843852D01*
X120157228Y-85874448D01*
G37*
G36*
X123282228Y-85874448D02*
G01*
X123427117Y-85934463D01*
X123557515Y-86021592D01*
X123668408Y-86132485D01*
X123755537Y-86262883D01*
X123815552Y-86407772D01*
X123846148Y-86561586D01*
X123846148Y-86718414D01*
X123815552Y-86872228D01*
X123755537Y-87017117D01*
X123668408Y-87147515D01*
X123557515Y-87258408D01*
X123427117Y-87345537D01*
X123282228Y-87405552D01*
X123128414Y-87436148D01*
X122971586Y-87436148D01*
X122817772Y-87405552D01*
X122672883Y-87345537D01*
X122542485Y-87258408D01*
X122431592Y-87147515D01*
X122344463Y-87017117D01*
X122284448Y-86872228D01*
X122253852Y-86718414D01*
X122253852Y-86561586D01*
X122284448Y-86407772D01*
X122344463Y-86262883D01*
X122431592Y-86132485D01*
X122542485Y-86021592D01*
X122672883Y-85934463D01*
X122817772Y-85874448D01*
X122971586Y-85843852D01*
X123128414Y-85843852D01*
X123282228Y-85874448D01*
G37*
G36*
X130516616Y-83400818D02*
G01*
X130567879Y-83406766D01*
X130585392Y-83414499D01*
X130608171Y-83419030D01*
X130632557Y-83435324D01*
X130653288Y-83444478D01*
X130667446Y-83458636D01*
X130689277Y-83473223D01*
X130703863Y-83495053D01*
X130718021Y-83509211D01*
X130727173Y-83529939D01*
X130743470Y-83554329D01*
X130748001Y-83577109D01*
X130755733Y-83594620D01*
X130761678Y-83645872D01*
X130762500Y-83650000D01*
X130762500Y-84600000D01*
X130761678Y-84604128D01*
X130755733Y-84655379D01*
X130748001Y-84672888D01*
X130743470Y-84695671D01*
X130727172Y-84720062D01*
X130718021Y-84740788D01*
X130703865Y-84754943D01*
X130689277Y-84776777D01*
X130667443Y-84791365D01*
X130653288Y-84805521D01*
X130632562Y-84814672D01*
X130608171Y-84830970D01*
X130585388Y-84835501D01*
X130567879Y-84843233D01*
X130516629Y-84849178D01*
X130512500Y-84850000D01*
X129837500Y-84850000D01*
X129833373Y-84849179D01*
X129782120Y-84843233D01*
X129764609Y-84835501D01*
X129741829Y-84830970D01*
X129717439Y-84814673D01*
X129696711Y-84805521D01*
X129682553Y-84791363D01*
X129660723Y-84776777D01*
X129646136Y-84754946D01*
X129631978Y-84740788D01*
X129622824Y-84720057D01*
X129606530Y-84695671D01*
X129601999Y-84672892D01*
X129594266Y-84655379D01*
X129588318Y-84604117D01*
X129587500Y-84600000D01*
X129587500Y-83650000D01*
X129588318Y-83645885D01*
X129594266Y-83594620D01*
X129601999Y-83577105D01*
X129606530Y-83554329D01*
X129622823Y-83529944D01*
X129631978Y-83509211D01*
X129646138Y-83495050D01*
X129660723Y-83473223D01*
X129682550Y-83458638D01*
X129696711Y-83444478D01*
X129717444Y-83435323D01*
X129741829Y-83419030D01*
X129764605Y-83414499D01*
X129782120Y-83406766D01*
X129833384Y-83400818D01*
X129837500Y-83400000D01*
X130512500Y-83400000D01*
X130516616Y-83400818D01*
G37*
G36*
X132591616Y-83400818D02*
G01*
X132642879Y-83406766D01*
X132660392Y-83414499D01*
X132683171Y-83419030D01*
X132707557Y-83435324D01*
X132728288Y-83444478D01*
X132742446Y-83458636D01*
X132764277Y-83473223D01*
X132778863Y-83495053D01*
X132793021Y-83509211D01*
X132802173Y-83529939D01*
X132818470Y-83554329D01*
X132823001Y-83577109D01*
X132830733Y-83594620D01*
X132836678Y-83645872D01*
X132837500Y-83650000D01*
X132837500Y-84600000D01*
X132836678Y-84604128D01*
X132830733Y-84655379D01*
X132823001Y-84672888D01*
X132818470Y-84695671D01*
X132802172Y-84720062D01*
X132793021Y-84740788D01*
X132778865Y-84754943D01*
X132764277Y-84776777D01*
X132742443Y-84791365D01*
X132728288Y-84805521D01*
X132707562Y-84814672D01*
X132683171Y-84830970D01*
X132660388Y-84835501D01*
X132642879Y-84843233D01*
X132591629Y-84849178D01*
X132587500Y-84850000D01*
X131912500Y-84850000D01*
X131908373Y-84849179D01*
X131857120Y-84843233D01*
X131839609Y-84835501D01*
X131816829Y-84830970D01*
X131792439Y-84814673D01*
X131771711Y-84805521D01*
X131757553Y-84791363D01*
X131735723Y-84776777D01*
X131721136Y-84754946D01*
X131706978Y-84740788D01*
X131697824Y-84720057D01*
X131681530Y-84695671D01*
X131676999Y-84672892D01*
X131669266Y-84655379D01*
X131663318Y-84604117D01*
X131662500Y-84600000D01*
X131662500Y-83650000D01*
X131663318Y-83645885D01*
X131669266Y-83594620D01*
X131676999Y-83577105D01*
X131681530Y-83554329D01*
X131697823Y-83529944D01*
X131706978Y-83509211D01*
X131721138Y-83495050D01*
X131735723Y-83473223D01*
X131757550Y-83458638D01*
X131771711Y-83444478D01*
X131792444Y-83435323D01*
X131816829Y-83419030D01*
X131839605Y-83414499D01*
X131857120Y-83406766D01*
X131908384Y-83400818D01*
X131912500Y-83400000D01*
X132587500Y-83400000D01*
X132591616Y-83400818D01*
G37*
G36*
X137666616Y-83400818D02*
G01*
X137717879Y-83406766D01*
X137735392Y-83414499D01*
X137758171Y-83419030D01*
X137782557Y-83435324D01*
X137803288Y-83444478D01*
X137817446Y-83458636D01*
X137839277Y-83473223D01*
X137853863Y-83495053D01*
X137868021Y-83509211D01*
X137877173Y-83529939D01*
X137893470Y-83554329D01*
X137898001Y-83577109D01*
X137905733Y-83594620D01*
X137911678Y-83645872D01*
X137912500Y-83650000D01*
X137912500Y-84600000D01*
X137911678Y-84604128D01*
X137905733Y-84655379D01*
X137898001Y-84672888D01*
X137893470Y-84695671D01*
X137877172Y-84720062D01*
X137868021Y-84740788D01*
X137853865Y-84754943D01*
X137839277Y-84776777D01*
X137817443Y-84791365D01*
X137803288Y-84805521D01*
X137782562Y-84814672D01*
X137758171Y-84830970D01*
X137735388Y-84835501D01*
X137717879Y-84843233D01*
X137666629Y-84849178D01*
X137662500Y-84850000D01*
X136987500Y-84850000D01*
X136983373Y-84849179D01*
X136932120Y-84843233D01*
X136914609Y-84835501D01*
X136891829Y-84830970D01*
X136867439Y-84814673D01*
X136846711Y-84805521D01*
X136832553Y-84791363D01*
X136810723Y-84776777D01*
X136796136Y-84754946D01*
X136781978Y-84740788D01*
X136772824Y-84720057D01*
X136756530Y-84695671D01*
X136751999Y-84672892D01*
X136744266Y-84655379D01*
X136738318Y-84604117D01*
X136737500Y-84600000D01*
X136737500Y-83650000D01*
X136738318Y-83645885D01*
X136744266Y-83594620D01*
X136751999Y-83577105D01*
X136756530Y-83554329D01*
X136772823Y-83529944D01*
X136781978Y-83509211D01*
X136796138Y-83495050D01*
X136810723Y-83473223D01*
X136832550Y-83458638D01*
X136846711Y-83444478D01*
X136867444Y-83435323D01*
X136891829Y-83419030D01*
X136914605Y-83414499D01*
X136932120Y-83406766D01*
X136983384Y-83400818D01*
X136987500Y-83400000D01*
X137662500Y-83400000D01*
X137666616Y-83400818D01*
G37*
G36*
X139741616Y-83400818D02*
G01*
X139792879Y-83406766D01*
X139810392Y-83414499D01*
X139833171Y-83419030D01*
X139857557Y-83435324D01*
X139878288Y-83444478D01*
X139892446Y-83458636D01*
X139914277Y-83473223D01*
X139928863Y-83495053D01*
X139943021Y-83509211D01*
X139952173Y-83529939D01*
X139968470Y-83554329D01*
X139973001Y-83577109D01*
X139980733Y-83594620D01*
X139986678Y-83645872D01*
X139987500Y-83650000D01*
X139987500Y-84600000D01*
X139986678Y-84604128D01*
X139980733Y-84655379D01*
X139973001Y-84672888D01*
X139968470Y-84695671D01*
X139952172Y-84720062D01*
X139943021Y-84740788D01*
X139928865Y-84754943D01*
X139914277Y-84776777D01*
X139892443Y-84791365D01*
X139878288Y-84805521D01*
X139857562Y-84814672D01*
X139833171Y-84830970D01*
X139810388Y-84835501D01*
X139792879Y-84843233D01*
X139741629Y-84849178D01*
X139737500Y-84850000D01*
X139062500Y-84850000D01*
X139058373Y-84849179D01*
X139007120Y-84843233D01*
X138989609Y-84835501D01*
X138966829Y-84830970D01*
X138942439Y-84814673D01*
X138921711Y-84805521D01*
X138907553Y-84791363D01*
X138885723Y-84776777D01*
X138871136Y-84754946D01*
X138856978Y-84740788D01*
X138847824Y-84720057D01*
X138831530Y-84695671D01*
X138826999Y-84672892D01*
X138819266Y-84655379D01*
X138813318Y-84604117D01*
X138812500Y-84600000D01*
X138812500Y-83650000D01*
X138813318Y-83645885D01*
X138819266Y-83594620D01*
X138826999Y-83577105D01*
X138831530Y-83554329D01*
X138847823Y-83529944D01*
X138856978Y-83509211D01*
X138871138Y-83495050D01*
X138885723Y-83473223D01*
X138907550Y-83458638D01*
X138921711Y-83444478D01*
X138942444Y-83435323D01*
X138966829Y-83419030D01*
X138989605Y-83414499D01*
X139007120Y-83406766D01*
X139058384Y-83400818D01*
X139062500Y-83400000D01*
X139737500Y-83400000D01*
X139741616Y-83400818D01*
G37*
G36*
X81519034Y-79165764D02*
G01*
X81552125Y-79187875D01*
X81574236Y-79220966D01*
X81582000Y-79260000D01*
X81582000Y-80820000D01*
X81574236Y-80859034D01*
X81552125Y-80892125D01*
X81519034Y-80914236D01*
X81480000Y-80922000D01*
X79920000Y-80922000D01*
X79880966Y-80914236D01*
X79847875Y-80892125D01*
X79825764Y-80859034D01*
X79818000Y-80820000D01*
X79818000Y-79260000D01*
X79825764Y-79220966D01*
X79847875Y-79187875D01*
X79880966Y-79165764D01*
X79920000Y-79158000D01*
X81480000Y-79158000D01*
X81519034Y-79165764D01*
G37*
G36*
X94219034Y-79165764D02*
G01*
X94252125Y-79187875D01*
X94274236Y-79220966D01*
X94282000Y-79260000D01*
X94282000Y-80820000D01*
X94274236Y-80859034D01*
X94252125Y-80892125D01*
X94219034Y-80914236D01*
X94180000Y-80922000D01*
X92620000Y-80922000D01*
X92580966Y-80914236D01*
X92547875Y-80892125D01*
X92525764Y-80859034D01*
X92518000Y-80820000D01*
X92518000Y-79260000D01*
X92525764Y-79220966D01*
X92547875Y-79187875D01*
X92580966Y-79165764D01*
X92620000Y-79158000D01*
X94180000Y-79158000D01*
X94219034Y-79165764D01*
G37*
G36*
X118298536Y-79276464D02*
G01*
X118300915Y-79278843D01*
X118329015Y-79278843D01*
X118334018Y-79278843D01*
X118335931Y-79279224D01*
X118340549Y-79281137D01*
X118340554Y-79281138D01*
X118403404Y-79307171D01*
X118403408Y-79307173D01*
X118408027Y-79309087D01*
X118409650Y-79310170D01*
X118464830Y-79365350D01*
X118465913Y-79366973D01*
X118467826Y-79371592D01*
X118467828Y-79371595D01*
X118469105Y-79374679D01*
X118495776Y-79439069D01*
X118496157Y-79440982D01*
X118496157Y-79474085D01*
X118498536Y-79476464D01*
X118500000Y-79480000D01*
X118500000Y-80080000D01*
X118498536Y-80083536D01*
X118496148Y-80084524D01*
X118496148Y-80158414D01*
X118496052Y-80159389D01*
X118465456Y-80313203D01*
X118465171Y-80314141D01*
X118464217Y-80316443D01*
X118464215Y-80316451D01*
X118406115Y-80456717D01*
X118406110Y-80456724D01*
X118405156Y-80459030D01*
X118404694Y-80459895D01*
X118317565Y-80590293D01*
X118316944Y-80591051D01*
X118206051Y-80701944D01*
X118205293Y-80702565D01*
X118074895Y-80789694D01*
X118074030Y-80790156D01*
X118071724Y-80791110D01*
X118071717Y-80791115D01*
X117931451Y-80849215D01*
X117931443Y-80849217D01*
X117929141Y-80850171D01*
X117928203Y-80850456D01*
X117774389Y-80881052D01*
X117773414Y-80881148D01*
X117770924Y-80881148D01*
X117619076Y-80881148D01*
X117616586Y-80881148D01*
X117615611Y-80881052D01*
X117461797Y-80850456D01*
X117460859Y-80850171D01*
X117458559Y-80849218D01*
X117458548Y-80849215D01*
X117318282Y-80791115D01*
X117318270Y-80791109D01*
X117315970Y-80790156D01*
X117315105Y-80789694D01*
X117279463Y-80765879D01*
X117186785Y-80703954D01*
X117186781Y-80703951D01*
X117184707Y-80702565D01*
X117183949Y-80701944D01*
X117073056Y-80591051D01*
X117072435Y-80590293D01*
X117071049Y-80588219D01*
X117071045Y-80588214D01*
X116986695Y-80461974D01*
X116986694Y-80461972D01*
X116985306Y-80459895D01*
X116984844Y-80459030D01*
X116983892Y-80456732D01*
X116983884Y-80456717D01*
X116925784Y-80316451D01*
X116925778Y-80316434D01*
X116924829Y-80314141D01*
X116924544Y-80313203D01*
X116917927Y-80279942D01*
X116894433Y-80161830D01*
X116894432Y-80161824D01*
X116893948Y-80159389D01*
X116893852Y-80158414D01*
X116893852Y-80084524D01*
X116891464Y-80083536D01*
X116890000Y-80080000D01*
X116890000Y-79480000D01*
X116891464Y-79476464D01*
X116893843Y-79474085D01*
X116893843Y-79440982D01*
X116894224Y-79439069D01*
X116896136Y-79434451D01*
X116896138Y-79434445D01*
X116922171Y-79371595D01*
X116922174Y-79371589D01*
X116924087Y-79366973D01*
X116925170Y-79365350D01*
X116928706Y-79361813D01*
X116928709Y-79361810D01*
X116976810Y-79313709D01*
X116976813Y-79313706D01*
X116980350Y-79310170D01*
X116981973Y-79309087D01*
X116986589Y-79307174D01*
X116986595Y-79307171D01*
X117049445Y-79281138D01*
X117049451Y-79281136D01*
X117054069Y-79279224D01*
X117055982Y-79278843D01*
X117089085Y-79278843D01*
X117091464Y-79276464D01*
X117095000Y-79275000D01*
X118295000Y-79275000D01*
X118298536Y-79276464D01*
G37*
G36*
X130998536Y-79276464D02*
G01*
X131000915Y-79278843D01*
X131029015Y-79278843D01*
X131034018Y-79278843D01*
X131035931Y-79279224D01*
X131040549Y-79281137D01*
X131040554Y-79281138D01*
X131103404Y-79307171D01*
X131103408Y-79307173D01*
X131108027Y-79309087D01*
X131109650Y-79310170D01*
X131164830Y-79365350D01*
X131165913Y-79366973D01*
X131167826Y-79371592D01*
X131167828Y-79371595D01*
X131169105Y-79374679D01*
X131195776Y-79439069D01*
X131196157Y-79440982D01*
X131196157Y-79474085D01*
X131198536Y-79476464D01*
X131200000Y-79480000D01*
X131200000Y-80080000D01*
X131198536Y-80083536D01*
X131196148Y-80084524D01*
X131196148Y-80158414D01*
X131196052Y-80159389D01*
X131165456Y-80313203D01*
X131165171Y-80314141D01*
X131164217Y-80316443D01*
X131164215Y-80316451D01*
X131106115Y-80456717D01*
X131106110Y-80456724D01*
X131105156Y-80459030D01*
X131104694Y-80459895D01*
X131017565Y-80590293D01*
X131016944Y-80591051D01*
X130906051Y-80701944D01*
X130905293Y-80702565D01*
X130774895Y-80789694D01*
X130774030Y-80790156D01*
X130771724Y-80791110D01*
X130771717Y-80791115D01*
X130631451Y-80849215D01*
X130631443Y-80849217D01*
X130629141Y-80850171D01*
X130628203Y-80850456D01*
X130474389Y-80881052D01*
X130473414Y-80881148D01*
X130470924Y-80881148D01*
X130319076Y-80881148D01*
X130316586Y-80881148D01*
X130315611Y-80881052D01*
X130161797Y-80850456D01*
X130160859Y-80850171D01*
X130158559Y-80849218D01*
X130158548Y-80849215D01*
X130018282Y-80791115D01*
X130018270Y-80791109D01*
X130015970Y-80790156D01*
X130015105Y-80789694D01*
X129979463Y-80765879D01*
X129886785Y-80703954D01*
X129886781Y-80703951D01*
X129884707Y-80702565D01*
X129883949Y-80701944D01*
X129773056Y-80591051D01*
X129772435Y-80590293D01*
X129771049Y-80588219D01*
X129771045Y-80588214D01*
X129686695Y-80461974D01*
X129686694Y-80461972D01*
X129685306Y-80459895D01*
X129684844Y-80459030D01*
X129683892Y-80456732D01*
X129683884Y-80456717D01*
X129625784Y-80316451D01*
X129625778Y-80316434D01*
X129624829Y-80314141D01*
X129624544Y-80313203D01*
X129617927Y-80279942D01*
X129594433Y-80161830D01*
X129594432Y-80161824D01*
X129593948Y-80159389D01*
X129593852Y-80158414D01*
X129593852Y-80084524D01*
X129591464Y-80083536D01*
X129590000Y-80080000D01*
X129590000Y-79480000D01*
X129591464Y-79476464D01*
X129593843Y-79474085D01*
X129593843Y-79440982D01*
X129594224Y-79439069D01*
X129596136Y-79434451D01*
X129596138Y-79434445D01*
X129622171Y-79371595D01*
X129622174Y-79371589D01*
X129624087Y-79366973D01*
X129625170Y-79365350D01*
X129628706Y-79361813D01*
X129628709Y-79361810D01*
X129676810Y-79313709D01*
X129676813Y-79313706D01*
X129680350Y-79310170D01*
X129681973Y-79309087D01*
X129686589Y-79307174D01*
X129686595Y-79307171D01*
X129749445Y-79281138D01*
X129749451Y-79281136D01*
X129754069Y-79279224D01*
X129755982Y-79278843D01*
X129789085Y-79278843D01*
X129791464Y-79276464D01*
X129795000Y-79275000D01*
X130995000Y-79275000D01*
X130998536Y-79276464D01*
G37*
G36*
X143698536Y-79276464D02*
G01*
X143700915Y-79278843D01*
X143729015Y-79278843D01*
X143734018Y-79278843D01*
X143735931Y-79279224D01*
X143740549Y-79281137D01*
X143740554Y-79281138D01*
X143803404Y-79307171D01*
X143803408Y-79307173D01*
X143808027Y-79309087D01*
X143809650Y-79310170D01*
X143864830Y-79365350D01*
X143865913Y-79366973D01*
X143867826Y-79371592D01*
X143867828Y-79371595D01*
X143869105Y-79374679D01*
X143895776Y-79439069D01*
X143896157Y-79440982D01*
X143896157Y-79474085D01*
X143898536Y-79476464D01*
X143900000Y-79480000D01*
X143900000Y-80080000D01*
X143898536Y-80083536D01*
X143896148Y-80084524D01*
X143896148Y-80158414D01*
X143896052Y-80159389D01*
X143865456Y-80313203D01*
X143865171Y-80314141D01*
X143864217Y-80316443D01*
X143864215Y-80316451D01*
X143806115Y-80456717D01*
X143806110Y-80456724D01*
X143805156Y-80459030D01*
X143804694Y-80459895D01*
X143717565Y-80590293D01*
X143716944Y-80591051D01*
X143606051Y-80701944D01*
X143605293Y-80702565D01*
X143474895Y-80789694D01*
X143474030Y-80790156D01*
X143471724Y-80791110D01*
X143471717Y-80791115D01*
X143331451Y-80849215D01*
X143331443Y-80849217D01*
X143329141Y-80850171D01*
X143328203Y-80850456D01*
X143174389Y-80881052D01*
X143173414Y-80881148D01*
X143170924Y-80881148D01*
X143019076Y-80881148D01*
X143016586Y-80881148D01*
X143015611Y-80881052D01*
X142861797Y-80850456D01*
X142860859Y-80850171D01*
X142858559Y-80849218D01*
X142858548Y-80849215D01*
X142718282Y-80791115D01*
X142718270Y-80791109D01*
X142715970Y-80790156D01*
X142715105Y-80789694D01*
X142679463Y-80765879D01*
X142586785Y-80703954D01*
X142586781Y-80703951D01*
X142584707Y-80702565D01*
X142583949Y-80701944D01*
X142473056Y-80591051D01*
X142472435Y-80590293D01*
X142471049Y-80588219D01*
X142471045Y-80588214D01*
X142386695Y-80461974D01*
X142386694Y-80461972D01*
X142385306Y-80459895D01*
X142384844Y-80459030D01*
X142383892Y-80456732D01*
X142383884Y-80456717D01*
X142325784Y-80316451D01*
X142325778Y-80316434D01*
X142324829Y-80314141D01*
X142324544Y-80313203D01*
X142317927Y-80279942D01*
X142294433Y-80161830D01*
X142294432Y-80161824D01*
X142293948Y-80159389D01*
X142293852Y-80158414D01*
X142293852Y-80084524D01*
X142291464Y-80083536D01*
X142290000Y-80080000D01*
X142290000Y-79480000D01*
X142291464Y-79476464D01*
X142293843Y-79474085D01*
X142293843Y-79440982D01*
X142294224Y-79439069D01*
X142296136Y-79434451D01*
X142296138Y-79434445D01*
X142322171Y-79371595D01*
X142322174Y-79371589D01*
X142324087Y-79366973D01*
X142325170Y-79365350D01*
X142328706Y-79361813D01*
X142328709Y-79361810D01*
X142376810Y-79313709D01*
X142376813Y-79313706D01*
X142380350Y-79310170D01*
X142381973Y-79309087D01*
X142386589Y-79307174D01*
X142386595Y-79307171D01*
X142449445Y-79281138D01*
X142449451Y-79281136D01*
X142454069Y-79279224D01*
X142455982Y-79278843D01*
X142489085Y-79278843D01*
X142491464Y-79276464D01*
X142495000Y-79275000D01*
X143695000Y-79275000D01*
X143698536Y-79276464D01*
G37*
G36*
X156398536Y-79276464D02*
G01*
X156400915Y-79278843D01*
X156429015Y-79278843D01*
X156434018Y-79278843D01*
X156435931Y-79279224D01*
X156440549Y-79281137D01*
X156440554Y-79281138D01*
X156503404Y-79307171D01*
X156503408Y-79307173D01*
X156508027Y-79309087D01*
X156509650Y-79310170D01*
X156564830Y-79365350D01*
X156565913Y-79366973D01*
X156567826Y-79371592D01*
X156567828Y-79371595D01*
X156569105Y-79374679D01*
X156595776Y-79439069D01*
X156596157Y-79440982D01*
X156596157Y-79474085D01*
X156598536Y-79476464D01*
X156600000Y-79480000D01*
X156600000Y-80080000D01*
X156598536Y-80083536D01*
X156596148Y-80084524D01*
X156596148Y-80158414D01*
X156596052Y-80159389D01*
X156565456Y-80313203D01*
X156565171Y-80314141D01*
X156564217Y-80316443D01*
X156564215Y-80316451D01*
X156506115Y-80456717D01*
X156506110Y-80456724D01*
X156505156Y-80459030D01*
X156504694Y-80459895D01*
X156417565Y-80590293D01*
X156416944Y-80591051D01*
X156306051Y-80701944D01*
X156305293Y-80702565D01*
X156174895Y-80789694D01*
X156174030Y-80790156D01*
X156171724Y-80791110D01*
X156171717Y-80791115D01*
X156031451Y-80849215D01*
X156031443Y-80849217D01*
X156029141Y-80850171D01*
X156028203Y-80850456D01*
X155874389Y-80881052D01*
X155873414Y-80881148D01*
X155870924Y-80881148D01*
X155719076Y-80881148D01*
X155716586Y-80881148D01*
X155715611Y-80881052D01*
X155561797Y-80850456D01*
X155560859Y-80850171D01*
X155558559Y-80849218D01*
X155558548Y-80849215D01*
X155418282Y-80791115D01*
X155418270Y-80791109D01*
X155415970Y-80790156D01*
X155415105Y-80789694D01*
X155379463Y-80765879D01*
X155286785Y-80703954D01*
X155286781Y-80703951D01*
X155284707Y-80702565D01*
X155283949Y-80701944D01*
X155173056Y-80591051D01*
X155172435Y-80590293D01*
X155171049Y-80588219D01*
X155171045Y-80588214D01*
X155086695Y-80461974D01*
X155086694Y-80461972D01*
X155085306Y-80459895D01*
X155084844Y-80459030D01*
X155083892Y-80456732D01*
X155083884Y-80456717D01*
X155025784Y-80316451D01*
X155025778Y-80316434D01*
X155024829Y-80314141D01*
X155024544Y-80313203D01*
X155017927Y-80279942D01*
X154994433Y-80161830D01*
X154994432Y-80161824D01*
X154993948Y-80159389D01*
X154993852Y-80158414D01*
X154993852Y-80084524D01*
X154991464Y-80083536D01*
X154990000Y-80080000D01*
X154990000Y-79480000D01*
X154991464Y-79476464D01*
X154993843Y-79474085D01*
X154993843Y-79440982D01*
X154994224Y-79439069D01*
X154996136Y-79434451D01*
X154996138Y-79434445D01*
X155022171Y-79371595D01*
X155022174Y-79371589D01*
X155024087Y-79366973D01*
X155025170Y-79365350D01*
X155028706Y-79361813D01*
X155028709Y-79361810D01*
X155076810Y-79313709D01*
X155076813Y-79313706D01*
X155080350Y-79310170D01*
X155081973Y-79309087D01*
X155086589Y-79307174D01*
X155086595Y-79307171D01*
X155149445Y-79281138D01*
X155149451Y-79281136D01*
X155154069Y-79279224D01*
X155155982Y-79278843D01*
X155189085Y-79278843D01*
X155191464Y-79276464D01*
X155195000Y-79275000D01*
X156395000Y-79275000D01*
X156398536Y-79276464D01*
G37*
G36*
X112847228Y-79314448D02*
G01*
X112992117Y-79374463D01*
X113122515Y-79461592D01*
X113233408Y-79572485D01*
X113320537Y-79702883D01*
X113380552Y-79847772D01*
X113411148Y-80001586D01*
X113411148Y-80158414D01*
X113380552Y-80312228D01*
X113320537Y-80457117D01*
X113233408Y-80587515D01*
X113122515Y-80698408D01*
X112992117Y-80785537D01*
X112847228Y-80845552D01*
X112693414Y-80876148D01*
X112536586Y-80876148D01*
X112382772Y-80845552D01*
X112237883Y-80785537D01*
X112107485Y-80698408D01*
X111996592Y-80587515D01*
X111909463Y-80457117D01*
X111849448Y-80312228D01*
X111818852Y-80158414D01*
X111818852Y-80001586D01*
X111849448Y-79847772D01*
X111909463Y-79702883D01*
X111996592Y-79572485D01*
X112107485Y-79461592D01*
X112237883Y-79374463D01*
X112382772Y-79314448D01*
X112536586Y-79283852D01*
X112693414Y-79283852D01*
X112847228Y-79314448D01*
G37*
G36*
X115387228Y-79314448D02*
G01*
X115532117Y-79374463D01*
X115662515Y-79461592D01*
X115773408Y-79572485D01*
X115860537Y-79702883D01*
X115920552Y-79847772D01*
X115951148Y-80001586D01*
X115951148Y-80158414D01*
X115920552Y-80312228D01*
X115860537Y-80457117D01*
X115773408Y-80587515D01*
X115662515Y-80698408D01*
X115532117Y-80785537D01*
X115387228Y-80845552D01*
X115233414Y-80876148D01*
X115076586Y-80876148D01*
X114922772Y-80845552D01*
X114777883Y-80785537D01*
X114647485Y-80698408D01*
X114536592Y-80587515D01*
X114449463Y-80457117D01*
X114389448Y-80312228D01*
X114358852Y-80158414D01*
X114358852Y-80001586D01*
X114389448Y-79847772D01*
X114449463Y-79702883D01*
X114536592Y-79572485D01*
X114647485Y-79461592D01*
X114777883Y-79374463D01*
X114922772Y-79314448D01*
X115076586Y-79283852D01*
X115233414Y-79283852D01*
X115387228Y-79314448D01*
G37*
G36*
X120467228Y-79314448D02*
G01*
X120612117Y-79374463D01*
X120742515Y-79461592D01*
X120853408Y-79572485D01*
X120940537Y-79702883D01*
X121000552Y-79847772D01*
X121031148Y-80001586D01*
X121031148Y-80158414D01*
X121000552Y-80312228D01*
X120940537Y-80457117D01*
X120853408Y-80587515D01*
X120742515Y-80698408D01*
X120612117Y-80785537D01*
X120467228Y-80845552D01*
X120313414Y-80876148D01*
X120156586Y-80876148D01*
X120002772Y-80845552D01*
X119857883Y-80785537D01*
X119727485Y-80698408D01*
X119616592Y-80587515D01*
X119529463Y-80457117D01*
X119469448Y-80312228D01*
X119438852Y-80158414D01*
X119438852Y-80001586D01*
X119469448Y-79847772D01*
X119529463Y-79702883D01*
X119616592Y-79572485D01*
X119727485Y-79461592D01*
X119857883Y-79374463D01*
X120002772Y-79314448D01*
X120156586Y-79283852D01*
X120313414Y-79283852D01*
X120467228Y-79314448D01*
G37*
G36*
X123007228Y-79314448D02*
G01*
X123152117Y-79374463D01*
X123282515Y-79461592D01*
X123393408Y-79572485D01*
X123480537Y-79702883D01*
X123540552Y-79847772D01*
X123571148Y-80001586D01*
X123571148Y-80158414D01*
X123540552Y-80312228D01*
X123480537Y-80457117D01*
X123393408Y-80587515D01*
X123282515Y-80698408D01*
X123152117Y-80785537D01*
X123007228Y-80845552D01*
X122853414Y-80876148D01*
X122696586Y-80876148D01*
X122542772Y-80845552D01*
X122397883Y-80785537D01*
X122267485Y-80698408D01*
X122156592Y-80587515D01*
X122069463Y-80457117D01*
X122009448Y-80312228D01*
X121978852Y-80158414D01*
X121978852Y-80001586D01*
X122009448Y-79847772D01*
X122069463Y-79702883D01*
X122156592Y-79572485D01*
X122267485Y-79461592D01*
X122397883Y-79374463D01*
X122542772Y-79314448D01*
X122696586Y-79283852D01*
X122853414Y-79283852D01*
X123007228Y-79314448D01*
G37*
G36*
X125547228Y-79314448D02*
G01*
X125692117Y-79374463D01*
X125822515Y-79461592D01*
X125933408Y-79572485D01*
X126020537Y-79702883D01*
X126080552Y-79847772D01*
X126111148Y-80001586D01*
X126111148Y-80158414D01*
X126080552Y-80312228D01*
X126020537Y-80457117D01*
X125933408Y-80587515D01*
X125822515Y-80698408D01*
X125692117Y-80785537D01*
X125547228Y-80845552D01*
X125393414Y-80876148D01*
X125236586Y-80876148D01*
X125082772Y-80845552D01*
X124937883Y-80785537D01*
X124807485Y-80698408D01*
X124696592Y-80587515D01*
X124609463Y-80457117D01*
X124549448Y-80312228D01*
X124518852Y-80158414D01*
X124518852Y-80001586D01*
X124549448Y-79847772D01*
X124609463Y-79702883D01*
X124696592Y-79572485D01*
X124807485Y-79461592D01*
X124937883Y-79374463D01*
X125082772Y-79314448D01*
X125236586Y-79283852D01*
X125393414Y-79283852D01*
X125547228Y-79314448D01*
G37*
G36*
X128087228Y-79314448D02*
G01*
X128232117Y-79374463D01*
X128362515Y-79461592D01*
X128473408Y-79572485D01*
X128560537Y-79702883D01*
X128620552Y-79847772D01*
X128651148Y-80001586D01*
X128651148Y-80158414D01*
X128620552Y-80312228D01*
X128560537Y-80457117D01*
X128473408Y-80587515D01*
X128362515Y-80698408D01*
X128232117Y-80785537D01*
X128087228Y-80845552D01*
X127933414Y-80876148D01*
X127776586Y-80876148D01*
X127622772Y-80845552D01*
X127477883Y-80785537D01*
X127347485Y-80698408D01*
X127236592Y-80587515D01*
X127149463Y-80457117D01*
X127089448Y-80312228D01*
X127058852Y-80158414D01*
X127058852Y-80001586D01*
X127089448Y-79847772D01*
X127149463Y-79702883D01*
X127236592Y-79572485D01*
X127347485Y-79461592D01*
X127477883Y-79374463D01*
X127622772Y-79314448D01*
X127776586Y-79283852D01*
X127933414Y-79283852D01*
X128087228Y-79314448D01*
G37*
G36*
X133167228Y-79314448D02*
G01*
X133312117Y-79374463D01*
X133442515Y-79461592D01*
X133553408Y-79572485D01*
X133640537Y-79702883D01*
X133700552Y-79847772D01*
X133731148Y-80001586D01*
X133731148Y-80158414D01*
X133700552Y-80312228D01*
X133640537Y-80457117D01*
X133553408Y-80587515D01*
X133442515Y-80698408D01*
X133312117Y-80785537D01*
X133167228Y-80845552D01*
X133013414Y-80876148D01*
X132856586Y-80876148D01*
X132702772Y-80845552D01*
X132557883Y-80785537D01*
X132427485Y-80698408D01*
X132316592Y-80587515D01*
X132229463Y-80457117D01*
X132169448Y-80312228D01*
X132138852Y-80158414D01*
X132138852Y-80001586D01*
X132169448Y-79847772D01*
X132229463Y-79702883D01*
X132316592Y-79572485D01*
X132427485Y-79461592D01*
X132557883Y-79374463D01*
X132702772Y-79314448D01*
X132856586Y-79283852D01*
X133013414Y-79283852D01*
X133167228Y-79314448D01*
G37*
G36*
X135707228Y-79314448D02*
G01*
X135852117Y-79374463D01*
X135982515Y-79461592D01*
X136093408Y-79572485D01*
X136180537Y-79702883D01*
X136240552Y-79847772D01*
X136271148Y-80001586D01*
X136271148Y-80158414D01*
X136240552Y-80312228D01*
X136180537Y-80457117D01*
X136093408Y-80587515D01*
X135982515Y-80698408D01*
X135852117Y-80785537D01*
X135707228Y-80845552D01*
X135553414Y-80876148D01*
X135396586Y-80876148D01*
X135242772Y-80845552D01*
X135097883Y-80785537D01*
X134967485Y-80698408D01*
X134856592Y-80587515D01*
X134769463Y-80457117D01*
X134709448Y-80312228D01*
X134678852Y-80158414D01*
X134678852Y-80001586D01*
X134709448Y-79847772D01*
X134769463Y-79702883D01*
X134856592Y-79572485D01*
X134967485Y-79461592D01*
X135097883Y-79374463D01*
X135242772Y-79314448D01*
X135396586Y-79283852D01*
X135553414Y-79283852D01*
X135707228Y-79314448D01*
G37*
G36*
X138247228Y-79314448D02*
G01*
X138392117Y-79374463D01*
X138522515Y-79461592D01*
X138633408Y-79572485D01*
X138720537Y-79702883D01*
X138780552Y-79847772D01*
X138811148Y-80001586D01*
X138811148Y-80158414D01*
X138780552Y-80312228D01*
X138720537Y-80457117D01*
X138633408Y-80587515D01*
X138522515Y-80698408D01*
X138392117Y-80785537D01*
X138247228Y-80845552D01*
X138093414Y-80876148D01*
X137936586Y-80876148D01*
X137782772Y-80845552D01*
X137637883Y-80785537D01*
X137507485Y-80698408D01*
X137396592Y-80587515D01*
X137309463Y-80457117D01*
X137249448Y-80312228D01*
X137218852Y-80158414D01*
X137218852Y-80001586D01*
X137249448Y-79847772D01*
X137309463Y-79702883D01*
X137396592Y-79572485D01*
X137507485Y-79461592D01*
X137637883Y-79374463D01*
X137782772Y-79314448D01*
X137936586Y-79283852D01*
X138093414Y-79283852D01*
X138247228Y-79314448D01*
G37*
G36*
X140787228Y-79314448D02*
G01*
X140932117Y-79374463D01*
X141062515Y-79461592D01*
X141173408Y-79572485D01*
X141260537Y-79702883D01*
X141320552Y-79847772D01*
X141351148Y-80001586D01*
X141351148Y-80158414D01*
X141320552Y-80312228D01*
X141260537Y-80457117D01*
X141173408Y-80587515D01*
X141062515Y-80698408D01*
X140932117Y-80785537D01*
X140787228Y-80845552D01*
X140633414Y-80876148D01*
X140476586Y-80876148D01*
X140322772Y-80845552D01*
X140177883Y-80785537D01*
X140047485Y-80698408D01*
X139936592Y-80587515D01*
X139849463Y-80457117D01*
X139789448Y-80312228D01*
X139758852Y-80158414D01*
X139758852Y-80001586D01*
X139789448Y-79847772D01*
X139849463Y-79702883D01*
X139936592Y-79572485D01*
X140047485Y-79461592D01*
X140177883Y-79374463D01*
X140322772Y-79314448D01*
X140476586Y-79283852D01*
X140633414Y-79283852D01*
X140787228Y-79314448D01*
G37*
G36*
X145867228Y-79314448D02*
G01*
X146012117Y-79374463D01*
X146142515Y-79461592D01*
X146253408Y-79572485D01*
X146340537Y-79702883D01*
X146400552Y-79847772D01*
X146431148Y-80001586D01*
X146431148Y-80158414D01*
X146400552Y-80312228D01*
X146340537Y-80457117D01*
X146253408Y-80587515D01*
X146142515Y-80698408D01*
X146012117Y-80785537D01*
X145867228Y-80845552D01*
X145713414Y-80876148D01*
X145556586Y-80876148D01*
X145402772Y-80845552D01*
X145257883Y-80785537D01*
X145127485Y-80698408D01*
X145016592Y-80587515D01*
X144929463Y-80457117D01*
X144869448Y-80312228D01*
X144838852Y-80158414D01*
X144838852Y-80001586D01*
X144869448Y-79847772D01*
X144929463Y-79702883D01*
X145016592Y-79572485D01*
X145127485Y-79461592D01*
X145257883Y-79374463D01*
X145402772Y-79314448D01*
X145556586Y-79283852D01*
X145713414Y-79283852D01*
X145867228Y-79314448D01*
G37*
G36*
X148407228Y-79314448D02*
G01*
X148552117Y-79374463D01*
X148682515Y-79461592D01*
X148793408Y-79572485D01*
X148880537Y-79702883D01*
X148940552Y-79847772D01*
X148971148Y-80001586D01*
X148971148Y-80158414D01*
X148940552Y-80312228D01*
X148880537Y-80457117D01*
X148793408Y-80587515D01*
X148682515Y-80698408D01*
X148552117Y-80785537D01*
X148407228Y-80845552D01*
X148253414Y-80876148D01*
X148096586Y-80876148D01*
X147942772Y-80845552D01*
X147797883Y-80785537D01*
X147667485Y-80698408D01*
X147556592Y-80587515D01*
X147469463Y-80457117D01*
X147409448Y-80312228D01*
X147378852Y-80158414D01*
X147378852Y-80001586D01*
X147409448Y-79847772D01*
X147469463Y-79702883D01*
X147556592Y-79572485D01*
X147667485Y-79461592D01*
X147797883Y-79374463D01*
X147942772Y-79314448D01*
X148096586Y-79283852D01*
X148253414Y-79283852D01*
X148407228Y-79314448D01*
G37*
G36*
X150947228Y-79314448D02*
G01*
X151092117Y-79374463D01*
X151222515Y-79461592D01*
X151333408Y-79572485D01*
X151420537Y-79702883D01*
X151480552Y-79847772D01*
X151511148Y-80001586D01*
X151511148Y-80158414D01*
X151480552Y-80312228D01*
X151420537Y-80457117D01*
X151333408Y-80587515D01*
X151222515Y-80698408D01*
X151092117Y-80785537D01*
X150947228Y-80845552D01*
X150793414Y-80876148D01*
X150636586Y-80876148D01*
X150482772Y-80845552D01*
X150337883Y-80785537D01*
X150207485Y-80698408D01*
X150096592Y-80587515D01*
X150009463Y-80457117D01*
X149949448Y-80312228D01*
X149918852Y-80158414D01*
X149918852Y-80001586D01*
X149949448Y-79847772D01*
X150009463Y-79702883D01*
X150096592Y-79572485D01*
X150207485Y-79461592D01*
X150337883Y-79374463D01*
X150482772Y-79314448D01*
X150636586Y-79283852D01*
X150793414Y-79283852D01*
X150947228Y-79314448D01*
G37*
G36*
X153487228Y-79314448D02*
G01*
X153632117Y-79374463D01*
X153762515Y-79461592D01*
X153873408Y-79572485D01*
X153960537Y-79702883D01*
X154020552Y-79847772D01*
X154051148Y-80001586D01*
X154051148Y-80158414D01*
X154020552Y-80312228D01*
X153960537Y-80457117D01*
X153873408Y-80587515D01*
X153762515Y-80698408D01*
X153632117Y-80785537D01*
X153487228Y-80845552D01*
X153333414Y-80876148D01*
X153176586Y-80876148D01*
X153022772Y-80845552D01*
X152877883Y-80785537D01*
X152747485Y-80698408D01*
X152636592Y-80587515D01*
X152549463Y-80457117D01*
X152489448Y-80312228D01*
X152458852Y-80158414D01*
X152458852Y-80001586D01*
X152489448Y-79847772D01*
X152549463Y-79702883D01*
X152636592Y-79572485D01*
X152747485Y-79461592D01*
X152877883Y-79374463D01*
X153022772Y-79314448D01*
X153176586Y-79283852D01*
X153333414Y-79283852D01*
X153487228Y-79314448D01*
G37*
G36*
X158567228Y-79314448D02*
G01*
X158712117Y-79374463D01*
X158842515Y-79461592D01*
X158953408Y-79572485D01*
X159040537Y-79702883D01*
X159100552Y-79847772D01*
X159131148Y-80001586D01*
X159131148Y-80158414D01*
X159100552Y-80312228D01*
X159040537Y-80457117D01*
X158953408Y-80587515D01*
X158842515Y-80698408D01*
X158712117Y-80785537D01*
X158567228Y-80845552D01*
X158413414Y-80876148D01*
X158256586Y-80876148D01*
X158102772Y-80845552D01*
X157957883Y-80785537D01*
X157827485Y-80698408D01*
X157716592Y-80587515D01*
X157629463Y-80457117D01*
X157569448Y-80312228D01*
X157538852Y-80158414D01*
X157538852Y-80001586D01*
X157569448Y-79847772D01*
X157629463Y-79702883D01*
X157716592Y-79572485D01*
X157827485Y-79461592D01*
X157957883Y-79374463D01*
X158102772Y-79314448D01*
X158256586Y-79283852D01*
X158413414Y-79283852D01*
X158567228Y-79314448D01*
G37*
G36*
X161107228Y-79314448D02*
G01*
X161252117Y-79374463D01*
X161382515Y-79461592D01*
X161493408Y-79572485D01*
X161580537Y-79702883D01*
X161640552Y-79847772D01*
X161671148Y-80001586D01*
X161671148Y-80158414D01*
X161640552Y-80312228D01*
X161580537Y-80457117D01*
X161493408Y-80587515D01*
X161382515Y-80698408D01*
X161252117Y-80785537D01*
X161107228Y-80845552D01*
X160953414Y-80876148D01*
X160796586Y-80876148D01*
X160642772Y-80845552D01*
X160497883Y-80785537D01*
X160367485Y-80698408D01*
X160256592Y-80587515D01*
X160169463Y-80457117D01*
X160109448Y-80312228D01*
X160078852Y-80158414D01*
X160078852Y-80001586D01*
X160109448Y-79847772D01*
X160169463Y-79702883D01*
X160256592Y-79572485D01*
X160367485Y-79461592D01*
X160497883Y-79374463D01*
X160642772Y-79314448D01*
X160796586Y-79283852D01*
X160953414Y-79283852D01*
X161107228Y-79314448D01*
G37*
G36*
X80956031Y-76655979D02*
G01*
X81115772Y-76722145D01*
X81259535Y-76818205D01*
X81381795Y-76940465D01*
X81477855Y-77084228D01*
X81544021Y-77243969D01*
X81577753Y-77413549D01*
X81577753Y-77586451D01*
X81544021Y-77756031D01*
X81477855Y-77915772D01*
X81381795Y-78059535D01*
X81259535Y-78181795D01*
X81115772Y-78277855D01*
X80956031Y-78344021D01*
X80786451Y-78377753D01*
X80613549Y-78377753D01*
X80443969Y-78344021D01*
X80284228Y-78277855D01*
X80140465Y-78181795D01*
X80018205Y-78059535D01*
X79922145Y-77915772D01*
X79855979Y-77756031D01*
X79822247Y-77586451D01*
X79822247Y-77413549D01*
X79855979Y-77243969D01*
X79922145Y-77084228D01*
X80018205Y-76940465D01*
X80140465Y-76818205D01*
X80284228Y-76722145D01*
X80443969Y-76655979D01*
X80613549Y-76622247D01*
X80786451Y-76622247D01*
X80956031Y-76655979D01*
G37*
G36*
X93656031Y-76655979D02*
G01*
X93815772Y-76722145D01*
X93959535Y-76818205D01*
X94081795Y-76940465D01*
X94177855Y-77084228D01*
X94244021Y-77243969D01*
X94277753Y-77413549D01*
X94277753Y-77586451D01*
X94244021Y-77756031D01*
X94177855Y-77915772D01*
X94081795Y-78059535D01*
X93959535Y-78181795D01*
X93815772Y-78277855D01*
X93656031Y-78344021D01*
X93486451Y-78377753D01*
X93313549Y-78377753D01*
X93143969Y-78344021D01*
X92984228Y-78277855D01*
X92840465Y-78181795D01*
X92718205Y-78059535D01*
X92622145Y-77915772D01*
X92555979Y-77756031D01*
X92522247Y-77586451D01*
X92522247Y-77413549D01*
X92555979Y-77243969D01*
X92622145Y-77084228D01*
X92718205Y-76940465D01*
X92840465Y-76818205D01*
X92984228Y-76722145D01*
X93143969Y-76655979D01*
X93313549Y-76622247D01*
X93486451Y-76622247D01*
X93656031Y-76655979D01*
G37*
G36*
X73501677Y-74245333D02*
G01*
X73658701Y-74310374D01*
X73800019Y-74404800D01*
X73920200Y-74524981D01*
X74014626Y-74666299D01*
X74079667Y-74823323D01*
X74112825Y-74990019D01*
X74112825Y-75159981D01*
X74079667Y-75326677D01*
X74014626Y-75483701D01*
X73920200Y-75625019D01*
X73800019Y-75745200D01*
X73658701Y-75839626D01*
X73501677Y-75904667D01*
X73334981Y-75937825D01*
X73165019Y-75937825D01*
X72998323Y-75904667D01*
X72841299Y-75839626D01*
X72699981Y-75745200D01*
X72579800Y-75625019D01*
X72485374Y-75483701D01*
X72420333Y-75326677D01*
X72387175Y-75159981D01*
X72387175Y-74990019D01*
X72420333Y-74823323D01*
X72485374Y-74666299D01*
X72579800Y-74524981D01*
X72699981Y-74404800D01*
X72841299Y-74310374D01*
X72998323Y-74245333D01*
X73165019Y-74212175D01*
X73334981Y-74212175D01*
X73501677Y-74245333D01*
G37*
G36*
X80956031Y-74115979D02*
G01*
X81115772Y-74182145D01*
X81259535Y-74278205D01*
X81381795Y-74400465D01*
X81477855Y-74544228D01*
X81544021Y-74703969D01*
X81577753Y-74873549D01*
X81577753Y-75046451D01*
X81544021Y-75216031D01*
X81477855Y-75375772D01*
X81381795Y-75519535D01*
X81259535Y-75641795D01*
X81115772Y-75737855D01*
X80956031Y-75804021D01*
X80786451Y-75837753D01*
X80613549Y-75837753D01*
X80443969Y-75804021D01*
X80284228Y-75737855D01*
X80140465Y-75641795D01*
X80018205Y-75519535D01*
X79922145Y-75375772D01*
X79855979Y-75216031D01*
X79822247Y-75046451D01*
X79822247Y-74873549D01*
X79855979Y-74703969D01*
X79922145Y-74544228D01*
X80018205Y-74400465D01*
X80140465Y-74278205D01*
X80284228Y-74182145D01*
X80443969Y-74115979D01*
X80613549Y-74082247D01*
X80786451Y-74082247D01*
X80956031Y-74115979D01*
G37*
G36*
X93656031Y-74115979D02*
G01*
X93815772Y-74182145D01*
X93959535Y-74278205D01*
X94081795Y-74400465D01*
X94177855Y-74544228D01*
X94244021Y-74703969D01*
X94277753Y-74873549D01*
X94277753Y-75046451D01*
X94244021Y-75216031D01*
X94177855Y-75375772D01*
X94081795Y-75519535D01*
X93959535Y-75641795D01*
X93815772Y-75737855D01*
X93656031Y-75804021D01*
X93486451Y-75837753D01*
X93313549Y-75837753D01*
X93143969Y-75804021D01*
X92984228Y-75737855D01*
X92840465Y-75641795D01*
X92718205Y-75519535D01*
X92622145Y-75375772D01*
X92555979Y-75216031D01*
X92522247Y-75046451D01*
X92522247Y-74873549D01*
X92555979Y-74703969D01*
X92622145Y-74544228D01*
X92718205Y-74400465D01*
X92840465Y-74278205D01*
X92984228Y-74182145D01*
X93143969Y-74115979D01*
X93313549Y-74082247D01*
X93486451Y-74082247D01*
X93656031Y-74115979D01*
G37*
G36*
X73501677Y-71705333D02*
G01*
X73658701Y-71770374D01*
X73800019Y-71864800D01*
X73920200Y-71984981D01*
X74014626Y-72126299D01*
X74079667Y-72283323D01*
X74112825Y-72450019D01*
X74112825Y-72619981D01*
X74079667Y-72786677D01*
X74014626Y-72943701D01*
X73920200Y-73085019D01*
X73800019Y-73205200D01*
X73658701Y-73299626D01*
X73501677Y-73364667D01*
X73334981Y-73397825D01*
X73165019Y-73397825D01*
X72998323Y-73364667D01*
X72841299Y-73299626D01*
X72699981Y-73205200D01*
X72579800Y-73085019D01*
X72485374Y-72943701D01*
X72420333Y-72786677D01*
X72387175Y-72619981D01*
X72387175Y-72450019D01*
X72420333Y-72283323D01*
X72485374Y-72126299D01*
X72579800Y-71984981D01*
X72699981Y-71864800D01*
X72841299Y-71770374D01*
X72998323Y-71705333D01*
X73165019Y-71672175D01*
X73334981Y-71672175D01*
X73501677Y-71705333D01*
G37*
G36*
X80956031Y-71575979D02*
G01*
X81115772Y-71642145D01*
X81259535Y-71738205D01*
X81381795Y-71860465D01*
X81477855Y-72004228D01*
X81544021Y-72163969D01*
X81577753Y-72333549D01*
X81577753Y-72506451D01*
X81544021Y-72676031D01*
X81477855Y-72835772D01*
X81381795Y-72979535D01*
X81259535Y-73101795D01*
X81115772Y-73197855D01*
X80956031Y-73264021D01*
X80786451Y-73297753D01*
X80613549Y-73297753D01*
X80443969Y-73264021D01*
X80284228Y-73197855D01*
X80140465Y-73101795D01*
X80018205Y-72979535D01*
X79922145Y-72835772D01*
X79855979Y-72676031D01*
X79822247Y-72506451D01*
X79822247Y-72333549D01*
X79855979Y-72163969D01*
X79922145Y-72004228D01*
X80018205Y-71860465D01*
X80140465Y-71738205D01*
X80284228Y-71642145D01*
X80443969Y-71575979D01*
X80613549Y-71542247D01*
X80786451Y-71542247D01*
X80956031Y-71575979D01*
G37*
G36*
X93656031Y-71575979D02*
G01*
X93815772Y-71642145D01*
X93959535Y-71738205D01*
X94081795Y-71860465D01*
X94177855Y-72004228D01*
X94244021Y-72163969D01*
X94277753Y-72333549D01*
X94277753Y-72506451D01*
X94244021Y-72676031D01*
X94177855Y-72835772D01*
X94081795Y-72979535D01*
X93959535Y-73101795D01*
X93815772Y-73197855D01*
X93656031Y-73264021D01*
X93486451Y-73297753D01*
X93313549Y-73297753D01*
X93143969Y-73264021D01*
X92984228Y-73197855D01*
X92840465Y-73101795D01*
X92718205Y-72979535D01*
X92622145Y-72835772D01*
X92555979Y-72676031D01*
X92522247Y-72506451D01*
X92522247Y-72333549D01*
X92555979Y-72163969D01*
X92622145Y-72004228D01*
X92718205Y-71860465D01*
X92840465Y-71738205D01*
X92984228Y-71642145D01*
X93143969Y-71575979D01*
X93313549Y-71542247D01*
X93486451Y-71542247D01*
X93656031Y-71575979D01*
G37*
G36*
X73501677Y-69165333D02*
G01*
X73658701Y-69230374D01*
X73800019Y-69324800D01*
X73920200Y-69444981D01*
X74014626Y-69586299D01*
X74079667Y-69743323D01*
X74112825Y-69910019D01*
X74112825Y-70079981D01*
X74079667Y-70246677D01*
X74014626Y-70403701D01*
X73920200Y-70545019D01*
X73800019Y-70665200D01*
X73658701Y-70759626D01*
X73501677Y-70824667D01*
X73334981Y-70857825D01*
X73165019Y-70857825D01*
X72998323Y-70824667D01*
X72841299Y-70759626D01*
X72699981Y-70665200D01*
X72579800Y-70545019D01*
X72485374Y-70403701D01*
X72420333Y-70246677D01*
X72387175Y-70079981D01*
X72387175Y-69910019D01*
X72420333Y-69743323D01*
X72485374Y-69586299D01*
X72579800Y-69444981D01*
X72699981Y-69324800D01*
X72841299Y-69230374D01*
X72998323Y-69165333D01*
X73165019Y-69132175D01*
X73334981Y-69132175D01*
X73501677Y-69165333D01*
G37*
G36*
X80956031Y-69035979D02*
G01*
X81115772Y-69102145D01*
X81259535Y-69198205D01*
X81381795Y-69320465D01*
X81477855Y-69464228D01*
X81544021Y-69623969D01*
X81577753Y-69793549D01*
X81577753Y-69966451D01*
X81544021Y-70136031D01*
X81477855Y-70295772D01*
X81381795Y-70439535D01*
X81259535Y-70561795D01*
X81115772Y-70657855D01*
X80956031Y-70724021D01*
X80786451Y-70757753D01*
X80613549Y-70757753D01*
X80443969Y-70724021D01*
X80284228Y-70657855D01*
X80140465Y-70561795D01*
X80018205Y-70439535D01*
X79922145Y-70295772D01*
X79855979Y-70136031D01*
X79822247Y-69966451D01*
X79822247Y-69793549D01*
X79855979Y-69623969D01*
X79922145Y-69464228D01*
X80018205Y-69320465D01*
X80140465Y-69198205D01*
X80284228Y-69102145D01*
X80443969Y-69035979D01*
X80613549Y-69002247D01*
X80786451Y-69002247D01*
X80956031Y-69035979D01*
G37*
G36*
X93656031Y-69035979D02*
G01*
X93815772Y-69102145D01*
X93959535Y-69198205D01*
X94081795Y-69320465D01*
X94177855Y-69464228D01*
X94244021Y-69623969D01*
X94277753Y-69793549D01*
X94277753Y-69966451D01*
X94244021Y-70136031D01*
X94177855Y-70295772D01*
X94081795Y-70439535D01*
X93959535Y-70561795D01*
X93815772Y-70657855D01*
X93656031Y-70724021D01*
X93486451Y-70757753D01*
X93313549Y-70757753D01*
X93143969Y-70724021D01*
X92984228Y-70657855D01*
X92840465Y-70561795D01*
X92718205Y-70439535D01*
X92622145Y-70295772D01*
X92555979Y-70136031D01*
X92522247Y-69966451D01*
X92522247Y-69793549D01*
X92555979Y-69623969D01*
X92622145Y-69464228D01*
X92718205Y-69320465D01*
X92840465Y-69198205D01*
X92984228Y-69102145D01*
X93143969Y-69035979D01*
X93313549Y-69002247D01*
X93486451Y-69002247D01*
X93656031Y-69035979D01*
G37*
G36*
X73501677Y-66625333D02*
G01*
X73658701Y-66690374D01*
X73800019Y-66784800D01*
X73920200Y-66904981D01*
X74014626Y-67046299D01*
X74079667Y-67203323D01*
X74112825Y-67370019D01*
X74112825Y-67539981D01*
X74079667Y-67706677D01*
X74014626Y-67863701D01*
X73920200Y-68005019D01*
X73800019Y-68125200D01*
X73658701Y-68219626D01*
X73501677Y-68284667D01*
X73334981Y-68317825D01*
X73165019Y-68317825D01*
X72998323Y-68284667D01*
X72841299Y-68219626D01*
X72699981Y-68125200D01*
X72579800Y-68005019D01*
X72485374Y-67863701D01*
X72420333Y-67706677D01*
X72387175Y-67539981D01*
X72387175Y-67370019D01*
X72420333Y-67203323D01*
X72485374Y-67046299D01*
X72579800Y-66904981D01*
X72699981Y-66784800D01*
X72841299Y-66690374D01*
X72998323Y-66625333D01*
X73165019Y-66592175D01*
X73334981Y-66592175D01*
X73501677Y-66625333D01*
G37*
G36*
X80956031Y-66495979D02*
G01*
X81115772Y-66562145D01*
X81259535Y-66658205D01*
X81381795Y-66780465D01*
X81477855Y-66924228D01*
X81544021Y-67083969D01*
X81577753Y-67253549D01*
X81577753Y-67426451D01*
X81544021Y-67596031D01*
X81477855Y-67755772D01*
X81381795Y-67899535D01*
X81259535Y-68021795D01*
X81115772Y-68117855D01*
X80956031Y-68184021D01*
X80786451Y-68217753D01*
X80613549Y-68217753D01*
X80443969Y-68184021D01*
X80284228Y-68117855D01*
X80140465Y-68021795D01*
X80018205Y-67899535D01*
X79922145Y-67755772D01*
X79855979Y-67596031D01*
X79822247Y-67426451D01*
X79822247Y-67253549D01*
X79855979Y-67083969D01*
X79922145Y-66924228D01*
X80018205Y-66780465D01*
X80140465Y-66658205D01*
X80284228Y-66562145D01*
X80443969Y-66495979D01*
X80613549Y-66462247D01*
X80786451Y-66462247D01*
X80956031Y-66495979D01*
G37*
G36*
X93656031Y-66495979D02*
G01*
X93815772Y-66562145D01*
X93959535Y-66658205D01*
X94081795Y-66780465D01*
X94177855Y-66924228D01*
X94244021Y-67083969D01*
X94277753Y-67253549D01*
X94277753Y-67426451D01*
X94244021Y-67596031D01*
X94177855Y-67755772D01*
X94081795Y-67899535D01*
X93959535Y-68021795D01*
X93815772Y-68117855D01*
X93656031Y-68184021D01*
X93486451Y-68217753D01*
X93313549Y-68217753D01*
X93143969Y-68184021D01*
X92984228Y-68117855D01*
X92840465Y-68021795D01*
X92718205Y-67899535D01*
X92622145Y-67755772D01*
X92555979Y-67596031D01*
X92522247Y-67426451D01*
X92522247Y-67253549D01*
X92555979Y-67083969D01*
X92622145Y-66924228D01*
X92718205Y-66780465D01*
X92840465Y-66658205D01*
X92984228Y-66562145D01*
X93143969Y-66495979D01*
X93313549Y-66462247D01*
X93486451Y-66462247D01*
X93656031Y-66495979D01*
G37*
G36*
X80956031Y-63955979D02*
G01*
X81115772Y-64022145D01*
X81259535Y-64118205D01*
X81381795Y-64240465D01*
X81477855Y-64384228D01*
X81544021Y-64543969D01*
X81577753Y-64713549D01*
X81577753Y-64886451D01*
X81544021Y-65056031D01*
X81477855Y-65215772D01*
X81381795Y-65359535D01*
X81259535Y-65481795D01*
X81115772Y-65577855D01*
X80956031Y-65644021D01*
X80786451Y-65677753D01*
X80613549Y-65677753D01*
X80443969Y-65644021D01*
X80284228Y-65577855D01*
X80140465Y-65481795D01*
X80018205Y-65359535D01*
X79922145Y-65215772D01*
X79855979Y-65056031D01*
X79822247Y-64886451D01*
X79822247Y-64713549D01*
X79855979Y-64543969D01*
X79922145Y-64384228D01*
X80018205Y-64240465D01*
X80140465Y-64118205D01*
X80284228Y-64022145D01*
X80443969Y-63955979D01*
X80613549Y-63922247D01*
X80786451Y-63922247D01*
X80956031Y-63955979D01*
G37*
G36*
X93656031Y-63955979D02*
G01*
X93815772Y-64022145D01*
X93959535Y-64118205D01*
X94081795Y-64240465D01*
X94177855Y-64384228D01*
X94244021Y-64543969D01*
X94277753Y-64713549D01*
X94277753Y-64886451D01*
X94244021Y-65056031D01*
X94177855Y-65215772D01*
X94081795Y-65359535D01*
X93959535Y-65481795D01*
X93815772Y-65577855D01*
X93656031Y-65644021D01*
X93486451Y-65677753D01*
X93313549Y-65677753D01*
X93143969Y-65644021D01*
X92984228Y-65577855D01*
X92840465Y-65481795D01*
X92718205Y-65359535D01*
X92622145Y-65215772D01*
X92555979Y-65056031D01*
X92522247Y-64886451D01*
X92522247Y-64713549D01*
X92555979Y-64543969D01*
X92622145Y-64384228D01*
X92718205Y-64240465D01*
X92840465Y-64118205D01*
X92984228Y-64022145D01*
X93143969Y-63955979D01*
X93313549Y-63922247D01*
X93486451Y-63922247D01*
X93656031Y-63955979D01*
G37*
G36*
X81519034Y-61385764D02*
G01*
X81552125Y-61407875D01*
X81574236Y-61440966D01*
X81582000Y-61480000D01*
X81582000Y-63040000D01*
X81574236Y-63079034D01*
X81552125Y-63112125D01*
X81519034Y-63134236D01*
X81480000Y-63142000D01*
X79920000Y-63142000D01*
X79880966Y-63134236D01*
X79847875Y-63112125D01*
X79825764Y-63079034D01*
X79818000Y-63040000D01*
X79818000Y-61480000D01*
X79825764Y-61440966D01*
X79847875Y-61407875D01*
X79880966Y-61385764D01*
X79920000Y-61378000D01*
X81480000Y-61378000D01*
X81519034Y-61385764D01*
G37*
G36*
X93656031Y-61415979D02*
G01*
X93815772Y-61482145D01*
X93959535Y-61578205D01*
X94081795Y-61700465D01*
X94177855Y-61844228D01*
X94244021Y-62003969D01*
X94277753Y-62173549D01*
X94277753Y-62346451D01*
X94244021Y-62516031D01*
X94177855Y-62675772D01*
X94081795Y-62819535D01*
X93959535Y-62941795D01*
X93815772Y-63037855D01*
X93656031Y-63104021D01*
X93486451Y-63137753D01*
X93313549Y-63137753D01*
X93143969Y-63104021D01*
X92984228Y-63037855D01*
X92840465Y-62941795D01*
X92718205Y-62819535D01*
X92622145Y-62675772D01*
X92555979Y-62516031D01*
X92522247Y-62346451D01*
X92522247Y-62173549D01*
X92555979Y-62003969D01*
X92622145Y-61844228D01*
X92718205Y-61700465D01*
X92840465Y-61578205D01*
X92984228Y-61482145D01*
X93143969Y-61415979D01*
X93313549Y-61382247D01*
X93486451Y-61382247D01*
X93656031Y-61415979D01*
G37*
G36*
X117774389Y-61498948D02*
G01*
X117776824Y-61499432D01*
X117776830Y-61499433D01*
X117894942Y-61522927D01*
X117928203Y-61529544D01*
X117929141Y-61529829D01*
X117931434Y-61530778D01*
X117931451Y-61530784D01*
X118071717Y-61588884D01*
X118071732Y-61588892D01*
X118074030Y-61589844D01*
X118074895Y-61590306D01*
X118076972Y-61591694D01*
X118076974Y-61591695D01*
X118203214Y-61676045D01*
X118203219Y-61676049D01*
X118205293Y-61677435D01*
X118206051Y-61678056D01*
X118316944Y-61788949D01*
X118317565Y-61789707D01*
X118318951Y-61791781D01*
X118318954Y-61791785D01*
X118353995Y-61844228D01*
X118404694Y-61920105D01*
X118405156Y-61920970D01*
X118406109Y-61923270D01*
X118406115Y-61923282D01*
X118464215Y-62063548D01*
X118464218Y-62063559D01*
X118465171Y-62065859D01*
X118465456Y-62066797D01*
X118496052Y-62220611D01*
X118496148Y-62221586D01*
X118496148Y-62295475D01*
X118498536Y-62296464D01*
X118500000Y-62300000D01*
X118500000Y-62900000D01*
X118498536Y-62903536D01*
X118496157Y-62905915D01*
X118496157Y-62939018D01*
X118495776Y-62940931D01*
X118493860Y-62945554D01*
X118493861Y-62945554D01*
X118469016Y-63005537D01*
X118465913Y-63013027D01*
X118464830Y-63014650D01*
X118409650Y-63069830D01*
X118408027Y-63070913D01*
X118335931Y-63100776D01*
X118334018Y-63101157D01*
X118300915Y-63101157D01*
X118298536Y-63103536D01*
X118295000Y-63105000D01*
X118284896Y-63105000D01*
X117105104Y-63105000D01*
X117095000Y-63105000D01*
X117091464Y-63103536D01*
X117089085Y-63101157D01*
X117060985Y-63101157D01*
X117055982Y-63101157D01*
X117054069Y-63100776D01*
X117049446Y-63098861D01*
X117049445Y-63098861D01*
X116986595Y-63072828D01*
X116986592Y-63072826D01*
X116981973Y-63070913D01*
X116980350Y-63069830D01*
X116925170Y-63014650D01*
X116924087Y-63013027D01*
X116922173Y-63008408D01*
X116922171Y-63008404D01*
X116896138Y-62945554D01*
X116896137Y-62945549D01*
X116894224Y-62940931D01*
X116893843Y-62939018D01*
X116893843Y-62905915D01*
X116891464Y-62903536D01*
X116890000Y-62900000D01*
X116890000Y-62300000D01*
X116891464Y-62296464D01*
X116893852Y-62295475D01*
X116893852Y-62221586D01*
X116893948Y-62220611D01*
X116894432Y-62218176D01*
X116894433Y-62218169D01*
X116924057Y-62069245D01*
X116924057Y-62069244D01*
X116924544Y-62066797D01*
X116924829Y-62065859D01*
X116925777Y-62063568D01*
X116925784Y-62063548D01*
X116983884Y-61923282D01*
X116983894Y-61923262D01*
X116984844Y-61920970D01*
X116985306Y-61920105D01*
X116986691Y-61918031D01*
X116986695Y-61918025D01*
X117071045Y-61791785D01*
X117071053Y-61791774D01*
X117072435Y-61789707D01*
X117073056Y-61788949D01*
X117074822Y-61787182D01*
X117074827Y-61787177D01*
X117182177Y-61679827D01*
X117182182Y-61679822D01*
X117183949Y-61678056D01*
X117184707Y-61677435D01*
X117186774Y-61676053D01*
X117186785Y-61676045D01*
X117313025Y-61591695D01*
X117313031Y-61591691D01*
X117315105Y-61590306D01*
X117315970Y-61589844D01*
X117318262Y-61588894D01*
X117318282Y-61588884D01*
X117458548Y-61530784D01*
X117458568Y-61530777D01*
X117460859Y-61529829D01*
X117461797Y-61529544D01*
X117464245Y-61529057D01*
X117613169Y-61499433D01*
X117613176Y-61499432D01*
X117615611Y-61498948D01*
X117616586Y-61498852D01*
X117773414Y-61498852D01*
X117774389Y-61498948D01*
G37*
G36*
X130474389Y-61498948D02*
G01*
X130476824Y-61499432D01*
X130476830Y-61499433D01*
X130594942Y-61522927D01*
X130628203Y-61529544D01*
X130629141Y-61529829D01*
X130631434Y-61530778D01*
X130631451Y-61530784D01*
X130771717Y-61588884D01*
X130771732Y-61588892D01*
X130774030Y-61589844D01*
X130774895Y-61590306D01*
X130776972Y-61591694D01*
X130776974Y-61591695D01*
X130903214Y-61676045D01*
X130903219Y-61676049D01*
X130905293Y-61677435D01*
X130906051Y-61678056D01*
X131016944Y-61788949D01*
X131017565Y-61789707D01*
X131018951Y-61791781D01*
X131018954Y-61791785D01*
X131053995Y-61844228D01*
X131104694Y-61920105D01*
X131105156Y-61920970D01*
X131106109Y-61923270D01*
X131106115Y-61923282D01*
X131164215Y-62063548D01*
X131164218Y-62063559D01*
X131165171Y-62065859D01*
X131165456Y-62066797D01*
X131196052Y-62220611D01*
X131196148Y-62221586D01*
X131196148Y-62295475D01*
X131198536Y-62296464D01*
X131200000Y-62300000D01*
X131200000Y-62900000D01*
X131198536Y-62903536D01*
X131196157Y-62905915D01*
X131196157Y-62939018D01*
X131195776Y-62940931D01*
X131193860Y-62945554D01*
X131193861Y-62945554D01*
X131169016Y-63005537D01*
X131165913Y-63013027D01*
X131164830Y-63014650D01*
X131109650Y-63069830D01*
X131108027Y-63070913D01*
X131035931Y-63100776D01*
X131034018Y-63101157D01*
X131000915Y-63101157D01*
X130998536Y-63103536D01*
X130995000Y-63105000D01*
X130984896Y-63105000D01*
X129805104Y-63105000D01*
X129795000Y-63105000D01*
X129791464Y-63103536D01*
X129789085Y-63101157D01*
X129760985Y-63101157D01*
X129755982Y-63101157D01*
X129754069Y-63100776D01*
X129749446Y-63098861D01*
X129749445Y-63098861D01*
X129686595Y-63072828D01*
X129686592Y-63072826D01*
X129681973Y-63070913D01*
X129680350Y-63069830D01*
X129625170Y-63014650D01*
X129624087Y-63013027D01*
X129622173Y-63008408D01*
X129622171Y-63008404D01*
X129596138Y-62945554D01*
X129596137Y-62945549D01*
X129594224Y-62940931D01*
X129593843Y-62939018D01*
X129593843Y-62905915D01*
X129591464Y-62903536D01*
X129590000Y-62900000D01*
X129590000Y-62300000D01*
X129591464Y-62296464D01*
X129593852Y-62295475D01*
X129593852Y-62221586D01*
X129593948Y-62220611D01*
X129594432Y-62218176D01*
X129594433Y-62218169D01*
X129624057Y-62069245D01*
X129624057Y-62069244D01*
X129624544Y-62066797D01*
X129624829Y-62065859D01*
X129625777Y-62063568D01*
X129625784Y-62063548D01*
X129683884Y-61923282D01*
X129683894Y-61923262D01*
X129684844Y-61920970D01*
X129685306Y-61920105D01*
X129686691Y-61918031D01*
X129686695Y-61918025D01*
X129771045Y-61791785D01*
X129771053Y-61791774D01*
X129772435Y-61789707D01*
X129773056Y-61788949D01*
X129774822Y-61787182D01*
X129774827Y-61787177D01*
X129882177Y-61679827D01*
X129882182Y-61679822D01*
X129883949Y-61678056D01*
X129884707Y-61677435D01*
X129886774Y-61676053D01*
X129886785Y-61676045D01*
X130013025Y-61591695D01*
X130013031Y-61591691D01*
X130015105Y-61590306D01*
X130015970Y-61589844D01*
X130018262Y-61588894D01*
X130018282Y-61588884D01*
X130158548Y-61530784D01*
X130158568Y-61530777D01*
X130160859Y-61529829D01*
X130161797Y-61529544D01*
X130164245Y-61529057D01*
X130313169Y-61499433D01*
X130313176Y-61499432D01*
X130315611Y-61498948D01*
X130316586Y-61498852D01*
X130473414Y-61498852D01*
X130474389Y-61498948D01*
G37*
G36*
X143174389Y-61498948D02*
G01*
X143176824Y-61499432D01*
X143176830Y-61499433D01*
X143294942Y-61522927D01*
X143328203Y-61529544D01*
X143329141Y-61529829D01*
X143331434Y-61530778D01*
X143331451Y-61530784D01*
X143471717Y-61588884D01*
X143471732Y-61588892D01*
X143474030Y-61589844D01*
X143474895Y-61590306D01*
X143476972Y-61591694D01*
X143476974Y-61591695D01*
X143603214Y-61676045D01*
X143603219Y-61676049D01*
X143605293Y-61677435D01*
X143606051Y-61678056D01*
X143716944Y-61788949D01*
X143717565Y-61789707D01*
X143718951Y-61791781D01*
X143718954Y-61791785D01*
X143753995Y-61844228D01*
X143804694Y-61920105D01*
X143805156Y-61920970D01*
X143806109Y-61923270D01*
X143806115Y-61923282D01*
X143864215Y-62063548D01*
X143864218Y-62063559D01*
X143865171Y-62065859D01*
X143865456Y-62066797D01*
X143896052Y-62220611D01*
X143896148Y-62221586D01*
X143896148Y-62295475D01*
X143898536Y-62296464D01*
X143900000Y-62300000D01*
X143900000Y-62900000D01*
X143898536Y-62903536D01*
X143896157Y-62905915D01*
X143896157Y-62939018D01*
X143895776Y-62940931D01*
X143893860Y-62945554D01*
X143893861Y-62945554D01*
X143869016Y-63005537D01*
X143865913Y-63013027D01*
X143864830Y-63014650D01*
X143809650Y-63069830D01*
X143808027Y-63070913D01*
X143735931Y-63100776D01*
X143734018Y-63101157D01*
X143700915Y-63101157D01*
X143698536Y-63103536D01*
X143695000Y-63105000D01*
X143684896Y-63105000D01*
X142505104Y-63105000D01*
X142495000Y-63105000D01*
X142491464Y-63103536D01*
X142489085Y-63101157D01*
X142460985Y-63101157D01*
X142455982Y-63101157D01*
X142454069Y-63100776D01*
X142449446Y-63098861D01*
X142449445Y-63098861D01*
X142386595Y-63072828D01*
X142386592Y-63072826D01*
X142381973Y-63070913D01*
X142380350Y-63069830D01*
X142325170Y-63014650D01*
X142324087Y-63013027D01*
X142322173Y-63008408D01*
X142322171Y-63008404D01*
X142296138Y-62945554D01*
X142296137Y-62945549D01*
X142294224Y-62940931D01*
X142293843Y-62939018D01*
X142293843Y-62905915D01*
X142291464Y-62903536D01*
X142290000Y-62900000D01*
X142290000Y-62300000D01*
X142291464Y-62296464D01*
X142293852Y-62295475D01*
X142293852Y-62221586D01*
X142293948Y-62220611D01*
X142294432Y-62218176D01*
X142294433Y-62218169D01*
X142324057Y-62069245D01*
X142324057Y-62069244D01*
X142324544Y-62066797D01*
X142324829Y-62065859D01*
X142325777Y-62063568D01*
X142325784Y-62063548D01*
X142383884Y-61923282D01*
X142383894Y-61923262D01*
X142384844Y-61920970D01*
X142385306Y-61920105D01*
X142386691Y-61918031D01*
X142386695Y-61918025D01*
X142471045Y-61791785D01*
X142471053Y-61791774D01*
X142472435Y-61789707D01*
X142473056Y-61788949D01*
X142474822Y-61787182D01*
X142474827Y-61787177D01*
X142582177Y-61679827D01*
X142582182Y-61679822D01*
X142583949Y-61678056D01*
X142584707Y-61677435D01*
X142586774Y-61676053D01*
X142586785Y-61676045D01*
X142713025Y-61591695D01*
X142713031Y-61591691D01*
X142715105Y-61590306D01*
X142715970Y-61589844D01*
X142718262Y-61588894D01*
X142718282Y-61588884D01*
X142858548Y-61530784D01*
X142858568Y-61530777D01*
X142860859Y-61529829D01*
X142861797Y-61529544D01*
X142864245Y-61529057D01*
X143013169Y-61499433D01*
X143013176Y-61499432D01*
X143015611Y-61498948D01*
X143016586Y-61498852D01*
X143173414Y-61498852D01*
X143174389Y-61498948D01*
G37*
G36*
X155874389Y-61498948D02*
G01*
X155876824Y-61499432D01*
X155876830Y-61499433D01*
X155994942Y-61522927D01*
X156028203Y-61529544D01*
X156029141Y-61529829D01*
X156031434Y-61530778D01*
X156031451Y-61530784D01*
X156171717Y-61588884D01*
X156171732Y-61588892D01*
X156174030Y-61589844D01*
X156174895Y-61590306D01*
X156176972Y-61591694D01*
X156176974Y-61591695D01*
X156303214Y-61676045D01*
X156303219Y-61676049D01*
X156305293Y-61677435D01*
X156306051Y-61678056D01*
X156416944Y-61788949D01*
X156417565Y-61789707D01*
X156418951Y-61791781D01*
X156418954Y-61791785D01*
X156453995Y-61844228D01*
X156504694Y-61920105D01*
X156505156Y-61920970D01*
X156506109Y-61923270D01*
X156506115Y-61923282D01*
X156564215Y-62063548D01*
X156564218Y-62063559D01*
X156565171Y-62065859D01*
X156565456Y-62066797D01*
X156596052Y-62220611D01*
X156596148Y-62221586D01*
X156596148Y-62295475D01*
X156598536Y-62296464D01*
X156600000Y-62300000D01*
X156600000Y-62900000D01*
X156598536Y-62903536D01*
X156596157Y-62905915D01*
X156596157Y-62939018D01*
X156595776Y-62940931D01*
X156593860Y-62945554D01*
X156593861Y-62945554D01*
X156569016Y-63005537D01*
X156565913Y-63013027D01*
X156564830Y-63014650D01*
X156509650Y-63069830D01*
X156508027Y-63070913D01*
X156435931Y-63100776D01*
X156434018Y-63101157D01*
X156400915Y-63101157D01*
X156398536Y-63103536D01*
X156395000Y-63105000D01*
X156384896Y-63105000D01*
X155205104Y-63105000D01*
X155195000Y-63105000D01*
X155191464Y-63103536D01*
X155189085Y-63101157D01*
X155160985Y-63101157D01*
X155155982Y-63101157D01*
X155154069Y-63100776D01*
X155149446Y-63098861D01*
X155149445Y-63098861D01*
X155086595Y-63072828D01*
X155086592Y-63072826D01*
X155081973Y-63070913D01*
X155080350Y-63069830D01*
X155025170Y-63014650D01*
X155024087Y-63013027D01*
X155022173Y-63008408D01*
X155022171Y-63008404D01*
X154996138Y-62945554D01*
X154996137Y-62945549D01*
X154994224Y-62940931D01*
X154993843Y-62939018D01*
X154993843Y-62905915D01*
X154991464Y-62903536D01*
X154990000Y-62900000D01*
X154990000Y-62300000D01*
X154991464Y-62296464D01*
X154993852Y-62295475D01*
X154993852Y-62221586D01*
X154993948Y-62220611D01*
X154994432Y-62218176D01*
X154994433Y-62218169D01*
X155024057Y-62069245D01*
X155024057Y-62069244D01*
X155024544Y-62066797D01*
X155024829Y-62065859D01*
X155025777Y-62063568D01*
X155025784Y-62063548D01*
X155083884Y-61923282D01*
X155083894Y-61923262D01*
X155084844Y-61920970D01*
X155085306Y-61920105D01*
X155086691Y-61918031D01*
X155086695Y-61918025D01*
X155171045Y-61791785D01*
X155171053Y-61791774D01*
X155172435Y-61789707D01*
X155173056Y-61788949D01*
X155174822Y-61787182D01*
X155174827Y-61787177D01*
X155282177Y-61679827D01*
X155282182Y-61679822D01*
X155283949Y-61678056D01*
X155284707Y-61677435D01*
X155286774Y-61676053D01*
X155286785Y-61676045D01*
X155413025Y-61591695D01*
X155413031Y-61591691D01*
X155415105Y-61590306D01*
X155415970Y-61589844D01*
X155418262Y-61588894D01*
X155418282Y-61588884D01*
X155558548Y-61530784D01*
X155558568Y-61530777D01*
X155560859Y-61529829D01*
X155561797Y-61529544D01*
X155564245Y-61529057D01*
X155713169Y-61499433D01*
X155713176Y-61499432D01*
X155715611Y-61498948D01*
X155716586Y-61498852D01*
X155873414Y-61498852D01*
X155874389Y-61498948D01*
G37*
G36*
X161551537Y-61515224D02*
G01*
X161616421Y-61558579D01*
X161659776Y-61623463D01*
X161675000Y-61700000D01*
X161675000Y-62900000D01*
X161659776Y-62976537D01*
X161616421Y-63041421D01*
X161551537Y-63084776D01*
X161475000Y-63100000D01*
X160275000Y-63100000D01*
X160198463Y-63084776D01*
X160133579Y-63041421D01*
X160090224Y-62976537D01*
X160075000Y-62900000D01*
X160075000Y-61700000D01*
X160090224Y-61623463D01*
X160133579Y-61558579D01*
X160198463Y-61515224D01*
X160275000Y-61500000D01*
X161475000Y-61500000D01*
X161551537Y-61515224D01*
G37*
G36*
X112847228Y-61534448D02*
G01*
X112992117Y-61594463D01*
X113122515Y-61681592D01*
X113233408Y-61792485D01*
X113320537Y-61922883D01*
X113380552Y-62067772D01*
X113411148Y-62221586D01*
X113411148Y-62378414D01*
X113380552Y-62532228D01*
X113320537Y-62677117D01*
X113233408Y-62807515D01*
X113122515Y-62918408D01*
X112992117Y-63005537D01*
X112847228Y-63065552D01*
X112693414Y-63096148D01*
X112536586Y-63096148D01*
X112382772Y-63065552D01*
X112237883Y-63005537D01*
X112107485Y-62918408D01*
X111996592Y-62807515D01*
X111909463Y-62677117D01*
X111849448Y-62532228D01*
X111818852Y-62378414D01*
X111818852Y-62221586D01*
X111849448Y-62067772D01*
X111909463Y-61922883D01*
X111996592Y-61792485D01*
X112107485Y-61681592D01*
X112237883Y-61594463D01*
X112382772Y-61534448D01*
X112536586Y-61503852D01*
X112693414Y-61503852D01*
X112847228Y-61534448D01*
G37*
G36*
X115387228Y-61534448D02*
G01*
X115532117Y-61594463D01*
X115662515Y-61681592D01*
X115773408Y-61792485D01*
X115860537Y-61922883D01*
X115920552Y-62067772D01*
X115951148Y-62221586D01*
X115951148Y-62378414D01*
X115920552Y-62532228D01*
X115860537Y-62677117D01*
X115773408Y-62807515D01*
X115662515Y-62918408D01*
X115532117Y-63005537D01*
X115387228Y-63065552D01*
X115233414Y-63096148D01*
X115076586Y-63096148D01*
X114922772Y-63065552D01*
X114777883Y-63005537D01*
X114647485Y-62918408D01*
X114536592Y-62807515D01*
X114449463Y-62677117D01*
X114389448Y-62532228D01*
X114358852Y-62378414D01*
X114358852Y-62221586D01*
X114389448Y-62067772D01*
X114449463Y-61922883D01*
X114536592Y-61792485D01*
X114647485Y-61681592D01*
X114777883Y-61594463D01*
X114922772Y-61534448D01*
X115076586Y-61503852D01*
X115233414Y-61503852D01*
X115387228Y-61534448D01*
G37*
G36*
X120467228Y-61534448D02*
G01*
X120612117Y-61594463D01*
X120742515Y-61681592D01*
X120853408Y-61792485D01*
X120940537Y-61922883D01*
X121000552Y-62067772D01*
X121031148Y-62221586D01*
X121031148Y-62378414D01*
X121000552Y-62532228D01*
X120940537Y-62677117D01*
X120853408Y-62807515D01*
X120742515Y-62918408D01*
X120612117Y-63005537D01*
X120467228Y-63065552D01*
X120313414Y-63096148D01*
X120156586Y-63096148D01*
X120002772Y-63065552D01*
X119857883Y-63005537D01*
X119727485Y-62918408D01*
X119616592Y-62807515D01*
X119529463Y-62677117D01*
X119469448Y-62532228D01*
X119438852Y-62378414D01*
X119438852Y-62221586D01*
X119469448Y-62067772D01*
X119529463Y-61922883D01*
X119616592Y-61792485D01*
X119727485Y-61681592D01*
X119857883Y-61594463D01*
X120002772Y-61534448D01*
X120156586Y-61503852D01*
X120313414Y-61503852D01*
X120467228Y-61534448D01*
G37*
G36*
X123007228Y-61534448D02*
G01*
X123152117Y-61594463D01*
X123282515Y-61681592D01*
X123393408Y-61792485D01*
X123480537Y-61922883D01*
X123540552Y-62067772D01*
X123571148Y-62221586D01*
X123571148Y-62378414D01*
X123540552Y-62532228D01*
X123480537Y-62677117D01*
X123393408Y-62807515D01*
X123282515Y-62918408D01*
X123152117Y-63005537D01*
X123007228Y-63065552D01*
X122853414Y-63096148D01*
X122696586Y-63096148D01*
X122542772Y-63065552D01*
X122397883Y-63005537D01*
X122267485Y-62918408D01*
X122156592Y-62807515D01*
X122069463Y-62677117D01*
X122009448Y-62532228D01*
X121978852Y-62378414D01*
X121978852Y-62221586D01*
X122009448Y-62067772D01*
X122069463Y-61922883D01*
X122156592Y-61792485D01*
X122267485Y-61681592D01*
X122397883Y-61594463D01*
X122542772Y-61534448D01*
X122696586Y-61503852D01*
X122853414Y-61503852D01*
X123007228Y-61534448D01*
G37*
G36*
X125547228Y-61534448D02*
G01*
X125692117Y-61594463D01*
X125822515Y-61681592D01*
X125933408Y-61792485D01*
X126020537Y-61922883D01*
X126080552Y-62067772D01*
X126111148Y-62221586D01*
X126111148Y-62378414D01*
X126080552Y-62532228D01*
X126020537Y-62677117D01*
X125933408Y-62807515D01*
X125822515Y-62918408D01*
X125692117Y-63005537D01*
X125547228Y-63065552D01*
X125393414Y-63096148D01*
X125236586Y-63096148D01*
X125082772Y-63065552D01*
X124937883Y-63005537D01*
X124807485Y-62918408D01*
X124696592Y-62807515D01*
X124609463Y-62677117D01*
X124549448Y-62532228D01*
X124518852Y-62378414D01*
X124518852Y-62221586D01*
X124549448Y-62067772D01*
X124609463Y-61922883D01*
X124696592Y-61792485D01*
X124807485Y-61681592D01*
X124937883Y-61594463D01*
X125082772Y-61534448D01*
X125236586Y-61503852D01*
X125393414Y-61503852D01*
X125547228Y-61534448D01*
G37*
G36*
X128087228Y-61534448D02*
G01*
X128232117Y-61594463D01*
X128362515Y-61681592D01*
X128473408Y-61792485D01*
X128560537Y-61922883D01*
X128620552Y-62067772D01*
X128651148Y-62221586D01*
X128651148Y-62378414D01*
X128620552Y-62532228D01*
X128560537Y-62677117D01*
X128473408Y-62807515D01*
X128362515Y-62918408D01*
X128232117Y-63005537D01*
X128087228Y-63065552D01*
X127933414Y-63096148D01*
X127776586Y-63096148D01*
X127622772Y-63065552D01*
X127477883Y-63005537D01*
X127347485Y-62918408D01*
X127236592Y-62807515D01*
X127149463Y-62677117D01*
X127089448Y-62532228D01*
X127058852Y-62378414D01*
X127058852Y-62221586D01*
X127089448Y-62067772D01*
X127149463Y-61922883D01*
X127236592Y-61792485D01*
X127347485Y-61681592D01*
X127477883Y-61594463D01*
X127622772Y-61534448D01*
X127776586Y-61503852D01*
X127933414Y-61503852D01*
X128087228Y-61534448D01*
G37*
G36*
X133167228Y-61534448D02*
G01*
X133312117Y-61594463D01*
X133442515Y-61681592D01*
X133553408Y-61792485D01*
X133640537Y-61922883D01*
X133700552Y-62067772D01*
X133731148Y-62221586D01*
X133731148Y-62378414D01*
X133700552Y-62532228D01*
X133640537Y-62677117D01*
X133553408Y-62807515D01*
X133442515Y-62918408D01*
X133312117Y-63005537D01*
X133167228Y-63065552D01*
X133013414Y-63096148D01*
X132856586Y-63096148D01*
X132702772Y-63065552D01*
X132557883Y-63005537D01*
X132427485Y-62918408D01*
X132316592Y-62807515D01*
X132229463Y-62677117D01*
X132169448Y-62532228D01*
X132138852Y-62378414D01*
X132138852Y-62221586D01*
X132169448Y-62067772D01*
X132229463Y-61922883D01*
X132316592Y-61792485D01*
X132427485Y-61681592D01*
X132557883Y-61594463D01*
X132702772Y-61534448D01*
X132856586Y-61503852D01*
X133013414Y-61503852D01*
X133167228Y-61534448D01*
G37*
G36*
X135707228Y-61534448D02*
G01*
X135852117Y-61594463D01*
X135982515Y-61681592D01*
X136093408Y-61792485D01*
X136180537Y-61922883D01*
X136240552Y-62067772D01*
X136271148Y-62221586D01*
X136271148Y-62378414D01*
X136240552Y-62532228D01*
X136180537Y-62677117D01*
X136093408Y-62807515D01*
X135982515Y-62918408D01*
X135852117Y-63005537D01*
X135707228Y-63065552D01*
X135553414Y-63096148D01*
X135396586Y-63096148D01*
X135242772Y-63065552D01*
X135097883Y-63005537D01*
X134967485Y-62918408D01*
X134856592Y-62807515D01*
X134769463Y-62677117D01*
X134709448Y-62532228D01*
X134678852Y-62378414D01*
X134678852Y-62221586D01*
X134709448Y-62067772D01*
X134769463Y-61922883D01*
X134856592Y-61792485D01*
X134967485Y-61681592D01*
X135097883Y-61594463D01*
X135242772Y-61534448D01*
X135396586Y-61503852D01*
X135553414Y-61503852D01*
X135707228Y-61534448D01*
G37*
G36*
X138247228Y-61534448D02*
G01*
X138392117Y-61594463D01*
X138522515Y-61681592D01*
X138633408Y-61792485D01*
X138720537Y-61922883D01*
X138780552Y-62067772D01*
X138811148Y-62221586D01*
X138811148Y-62378414D01*
X138780552Y-62532228D01*
X138720537Y-62677117D01*
X138633408Y-62807515D01*
X138522515Y-62918408D01*
X138392117Y-63005537D01*
X138247228Y-63065552D01*
X138093414Y-63096148D01*
X137936586Y-63096148D01*
X137782772Y-63065552D01*
X137637883Y-63005537D01*
X137507485Y-62918408D01*
X137396592Y-62807515D01*
X137309463Y-62677117D01*
X137249448Y-62532228D01*
X137218852Y-62378414D01*
X137218852Y-62221586D01*
X137249448Y-62067772D01*
X137309463Y-61922883D01*
X137396592Y-61792485D01*
X137507485Y-61681592D01*
X137637883Y-61594463D01*
X137782772Y-61534448D01*
X137936586Y-61503852D01*
X138093414Y-61503852D01*
X138247228Y-61534448D01*
G37*
G36*
X140787228Y-61534448D02*
G01*
X140932117Y-61594463D01*
X141062515Y-61681592D01*
X141173408Y-61792485D01*
X141260537Y-61922883D01*
X141320552Y-62067772D01*
X141351148Y-62221586D01*
X141351148Y-62378414D01*
X141320552Y-62532228D01*
X141260537Y-62677117D01*
X141173408Y-62807515D01*
X141062515Y-62918408D01*
X140932117Y-63005537D01*
X140787228Y-63065552D01*
X140633414Y-63096148D01*
X140476586Y-63096148D01*
X140322772Y-63065552D01*
X140177883Y-63005537D01*
X140047485Y-62918408D01*
X139936592Y-62807515D01*
X139849463Y-62677117D01*
X139789448Y-62532228D01*
X139758852Y-62378414D01*
X139758852Y-62221586D01*
X139789448Y-62067772D01*
X139849463Y-61922883D01*
X139936592Y-61792485D01*
X140047485Y-61681592D01*
X140177883Y-61594463D01*
X140322772Y-61534448D01*
X140476586Y-61503852D01*
X140633414Y-61503852D01*
X140787228Y-61534448D01*
G37*
G36*
X145867228Y-61534448D02*
G01*
X146012117Y-61594463D01*
X146142515Y-61681592D01*
X146253408Y-61792485D01*
X146340537Y-61922883D01*
X146400552Y-62067772D01*
X146431148Y-62221586D01*
X146431148Y-62378414D01*
X146400552Y-62532228D01*
X146340537Y-62677117D01*
X146253408Y-62807515D01*
X146142515Y-62918408D01*
X146012117Y-63005537D01*
X145867228Y-63065552D01*
X145713414Y-63096148D01*
X145556586Y-63096148D01*
X145402772Y-63065552D01*
X145257883Y-63005537D01*
X145127485Y-62918408D01*
X145016592Y-62807515D01*
X144929463Y-62677117D01*
X144869448Y-62532228D01*
X144838852Y-62378414D01*
X144838852Y-62221586D01*
X144869448Y-62067772D01*
X144929463Y-61922883D01*
X145016592Y-61792485D01*
X145127485Y-61681592D01*
X145257883Y-61594463D01*
X145402772Y-61534448D01*
X145556586Y-61503852D01*
X145713414Y-61503852D01*
X145867228Y-61534448D01*
G37*
G36*
X148407228Y-61534448D02*
G01*
X148552117Y-61594463D01*
X148682515Y-61681592D01*
X148793408Y-61792485D01*
X148880537Y-61922883D01*
X148940552Y-62067772D01*
X148971148Y-62221586D01*
X148971148Y-62378414D01*
X148940552Y-62532228D01*
X148880537Y-62677117D01*
X148793408Y-62807515D01*
X148682515Y-62918408D01*
X148552117Y-63005537D01*
X148407228Y-63065552D01*
X148253414Y-63096148D01*
X148096586Y-63096148D01*
X147942772Y-63065552D01*
X147797883Y-63005537D01*
X147667485Y-62918408D01*
X147556592Y-62807515D01*
X147469463Y-62677117D01*
X147409448Y-62532228D01*
X147378852Y-62378414D01*
X147378852Y-62221586D01*
X147409448Y-62067772D01*
X147469463Y-61922883D01*
X147556592Y-61792485D01*
X147667485Y-61681592D01*
X147797883Y-61594463D01*
X147942772Y-61534448D01*
X148096586Y-61503852D01*
X148253414Y-61503852D01*
X148407228Y-61534448D01*
G37*
G36*
X150947228Y-61534448D02*
G01*
X151092117Y-61594463D01*
X151222515Y-61681592D01*
X151333408Y-61792485D01*
X151420537Y-61922883D01*
X151480552Y-62067772D01*
X151511148Y-62221586D01*
X151511148Y-62378414D01*
X151480552Y-62532228D01*
X151420537Y-62677117D01*
X151333408Y-62807515D01*
X151222515Y-62918408D01*
X151092117Y-63005537D01*
X150947228Y-63065552D01*
X150793414Y-63096148D01*
X150636586Y-63096148D01*
X150482772Y-63065552D01*
X150337883Y-63005537D01*
X150207485Y-62918408D01*
X150096592Y-62807515D01*
X150009463Y-62677117D01*
X149949448Y-62532228D01*
X149918852Y-62378414D01*
X149918852Y-62221586D01*
X149949448Y-62067772D01*
X150009463Y-61922883D01*
X150096592Y-61792485D01*
X150207485Y-61681592D01*
X150337883Y-61594463D01*
X150482772Y-61534448D01*
X150636586Y-61503852D01*
X150793414Y-61503852D01*
X150947228Y-61534448D01*
G37*
G36*
X153487228Y-61534448D02*
G01*
X153632117Y-61594463D01*
X153762515Y-61681592D01*
X153873408Y-61792485D01*
X153960537Y-61922883D01*
X154020552Y-62067772D01*
X154051148Y-62221586D01*
X154051148Y-62378414D01*
X154020552Y-62532228D01*
X153960537Y-62677117D01*
X153873408Y-62807515D01*
X153762515Y-62918408D01*
X153632117Y-63005537D01*
X153487228Y-63065552D01*
X153333414Y-63096148D01*
X153176586Y-63096148D01*
X153022772Y-63065552D01*
X152877883Y-63005537D01*
X152747485Y-62918408D01*
X152636592Y-62807515D01*
X152549463Y-62677117D01*
X152489448Y-62532228D01*
X152458852Y-62378414D01*
X152458852Y-62221586D01*
X152489448Y-62067772D01*
X152549463Y-61922883D01*
X152636592Y-61792485D01*
X152747485Y-61681592D01*
X152877883Y-61594463D01*
X153022772Y-61534448D01*
X153176586Y-61503852D01*
X153333414Y-61503852D01*
X153487228Y-61534448D01*
G37*
G36*
X158567228Y-61534448D02*
G01*
X158712117Y-61594463D01*
X158842515Y-61681592D01*
X158953408Y-61792485D01*
X159040537Y-61922883D01*
X159100552Y-62067772D01*
X159131148Y-62221586D01*
X159131148Y-62378414D01*
X159100552Y-62532228D01*
X159040537Y-62677117D01*
X158953408Y-62807515D01*
X158842515Y-62918408D01*
X158712117Y-63005537D01*
X158567228Y-63065552D01*
X158413414Y-63096148D01*
X158256586Y-63096148D01*
X158102772Y-63065552D01*
X157957883Y-63005537D01*
X157827485Y-62918408D01*
X157716592Y-62807515D01*
X157629463Y-62677117D01*
X157569448Y-62532228D01*
X157538852Y-62378414D01*
X157538852Y-62221586D01*
X157569448Y-62067772D01*
X157629463Y-61922883D01*
X157716592Y-61792485D01*
X157827485Y-61681592D01*
X157957883Y-61594463D01*
X158102772Y-61534448D01*
X158256586Y-61503852D01*
X158413414Y-61503852D01*
X158567228Y-61534448D01*
G37*
G36*
X127604116Y-54600818D02*
G01*
X127655379Y-54606766D01*
X127672892Y-54614499D01*
X127695671Y-54619030D01*
X127720057Y-54635324D01*
X127740788Y-54644478D01*
X127754946Y-54658636D01*
X127776777Y-54673223D01*
X127791363Y-54695053D01*
X127805521Y-54709211D01*
X127814673Y-54729939D01*
X127830970Y-54754329D01*
X127835501Y-54777109D01*
X127843233Y-54794620D01*
X127849178Y-54845872D01*
X127850000Y-54850000D01*
X127850000Y-56100000D01*
X127849178Y-56104128D01*
X127843233Y-56155379D01*
X127835501Y-56172888D01*
X127830970Y-56195671D01*
X127814672Y-56220062D01*
X127805521Y-56240788D01*
X127791365Y-56254943D01*
X127776777Y-56276777D01*
X127754943Y-56291365D01*
X127740788Y-56305521D01*
X127720062Y-56314672D01*
X127695671Y-56330970D01*
X127672888Y-56335501D01*
X127655379Y-56343233D01*
X127604129Y-56349178D01*
X127600000Y-56350000D01*
X126800000Y-56350000D01*
X126795873Y-56349179D01*
X126744620Y-56343233D01*
X126727109Y-56335501D01*
X126704329Y-56330970D01*
X126679939Y-56314673D01*
X126659211Y-56305521D01*
X126645053Y-56291363D01*
X126623223Y-56276777D01*
X126608636Y-56254946D01*
X126594478Y-56240788D01*
X126585324Y-56220057D01*
X126569030Y-56195671D01*
X126564499Y-56172892D01*
X126556766Y-56155379D01*
X126550818Y-56104117D01*
X126550000Y-56100000D01*
X126550000Y-54850000D01*
X126550818Y-54845885D01*
X126556766Y-54794620D01*
X126564499Y-54777105D01*
X126569030Y-54754329D01*
X126585323Y-54729944D01*
X126594478Y-54709211D01*
X126608638Y-54695050D01*
X126623223Y-54673223D01*
X126645050Y-54658638D01*
X126659211Y-54644478D01*
X126679944Y-54635323D01*
X126704329Y-54619030D01*
X126727105Y-54614499D01*
X126744620Y-54606766D01*
X126795884Y-54600818D01*
X126800000Y-54600000D01*
X127600000Y-54600000D01*
X127604116Y-54600818D01*
G37*
G36*
X130704116Y-54600818D02*
G01*
X130755379Y-54606766D01*
X130772892Y-54614499D01*
X130795671Y-54619030D01*
X130820057Y-54635324D01*
X130840788Y-54644478D01*
X130854946Y-54658636D01*
X130876777Y-54673223D01*
X130891363Y-54695053D01*
X130905521Y-54709211D01*
X130914673Y-54729939D01*
X130930970Y-54754329D01*
X130935501Y-54777109D01*
X130943233Y-54794620D01*
X130949178Y-54845872D01*
X130950000Y-54850000D01*
X130950000Y-56100000D01*
X130949178Y-56104128D01*
X130943233Y-56155379D01*
X130935501Y-56172888D01*
X130930970Y-56195671D01*
X130914672Y-56220062D01*
X130905521Y-56240788D01*
X130891365Y-56254943D01*
X130876777Y-56276777D01*
X130854943Y-56291365D01*
X130840788Y-56305521D01*
X130820062Y-56314672D01*
X130795671Y-56330970D01*
X130772888Y-56335501D01*
X130755379Y-56343233D01*
X130704129Y-56349178D01*
X130700000Y-56350000D01*
X129900000Y-56350000D01*
X129895873Y-56349179D01*
X129844620Y-56343233D01*
X129827109Y-56335501D01*
X129804329Y-56330970D01*
X129779939Y-56314673D01*
X129759211Y-56305521D01*
X129745053Y-56291363D01*
X129723223Y-56276777D01*
X129708636Y-56254946D01*
X129694478Y-56240788D01*
X129685324Y-56220057D01*
X129669030Y-56195671D01*
X129664499Y-56172892D01*
X129656766Y-56155379D01*
X129650818Y-56104117D01*
X129650000Y-56100000D01*
X129650000Y-54850000D01*
X129650818Y-54845885D01*
X129656766Y-54794620D01*
X129664499Y-54777105D01*
X129669030Y-54754329D01*
X129685323Y-54729944D01*
X129694478Y-54709211D01*
X129708638Y-54695050D01*
X129723223Y-54673223D01*
X129745050Y-54658638D01*
X129759211Y-54644478D01*
X129779944Y-54635323D01*
X129804329Y-54619030D01*
X129827105Y-54614499D01*
X129844620Y-54606766D01*
X129895884Y-54600818D01*
X129900000Y-54600000D01*
X130700000Y-54600000D01*
X130704116Y-54600818D01*
G37*
G36*
X133554116Y-54825818D02*
G01*
X133605379Y-54831766D01*
X133622892Y-54839499D01*
X133645671Y-54844030D01*
X133670057Y-54860324D01*
X133690788Y-54869478D01*
X133704946Y-54883636D01*
X133726777Y-54898223D01*
X133741363Y-54920053D01*
X133755521Y-54934211D01*
X133764673Y-54954939D01*
X133780970Y-54979329D01*
X133785501Y-55002109D01*
X133793233Y-55019620D01*
X133799178Y-55070872D01*
X133800000Y-55075000D01*
X133800000Y-55875000D01*
X133799178Y-55879128D01*
X133793233Y-55930379D01*
X133785501Y-55947888D01*
X133780970Y-55970671D01*
X133764672Y-55995062D01*
X133755521Y-56015788D01*
X133741365Y-56029943D01*
X133726777Y-56051777D01*
X133704943Y-56066365D01*
X133690788Y-56080521D01*
X133670062Y-56089672D01*
X133645671Y-56105970D01*
X133622888Y-56110501D01*
X133605379Y-56118233D01*
X133554129Y-56124178D01*
X133550000Y-56125000D01*
X132300000Y-56125000D01*
X132295873Y-56124179D01*
X132244620Y-56118233D01*
X132227109Y-56110501D01*
X132204329Y-56105970D01*
X132179939Y-56089673D01*
X132159211Y-56080521D01*
X132145053Y-56066363D01*
X132123223Y-56051777D01*
X132108636Y-56029946D01*
X132094478Y-56015788D01*
X132085324Y-55995057D01*
X132069030Y-55970671D01*
X132064499Y-55947892D01*
X132056766Y-55930379D01*
X132050818Y-55879117D01*
X132050000Y-55875000D01*
X132050000Y-55075000D01*
X132050818Y-55070885D01*
X132056766Y-55019620D01*
X132064499Y-55002105D01*
X132069030Y-54979329D01*
X132085323Y-54954944D01*
X132094478Y-54934211D01*
X132108638Y-54920050D01*
X132123223Y-54898223D01*
X132145050Y-54883638D01*
X132159211Y-54869478D01*
X132179944Y-54860323D01*
X132204329Y-54844030D01*
X132227105Y-54839499D01*
X132244620Y-54831766D01*
X132295884Y-54825818D01*
X132300000Y-54825000D01*
X133550000Y-54825000D01*
X133554116Y-54825818D01*
G37*
G36*
X141405000Y-55950000D02*
G01*
X139705000Y-55950000D01*
X139705000Y-54250000D01*
X141405000Y-54250000D01*
X141405000Y-55950000D01*
G37*
G36*
X154105000Y-55950000D02*
G01*
X152405000Y-55950000D01*
X152405000Y-54250000D01*
X154105000Y-54250000D01*
X154105000Y-55950000D01*
G37*
G36*
X161725000Y-55950000D02*
G01*
X160025000Y-55950000D01*
X160025000Y-54250000D01*
X161725000Y-54250000D01*
X161725000Y-55950000D01*
G37*
G36*
X138261742Y-54286601D02*
G01*
X138415687Y-54350367D01*
X138554234Y-54442941D01*
X138672059Y-54560766D01*
X138764633Y-54699313D01*
X138828399Y-54853258D01*
X138860907Y-55016685D01*
X138860907Y-55183315D01*
X138828399Y-55346742D01*
X138764633Y-55500687D01*
X138672059Y-55639234D01*
X138554234Y-55757059D01*
X138415687Y-55849633D01*
X138261742Y-55913399D01*
X138098315Y-55945907D01*
X137931685Y-55945907D01*
X137768258Y-55913399D01*
X137614313Y-55849633D01*
X137475766Y-55757059D01*
X137357941Y-55639234D01*
X137265367Y-55500687D01*
X137201601Y-55346742D01*
X137169093Y-55183315D01*
X137169093Y-55016685D01*
X137201601Y-54853258D01*
X137265367Y-54699313D01*
X137357941Y-54560766D01*
X137475766Y-54442941D01*
X137614313Y-54350367D01*
X137768258Y-54286601D01*
X137931685Y-54254093D01*
X138098315Y-54254093D01*
X138261742Y-54286601D01*
G37*
G36*
X145881742Y-54286601D02*
G01*
X146035687Y-54350367D01*
X146174234Y-54442941D01*
X146292059Y-54560766D01*
X146384633Y-54699313D01*
X146448399Y-54853258D01*
X146480907Y-55016685D01*
X146480907Y-55183315D01*
X146448399Y-55346742D01*
X146384633Y-55500687D01*
X146292059Y-55639234D01*
X146174234Y-55757059D01*
X146035687Y-55849633D01*
X145881742Y-55913399D01*
X145718315Y-55945907D01*
X145551685Y-55945907D01*
X145388258Y-55913399D01*
X145234313Y-55849633D01*
X145095766Y-55757059D01*
X144977941Y-55639234D01*
X144885367Y-55500687D01*
X144821601Y-55346742D01*
X144789093Y-55183315D01*
X144789093Y-55016685D01*
X144821601Y-54853258D01*
X144885367Y-54699313D01*
X144977941Y-54560766D01*
X145095766Y-54442941D01*
X145234313Y-54350367D01*
X145388258Y-54286601D01*
X145551685Y-54254093D01*
X145718315Y-54254093D01*
X145881742Y-54286601D01*
G37*
G36*
X148421742Y-54286601D02*
G01*
X148575687Y-54350367D01*
X148714234Y-54442941D01*
X148832059Y-54560766D01*
X148924633Y-54699313D01*
X148988399Y-54853258D01*
X149020907Y-55016685D01*
X149020907Y-55183315D01*
X148988399Y-55346742D01*
X148924633Y-55500687D01*
X148832059Y-55639234D01*
X148714234Y-55757059D01*
X148575687Y-55849633D01*
X148421742Y-55913399D01*
X148258315Y-55945907D01*
X148091685Y-55945907D01*
X147928258Y-55913399D01*
X147774313Y-55849633D01*
X147635766Y-55757059D01*
X147517941Y-55639234D01*
X147425367Y-55500687D01*
X147361601Y-55346742D01*
X147329093Y-55183315D01*
X147329093Y-55016685D01*
X147361601Y-54853258D01*
X147425367Y-54699313D01*
X147517941Y-54560766D01*
X147635766Y-54442941D01*
X147774313Y-54350367D01*
X147928258Y-54286601D01*
X148091685Y-54254093D01*
X148258315Y-54254093D01*
X148421742Y-54286601D01*
G37*
G36*
X150961742Y-54286601D02*
G01*
X151115687Y-54350367D01*
X151254234Y-54442941D01*
X151372059Y-54560766D01*
X151464633Y-54699313D01*
X151528399Y-54853258D01*
X151560907Y-55016685D01*
X151560907Y-55183315D01*
X151528399Y-55346742D01*
X151464633Y-55500687D01*
X151372059Y-55639234D01*
X151254234Y-55757059D01*
X151115687Y-55849633D01*
X150961742Y-55913399D01*
X150798315Y-55945907D01*
X150631685Y-55945907D01*
X150468258Y-55913399D01*
X150314313Y-55849633D01*
X150175766Y-55757059D01*
X150057941Y-55639234D01*
X149965367Y-55500687D01*
X149901601Y-55346742D01*
X149869093Y-55183315D01*
X149869093Y-55016685D01*
X149901601Y-54853258D01*
X149965367Y-54699313D01*
X150057941Y-54560766D01*
X150175766Y-54442941D01*
X150314313Y-54350367D01*
X150468258Y-54286601D01*
X150631685Y-54254093D01*
X150798315Y-54254093D01*
X150961742Y-54286601D01*
G37*
G36*
X158581742Y-54286601D02*
G01*
X158735687Y-54350367D01*
X158874234Y-54442941D01*
X158992059Y-54560766D01*
X159084633Y-54699313D01*
X159148399Y-54853258D01*
X159180907Y-55016685D01*
X159180907Y-55183315D01*
X159148399Y-55346742D01*
X159084633Y-55500687D01*
X158992059Y-55639234D01*
X158874234Y-55757059D01*
X158735687Y-55849633D01*
X158581742Y-55913399D01*
X158418315Y-55945907D01*
X158251685Y-55945907D01*
X158088258Y-55913399D01*
X157934313Y-55849633D01*
X157795766Y-55757059D01*
X157677941Y-55639234D01*
X157585367Y-55500687D01*
X157521601Y-55346742D01*
X157489093Y-55183315D01*
X157489093Y-55016685D01*
X157521601Y-54853258D01*
X157585367Y-54699313D01*
X157677941Y-54560766D01*
X157795766Y-54442941D01*
X157934313Y-54350367D01*
X158088258Y-54286601D01*
X158251685Y-54254093D01*
X158418315Y-54254093D01*
X158581742Y-54286601D01*
G37*
G36*
X114300000Y-55675000D02*
G01*
X112600000Y-55675000D01*
X112600000Y-53975000D01*
X114300000Y-53975000D01*
X114300000Y-55675000D01*
G37*
G36*
X108616742Y-54011601D02*
G01*
X108770687Y-54075367D01*
X108909234Y-54167941D01*
X109027059Y-54285766D01*
X109119633Y-54424313D01*
X109183399Y-54578258D01*
X109215907Y-54741685D01*
X109215907Y-54908315D01*
X109183399Y-55071742D01*
X109119633Y-55225687D01*
X109027059Y-55364234D01*
X108909234Y-55482059D01*
X108770687Y-55574633D01*
X108616742Y-55638399D01*
X108453315Y-55670907D01*
X108286685Y-55670907D01*
X108123258Y-55638399D01*
X107969313Y-55574633D01*
X107830766Y-55482059D01*
X107712941Y-55364234D01*
X107620367Y-55225687D01*
X107556601Y-55071742D01*
X107524093Y-54908315D01*
X107524093Y-54741685D01*
X107556601Y-54578258D01*
X107620367Y-54424313D01*
X107712941Y-54285766D01*
X107830766Y-54167941D01*
X107969313Y-54075367D01*
X108123258Y-54011601D01*
X108286685Y-53979093D01*
X108453315Y-53979093D01*
X108616742Y-54011601D01*
G37*
G36*
X111156742Y-54011601D02*
G01*
X111310687Y-54075367D01*
X111449234Y-54167941D01*
X111567059Y-54285766D01*
X111659633Y-54424313D01*
X111723399Y-54578258D01*
X111755907Y-54741685D01*
X111755907Y-54908315D01*
X111723399Y-55071742D01*
X111659633Y-55225687D01*
X111567059Y-55364234D01*
X111449234Y-55482059D01*
X111310687Y-55574633D01*
X111156742Y-55638399D01*
X110993315Y-55670907D01*
X110826685Y-55670907D01*
X110663258Y-55638399D01*
X110509313Y-55574633D01*
X110370766Y-55482059D01*
X110252941Y-55364234D01*
X110160367Y-55225687D01*
X110096601Y-55071742D01*
X110064093Y-54908315D01*
X110064093Y-54741685D01*
X110096601Y-54578258D01*
X110160367Y-54424313D01*
X110252941Y-54285766D01*
X110370766Y-54167941D01*
X110509313Y-54075367D01*
X110663258Y-54011601D01*
X110826685Y-53979093D01*
X110993315Y-53979093D01*
X111156742Y-54011601D01*
G37*
G36*
X133554116Y-51725818D02*
G01*
X133605379Y-51731766D01*
X133622892Y-51739499D01*
X133645671Y-51744030D01*
X133670057Y-51760324D01*
X133690788Y-51769478D01*
X133704946Y-51783636D01*
X133726777Y-51798223D01*
X133741363Y-51820053D01*
X133755521Y-51834211D01*
X133764673Y-51854939D01*
X133780970Y-51879329D01*
X133785501Y-51902109D01*
X133793233Y-51919620D01*
X133799178Y-51970872D01*
X133800000Y-51975000D01*
X133800000Y-52775000D01*
X133799178Y-52779128D01*
X133793233Y-52830379D01*
X133785501Y-52847888D01*
X133780970Y-52870671D01*
X133764672Y-52895062D01*
X133755521Y-52915788D01*
X133741365Y-52929943D01*
X133726777Y-52951777D01*
X133704943Y-52966365D01*
X133690788Y-52980521D01*
X133670062Y-52989672D01*
X133645671Y-53005970D01*
X133622888Y-53010501D01*
X133605379Y-53018233D01*
X133554129Y-53024178D01*
X133550000Y-53025000D01*
X132300000Y-53025000D01*
X132295873Y-53024179D01*
X132244620Y-53018233D01*
X132227109Y-53010501D01*
X132204329Y-53005970D01*
X132179939Y-52989673D01*
X132159211Y-52980521D01*
X132145053Y-52966363D01*
X132123223Y-52951777D01*
X132108636Y-52929946D01*
X132094478Y-52915788D01*
X132085324Y-52895057D01*
X132069030Y-52870671D01*
X132064499Y-52847892D01*
X132056766Y-52830379D01*
X132050818Y-52779117D01*
X132050000Y-52775000D01*
X132050000Y-51975000D01*
X132050818Y-51970885D01*
X132056766Y-51919620D01*
X132064499Y-51902105D01*
X132069030Y-51879329D01*
X132085323Y-51854944D01*
X132094478Y-51834211D01*
X132108638Y-51820050D01*
X132123223Y-51798223D01*
X132145050Y-51783638D01*
X132159211Y-51769478D01*
X132179944Y-51760323D01*
X132204329Y-51744030D01*
X132227105Y-51739499D01*
X132244620Y-51731766D01*
X132295884Y-51725818D01*
X132300000Y-51725000D01*
X133550000Y-51725000D01*
X133554116Y-51725818D01*
G37*
G36*
X109220000Y-49620000D02*
G01*
X107520000Y-49620000D01*
X107520000Y-47920000D01*
X109220000Y-47920000D01*
X109220000Y-49620000D01*
G37*
G36*
X111156742Y-47956601D02*
G01*
X111310687Y-48020367D01*
X111449234Y-48112941D01*
X111567059Y-48230766D01*
X111659633Y-48369313D01*
X111723399Y-48523258D01*
X111755907Y-48686685D01*
X111755907Y-48853315D01*
X111723399Y-49016742D01*
X111659633Y-49170687D01*
X111567059Y-49309234D01*
X111449234Y-49427059D01*
X111310687Y-49519633D01*
X111156742Y-49583399D01*
X110993315Y-49615907D01*
X110826685Y-49615907D01*
X110663258Y-49583399D01*
X110509313Y-49519633D01*
X110370766Y-49427059D01*
X110252941Y-49309234D01*
X110160367Y-49170687D01*
X110096601Y-49016742D01*
X110064093Y-48853315D01*
X110064093Y-48686685D01*
X110096601Y-48523258D01*
X110160367Y-48369313D01*
X110252941Y-48230766D01*
X110370766Y-48112941D01*
X110509313Y-48020367D01*
X110663258Y-47956601D01*
X110826685Y-47924093D01*
X110993315Y-47924093D01*
X111156742Y-47956601D01*
G37*
G36*
X113696742Y-47956601D02*
G01*
X113850687Y-48020367D01*
X113989234Y-48112941D01*
X114107059Y-48230766D01*
X114199633Y-48369313D01*
X114263399Y-48523258D01*
X114295907Y-48686685D01*
X114295907Y-48853315D01*
X114263399Y-49016742D01*
X114199633Y-49170687D01*
X114107059Y-49309234D01*
X113989234Y-49427059D01*
X113850687Y-49519633D01*
X113696742Y-49583399D01*
X113533315Y-49615907D01*
X113366685Y-49615907D01*
X113203258Y-49583399D01*
X113049313Y-49519633D01*
X112910766Y-49427059D01*
X112792941Y-49309234D01*
X112700367Y-49170687D01*
X112636601Y-49016742D01*
X112604093Y-48853315D01*
X112604093Y-48686685D01*
X112636601Y-48523258D01*
X112700367Y-48369313D01*
X112792941Y-48230766D01*
X112910766Y-48112941D01*
X113049313Y-48020367D01*
X113203258Y-47956601D01*
X113366685Y-47924093D01*
X113533315Y-47924093D01*
X113696742Y-47956601D01*
G37*
G36*
X116236742Y-47956601D02*
G01*
X116390687Y-48020367D01*
X116529234Y-48112941D01*
X116647059Y-48230766D01*
X116739633Y-48369313D01*
X116803399Y-48523258D01*
X116835907Y-48686685D01*
X116835907Y-48853315D01*
X116803399Y-49016742D01*
X116739633Y-49170687D01*
X116647059Y-49309234D01*
X116529234Y-49427059D01*
X116390687Y-49519633D01*
X116236742Y-49583399D01*
X116073315Y-49615907D01*
X115906685Y-49615907D01*
X115743258Y-49583399D01*
X115589313Y-49519633D01*
X115450766Y-49427059D01*
X115332941Y-49309234D01*
X115240367Y-49170687D01*
X115176601Y-49016742D01*
X115144093Y-48853315D01*
X115144093Y-48686685D01*
X115176601Y-48523258D01*
X115240367Y-48369313D01*
X115332941Y-48230766D01*
X115450766Y-48112941D01*
X115589313Y-48020367D01*
X115743258Y-47956601D01*
X115906685Y-47924093D01*
X116073315Y-47924093D01*
X116236742Y-47956601D01*
G37*
G36*
X118776742Y-47956601D02*
G01*
X118930687Y-48020367D01*
X119069234Y-48112941D01*
X119187059Y-48230766D01*
X119279633Y-48369313D01*
X119343399Y-48523258D01*
X119375907Y-48686685D01*
X119375907Y-48853315D01*
X119343399Y-49016742D01*
X119279633Y-49170687D01*
X119187059Y-49309234D01*
X119069234Y-49427059D01*
X118930687Y-49519633D01*
X118776742Y-49583399D01*
X118613315Y-49615907D01*
X118446685Y-49615907D01*
X118283258Y-49583399D01*
X118129313Y-49519633D01*
X117990766Y-49427059D01*
X117872941Y-49309234D01*
X117780367Y-49170687D01*
X117716601Y-49016742D01*
X117684093Y-48853315D01*
X117684093Y-48686685D01*
X117716601Y-48523258D01*
X117780367Y-48369313D01*
X117872941Y-48230766D01*
X117990766Y-48112941D01*
X118129313Y-48020367D01*
X118283258Y-47956601D01*
X118446685Y-47924093D01*
X118613315Y-47924093D01*
X118776742Y-47956601D01*
G37*
G36*
X121316742Y-47956601D02*
G01*
X121470687Y-48020367D01*
X121609234Y-48112941D01*
X121727059Y-48230766D01*
X121819633Y-48369313D01*
X121883399Y-48523258D01*
X121915907Y-48686685D01*
X121915907Y-48853315D01*
X121883399Y-49016742D01*
X121819633Y-49170687D01*
X121727059Y-49309234D01*
X121609234Y-49427059D01*
X121470687Y-49519633D01*
X121316742Y-49583399D01*
X121153315Y-49615907D01*
X120986685Y-49615907D01*
X120823258Y-49583399D01*
X120669313Y-49519633D01*
X120530766Y-49427059D01*
X120412941Y-49309234D01*
X120320367Y-49170687D01*
X120256601Y-49016742D01*
X120224093Y-48853315D01*
X120224093Y-48686685D01*
X120256601Y-48523258D01*
X120320367Y-48369313D01*
X120412941Y-48230766D01*
X120530766Y-48112941D01*
X120669313Y-48020367D01*
X120823258Y-47956601D01*
X120986685Y-47924093D01*
X121153315Y-47924093D01*
X121316742Y-47956601D01*
G37*
G36*
X123856742Y-47956601D02*
G01*
X124010687Y-48020367D01*
X124149234Y-48112941D01*
X124267059Y-48230766D01*
X124359633Y-48369313D01*
X124423399Y-48523258D01*
X124455907Y-48686685D01*
X124455907Y-48853315D01*
X124423399Y-49016742D01*
X124359633Y-49170687D01*
X124267059Y-49309234D01*
X124149234Y-49427059D01*
X124010687Y-49519633D01*
X123856742Y-49583399D01*
X123693315Y-49615907D01*
X123526685Y-49615907D01*
X123363258Y-49583399D01*
X123209313Y-49519633D01*
X123070766Y-49427059D01*
X122952941Y-49309234D01*
X122860367Y-49170687D01*
X122796601Y-49016742D01*
X122764093Y-48853315D01*
X122764093Y-48686685D01*
X122796601Y-48523258D01*
X122860367Y-48369313D01*
X122952941Y-48230766D01*
X123070766Y-48112941D01*
X123209313Y-48020367D01*
X123363258Y-47956601D01*
X123526685Y-47924093D01*
X123693315Y-47924093D01*
X123856742Y-47956601D01*
G37*
G36*
X126396742Y-47956601D02*
G01*
X126550687Y-48020367D01*
X126689234Y-48112941D01*
X126807059Y-48230766D01*
X126899633Y-48369313D01*
X126963399Y-48523258D01*
X126995907Y-48686685D01*
X126995907Y-48853315D01*
X126963399Y-49016742D01*
X126899633Y-49170687D01*
X126807059Y-49309234D01*
X126689234Y-49427059D01*
X126550687Y-49519633D01*
X126396742Y-49583399D01*
X126233315Y-49615907D01*
X126066685Y-49615907D01*
X125903258Y-49583399D01*
X125749313Y-49519633D01*
X125610766Y-49427059D01*
X125492941Y-49309234D01*
X125400367Y-49170687D01*
X125336601Y-49016742D01*
X125304093Y-48853315D01*
X125304093Y-48686685D01*
X125336601Y-48523258D01*
X125400367Y-48369313D01*
X125492941Y-48230766D01*
X125610766Y-48112941D01*
X125749313Y-48020367D01*
X125903258Y-47956601D01*
X126066685Y-47924093D01*
X126233315Y-47924093D01*
X126396742Y-47956601D01*
G37*
G36*
X128936742Y-47956601D02*
G01*
X129090687Y-48020367D01*
X129229234Y-48112941D01*
X129347059Y-48230766D01*
X129439633Y-48369313D01*
X129503399Y-48523258D01*
X129535907Y-48686685D01*
X129535907Y-48853315D01*
X129503399Y-49016742D01*
X129439633Y-49170687D01*
X129347059Y-49309234D01*
X129229234Y-49427059D01*
X129090687Y-49519633D01*
X128936742Y-49583399D01*
X128773315Y-49615907D01*
X128606685Y-49615907D01*
X128443258Y-49583399D01*
X128289313Y-49519633D01*
X128150766Y-49427059D01*
X128032941Y-49309234D01*
X127940367Y-49170687D01*
X127876601Y-49016742D01*
X127844093Y-48853315D01*
X127844093Y-48686685D01*
X127876601Y-48523258D01*
X127940367Y-48369313D01*
X128032941Y-48230766D01*
X128150766Y-48112941D01*
X128289313Y-48020367D01*
X128443258Y-47956601D01*
X128606685Y-47924093D01*
X128773315Y-47924093D01*
X128936742Y-47956601D01*
G37*
G36*
X131476742Y-47956601D02*
G01*
X131630687Y-48020367D01*
X131769234Y-48112941D01*
X131887059Y-48230766D01*
X131979633Y-48369313D01*
X132043399Y-48523258D01*
X132075907Y-48686685D01*
X132075907Y-48853315D01*
X132043399Y-49016742D01*
X131979633Y-49170687D01*
X131887059Y-49309234D01*
X131769234Y-49427059D01*
X131630687Y-49519633D01*
X131476742Y-49583399D01*
X131313315Y-49615907D01*
X131146685Y-49615907D01*
X130983258Y-49583399D01*
X130829313Y-49519633D01*
X130690766Y-49427059D01*
X130572941Y-49309234D01*
X130480367Y-49170687D01*
X130416601Y-49016742D01*
X130384093Y-48853315D01*
X130384093Y-48686685D01*
X130416601Y-48523258D01*
X130480367Y-48369313D01*
X130572941Y-48230766D01*
X130690766Y-48112941D01*
X130829313Y-48020367D01*
X130983258Y-47956601D01*
X131146685Y-47924093D01*
X131313315Y-47924093D01*
X131476742Y-47956601D01*
G37*
G36*
X134016742Y-47956601D02*
G01*
X134170687Y-48020367D01*
X134309234Y-48112941D01*
X134427059Y-48230766D01*
X134519633Y-48369313D01*
X134583399Y-48523258D01*
X134615907Y-48686685D01*
X134615907Y-48853315D01*
X134583399Y-49016742D01*
X134519633Y-49170687D01*
X134427059Y-49309234D01*
X134309234Y-49427059D01*
X134170687Y-49519633D01*
X134016742Y-49583399D01*
X133853315Y-49615907D01*
X133686685Y-49615907D01*
X133523258Y-49583399D01*
X133369313Y-49519633D01*
X133230766Y-49427059D01*
X133112941Y-49309234D01*
X133020367Y-49170687D01*
X132956601Y-49016742D01*
X132924093Y-48853315D01*
X132924093Y-48686685D01*
X132956601Y-48523258D01*
X133020367Y-48369313D01*
X133112941Y-48230766D01*
X133230766Y-48112941D01*
X133369313Y-48020367D01*
X133523258Y-47956601D01*
X133686685Y-47924093D01*
X133853315Y-47924093D01*
X134016742Y-47956601D01*
G37*
G36*
X136556742Y-47956601D02*
G01*
X136710687Y-48020367D01*
X136849234Y-48112941D01*
X136967059Y-48230766D01*
X137059633Y-48369313D01*
X137123399Y-48523258D01*
X137155907Y-48686685D01*
X137155907Y-48853315D01*
X137123399Y-49016742D01*
X137059633Y-49170687D01*
X136967059Y-49309234D01*
X136849234Y-49427059D01*
X136710687Y-49519633D01*
X136556742Y-49583399D01*
X136393315Y-49615907D01*
X136226685Y-49615907D01*
X136063258Y-49583399D01*
X135909313Y-49519633D01*
X135770766Y-49427059D01*
X135652941Y-49309234D01*
X135560367Y-49170687D01*
X135496601Y-49016742D01*
X135464093Y-48853315D01*
X135464093Y-48686685D01*
X135496601Y-48523258D01*
X135560367Y-48369313D01*
X135652941Y-48230766D01*
X135770766Y-48112941D01*
X135909313Y-48020367D01*
X136063258Y-47956601D01*
X136226685Y-47924093D01*
X136393315Y-47924093D01*
X136556742Y-47956601D01*
G37*
G36*
X139096742Y-47956601D02*
G01*
X139250687Y-48020367D01*
X139389234Y-48112941D01*
X139507059Y-48230766D01*
X139599633Y-48369313D01*
X139663399Y-48523258D01*
X139695907Y-48686685D01*
X139695907Y-48853315D01*
X139663399Y-49016742D01*
X139599633Y-49170687D01*
X139507059Y-49309234D01*
X139389234Y-49427059D01*
X139250687Y-49519633D01*
X139096742Y-49583399D01*
X138933315Y-49615907D01*
X138766685Y-49615907D01*
X138603258Y-49583399D01*
X138449313Y-49519633D01*
X138310766Y-49427059D01*
X138192941Y-49309234D01*
X138100367Y-49170687D01*
X138036601Y-49016742D01*
X138004093Y-48853315D01*
X138004093Y-48686685D01*
X138036601Y-48523258D01*
X138100367Y-48369313D01*
X138192941Y-48230766D01*
X138310766Y-48112941D01*
X138449313Y-48020367D01*
X138603258Y-47956601D01*
X138766685Y-47924093D01*
X138933315Y-47924093D01*
X139096742Y-47956601D01*
G37*
G36*
X141636742Y-47956601D02*
G01*
X141790687Y-48020367D01*
X141929234Y-48112941D01*
X142047059Y-48230766D01*
X142139633Y-48369313D01*
X142203399Y-48523258D01*
X142235907Y-48686685D01*
X142235907Y-48853315D01*
X142203399Y-49016742D01*
X142139633Y-49170687D01*
X142047059Y-49309234D01*
X141929234Y-49427059D01*
X141790687Y-49519633D01*
X141636742Y-49583399D01*
X141473315Y-49615907D01*
X141306685Y-49615907D01*
X141143258Y-49583399D01*
X140989313Y-49519633D01*
X140850766Y-49427059D01*
X140732941Y-49309234D01*
X140640367Y-49170687D01*
X140576601Y-49016742D01*
X140544093Y-48853315D01*
X140544093Y-48686685D01*
X140576601Y-48523258D01*
X140640367Y-48369313D01*
X140732941Y-48230766D01*
X140850766Y-48112941D01*
X140989313Y-48020367D01*
X141143258Y-47956601D01*
X141306685Y-47924093D01*
X141473315Y-47924093D01*
X141636742Y-47956601D01*
G37*
G36*
X144176742Y-47956601D02*
G01*
X144330687Y-48020367D01*
X144469234Y-48112941D01*
X144587059Y-48230766D01*
X144679633Y-48369313D01*
X144743399Y-48523258D01*
X144775907Y-48686685D01*
X144775907Y-48853315D01*
X144743399Y-49016742D01*
X144679633Y-49170687D01*
X144587059Y-49309234D01*
X144469234Y-49427059D01*
X144330687Y-49519633D01*
X144176742Y-49583399D01*
X144013315Y-49615907D01*
X143846685Y-49615907D01*
X143683258Y-49583399D01*
X143529313Y-49519633D01*
X143390766Y-49427059D01*
X143272941Y-49309234D01*
X143180367Y-49170687D01*
X143116601Y-49016742D01*
X143084093Y-48853315D01*
X143084093Y-48686685D01*
X143116601Y-48523258D01*
X143180367Y-48369313D01*
X143272941Y-48230766D01*
X143390766Y-48112941D01*
X143529313Y-48020367D01*
X143683258Y-47956601D01*
X143846685Y-47924093D01*
X144013315Y-47924093D01*
X144176742Y-47956601D01*
G37*
G36*
X146716742Y-47956601D02*
G01*
X146870687Y-48020367D01*
X147009234Y-48112941D01*
X147127059Y-48230766D01*
X147219633Y-48369313D01*
X147283399Y-48523258D01*
X147315907Y-48686685D01*
X147315907Y-48853315D01*
X147283399Y-49016742D01*
X147219633Y-49170687D01*
X147127059Y-49309234D01*
X147009234Y-49427059D01*
X146870687Y-49519633D01*
X146716742Y-49583399D01*
X146553315Y-49615907D01*
X146386685Y-49615907D01*
X146223258Y-49583399D01*
X146069313Y-49519633D01*
X145930766Y-49427059D01*
X145812941Y-49309234D01*
X145720367Y-49170687D01*
X145656601Y-49016742D01*
X145624093Y-48853315D01*
X145624093Y-48686685D01*
X145656601Y-48523258D01*
X145720367Y-48369313D01*
X145812941Y-48230766D01*
X145930766Y-48112941D01*
X146069313Y-48020367D01*
X146223258Y-47956601D01*
X146386685Y-47924093D01*
X146553315Y-47924093D01*
X146716742Y-47956601D01*
G37*
G36*
X149256742Y-47956601D02*
G01*
X149410687Y-48020367D01*
X149549234Y-48112941D01*
X149667059Y-48230766D01*
X149759633Y-48369313D01*
X149823399Y-48523258D01*
X149855907Y-48686685D01*
X149855907Y-48853315D01*
X149823399Y-49016742D01*
X149759633Y-49170687D01*
X149667059Y-49309234D01*
X149549234Y-49427059D01*
X149410687Y-49519633D01*
X149256742Y-49583399D01*
X149093315Y-49615907D01*
X148926685Y-49615907D01*
X148763258Y-49583399D01*
X148609313Y-49519633D01*
X148470766Y-49427059D01*
X148352941Y-49309234D01*
X148260367Y-49170687D01*
X148196601Y-49016742D01*
X148164093Y-48853315D01*
X148164093Y-48686685D01*
X148196601Y-48523258D01*
X148260367Y-48369313D01*
X148352941Y-48230766D01*
X148470766Y-48112941D01*
X148609313Y-48020367D01*
X148763258Y-47956601D01*
X148926685Y-47924093D01*
X149093315Y-47924093D01*
X149256742Y-47956601D01*
G37*
G36*
X151796742Y-47956601D02*
G01*
X151950687Y-48020367D01*
X152089234Y-48112941D01*
X152207059Y-48230766D01*
X152299633Y-48369313D01*
X152363399Y-48523258D01*
X152395907Y-48686685D01*
X152395907Y-48853315D01*
X152363399Y-49016742D01*
X152299633Y-49170687D01*
X152207059Y-49309234D01*
X152089234Y-49427059D01*
X151950687Y-49519633D01*
X151796742Y-49583399D01*
X151633315Y-49615907D01*
X151466685Y-49615907D01*
X151303258Y-49583399D01*
X151149313Y-49519633D01*
X151010766Y-49427059D01*
X150892941Y-49309234D01*
X150800367Y-49170687D01*
X150736601Y-49016742D01*
X150704093Y-48853315D01*
X150704093Y-48686685D01*
X150736601Y-48523258D01*
X150800367Y-48369313D01*
X150892941Y-48230766D01*
X151010766Y-48112941D01*
X151149313Y-48020367D01*
X151303258Y-47956601D01*
X151466685Y-47924093D01*
X151633315Y-47924093D01*
X151796742Y-47956601D01*
G37*
G36*
X154336742Y-47956601D02*
G01*
X154490687Y-48020367D01*
X154629234Y-48112941D01*
X154747059Y-48230766D01*
X154839633Y-48369313D01*
X154903399Y-48523258D01*
X154935907Y-48686685D01*
X154935907Y-48853315D01*
X154903399Y-49016742D01*
X154839633Y-49170687D01*
X154747059Y-49309234D01*
X154629234Y-49427059D01*
X154490687Y-49519633D01*
X154336742Y-49583399D01*
X154173315Y-49615907D01*
X154006685Y-49615907D01*
X153843258Y-49583399D01*
X153689313Y-49519633D01*
X153550766Y-49427059D01*
X153432941Y-49309234D01*
X153340367Y-49170687D01*
X153276601Y-49016742D01*
X153244093Y-48853315D01*
X153244093Y-48686685D01*
X153276601Y-48523258D01*
X153340367Y-48369313D01*
X153432941Y-48230766D01*
X153550766Y-48112941D01*
X153689313Y-48020367D01*
X153843258Y-47956601D01*
X154006685Y-47924093D01*
X154173315Y-47924093D01*
X154336742Y-47956601D01*
G37*
G36*
X156876742Y-47956601D02*
G01*
X157030687Y-48020367D01*
X157169234Y-48112941D01*
X157287059Y-48230766D01*
X157379633Y-48369313D01*
X157443399Y-48523258D01*
X157475907Y-48686685D01*
X157475907Y-48853315D01*
X157443399Y-49016742D01*
X157379633Y-49170687D01*
X157287059Y-49309234D01*
X157169234Y-49427059D01*
X157030687Y-49519633D01*
X156876742Y-49583399D01*
X156713315Y-49615907D01*
X156546685Y-49615907D01*
X156383258Y-49583399D01*
X156229313Y-49519633D01*
X156090766Y-49427059D01*
X155972941Y-49309234D01*
X155880367Y-49170687D01*
X155816601Y-49016742D01*
X155784093Y-48853315D01*
X155784093Y-48686685D01*
X155816601Y-48523258D01*
X155880367Y-48369313D01*
X155972941Y-48230766D01*
X156090766Y-48112941D01*
X156229313Y-48020367D01*
X156383258Y-47956601D01*
X156546685Y-47924093D01*
X156713315Y-47924093D01*
X156876742Y-47956601D01*
G37*
G36*
X91654116Y-47200818D02*
G01*
X91705379Y-47206766D01*
X91722892Y-47214499D01*
X91745671Y-47219030D01*
X91770057Y-47235324D01*
X91790788Y-47244478D01*
X91804946Y-47258636D01*
X91826777Y-47273223D01*
X91841363Y-47295053D01*
X91855521Y-47309211D01*
X91864673Y-47329939D01*
X91880970Y-47354329D01*
X91885501Y-47377109D01*
X91893233Y-47394620D01*
X91899178Y-47445872D01*
X91900000Y-47450000D01*
X91900000Y-48750000D01*
X91899178Y-48754128D01*
X91893233Y-48805379D01*
X91885501Y-48822888D01*
X91880970Y-48845671D01*
X91864672Y-48870062D01*
X91855521Y-48890788D01*
X91841365Y-48904943D01*
X91826777Y-48926777D01*
X91804943Y-48941365D01*
X91790788Y-48955521D01*
X91770062Y-48964672D01*
X91745671Y-48980970D01*
X91722888Y-48985501D01*
X91705379Y-48993233D01*
X91654129Y-48999178D01*
X91650000Y-49000000D01*
X90950000Y-49000000D01*
X90945873Y-48999179D01*
X90894620Y-48993233D01*
X90877109Y-48985501D01*
X90854329Y-48980970D01*
X90829939Y-48964673D01*
X90809211Y-48955521D01*
X90795053Y-48941363D01*
X90773223Y-48926777D01*
X90758636Y-48904946D01*
X90744478Y-48890788D01*
X90735324Y-48870057D01*
X90719030Y-48845671D01*
X90714499Y-48822892D01*
X90706766Y-48805379D01*
X90700818Y-48754117D01*
X90700000Y-48750000D01*
X90700000Y-47450000D01*
X90700818Y-47445885D01*
X90706766Y-47394620D01*
X90714499Y-47377105D01*
X90719030Y-47354329D01*
X90735323Y-47329944D01*
X90744478Y-47309211D01*
X90758638Y-47295050D01*
X90773223Y-47273223D01*
X90795050Y-47258638D01*
X90809211Y-47244478D01*
X90829944Y-47235323D01*
X90854329Y-47219030D01*
X90877105Y-47214499D01*
X90894620Y-47206766D01*
X90945884Y-47200818D01*
X90950000Y-47200000D01*
X91650000Y-47200000D01*
X91654116Y-47200818D01*
G37*
G36*
X99254116Y-47200818D02*
G01*
X99305379Y-47206766D01*
X99322892Y-47214499D01*
X99345671Y-47219030D01*
X99370057Y-47235324D01*
X99390788Y-47244478D01*
X99404946Y-47258636D01*
X99426777Y-47273223D01*
X99441363Y-47295053D01*
X99455521Y-47309211D01*
X99464673Y-47329939D01*
X99480970Y-47354329D01*
X99485501Y-47377109D01*
X99493233Y-47394620D01*
X99499178Y-47445872D01*
X99500000Y-47450000D01*
X99500000Y-48750000D01*
X99499178Y-48754128D01*
X99493233Y-48805379D01*
X99485501Y-48822888D01*
X99480970Y-48845671D01*
X99464672Y-48870062D01*
X99455521Y-48890788D01*
X99441365Y-48904943D01*
X99426777Y-48926777D01*
X99404943Y-48941365D01*
X99390788Y-48955521D01*
X99370062Y-48964672D01*
X99345671Y-48980970D01*
X99322888Y-48985501D01*
X99305379Y-48993233D01*
X99254129Y-48999178D01*
X99250000Y-49000000D01*
X98550000Y-49000000D01*
X98545873Y-48999179D01*
X98494620Y-48993233D01*
X98477109Y-48985501D01*
X98454329Y-48980970D01*
X98429939Y-48964673D01*
X98409211Y-48955521D01*
X98395053Y-48941363D01*
X98373223Y-48926777D01*
X98358636Y-48904946D01*
X98344478Y-48890788D01*
X98335324Y-48870057D01*
X98319030Y-48845671D01*
X98314499Y-48822892D01*
X98306766Y-48805379D01*
X98300818Y-48754117D01*
X98300000Y-48750000D01*
X98300000Y-47450000D01*
X98300818Y-47445885D01*
X98306766Y-47394620D01*
X98314499Y-47377105D01*
X98319030Y-47354329D01*
X98335323Y-47329944D01*
X98344478Y-47309211D01*
X98358638Y-47295050D01*
X98373223Y-47273223D01*
X98395050Y-47258638D01*
X98409211Y-47244478D01*
X98429944Y-47235323D01*
X98454329Y-47219030D01*
X98477105Y-47214499D01*
X98494620Y-47206766D01*
X98545884Y-47200818D01*
X98550000Y-47200000D01*
X99250000Y-47200000D01*
X99254116Y-47200818D01*
G37*
G36*
X103815151Y-46187301D02*
G01*
X104016623Y-46252763D01*
X104205373Y-46348936D01*
X104376755Y-46473452D01*
X104526548Y-46623245D01*
X104651064Y-46794627D01*
X104747237Y-46983377D01*
X104812699Y-47184849D01*
X104845838Y-47394080D01*
X104845838Y-47605920D01*
X104812699Y-47815151D01*
X104747237Y-48016623D01*
X104651064Y-48205373D01*
X104526548Y-48376755D01*
X104376755Y-48526548D01*
X104205373Y-48651064D01*
X104016623Y-48747237D01*
X103815151Y-48812699D01*
X103605920Y-48845838D01*
X103394080Y-48845838D01*
X103184849Y-48812699D01*
X102983377Y-48747237D01*
X102794627Y-48651064D01*
X102623245Y-48526548D01*
X102473452Y-48376755D01*
X102348936Y-48205373D01*
X102252763Y-48016623D01*
X102187301Y-47815151D01*
X102154162Y-47605920D01*
X102154162Y-47394080D01*
X102187301Y-47184849D01*
X102252763Y-46983377D01*
X102348936Y-46794627D01*
X102473452Y-46623245D01*
X102623245Y-46473452D01*
X102794627Y-46348936D01*
X102983377Y-46252763D01*
X103184849Y-46187301D01*
X103394080Y-46154162D01*
X103605920Y-46154162D01*
X103815151Y-46187301D01*
G37*
G36*
X161815151Y-46187301D02*
G01*
X162016623Y-46252763D01*
X162205373Y-46348936D01*
X162376755Y-46473452D01*
X162526548Y-46623245D01*
X162651064Y-46794627D01*
X162747237Y-46983377D01*
X162812699Y-47184849D01*
X162845838Y-47394080D01*
X162845838Y-47605920D01*
X162812699Y-47815151D01*
X162747237Y-48016623D01*
X162651064Y-48205373D01*
X162526548Y-48376755D01*
X162376755Y-48526548D01*
X162205373Y-48651064D01*
X162016623Y-48747237D01*
X161815151Y-48812699D01*
X161605920Y-48845838D01*
X161394080Y-48845838D01*
X161184849Y-48812699D01*
X160983377Y-48747237D01*
X160794627Y-48651064D01*
X160623245Y-48526548D01*
X160473452Y-48376755D01*
X160348936Y-48205373D01*
X160252763Y-48016623D01*
X160187301Y-47815151D01*
X160154162Y-47605920D01*
X160154162Y-47394080D01*
X160187301Y-47184849D01*
X160252763Y-46983377D01*
X160348936Y-46794627D01*
X160473452Y-46623245D01*
X160623245Y-46473452D01*
X160794627Y-46348936D01*
X160983377Y-46252763D01*
X161184849Y-46187301D01*
X161394080Y-46154162D01*
X161605920Y-46154162D01*
X161815151Y-46187301D01*
G37*
G36*
X108616742Y-45416601D02*
G01*
X108770687Y-45480367D01*
X108909234Y-45572941D01*
X109027059Y-45690766D01*
X109119633Y-45829313D01*
X109183399Y-45983258D01*
X109215907Y-46146685D01*
X109215907Y-46313315D01*
X109183399Y-46476742D01*
X109119633Y-46630687D01*
X109027059Y-46769234D01*
X108909234Y-46887059D01*
X108770687Y-46979633D01*
X108616742Y-47043399D01*
X108453315Y-47075907D01*
X108286685Y-47075907D01*
X108123258Y-47043399D01*
X107969313Y-46979633D01*
X107830766Y-46887059D01*
X107712941Y-46769234D01*
X107620367Y-46630687D01*
X107556601Y-46476742D01*
X107524093Y-46313315D01*
X107524093Y-46146685D01*
X107556601Y-45983258D01*
X107620367Y-45829313D01*
X107712941Y-45690766D01*
X107830766Y-45572941D01*
X107969313Y-45480367D01*
X108123258Y-45416601D01*
X108286685Y-45384093D01*
X108453315Y-45384093D01*
X108616742Y-45416601D01*
G37*
G36*
X111156742Y-45416601D02*
G01*
X111310687Y-45480367D01*
X111449234Y-45572941D01*
X111567059Y-45690766D01*
X111659633Y-45829313D01*
X111723399Y-45983258D01*
X111755907Y-46146685D01*
X111755907Y-46313315D01*
X111723399Y-46476742D01*
X111659633Y-46630687D01*
X111567059Y-46769234D01*
X111449234Y-46887059D01*
X111310687Y-46979633D01*
X111156742Y-47043399D01*
X110993315Y-47075907D01*
X110826685Y-47075907D01*
X110663258Y-47043399D01*
X110509313Y-46979633D01*
X110370766Y-46887059D01*
X110252941Y-46769234D01*
X110160367Y-46630687D01*
X110096601Y-46476742D01*
X110064093Y-46313315D01*
X110064093Y-46146685D01*
X110096601Y-45983258D01*
X110160367Y-45829313D01*
X110252941Y-45690766D01*
X110370766Y-45572941D01*
X110509313Y-45480367D01*
X110663258Y-45416601D01*
X110826685Y-45384093D01*
X110993315Y-45384093D01*
X111156742Y-45416601D01*
G37*
G36*
X113696742Y-45416601D02*
G01*
X113850687Y-45480367D01*
X113989234Y-45572941D01*
X114107059Y-45690766D01*
X114199633Y-45829313D01*
X114263399Y-45983258D01*
X114295907Y-46146685D01*
X114295907Y-46313315D01*
X114263399Y-46476742D01*
X114199633Y-46630687D01*
X114107059Y-46769234D01*
X113989234Y-46887059D01*
X113850687Y-46979633D01*
X113696742Y-47043399D01*
X113533315Y-47075907D01*
X113366685Y-47075907D01*
X113203258Y-47043399D01*
X113049313Y-46979633D01*
X112910766Y-46887059D01*
X112792941Y-46769234D01*
X112700367Y-46630687D01*
X112636601Y-46476742D01*
X112604093Y-46313315D01*
X112604093Y-46146685D01*
X112636601Y-45983258D01*
X112700367Y-45829313D01*
X112792941Y-45690766D01*
X112910766Y-45572941D01*
X113049313Y-45480367D01*
X113203258Y-45416601D01*
X113366685Y-45384093D01*
X113533315Y-45384093D01*
X113696742Y-45416601D01*
G37*
G36*
X116236742Y-45416601D02*
G01*
X116390687Y-45480367D01*
X116529234Y-45572941D01*
X116647059Y-45690766D01*
X116739633Y-45829313D01*
X116803399Y-45983258D01*
X116835907Y-46146685D01*
X116835907Y-46313315D01*
X116803399Y-46476742D01*
X116739633Y-46630687D01*
X116647059Y-46769234D01*
X116529234Y-46887059D01*
X116390687Y-46979633D01*
X116236742Y-47043399D01*
X116073315Y-47075907D01*
X115906685Y-47075907D01*
X115743258Y-47043399D01*
X115589313Y-46979633D01*
X115450766Y-46887059D01*
X115332941Y-46769234D01*
X115240367Y-46630687D01*
X115176601Y-46476742D01*
X115144093Y-46313315D01*
X115144093Y-46146685D01*
X115176601Y-45983258D01*
X115240367Y-45829313D01*
X115332941Y-45690766D01*
X115450766Y-45572941D01*
X115589313Y-45480367D01*
X115743258Y-45416601D01*
X115906685Y-45384093D01*
X116073315Y-45384093D01*
X116236742Y-45416601D01*
G37*
G36*
X118776742Y-45416601D02*
G01*
X118930687Y-45480367D01*
X119069234Y-45572941D01*
X119187059Y-45690766D01*
X119279633Y-45829313D01*
X119343399Y-45983258D01*
X119375907Y-46146685D01*
X119375907Y-46313315D01*
X119343399Y-46476742D01*
X119279633Y-46630687D01*
X119187059Y-46769234D01*
X119069234Y-46887059D01*
X118930687Y-46979633D01*
X118776742Y-47043399D01*
X118613315Y-47075907D01*
X118446685Y-47075907D01*
X118283258Y-47043399D01*
X118129313Y-46979633D01*
X117990766Y-46887059D01*
X117872941Y-46769234D01*
X117780367Y-46630687D01*
X117716601Y-46476742D01*
X117684093Y-46313315D01*
X117684093Y-46146685D01*
X117716601Y-45983258D01*
X117780367Y-45829313D01*
X117872941Y-45690766D01*
X117990766Y-45572941D01*
X118129313Y-45480367D01*
X118283258Y-45416601D01*
X118446685Y-45384093D01*
X118613315Y-45384093D01*
X118776742Y-45416601D01*
G37*
G36*
X121316742Y-45416601D02*
G01*
X121470687Y-45480367D01*
X121609234Y-45572941D01*
X121727059Y-45690766D01*
X121819633Y-45829313D01*
X121883399Y-45983258D01*
X121915907Y-46146685D01*
X121915907Y-46313315D01*
X121883399Y-46476742D01*
X121819633Y-46630687D01*
X121727059Y-46769234D01*
X121609234Y-46887059D01*
X121470687Y-46979633D01*
X121316742Y-47043399D01*
X121153315Y-47075907D01*
X120986685Y-47075907D01*
X120823258Y-47043399D01*
X120669313Y-46979633D01*
X120530766Y-46887059D01*
X120412941Y-46769234D01*
X120320367Y-46630687D01*
X120256601Y-46476742D01*
X120224093Y-46313315D01*
X120224093Y-46146685D01*
X120256601Y-45983258D01*
X120320367Y-45829313D01*
X120412941Y-45690766D01*
X120530766Y-45572941D01*
X120669313Y-45480367D01*
X120823258Y-45416601D01*
X120986685Y-45384093D01*
X121153315Y-45384093D01*
X121316742Y-45416601D01*
G37*
G36*
X123856742Y-45416601D02*
G01*
X124010687Y-45480367D01*
X124149234Y-45572941D01*
X124267059Y-45690766D01*
X124359633Y-45829313D01*
X124423399Y-45983258D01*
X124455907Y-46146685D01*
X124455907Y-46313315D01*
X124423399Y-46476742D01*
X124359633Y-46630687D01*
X124267059Y-46769234D01*
X124149234Y-46887059D01*
X124010687Y-46979633D01*
X123856742Y-47043399D01*
X123693315Y-47075907D01*
X123526685Y-47075907D01*
X123363258Y-47043399D01*
X123209313Y-46979633D01*
X123070766Y-46887059D01*
X122952941Y-46769234D01*
X122860367Y-46630687D01*
X122796601Y-46476742D01*
X122764093Y-46313315D01*
X122764093Y-46146685D01*
X122796601Y-45983258D01*
X122860367Y-45829313D01*
X122952941Y-45690766D01*
X123070766Y-45572941D01*
X123209313Y-45480367D01*
X123363258Y-45416601D01*
X123526685Y-45384093D01*
X123693315Y-45384093D01*
X123856742Y-45416601D01*
G37*
G36*
X126396742Y-45416601D02*
G01*
X126550687Y-45480367D01*
X126689234Y-45572941D01*
X126807059Y-45690766D01*
X126899633Y-45829313D01*
X126963399Y-45983258D01*
X126995907Y-46146685D01*
X126995907Y-46313315D01*
X126963399Y-46476742D01*
X126899633Y-46630687D01*
X126807059Y-46769234D01*
X126689234Y-46887059D01*
X126550687Y-46979633D01*
X126396742Y-47043399D01*
X126233315Y-47075907D01*
X126066685Y-47075907D01*
X125903258Y-47043399D01*
X125749313Y-46979633D01*
X125610766Y-46887059D01*
X125492941Y-46769234D01*
X125400367Y-46630687D01*
X125336601Y-46476742D01*
X125304093Y-46313315D01*
X125304093Y-46146685D01*
X125336601Y-45983258D01*
X125400367Y-45829313D01*
X125492941Y-45690766D01*
X125610766Y-45572941D01*
X125749313Y-45480367D01*
X125903258Y-45416601D01*
X126066685Y-45384093D01*
X126233315Y-45384093D01*
X126396742Y-45416601D01*
G37*
G36*
X128936742Y-45416601D02*
G01*
X129090687Y-45480367D01*
X129229234Y-45572941D01*
X129347059Y-45690766D01*
X129439633Y-45829313D01*
X129503399Y-45983258D01*
X129535907Y-46146685D01*
X129535907Y-46313315D01*
X129503399Y-46476742D01*
X129439633Y-46630687D01*
X129347059Y-46769234D01*
X129229234Y-46887059D01*
X129090687Y-46979633D01*
X128936742Y-47043399D01*
X128773315Y-47075907D01*
X128606685Y-47075907D01*
X128443258Y-47043399D01*
X128289313Y-46979633D01*
X128150766Y-46887059D01*
X128032941Y-46769234D01*
X127940367Y-46630687D01*
X127876601Y-46476742D01*
X127844093Y-46313315D01*
X127844093Y-46146685D01*
X127876601Y-45983258D01*
X127940367Y-45829313D01*
X128032941Y-45690766D01*
X128150766Y-45572941D01*
X128289313Y-45480367D01*
X128443258Y-45416601D01*
X128606685Y-45384093D01*
X128773315Y-45384093D01*
X128936742Y-45416601D01*
G37*
G36*
X131476742Y-45416601D02*
G01*
X131630687Y-45480367D01*
X131769234Y-45572941D01*
X131887059Y-45690766D01*
X131979633Y-45829313D01*
X132043399Y-45983258D01*
X132075907Y-46146685D01*
X132075907Y-46313315D01*
X132043399Y-46476742D01*
X131979633Y-46630687D01*
X131887059Y-46769234D01*
X131769234Y-46887059D01*
X131630687Y-46979633D01*
X131476742Y-47043399D01*
X131313315Y-47075907D01*
X131146685Y-47075907D01*
X130983258Y-47043399D01*
X130829313Y-46979633D01*
X130690766Y-46887059D01*
X130572941Y-46769234D01*
X130480367Y-46630687D01*
X130416601Y-46476742D01*
X130384093Y-46313315D01*
X130384093Y-46146685D01*
X130416601Y-45983258D01*
X130480367Y-45829313D01*
X130572941Y-45690766D01*
X130690766Y-45572941D01*
X130829313Y-45480367D01*
X130983258Y-45416601D01*
X131146685Y-45384093D01*
X131313315Y-45384093D01*
X131476742Y-45416601D01*
G37*
G36*
X134016742Y-45416601D02*
G01*
X134170687Y-45480367D01*
X134309234Y-45572941D01*
X134427059Y-45690766D01*
X134519633Y-45829313D01*
X134583399Y-45983258D01*
X134615907Y-46146685D01*
X134615907Y-46313315D01*
X134583399Y-46476742D01*
X134519633Y-46630687D01*
X134427059Y-46769234D01*
X134309234Y-46887059D01*
X134170687Y-46979633D01*
X134016742Y-47043399D01*
X133853315Y-47075907D01*
X133686685Y-47075907D01*
X133523258Y-47043399D01*
X133369313Y-46979633D01*
X133230766Y-46887059D01*
X133112941Y-46769234D01*
X133020367Y-46630687D01*
X132956601Y-46476742D01*
X132924093Y-46313315D01*
X132924093Y-46146685D01*
X132956601Y-45983258D01*
X133020367Y-45829313D01*
X133112941Y-45690766D01*
X133230766Y-45572941D01*
X133369313Y-45480367D01*
X133523258Y-45416601D01*
X133686685Y-45384093D01*
X133853315Y-45384093D01*
X134016742Y-45416601D01*
G37*
G36*
X136556742Y-45416601D02*
G01*
X136710687Y-45480367D01*
X136849234Y-45572941D01*
X136967059Y-45690766D01*
X137059633Y-45829313D01*
X137123399Y-45983258D01*
X137155907Y-46146685D01*
X137155907Y-46313315D01*
X137123399Y-46476742D01*
X137059633Y-46630687D01*
X136967059Y-46769234D01*
X136849234Y-46887059D01*
X136710687Y-46979633D01*
X136556742Y-47043399D01*
X136393315Y-47075907D01*
X136226685Y-47075907D01*
X136063258Y-47043399D01*
X135909313Y-46979633D01*
X135770766Y-46887059D01*
X135652941Y-46769234D01*
X135560367Y-46630687D01*
X135496601Y-46476742D01*
X135464093Y-46313315D01*
X135464093Y-46146685D01*
X135496601Y-45983258D01*
X135560367Y-45829313D01*
X135652941Y-45690766D01*
X135770766Y-45572941D01*
X135909313Y-45480367D01*
X136063258Y-45416601D01*
X136226685Y-45384093D01*
X136393315Y-45384093D01*
X136556742Y-45416601D01*
G37*
G36*
X139096742Y-45416601D02*
G01*
X139250687Y-45480367D01*
X139389234Y-45572941D01*
X139507059Y-45690766D01*
X139599633Y-45829313D01*
X139663399Y-45983258D01*
X139695907Y-46146685D01*
X139695907Y-46313315D01*
X139663399Y-46476742D01*
X139599633Y-46630687D01*
X139507059Y-46769234D01*
X139389234Y-46887059D01*
X139250687Y-46979633D01*
X139096742Y-47043399D01*
X138933315Y-47075907D01*
X138766685Y-47075907D01*
X138603258Y-47043399D01*
X138449313Y-46979633D01*
X138310766Y-46887059D01*
X138192941Y-46769234D01*
X138100367Y-46630687D01*
X138036601Y-46476742D01*
X138004093Y-46313315D01*
X138004093Y-46146685D01*
X138036601Y-45983258D01*
X138100367Y-45829313D01*
X138192941Y-45690766D01*
X138310766Y-45572941D01*
X138449313Y-45480367D01*
X138603258Y-45416601D01*
X138766685Y-45384093D01*
X138933315Y-45384093D01*
X139096742Y-45416601D01*
G37*
G36*
X141636742Y-45416601D02*
G01*
X141790687Y-45480367D01*
X141929234Y-45572941D01*
X142047059Y-45690766D01*
X142139633Y-45829313D01*
X142203399Y-45983258D01*
X142235907Y-46146685D01*
X142235907Y-46313315D01*
X142203399Y-46476742D01*
X142139633Y-46630687D01*
X142047059Y-46769234D01*
X141929234Y-46887059D01*
X141790687Y-46979633D01*
X141636742Y-47043399D01*
X141473315Y-47075907D01*
X141306685Y-47075907D01*
X141143258Y-47043399D01*
X140989313Y-46979633D01*
X140850766Y-46887059D01*
X140732941Y-46769234D01*
X140640367Y-46630687D01*
X140576601Y-46476742D01*
X140544093Y-46313315D01*
X140544093Y-46146685D01*
X140576601Y-45983258D01*
X140640367Y-45829313D01*
X140732941Y-45690766D01*
X140850766Y-45572941D01*
X140989313Y-45480367D01*
X141143258Y-45416601D01*
X141306685Y-45384093D01*
X141473315Y-45384093D01*
X141636742Y-45416601D01*
G37*
G36*
X144176742Y-45416601D02*
G01*
X144330687Y-45480367D01*
X144469234Y-45572941D01*
X144587059Y-45690766D01*
X144679633Y-45829313D01*
X144743399Y-45983258D01*
X144775907Y-46146685D01*
X144775907Y-46313315D01*
X144743399Y-46476742D01*
X144679633Y-46630687D01*
X144587059Y-46769234D01*
X144469234Y-46887059D01*
X144330687Y-46979633D01*
X144176742Y-47043399D01*
X144013315Y-47075907D01*
X143846685Y-47075907D01*
X143683258Y-47043399D01*
X143529313Y-46979633D01*
X143390766Y-46887059D01*
X143272941Y-46769234D01*
X143180367Y-46630687D01*
X143116601Y-46476742D01*
X143084093Y-46313315D01*
X143084093Y-46146685D01*
X143116601Y-45983258D01*
X143180367Y-45829313D01*
X143272941Y-45690766D01*
X143390766Y-45572941D01*
X143529313Y-45480367D01*
X143683258Y-45416601D01*
X143846685Y-45384093D01*
X144013315Y-45384093D01*
X144176742Y-45416601D01*
G37*
G36*
X146716742Y-45416601D02*
G01*
X146870687Y-45480367D01*
X147009234Y-45572941D01*
X147127059Y-45690766D01*
X147219633Y-45829313D01*
X147283399Y-45983258D01*
X147315907Y-46146685D01*
X147315907Y-46313315D01*
X147283399Y-46476742D01*
X147219633Y-46630687D01*
X147127059Y-46769234D01*
X147009234Y-46887059D01*
X146870687Y-46979633D01*
X146716742Y-47043399D01*
X146553315Y-47075907D01*
X146386685Y-47075907D01*
X146223258Y-47043399D01*
X146069313Y-46979633D01*
X145930766Y-46887059D01*
X145812941Y-46769234D01*
X145720367Y-46630687D01*
X145656601Y-46476742D01*
X145624093Y-46313315D01*
X145624093Y-46146685D01*
X145656601Y-45983258D01*
X145720367Y-45829313D01*
X145812941Y-45690766D01*
X145930766Y-45572941D01*
X146069313Y-45480367D01*
X146223258Y-45416601D01*
X146386685Y-45384093D01*
X146553315Y-45384093D01*
X146716742Y-45416601D01*
G37*
G36*
X149256742Y-45416601D02*
G01*
X149410687Y-45480367D01*
X149549234Y-45572941D01*
X149667059Y-45690766D01*
X149759633Y-45829313D01*
X149823399Y-45983258D01*
X149855907Y-46146685D01*
X149855907Y-46313315D01*
X149823399Y-46476742D01*
X149759633Y-46630687D01*
X149667059Y-46769234D01*
X149549234Y-46887059D01*
X149410687Y-46979633D01*
X149256742Y-47043399D01*
X149093315Y-47075907D01*
X148926685Y-47075907D01*
X148763258Y-47043399D01*
X148609313Y-46979633D01*
X148470766Y-46887059D01*
X148352941Y-46769234D01*
X148260367Y-46630687D01*
X148196601Y-46476742D01*
X148164093Y-46313315D01*
X148164093Y-46146685D01*
X148196601Y-45983258D01*
X148260367Y-45829313D01*
X148352941Y-45690766D01*
X148470766Y-45572941D01*
X148609313Y-45480367D01*
X148763258Y-45416601D01*
X148926685Y-45384093D01*
X149093315Y-45384093D01*
X149256742Y-45416601D01*
G37*
G36*
X151796742Y-45416601D02*
G01*
X151950687Y-45480367D01*
X152089234Y-45572941D01*
X152207059Y-45690766D01*
X152299633Y-45829313D01*
X152363399Y-45983258D01*
X152395907Y-46146685D01*
X152395907Y-46313315D01*
X152363399Y-46476742D01*
X152299633Y-46630687D01*
X152207059Y-46769234D01*
X152089234Y-46887059D01*
X151950687Y-46979633D01*
X151796742Y-47043399D01*
X151633315Y-47075907D01*
X151466685Y-47075907D01*
X151303258Y-47043399D01*
X151149313Y-46979633D01*
X151010766Y-46887059D01*
X150892941Y-46769234D01*
X150800367Y-46630687D01*
X150736601Y-46476742D01*
X150704093Y-46313315D01*
X150704093Y-46146685D01*
X150736601Y-45983258D01*
X150800367Y-45829313D01*
X150892941Y-45690766D01*
X151010766Y-45572941D01*
X151149313Y-45480367D01*
X151303258Y-45416601D01*
X151466685Y-45384093D01*
X151633315Y-45384093D01*
X151796742Y-45416601D01*
G37*
G36*
X154336742Y-45416601D02*
G01*
X154490687Y-45480367D01*
X154629234Y-45572941D01*
X154747059Y-45690766D01*
X154839633Y-45829313D01*
X154903399Y-45983258D01*
X154935907Y-46146685D01*
X154935907Y-46313315D01*
X154903399Y-46476742D01*
X154839633Y-46630687D01*
X154747059Y-46769234D01*
X154629234Y-46887059D01*
X154490687Y-46979633D01*
X154336742Y-47043399D01*
X154173315Y-47075907D01*
X154006685Y-47075907D01*
X153843258Y-47043399D01*
X153689313Y-46979633D01*
X153550766Y-46887059D01*
X153432941Y-46769234D01*
X153340367Y-46630687D01*
X153276601Y-46476742D01*
X153244093Y-46313315D01*
X153244093Y-46146685D01*
X153276601Y-45983258D01*
X153340367Y-45829313D01*
X153432941Y-45690766D01*
X153550766Y-45572941D01*
X153689313Y-45480367D01*
X153843258Y-45416601D01*
X154006685Y-45384093D01*
X154173315Y-45384093D01*
X154336742Y-45416601D01*
G37*
G36*
X156876742Y-45416601D02*
G01*
X157030687Y-45480367D01*
X157169234Y-45572941D01*
X157287059Y-45690766D01*
X157379633Y-45829313D01*
X157443399Y-45983258D01*
X157475907Y-46146685D01*
X157475907Y-46313315D01*
X157443399Y-46476742D01*
X157379633Y-46630687D01*
X157287059Y-46769234D01*
X157169234Y-46887059D01*
X157030687Y-46979633D01*
X156876742Y-47043399D01*
X156713315Y-47075907D01*
X156546685Y-47075907D01*
X156383258Y-47043399D01*
X156229313Y-46979633D01*
X156090766Y-46887059D01*
X155972941Y-46769234D01*
X155880367Y-46630687D01*
X155816601Y-46476742D01*
X155784093Y-46313315D01*
X155784093Y-46146685D01*
X155816601Y-45983258D01*
X155880367Y-45829313D01*
X155972941Y-45690766D01*
X156090766Y-45572941D01*
X156229313Y-45480367D01*
X156383258Y-45416601D01*
X156546685Y-45384093D01*
X156713315Y-45384093D01*
X156876742Y-45416601D01*
G37*
G36*
X92807403Y-44811418D02*
G01*
X92856066Y-44843934D01*
X92888582Y-44892597D01*
X92900000Y-44950000D01*
X92900000Y-46200000D01*
X92888582Y-46257403D01*
X92856066Y-46306066D01*
X92807403Y-46338582D01*
X92750000Y-46350000D01*
X92450000Y-46350000D01*
X92392597Y-46338582D01*
X92343934Y-46306066D01*
X92311418Y-46257403D01*
X92300000Y-46200000D01*
X92300000Y-44950000D01*
X92311418Y-44892597D01*
X92343934Y-44843934D01*
X92392597Y-44811418D01*
X92450000Y-44800000D01*
X92750000Y-44800000D01*
X92807403Y-44811418D01*
G37*
G36*
X93807403Y-44811418D02*
G01*
X93856066Y-44843934D01*
X93888582Y-44892597D01*
X93900000Y-44950000D01*
X93900000Y-46200000D01*
X93888582Y-46257403D01*
X93856066Y-46306066D01*
X93807403Y-46338582D01*
X93750000Y-46350000D01*
X93450000Y-46350000D01*
X93392597Y-46338582D01*
X93343934Y-46306066D01*
X93311418Y-46257403D01*
X93300000Y-46200000D01*
X93300000Y-44950000D01*
X93311418Y-44892597D01*
X93343934Y-44843934D01*
X93392597Y-44811418D01*
X93450000Y-44800000D01*
X93750000Y-44800000D01*
X93807403Y-44811418D01*
G37*
G36*
X94807403Y-44811418D02*
G01*
X94856066Y-44843934D01*
X94888582Y-44892597D01*
X94900000Y-44950000D01*
X94900000Y-46200000D01*
X94888582Y-46257403D01*
X94856066Y-46306066D01*
X94807403Y-46338582D01*
X94750000Y-46350000D01*
X94450000Y-46350000D01*
X94392597Y-46338582D01*
X94343934Y-46306066D01*
X94311418Y-46257403D01*
X94300000Y-46200000D01*
X94300000Y-44950000D01*
X94311418Y-44892597D01*
X94343934Y-44843934D01*
X94392597Y-44811418D01*
X94450000Y-44800000D01*
X94750000Y-44800000D01*
X94807403Y-44811418D01*
G37*
G36*
X95807403Y-44811418D02*
G01*
X95856066Y-44843934D01*
X95888582Y-44892597D01*
X95900000Y-44950000D01*
X95900000Y-46200000D01*
X95888582Y-46257403D01*
X95856066Y-46306066D01*
X95807403Y-46338582D01*
X95750000Y-46350000D01*
X95450000Y-46350000D01*
X95392597Y-46338582D01*
X95343934Y-46306066D01*
X95311418Y-46257403D01*
X95300000Y-46200000D01*
X95300000Y-44950000D01*
X95311418Y-44892597D01*
X95343934Y-44843934D01*
X95392597Y-44811418D01*
X95450000Y-44800000D01*
X95750000Y-44800000D01*
X95807403Y-44811418D01*
G37*
G36*
X96807403Y-44811418D02*
G01*
X96856066Y-44843934D01*
X96888582Y-44892597D01*
X96900000Y-44950000D01*
X96900000Y-46200000D01*
X96888582Y-46257403D01*
X96856066Y-46306066D01*
X96807403Y-46338582D01*
X96750000Y-46350000D01*
X96450000Y-46350000D01*
X96392597Y-46338582D01*
X96343934Y-46306066D01*
X96311418Y-46257403D01*
X96300000Y-46200000D01*
X96300000Y-44950000D01*
X96311418Y-44892597D01*
X96343934Y-44843934D01*
X96392597Y-44811418D01*
X96450000Y-44800000D01*
X96750000Y-44800000D01*
X96807403Y-44811418D01*
G37*
G36*
X97807403Y-44811418D02*
G01*
X97856066Y-44843934D01*
X97888582Y-44892597D01*
X97900000Y-44950000D01*
X97900000Y-46200000D01*
X97888582Y-46257403D01*
X97856066Y-46306066D01*
X97807403Y-46338582D01*
X97750000Y-46350000D01*
X97450000Y-46350000D01*
X97392597Y-46338582D01*
X97343934Y-46306066D01*
X97311418Y-46257403D01*
X97300000Y-46200000D01*
X97300000Y-44950000D01*
X97311418Y-44892597D01*
X97343934Y-44843934D01*
X97392597Y-44811418D01*
X97450000Y-44800000D01*
X97750000Y-44800000D01*
X97807403Y-44811418D01*
G37*
M02*
