G04 #@! TF.GenerationSoftware,KiCad,Pcbnew,9.0.1-1.fc42*
G04 #@! TF.CreationDate,2025-05-14T23:42:12-05:00*
G04 #@! TF.ProjectId,cerebellum,63657265-6265-46c6-9c75-6d2e6b696361,rev?*
G04 #@! TF.SameCoordinates,Original*
G04 #@! TF.FileFunction,Legend,Top*
G04 #@! TF.FilePolarity,Positive*
%FSLAX46Y46*%
G04 Gerber Fmt 4.6, Leading zero omitted, Abs format (unit mm)*
G04 Created by KiCad (PCBNEW 9.0.1-1.fc42) date 2025-05-14 23:42:12*
%MOMM*%
%LPD*%
G01*
G04 APERTURE LIST*
%ADD10C,0.150000*%
%ADD11C,0.100000*%
%ADD12C,0.000000*%
%ADD13C,0.120000*%
%ADD14C,0.127000*%
%ADD15C,0.300000*%
G04 APERTURE END LIST*
D10*
X72929762Y-55130149D02*
X72891666Y-55168245D01*
X72891666Y-55168245D02*
X72777381Y-55206340D01*
X72777381Y-55206340D02*
X72701190Y-55206340D01*
X72701190Y-55206340D02*
X72586904Y-55168245D01*
X72586904Y-55168245D02*
X72510714Y-55092054D01*
X72510714Y-55092054D02*
X72472619Y-55015864D01*
X72472619Y-55015864D02*
X72434523Y-54863483D01*
X72434523Y-54863483D02*
X72434523Y-54749197D01*
X72434523Y-54749197D02*
X72472619Y-54596816D01*
X72472619Y-54596816D02*
X72510714Y-54520625D01*
X72510714Y-54520625D02*
X72586904Y-54444435D01*
X72586904Y-54444435D02*
X72701190Y-54406340D01*
X72701190Y-54406340D02*
X72777381Y-54406340D01*
X72777381Y-54406340D02*
X72891666Y-54444435D01*
X72891666Y-54444435D02*
X72929762Y-54482530D01*
X73577381Y-55168245D02*
X73501190Y-55206340D01*
X73501190Y-55206340D02*
X73348809Y-55206340D01*
X73348809Y-55206340D02*
X73272619Y-55168245D01*
X73272619Y-55168245D02*
X73234523Y-55092054D01*
X73234523Y-55092054D02*
X73234523Y-54787292D01*
X73234523Y-54787292D02*
X73272619Y-54711102D01*
X73272619Y-54711102D02*
X73348809Y-54673006D01*
X73348809Y-54673006D02*
X73501190Y-54673006D01*
X73501190Y-54673006D02*
X73577381Y-54711102D01*
X73577381Y-54711102D02*
X73615476Y-54787292D01*
X73615476Y-54787292D02*
X73615476Y-54863483D01*
X73615476Y-54863483D02*
X73234523Y-54939673D01*
X73958333Y-55206340D02*
X73958333Y-54673006D01*
X73958333Y-54825387D02*
X73996428Y-54749197D01*
X73996428Y-54749197D02*
X74034523Y-54711102D01*
X74034523Y-54711102D02*
X74110714Y-54673006D01*
X74110714Y-54673006D02*
X74186904Y-54673006D01*
X74758333Y-55168245D02*
X74682142Y-55206340D01*
X74682142Y-55206340D02*
X74529761Y-55206340D01*
X74529761Y-55206340D02*
X74453571Y-55168245D01*
X74453571Y-55168245D02*
X74415475Y-55092054D01*
X74415475Y-55092054D02*
X74415475Y-54787292D01*
X74415475Y-54787292D02*
X74453571Y-54711102D01*
X74453571Y-54711102D02*
X74529761Y-54673006D01*
X74529761Y-54673006D02*
X74682142Y-54673006D01*
X74682142Y-54673006D02*
X74758333Y-54711102D01*
X74758333Y-54711102D02*
X74796428Y-54787292D01*
X74796428Y-54787292D02*
X74796428Y-54863483D01*
X74796428Y-54863483D02*
X74415475Y-54939673D01*
X75139285Y-55206340D02*
X75139285Y-54406340D01*
X75139285Y-54711102D02*
X75215475Y-54673006D01*
X75215475Y-54673006D02*
X75367856Y-54673006D01*
X75367856Y-54673006D02*
X75444047Y-54711102D01*
X75444047Y-54711102D02*
X75482142Y-54749197D01*
X75482142Y-54749197D02*
X75520237Y-54825387D01*
X75520237Y-54825387D02*
X75520237Y-55053959D01*
X75520237Y-55053959D02*
X75482142Y-55130149D01*
X75482142Y-55130149D02*
X75444047Y-55168245D01*
X75444047Y-55168245D02*
X75367856Y-55206340D01*
X75367856Y-55206340D02*
X75215475Y-55206340D01*
X75215475Y-55206340D02*
X75139285Y-55168245D01*
X76167857Y-55168245D02*
X76091666Y-55206340D01*
X76091666Y-55206340D02*
X75939285Y-55206340D01*
X75939285Y-55206340D02*
X75863095Y-55168245D01*
X75863095Y-55168245D02*
X75824999Y-55092054D01*
X75824999Y-55092054D02*
X75824999Y-54787292D01*
X75824999Y-54787292D02*
X75863095Y-54711102D01*
X75863095Y-54711102D02*
X75939285Y-54673006D01*
X75939285Y-54673006D02*
X76091666Y-54673006D01*
X76091666Y-54673006D02*
X76167857Y-54711102D01*
X76167857Y-54711102D02*
X76205952Y-54787292D01*
X76205952Y-54787292D02*
X76205952Y-54863483D01*
X76205952Y-54863483D02*
X75824999Y-54939673D01*
X76663094Y-55206340D02*
X76586904Y-55168245D01*
X76586904Y-55168245D02*
X76548809Y-55092054D01*
X76548809Y-55092054D02*
X76548809Y-54406340D01*
X77082142Y-55206340D02*
X77005952Y-55168245D01*
X77005952Y-55168245D02*
X76967857Y-55092054D01*
X76967857Y-55092054D02*
X76967857Y-54406340D01*
X77729762Y-54673006D02*
X77729762Y-55206340D01*
X77386905Y-54673006D02*
X77386905Y-55092054D01*
X77386905Y-55092054D02*
X77425000Y-55168245D01*
X77425000Y-55168245D02*
X77501190Y-55206340D01*
X77501190Y-55206340D02*
X77615476Y-55206340D01*
X77615476Y-55206340D02*
X77691667Y-55168245D01*
X77691667Y-55168245D02*
X77729762Y-55130149D01*
X78110715Y-55206340D02*
X78110715Y-54673006D01*
X78110715Y-54749197D02*
X78148810Y-54711102D01*
X78148810Y-54711102D02*
X78225000Y-54673006D01*
X78225000Y-54673006D02*
X78339286Y-54673006D01*
X78339286Y-54673006D02*
X78415477Y-54711102D01*
X78415477Y-54711102D02*
X78453572Y-54787292D01*
X78453572Y-54787292D02*
X78453572Y-55206340D01*
X78453572Y-54787292D02*
X78491667Y-54711102D01*
X78491667Y-54711102D02*
X78567858Y-54673006D01*
X78567858Y-54673006D02*
X78682143Y-54673006D01*
X78682143Y-54673006D02*
X78758334Y-54711102D01*
X78758334Y-54711102D02*
X78796429Y-54787292D01*
X78796429Y-54787292D02*
X78796429Y-55206340D01*
X79634525Y-55130149D02*
X79596429Y-55168245D01*
X79596429Y-55168245D02*
X79482144Y-55206340D01*
X79482144Y-55206340D02*
X79405953Y-55206340D01*
X79405953Y-55206340D02*
X79291667Y-55168245D01*
X79291667Y-55168245D02*
X79215477Y-55092054D01*
X79215477Y-55092054D02*
X79177382Y-55015864D01*
X79177382Y-55015864D02*
X79139286Y-54863483D01*
X79139286Y-54863483D02*
X79139286Y-54749197D01*
X79139286Y-54749197D02*
X79177382Y-54596816D01*
X79177382Y-54596816D02*
X79215477Y-54520625D01*
X79215477Y-54520625D02*
X79291667Y-54444435D01*
X79291667Y-54444435D02*
X79405953Y-54406340D01*
X79405953Y-54406340D02*
X79482144Y-54406340D01*
X79482144Y-54406340D02*
X79596429Y-54444435D01*
X79596429Y-54444435D02*
X79634525Y-54482530D01*
X80320239Y-55206340D02*
X80320239Y-54787292D01*
X80320239Y-54787292D02*
X80282144Y-54711102D01*
X80282144Y-54711102D02*
X80205953Y-54673006D01*
X80205953Y-54673006D02*
X80053572Y-54673006D01*
X80053572Y-54673006D02*
X79977382Y-54711102D01*
X80320239Y-55168245D02*
X80244048Y-55206340D01*
X80244048Y-55206340D02*
X80053572Y-55206340D01*
X80053572Y-55206340D02*
X79977382Y-55168245D01*
X79977382Y-55168245D02*
X79939286Y-55092054D01*
X79939286Y-55092054D02*
X79939286Y-55015864D01*
X79939286Y-55015864D02*
X79977382Y-54939673D01*
X79977382Y-54939673D02*
X80053572Y-54901578D01*
X80053572Y-54901578D02*
X80244048Y-54901578D01*
X80244048Y-54901578D02*
X80320239Y-54863483D01*
X80701192Y-55206340D02*
X80701192Y-54673006D01*
X80701192Y-54825387D02*
X80739287Y-54749197D01*
X80739287Y-54749197D02*
X80777382Y-54711102D01*
X80777382Y-54711102D02*
X80853573Y-54673006D01*
X80853573Y-54673006D02*
X80929763Y-54673006D01*
X81196430Y-55206340D02*
X81196430Y-54673006D01*
X81196430Y-54825387D02*
X81234525Y-54749197D01*
X81234525Y-54749197D02*
X81272620Y-54711102D01*
X81272620Y-54711102D02*
X81348811Y-54673006D01*
X81348811Y-54673006D02*
X81425001Y-54673006D01*
X81691668Y-55206340D02*
X81691668Y-54673006D01*
X81691668Y-54406340D02*
X81653572Y-54444435D01*
X81653572Y-54444435D02*
X81691668Y-54482530D01*
X81691668Y-54482530D02*
X81729763Y-54444435D01*
X81729763Y-54444435D02*
X81691668Y-54406340D01*
X81691668Y-54406340D02*
X81691668Y-54482530D01*
X82377382Y-55168245D02*
X82301191Y-55206340D01*
X82301191Y-55206340D02*
X82148810Y-55206340D01*
X82148810Y-55206340D02*
X82072620Y-55168245D01*
X82072620Y-55168245D02*
X82034524Y-55092054D01*
X82034524Y-55092054D02*
X82034524Y-54787292D01*
X82034524Y-54787292D02*
X82072620Y-54711102D01*
X82072620Y-54711102D02*
X82148810Y-54673006D01*
X82148810Y-54673006D02*
X82301191Y-54673006D01*
X82301191Y-54673006D02*
X82377382Y-54711102D01*
X82377382Y-54711102D02*
X82415477Y-54787292D01*
X82415477Y-54787292D02*
X82415477Y-54863483D01*
X82415477Y-54863483D02*
X82034524Y-54939673D01*
X75863094Y-55770485D02*
X75901190Y-55732390D01*
X75901190Y-55732390D02*
X75977380Y-55694295D01*
X75977380Y-55694295D02*
X76167856Y-55694295D01*
X76167856Y-55694295D02*
X76244047Y-55732390D01*
X76244047Y-55732390D02*
X76282142Y-55770485D01*
X76282142Y-55770485D02*
X76320237Y-55846676D01*
X76320237Y-55846676D02*
X76320237Y-55922866D01*
X76320237Y-55922866D02*
X76282142Y-56037152D01*
X76282142Y-56037152D02*
X75824999Y-56494295D01*
X75824999Y-56494295D02*
X76320237Y-56494295D01*
X77044047Y-55694295D02*
X76663095Y-55694295D01*
X76663095Y-55694295D02*
X76624999Y-56075247D01*
X76624999Y-56075247D02*
X76663095Y-56037152D01*
X76663095Y-56037152D02*
X76739285Y-55999057D01*
X76739285Y-55999057D02*
X76929761Y-55999057D01*
X76929761Y-55999057D02*
X77005952Y-56037152D01*
X77005952Y-56037152D02*
X77044047Y-56075247D01*
X77044047Y-56075247D02*
X77082142Y-56151438D01*
X77082142Y-56151438D02*
X77082142Y-56341914D01*
X77082142Y-56341914D02*
X77044047Y-56418104D01*
X77044047Y-56418104D02*
X77005952Y-56456200D01*
X77005952Y-56456200D02*
X76929761Y-56494295D01*
X76929761Y-56494295D02*
X76739285Y-56494295D01*
X76739285Y-56494295D02*
X76663095Y-56456200D01*
X76663095Y-56456200D02*
X76624999Y-56418104D01*
X77425000Y-56418104D02*
X77463095Y-56456200D01*
X77463095Y-56456200D02*
X77425000Y-56494295D01*
X77425000Y-56494295D02*
X77386904Y-56456200D01*
X77386904Y-56456200D02*
X77425000Y-56418104D01*
X77425000Y-56418104D02*
X77425000Y-56494295D01*
X77958333Y-55694295D02*
X78034523Y-55694295D01*
X78034523Y-55694295D02*
X78110714Y-55732390D01*
X78110714Y-55732390D02*
X78148809Y-55770485D01*
X78148809Y-55770485D02*
X78186904Y-55846676D01*
X78186904Y-55846676D02*
X78224999Y-55999057D01*
X78224999Y-55999057D02*
X78224999Y-56189533D01*
X78224999Y-56189533D02*
X78186904Y-56341914D01*
X78186904Y-56341914D02*
X78148809Y-56418104D01*
X78148809Y-56418104D02*
X78110714Y-56456200D01*
X78110714Y-56456200D02*
X78034523Y-56494295D01*
X78034523Y-56494295D02*
X77958333Y-56494295D01*
X77958333Y-56494295D02*
X77882142Y-56456200D01*
X77882142Y-56456200D02*
X77844047Y-56418104D01*
X77844047Y-56418104D02*
X77805952Y-56341914D01*
X77805952Y-56341914D02*
X77767856Y-56189533D01*
X77767856Y-56189533D02*
X77767856Y-55999057D01*
X77767856Y-55999057D02*
X77805952Y-55846676D01*
X77805952Y-55846676D02*
X77844047Y-55770485D01*
X77844047Y-55770485D02*
X77882142Y-55732390D01*
X77882142Y-55732390D02*
X77958333Y-55694295D01*
X78910714Y-55960961D02*
X78910714Y-56494295D01*
X78720238Y-55656200D02*
X78529761Y-56227628D01*
X78529761Y-56227628D02*
X79025000Y-56227628D01*
D11*
X95372931Y-74852847D02*
X95487217Y-74890942D01*
X95487217Y-74890942D02*
X95525312Y-74929038D01*
X95525312Y-74929038D02*
X95563408Y-75005228D01*
X95563408Y-75005228D02*
X95563408Y-75119514D01*
X95563408Y-75119514D02*
X95525312Y-75195704D01*
X95525312Y-75195704D02*
X95487217Y-75233800D01*
X95487217Y-75233800D02*
X95411027Y-75271895D01*
X95411027Y-75271895D02*
X95106265Y-75271895D01*
X95106265Y-75271895D02*
X95106265Y-74471895D01*
X95106265Y-74471895D02*
X95372931Y-74471895D01*
X95372931Y-74471895D02*
X95449122Y-74509990D01*
X95449122Y-74509990D02*
X95487217Y-74548085D01*
X95487217Y-74548085D02*
X95525312Y-74624276D01*
X95525312Y-74624276D02*
X95525312Y-74700466D01*
X95525312Y-74700466D02*
X95487217Y-74776657D01*
X95487217Y-74776657D02*
X95449122Y-74814752D01*
X95449122Y-74814752D02*
X95372931Y-74852847D01*
X95372931Y-74852847D02*
X95106265Y-74852847D01*
X95906265Y-75271895D02*
X95906265Y-74471895D01*
X96287217Y-75271895D02*
X96287217Y-74471895D01*
X96287217Y-74471895D02*
X96744360Y-75271895D01*
X96744360Y-75271895D02*
X96744360Y-74471895D01*
X97087216Y-74548085D02*
X97125312Y-74509990D01*
X97125312Y-74509990D02*
X97201502Y-74471895D01*
X97201502Y-74471895D02*
X97391978Y-74471895D01*
X97391978Y-74471895D02*
X97468169Y-74509990D01*
X97468169Y-74509990D02*
X97506264Y-74548085D01*
X97506264Y-74548085D02*
X97544359Y-74624276D01*
X97544359Y-74624276D02*
X97544359Y-74700466D01*
X97544359Y-74700466D02*
X97506264Y-74814752D01*
X97506264Y-74814752D02*
X97049121Y-75271895D01*
X97049121Y-75271895D02*
X97544359Y-75271895D01*
X95550312Y-79734990D02*
X95474122Y-79696895D01*
X95474122Y-79696895D02*
X95359836Y-79696895D01*
X95359836Y-79696895D02*
X95245550Y-79734990D01*
X95245550Y-79734990D02*
X95169360Y-79811180D01*
X95169360Y-79811180D02*
X95131265Y-79887371D01*
X95131265Y-79887371D02*
X95093169Y-80039752D01*
X95093169Y-80039752D02*
X95093169Y-80154038D01*
X95093169Y-80154038D02*
X95131265Y-80306419D01*
X95131265Y-80306419D02*
X95169360Y-80382609D01*
X95169360Y-80382609D02*
X95245550Y-80458800D01*
X95245550Y-80458800D02*
X95359836Y-80496895D01*
X95359836Y-80496895D02*
X95436027Y-80496895D01*
X95436027Y-80496895D02*
X95550312Y-80458800D01*
X95550312Y-80458800D02*
X95588408Y-80420704D01*
X95588408Y-80420704D02*
X95588408Y-80154038D01*
X95588408Y-80154038D02*
X95436027Y-80154038D01*
X95931265Y-80496895D02*
X95931265Y-79696895D01*
X95931265Y-79696895D02*
X96388408Y-80496895D01*
X96388408Y-80496895D02*
X96388408Y-79696895D01*
X96769360Y-80496895D02*
X96769360Y-79696895D01*
X96769360Y-79696895D02*
X96959836Y-79696895D01*
X96959836Y-79696895D02*
X97074122Y-79734990D01*
X97074122Y-79734990D02*
X97150312Y-79811180D01*
X97150312Y-79811180D02*
X97188407Y-79887371D01*
X97188407Y-79887371D02*
X97226503Y-80039752D01*
X97226503Y-80039752D02*
X97226503Y-80154038D01*
X97226503Y-80154038D02*
X97188407Y-80306419D01*
X97188407Y-80306419D02*
X97150312Y-80382609D01*
X97150312Y-80382609D02*
X97074122Y-80458800D01*
X97074122Y-80458800D02*
X96959836Y-80496895D01*
X96959836Y-80496895D02*
X96769360Y-80496895D01*
D10*
X70719048Y-91173866D02*
X71480953Y-91173866D01*
X71100000Y-91554819D02*
X71100000Y-90792914D01*
X137861905Y-94107200D02*
X138004762Y-94154819D01*
X138004762Y-94154819D02*
X138242857Y-94154819D01*
X138242857Y-94154819D02*
X138338095Y-94107200D01*
X138338095Y-94107200D02*
X138385714Y-94059580D01*
X138385714Y-94059580D02*
X138433333Y-93964342D01*
X138433333Y-93964342D02*
X138433333Y-93869104D01*
X138433333Y-93869104D02*
X138385714Y-93773866D01*
X138385714Y-93773866D02*
X138338095Y-93726247D01*
X138338095Y-93726247D02*
X138242857Y-93678628D01*
X138242857Y-93678628D02*
X138052381Y-93631009D01*
X138052381Y-93631009D02*
X137957143Y-93583390D01*
X137957143Y-93583390D02*
X137909524Y-93535771D01*
X137909524Y-93535771D02*
X137861905Y-93440533D01*
X137861905Y-93440533D02*
X137861905Y-93345295D01*
X137861905Y-93345295D02*
X137909524Y-93250057D01*
X137909524Y-93250057D02*
X137957143Y-93202438D01*
X137957143Y-93202438D02*
X138052381Y-93154819D01*
X138052381Y-93154819D02*
X138290476Y-93154819D01*
X138290476Y-93154819D02*
X138433333Y-93202438D01*
X138766667Y-93154819D02*
X139004762Y-94154819D01*
X139004762Y-94154819D02*
X139195238Y-93440533D01*
X139195238Y-93440533D02*
X139385714Y-94154819D01*
X139385714Y-94154819D02*
X139623810Y-93154819D01*
X139766667Y-94250057D02*
X140528571Y-94250057D01*
X140766667Y-94154819D02*
X140766667Y-93154819D01*
X140766667Y-93154819D02*
X141004762Y-93154819D01*
X141004762Y-93154819D02*
X141147619Y-93202438D01*
X141147619Y-93202438D02*
X141242857Y-93297676D01*
X141242857Y-93297676D02*
X141290476Y-93392914D01*
X141290476Y-93392914D02*
X141338095Y-93583390D01*
X141338095Y-93583390D02*
X141338095Y-93726247D01*
X141338095Y-93726247D02*
X141290476Y-93916723D01*
X141290476Y-93916723D02*
X141242857Y-94011961D01*
X141242857Y-94011961D02*
X141147619Y-94107200D01*
X141147619Y-94107200D02*
X141004762Y-94154819D01*
X141004762Y-94154819D02*
X140766667Y-94154819D01*
D11*
X94046895Y-50311591D02*
X93246895Y-50311591D01*
X94046895Y-49854448D02*
X93589752Y-50197306D01*
X93246895Y-49854448D02*
X93704038Y-50311591D01*
X93046895Y-49854448D02*
X92665942Y-50121115D01*
X93046895Y-50311591D02*
X92246895Y-50311591D01*
X92246895Y-50311591D02*
X92246895Y-50006829D01*
X92246895Y-50006829D02*
X92284990Y-49930639D01*
X92284990Y-49930639D02*
X92323085Y-49892544D01*
X92323085Y-49892544D02*
X92399276Y-49854448D01*
X92399276Y-49854448D02*
X92513561Y-49854448D01*
X92513561Y-49854448D02*
X92589752Y-49892544D01*
X92589752Y-49892544D02*
X92627847Y-49930639D01*
X92627847Y-49930639D02*
X92665942Y-50006829D01*
X92665942Y-50006829D02*
X92665942Y-50311591D01*
X95106265Y-62646895D02*
X95106265Y-61846895D01*
X95106265Y-61846895D02*
X95411027Y-61846895D01*
X95411027Y-61846895D02*
X95487217Y-61884990D01*
X95487217Y-61884990D02*
X95525312Y-61923085D01*
X95525312Y-61923085D02*
X95563408Y-61999276D01*
X95563408Y-61999276D02*
X95563408Y-62113561D01*
X95563408Y-62113561D02*
X95525312Y-62189752D01*
X95525312Y-62189752D02*
X95487217Y-62227847D01*
X95487217Y-62227847D02*
X95411027Y-62265942D01*
X95411027Y-62265942D02*
X95106265Y-62265942D01*
X95830074Y-61846895D02*
X96020550Y-62646895D01*
X96020550Y-62646895D02*
X96172931Y-62075466D01*
X96172931Y-62075466D02*
X96325312Y-62646895D01*
X96325312Y-62646895D02*
X96515789Y-61846895D01*
X96820551Y-62646895D02*
X96820551Y-61846895D01*
X96820551Y-61846895D02*
X97087217Y-62418323D01*
X97087217Y-62418323D02*
X97353884Y-61846895D01*
X97353884Y-61846895D02*
X97353884Y-62646895D01*
X97696741Y-62418323D02*
X98077694Y-62418323D01*
X97620551Y-62646895D02*
X97887218Y-61846895D01*
X97887218Y-61846895D02*
X98153884Y-62646895D01*
X77068169Y-67518323D02*
X77449122Y-67518323D01*
X76991979Y-67746895D02*
X77258646Y-66946895D01*
X77258646Y-66946895D02*
X77525312Y-67746895D01*
X77944360Y-66946895D02*
X78096741Y-66946895D01*
X78096741Y-66946895D02*
X78172931Y-66984990D01*
X78172931Y-66984990D02*
X78249122Y-67061180D01*
X78249122Y-67061180D02*
X78287217Y-67213561D01*
X78287217Y-67213561D02*
X78287217Y-67480228D01*
X78287217Y-67480228D02*
X78249122Y-67632609D01*
X78249122Y-67632609D02*
X78172931Y-67708800D01*
X78172931Y-67708800D02*
X78096741Y-67746895D01*
X78096741Y-67746895D02*
X77944360Y-67746895D01*
X77944360Y-67746895D02*
X77868169Y-67708800D01*
X77868169Y-67708800D02*
X77791979Y-67632609D01*
X77791979Y-67632609D02*
X77753883Y-67480228D01*
X77753883Y-67480228D02*
X77753883Y-67213561D01*
X77753883Y-67213561D02*
X77791979Y-67061180D01*
X77791979Y-67061180D02*
X77868169Y-66984990D01*
X77868169Y-66984990D02*
X77944360Y-66946895D01*
X79049121Y-67746895D02*
X78591978Y-67746895D01*
X78820550Y-67746895D02*
X78820550Y-66946895D01*
X78820550Y-66946895D02*
X78744359Y-67061180D01*
X78744359Y-67061180D02*
X78668169Y-67137371D01*
X78668169Y-67137371D02*
X78591978Y-67175466D01*
X95422931Y-72402847D02*
X95537217Y-72440942D01*
X95537217Y-72440942D02*
X95575312Y-72479038D01*
X95575312Y-72479038D02*
X95613408Y-72555228D01*
X95613408Y-72555228D02*
X95613408Y-72669514D01*
X95613408Y-72669514D02*
X95575312Y-72745704D01*
X95575312Y-72745704D02*
X95537217Y-72783800D01*
X95537217Y-72783800D02*
X95461027Y-72821895D01*
X95461027Y-72821895D02*
X95156265Y-72821895D01*
X95156265Y-72821895D02*
X95156265Y-72021895D01*
X95156265Y-72021895D02*
X95422931Y-72021895D01*
X95422931Y-72021895D02*
X95499122Y-72059990D01*
X95499122Y-72059990D02*
X95537217Y-72098085D01*
X95537217Y-72098085D02*
X95575312Y-72174276D01*
X95575312Y-72174276D02*
X95575312Y-72250466D01*
X95575312Y-72250466D02*
X95537217Y-72326657D01*
X95537217Y-72326657D02*
X95499122Y-72364752D01*
X95499122Y-72364752D02*
X95422931Y-72402847D01*
X95422931Y-72402847D02*
X95156265Y-72402847D01*
X95956265Y-72821895D02*
X95956265Y-72021895D01*
X96337217Y-72821895D02*
X96337217Y-72021895D01*
X96337217Y-72021895D02*
X96794360Y-72821895D01*
X96794360Y-72821895D02*
X96794360Y-72021895D01*
X97594359Y-72821895D02*
X97137216Y-72821895D01*
X97365788Y-72821895D02*
X97365788Y-72021895D01*
X97365788Y-72021895D02*
X97289597Y-72136180D01*
X97289597Y-72136180D02*
X97213407Y-72212371D01*
X97213407Y-72212371D02*
X97137216Y-72250466D01*
X77068169Y-70018323D02*
X77449122Y-70018323D01*
X76991979Y-70246895D02*
X77258646Y-69446895D01*
X77258646Y-69446895D02*
X77525312Y-70246895D01*
X77944360Y-69446895D02*
X78096741Y-69446895D01*
X78096741Y-69446895D02*
X78172931Y-69484990D01*
X78172931Y-69484990D02*
X78249122Y-69561180D01*
X78249122Y-69561180D02*
X78287217Y-69713561D01*
X78287217Y-69713561D02*
X78287217Y-69980228D01*
X78287217Y-69980228D02*
X78249122Y-70132609D01*
X78249122Y-70132609D02*
X78172931Y-70208800D01*
X78172931Y-70208800D02*
X78096741Y-70246895D01*
X78096741Y-70246895D02*
X77944360Y-70246895D01*
X77944360Y-70246895D02*
X77868169Y-70208800D01*
X77868169Y-70208800D02*
X77791979Y-70132609D01*
X77791979Y-70132609D02*
X77753883Y-69980228D01*
X77753883Y-69980228D02*
X77753883Y-69713561D01*
X77753883Y-69713561D02*
X77791979Y-69561180D01*
X77791979Y-69561180D02*
X77868169Y-69484990D01*
X77868169Y-69484990D02*
X77944360Y-69446895D01*
X78591978Y-69523085D02*
X78630074Y-69484990D01*
X78630074Y-69484990D02*
X78706264Y-69446895D01*
X78706264Y-69446895D02*
X78896740Y-69446895D01*
X78896740Y-69446895D02*
X78972931Y-69484990D01*
X78972931Y-69484990D02*
X79011026Y-69523085D01*
X79011026Y-69523085D02*
X79049121Y-69599276D01*
X79049121Y-69599276D02*
X79049121Y-69675466D01*
X79049121Y-69675466D02*
X79011026Y-69789752D01*
X79011026Y-69789752D02*
X78553883Y-70246895D01*
X78553883Y-70246895D02*
X79049121Y-70246895D01*
X95131265Y-77896895D02*
X95131265Y-77096895D01*
X95131265Y-77096895D02*
X95436027Y-77096895D01*
X95436027Y-77096895D02*
X95512217Y-77134990D01*
X95512217Y-77134990D02*
X95550312Y-77173085D01*
X95550312Y-77173085D02*
X95588408Y-77249276D01*
X95588408Y-77249276D02*
X95588408Y-77363561D01*
X95588408Y-77363561D02*
X95550312Y-77439752D01*
X95550312Y-77439752D02*
X95512217Y-77477847D01*
X95512217Y-77477847D02*
X95436027Y-77515942D01*
X95436027Y-77515942D02*
X95131265Y-77515942D01*
X95855074Y-77096895D02*
X96045550Y-77896895D01*
X96045550Y-77896895D02*
X96197931Y-77325466D01*
X96197931Y-77325466D02*
X96350312Y-77896895D01*
X96350312Y-77896895D02*
X96540789Y-77096895D01*
X96845551Y-77896895D02*
X96845551Y-77096895D01*
X96845551Y-77096895D02*
X97112217Y-77668323D01*
X97112217Y-77668323D02*
X97378884Y-77096895D01*
X97378884Y-77096895D02*
X97378884Y-77896895D01*
X98026503Y-77477847D02*
X98140789Y-77515942D01*
X98140789Y-77515942D02*
X98178884Y-77554038D01*
X98178884Y-77554038D02*
X98216980Y-77630228D01*
X98216980Y-77630228D02*
X98216980Y-77744514D01*
X98216980Y-77744514D02*
X98178884Y-77820704D01*
X98178884Y-77820704D02*
X98140789Y-77858800D01*
X98140789Y-77858800D02*
X98064599Y-77896895D01*
X98064599Y-77896895D02*
X97759837Y-77896895D01*
X97759837Y-77896895D02*
X97759837Y-77096895D01*
X97759837Y-77096895D02*
X98026503Y-77096895D01*
X98026503Y-77096895D02*
X98102694Y-77134990D01*
X98102694Y-77134990D02*
X98140789Y-77173085D01*
X98140789Y-77173085D02*
X98178884Y-77249276D01*
X98178884Y-77249276D02*
X98178884Y-77325466D01*
X98178884Y-77325466D02*
X98140789Y-77401657D01*
X98140789Y-77401657D02*
X98102694Y-77439752D01*
X98102694Y-77439752D02*
X98026503Y-77477847D01*
X98026503Y-77477847D02*
X97759837Y-77477847D01*
X148553800Y-59781830D02*
X148591895Y-59667544D01*
X148591895Y-59667544D02*
X148591895Y-59477068D01*
X148591895Y-59477068D02*
X148553800Y-59400877D01*
X148553800Y-59400877D02*
X148515704Y-59362782D01*
X148515704Y-59362782D02*
X148439514Y-59324687D01*
X148439514Y-59324687D02*
X148363323Y-59324687D01*
X148363323Y-59324687D02*
X148287133Y-59362782D01*
X148287133Y-59362782D02*
X148249038Y-59400877D01*
X148249038Y-59400877D02*
X148210942Y-59477068D01*
X148210942Y-59477068D02*
X148172847Y-59629449D01*
X148172847Y-59629449D02*
X148134752Y-59705639D01*
X148134752Y-59705639D02*
X148096657Y-59743734D01*
X148096657Y-59743734D02*
X148020466Y-59781830D01*
X148020466Y-59781830D02*
X147944276Y-59781830D01*
X147944276Y-59781830D02*
X147868085Y-59743734D01*
X147868085Y-59743734D02*
X147829990Y-59705639D01*
X147829990Y-59705639D02*
X147791895Y-59629449D01*
X147791895Y-59629449D02*
X147791895Y-59438972D01*
X147791895Y-59438972D02*
X147829990Y-59324687D01*
X148591895Y-58524686D02*
X148210942Y-58791353D01*
X148591895Y-58981829D02*
X147791895Y-58981829D01*
X147791895Y-58981829D02*
X147791895Y-58677067D01*
X147791895Y-58677067D02*
X147829990Y-58600877D01*
X147829990Y-58600877D02*
X147868085Y-58562782D01*
X147868085Y-58562782D02*
X147944276Y-58524686D01*
X147944276Y-58524686D02*
X148058561Y-58524686D01*
X148058561Y-58524686D02*
X148134752Y-58562782D01*
X148134752Y-58562782D02*
X148172847Y-58600877D01*
X148172847Y-58600877D02*
X148210942Y-58677067D01*
X148210942Y-58677067D02*
X148210942Y-58981829D01*
X147791895Y-58258020D02*
X148591895Y-57724686D01*
X147791895Y-57724686D02*
X148591895Y-58258020D01*
X147791895Y-57267543D02*
X147791895Y-57191353D01*
X147791895Y-57191353D02*
X147829990Y-57115162D01*
X147829990Y-57115162D02*
X147868085Y-57077067D01*
X147868085Y-57077067D02*
X147944276Y-57038972D01*
X147944276Y-57038972D02*
X148096657Y-57000877D01*
X148096657Y-57000877D02*
X148287133Y-57000877D01*
X148287133Y-57000877D02*
X148439514Y-57038972D01*
X148439514Y-57038972D02*
X148515704Y-57077067D01*
X148515704Y-57077067D02*
X148553800Y-57115162D01*
X148553800Y-57115162D02*
X148591895Y-57191353D01*
X148591895Y-57191353D02*
X148591895Y-57267543D01*
X148591895Y-57267543D02*
X148553800Y-57343734D01*
X148553800Y-57343734D02*
X148515704Y-57381829D01*
X148515704Y-57381829D02*
X148439514Y-57419924D01*
X148439514Y-57419924D02*
X148287133Y-57458020D01*
X148287133Y-57458020D02*
X148096657Y-57458020D01*
X148096657Y-57458020D02*
X147944276Y-57419924D01*
X147944276Y-57419924D02*
X147868085Y-57381829D01*
X147868085Y-57381829D02*
X147829990Y-57343734D01*
X147829990Y-57343734D02*
X147791895Y-57267543D01*
D10*
X83774874Y-70794295D02*
X84232017Y-70794295D01*
X84003445Y-71594295D02*
X84003445Y-70794295D01*
X84765350Y-71175247D02*
X84879636Y-71213342D01*
X84879636Y-71213342D02*
X84917731Y-71251438D01*
X84917731Y-71251438D02*
X84955827Y-71327628D01*
X84955827Y-71327628D02*
X84955827Y-71441914D01*
X84955827Y-71441914D02*
X84917731Y-71518104D01*
X84917731Y-71518104D02*
X84879636Y-71556200D01*
X84879636Y-71556200D02*
X84803446Y-71594295D01*
X84803446Y-71594295D02*
X84498684Y-71594295D01*
X84498684Y-71594295D02*
X84498684Y-70794295D01*
X84498684Y-70794295D02*
X84765350Y-70794295D01*
X84765350Y-70794295D02*
X84841541Y-70832390D01*
X84841541Y-70832390D02*
X84879636Y-70870485D01*
X84879636Y-70870485D02*
X84917731Y-70946676D01*
X84917731Y-70946676D02*
X84917731Y-71022866D01*
X84917731Y-71022866D02*
X84879636Y-71099057D01*
X84879636Y-71099057D02*
X84841541Y-71137152D01*
X84841541Y-71137152D02*
X84765350Y-71175247D01*
X84765350Y-71175247D02*
X84498684Y-71175247D01*
X85641541Y-70794295D02*
X85489160Y-70794295D01*
X85489160Y-70794295D02*
X85412969Y-70832390D01*
X85412969Y-70832390D02*
X85374874Y-70870485D01*
X85374874Y-70870485D02*
X85298684Y-70984771D01*
X85298684Y-70984771D02*
X85260588Y-71137152D01*
X85260588Y-71137152D02*
X85260588Y-71441914D01*
X85260588Y-71441914D02*
X85298684Y-71518104D01*
X85298684Y-71518104D02*
X85336779Y-71556200D01*
X85336779Y-71556200D02*
X85412969Y-71594295D01*
X85412969Y-71594295D02*
X85565350Y-71594295D01*
X85565350Y-71594295D02*
X85641541Y-71556200D01*
X85641541Y-71556200D02*
X85679636Y-71518104D01*
X85679636Y-71518104D02*
X85717731Y-71441914D01*
X85717731Y-71441914D02*
X85717731Y-71251438D01*
X85717731Y-71251438D02*
X85679636Y-71175247D01*
X85679636Y-71175247D02*
X85641541Y-71137152D01*
X85641541Y-71137152D02*
X85565350Y-71099057D01*
X85565350Y-71099057D02*
X85412969Y-71099057D01*
X85412969Y-71099057D02*
X85336779Y-71137152D01*
X85336779Y-71137152D02*
X85298684Y-71175247D01*
X85298684Y-71175247D02*
X85260588Y-71251438D01*
X86403446Y-70794295D02*
X86251065Y-70794295D01*
X86251065Y-70794295D02*
X86174874Y-70832390D01*
X86174874Y-70832390D02*
X86136779Y-70870485D01*
X86136779Y-70870485D02*
X86060589Y-70984771D01*
X86060589Y-70984771D02*
X86022493Y-71137152D01*
X86022493Y-71137152D02*
X86022493Y-71441914D01*
X86022493Y-71441914D02*
X86060589Y-71518104D01*
X86060589Y-71518104D02*
X86098684Y-71556200D01*
X86098684Y-71556200D02*
X86174874Y-71594295D01*
X86174874Y-71594295D02*
X86327255Y-71594295D01*
X86327255Y-71594295D02*
X86403446Y-71556200D01*
X86403446Y-71556200D02*
X86441541Y-71518104D01*
X86441541Y-71518104D02*
X86479636Y-71441914D01*
X86479636Y-71441914D02*
X86479636Y-71251438D01*
X86479636Y-71251438D02*
X86441541Y-71175247D01*
X86441541Y-71175247D02*
X86403446Y-71137152D01*
X86403446Y-71137152D02*
X86327255Y-71099057D01*
X86327255Y-71099057D02*
X86174874Y-71099057D01*
X86174874Y-71099057D02*
X86098684Y-71137152D01*
X86098684Y-71137152D02*
X86060589Y-71175247D01*
X86060589Y-71175247D02*
X86022493Y-71251438D01*
X87241541Y-71594295D02*
X86784398Y-71594295D01*
X87012970Y-71594295D02*
X87012970Y-70794295D01*
X87012970Y-70794295D02*
X86936779Y-70908580D01*
X86936779Y-70908580D02*
X86860589Y-70984771D01*
X86860589Y-70984771D02*
X86784398Y-71022866D01*
X87546303Y-70870485D02*
X87584399Y-70832390D01*
X87584399Y-70832390D02*
X87660589Y-70794295D01*
X87660589Y-70794295D02*
X87851065Y-70794295D01*
X87851065Y-70794295D02*
X87927256Y-70832390D01*
X87927256Y-70832390D02*
X87965351Y-70870485D01*
X87965351Y-70870485D02*
X88003446Y-70946676D01*
X88003446Y-70946676D02*
X88003446Y-71022866D01*
X88003446Y-71022866D02*
X87965351Y-71137152D01*
X87965351Y-71137152D02*
X87508208Y-71594295D01*
X87508208Y-71594295D02*
X88003446Y-71594295D01*
X88612970Y-71175247D02*
X88346304Y-71175247D01*
X88346304Y-71594295D02*
X88346304Y-70794295D01*
X88346304Y-70794295D02*
X88727256Y-70794295D01*
X89032018Y-71594295D02*
X89032018Y-70794295D01*
X89032018Y-70794295D02*
X89489161Y-71594295D01*
X89489161Y-71594295D02*
X89489161Y-70794295D01*
X90289160Y-70832390D02*
X90212970Y-70794295D01*
X90212970Y-70794295D02*
X90098684Y-70794295D01*
X90098684Y-70794295D02*
X89984398Y-70832390D01*
X89984398Y-70832390D02*
X89908208Y-70908580D01*
X89908208Y-70908580D02*
X89870113Y-70984771D01*
X89870113Y-70984771D02*
X89832017Y-71137152D01*
X89832017Y-71137152D02*
X89832017Y-71251438D01*
X89832017Y-71251438D02*
X89870113Y-71403819D01*
X89870113Y-71403819D02*
X89908208Y-71480009D01*
X89908208Y-71480009D02*
X89984398Y-71556200D01*
X89984398Y-71556200D02*
X90098684Y-71594295D01*
X90098684Y-71594295D02*
X90174875Y-71594295D01*
X90174875Y-71594295D02*
X90289160Y-71556200D01*
X90289160Y-71556200D02*
X90327256Y-71518104D01*
X90327256Y-71518104D02*
X90327256Y-71251438D01*
X90327256Y-71251438D02*
X90174875Y-71251438D01*
D11*
X77350312Y-79684990D02*
X77274122Y-79646895D01*
X77274122Y-79646895D02*
X77159836Y-79646895D01*
X77159836Y-79646895D02*
X77045550Y-79684990D01*
X77045550Y-79684990D02*
X76969360Y-79761180D01*
X76969360Y-79761180D02*
X76931265Y-79837371D01*
X76931265Y-79837371D02*
X76893169Y-79989752D01*
X76893169Y-79989752D02*
X76893169Y-80104038D01*
X76893169Y-80104038D02*
X76931265Y-80256419D01*
X76931265Y-80256419D02*
X76969360Y-80332609D01*
X76969360Y-80332609D02*
X77045550Y-80408800D01*
X77045550Y-80408800D02*
X77159836Y-80446895D01*
X77159836Y-80446895D02*
X77236027Y-80446895D01*
X77236027Y-80446895D02*
X77350312Y-80408800D01*
X77350312Y-80408800D02*
X77388408Y-80370704D01*
X77388408Y-80370704D02*
X77388408Y-80104038D01*
X77388408Y-80104038D02*
X77236027Y-80104038D01*
X77731265Y-80446895D02*
X77731265Y-79646895D01*
X77731265Y-79646895D02*
X78188408Y-80446895D01*
X78188408Y-80446895D02*
X78188408Y-79646895D01*
X78569360Y-80446895D02*
X78569360Y-79646895D01*
X78569360Y-79646895D02*
X78759836Y-79646895D01*
X78759836Y-79646895D02*
X78874122Y-79684990D01*
X78874122Y-79684990D02*
X78950312Y-79761180D01*
X78950312Y-79761180D02*
X78988407Y-79837371D01*
X78988407Y-79837371D02*
X79026503Y-79989752D01*
X79026503Y-79989752D02*
X79026503Y-80104038D01*
X79026503Y-80104038D02*
X78988407Y-80256419D01*
X78988407Y-80256419D02*
X78950312Y-80332609D01*
X78950312Y-80332609D02*
X78874122Y-80408800D01*
X78874122Y-80408800D02*
X78759836Y-80446895D01*
X78759836Y-80446895D02*
X78569360Y-80446895D01*
D10*
X128238095Y-94107200D02*
X128380952Y-94154819D01*
X128380952Y-94154819D02*
X128619047Y-94154819D01*
X128619047Y-94154819D02*
X128714285Y-94107200D01*
X128714285Y-94107200D02*
X128761904Y-94059580D01*
X128761904Y-94059580D02*
X128809523Y-93964342D01*
X128809523Y-93964342D02*
X128809523Y-93869104D01*
X128809523Y-93869104D02*
X128761904Y-93773866D01*
X128761904Y-93773866D02*
X128714285Y-93726247D01*
X128714285Y-93726247D02*
X128619047Y-93678628D01*
X128619047Y-93678628D02*
X128428571Y-93631009D01*
X128428571Y-93631009D02*
X128333333Y-93583390D01*
X128333333Y-93583390D02*
X128285714Y-93535771D01*
X128285714Y-93535771D02*
X128238095Y-93440533D01*
X128238095Y-93440533D02*
X128238095Y-93345295D01*
X128238095Y-93345295D02*
X128285714Y-93250057D01*
X128285714Y-93250057D02*
X128333333Y-93202438D01*
X128333333Y-93202438D02*
X128428571Y-93154819D01*
X128428571Y-93154819D02*
X128666666Y-93154819D01*
X128666666Y-93154819D02*
X128809523Y-93202438D01*
X129142857Y-93154819D02*
X129380952Y-94154819D01*
X129380952Y-94154819D02*
X129571428Y-93440533D01*
X129571428Y-93440533D02*
X129761904Y-94154819D01*
X129761904Y-94154819D02*
X130000000Y-93154819D01*
X130142857Y-94250057D02*
X130904761Y-94250057D01*
X131142857Y-93154819D02*
X131142857Y-93964342D01*
X131142857Y-93964342D02*
X131190476Y-94059580D01*
X131190476Y-94059580D02*
X131238095Y-94107200D01*
X131238095Y-94107200D02*
X131333333Y-94154819D01*
X131333333Y-94154819D02*
X131523809Y-94154819D01*
X131523809Y-94154819D02*
X131619047Y-94107200D01*
X131619047Y-94107200D02*
X131666666Y-94059580D01*
X131666666Y-94059580D02*
X131714285Y-93964342D01*
X131714285Y-93964342D02*
X131714285Y-93154819D01*
D11*
X77272931Y-75027847D02*
X77387217Y-75065942D01*
X77387217Y-75065942D02*
X77425312Y-75104038D01*
X77425312Y-75104038D02*
X77463408Y-75180228D01*
X77463408Y-75180228D02*
X77463408Y-75294514D01*
X77463408Y-75294514D02*
X77425312Y-75370704D01*
X77425312Y-75370704D02*
X77387217Y-75408800D01*
X77387217Y-75408800D02*
X77311027Y-75446895D01*
X77311027Y-75446895D02*
X77006265Y-75446895D01*
X77006265Y-75446895D02*
X77006265Y-74646895D01*
X77006265Y-74646895D02*
X77272931Y-74646895D01*
X77272931Y-74646895D02*
X77349122Y-74684990D01*
X77349122Y-74684990D02*
X77387217Y-74723085D01*
X77387217Y-74723085D02*
X77425312Y-74799276D01*
X77425312Y-74799276D02*
X77425312Y-74875466D01*
X77425312Y-74875466D02*
X77387217Y-74951657D01*
X77387217Y-74951657D02*
X77349122Y-74989752D01*
X77349122Y-74989752D02*
X77272931Y-75027847D01*
X77272931Y-75027847D02*
X77006265Y-75027847D01*
X77958646Y-74646895D02*
X78111027Y-74646895D01*
X78111027Y-74646895D02*
X78187217Y-74684990D01*
X78187217Y-74684990D02*
X78263408Y-74761180D01*
X78263408Y-74761180D02*
X78301503Y-74913561D01*
X78301503Y-74913561D02*
X78301503Y-75180228D01*
X78301503Y-75180228D02*
X78263408Y-75332609D01*
X78263408Y-75332609D02*
X78187217Y-75408800D01*
X78187217Y-75408800D02*
X78111027Y-75446895D01*
X78111027Y-75446895D02*
X77958646Y-75446895D01*
X77958646Y-75446895D02*
X77882455Y-75408800D01*
X77882455Y-75408800D02*
X77806265Y-75332609D01*
X77806265Y-75332609D02*
X77768169Y-75180228D01*
X77768169Y-75180228D02*
X77768169Y-74913561D01*
X77768169Y-74913561D02*
X77806265Y-74761180D01*
X77806265Y-74761180D02*
X77882455Y-74684990D01*
X77882455Y-74684990D02*
X77958646Y-74646895D01*
X79063407Y-75446895D02*
X78606264Y-75446895D01*
X78834836Y-75446895D02*
X78834836Y-74646895D01*
X78834836Y-74646895D02*
X78758645Y-74761180D01*
X78758645Y-74761180D02*
X78682455Y-74837371D01*
X78682455Y-74837371D02*
X78606264Y-74875466D01*
D10*
X163232390Y-91291792D02*
X163194295Y-91367982D01*
X163194295Y-91367982D02*
X163194295Y-91482268D01*
X163194295Y-91482268D02*
X163232390Y-91596554D01*
X163232390Y-91596554D02*
X163308580Y-91672744D01*
X163308580Y-91672744D02*
X163384771Y-91710839D01*
X163384771Y-91710839D02*
X163537152Y-91748935D01*
X163537152Y-91748935D02*
X163651438Y-91748935D01*
X163651438Y-91748935D02*
X163803819Y-91710839D01*
X163803819Y-91710839D02*
X163880009Y-91672744D01*
X163880009Y-91672744D02*
X163956200Y-91596554D01*
X163956200Y-91596554D02*
X163994295Y-91482268D01*
X163994295Y-91482268D02*
X163994295Y-91406077D01*
X163994295Y-91406077D02*
X163956200Y-91291792D01*
X163956200Y-91291792D02*
X163918104Y-91253696D01*
X163918104Y-91253696D02*
X163651438Y-91253696D01*
X163651438Y-91253696D02*
X163651438Y-91406077D01*
X163994295Y-90910839D02*
X163194295Y-90910839D01*
X163194295Y-90910839D02*
X163994295Y-90453696D01*
X163994295Y-90453696D02*
X163194295Y-90453696D01*
X163994295Y-90072744D02*
X163194295Y-90072744D01*
X163194295Y-90072744D02*
X163194295Y-89882268D01*
X163194295Y-89882268D02*
X163232390Y-89767982D01*
X163232390Y-89767982D02*
X163308580Y-89691792D01*
X163308580Y-89691792D02*
X163384771Y-89653697D01*
X163384771Y-89653697D02*
X163537152Y-89615601D01*
X163537152Y-89615601D02*
X163651438Y-89615601D01*
X163651438Y-89615601D02*
X163803819Y-89653697D01*
X163803819Y-89653697D02*
X163880009Y-89691792D01*
X163880009Y-89691792D02*
X163956200Y-89767982D01*
X163956200Y-89767982D02*
X163994295Y-89882268D01*
X163994295Y-89882268D02*
X163994295Y-90072744D01*
D11*
X93996895Y-94086591D02*
X93196895Y-94086591D01*
X93996895Y-93629448D02*
X93539752Y-93972306D01*
X93196895Y-93629448D02*
X93654038Y-94086591D01*
X95665942Y-50102067D02*
X96046895Y-50102067D01*
X95246895Y-50368734D02*
X95665942Y-50102067D01*
X95665942Y-50102067D02*
X95246895Y-49835401D01*
X138353800Y-59581830D02*
X138391895Y-59467544D01*
X138391895Y-59467544D02*
X138391895Y-59277068D01*
X138391895Y-59277068D02*
X138353800Y-59200877D01*
X138353800Y-59200877D02*
X138315704Y-59162782D01*
X138315704Y-59162782D02*
X138239514Y-59124687D01*
X138239514Y-59124687D02*
X138163323Y-59124687D01*
X138163323Y-59124687D02*
X138087133Y-59162782D01*
X138087133Y-59162782D02*
X138049038Y-59200877D01*
X138049038Y-59200877D02*
X138010942Y-59277068D01*
X138010942Y-59277068D02*
X137972847Y-59429449D01*
X137972847Y-59429449D02*
X137934752Y-59505639D01*
X137934752Y-59505639D02*
X137896657Y-59543734D01*
X137896657Y-59543734D02*
X137820466Y-59581830D01*
X137820466Y-59581830D02*
X137744276Y-59581830D01*
X137744276Y-59581830D02*
X137668085Y-59543734D01*
X137668085Y-59543734D02*
X137629990Y-59505639D01*
X137629990Y-59505639D02*
X137591895Y-59429449D01*
X137591895Y-59429449D02*
X137591895Y-59238972D01*
X137591895Y-59238972D02*
X137629990Y-59124687D01*
X138315704Y-58324686D02*
X138353800Y-58362782D01*
X138353800Y-58362782D02*
X138391895Y-58477067D01*
X138391895Y-58477067D02*
X138391895Y-58553258D01*
X138391895Y-58553258D02*
X138353800Y-58667544D01*
X138353800Y-58667544D02*
X138277609Y-58743734D01*
X138277609Y-58743734D02*
X138201419Y-58781829D01*
X138201419Y-58781829D02*
X138049038Y-58819925D01*
X138049038Y-58819925D02*
X137934752Y-58819925D01*
X137934752Y-58819925D02*
X137782371Y-58781829D01*
X137782371Y-58781829D02*
X137706180Y-58743734D01*
X137706180Y-58743734D02*
X137629990Y-58667544D01*
X137629990Y-58667544D02*
X137591895Y-58553258D01*
X137591895Y-58553258D02*
X137591895Y-58477067D01*
X137591895Y-58477067D02*
X137629990Y-58362782D01*
X137629990Y-58362782D02*
X137668085Y-58324686D01*
X138391895Y-57600877D02*
X138391895Y-57981829D01*
X138391895Y-57981829D02*
X137591895Y-57981829D01*
X138391895Y-56915163D02*
X138391895Y-57372306D01*
X138391895Y-57143734D02*
X137591895Y-57143734D01*
X137591895Y-57143734D02*
X137706180Y-57219925D01*
X137706180Y-57219925D02*
X137782371Y-57296115D01*
X137782371Y-57296115D02*
X137820466Y-57372306D01*
X158691895Y-52786591D02*
X158310942Y-53053258D01*
X158691895Y-53243734D02*
X157891895Y-53243734D01*
X157891895Y-53243734D02*
X157891895Y-52938972D01*
X157891895Y-52938972D02*
X157929990Y-52862782D01*
X157929990Y-52862782D02*
X157968085Y-52824687D01*
X157968085Y-52824687D02*
X158044276Y-52786591D01*
X158044276Y-52786591D02*
X158158561Y-52786591D01*
X158158561Y-52786591D02*
X158234752Y-52824687D01*
X158234752Y-52824687D02*
X158272847Y-52862782D01*
X158272847Y-52862782D02*
X158310942Y-52938972D01*
X158310942Y-52938972D02*
X158310942Y-53243734D01*
X157891895Y-52519925D02*
X158691895Y-51986591D01*
X157891895Y-51986591D02*
X158691895Y-52519925D01*
X157891895Y-51529448D02*
X157891895Y-51453258D01*
X157891895Y-51453258D02*
X157929990Y-51377067D01*
X157929990Y-51377067D02*
X157968085Y-51338972D01*
X157968085Y-51338972D02*
X158044276Y-51300877D01*
X158044276Y-51300877D02*
X158196657Y-51262782D01*
X158196657Y-51262782D02*
X158387133Y-51262782D01*
X158387133Y-51262782D02*
X158539514Y-51300877D01*
X158539514Y-51300877D02*
X158615704Y-51338972D01*
X158615704Y-51338972D02*
X158653800Y-51377067D01*
X158653800Y-51377067D02*
X158691895Y-51453258D01*
X158691895Y-51453258D02*
X158691895Y-51529448D01*
X158691895Y-51529448D02*
X158653800Y-51605639D01*
X158653800Y-51605639D02*
X158615704Y-51643734D01*
X158615704Y-51643734D02*
X158539514Y-51681829D01*
X158539514Y-51681829D02*
X158387133Y-51719925D01*
X158387133Y-51719925D02*
X158196657Y-51719925D01*
X158196657Y-51719925D02*
X158044276Y-51681829D01*
X158044276Y-51681829D02*
X157968085Y-51643734D01*
X157968085Y-51643734D02*
X157929990Y-51605639D01*
X157929990Y-51605639D02*
X157891895Y-51529448D01*
X95118169Y-70158800D02*
X95232455Y-70196895D01*
X95232455Y-70196895D02*
X95422931Y-70196895D01*
X95422931Y-70196895D02*
X95499122Y-70158800D01*
X95499122Y-70158800D02*
X95537217Y-70120704D01*
X95537217Y-70120704D02*
X95575312Y-70044514D01*
X95575312Y-70044514D02*
X95575312Y-69968323D01*
X95575312Y-69968323D02*
X95537217Y-69892133D01*
X95537217Y-69892133D02*
X95499122Y-69854038D01*
X95499122Y-69854038D02*
X95422931Y-69815942D01*
X95422931Y-69815942D02*
X95270550Y-69777847D01*
X95270550Y-69777847D02*
X95194360Y-69739752D01*
X95194360Y-69739752D02*
X95156265Y-69701657D01*
X95156265Y-69701657D02*
X95118169Y-69625466D01*
X95118169Y-69625466D02*
X95118169Y-69549276D01*
X95118169Y-69549276D02*
X95156265Y-69473085D01*
X95156265Y-69473085D02*
X95194360Y-69434990D01*
X95194360Y-69434990D02*
X95270550Y-69396895D01*
X95270550Y-69396895D02*
X95461027Y-69396895D01*
X95461027Y-69396895D02*
X95575312Y-69434990D01*
X95803884Y-69396895D02*
X96261027Y-69396895D01*
X96032455Y-70196895D02*
X96032455Y-69396895D01*
X96794360Y-69777847D02*
X96908646Y-69815942D01*
X96908646Y-69815942D02*
X96946741Y-69854038D01*
X96946741Y-69854038D02*
X96984837Y-69930228D01*
X96984837Y-69930228D02*
X96984837Y-70044514D01*
X96984837Y-70044514D02*
X96946741Y-70120704D01*
X96946741Y-70120704D02*
X96908646Y-70158800D01*
X96908646Y-70158800D02*
X96832456Y-70196895D01*
X96832456Y-70196895D02*
X96527694Y-70196895D01*
X96527694Y-70196895D02*
X96527694Y-69396895D01*
X96527694Y-69396895D02*
X96794360Y-69396895D01*
X96794360Y-69396895D02*
X96870551Y-69434990D01*
X96870551Y-69434990D02*
X96908646Y-69473085D01*
X96908646Y-69473085D02*
X96946741Y-69549276D01*
X96946741Y-69549276D02*
X96946741Y-69625466D01*
X96946741Y-69625466D02*
X96908646Y-69701657D01*
X96908646Y-69701657D02*
X96870551Y-69739752D01*
X96870551Y-69739752D02*
X96794360Y-69777847D01*
X96794360Y-69777847D02*
X96527694Y-69777847D01*
X97480075Y-69815942D02*
X97480075Y-70196895D01*
X97213408Y-69396895D02*
X97480075Y-69815942D01*
X97480075Y-69815942D02*
X97746741Y-69396895D01*
X184496895Y-76162782D02*
X184496895Y-76543734D01*
X184496895Y-76543734D02*
X184877847Y-76581830D01*
X184877847Y-76581830D02*
X184839752Y-76543734D01*
X184839752Y-76543734D02*
X184801657Y-76467544D01*
X184801657Y-76467544D02*
X184801657Y-76277068D01*
X184801657Y-76277068D02*
X184839752Y-76200877D01*
X184839752Y-76200877D02*
X184877847Y-76162782D01*
X184877847Y-76162782D02*
X184954038Y-76124687D01*
X184954038Y-76124687D02*
X185144514Y-76124687D01*
X185144514Y-76124687D02*
X185220704Y-76162782D01*
X185220704Y-76162782D02*
X185258800Y-76200877D01*
X185258800Y-76200877D02*
X185296895Y-76277068D01*
X185296895Y-76277068D02*
X185296895Y-76467544D01*
X185296895Y-76467544D02*
X185258800Y-76543734D01*
X185258800Y-76543734D02*
X185220704Y-76581830D01*
X184496895Y-75896115D02*
X185296895Y-75629448D01*
X185296895Y-75629448D02*
X184496895Y-75362782D01*
X185601657Y-74867544D02*
X185563561Y-74905639D01*
X185563561Y-74905639D02*
X185449276Y-74981830D01*
X185449276Y-74981830D02*
X185373085Y-75019925D01*
X185373085Y-75019925D02*
X185258800Y-75058020D01*
X185258800Y-75058020D02*
X185068323Y-75096115D01*
X185068323Y-75096115D02*
X184915942Y-75096115D01*
X184915942Y-75096115D02*
X184725466Y-75058020D01*
X184725466Y-75058020D02*
X184611180Y-75019925D01*
X184611180Y-75019925D02*
X184534990Y-74981830D01*
X184534990Y-74981830D02*
X184420704Y-74905639D01*
X184420704Y-74905639D02*
X184382609Y-74867544D01*
X184496895Y-74410401D02*
X184496895Y-74258020D01*
X184496895Y-74258020D02*
X184534990Y-74181830D01*
X184534990Y-74181830D02*
X184611180Y-74105639D01*
X184611180Y-74105639D02*
X184763561Y-74067544D01*
X184763561Y-74067544D02*
X185030228Y-74067544D01*
X185030228Y-74067544D02*
X185182609Y-74105639D01*
X185182609Y-74105639D02*
X185258800Y-74181830D01*
X185258800Y-74181830D02*
X185296895Y-74258020D01*
X185296895Y-74258020D02*
X185296895Y-74410401D01*
X185296895Y-74410401D02*
X185258800Y-74486592D01*
X185258800Y-74486592D02*
X185182609Y-74562782D01*
X185182609Y-74562782D02*
X185030228Y-74600878D01*
X185030228Y-74600878D02*
X184763561Y-74600878D01*
X184763561Y-74600878D02*
X184611180Y-74562782D01*
X184611180Y-74562782D02*
X184534990Y-74486592D01*
X184534990Y-74486592D02*
X184496895Y-74410401D01*
X184496895Y-73724687D02*
X185144514Y-73724687D01*
X185144514Y-73724687D02*
X185220704Y-73686592D01*
X185220704Y-73686592D02*
X185258800Y-73648497D01*
X185258800Y-73648497D02*
X185296895Y-73572306D01*
X185296895Y-73572306D02*
X185296895Y-73419925D01*
X185296895Y-73419925D02*
X185258800Y-73343735D01*
X185258800Y-73343735D02*
X185220704Y-73305640D01*
X185220704Y-73305640D02*
X185144514Y-73267544D01*
X185144514Y-73267544D02*
X184496895Y-73267544D01*
X184496895Y-73000878D02*
X184496895Y-72543735D01*
X185296895Y-72772307D02*
X184496895Y-72772307D01*
X185601657Y-72353259D02*
X185563561Y-72315164D01*
X185563561Y-72315164D02*
X185449276Y-72238973D01*
X185449276Y-72238973D02*
X185373085Y-72200878D01*
X185373085Y-72200878D02*
X185258800Y-72162783D01*
X185258800Y-72162783D02*
X185068323Y-72124687D01*
X185068323Y-72124687D02*
X184915942Y-72124687D01*
X184915942Y-72124687D02*
X184725466Y-72162783D01*
X184725466Y-72162783D02*
X184611180Y-72200878D01*
X184611180Y-72200878D02*
X184534990Y-72238973D01*
X184534990Y-72238973D02*
X184420704Y-72315164D01*
X184420704Y-72315164D02*
X184382609Y-72353259D01*
X97284990Y-49892544D02*
X97246895Y-49968734D01*
X97246895Y-49968734D02*
X97246895Y-50083020D01*
X97246895Y-50083020D02*
X97284990Y-50197306D01*
X97284990Y-50197306D02*
X97361180Y-50273496D01*
X97361180Y-50273496D02*
X97437371Y-50311591D01*
X97437371Y-50311591D02*
X97589752Y-50349687D01*
X97589752Y-50349687D02*
X97704038Y-50349687D01*
X97704038Y-50349687D02*
X97856419Y-50311591D01*
X97856419Y-50311591D02*
X97932609Y-50273496D01*
X97932609Y-50273496D02*
X98008800Y-50197306D01*
X98008800Y-50197306D02*
X98046895Y-50083020D01*
X98046895Y-50083020D02*
X98046895Y-50006829D01*
X98046895Y-50006829D02*
X98008800Y-49892544D01*
X98008800Y-49892544D02*
X97970704Y-49854448D01*
X97970704Y-49854448D02*
X97704038Y-49854448D01*
X97704038Y-49854448D02*
X97704038Y-50006829D01*
X94577847Y-93819925D02*
X94615942Y-93705639D01*
X94615942Y-93705639D02*
X94654038Y-93667544D01*
X94654038Y-93667544D02*
X94730228Y-93629448D01*
X94730228Y-93629448D02*
X94844514Y-93629448D01*
X94844514Y-93629448D02*
X94920704Y-93667544D01*
X94920704Y-93667544D02*
X94958800Y-93705639D01*
X94958800Y-93705639D02*
X94996895Y-93781829D01*
X94996895Y-93781829D02*
X94996895Y-94086591D01*
X94996895Y-94086591D02*
X94196895Y-94086591D01*
X94196895Y-94086591D02*
X94196895Y-93819925D01*
X94196895Y-93819925D02*
X94234990Y-93743734D01*
X94234990Y-93743734D02*
X94273085Y-93705639D01*
X94273085Y-93705639D02*
X94349276Y-93667544D01*
X94349276Y-93667544D02*
X94425466Y-93667544D01*
X94425466Y-93667544D02*
X94501657Y-93705639D01*
X94501657Y-93705639D02*
X94539752Y-93743734D01*
X94539752Y-93743734D02*
X94577847Y-93819925D01*
X94577847Y-93819925D02*
X94577847Y-94086591D01*
X96196895Y-94219925D02*
X96996895Y-94029449D01*
X96996895Y-94029449D02*
X96425466Y-93877068D01*
X96425466Y-93877068D02*
X96996895Y-93724687D01*
X96996895Y-93724687D02*
X96196895Y-93534211D01*
X77030074Y-64446895D02*
X77525312Y-64446895D01*
X77525312Y-64446895D02*
X77258646Y-64751657D01*
X77258646Y-64751657D02*
X77372931Y-64751657D01*
X77372931Y-64751657D02*
X77449122Y-64789752D01*
X77449122Y-64789752D02*
X77487217Y-64827847D01*
X77487217Y-64827847D02*
X77525312Y-64904038D01*
X77525312Y-64904038D02*
X77525312Y-65094514D01*
X77525312Y-65094514D02*
X77487217Y-65170704D01*
X77487217Y-65170704D02*
X77449122Y-65208800D01*
X77449122Y-65208800D02*
X77372931Y-65246895D01*
X77372931Y-65246895D02*
X77144360Y-65246895D01*
X77144360Y-65246895D02*
X77068169Y-65208800D01*
X77068169Y-65208800D02*
X77030074Y-65170704D01*
X77753884Y-64446895D02*
X78020551Y-65246895D01*
X78020551Y-65246895D02*
X78287217Y-64446895D01*
X78477693Y-64446895D02*
X78972931Y-64446895D01*
X78972931Y-64446895D02*
X78706265Y-64751657D01*
X78706265Y-64751657D02*
X78820550Y-64751657D01*
X78820550Y-64751657D02*
X78896741Y-64789752D01*
X78896741Y-64789752D02*
X78934836Y-64827847D01*
X78934836Y-64827847D02*
X78972931Y-64904038D01*
X78972931Y-64904038D02*
X78972931Y-65094514D01*
X78972931Y-65094514D02*
X78934836Y-65170704D01*
X78934836Y-65170704D02*
X78896741Y-65208800D01*
X78896741Y-65208800D02*
X78820550Y-65246895D01*
X78820550Y-65246895D02*
X78591979Y-65246895D01*
X78591979Y-65246895D02*
X78515788Y-65208800D01*
X78515788Y-65208800D02*
X78477693Y-65170704D01*
X94627847Y-50044925D02*
X94665942Y-49930639D01*
X94665942Y-49930639D02*
X94704038Y-49892544D01*
X94704038Y-49892544D02*
X94780228Y-49854448D01*
X94780228Y-49854448D02*
X94894514Y-49854448D01*
X94894514Y-49854448D02*
X94970704Y-49892544D01*
X94970704Y-49892544D02*
X95008800Y-49930639D01*
X95008800Y-49930639D02*
X95046895Y-50006829D01*
X95046895Y-50006829D02*
X95046895Y-50311591D01*
X95046895Y-50311591D02*
X94246895Y-50311591D01*
X94246895Y-50311591D02*
X94246895Y-50044925D01*
X94246895Y-50044925D02*
X94284990Y-49968734D01*
X94284990Y-49968734D02*
X94323085Y-49930639D01*
X94323085Y-49930639D02*
X94399276Y-49892544D01*
X94399276Y-49892544D02*
X94475466Y-49892544D01*
X94475466Y-49892544D02*
X94551657Y-49930639D01*
X94551657Y-49930639D02*
X94589752Y-49968734D01*
X94589752Y-49968734D02*
X94627847Y-50044925D01*
X94627847Y-50044925D02*
X94627847Y-50311591D01*
X95615942Y-93877067D02*
X95996895Y-93877067D01*
X95196895Y-94143734D02*
X95615942Y-93877067D01*
X95615942Y-93877067D02*
X95196895Y-93610401D01*
X140953800Y-59581830D02*
X140991895Y-59467544D01*
X140991895Y-59467544D02*
X140991895Y-59277068D01*
X140991895Y-59277068D02*
X140953800Y-59200877D01*
X140953800Y-59200877D02*
X140915704Y-59162782D01*
X140915704Y-59162782D02*
X140839514Y-59124687D01*
X140839514Y-59124687D02*
X140763323Y-59124687D01*
X140763323Y-59124687D02*
X140687133Y-59162782D01*
X140687133Y-59162782D02*
X140649038Y-59200877D01*
X140649038Y-59200877D02*
X140610942Y-59277068D01*
X140610942Y-59277068D02*
X140572847Y-59429449D01*
X140572847Y-59429449D02*
X140534752Y-59505639D01*
X140534752Y-59505639D02*
X140496657Y-59543734D01*
X140496657Y-59543734D02*
X140420466Y-59581830D01*
X140420466Y-59581830D02*
X140344276Y-59581830D01*
X140344276Y-59581830D02*
X140268085Y-59543734D01*
X140268085Y-59543734D02*
X140229990Y-59505639D01*
X140229990Y-59505639D02*
X140191895Y-59429449D01*
X140191895Y-59429449D02*
X140191895Y-59238972D01*
X140191895Y-59238972D02*
X140229990Y-59124687D01*
X140991895Y-58781829D02*
X140191895Y-58781829D01*
X140191895Y-58781829D02*
X140191895Y-58591353D01*
X140191895Y-58591353D02*
X140229990Y-58477067D01*
X140229990Y-58477067D02*
X140306180Y-58400877D01*
X140306180Y-58400877D02*
X140382371Y-58362782D01*
X140382371Y-58362782D02*
X140534752Y-58324686D01*
X140534752Y-58324686D02*
X140649038Y-58324686D01*
X140649038Y-58324686D02*
X140801419Y-58362782D01*
X140801419Y-58362782D02*
X140877609Y-58400877D01*
X140877609Y-58400877D02*
X140953800Y-58477067D01*
X140953800Y-58477067D02*
X140991895Y-58591353D01*
X140991895Y-58591353D02*
X140991895Y-58781829D01*
X140763323Y-58019925D02*
X140763323Y-57638972D01*
X140991895Y-58096115D02*
X140191895Y-57829448D01*
X140191895Y-57829448D02*
X140991895Y-57562782D01*
X140991895Y-56877068D02*
X140991895Y-57334211D01*
X140991895Y-57105639D02*
X140191895Y-57105639D01*
X140191895Y-57105639D02*
X140306180Y-57181830D01*
X140306180Y-57181830D02*
X140382371Y-57258020D01*
X140382371Y-57258020D02*
X140420466Y-57334211D01*
X151153800Y-59581830D02*
X151191895Y-59467544D01*
X151191895Y-59467544D02*
X151191895Y-59277068D01*
X151191895Y-59277068D02*
X151153800Y-59200877D01*
X151153800Y-59200877D02*
X151115704Y-59162782D01*
X151115704Y-59162782D02*
X151039514Y-59124687D01*
X151039514Y-59124687D02*
X150963323Y-59124687D01*
X150963323Y-59124687D02*
X150887133Y-59162782D01*
X150887133Y-59162782D02*
X150849038Y-59200877D01*
X150849038Y-59200877D02*
X150810942Y-59277068D01*
X150810942Y-59277068D02*
X150772847Y-59429449D01*
X150772847Y-59429449D02*
X150734752Y-59505639D01*
X150734752Y-59505639D02*
X150696657Y-59543734D01*
X150696657Y-59543734D02*
X150620466Y-59581830D01*
X150620466Y-59581830D02*
X150544276Y-59581830D01*
X150544276Y-59581830D02*
X150468085Y-59543734D01*
X150468085Y-59543734D02*
X150429990Y-59505639D01*
X150429990Y-59505639D02*
X150391895Y-59429449D01*
X150391895Y-59429449D02*
X150391895Y-59238972D01*
X150391895Y-59238972D02*
X150429990Y-59124687D01*
X150391895Y-58896115D02*
X150391895Y-58438972D01*
X151191895Y-58667544D02*
X150391895Y-58667544D01*
X150391895Y-58248496D02*
X151191895Y-57715162D01*
X150391895Y-57715162D02*
X151191895Y-58248496D01*
X150391895Y-57258019D02*
X150391895Y-57181829D01*
X150391895Y-57181829D02*
X150429990Y-57105638D01*
X150429990Y-57105638D02*
X150468085Y-57067543D01*
X150468085Y-57067543D02*
X150544276Y-57029448D01*
X150544276Y-57029448D02*
X150696657Y-56991353D01*
X150696657Y-56991353D02*
X150887133Y-56991353D01*
X150887133Y-56991353D02*
X151039514Y-57029448D01*
X151039514Y-57029448D02*
X151115704Y-57067543D01*
X151115704Y-57067543D02*
X151153800Y-57105638D01*
X151153800Y-57105638D02*
X151191895Y-57181829D01*
X151191895Y-57181829D02*
X151191895Y-57258019D01*
X151191895Y-57258019D02*
X151153800Y-57334210D01*
X151153800Y-57334210D02*
X151115704Y-57372305D01*
X151115704Y-57372305D02*
X151039514Y-57410400D01*
X151039514Y-57410400D02*
X150887133Y-57448496D01*
X150887133Y-57448496D02*
X150696657Y-57448496D01*
X150696657Y-57448496D02*
X150544276Y-57410400D01*
X150544276Y-57410400D02*
X150468085Y-57372305D01*
X150468085Y-57372305D02*
X150429990Y-57334210D01*
X150429990Y-57334210D02*
X150391895Y-57258019D01*
X95143169Y-64893323D02*
X95524122Y-64893323D01*
X95066979Y-65121895D02*
X95333646Y-64321895D01*
X95333646Y-64321895D02*
X95600312Y-65121895D01*
X95866979Y-65121895D02*
X95866979Y-64321895D01*
X96247931Y-65121895D02*
X96247931Y-64321895D01*
X96247931Y-64321895D02*
X96705074Y-65121895D01*
X96705074Y-65121895D02*
X96705074Y-64321895D01*
X97047930Y-64398085D02*
X97086026Y-64359990D01*
X97086026Y-64359990D02*
X97162216Y-64321895D01*
X97162216Y-64321895D02*
X97352692Y-64321895D01*
X97352692Y-64321895D02*
X97428883Y-64359990D01*
X97428883Y-64359990D02*
X97466978Y-64398085D01*
X97466978Y-64398085D02*
X97505073Y-64474276D01*
X97505073Y-64474276D02*
X97505073Y-64550466D01*
X97505073Y-64550466D02*
X97466978Y-64664752D01*
X97466978Y-64664752D02*
X97009835Y-65121895D01*
X97009835Y-65121895D02*
X97505073Y-65121895D01*
D10*
X78119048Y-91173866D02*
X78880953Y-91173866D01*
D11*
X160491895Y-53158020D02*
X160491895Y-52700877D01*
X161291895Y-52929449D02*
X160491895Y-52929449D01*
X160491895Y-52510401D02*
X161291895Y-51977067D01*
X160491895Y-51977067D02*
X161291895Y-52510401D01*
X160491895Y-51519924D02*
X160491895Y-51443734D01*
X160491895Y-51443734D02*
X160529990Y-51367543D01*
X160529990Y-51367543D02*
X160568085Y-51329448D01*
X160568085Y-51329448D02*
X160644276Y-51291353D01*
X160644276Y-51291353D02*
X160796657Y-51253258D01*
X160796657Y-51253258D02*
X160987133Y-51253258D01*
X160987133Y-51253258D02*
X161139514Y-51291353D01*
X161139514Y-51291353D02*
X161215704Y-51329448D01*
X161215704Y-51329448D02*
X161253800Y-51367543D01*
X161253800Y-51367543D02*
X161291895Y-51443734D01*
X161291895Y-51443734D02*
X161291895Y-51519924D01*
X161291895Y-51519924D02*
X161253800Y-51596115D01*
X161253800Y-51596115D02*
X161215704Y-51634210D01*
X161215704Y-51634210D02*
X161139514Y-51672305D01*
X161139514Y-51672305D02*
X160987133Y-51710401D01*
X160987133Y-51710401D02*
X160796657Y-51710401D01*
X160796657Y-51710401D02*
X160644276Y-51672305D01*
X160644276Y-51672305D02*
X160568085Y-51634210D01*
X160568085Y-51634210D02*
X160529990Y-51596115D01*
X160529990Y-51596115D02*
X160491895Y-51519924D01*
X153453800Y-59781830D02*
X153491895Y-59667544D01*
X153491895Y-59667544D02*
X153491895Y-59477068D01*
X153491895Y-59477068D02*
X153453800Y-59400877D01*
X153453800Y-59400877D02*
X153415704Y-59362782D01*
X153415704Y-59362782D02*
X153339514Y-59324687D01*
X153339514Y-59324687D02*
X153263323Y-59324687D01*
X153263323Y-59324687D02*
X153187133Y-59362782D01*
X153187133Y-59362782D02*
X153149038Y-59400877D01*
X153149038Y-59400877D02*
X153110942Y-59477068D01*
X153110942Y-59477068D02*
X153072847Y-59629449D01*
X153072847Y-59629449D02*
X153034752Y-59705639D01*
X153034752Y-59705639D02*
X152996657Y-59743734D01*
X152996657Y-59743734D02*
X152920466Y-59781830D01*
X152920466Y-59781830D02*
X152844276Y-59781830D01*
X152844276Y-59781830D02*
X152768085Y-59743734D01*
X152768085Y-59743734D02*
X152729990Y-59705639D01*
X152729990Y-59705639D02*
X152691895Y-59629449D01*
X152691895Y-59629449D02*
X152691895Y-59438972D01*
X152691895Y-59438972D02*
X152729990Y-59324687D01*
X153415704Y-58524686D02*
X153453800Y-58562782D01*
X153453800Y-58562782D02*
X153491895Y-58677067D01*
X153491895Y-58677067D02*
X153491895Y-58753258D01*
X153491895Y-58753258D02*
X153453800Y-58867544D01*
X153453800Y-58867544D02*
X153377609Y-58943734D01*
X153377609Y-58943734D02*
X153301419Y-58981829D01*
X153301419Y-58981829D02*
X153149038Y-59019925D01*
X153149038Y-59019925D02*
X153034752Y-59019925D01*
X153034752Y-59019925D02*
X152882371Y-58981829D01*
X152882371Y-58981829D02*
X152806180Y-58943734D01*
X152806180Y-58943734D02*
X152729990Y-58867544D01*
X152729990Y-58867544D02*
X152691895Y-58753258D01*
X152691895Y-58753258D02*
X152691895Y-58677067D01*
X152691895Y-58677067D02*
X152729990Y-58562782D01*
X152729990Y-58562782D02*
X152768085Y-58524686D01*
X153491895Y-58181829D02*
X152691895Y-58181829D01*
X153491895Y-57724686D02*
X153034752Y-58067544D01*
X152691895Y-57724686D02*
X153149038Y-58181829D01*
X152691895Y-57229448D02*
X152691895Y-57153258D01*
X152691895Y-57153258D02*
X152729990Y-57077067D01*
X152729990Y-57077067D02*
X152768085Y-57038972D01*
X152768085Y-57038972D02*
X152844276Y-57000877D01*
X152844276Y-57000877D02*
X152996657Y-56962782D01*
X152996657Y-56962782D02*
X153187133Y-56962782D01*
X153187133Y-56962782D02*
X153339514Y-57000877D01*
X153339514Y-57000877D02*
X153415704Y-57038972D01*
X153415704Y-57038972D02*
X153453800Y-57077067D01*
X153453800Y-57077067D02*
X153491895Y-57153258D01*
X153491895Y-57153258D02*
X153491895Y-57229448D01*
X153491895Y-57229448D02*
X153453800Y-57305639D01*
X153453800Y-57305639D02*
X153415704Y-57343734D01*
X153415704Y-57343734D02*
X153339514Y-57381829D01*
X153339514Y-57381829D02*
X153187133Y-57419925D01*
X153187133Y-57419925D02*
X152996657Y-57419925D01*
X152996657Y-57419925D02*
X152844276Y-57381829D01*
X152844276Y-57381829D02*
X152768085Y-57343734D01*
X152768085Y-57343734D02*
X152729990Y-57305639D01*
X152729990Y-57305639D02*
X152691895Y-57229448D01*
X76141979Y-77171895D02*
X76408646Y-77971895D01*
X76408646Y-77971895D02*
X76675312Y-77171895D01*
X76941979Y-77971895D02*
X76941979Y-77171895D01*
X76941979Y-77171895D02*
X77208645Y-77743323D01*
X77208645Y-77743323D02*
X77475312Y-77171895D01*
X77475312Y-77171895D02*
X77475312Y-77971895D01*
X78008646Y-77171895D02*
X78161027Y-77171895D01*
X78161027Y-77171895D02*
X78237217Y-77209990D01*
X78237217Y-77209990D02*
X78313408Y-77286180D01*
X78313408Y-77286180D02*
X78351503Y-77438561D01*
X78351503Y-77438561D02*
X78351503Y-77705228D01*
X78351503Y-77705228D02*
X78313408Y-77857609D01*
X78313408Y-77857609D02*
X78237217Y-77933800D01*
X78237217Y-77933800D02*
X78161027Y-77971895D01*
X78161027Y-77971895D02*
X78008646Y-77971895D01*
X78008646Y-77971895D02*
X77932455Y-77933800D01*
X77932455Y-77933800D02*
X77856265Y-77857609D01*
X77856265Y-77857609D02*
X77818169Y-77705228D01*
X77818169Y-77705228D02*
X77818169Y-77438561D01*
X77818169Y-77438561D02*
X77856265Y-77286180D01*
X77856265Y-77286180D02*
X77932455Y-77209990D01*
X77932455Y-77209990D02*
X78008646Y-77171895D01*
X78580074Y-77171895D02*
X79037217Y-77171895D01*
X78808645Y-77971895D02*
X78808645Y-77171895D01*
X97234990Y-93667544D02*
X97196895Y-93743734D01*
X97196895Y-93743734D02*
X97196895Y-93858020D01*
X97196895Y-93858020D02*
X97234990Y-93972306D01*
X97234990Y-93972306D02*
X97311180Y-94048496D01*
X97311180Y-94048496D02*
X97387371Y-94086591D01*
X97387371Y-94086591D02*
X97539752Y-94124687D01*
X97539752Y-94124687D02*
X97654038Y-94124687D01*
X97654038Y-94124687D02*
X97806419Y-94086591D01*
X97806419Y-94086591D02*
X97882609Y-94048496D01*
X97882609Y-94048496D02*
X97958800Y-93972306D01*
X97958800Y-93972306D02*
X97996895Y-93858020D01*
X97996895Y-93858020D02*
X97996895Y-93781829D01*
X97996895Y-93781829D02*
X97958800Y-93667544D01*
X97958800Y-93667544D02*
X97920704Y-93629448D01*
X97920704Y-93629448D02*
X97654038Y-93629448D01*
X97654038Y-93629448D02*
X97654038Y-93781829D01*
D10*
X144512969Y-85019295D02*
X145008207Y-85019295D01*
X145008207Y-85019295D02*
X144741541Y-85324057D01*
X144741541Y-85324057D02*
X144855826Y-85324057D01*
X144855826Y-85324057D02*
X144932017Y-85362152D01*
X144932017Y-85362152D02*
X144970112Y-85400247D01*
X144970112Y-85400247D02*
X145008207Y-85476438D01*
X145008207Y-85476438D02*
X145008207Y-85666914D01*
X145008207Y-85666914D02*
X144970112Y-85743104D01*
X144970112Y-85743104D02*
X144932017Y-85781200D01*
X144932017Y-85781200D02*
X144855826Y-85819295D01*
X144855826Y-85819295D02*
X144627255Y-85819295D01*
X144627255Y-85819295D02*
X144551064Y-85781200D01*
X144551064Y-85781200D02*
X144512969Y-85743104D01*
X145236779Y-85019295D02*
X145503446Y-85819295D01*
X145503446Y-85819295D02*
X145770112Y-85019295D01*
X145960588Y-85019295D02*
X146455826Y-85019295D01*
X146455826Y-85019295D02*
X146189160Y-85324057D01*
X146189160Y-85324057D02*
X146303445Y-85324057D01*
X146303445Y-85324057D02*
X146379636Y-85362152D01*
X146379636Y-85362152D02*
X146417731Y-85400247D01*
X146417731Y-85400247D02*
X146455826Y-85476438D01*
X146455826Y-85476438D02*
X146455826Y-85666914D01*
X146455826Y-85666914D02*
X146417731Y-85743104D01*
X146417731Y-85743104D02*
X146379636Y-85781200D01*
X146379636Y-85781200D02*
X146303445Y-85819295D01*
X146303445Y-85819295D02*
X146074874Y-85819295D01*
X146074874Y-85819295D02*
X145998683Y-85781200D01*
X145998683Y-85781200D02*
X145960588Y-85743104D01*
D11*
X92996895Y-93629448D02*
X92615942Y-93896115D01*
X92996895Y-94086591D02*
X92196895Y-94086591D01*
X92196895Y-94086591D02*
X92196895Y-93781829D01*
X92196895Y-93781829D02*
X92234990Y-93705639D01*
X92234990Y-93705639D02*
X92273085Y-93667544D01*
X92273085Y-93667544D02*
X92349276Y-93629448D01*
X92349276Y-93629448D02*
X92463561Y-93629448D01*
X92463561Y-93629448D02*
X92539752Y-93667544D01*
X92539752Y-93667544D02*
X92577847Y-93705639D01*
X92577847Y-93705639D02*
X92615942Y-93781829D01*
X92615942Y-93781829D02*
X92615942Y-94086591D01*
X145915704Y-59186591D02*
X145953800Y-59224687D01*
X145953800Y-59224687D02*
X145991895Y-59338972D01*
X145991895Y-59338972D02*
X145991895Y-59415163D01*
X145991895Y-59415163D02*
X145953800Y-59529449D01*
X145953800Y-59529449D02*
X145877609Y-59605639D01*
X145877609Y-59605639D02*
X145801419Y-59643734D01*
X145801419Y-59643734D02*
X145649038Y-59681830D01*
X145649038Y-59681830D02*
X145534752Y-59681830D01*
X145534752Y-59681830D02*
X145382371Y-59643734D01*
X145382371Y-59643734D02*
X145306180Y-59605639D01*
X145306180Y-59605639D02*
X145229990Y-59529449D01*
X145229990Y-59529449D02*
X145191895Y-59415163D01*
X145191895Y-59415163D02*
X145191895Y-59338972D01*
X145191895Y-59338972D02*
X145229990Y-59224687D01*
X145229990Y-59224687D02*
X145268085Y-59186591D01*
X145953800Y-58881830D02*
X145991895Y-58767544D01*
X145991895Y-58767544D02*
X145991895Y-58577068D01*
X145991895Y-58577068D02*
X145953800Y-58500877D01*
X145953800Y-58500877D02*
X145915704Y-58462782D01*
X145915704Y-58462782D02*
X145839514Y-58424687D01*
X145839514Y-58424687D02*
X145763323Y-58424687D01*
X145763323Y-58424687D02*
X145687133Y-58462782D01*
X145687133Y-58462782D02*
X145649038Y-58500877D01*
X145649038Y-58500877D02*
X145610942Y-58577068D01*
X145610942Y-58577068D02*
X145572847Y-58729449D01*
X145572847Y-58729449D02*
X145534752Y-58805639D01*
X145534752Y-58805639D02*
X145496657Y-58843734D01*
X145496657Y-58843734D02*
X145420466Y-58881830D01*
X145420466Y-58881830D02*
X145344276Y-58881830D01*
X145344276Y-58881830D02*
X145268085Y-58843734D01*
X145268085Y-58843734D02*
X145229990Y-58805639D01*
X145229990Y-58805639D02*
X145191895Y-58729449D01*
X145191895Y-58729449D02*
X145191895Y-58538972D01*
X145191895Y-58538972D02*
X145229990Y-58424687D01*
X145458561Y-58081829D02*
X145991895Y-58081829D01*
X145534752Y-58081829D02*
X145496657Y-58043734D01*
X145496657Y-58043734D02*
X145458561Y-57967544D01*
X145458561Y-57967544D02*
X145458561Y-57853258D01*
X145458561Y-57853258D02*
X145496657Y-57777067D01*
X145496657Y-57777067D02*
X145572847Y-57738972D01*
X145572847Y-57738972D02*
X145991895Y-57738972D01*
X145191895Y-57205638D02*
X145191895Y-57129448D01*
X145191895Y-57129448D02*
X145229990Y-57053257D01*
X145229990Y-57053257D02*
X145268085Y-57015162D01*
X145268085Y-57015162D02*
X145344276Y-56977067D01*
X145344276Y-56977067D02*
X145496657Y-56938972D01*
X145496657Y-56938972D02*
X145687133Y-56938972D01*
X145687133Y-56938972D02*
X145839514Y-56977067D01*
X145839514Y-56977067D02*
X145915704Y-57015162D01*
X145915704Y-57015162D02*
X145953800Y-57053257D01*
X145953800Y-57053257D02*
X145991895Y-57129448D01*
X145991895Y-57129448D02*
X145991895Y-57205638D01*
X145991895Y-57205638D02*
X145953800Y-57281829D01*
X145953800Y-57281829D02*
X145915704Y-57319924D01*
X145915704Y-57319924D02*
X145839514Y-57358019D01*
X145839514Y-57358019D02*
X145687133Y-57396115D01*
X145687133Y-57396115D02*
X145496657Y-57396115D01*
X145496657Y-57396115D02*
X145344276Y-57358019D01*
X145344276Y-57358019D02*
X145268085Y-57319924D01*
X145268085Y-57319924D02*
X145229990Y-57281829D01*
X145229990Y-57281829D02*
X145191895Y-57205638D01*
D10*
X144833207Y-92582390D02*
X144757017Y-92544295D01*
X144757017Y-92544295D02*
X144642731Y-92544295D01*
X144642731Y-92544295D02*
X144528445Y-92582390D01*
X144528445Y-92582390D02*
X144452255Y-92658580D01*
X144452255Y-92658580D02*
X144414160Y-92734771D01*
X144414160Y-92734771D02*
X144376064Y-92887152D01*
X144376064Y-92887152D02*
X144376064Y-93001438D01*
X144376064Y-93001438D02*
X144414160Y-93153819D01*
X144414160Y-93153819D02*
X144452255Y-93230009D01*
X144452255Y-93230009D02*
X144528445Y-93306200D01*
X144528445Y-93306200D02*
X144642731Y-93344295D01*
X144642731Y-93344295D02*
X144718922Y-93344295D01*
X144718922Y-93344295D02*
X144833207Y-93306200D01*
X144833207Y-93306200D02*
X144871303Y-93268104D01*
X144871303Y-93268104D02*
X144871303Y-93001438D01*
X144871303Y-93001438D02*
X144718922Y-93001438D01*
X145214160Y-93344295D02*
X145214160Y-92544295D01*
X145214160Y-92544295D02*
X145671303Y-93344295D01*
X145671303Y-93344295D02*
X145671303Y-92544295D01*
X146052255Y-93344295D02*
X146052255Y-92544295D01*
X146052255Y-92544295D02*
X146242731Y-92544295D01*
X146242731Y-92544295D02*
X146357017Y-92582390D01*
X146357017Y-92582390D02*
X146433207Y-92658580D01*
X146433207Y-92658580D02*
X146471302Y-92734771D01*
X146471302Y-92734771D02*
X146509398Y-92887152D01*
X146509398Y-92887152D02*
X146509398Y-93001438D01*
X146509398Y-93001438D02*
X146471302Y-93153819D01*
X146471302Y-93153819D02*
X146433207Y-93230009D01*
X146433207Y-93230009D02*
X146357017Y-93306200D01*
X146357017Y-93306200D02*
X146242731Y-93344295D01*
X146242731Y-93344295D02*
X146052255Y-93344295D01*
X130080951Y-71754819D02*
X129747618Y-71278628D01*
X129509523Y-71754819D02*
X129509523Y-70754819D01*
X129509523Y-70754819D02*
X129890475Y-70754819D01*
X129890475Y-70754819D02*
X129985713Y-70802438D01*
X129985713Y-70802438D02*
X130033332Y-70850057D01*
X130033332Y-70850057D02*
X130080951Y-70945295D01*
X130080951Y-70945295D02*
X130080951Y-71088152D01*
X130080951Y-71088152D02*
X130033332Y-71183390D01*
X130033332Y-71183390D02*
X129985713Y-71231009D01*
X129985713Y-71231009D02*
X129890475Y-71278628D01*
X129890475Y-71278628D02*
X129509523Y-71278628D01*
X130938094Y-71754819D02*
X130938094Y-71231009D01*
X130938094Y-71231009D02*
X130890475Y-71135771D01*
X130890475Y-71135771D02*
X130795237Y-71088152D01*
X130795237Y-71088152D02*
X130604761Y-71088152D01*
X130604761Y-71088152D02*
X130509523Y-71135771D01*
X130938094Y-71707200D02*
X130842856Y-71754819D01*
X130842856Y-71754819D02*
X130604761Y-71754819D01*
X130604761Y-71754819D02*
X130509523Y-71707200D01*
X130509523Y-71707200D02*
X130461904Y-71611961D01*
X130461904Y-71611961D02*
X130461904Y-71516723D01*
X130461904Y-71516723D02*
X130509523Y-71421485D01*
X130509523Y-71421485D02*
X130604761Y-71373866D01*
X130604761Y-71373866D02*
X130842856Y-71373866D01*
X130842856Y-71373866D02*
X130938094Y-71326247D01*
X131366666Y-71707200D02*
X131461904Y-71754819D01*
X131461904Y-71754819D02*
X131652380Y-71754819D01*
X131652380Y-71754819D02*
X131747618Y-71707200D01*
X131747618Y-71707200D02*
X131795237Y-71611961D01*
X131795237Y-71611961D02*
X131795237Y-71564342D01*
X131795237Y-71564342D02*
X131747618Y-71469104D01*
X131747618Y-71469104D02*
X131652380Y-71421485D01*
X131652380Y-71421485D02*
X131509523Y-71421485D01*
X131509523Y-71421485D02*
X131414285Y-71373866D01*
X131414285Y-71373866D02*
X131366666Y-71278628D01*
X131366666Y-71278628D02*
X131366666Y-71231009D01*
X131366666Y-71231009D02*
X131414285Y-71135771D01*
X131414285Y-71135771D02*
X131509523Y-71088152D01*
X131509523Y-71088152D02*
X131652380Y-71088152D01*
X131652380Y-71088152D02*
X131747618Y-71135771D01*
X132223809Y-71088152D02*
X132223809Y-72088152D01*
X132223809Y-71135771D02*
X132319047Y-71088152D01*
X132319047Y-71088152D02*
X132509523Y-71088152D01*
X132509523Y-71088152D02*
X132604761Y-71135771D01*
X132604761Y-71135771D02*
X132652380Y-71183390D01*
X132652380Y-71183390D02*
X132699999Y-71278628D01*
X132699999Y-71278628D02*
X132699999Y-71564342D01*
X132699999Y-71564342D02*
X132652380Y-71659580D01*
X132652380Y-71659580D02*
X132604761Y-71707200D01*
X132604761Y-71707200D02*
X132509523Y-71754819D01*
X132509523Y-71754819D02*
X132319047Y-71754819D01*
X132319047Y-71754819D02*
X132223809Y-71707200D01*
X133128571Y-71754819D02*
X133128571Y-70754819D01*
X133128571Y-71135771D02*
X133223809Y-71088152D01*
X133223809Y-71088152D02*
X133414285Y-71088152D01*
X133414285Y-71088152D02*
X133509523Y-71135771D01*
X133509523Y-71135771D02*
X133557142Y-71183390D01*
X133557142Y-71183390D02*
X133604761Y-71278628D01*
X133604761Y-71278628D02*
X133604761Y-71564342D01*
X133604761Y-71564342D02*
X133557142Y-71659580D01*
X133557142Y-71659580D02*
X133509523Y-71707200D01*
X133509523Y-71707200D02*
X133414285Y-71754819D01*
X133414285Y-71754819D02*
X133223809Y-71754819D01*
X133223809Y-71754819D02*
X133128571Y-71707200D01*
X134414285Y-71707200D02*
X134319047Y-71754819D01*
X134319047Y-71754819D02*
X134128571Y-71754819D01*
X134128571Y-71754819D02*
X134033333Y-71707200D01*
X134033333Y-71707200D02*
X133985714Y-71611961D01*
X133985714Y-71611961D02*
X133985714Y-71231009D01*
X133985714Y-71231009D02*
X134033333Y-71135771D01*
X134033333Y-71135771D02*
X134128571Y-71088152D01*
X134128571Y-71088152D02*
X134319047Y-71088152D01*
X134319047Y-71088152D02*
X134414285Y-71135771D01*
X134414285Y-71135771D02*
X134461904Y-71231009D01*
X134461904Y-71231009D02*
X134461904Y-71326247D01*
X134461904Y-71326247D02*
X133985714Y-71421485D01*
X134890476Y-71754819D02*
X134890476Y-71088152D01*
X134890476Y-71278628D02*
X134938095Y-71183390D01*
X134938095Y-71183390D02*
X134985714Y-71135771D01*
X134985714Y-71135771D02*
X135080952Y-71088152D01*
X135080952Y-71088152D02*
X135176190Y-71088152D01*
X135509524Y-71754819D02*
X135509524Y-71088152D01*
X135509524Y-71278628D02*
X135557143Y-71183390D01*
X135557143Y-71183390D02*
X135604762Y-71135771D01*
X135604762Y-71135771D02*
X135700000Y-71088152D01*
X135700000Y-71088152D02*
X135795238Y-71088152D01*
X136033334Y-71088152D02*
X136271429Y-71754819D01*
X136509524Y-71088152D02*
X136271429Y-71754819D01*
X136271429Y-71754819D02*
X136176191Y-71992914D01*
X136176191Y-71992914D02*
X136128572Y-72040533D01*
X136128572Y-72040533D02*
X136033334Y-72088152D01*
X136890477Y-71754819D02*
X136890477Y-70754819D01*
X136890477Y-70754819D02*
X137271429Y-70754819D01*
X137271429Y-70754819D02*
X137366667Y-70802438D01*
X137366667Y-70802438D02*
X137414286Y-70850057D01*
X137414286Y-70850057D02*
X137461905Y-70945295D01*
X137461905Y-70945295D02*
X137461905Y-71088152D01*
X137461905Y-71088152D02*
X137414286Y-71183390D01*
X137414286Y-71183390D02*
X137366667Y-71231009D01*
X137366667Y-71231009D02*
X137271429Y-71278628D01*
X137271429Y-71278628D02*
X136890477Y-71278628D01*
X137890477Y-71754819D02*
X137890477Y-71088152D01*
X137890477Y-70754819D02*
X137842858Y-70802438D01*
X137842858Y-70802438D02*
X137890477Y-70850057D01*
X137890477Y-70850057D02*
X137938096Y-70802438D01*
X137938096Y-70802438D02*
X137890477Y-70754819D01*
X137890477Y-70754819D02*
X137890477Y-70850057D01*
X139128572Y-71754819D02*
X139128572Y-70754819D01*
X139128572Y-70754819D02*
X139509524Y-70754819D01*
X139509524Y-70754819D02*
X139604762Y-70802438D01*
X139604762Y-70802438D02*
X139652381Y-70850057D01*
X139652381Y-70850057D02*
X139700000Y-70945295D01*
X139700000Y-70945295D02*
X139700000Y-71088152D01*
X139700000Y-71088152D02*
X139652381Y-71183390D01*
X139652381Y-71183390D02*
X139604762Y-71231009D01*
X139604762Y-71231009D02*
X139509524Y-71278628D01*
X139509524Y-71278628D02*
X139128572Y-71278628D01*
X140128572Y-71754819D02*
X140128572Y-71088152D01*
X140128572Y-70754819D02*
X140080953Y-70802438D01*
X140080953Y-70802438D02*
X140128572Y-70850057D01*
X140128572Y-70850057D02*
X140176191Y-70802438D01*
X140176191Y-70802438D02*
X140128572Y-70754819D01*
X140128572Y-70754819D02*
X140128572Y-70850057D01*
X141033333Y-71707200D02*
X140938095Y-71754819D01*
X140938095Y-71754819D02*
X140747619Y-71754819D01*
X140747619Y-71754819D02*
X140652381Y-71707200D01*
X140652381Y-71707200D02*
X140604762Y-71659580D01*
X140604762Y-71659580D02*
X140557143Y-71564342D01*
X140557143Y-71564342D02*
X140557143Y-71278628D01*
X140557143Y-71278628D02*
X140604762Y-71183390D01*
X140604762Y-71183390D02*
X140652381Y-71135771D01*
X140652381Y-71135771D02*
X140747619Y-71088152D01*
X140747619Y-71088152D02*
X140938095Y-71088152D01*
X140938095Y-71088152D02*
X141033333Y-71135771D01*
X141604762Y-71754819D02*
X141509524Y-71707200D01*
X141509524Y-71707200D02*
X141461905Y-71659580D01*
X141461905Y-71659580D02*
X141414286Y-71564342D01*
X141414286Y-71564342D02*
X141414286Y-71278628D01*
X141414286Y-71278628D02*
X141461905Y-71183390D01*
X141461905Y-71183390D02*
X141509524Y-71135771D01*
X141509524Y-71135771D02*
X141604762Y-71088152D01*
X141604762Y-71088152D02*
X141747619Y-71088152D01*
X141747619Y-71088152D02*
X141842857Y-71135771D01*
X141842857Y-71135771D02*
X141890476Y-71183390D01*
X141890476Y-71183390D02*
X141938095Y-71278628D01*
X141938095Y-71278628D02*
X141938095Y-71564342D01*
X141938095Y-71564342D02*
X141890476Y-71659580D01*
X141890476Y-71659580D02*
X141842857Y-71707200D01*
X141842857Y-71707200D02*
X141747619Y-71754819D01*
X141747619Y-71754819D02*
X141604762Y-71754819D01*
D11*
X96246895Y-50444925D02*
X97046895Y-50254449D01*
X97046895Y-50254449D02*
X96475466Y-50102068D01*
X96475466Y-50102068D02*
X97046895Y-49949687D01*
X97046895Y-49949687D02*
X96246895Y-49759211D01*
X77272931Y-72527847D02*
X77387217Y-72565942D01*
X77387217Y-72565942D02*
X77425312Y-72604038D01*
X77425312Y-72604038D02*
X77463408Y-72680228D01*
X77463408Y-72680228D02*
X77463408Y-72794514D01*
X77463408Y-72794514D02*
X77425312Y-72870704D01*
X77425312Y-72870704D02*
X77387217Y-72908800D01*
X77387217Y-72908800D02*
X77311027Y-72946895D01*
X77311027Y-72946895D02*
X77006265Y-72946895D01*
X77006265Y-72946895D02*
X77006265Y-72146895D01*
X77006265Y-72146895D02*
X77272931Y-72146895D01*
X77272931Y-72146895D02*
X77349122Y-72184990D01*
X77349122Y-72184990D02*
X77387217Y-72223085D01*
X77387217Y-72223085D02*
X77425312Y-72299276D01*
X77425312Y-72299276D02*
X77425312Y-72375466D01*
X77425312Y-72375466D02*
X77387217Y-72451657D01*
X77387217Y-72451657D02*
X77349122Y-72489752D01*
X77349122Y-72489752D02*
X77272931Y-72527847D01*
X77272931Y-72527847D02*
X77006265Y-72527847D01*
X77958646Y-72146895D02*
X78111027Y-72146895D01*
X78111027Y-72146895D02*
X78187217Y-72184990D01*
X78187217Y-72184990D02*
X78263408Y-72261180D01*
X78263408Y-72261180D02*
X78301503Y-72413561D01*
X78301503Y-72413561D02*
X78301503Y-72680228D01*
X78301503Y-72680228D02*
X78263408Y-72832609D01*
X78263408Y-72832609D02*
X78187217Y-72908800D01*
X78187217Y-72908800D02*
X78111027Y-72946895D01*
X78111027Y-72946895D02*
X77958646Y-72946895D01*
X77958646Y-72946895D02*
X77882455Y-72908800D01*
X77882455Y-72908800D02*
X77806265Y-72832609D01*
X77806265Y-72832609D02*
X77768169Y-72680228D01*
X77768169Y-72680228D02*
X77768169Y-72413561D01*
X77768169Y-72413561D02*
X77806265Y-72261180D01*
X77806265Y-72261180D02*
X77882455Y-72184990D01*
X77882455Y-72184990D02*
X77958646Y-72146895D01*
X78606264Y-72223085D02*
X78644360Y-72184990D01*
X78644360Y-72184990D02*
X78720550Y-72146895D01*
X78720550Y-72146895D02*
X78911026Y-72146895D01*
X78911026Y-72146895D02*
X78987217Y-72184990D01*
X78987217Y-72184990D02*
X79025312Y-72223085D01*
X79025312Y-72223085D02*
X79063407Y-72299276D01*
X79063407Y-72299276D02*
X79063407Y-72375466D01*
X79063407Y-72375466D02*
X79025312Y-72489752D01*
X79025312Y-72489752D02*
X78568169Y-72946895D01*
X78568169Y-72946895D02*
X79063407Y-72946895D01*
X95118169Y-67443323D02*
X95499122Y-67443323D01*
X95041979Y-67671895D02*
X95308646Y-66871895D01*
X95308646Y-66871895D02*
X95575312Y-67671895D01*
X95841979Y-67671895D02*
X95841979Y-66871895D01*
X96222931Y-67671895D02*
X96222931Y-66871895D01*
X96222931Y-66871895D02*
X96680074Y-67671895D01*
X96680074Y-67671895D02*
X96680074Y-66871895D01*
X97480073Y-67671895D02*
X97022930Y-67671895D01*
X97251502Y-67671895D02*
X97251502Y-66871895D01*
X97251502Y-66871895D02*
X97175311Y-66986180D01*
X97175311Y-66986180D02*
X97099121Y-67062371D01*
X97099121Y-67062371D02*
X97022930Y-67100466D01*
D10*
X116237200Y-56158332D02*
X116284819Y-56015475D01*
X116284819Y-56015475D02*
X116284819Y-55777380D01*
X116284819Y-55777380D02*
X116237200Y-55682142D01*
X116237200Y-55682142D02*
X116189580Y-55634523D01*
X116189580Y-55634523D02*
X116094342Y-55586904D01*
X116094342Y-55586904D02*
X115999104Y-55586904D01*
X115999104Y-55586904D02*
X115903866Y-55634523D01*
X115903866Y-55634523D02*
X115856247Y-55682142D01*
X115856247Y-55682142D02*
X115808628Y-55777380D01*
X115808628Y-55777380D02*
X115761009Y-55967856D01*
X115761009Y-55967856D02*
X115713390Y-56063094D01*
X115713390Y-56063094D02*
X115665771Y-56110713D01*
X115665771Y-56110713D02*
X115570533Y-56158332D01*
X115570533Y-56158332D02*
X115475295Y-56158332D01*
X115475295Y-56158332D02*
X115380057Y-56110713D01*
X115380057Y-56110713D02*
X115332438Y-56063094D01*
X115332438Y-56063094D02*
X115284819Y-55967856D01*
X115284819Y-55967856D02*
X115284819Y-55729761D01*
X115284819Y-55729761D02*
X115332438Y-55586904D01*
X115284819Y-55253570D02*
X116284819Y-55015475D01*
X116284819Y-55015475D02*
X115570533Y-54824999D01*
X115570533Y-54824999D02*
X116284819Y-54634523D01*
X116284819Y-54634523D02*
X115284819Y-54396428D01*
X115284819Y-54110713D02*
X115284819Y-53491666D01*
X115284819Y-53491666D02*
X115665771Y-53824999D01*
X115665771Y-53824999D02*
X115665771Y-53682142D01*
X115665771Y-53682142D02*
X115713390Y-53586904D01*
X115713390Y-53586904D02*
X115761009Y-53539285D01*
X115761009Y-53539285D02*
X115856247Y-53491666D01*
X115856247Y-53491666D02*
X116094342Y-53491666D01*
X116094342Y-53491666D02*
X116189580Y-53539285D01*
X116189580Y-53539285D02*
X116237200Y-53586904D01*
X116237200Y-53586904D02*
X116284819Y-53682142D01*
X116284819Y-53682142D02*
X116284819Y-53967856D01*
X116284819Y-53967856D02*
X116237200Y-54063094D01*
X116237200Y-54063094D02*
X116189580Y-54110713D01*
X144191666Y-52079819D02*
X144191666Y-52794104D01*
X144191666Y-52794104D02*
X144144047Y-52936961D01*
X144144047Y-52936961D02*
X144048809Y-53032200D01*
X144048809Y-53032200D02*
X143905952Y-53079819D01*
X143905952Y-53079819D02*
X143810714Y-53079819D01*
X145144047Y-52079819D02*
X144667857Y-52079819D01*
X144667857Y-52079819D02*
X144620238Y-52556009D01*
X144620238Y-52556009D02*
X144667857Y-52508390D01*
X144667857Y-52508390D02*
X144763095Y-52460771D01*
X144763095Y-52460771D02*
X145001190Y-52460771D01*
X145001190Y-52460771D02*
X145096428Y-52508390D01*
X145096428Y-52508390D02*
X145144047Y-52556009D01*
X145144047Y-52556009D02*
X145191666Y-52651247D01*
X145191666Y-52651247D02*
X145191666Y-52889342D01*
X145191666Y-52889342D02*
X145144047Y-52984580D01*
X145144047Y-52984580D02*
X145096428Y-53032200D01*
X145096428Y-53032200D02*
X145001190Y-53079819D01*
X145001190Y-53079819D02*
X144763095Y-53079819D01*
X144763095Y-53079819D02*
X144667857Y-53032200D01*
X144667857Y-53032200D02*
X144620238Y-52984580D01*
X123554819Y-99066666D02*
X123078628Y-99399999D01*
X123554819Y-99638094D02*
X122554819Y-99638094D01*
X122554819Y-99638094D02*
X122554819Y-99257142D01*
X122554819Y-99257142D02*
X122602438Y-99161904D01*
X122602438Y-99161904D02*
X122650057Y-99114285D01*
X122650057Y-99114285D02*
X122745295Y-99066666D01*
X122745295Y-99066666D02*
X122888152Y-99066666D01*
X122888152Y-99066666D02*
X122983390Y-99114285D01*
X122983390Y-99114285D02*
X123031009Y-99161904D01*
X123031009Y-99161904D02*
X123078628Y-99257142D01*
X123078628Y-99257142D02*
X123078628Y-99638094D01*
X122554819Y-98161904D02*
X122554819Y-98638094D01*
X122554819Y-98638094D02*
X123031009Y-98685713D01*
X123031009Y-98685713D02*
X122983390Y-98638094D01*
X122983390Y-98638094D02*
X122935771Y-98542856D01*
X122935771Y-98542856D02*
X122935771Y-98304761D01*
X122935771Y-98304761D02*
X122983390Y-98209523D01*
X122983390Y-98209523D02*
X123031009Y-98161904D01*
X123031009Y-98161904D02*
X123126247Y-98114285D01*
X123126247Y-98114285D02*
X123364342Y-98114285D01*
X123364342Y-98114285D02*
X123459580Y-98161904D01*
X123459580Y-98161904D02*
X123507200Y-98209523D01*
X123507200Y-98209523D02*
X123554819Y-98304761D01*
X123554819Y-98304761D02*
X123554819Y-98542856D01*
X123554819Y-98542856D02*
X123507200Y-98638094D01*
X123507200Y-98638094D02*
X123459580Y-98685713D01*
X122596057Y-93458094D02*
X122548438Y-93410475D01*
X122548438Y-93410475D02*
X122500819Y-93315237D01*
X122500819Y-93315237D02*
X122500819Y-93077142D01*
X122500819Y-93077142D02*
X122548438Y-92981904D01*
X122548438Y-92981904D02*
X122596057Y-92934285D01*
X122596057Y-92934285D02*
X122691295Y-92886666D01*
X122691295Y-92886666D02*
X122786533Y-92886666D01*
X122786533Y-92886666D02*
X122929390Y-92934285D01*
X122929390Y-92934285D02*
X123500819Y-93505713D01*
X123500819Y-93505713D02*
X123500819Y-92886666D01*
X122596057Y-92505713D02*
X122548438Y-92458094D01*
X122548438Y-92458094D02*
X122500819Y-92362856D01*
X122500819Y-92362856D02*
X122500819Y-92124761D01*
X122500819Y-92124761D02*
X122548438Y-92029523D01*
X122548438Y-92029523D02*
X122596057Y-91981904D01*
X122596057Y-91981904D02*
X122691295Y-91934285D01*
X122691295Y-91934285D02*
X122786533Y-91934285D01*
X122786533Y-91934285D02*
X122929390Y-91981904D01*
X122929390Y-91981904D02*
X123500819Y-92553332D01*
X123500819Y-92553332D02*
X123500819Y-91934285D01*
X122500819Y-91315237D02*
X122500819Y-91219999D01*
X122500819Y-91219999D02*
X122548438Y-91124761D01*
X122548438Y-91124761D02*
X122596057Y-91077142D01*
X122596057Y-91077142D02*
X122691295Y-91029523D01*
X122691295Y-91029523D02*
X122881771Y-90981904D01*
X122881771Y-90981904D02*
X123119866Y-90981904D01*
X123119866Y-90981904D02*
X123310342Y-91029523D01*
X123310342Y-91029523D02*
X123405580Y-91077142D01*
X123405580Y-91077142D02*
X123453200Y-91124761D01*
X123453200Y-91124761D02*
X123500819Y-91219999D01*
X123500819Y-91219999D02*
X123500819Y-91315237D01*
X123500819Y-91315237D02*
X123453200Y-91410475D01*
X123453200Y-91410475D02*
X123405580Y-91458094D01*
X123405580Y-91458094D02*
X123310342Y-91505713D01*
X123310342Y-91505713D02*
X123119866Y-91553332D01*
X123119866Y-91553332D02*
X122881771Y-91553332D01*
X122881771Y-91553332D02*
X122691295Y-91505713D01*
X122691295Y-91505713D02*
X122596057Y-91458094D01*
X122596057Y-91458094D02*
X122548438Y-91410475D01*
X122548438Y-91410475D02*
X122500819Y-91315237D01*
X123500819Y-89981904D02*
X123024628Y-90315237D01*
X123500819Y-90553332D02*
X122500819Y-90553332D01*
X122500819Y-90553332D02*
X122500819Y-90172380D01*
X122500819Y-90172380D02*
X122548438Y-90077142D01*
X122548438Y-90077142D02*
X122596057Y-90029523D01*
X122596057Y-90029523D02*
X122691295Y-89981904D01*
X122691295Y-89981904D02*
X122834152Y-89981904D01*
X122834152Y-89981904D02*
X122929390Y-90029523D01*
X122929390Y-90029523D02*
X122977009Y-90077142D01*
X122977009Y-90077142D02*
X123024628Y-90172380D01*
X123024628Y-90172380D02*
X123024628Y-90553332D01*
X136666666Y-52029819D02*
X136666666Y-52744104D01*
X136666666Y-52744104D02*
X136619047Y-52886961D01*
X136619047Y-52886961D02*
X136523809Y-52982200D01*
X136523809Y-52982200D02*
X136380952Y-53029819D01*
X136380952Y-53029819D02*
X136285714Y-53029819D01*
X137047619Y-52029819D02*
X137714285Y-52029819D01*
X137714285Y-52029819D02*
X137285714Y-53029819D01*
X135258333Y-87879819D02*
X134925000Y-87403628D01*
X134686905Y-87879819D02*
X134686905Y-86879819D01*
X134686905Y-86879819D02*
X135067857Y-86879819D01*
X135067857Y-86879819D02*
X135163095Y-86927438D01*
X135163095Y-86927438D02*
X135210714Y-86975057D01*
X135210714Y-86975057D02*
X135258333Y-87070295D01*
X135258333Y-87070295D02*
X135258333Y-87213152D01*
X135258333Y-87213152D02*
X135210714Y-87308390D01*
X135210714Y-87308390D02*
X135163095Y-87356009D01*
X135163095Y-87356009D02*
X135067857Y-87403628D01*
X135067857Y-87403628D02*
X134686905Y-87403628D01*
X135734524Y-87879819D02*
X135925000Y-87879819D01*
X135925000Y-87879819D02*
X136020238Y-87832200D01*
X136020238Y-87832200D02*
X136067857Y-87784580D01*
X136067857Y-87784580D02*
X136163095Y-87641723D01*
X136163095Y-87641723D02*
X136210714Y-87451247D01*
X136210714Y-87451247D02*
X136210714Y-87070295D01*
X136210714Y-87070295D02*
X136163095Y-86975057D01*
X136163095Y-86975057D02*
X136115476Y-86927438D01*
X136115476Y-86927438D02*
X136020238Y-86879819D01*
X136020238Y-86879819D02*
X135829762Y-86879819D01*
X135829762Y-86879819D02*
X135734524Y-86927438D01*
X135734524Y-86927438D02*
X135686905Y-86975057D01*
X135686905Y-86975057D02*
X135639286Y-87070295D01*
X135639286Y-87070295D02*
X135639286Y-87308390D01*
X135639286Y-87308390D02*
X135686905Y-87403628D01*
X135686905Y-87403628D02*
X135734524Y-87451247D01*
X135734524Y-87451247D02*
X135829762Y-87498866D01*
X135829762Y-87498866D02*
X136020238Y-87498866D01*
X136020238Y-87498866D02*
X136115476Y-87451247D01*
X136115476Y-87451247D02*
X136163095Y-87403628D01*
X136163095Y-87403628D02*
X136210714Y-87308390D01*
X138755952Y-87779819D02*
X138184524Y-87779819D01*
X138470238Y-87779819D02*
X138470238Y-86779819D01*
X138470238Y-86779819D02*
X138375000Y-86922676D01*
X138375000Y-86922676D02*
X138279762Y-87017914D01*
X138279762Y-87017914D02*
X138184524Y-87065533D01*
X139184524Y-87779819D02*
X139184524Y-86779819D01*
X139279762Y-87398866D02*
X139565476Y-87779819D01*
X139565476Y-87113152D02*
X139184524Y-87494104D01*
X132748333Y-57579819D02*
X132415000Y-57103628D01*
X132176905Y-57579819D02*
X132176905Y-56579819D01*
X132176905Y-56579819D02*
X132557857Y-56579819D01*
X132557857Y-56579819D02*
X132653095Y-56627438D01*
X132653095Y-56627438D02*
X132700714Y-56675057D01*
X132700714Y-56675057D02*
X132748333Y-56770295D01*
X132748333Y-56770295D02*
X132748333Y-56913152D01*
X132748333Y-56913152D02*
X132700714Y-57008390D01*
X132700714Y-57008390D02*
X132653095Y-57056009D01*
X132653095Y-57056009D02*
X132557857Y-57103628D01*
X132557857Y-57103628D02*
X132176905Y-57103628D01*
X133081667Y-56579819D02*
X133700714Y-56579819D01*
X133700714Y-56579819D02*
X133367381Y-56960771D01*
X133367381Y-56960771D02*
X133510238Y-56960771D01*
X133510238Y-56960771D02*
X133605476Y-57008390D01*
X133605476Y-57008390D02*
X133653095Y-57056009D01*
X133653095Y-57056009D02*
X133700714Y-57151247D01*
X133700714Y-57151247D02*
X133700714Y-57389342D01*
X133700714Y-57389342D02*
X133653095Y-57484580D01*
X133653095Y-57484580D02*
X133605476Y-57532200D01*
X133605476Y-57532200D02*
X133510238Y-57579819D01*
X133510238Y-57579819D02*
X133224524Y-57579819D01*
X133224524Y-57579819D02*
X133129286Y-57532200D01*
X133129286Y-57532200D02*
X133081667Y-57484580D01*
X132563485Y-54477381D02*
X132525390Y-54439285D01*
X132525390Y-54439285D02*
X132487295Y-54363095D01*
X132487295Y-54363095D02*
X132487295Y-54172619D01*
X132487295Y-54172619D02*
X132525390Y-54096428D01*
X132525390Y-54096428D02*
X132563485Y-54058333D01*
X132563485Y-54058333D02*
X132639676Y-54020238D01*
X132639676Y-54020238D02*
X132715866Y-54020238D01*
X132715866Y-54020238D02*
X132830152Y-54058333D01*
X132830152Y-54058333D02*
X133287295Y-54515476D01*
X133287295Y-54515476D02*
X133287295Y-54020238D01*
X133287295Y-53677380D02*
X132487295Y-53677380D01*
X132982533Y-53601190D02*
X133287295Y-53372618D01*
X132753961Y-53372618D02*
X133058723Y-53677380D01*
X127008333Y-87879819D02*
X126675000Y-87403628D01*
X126436905Y-87879819D02*
X126436905Y-86879819D01*
X126436905Y-86879819D02*
X126817857Y-86879819D01*
X126817857Y-86879819D02*
X126913095Y-86927438D01*
X126913095Y-86927438D02*
X126960714Y-86975057D01*
X126960714Y-86975057D02*
X127008333Y-87070295D01*
X127008333Y-87070295D02*
X127008333Y-87213152D01*
X127008333Y-87213152D02*
X126960714Y-87308390D01*
X126960714Y-87308390D02*
X126913095Y-87356009D01*
X126913095Y-87356009D02*
X126817857Y-87403628D01*
X126817857Y-87403628D02*
X126436905Y-87403628D01*
X127579762Y-87308390D02*
X127484524Y-87260771D01*
X127484524Y-87260771D02*
X127436905Y-87213152D01*
X127436905Y-87213152D02*
X127389286Y-87117914D01*
X127389286Y-87117914D02*
X127389286Y-87070295D01*
X127389286Y-87070295D02*
X127436905Y-86975057D01*
X127436905Y-86975057D02*
X127484524Y-86927438D01*
X127484524Y-86927438D02*
X127579762Y-86879819D01*
X127579762Y-86879819D02*
X127770238Y-86879819D01*
X127770238Y-86879819D02*
X127865476Y-86927438D01*
X127865476Y-86927438D02*
X127913095Y-86975057D01*
X127913095Y-86975057D02*
X127960714Y-87070295D01*
X127960714Y-87070295D02*
X127960714Y-87117914D01*
X127960714Y-87117914D02*
X127913095Y-87213152D01*
X127913095Y-87213152D02*
X127865476Y-87260771D01*
X127865476Y-87260771D02*
X127770238Y-87308390D01*
X127770238Y-87308390D02*
X127579762Y-87308390D01*
X127579762Y-87308390D02*
X127484524Y-87356009D01*
X127484524Y-87356009D02*
X127436905Y-87403628D01*
X127436905Y-87403628D02*
X127389286Y-87498866D01*
X127389286Y-87498866D02*
X127389286Y-87689342D01*
X127389286Y-87689342D02*
X127436905Y-87784580D01*
X127436905Y-87784580D02*
X127484524Y-87832200D01*
X127484524Y-87832200D02*
X127579762Y-87879819D01*
X127579762Y-87879819D02*
X127770238Y-87879819D01*
X127770238Y-87879819D02*
X127865476Y-87832200D01*
X127865476Y-87832200D02*
X127913095Y-87784580D01*
X127913095Y-87784580D02*
X127960714Y-87689342D01*
X127960714Y-87689342D02*
X127960714Y-87498866D01*
X127960714Y-87498866D02*
X127913095Y-87403628D01*
X127913095Y-87403628D02*
X127865476Y-87356009D01*
X127865476Y-87356009D02*
X127770238Y-87308390D01*
X130580952Y-87879819D02*
X130009524Y-87879819D01*
X130295238Y-87879819D02*
X130295238Y-86879819D01*
X130295238Y-86879819D02*
X130200000Y-87022676D01*
X130200000Y-87022676D02*
X130104762Y-87117914D01*
X130104762Y-87117914D02*
X130009524Y-87165533D01*
X131009524Y-87879819D02*
X131009524Y-86879819D01*
X131104762Y-87498866D02*
X131390476Y-87879819D01*
X131390476Y-87213152D02*
X131009524Y-87594104D01*
X163233333Y-85962295D02*
X163233333Y-86533723D01*
X163233333Y-86533723D02*
X163195238Y-86648009D01*
X163195238Y-86648009D02*
X163119047Y-86724200D01*
X163119047Y-86724200D02*
X163004762Y-86762295D01*
X163004762Y-86762295D02*
X162928571Y-86762295D01*
X163728571Y-86305152D02*
X163652381Y-86267057D01*
X163652381Y-86267057D02*
X163614286Y-86228961D01*
X163614286Y-86228961D02*
X163576190Y-86152771D01*
X163576190Y-86152771D02*
X163576190Y-86114676D01*
X163576190Y-86114676D02*
X163614286Y-86038485D01*
X163614286Y-86038485D02*
X163652381Y-86000390D01*
X163652381Y-86000390D02*
X163728571Y-85962295D01*
X163728571Y-85962295D02*
X163880952Y-85962295D01*
X163880952Y-85962295D02*
X163957143Y-86000390D01*
X163957143Y-86000390D02*
X163995238Y-86038485D01*
X163995238Y-86038485D02*
X164033333Y-86114676D01*
X164033333Y-86114676D02*
X164033333Y-86152771D01*
X164033333Y-86152771D02*
X163995238Y-86228961D01*
X163995238Y-86228961D02*
X163957143Y-86267057D01*
X163957143Y-86267057D02*
X163880952Y-86305152D01*
X163880952Y-86305152D02*
X163728571Y-86305152D01*
X163728571Y-86305152D02*
X163652381Y-86343247D01*
X163652381Y-86343247D02*
X163614286Y-86381342D01*
X163614286Y-86381342D02*
X163576190Y-86457533D01*
X163576190Y-86457533D02*
X163576190Y-86609914D01*
X163576190Y-86609914D02*
X163614286Y-86686104D01*
X163614286Y-86686104D02*
X163652381Y-86724200D01*
X163652381Y-86724200D02*
X163728571Y-86762295D01*
X163728571Y-86762295D02*
X163880952Y-86762295D01*
X163880952Y-86762295D02*
X163957143Y-86724200D01*
X163957143Y-86724200D02*
X163995238Y-86686104D01*
X163995238Y-86686104D02*
X164033333Y-86609914D01*
X164033333Y-86609914D02*
X164033333Y-86457533D01*
X164033333Y-86457533D02*
X163995238Y-86381342D01*
X163995238Y-86381342D02*
X163957143Y-86343247D01*
X163957143Y-86343247D02*
X163880952Y-86305152D01*
X138491667Y-99707200D02*
X138634524Y-99754819D01*
X138634524Y-99754819D02*
X138872619Y-99754819D01*
X138872619Y-99754819D02*
X138967857Y-99707200D01*
X138967857Y-99707200D02*
X139015476Y-99659580D01*
X139015476Y-99659580D02*
X139063095Y-99564342D01*
X139063095Y-99564342D02*
X139063095Y-99469104D01*
X139063095Y-99469104D02*
X139015476Y-99373866D01*
X139015476Y-99373866D02*
X138967857Y-99326247D01*
X138967857Y-99326247D02*
X138872619Y-99278628D01*
X138872619Y-99278628D02*
X138682143Y-99231009D01*
X138682143Y-99231009D02*
X138586905Y-99183390D01*
X138586905Y-99183390D02*
X138539286Y-99135771D01*
X138539286Y-99135771D02*
X138491667Y-99040533D01*
X138491667Y-99040533D02*
X138491667Y-98945295D01*
X138491667Y-98945295D02*
X138539286Y-98850057D01*
X138539286Y-98850057D02*
X138586905Y-98802438D01*
X138586905Y-98802438D02*
X138682143Y-98754819D01*
X138682143Y-98754819D02*
X138920238Y-98754819D01*
X138920238Y-98754819D02*
X139063095Y-98802438D01*
X139396429Y-98754819D02*
X139634524Y-99754819D01*
X139634524Y-99754819D02*
X139825000Y-99040533D01*
X139825000Y-99040533D02*
X140015476Y-99754819D01*
X140015476Y-99754819D02*
X140253572Y-98754819D01*
X140586905Y-98850057D02*
X140634524Y-98802438D01*
X140634524Y-98802438D02*
X140729762Y-98754819D01*
X140729762Y-98754819D02*
X140967857Y-98754819D01*
X140967857Y-98754819D02*
X141063095Y-98802438D01*
X141063095Y-98802438D02*
X141110714Y-98850057D01*
X141110714Y-98850057D02*
X141158333Y-98945295D01*
X141158333Y-98945295D02*
X141158333Y-99040533D01*
X141158333Y-99040533D02*
X141110714Y-99183390D01*
X141110714Y-99183390D02*
X140539286Y-99754819D01*
X140539286Y-99754819D02*
X141158333Y-99754819D01*
X128195833Y-84284580D02*
X128148214Y-84332200D01*
X128148214Y-84332200D02*
X128005357Y-84379819D01*
X128005357Y-84379819D02*
X127910119Y-84379819D01*
X127910119Y-84379819D02*
X127767262Y-84332200D01*
X127767262Y-84332200D02*
X127672024Y-84236961D01*
X127672024Y-84236961D02*
X127624405Y-84141723D01*
X127624405Y-84141723D02*
X127576786Y-83951247D01*
X127576786Y-83951247D02*
X127576786Y-83808390D01*
X127576786Y-83808390D02*
X127624405Y-83617914D01*
X127624405Y-83617914D02*
X127672024Y-83522676D01*
X127672024Y-83522676D02*
X127767262Y-83427438D01*
X127767262Y-83427438D02*
X127910119Y-83379819D01*
X127910119Y-83379819D02*
X128005357Y-83379819D01*
X128005357Y-83379819D02*
X128148214Y-83427438D01*
X128148214Y-83427438D02*
X128195833Y-83475057D01*
X128576786Y-83475057D02*
X128624405Y-83427438D01*
X128624405Y-83427438D02*
X128719643Y-83379819D01*
X128719643Y-83379819D02*
X128957738Y-83379819D01*
X128957738Y-83379819D02*
X129052976Y-83427438D01*
X129052976Y-83427438D02*
X129100595Y-83475057D01*
X129100595Y-83475057D02*
X129148214Y-83570295D01*
X129148214Y-83570295D02*
X129148214Y-83665533D01*
X129148214Y-83665533D02*
X129100595Y-83808390D01*
X129100595Y-83808390D02*
X128529167Y-84379819D01*
X128529167Y-84379819D02*
X129148214Y-84379819D01*
X130093452Y-86204819D02*
X129522024Y-86204819D01*
X129807738Y-86204819D02*
X129807738Y-85204819D01*
X129807738Y-85204819D02*
X129712500Y-85347676D01*
X129712500Y-85347676D02*
X129617262Y-85442914D01*
X129617262Y-85442914D02*
X129522024Y-85490533D01*
X130712500Y-85204819D02*
X130807738Y-85204819D01*
X130807738Y-85204819D02*
X130902976Y-85252438D01*
X130902976Y-85252438D02*
X130950595Y-85300057D01*
X130950595Y-85300057D02*
X130998214Y-85395295D01*
X130998214Y-85395295D02*
X131045833Y-85585771D01*
X131045833Y-85585771D02*
X131045833Y-85823866D01*
X131045833Y-85823866D02*
X130998214Y-86014342D01*
X130998214Y-86014342D02*
X130950595Y-86109580D01*
X130950595Y-86109580D02*
X130902976Y-86157200D01*
X130902976Y-86157200D02*
X130807738Y-86204819D01*
X130807738Y-86204819D02*
X130712500Y-86204819D01*
X130712500Y-86204819D02*
X130617262Y-86157200D01*
X130617262Y-86157200D02*
X130569643Y-86109580D01*
X130569643Y-86109580D02*
X130522024Y-86014342D01*
X130522024Y-86014342D02*
X130474405Y-85823866D01*
X130474405Y-85823866D02*
X130474405Y-85585771D01*
X130474405Y-85585771D02*
X130522024Y-85395295D01*
X130522024Y-85395295D02*
X130569643Y-85300057D01*
X130569643Y-85300057D02*
X130617262Y-85252438D01*
X130617262Y-85252438D02*
X130712500Y-85204819D01*
X131664881Y-85204819D02*
X131760119Y-85204819D01*
X131760119Y-85204819D02*
X131855357Y-85252438D01*
X131855357Y-85252438D02*
X131902976Y-85300057D01*
X131902976Y-85300057D02*
X131950595Y-85395295D01*
X131950595Y-85395295D02*
X131998214Y-85585771D01*
X131998214Y-85585771D02*
X131998214Y-85823866D01*
X131998214Y-85823866D02*
X131950595Y-86014342D01*
X131950595Y-86014342D02*
X131902976Y-86109580D01*
X131902976Y-86109580D02*
X131855357Y-86157200D01*
X131855357Y-86157200D02*
X131760119Y-86204819D01*
X131760119Y-86204819D02*
X131664881Y-86204819D01*
X131664881Y-86204819D02*
X131569643Y-86157200D01*
X131569643Y-86157200D02*
X131522024Y-86109580D01*
X131522024Y-86109580D02*
X131474405Y-86014342D01*
X131474405Y-86014342D02*
X131426786Y-85823866D01*
X131426786Y-85823866D02*
X131426786Y-85585771D01*
X131426786Y-85585771D02*
X131474405Y-85395295D01*
X131474405Y-85395295D02*
X131522024Y-85300057D01*
X131522024Y-85300057D02*
X131569643Y-85252438D01*
X131569643Y-85252438D02*
X131664881Y-85204819D01*
X132426786Y-85538152D02*
X132426786Y-86204819D01*
X132426786Y-85633390D02*
X132474405Y-85585771D01*
X132474405Y-85585771D02*
X132569643Y-85538152D01*
X132569643Y-85538152D02*
X132712500Y-85538152D01*
X132712500Y-85538152D02*
X132807738Y-85585771D01*
X132807738Y-85585771D02*
X132855357Y-85681009D01*
X132855357Y-85681009D02*
X132855357Y-86204819D01*
X156041666Y-52079819D02*
X156041666Y-52794104D01*
X156041666Y-52794104D02*
X155994047Y-52936961D01*
X155994047Y-52936961D02*
X155898809Y-53032200D01*
X155898809Y-53032200D02*
X155755952Y-53079819D01*
X155755952Y-53079819D02*
X155660714Y-53079819D01*
X156946428Y-52079819D02*
X156755952Y-52079819D01*
X156755952Y-52079819D02*
X156660714Y-52127438D01*
X156660714Y-52127438D02*
X156613095Y-52175057D01*
X156613095Y-52175057D02*
X156517857Y-52317914D01*
X156517857Y-52317914D02*
X156470238Y-52508390D01*
X156470238Y-52508390D02*
X156470238Y-52889342D01*
X156470238Y-52889342D02*
X156517857Y-52984580D01*
X156517857Y-52984580D02*
X156565476Y-53032200D01*
X156565476Y-53032200D02*
X156660714Y-53079819D01*
X156660714Y-53079819D02*
X156851190Y-53079819D01*
X156851190Y-53079819D02*
X156946428Y-53032200D01*
X156946428Y-53032200D02*
X156994047Y-52984580D01*
X156994047Y-52984580D02*
X157041666Y-52889342D01*
X157041666Y-52889342D02*
X157041666Y-52651247D01*
X157041666Y-52651247D02*
X156994047Y-52556009D01*
X156994047Y-52556009D02*
X156946428Y-52508390D01*
X156946428Y-52508390D02*
X156851190Y-52460771D01*
X156851190Y-52460771D02*
X156660714Y-52460771D01*
X156660714Y-52460771D02*
X156565476Y-52508390D01*
X156565476Y-52508390D02*
X156517857Y-52556009D01*
X156517857Y-52556009D02*
X156470238Y-52651247D01*
X72109539Y-65687300D02*
X72919484Y-65687300D01*
X72919484Y-65687300D02*
X73014772Y-65639657D01*
X73014772Y-65639657D02*
X73062416Y-65592013D01*
X73062416Y-65592013D02*
X73110059Y-65496725D01*
X73110059Y-65496725D02*
X73110059Y-65306150D01*
X73110059Y-65306150D02*
X73062416Y-65210862D01*
X73062416Y-65210862D02*
X73014772Y-65163219D01*
X73014772Y-65163219D02*
X72919484Y-65115575D01*
X72919484Y-65115575D02*
X72109539Y-65115575D01*
X72109539Y-64734424D02*
X72109539Y-64115055D01*
X72109539Y-64115055D02*
X72490690Y-64448561D01*
X72490690Y-64448561D02*
X72490690Y-64305630D01*
X72490690Y-64305630D02*
X72538334Y-64210342D01*
X72538334Y-64210342D02*
X72585977Y-64162698D01*
X72585977Y-64162698D02*
X72681265Y-64115055D01*
X72681265Y-64115055D02*
X72919484Y-64115055D01*
X72919484Y-64115055D02*
X73014772Y-64162698D01*
X73014772Y-64162698D02*
X73062416Y-64210342D01*
X73062416Y-64210342D02*
X73110059Y-64305630D01*
X73110059Y-64305630D02*
X73110059Y-64591493D01*
X73110059Y-64591493D02*
X73062416Y-64686780D01*
X73062416Y-64686780D02*
X73014772Y-64734424D01*
X76010602Y-74563975D02*
X75008909Y-74563975D01*
X75485906Y-74563975D02*
X75485906Y-73991579D01*
X76010602Y-73991579D02*
X75008909Y-73991579D01*
X75915203Y-72942186D02*
X75962903Y-72989886D01*
X75962903Y-72989886D02*
X76010602Y-73132985D01*
X76010602Y-73132985D02*
X76010602Y-73228384D01*
X76010602Y-73228384D02*
X75962903Y-73371483D01*
X75962903Y-73371483D02*
X75867503Y-73466883D01*
X75867503Y-73466883D02*
X75772104Y-73514582D01*
X75772104Y-73514582D02*
X75581305Y-73562282D01*
X75581305Y-73562282D02*
X75438206Y-73562282D01*
X75438206Y-73562282D02*
X75247408Y-73514582D01*
X75247408Y-73514582D02*
X75152008Y-73466883D01*
X75152008Y-73466883D02*
X75056609Y-73371483D01*
X75056609Y-73371483D02*
X75008909Y-73228384D01*
X75008909Y-73228384D02*
X75008909Y-73132985D01*
X75008909Y-73132985D02*
X75056609Y-72989886D01*
X75056609Y-72989886D02*
X75104309Y-72942186D01*
X75629005Y-72512889D02*
X75629005Y-71749695D01*
X75962903Y-71320398D02*
X76010602Y-71177299D01*
X76010602Y-71177299D02*
X76010602Y-70938801D01*
X76010602Y-70938801D02*
X75962903Y-70843401D01*
X75962903Y-70843401D02*
X75915203Y-70795702D01*
X75915203Y-70795702D02*
X75819804Y-70748002D01*
X75819804Y-70748002D02*
X75724404Y-70748002D01*
X75724404Y-70748002D02*
X75629005Y-70795702D01*
X75629005Y-70795702D02*
X75581305Y-70843401D01*
X75581305Y-70843401D02*
X75533606Y-70938801D01*
X75533606Y-70938801D02*
X75485906Y-71129599D01*
X75485906Y-71129599D02*
X75438206Y-71224999D01*
X75438206Y-71224999D02*
X75390507Y-71272698D01*
X75390507Y-71272698D02*
X75295107Y-71320398D01*
X75295107Y-71320398D02*
X75199708Y-71320398D01*
X75199708Y-71320398D02*
X75104309Y-71272698D01*
X75104309Y-71272698D02*
X75056609Y-71224999D01*
X75056609Y-71224999D02*
X75008909Y-71129599D01*
X75008909Y-71129599D02*
X75008909Y-70891101D01*
X75008909Y-70891101D02*
X75056609Y-70748002D01*
X76010602Y-69746309D02*
X75533606Y-70080207D01*
X76010602Y-70318705D02*
X75008909Y-70318705D01*
X75008909Y-70318705D02*
X75008909Y-69937108D01*
X75008909Y-69937108D02*
X75056609Y-69841709D01*
X75056609Y-69841709D02*
X75104309Y-69794009D01*
X75104309Y-69794009D02*
X75199708Y-69746309D01*
X75199708Y-69746309D02*
X75342807Y-69746309D01*
X75342807Y-69746309D02*
X75438206Y-69794009D01*
X75438206Y-69794009D02*
X75485906Y-69841709D01*
X75485906Y-69841709D02*
X75533606Y-69937108D01*
X75533606Y-69937108D02*
X75533606Y-70318705D01*
X75008909Y-69126214D02*
X75008909Y-69030814D01*
X75008909Y-69030814D02*
X75056609Y-68935415D01*
X75056609Y-68935415D02*
X75104309Y-68887715D01*
X75104309Y-68887715D02*
X75199708Y-68840016D01*
X75199708Y-68840016D02*
X75390507Y-68792316D01*
X75390507Y-68792316D02*
X75629005Y-68792316D01*
X75629005Y-68792316D02*
X75819804Y-68840016D01*
X75819804Y-68840016D02*
X75915203Y-68887715D01*
X75915203Y-68887715D02*
X75962903Y-68935415D01*
X75962903Y-68935415D02*
X76010602Y-69030814D01*
X76010602Y-69030814D02*
X76010602Y-69126214D01*
X76010602Y-69126214D02*
X75962903Y-69221613D01*
X75962903Y-69221613D02*
X75915203Y-69269313D01*
X75915203Y-69269313D02*
X75819804Y-69317012D01*
X75819804Y-69317012D02*
X75629005Y-69364712D01*
X75629005Y-69364712D02*
X75390507Y-69364712D01*
X75390507Y-69364712D02*
X75199708Y-69317012D01*
X75199708Y-69317012D02*
X75104309Y-69269313D01*
X75104309Y-69269313D02*
X75056609Y-69221613D01*
X75056609Y-69221613D02*
X75008909Y-69126214D01*
X75342807Y-67933722D02*
X76010602Y-67933722D01*
X74961210Y-68172221D02*
X75676705Y-68410719D01*
X75676705Y-68410719D02*
X75676705Y-67790623D01*
X106861905Y-90254819D02*
X106861905Y-89254819D01*
X106861905Y-89254819D02*
X107100000Y-89254819D01*
X107100000Y-89254819D02*
X107242857Y-89302438D01*
X107242857Y-89302438D02*
X107338095Y-89397676D01*
X107338095Y-89397676D02*
X107385714Y-89492914D01*
X107385714Y-89492914D02*
X107433333Y-89683390D01*
X107433333Y-89683390D02*
X107433333Y-89826247D01*
X107433333Y-89826247D02*
X107385714Y-90016723D01*
X107385714Y-90016723D02*
X107338095Y-90111961D01*
X107338095Y-90111961D02*
X107242857Y-90207200D01*
X107242857Y-90207200D02*
X107100000Y-90254819D01*
X107100000Y-90254819D02*
X106861905Y-90254819D01*
X108385714Y-90254819D02*
X107814286Y-90254819D01*
X108100000Y-90254819D02*
X108100000Y-89254819D01*
X108100000Y-89254819D02*
X108004762Y-89397676D01*
X108004762Y-89397676D02*
X107909524Y-89492914D01*
X107909524Y-89492914D02*
X107814286Y-89540533D01*
X135333333Y-84484580D02*
X135285714Y-84532200D01*
X135285714Y-84532200D02*
X135142857Y-84579819D01*
X135142857Y-84579819D02*
X135047619Y-84579819D01*
X135047619Y-84579819D02*
X134904762Y-84532200D01*
X134904762Y-84532200D02*
X134809524Y-84436961D01*
X134809524Y-84436961D02*
X134761905Y-84341723D01*
X134761905Y-84341723D02*
X134714286Y-84151247D01*
X134714286Y-84151247D02*
X134714286Y-84008390D01*
X134714286Y-84008390D02*
X134761905Y-83817914D01*
X134761905Y-83817914D02*
X134809524Y-83722676D01*
X134809524Y-83722676D02*
X134904762Y-83627438D01*
X134904762Y-83627438D02*
X135047619Y-83579819D01*
X135047619Y-83579819D02*
X135142857Y-83579819D01*
X135142857Y-83579819D02*
X135285714Y-83627438D01*
X135285714Y-83627438D02*
X135333333Y-83675057D01*
X135666667Y-83579819D02*
X136285714Y-83579819D01*
X136285714Y-83579819D02*
X135952381Y-83960771D01*
X135952381Y-83960771D02*
X136095238Y-83960771D01*
X136095238Y-83960771D02*
X136190476Y-84008390D01*
X136190476Y-84008390D02*
X136238095Y-84056009D01*
X136238095Y-84056009D02*
X136285714Y-84151247D01*
X136285714Y-84151247D02*
X136285714Y-84389342D01*
X136285714Y-84389342D02*
X136238095Y-84484580D01*
X136238095Y-84484580D02*
X136190476Y-84532200D01*
X136190476Y-84532200D02*
X136095238Y-84579819D01*
X136095238Y-84579819D02*
X135809524Y-84579819D01*
X135809524Y-84579819D02*
X135714286Y-84532200D01*
X135714286Y-84532200D02*
X135666667Y-84484580D01*
X137243452Y-86179819D02*
X136672024Y-86179819D01*
X136957738Y-86179819D02*
X136957738Y-85179819D01*
X136957738Y-85179819D02*
X136862500Y-85322676D01*
X136862500Y-85322676D02*
X136767262Y-85417914D01*
X136767262Y-85417914D02*
X136672024Y-85465533D01*
X137862500Y-85179819D02*
X137957738Y-85179819D01*
X137957738Y-85179819D02*
X138052976Y-85227438D01*
X138052976Y-85227438D02*
X138100595Y-85275057D01*
X138100595Y-85275057D02*
X138148214Y-85370295D01*
X138148214Y-85370295D02*
X138195833Y-85560771D01*
X138195833Y-85560771D02*
X138195833Y-85798866D01*
X138195833Y-85798866D02*
X138148214Y-85989342D01*
X138148214Y-85989342D02*
X138100595Y-86084580D01*
X138100595Y-86084580D02*
X138052976Y-86132200D01*
X138052976Y-86132200D02*
X137957738Y-86179819D01*
X137957738Y-86179819D02*
X137862500Y-86179819D01*
X137862500Y-86179819D02*
X137767262Y-86132200D01*
X137767262Y-86132200D02*
X137719643Y-86084580D01*
X137719643Y-86084580D02*
X137672024Y-85989342D01*
X137672024Y-85989342D02*
X137624405Y-85798866D01*
X137624405Y-85798866D02*
X137624405Y-85560771D01*
X137624405Y-85560771D02*
X137672024Y-85370295D01*
X137672024Y-85370295D02*
X137719643Y-85275057D01*
X137719643Y-85275057D02*
X137767262Y-85227438D01*
X137767262Y-85227438D02*
X137862500Y-85179819D01*
X138814881Y-85179819D02*
X138910119Y-85179819D01*
X138910119Y-85179819D02*
X139005357Y-85227438D01*
X139005357Y-85227438D02*
X139052976Y-85275057D01*
X139052976Y-85275057D02*
X139100595Y-85370295D01*
X139100595Y-85370295D02*
X139148214Y-85560771D01*
X139148214Y-85560771D02*
X139148214Y-85798866D01*
X139148214Y-85798866D02*
X139100595Y-85989342D01*
X139100595Y-85989342D02*
X139052976Y-86084580D01*
X139052976Y-86084580D02*
X139005357Y-86132200D01*
X139005357Y-86132200D02*
X138910119Y-86179819D01*
X138910119Y-86179819D02*
X138814881Y-86179819D01*
X138814881Y-86179819D02*
X138719643Y-86132200D01*
X138719643Y-86132200D02*
X138672024Y-86084580D01*
X138672024Y-86084580D02*
X138624405Y-85989342D01*
X138624405Y-85989342D02*
X138576786Y-85798866D01*
X138576786Y-85798866D02*
X138576786Y-85560771D01*
X138576786Y-85560771D02*
X138624405Y-85370295D01*
X138624405Y-85370295D02*
X138672024Y-85275057D01*
X138672024Y-85275057D02*
X138719643Y-85227438D01*
X138719643Y-85227438D02*
X138814881Y-85179819D01*
X139576786Y-85513152D02*
X139576786Y-86179819D01*
X139576786Y-85608390D02*
X139624405Y-85560771D01*
X139624405Y-85560771D02*
X139719643Y-85513152D01*
X139719643Y-85513152D02*
X139862500Y-85513152D01*
X139862500Y-85513152D02*
X139957738Y-85560771D01*
X139957738Y-85560771D02*
X140005357Y-85656009D01*
X140005357Y-85656009D02*
X140005357Y-86179819D01*
X88666666Y-46354819D02*
X88666666Y-47069104D01*
X88666666Y-47069104D02*
X88619047Y-47211961D01*
X88619047Y-47211961D02*
X88523809Y-47307200D01*
X88523809Y-47307200D02*
X88380952Y-47354819D01*
X88380952Y-47354819D02*
X88285714Y-47354819D01*
X89095238Y-46450057D02*
X89142857Y-46402438D01*
X89142857Y-46402438D02*
X89238095Y-46354819D01*
X89238095Y-46354819D02*
X89476190Y-46354819D01*
X89476190Y-46354819D02*
X89571428Y-46402438D01*
X89571428Y-46402438D02*
X89619047Y-46450057D01*
X89619047Y-46450057D02*
X89666666Y-46545295D01*
X89666666Y-46545295D02*
X89666666Y-46640533D01*
X89666666Y-46640533D02*
X89619047Y-46783390D01*
X89619047Y-46783390D02*
X89047619Y-47354819D01*
X89047619Y-47354819D02*
X89666666Y-47354819D01*
X86433333Y-49254819D02*
X86433333Y-48254819D01*
X86433333Y-48254819D02*
X86766666Y-48969104D01*
X86766666Y-48969104D02*
X87099999Y-48254819D01*
X87099999Y-48254819D02*
X87099999Y-49254819D01*
X87766666Y-48254819D02*
X87957142Y-48254819D01*
X87957142Y-48254819D02*
X88052380Y-48302438D01*
X88052380Y-48302438D02*
X88147618Y-48397676D01*
X88147618Y-48397676D02*
X88195237Y-48588152D01*
X88195237Y-48588152D02*
X88195237Y-48921485D01*
X88195237Y-48921485D02*
X88147618Y-49111961D01*
X88147618Y-49111961D02*
X88052380Y-49207200D01*
X88052380Y-49207200D02*
X87957142Y-49254819D01*
X87957142Y-49254819D02*
X87766666Y-49254819D01*
X87766666Y-49254819D02*
X87671428Y-49207200D01*
X87671428Y-49207200D02*
X87576190Y-49111961D01*
X87576190Y-49111961D02*
X87528571Y-48921485D01*
X87528571Y-48921485D02*
X87528571Y-48588152D01*
X87528571Y-48588152D02*
X87576190Y-48397676D01*
X87576190Y-48397676D02*
X87671428Y-48302438D01*
X87671428Y-48302438D02*
X87766666Y-48254819D01*
X88480952Y-48254819D02*
X89052380Y-48254819D01*
X88766666Y-49254819D02*
X88766666Y-48254819D01*
X89338095Y-48969104D02*
X89814285Y-48969104D01*
X89242857Y-49254819D02*
X89576190Y-48254819D01*
X89576190Y-48254819D02*
X89909523Y-49254819D01*
X128566667Y-99757200D02*
X128709524Y-99804819D01*
X128709524Y-99804819D02*
X128947619Y-99804819D01*
X128947619Y-99804819D02*
X129042857Y-99757200D01*
X129042857Y-99757200D02*
X129090476Y-99709580D01*
X129090476Y-99709580D02*
X129138095Y-99614342D01*
X129138095Y-99614342D02*
X129138095Y-99519104D01*
X129138095Y-99519104D02*
X129090476Y-99423866D01*
X129090476Y-99423866D02*
X129042857Y-99376247D01*
X129042857Y-99376247D02*
X128947619Y-99328628D01*
X128947619Y-99328628D02*
X128757143Y-99281009D01*
X128757143Y-99281009D02*
X128661905Y-99233390D01*
X128661905Y-99233390D02*
X128614286Y-99185771D01*
X128614286Y-99185771D02*
X128566667Y-99090533D01*
X128566667Y-99090533D02*
X128566667Y-98995295D01*
X128566667Y-98995295D02*
X128614286Y-98900057D01*
X128614286Y-98900057D02*
X128661905Y-98852438D01*
X128661905Y-98852438D02*
X128757143Y-98804819D01*
X128757143Y-98804819D02*
X128995238Y-98804819D01*
X128995238Y-98804819D02*
X129138095Y-98852438D01*
X129471429Y-98804819D02*
X129709524Y-99804819D01*
X129709524Y-99804819D02*
X129900000Y-99090533D01*
X129900000Y-99090533D02*
X130090476Y-99804819D01*
X130090476Y-99804819D02*
X130328572Y-98804819D01*
X131233333Y-99804819D02*
X130661905Y-99804819D01*
X130947619Y-99804819D02*
X130947619Y-98804819D01*
X130947619Y-98804819D02*
X130852381Y-98947676D01*
X130852381Y-98947676D02*
X130757143Y-99042914D01*
X130757143Y-99042914D02*
X130661905Y-99090533D01*
X125153333Y-55879819D02*
X124820000Y-55403628D01*
X124581905Y-55879819D02*
X124581905Y-54879819D01*
X124581905Y-54879819D02*
X124962857Y-54879819D01*
X124962857Y-54879819D02*
X125058095Y-54927438D01*
X125058095Y-54927438D02*
X125105714Y-54975057D01*
X125105714Y-54975057D02*
X125153333Y-55070295D01*
X125153333Y-55070295D02*
X125153333Y-55213152D01*
X125153333Y-55213152D02*
X125105714Y-55308390D01*
X125105714Y-55308390D02*
X125058095Y-55356009D01*
X125058095Y-55356009D02*
X124962857Y-55403628D01*
X124962857Y-55403628D02*
X124581905Y-55403628D01*
X126010476Y-55213152D02*
X126010476Y-55879819D01*
X125772381Y-54832200D02*
X125534286Y-55546485D01*
X125534286Y-55546485D02*
X126153333Y-55546485D01*
X128083333Y-54187295D02*
X127626190Y-54187295D01*
X127854762Y-54187295D02*
X127854762Y-53387295D01*
X127854762Y-53387295D02*
X127778571Y-53501580D01*
X127778571Y-53501580D02*
X127702381Y-53577771D01*
X127702381Y-53577771D02*
X127626190Y-53615866D01*
X128426191Y-54111104D02*
X128464286Y-54149200D01*
X128464286Y-54149200D02*
X128426191Y-54187295D01*
X128426191Y-54187295D02*
X128388095Y-54149200D01*
X128388095Y-54149200D02*
X128426191Y-54111104D01*
X128426191Y-54111104D02*
X128426191Y-54187295D01*
X128769047Y-53463485D02*
X128807143Y-53425390D01*
X128807143Y-53425390D02*
X128883333Y-53387295D01*
X128883333Y-53387295D02*
X129073809Y-53387295D01*
X129073809Y-53387295D02*
X129150000Y-53425390D01*
X129150000Y-53425390D02*
X129188095Y-53463485D01*
X129188095Y-53463485D02*
X129226190Y-53539676D01*
X129226190Y-53539676D02*
X129226190Y-53615866D01*
X129226190Y-53615866D02*
X129188095Y-53730152D01*
X129188095Y-53730152D02*
X128730952Y-54187295D01*
X128730952Y-54187295D02*
X129226190Y-54187295D01*
X129569048Y-54187295D02*
X129569048Y-53387295D01*
X129645238Y-53882533D02*
X129873810Y-54187295D01*
X129873810Y-53653961D02*
X129569048Y-53958723D01*
X88666666Y-97954819D02*
X88666666Y-98669104D01*
X88666666Y-98669104D02*
X88619047Y-98811961D01*
X88619047Y-98811961D02*
X88523809Y-98907200D01*
X88523809Y-98907200D02*
X88380952Y-98954819D01*
X88380952Y-98954819D02*
X88285714Y-98954819D01*
X89047619Y-97954819D02*
X89666666Y-97954819D01*
X89666666Y-97954819D02*
X89333333Y-98335771D01*
X89333333Y-98335771D02*
X89476190Y-98335771D01*
X89476190Y-98335771D02*
X89571428Y-98383390D01*
X89571428Y-98383390D02*
X89619047Y-98431009D01*
X89619047Y-98431009D02*
X89666666Y-98526247D01*
X89666666Y-98526247D02*
X89666666Y-98764342D01*
X89666666Y-98764342D02*
X89619047Y-98859580D01*
X89619047Y-98859580D02*
X89571428Y-98907200D01*
X89571428Y-98907200D02*
X89476190Y-98954819D01*
X89476190Y-98954819D02*
X89190476Y-98954819D01*
X89190476Y-98954819D02*
X89095238Y-98907200D01*
X89095238Y-98907200D02*
X89047619Y-98859580D01*
X86336905Y-97054819D02*
X86336905Y-96054819D01*
X86336905Y-96054819D02*
X86670238Y-96769104D01*
X86670238Y-96769104D02*
X87003571Y-96054819D01*
X87003571Y-96054819D02*
X87003571Y-97054819D01*
X87670238Y-96054819D02*
X87860714Y-96054819D01*
X87860714Y-96054819D02*
X87955952Y-96102438D01*
X87955952Y-96102438D02*
X88051190Y-96197676D01*
X88051190Y-96197676D02*
X88098809Y-96388152D01*
X88098809Y-96388152D02*
X88098809Y-96721485D01*
X88098809Y-96721485D02*
X88051190Y-96911961D01*
X88051190Y-96911961D02*
X87955952Y-97007200D01*
X87955952Y-97007200D02*
X87860714Y-97054819D01*
X87860714Y-97054819D02*
X87670238Y-97054819D01*
X87670238Y-97054819D02*
X87575000Y-97007200D01*
X87575000Y-97007200D02*
X87479762Y-96911961D01*
X87479762Y-96911961D02*
X87432143Y-96721485D01*
X87432143Y-96721485D02*
X87432143Y-96388152D01*
X87432143Y-96388152D02*
X87479762Y-96197676D01*
X87479762Y-96197676D02*
X87575000Y-96102438D01*
X87575000Y-96102438D02*
X87670238Y-96054819D01*
X88384524Y-96054819D02*
X88955952Y-96054819D01*
X88670238Y-97054819D02*
X88670238Y-96054819D01*
X89622619Y-96531009D02*
X89765476Y-96578628D01*
X89765476Y-96578628D02*
X89813095Y-96626247D01*
X89813095Y-96626247D02*
X89860714Y-96721485D01*
X89860714Y-96721485D02*
X89860714Y-96864342D01*
X89860714Y-96864342D02*
X89813095Y-96959580D01*
X89813095Y-96959580D02*
X89765476Y-97007200D01*
X89765476Y-97007200D02*
X89670238Y-97054819D01*
X89670238Y-97054819D02*
X89289286Y-97054819D01*
X89289286Y-97054819D02*
X89289286Y-96054819D01*
X89289286Y-96054819D02*
X89622619Y-96054819D01*
X89622619Y-96054819D02*
X89717857Y-96102438D01*
X89717857Y-96102438D02*
X89765476Y-96150057D01*
X89765476Y-96150057D02*
X89813095Y-96245295D01*
X89813095Y-96245295D02*
X89813095Y-96340533D01*
X89813095Y-96340533D02*
X89765476Y-96435771D01*
X89765476Y-96435771D02*
X89717857Y-96483390D01*
X89717857Y-96483390D02*
X89622619Y-96531009D01*
X89622619Y-96531009D02*
X89289286Y-96531009D01*
X74401666Y-87769819D02*
X74401666Y-88484104D01*
X74401666Y-88484104D02*
X74354047Y-88626961D01*
X74354047Y-88626961D02*
X74258809Y-88722200D01*
X74258809Y-88722200D02*
X74115952Y-88769819D01*
X74115952Y-88769819D02*
X74020714Y-88769819D01*
X75306428Y-88103152D02*
X75306428Y-88769819D01*
X75068333Y-87722200D02*
X74830238Y-88436485D01*
X74830238Y-88436485D02*
X75449285Y-88436485D01*
X80015476Y-59712295D02*
X80015476Y-60359914D01*
X80015476Y-60359914D02*
X80053571Y-60436104D01*
X80053571Y-60436104D02*
X80091666Y-60474200D01*
X80091666Y-60474200D02*
X80167857Y-60512295D01*
X80167857Y-60512295D02*
X80320238Y-60512295D01*
X80320238Y-60512295D02*
X80396428Y-60474200D01*
X80396428Y-60474200D02*
X80434523Y-60436104D01*
X80434523Y-60436104D02*
X80472619Y-60359914D01*
X80472619Y-60359914D02*
X80472619Y-59712295D01*
X80815475Y-59788485D02*
X80853571Y-59750390D01*
X80853571Y-59750390D02*
X80929761Y-59712295D01*
X80929761Y-59712295D02*
X81120237Y-59712295D01*
X81120237Y-59712295D02*
X81196428Y-59750390D01*
X81196428Y-59750390D02*
X81234523Y-59788485D01*
X81234523Y-59788485D02*
X81272618Y-59864676D01*
X81272618Y-59864676D02*
X81272618Y-59940866D01*
X81272618Y-59940866D02*
X81234523Y-60055152D01*
X81234523Y-60055152D02*
X80777380Y-60512295D01*
X80777380Y-60512295D02*
X81272618Y-60512295D01*
X120454819Y-98966666D02*
X119978628Y-99299999D01*
X120454819Y-99538094D02*
X119454819Y-99538094D01*
X119454819Y-99538094D02*
X119454819Y-99157142D01*
X119454819Y-99157142D02*
X119502438Y-99061904D01*
X119502438Y-99061904D02*
X119550057Y-99014285D01*
X119550057Y-99014285D02*
X119645295Y-98966666D01*
X119645295Y-98966666D02*
X119788152Y-98966666D01*
X119788152Y-98966666D02*
X119883390Y-99014285D01*
X119883390Y-99014285D02*
X119931009Y-99061904D01*
X119931009Y-99061904D02*
X119978628Y-99157142D01*
X119978628Y-99157142D02*
X119978628Y-99538094D01*
X119454819Y-98109523D02*
X119454819Y-98299999D01*
X119454819Y-98299999D02*
X119502438Y-98395237D01*
X119502438Y-98395237D02*
X119550057Y-98442856D01*
X119550057Y-98442856D02*
X119692914Y-98538094D01*
X119692914Y-98538094D02*
X119883390Y-98585713D01*
X119883390Y-98585713D02*
X120264342Y-98585713D01*
X120264342Y-98585713D02*
X120359580Y-98538094D01*
X120359580Y-98538094D02*
X120407200Y-98490475D01*
X120407200Y-98490475D02*
X120454819Y-98395237D01*
X120454819Y-98395237D02*
X120454819Y-98204761D01*
X120454819Y-98204761D02*
X120407200Y-98109523D01*
X120407200Y-98109523D02*
X120359580Y-98061904D01*
X120359580Y-98061904D02*
X120264342Y-98014285D01*
X120264342Y-98014285D02*
X120026247Y-98014285D01*
X120026247Y-98014285D02*
X119931009Y-98061904D01*
X119931009Y-98061904D02*
X119883390Y-98109523D01*
X119883390Y-98109523D02*
X119835771Y-98204761D01*
X119835771Y-98204761D02*
X119835771Y-98395237D01*
X119835771Y-98395237D02*
X119883390Y-98490475D01*
X119883390Y-98490475D02*
X119931009Y-98538094D01*
X119931009Y-98538094D02*
X120026247Y-98585713D01*
X119427057Y-93458094D02*
X119379438Y-93410475D01*
X119379438Y-93410475D02*
X119331819Y-93315237D01*
X119331819Y-93315237D02*
X119331819Y-93077142D01*
X119331819Y-93077142D02*
X119379438Y-92981904D01*
X119379438Y-92981904D02*
X119427057Y-92934285D01*
X119427057Y-92934285D02*
X119522295Y-92886666D01*
X119522295Y-92886666D02*
X119617533Y-92886666D01*
X119617533Y-92886666D02*
X119760390Y-92934285D01*
X119760390Y-92934285D02*
X120331819Y-93505713D01*
X120331819Y-93505713D02*
X120331819Y-92886666D01*
X119427057Y-92505713D02*
X119379438Y-92458094D01*
X119379438Y-92458094D02*
X119331819Y-92362856D01*
X119331819Y-92362856D02*
X119331819Y-92124761D01*
X119331819Y-92124761D02*
X119379438Y-92029523D01*
X119379438Y-92029523D02*
X119427057Y-91981904D01*
X119427057Y-91981904D02*
X119522295Y-91934285D01*
X119522295Y-91934285D02*
X119617533Y-91934285D01*
X119617533Y-91934285D02*
X119760390Y-91981904D01*
X119760390Y-91981904D02*
X120331819Y-92553332D01*
X120331819Y-92553332D02*
X120331819Y-91934285D01*
X119331819Y-91315237D02*
X119331819Y-91219999D01*
X119331819Y-91219999D02*
X119379438Y-91124761D01*
X119379438Y-91124761D02*
X119427057Y-91077142D01*
X119427057Y-91077142D02*
X119522295Y-91029523D01*
X119522295Y-91029523D02*
X119712771Y-90981904D01*
X119712771Y-90981904D02*
X119950866Y-90981904D01*
X119950866Y-90981904D02*
X120141342Y-91029523D01*
X120141342Y-91029523D02*
X120236580Y-91077142D01*
X120236580Y-91077142D02*
X120284200Y-91124761D01*
X120284200Y-91124761D02*
X120331819Y-91219999D01*
X120331819Y-91219999D02*
X120331819Y-91315237D01*
X120331819Y-91315237D02*
X120284200Y-91410475D01*
X120284200Y-91410475D02*
X120236580Y-91458094D01*
X120236580Y-91458094D02*
X120141342Y-91505713D01*
X120141342Y-91505713D02*
X119950866Y-91553332D01*
X119950866Y-91553332D02*
X119712771Y-91553332D01*
X119712771Y-91553332D02*
X119522295Y-91505713D01*
X119522295Y-91505713D02*
X119427057Y-91458094D01*
X119427057Y-91458094D02*
X119379438Y-91410475D01*
X119379438Y-91410475D02*
X119331819Y-91315237D01*
X120331819Y-89981904D02*
X119855628Y-90315237D01*
X120331819Y-90553332D02*
X119331819Y-90553332D01*
X119331819Y-90553332D02*
X119331819Y-90172380D01*
X119331819Y-90172380D02*
X119379438Y-90077142D01*
X119379438Y-90077142D02*
X119427057Y-90029523D01*
X119427057Y-90029523D02*
X119522295Y-89981904D01*
X119522295Y-89981904D02*
X119665152Y-89981904D01*
X119665152Y-89981904D02*
X119760390Y-90029523D01*
X119760390Y-90029523D02*
X119808009Y-90077142D01*
X119808009Y-90077142D02*
X119855628Y-90172380D01*
X119855628Y-90172380D02*
X119855628Y-90553332D01*
X142566666Y-85469819D02*
X142566666Y-86184104D01*
X142566666Y-86184104D02*
X142519047Y-86326961D01*
X142519047Y-86326961D02*
X142423809Y-86422200D01*
X142423809Y-86422200D02*
X142280952Y-86469819D01*
X142280952Y-86469819D02*
X142185714Y-86469819D01*
X143090476Y-86469819D02*
X143280952Y-86469819D01*
X143280952Y-86469819D02*
X143376190Y-86422200D01*
X143376190Y-86422200D02*
X143423809Y-86374580D01*
X143423809Y-86374580D02*
X143519047Y-86231723D01*
X143519047Y-86231723D02*
X143566666Y-86041247D01*
X143566666Y-86041247D02*
X143566666Y-85660295D01*
X143566666Y-85660295D02*
X143519047Y-85565057D01*
X143519047Y-85565057D02*
X143471428Y-85517438D01*
X143471428Y-85517438D02*
X143376190Y-85469819D01*
X143376190Y-85469819D02*
X143185714Y-85469819D01*
X143185714Y-85469819D02*
X143090476Y-85517438D01*
X143090476Y-85517438D02*
X143042857Y-85565057D01*
X143042857Y-85565057D02*
X142995238Y-85660295D01*
X142995238Y-85660295D02*
X142995238Y-85898390D01*
X142995238Y-85898390D02*
X143042857Y-85993628D01*
X143042857Y-85993628D02*
X143090476Y-86041247D01*
X143090476Y-86041247D02*
X143185714Y-86088866D01*
X143185714Y-86088866D02*
X143376190Y-86088866D01*
X143376190Y-86088866D02*
X143471428Y-86041247D01*
X143471428Y-86041247D02*
X143519047Y-85993628D01*
X143519047Y-85993628D02*
X143566666Y-85898390D01*
X136189160Y-69869104D02*
X136665350Y-69869104D01*
X136093922Y-70154819D02*
X136427255Y-69154819D01*
X136427255Y-69154819D02*
X136760588Y-70154819D01*
X137617731Y-70154819D02*
X137046303Y-70154819D01*
X137332017Y-70154819D02*
X137332017Y-69154819D01*
X137332017Y-69154819D02*
X137236779Y-69297676D01*
X137236779Y-69297676D02*
X137141541Y-69392914D01*
X137141541Y-69392914D02*
X137046303Y-69440533D01*
X161312704Y-83174874D02*
X160512704Y-83441541D01*
X160512704Y-83441541D02*
X161312704Y-83708207D01*
X160931752Y-84241540D02*
X160893657Y-84355826D01*
X160893657Y-84355826D02*
X160855561Y-84393921D01*
X160855561Y-84393921D02*
X160779371Y-84432017D01*
X160779371Y-84432017D02*
X160665085Y-84432017D01*
X160665085Y-84432017D02*
X160588895Y-84393921D01*
X160588895Y-84393921D02*
X160550800Y-84355826D01*
X160550800Y-84355826D02*
X160512704Y-84279636D01*
X160512704Y-84279636D02*
X160512704Y-83974874D01*
X160512704Y-83974874D02*
X161312704Y-83974874D01*
X161312704Y-83974874D02*
X161312704Y-84241540D01*
X161312704Y-84241540D02*
X161274609Y-84317731D01*
X161274609Y-84317731D02*
X161236514Y-84355826D01*
X161236514Y-84355826D02*
X161160323Y-84393921D01*
X161160323Y-84393921D02*
X161084133Y-84393921D01*
X161084133Y-84393921D02*
X161007942Y-84355826D01*
X161007942Y-84355826D02*
X160969847Y-84317731D01*
X160969847Y-84317731D02*
X160931752Y-84241540D01*
X160931752Y-84241540D02*
X160931752Y-83974874D01*
X161312704Y-84774874D02*
X160665085Y-84774874D01*
X160665085Y-84774874D02*
X160588895Y-84812969D01*
X160588895Y-84812969D02*
X160550800Y-84851064D01*
X160550800Y-84851064D02*
X160512704Y-84927255D01*
X160512704Y-84927255D02*
X160512704Y-85079636D01*
X160512704Y-85079636D02*
X160550800Y-85155826D01*
X160550800Y-85155826D02*
X160588895Y-85193921D01*
X160588895Y-85193921D02*
X160665085Y-85232017D01*
X160665085Y-85232017D02*
X161312704Y-85232017D01*
X160550800Y-85574873D02*
X160512704Y-85689159D01*
X160512704Y-85689159D02*
X160512704Y-85879635D01*
X160512704Y-85879635D02*
X160550800Y-85955826D01*
X160550800Y-85955826D02*
X160588895Y-85993921D01*
X160588895Y-85993921D02*
X160665085Y-86032016D01*
X160665085Y-86032016D02*
X160741276Y-86032016D01*
X160741276Y-86032016D02*
X160817466Y-85993921D01*
X160817466Y-85993921D02*
X160855561Y-85955826D01*
X160855561Y-85955826D02*
X160893657Y-85879635D01*
X160893657Y-85879635D02*
X160931752Y-85727254D01*
X160931752Y-85727254D02*
X160969847Y-85651064D01*
X160969847Y-85651064D02*
X161007942Y-85612969D01*
X161007942Y-85612969D02*
X161084133Y-85574873D01*
X161084133Y-85574873D02*
X161160323Y-85574873D01*
X161160323Y-85574873D02*
X161236514Y-85612969D01*
X161236514Y-85612969D02*
X161274609Y-85651064D01*
X161274609Y-85651064D02*
X161312704Y-85727254D01*
X161312704Y-85727254D02*
X161312704Y-85917731D01*
X161312704Y-85917731D02*
X161274609Y-86032016D01*
X158772704Y-83174874D02*
X157972704Y-83441541D01*
X157972704Y-83441541D02*
X158772704Y-83708207D01*
X158010800Y-83936778D02*
X157972704Y-84051064D01*
X157972704Y-84051064D02*
X157972704Y-84241540D01*
X157972704Y-84241540D02*
X158010800Y-84317731D01*
X158010800Y-84317731D02*
X158048895Y-84355826D01*
X158048895Y-84355826D02*
X158125085Y-84393921D01*
X158125085Y-84393921D02*
X158201276Y-84393921D01*
X158201276Y-84393921D02*
X158277466Y-84355826D01*
X158277466Y-84355826D02*
X158315561Y-84317731D01*
X158315561Y-84317731D02*
X158353657Y-84241540D01*
X158353657Y-84241540D02*
X158391752Y-84089159D01*
X158391752Y-84089159D02*
X158429847Y-84012969D01*
X158429847Y-84012969D02*
X158467942Y-83974874D01*
X158467942Y-83974874D02*
X158544133Y-83936778D01*
X158544133Y-83936778D02*
X158620323Y-83936778D01*
X158620323Y-83936778D02*
X158696514Y-83974874D01*
X158696514Y-83974874D02*
X158734609Y-84012969D01*
X158734609Y-84012969D02*
X158772704Y-84089159D01*
X158772704Y-84089159D02*
X158772704Y-84279636D01*
X158772704Y-84279636D02*
X158734609Y-84393921D01*
X158353657Y-84889160D02*
X157972704Y-84889160D01*
X158772704Y-84622493D02*
X158353657Y-84889160D01*
X158353657Y-84889160D02*
X158772704Y-85155826D01*
X158010800Y-85384397D02*
X157972704Y-85498683D01*
X157972704Y-85498683D02*
X157972704Y-85689159D01*
X157972704Y-85689159D02*
X158010800Y-85765350D01*
X158010800Y-85765350D02*
X158048895Y-85803445D01*
X158048895Y-85803445D02*
X158125085Y-85841540D01*
X158125085Y-85841540D02*
X158201276Y-85841540D01*
X158201276Y-85841540D02*
X158277466Y-85803445D01*
X158277466Y-85803445D02*
X158315561Y-85765350D01*
X158315561Y-85765350D02*
X158353657Y-85689159D01*
X158353657Y-85689159D02*
X158391752Y-85536778D01*
X158391752Y-85536778D02*
X158429847Y-85460588D01*
X158429847Y-85460588D02*
X158467942Y-85422493D01*
X158467942Y-85422493D02*
X158544133Y-85384397D01*
X158544133Y-85384397D02*
X158620323Y-85384397D01*
X158620323Y-85384397D02*
X158696514Y-85422493D01*
X158696514Y-85422493D02*
X158734609Y-85460588D01*
X158734609Y-85460588D02*
X158772704Y-85536778D01*
X158772704Y-85536778D02*
X158772704Y-85727255D01*
X158772704Y-85727255D02*
X158734609Y-85841540D01*
X159405704Y-70239160D02*
X158758085Y-70239160D01*
X158758085Y-70239160D02*
X158681895Y-70277255D01*
X158681895Y-70277255D02*
X158643800Y-70315350D01*
X158643800Y-70315350D02*
X158605704Y-70391541D01*
X158605704Y-70391541D02*
X158605704Y-70543922D01*
X158605704Y-70543922D02*
X158643800Y-70620112D01*
X158643800Y-70620112D02*
X158681895Y-70658207D01*
X158681895Y-70658207D02*
X158758085Y-70696303D01*
X158758085Y-70696303D02*
X159405704Y-70696303D01*
X158643800Y-71039159D02*
X158605704Y-71153445D01*
X158605704Y-71153445D02*
X158605704Y-71343921D01*
X158605704Y-71343921D02*
X158643800Y-71420112D01*
X158643800Y-71420112D02*
X158681895Y-71458207D01*
X158681895Y-71458207D02*
X158758085Y-71496302D01*
X158758085Y-71496302D02*
X158834276Y-71496302D01*
X158834276Y-71496302D02*
X158910466Y-71458207D01*
X158910466Y-71458207D02*
X158948561Y-71420112D01*
X158948561Y-71420112D02*
X158986657Y-71343921D01*
X158986657Y-71343921D02*
X159024752Y-71191540D01*
X159024752Y-71191540D02*
X159062847Y-71115350D01*
X159062847Y-71115350D02*
X159100942Y-71077255D01*
X159100942Y-71077255D02*
X159177133Y-71039159D01*
X159177133Y-71039159D02*
X159253323Y-71039159D01*
X159253323Y-71039159D02*
X159329514Y-71077255D01*
X159329514Y-71077255D02*
X159367609Y-71115350D01*
X159367609Y-71115350D02*
X159405704Y-71191540D01*
X159405704Y-71191540D02*
X159405704Y-71382017D01*
X159405704Y-71382017D02*
X159367609Y-71496302D01*
X159024752Y-72105826D02*
X158986657Y-72220112D01*
X158986657Y-72220112D02*
X158948561Y-72258207D01*
X158948561Y-72258207D02*
X158872371Y-72296303D01*
X158872371Y-72296303D02*
X158758085Y-72296303D01*
X158758085Y-72296303D02*
X158681895Y-72258207D01*
X158681895Y-72258207D02*
X158643800Y-72220112D01*
X158643800Y-72220112D02*
X158605704Y-72143922D01*
X158605704Y-72143922D02*
X158605704Y-71839160D01*
X158605704Y-71839160D02*
X159405704Y-71839160D01*
X159405704Y-71839160D02*
X159405704Y-72105826D01*
X159405704Y-72105826D02*
X159367609Y-72182017D01*
X159367609Y-72182017D02*
X159329514Y-72220112D01*
X159329514Y-72220112D02*
X159253323Y-72258207D01*
X159253323Y-72258207D02*
X159177133Y-72258207D01*
X159177133Y-72258207D02*
X159100942Y-72220112D01*
X159100942Y-72220112D02*
X159062847Y-72182017D01*
X159062847Y-72182017D02*
X159024752Y-72105826D01*
X159024752Y-72105826D02*
X159024752Y-71839160D01*
X113014609Y-83708207D02*
X113052704Y-83632017D01*
X113052704Y-83632017D02*
X113052704Y-83517731D01*
X113052704Y-83517731D02*
X113014609Y-83403445D01*
X113014609Y-83403445D02*
X112938419Y-83327255D01*
X112938419Y-83327255D02*
X112862228Y-83289160D01*
X112862228Y-83289160D02*
X112709847Y-83251064D01*
X112709847Y-83251064D02*
X112595561Y-83251064D01*
X112595561Y-83251064D02*
X112443180Y-83289160D01*
X112443180Y-83289160D02*
X112366990Y-83327255D01*
X112366990Y-83327255D02*
X112290800Y-83403445D01*
X112290800Y-83403445D02*
X112252704Y-83517731D01*
X112252704Y-83517731D02*
X112252704Y-83593922D01*
X112252704Y-83593922D02*
X112290800Y-83708207D01*
X112290800Y-83708207D02*
X112328895Y-83746303D01*
X112328895Y-83746303D02*
X112595561Y-83746303D01*
X112595561Y-83746303D02*
X112595561Y-83593922D01*
X112252704Y-84089160D02*
X113052704Y-84089160D01*
X113052704Y-84089160D02*
X113052704Y-84393922D01*
X113052704Y-84393922D02*
X113014609Y-84470112D01*
X113014609Y-84470112D02*
X112976514Y-84508207D01*
X112976514Y-84508207D02*
X112900323Y-84546303D01*
X112900323Y-84546303D02*
X112786038Y-84546303D01*
X112786038Y-84546303D02*
X112709847Y-84508207D01*
X112709847Y-84508207D02*
X112671752Y-84470112D01*
X112671752Y-84470112D02*
X112633657Y-84393922D01*
X112633657Y-84393922D02*
X112633657Y-84089160D01*
X112252704Y-85308207D02*
X112252704Y-84851064D01*
X112252704Y-85079636D02*
X113052704Y-85079636D01*
X113052704Y-85079636D02*
X112938419Y-85003445D01*
X112938419Y-85003445D02*
X112862228Y-84927255D01*
X112862228Y-84927255D02*
X112824133Y-84851064D01*
X113052704Y-85993922D02*
X113052704Y-85841541D01*
X113052704Y-85841541D02*
X113014609Y-85765350D01*
X113014609Y-85765350D02*
X112976514Y-85727255D01*
X112976514Y-85727255D02*
X112862228Y-85651065D01*
X112862228Y-85651065D02*
X112709847Y-85612969D01*
X112709847Y-85612969D02*
X112405085Y-85612969D01*
X112405085Y-85612969D02*
X112328895Y-85651065D01*
X112328895Y-85651065D02*
X112290800Y-85689160D01*
X112290800Y-85689160D02*
X112252704Y-85765350D01*
X112252704Y-85765350D02*
X112252704Y-85917731D01*
X112252704Y-85917731D02*
X112290800Y-85993922D01*
X112290800Y-85993922D02*
X112328895Y-86032017D01*
X112328895Y-86032017D02*
X112405085Y-86070112D01*
X112405085Y-86070112D02*
X112595561Y-86070112D01*
X112595561Y-86070112D02*
X112671752Y-86032017D01*
X112671752Y-86032017D02*
X112709847Y-85993922D01*
X112709847Y-85993922D02*
X112747942Y-85917731D01*
X112747942Y-85917731D02*
X112747942Y-85765350D01*
X112747942Y-85765350D02*
X112709847Y-85689160D01*
X112709847Y-85689160D02*
X112671752Y-85651065D01*
X112671752Y-85651065D02*
X112595561Y-85612969D01*
X161274609Y-57748934D02*
X161312704Y-57672744D01*
X161312704Y-57672744D02*
X161312704Y-57558458D01*
X161312704Y-57558458D02*
X161274609Y-57444172D01*
X161274609Y-57444172D02*
X161198419Y-57367982D01*
X161198419Y-57367982D02*
X161122228Y-57329887D01*
X161122228Y-57329887D02*
X160969847Y-57291791D01*
X160969847Y-57291791D02*
X160855561Y-57291791D01*
X160855561Y-57291791D02*
X160703180Y-57329887D01*
X160703180Y-57329887D02*
X160626990Y-57367982D01*
X160626990Y-57367982D02*
X160550800Y-57444172D01*
X160550800Y-57444172D02*
X160512704Y-57558458D01*
X160512704Y-57558458D02*
X160512704Y-57634649D01*
X160512704Y-57634649D02*
X160550800Y-57748934D01*
X160550800Y-57748934D02*
X160588895Y-57787030D01*
X160588895Y-57787030D02*
X160855561Y-57787030D01*
X160855561Y-57787030D02*
X160855561Y-57634649D01*
X160512704Y-58129887D02*
X161312704Y-58129887D01*
X161312704Y-58129887D02*
X161312704Y-58434649D01*
X161312704Y-58434649D02*
X161274609Y-58510839D01*
X161274609Y-58510839D02*
X161236514Y-58548934D01*
X161236514Y-58548934D02*
X161160323Y-58587030D01*
X161160323Y-58587030D02*
X161046038Y-58587030D01*
X161046038Y-58587030D02*
X160969847Y-58548934D01*
X160969847Y-58548934D02*
X160931752Y-58510839D01*
X160931752Y-58510839D02*
X160893657Y-58434649D01*
X160893657Y-58434649D02*
X160893657Y-58129887D01*
X161312704Y-59082268D02*
X161312704Y-59158458D01*
X161312704Y-59158458D02*
X161274609Y-59234649D01*
X161274609Y-59234649D02*
X161236514Y-59272744D01*
X161236514Y-59272744D02*
X161160323Y-59310839D01*
X161160323Y-59310839D02*
X161007942Y-59348934D01*
X161007942Y-59348934D02*
X160817466Y-59348934D01*
X160817466Y-59348934D02*
X160665085Y-59310839D01*
X160665085Y-59310839D02*
X160588895Y-59272744D01*
X160588895Y-59272744D02*
X160550800Y-59234649D01*
X160550800Y-59234649D02*
X160512704Y-59158458D01*
X160512704Y-59158458D02*
X160512704Y-59082268D01*
X160512704Y-59082268D02*
X160550800Y-59006077D01*
X160550800Y-59006077D02*
X160588895Y-58967982D01*
X160588895Y-58967982D02*
X160665085Y-58929887D01*
X160665085Y-58929887D02*
X160817466Y-58891791D01*
X160817466Y-58891791D02*
X161007942Y-58891791D01*
X161007942Y-58891791D02*
X161160323Y-58929887D01*
X161160323Y-58929887D02*
X161236514Y-58967982D01*
X161236514Y-58967982D02*
X161274609Y-59006077D01*
X161274609Y-59006077D02*
X161312704Y-59082268D01*
X117279819Y-98991666D02*
X116803628Y-99324999D01*
X117279819Y-99563094D02*
X116279819Y-99563094D01*
X116279819Y-99563094D02*
X116279819Y-99182142D01*
X116279819Y-99182142D02*
X116327438Y-99086904D01*
X116327438Y-99086904D02*
X116375057Y-99039285D01*
X116375057Y-99039285D02*
X116470295Y-98991666D01*
X116470295Y-98991666D02*
X116613152Y-98991666D01*
X116613152Y-98991666D02*
X116708390Y-99039285D01*
X116708390Y-99039285D02*
X116756009Y-99086904D01*
X116756009Y-99086904D02*
X116803628Y-99182142D01*
X116803628Y-99182142D02*
X116803628Y-99563094D01*
X116279819Y-98658332D02*
X116279819Y-97991666D01*
X116279819Y-97991666D02*
X117279819Y-98420237D01*
X116258057Y-93458094D02*
X116210438Y-93410475D01*
X116210438Y-93410475D02*
X116162819Y-93315237D01*
X116162819Y-93315237D02*
X116162819Y-93077142D01*
X116162819Y-93077142D02*
X116210438Y-92981904D01*
X116210438Y-92981904D02*
X116258057Y-92934285D01*
X116258057Y-92934285D02*
X116353295Y-92886666D01*
X116353295Y-92886666D02*
X116448533Y-92886666D01*
X116448533Y-92886666D02*
X116591390Y-92934285D01*
X116591390Y-92934285D02*
X117162819Y-93505713D01*
X117162819Y-93505713D02*
X117162819Y-92886666D01*
X116258057Y-92505713D02*
X116210438Y-92458094D01*
X116210438Y-92458094D02*
X116162819Y-92362856D01*
X116162819Y-92362856D02*
X116162819Y-92124761D01*
X116162819Y-92124761D02*
X116210438Y-92029523D01*
X116210438Y-92029523D02*
X116258057Y-91981904D01*
X116258057Y-91981904D02*
X116353295Y-91934285D01*
X116353295Y-91934285D02*
X116448533Y-91934285D01*
X116448533Y-91934285D02*
X116591390Y-91981904D01*
X116591390Y-91981904D02*
X117162819Y-92553332D01*
X117162819Y-92553332D02*
X117162819Y-91934285D01*
X116162819Y-91315237D02*
X116162819Y-91219999D01*
X116162819Y-91219999D02*
X116210438Y-91124761D01*
X116210438Y-91124761D02*
X116258057Y-91077142D01*
X116258057Y-91077142D02*
X116353295Y-91029523D01*
X116353295Y-91029523D02*
X116543771Y-90981904D01*
X116543771Y-90981904D02*
X116781866Y-90981904D01*
X116781866Y-90981904D02*
X116972342Y-91029523D01*
X116972342Y-91029523D02*
X117067580Y-91077142D01*
X117067580Y-91077142D02*
X117115200Y-91124761D01*
X117115200Y-91124761D02*
X117162819Y-91219999D01*
X117162819Y-91219999D02*
X117162819Y-91315237D01*
X117162819Y-91315237D02*
X117115200Y-91410475D01*
X117115200Y-91410475D02*
X117067580Y-91458094D01*
X117067580Y-91458094D02*
X116972342Y-91505713D01*
X116972342Y-91505713D02*
X116781866Y-91553332D01*
X116781866Y-91553332D02*
X116543771Y-91553332D01*
X116543771Y-91553332D02*
X116353295Y-91505713D01*
X116353295Y-91505713D02*
X116258057Y-91458094D01*
X116258057Y-91458094D02*
X116210438Y-91410475D01*
X116210438Y-91410475D02*
X116162819Y-91315237D01*
X117162819Y-89981904D02*
X116686628Y-90315237D01*
X117162819Y-90553332D02*
X116162819Y-90553332D01*
X116162819Y-90553332D02*
X116162819Y-90172380D01*
X116162819Y-90172380D02*
X116210438Y-90077142D01*
X116210438Y-90077142D02*
X116258057Y-90029523D01*
X116258057Y-90029523D02*
X116353295Y-89981904D01*
X116353295Y-89981904D02*
X116496152Y-89981904D01*
X116496152Y-89981904D02*
X116591390Y-90029523D01*
X116591390Y-90029523D02*
X116639009Y-90077142D01*
X116639009Y-90077142D02*
X116686628Y-90172380D01*
X116686628Y-90172380D02*
X116686628Y-90553332D01*
D12*
G36*
X74139118Y-45541935D02*
G01*
X74235776Y-45546518D01*
X74322356Y-45555193D01*
X74376324Y-45564354D01*
X74531853Y-45605171D01*
X74696983Y-45662251D01*
X74864980Y-45732718D01*
X75029111Y-45813696D01*
X75182642Y-45902310D01*
X75212927Y-45921632D01*
X75326151Y-45995214D01*
X75433085Y-45979478D01*
X75501267Y-45970072D01*
X75588861Y-45958937D01*
X75690230Y-45946706D01*
X75799737Y-45934016D01*
X75911745Y-45921502D01*
X76020615Y-45909798D01*
X76120711Y-45899540D01*
X76206396Y-45891364D01*
X76244526Y-45888051D01*
X76499634Y-45869476D01*
X76744975Y-45857038D01*
X76984786Y-45850854D01*
X77223302Y-45851042D01*
X77464758Y-45857720D01*
X77713389Y-45871004D01*
X77973431Y-45891012D01*
X78249119Y-45917862D01*
X78544688Y-45951671D01*
X78546755Y-45951922D01*
X78873848Y-45991733D01*
X78993089Y-45914382D01*
X79188921Y-45800186D01*
X79399563Y-45700990D01*
X79617602Y-45619996D01*
X79785933Y-45572032D01*
X79836240Y-45560561D01*
X79882831Y-45552469D01*
X79931937Y-45547211D01*
X79989784Y-45544244D01*
X80062602Y-45543024D01*
X80119316Y-45542907D01*
X80200332Y-45543318D01*
X80261901Y-45544718D01*
X80309733Y-45547708D01*
X80349537Y-45552889D01*
X80387025Y-45560862D01*
X80427906Y-45572228D01*
X80443986Y-45577093D01*
X80599652Y-45636238D01*
X80737540Y-45713023D01*
X80857797Y-45807614D01*
X80960570Y-45920177D01*
X81046005Y-46050877D01*
X81114248Y-46199880D01*
X81165446Y-46367353D01*
X81173695Y-46403268D01*
X81183546Y-46453385D01*
X81190698Y-46503351D01*
X81195549Y-46558652D01*
X81198499Y-46624770D01*
X81199947Y-46707191D01*
X81200264Y-46768102D01*
X81198637Y-46904161D01*
X81192434Y-47024524D01*
X81180618Y-47137541D01*
X81162154Y-47251566D01*
X81136008Y-47374948D01*
X81113556Y-47467482D01*
X81071181Y-47635718D01*
X81133733Y-47739726D01*
X81167668Y-47799202D01*
X81209001Y-47876434D01*
X81255118Y-47966099D01*
X81303403Y-48062870D01*
X81351238Y-48161423D01*
X81396010Y-48256433D01*
X81435101Y-48342574D01*
X81465897Y-48414522D01*
X81469106Y-48422436D01*
X81581789Y-48732540D01*
X81669435Y-49040557D01*
X81724672Y-49303070D01*
X81735337Y-49368483D01*
X81743140Y-49429661D01*
X81748500Y-49492734D01*
X81751841Y-49563833D01*
X81753584Y-49649088D01*
X81754109Y-49730807D01*
X81753200Y-49835443D01*
X81750105Y-49932369D01*
X81745092Y-50018753D01*
X81738428Y-50091764D01*
X81730382Y-50148571D01*
X81721220Y-50186343D01*
X81711210Y-50202248D01*
X81709531Y-50202575D01*
X81696629Y-50195208D01*
X81668785Y-50175444D01*
X81630553Y-50146793D01*
X81586489Y-50112760D01*
X81541146Y-50076853D01*
X81499080Y-50042581D01*
X81471718Y-50019450D01*
X81465069Y-50016129D01*
X81460116Y-50021293D01*
X81456579Y-50037925D01*
X81454179Y-50069005D01*
X81452638Y-50117518D01*
X81451677Y-50186443D01*
X81451267Y-50238085D01*
X81439397Y-50537450D01*
X81408181Y-50827308D01*
X81358078Y-51106529D01*
X81289547Y-51373981D01*
X81203047Y-51628534D01*
X81099037Y-51869057D01*
X80977977Y-52094419D01*
X80840325Y-52303490D01*
X80686541Y-52495139D01*
X80517084Y-52668236D01*
X80435059Y-52740428D01*
X80231978Y-52894432D01*
X80011971Y-53029901D01*
X79775256Y-53146721D01*
X79522045Y-53244779D01*
X79422938Y-53276673D01*
X79374024Y-53291863D01*
X79343344Y-53299443D01*
X79328758Y-53296170D01*
X79328125Y-53278800D01*
X79339307Y-53244089D01*
X79360162Y-53188792D01*
X79361898Y-53184150D01*
X79378715Y-53137399D01*
X79392646Y-53095681D01*
X79400194Y-53069814D01*
X79407977Y-53037252D01*
X79246402Y-53084482D01*
X79175174Y-53103942D01*
X79088344Y-53125582D01*
X78995090Y-53147227D01*
X78904592Y-53166703D01*
X78869907Y-53173656D01*
X78789786Y-53189362D01*
X78730994Y-53201958D01*
X78690229Y-53213464D01*
X78664187Y-53225900D01*
X78649565Y-53241284D01*
X78643061Y-53261635D01*
X78641369Y-53288974D01*
X78641281Y-53313414D01*
X78631777Y-53379967D01*
X78605459Y-53455829D01*
X78564965Y-53534355D01*
X78535994Y-53578542D01*
X78454097Y-53672165D01*
X78349355Y-53755656D01*
X78222001Y-53828905D01*
X78072270Y-53891803D01*
X77900395Y-53944239D01*
X77706610Y-53986105D01*
X77647251Y-53996109D01*
X77592463Y-54002597D01*
X77517170Y-54008346D01*
X77426018Y-54013270D01*
X77323656Y-54017279D01*
X77214730Y-54020287D01*
X77103887Y-54022204D01*
X76995774Y-54022943D01*
X76895039Y-54022416D01*
X76806329Y-54020534D01*
X76734290Y-54017211D01*
X76697424Y-54014106D01*
X76483074Y-53983915D01*
X76290398Y-53942847D01*
X76119564Y-53891006D01*
X75970741Y-53828495D01*
X75844097Y-53755417D01*
X75739801Y-53671874D01*
X75658021Y-53577970D01*
X75598927Y-53473807D01*
X75562686Y-53359488D01*
X75555477Y-53317427D01*
X75541090Y-53211921D01*
X75446201Y-53197119D01*
X75364443Y-53182667D01*
X75267782Y-53162909D01*
X75164402Y-53139741D01*
X75062483Y-53115060D01*
X74970211Y-53090762D01*
X74904895Y-53071646D01*
X74848699Y-53055021D01*
X74813053Y-53047106D01*
X74795085Y-53047417D01*
X74791480Y-53052595D01*
X74795564Y-53070395D01*
X74806311Y-53105179D01*
X74821461Y-53150402D01*
X74838756Y-53199522D01*
X74855938Y-53245996D01*
X74870749Y-53283280D01*
X74872604Y-53287625D01*
X74876145Y-53299419D01*
X74869764Y-53303238D01*
X74848523Y-53299267D01*
X74814722Y-53289797D01*
X74555138Y-53203105D01*
X74313357Y-53098781D01*
X74088906Y-52976482D01*
X73881310Y-52835868D01*
X73690094Y-52676597D01*
X73514785Y-52498328D01*
X73354908Y-52300720D01*
X73269457Y-52177711D01*
X73216831Y-52091606D01*
X73160125Y-51988488D01*
X73102750Y-51875366D01*
X73048114Y-51759246D01*
X72999627Y-51647138D01*
X72960700Y-51546049D01*
X72957044Y-51535603D01*
X72874724Y-51262495D01*
X72811547Y-50975897D01*
X72768067Y-50679281D01*
X72744844Y-50376119D01*
X72740861Y-50187846D01*
X72740861Y-50000644D01*
X72662233Y-50067228D01*
X72601612Y-50117728D01*
X72551040Y-50158183D01*
X72513071Y-50186635D01*
X72490257Y-50201124D01*
X72485811Y-50202575D01*
X72478030Y-50190596D01*
X72469281Y-50156977D01*
X72460130Y-50105188D01*
X72451145Y-50038703D01*
X72442892Y-49960995D01*
X72438936Y-49915546D01*
X72432842Y-49714505D01*
X72445519Y-49498189D01*
X72453578Y-49438822D01*
X73173082Y-49438822D01*
X73191295Y-49736056D01*
X73201528Y-49825160D01*
X73250010Y-50114998D01*
X73320425Y-50397091D01*
X73412016Y-50669838D01*
X73524025Y-50931643D01*
X73655694Y-51180906D01*
X73806266Y-51416029D01*
X73974984Y-51635412D01*
X74149588Y-51825995D01*
X74332806Y-51994049D01*
X74528520Y-52144252D01*
X74734177Y-52275131D01*
X74947229Y-52385210D01*
X75165125Y-52473018D01*
X75376473Y-52534986D01*
X75436141Y-52548760D01*
X75473643Y-52554624D01*
X75491250Y-52550668D01*
X75491230Y-52534982D01*
X75475854Y-52505656D01*
X75453454Y-52470207D01*
X75336475Y-52268552D01*
X75231448Y-52047060D01*
X75139062Y-51808393D01*
X75060002Y-51555212D01*
X74994956Y-51290179D01*
X74953494Y-51064338D01*
X75972293Y-51064338D01*
X75979335Y-51097483D01*
X75983361Y-51121284D01*
X75989761Y-51164778D01*
X75997795Y-51222691D01*
X76006722Y-51289749D01*
X76011145Y-51323932D01*
X76033954Y-51519385D01*
X76053698Y-51726631D01*
X76070545Y-51948206D01*
X76084659Y-52186644D01*
X76096206Y-52444482D01*
X76105352Y-52724255D01*
X76107169Y-52793382D01*
X76115535Y-53125992D01*
X76180031Y-53190316D01*
X76250947Y-53245539D01*
X76344515Y-53292224D01*
X76461010Y-53330457D01*
X76600704Y-53360324D01*
X76763873Y-53381914D01*
X76794773Y-53384839D01*
X76874670Y-53389750D01*
X76971946Y-53392203D01*
X77080301Y-53392350D01*
X77193437Y-53390346D01*
X77305055Y-53386345D01*
X77408855Y-53380501D01*
X77498538Y-53372967D01*
X77552556Y-53366328D01*
X77687391Y-53340995D01*
X77805619Y-53307852D01*
X77905260Y-53267712D01*
X77984331Y-53221393D01*
X78040852Y-53169708D01*
X78045890Y-53163360D01*
X78059687Y-53144396D01*
X78069416Y-53126469D01*
X78075880Y-53104779D01*
X78079883Y-53074525D01*
X78082227Y-53030905D01*
X78083715Y-52969119D01*
X78084329Y-52933569D01*
X78091526Y-52632139D01*
X78094729Y-52549228D01*
X78691431Y-52549228D01*
X78698819Y-52554545D01*
X78722338Y-52553417D01*
X78764018Y-52545469D01*
X78825887Y-52530329D01*
X78893719Y-52512119D01*
X79127932Y-52434690D01*
X79353187Y-52333990D01*
X79568869Y-52210489D01*
X79774361Y-52064654D01*
X79969049Y-51896953D01*
X80152317Y-51707855D01*
X80323548Y-51497827D01*
X80434252Y-51341109D01*
X80583162Y-51095177D01*
X80710742Y-50837294D01*
X80816673Y-50569354D01*
X80900635Y-50293251D01*
X80962306Y-50010878D01*
X81001367Y-49724130D01*
X81017498Y-49434900D01*
X81010379Y-49145081D01*
X80979689Y-48856569D01*
X80925108Y-48571257D01*
X80911747Y-48516523D01*
X80897139Y-48462578D01*
X80878507Y-48399371D01*
X80857403Y-48331561D01*
X80835379Y-48263806D01*
X80813987Y-48200767D01*
X80794779Y-48147101D01*
X80779308Y-48107469D01*
X80769126Y-48086530D01*
X80768040Y-48085172D01*
X80765001Y-48094252D01*
X80761727Y-48125193D01*
X80758413Y-48174699D01*
X80755256Y-48239472D01*
X80752452Y-48316216D01*
X80750823Y-48374523D01*
X80741421Y-48593633D01*
X80724151Y-48792670D01*
X80698405Y-48975653D01*
X80663575Y-49146600D01*
X80619054Y-49309528D01*
X80600878Y-49365972D01*
X80581537Y-49419031D01*
X80557269Y-49478674D01*
X80530381Y-49539995D01*
X80503181Y-49598084D01*
X80477975Y-49648034D01*
X80457070Y-49684938D01*
X80442774Y-49703888D01*
X80441658Y-49704694D01*
X80433750Y-49697646D01*
X80425834Y-49671805D01*
X80421444Y-49645900D01*
X80408723Y-49567060D01*
X80389471Y-49473182D01*
X80365757Y-49372873D01*
X80339651Y-49274742D01*
X80313222Y-49187395D01*
X80306085Y-49166154D01*
X80258310Y-49042278D01*
X80198966Y-48911449D01*
X80131357Y-48779684D01*
X80058786Y-48652995D01*
X79984557Y-48537398D01*
X79911974Y-48438907D01*
X79895854Y-48419298D01*
X79850837Y-48365838D01*
X79843243Y-48450749D01*
X79825606Y-48603426D01*
X79801411Y-48736998D01*
X79777778Y-48830049D01*
X79756255Y-48896259D01*
X79728739Y-48969134D01*
X79698411Y-49041156D01*
X79668452Y-49104812D01*
X79642044Y-49152584D01*
X79639715Y-49156207D01*
X79620552Y-49185470D01*
X79555422Y-49124216D01*
X79448931Y-49035075D01*
X79327363Y-48952133D01*
X79226139Y-48895016D01*
X79175855Y-48870836D01*
X79121301Y-48847073D01*
X79067637Y-48825667D01*
X79020028Y-48808554D01*
X78983635Y-48797673D01*
X78963620Y-48794962D01*
X78961787Y-48795781D01*
X78965370Y-48808115D01*
X78978592Y-48838418D01*
X78999450Y-48882350D01*
X79025939Y-48935577D01*
X79030683Y-48944895D01*
X79120838Y-49146234D01*
X79195246Y-49365931D01*
X79253401Y-49602330D01*
X79284806Y-49781128D01*
X79291519Y-49843962D01*
X79296548Y-49927298D01*
X79299923Y-50026537D01*
X79301675Y-50137079D01*
X79301833Y-50254325D01*
X79300428Y-50373675D01*
X79297490Y-50490528D01*
X79293049Y-50600286D01*
X79287136Y-50698348D01*
X79279779Y-50780115D01*
X79278168Y-50793858D01*
X79234695Y-51088112D01*
X79178661Y-51367027D01*
X79110583Y-51628493D01*
X79030978Y-51870400D01*
X78985778Y-51986362D01*
X78949046Y-52070766D01*
X78905659Y-52163100D01*
X78859051Y-52256594D01*
X78812657Y-52344477D01*
X78769913Y-52419978D01*
X78746481Y-52458019D01*
X78720889Y-52498359D01*
X78701630Y-52530013D01*
X78691970Y-52547567D01*
X78691431Y-52549228D01*
X78094729Y-52549228D01*
X78102849Y-52339064D01*
X78118088Y-52057742D01*
X78137036Y-51791574D01*
X78159482Y-51543957D01*
X78182177Y-51342388D01*
X78191700Y-51265311D01*
X78200051Y-51196480D01*
X78206754Y-51139902D01*
X78211337Y-51099585D01*
X78213326Y-51079535D01*
X78213372Y-51078422D01*
X78208197Y-51076375D01*
X78194255Y-51092980D01*
X78173928Y-51124333D01*
X78149595Y-51166530D01*
X78123634Y-51215665D01*
X78099866Y-51264705D01*
X78034460Y-51424988D01*
X77975860Y-51606930D01*
X77924597Y-51807825D01*
X77881204Y-52024964D01*
X77846215Y-52255641D01*
X77820161Y-52497149D01*
X77803575Y-52746781D01*
X77802233Y-52777480D01*
X77794324Y-52969150D01*
X77711352Y-52987726D01*
X77635381Y-53003726D01*
X77564261Y-53016166D01*
X77493140Y-53025443D01*
X77417167Y-53031955D01*
X77331493Y-53036098D01*
X77231265Y-53038270D01*
X77111633Y-53038869D01*
X77087419Y-53038840D01*
X76942051Y-53037359D01*
X76817967Y-53033303D01*
X76711391Y-53026340D01*
X76618546Y-53016138D01*
X76535656Y-53002364D01*
X76458943Y-52984685D01*
X76452435Y-52982951D01*
X76405009Y-52970181D01*
X76396640Y-52816120D01*
X76377093Y-52540725D01*
X76527658Y-52540725D01*
X76530202Y-52590980D01*
X76536603Y-52639559D01*
X76541107Y-52659919D01*
X76550127Y-52684331D01*
X76564202Y-52703860D01*
X76586559Y-52719725D01*
X76620427Y-52733146D01*
X76669035Y-52745344D01*
X76735612Y-52757538D01*
X76823386Y-52770947D01*
X76842099Y-52773644D01*
X76885874Y-52777425D01*
X76948927Y-52779616D01*
X77025430Y-52780324D01*
X77109560Y-52779651D01*
X77195488Y-52777703D01*
X77277390Y-52774586D01*
X77349438Y-52770402D01*
X77405807Y-52765258D01*
X77420802Y-52763242D01*
X77479645Y-52753244D01*
X77535078Y-52742017D01*
X77578218Y-52731427D01*
X77590638Y-52727581D01*
X77623549Y-52713114D01*
X77642083Y-52693249D01*
X77654606Y-52658604D01*
X77655673Y-52654630D01*
X77665437Y-52606574D01*
X77671017Y-52557715D01*
X77671399Y-52548333D01*
X77667915Y-52502056D01*
X77657628Y-52444507D01*
X77643005Y-52386425D01*
X77626511Y-52338551D01*
X77620135Y-52325024D01*
X77611898Y-52313125D01*
X77604384Y-52314908D01*
X77595093Y-52333715D01*
X77581522Y-52372891D01*
X77579356Y-52379520D01*
X77561749Y-52426946D01*
X77540048Y-52475940D01*
X77517169Y-52520970D01*
X77496028Y-52556504D01*
X77479541Y-52577011D01*
X77473739Y-52579897D01*
X77461939Y-52570424D01*
X77440648Y-52546327D01*
X77421197Y-52521618D01*
X77377561Y-52463727D01*
X77332130Y-52514922D01*
X77286698Y-52566117D01*
X77240719Y-52520138D01*
X77194740Y-52474158D01*
X77144669Y-52523051D01*
X77094598Y-52571944D01*
X77046947Y-52518247D01*
X76999295Y-52464550D01*
X76956115Y-52518282D01*
X76912934Y-52572015D01*
X76866734Y-52518372D01*
X76820534Y-52464730D01*
X76773051Y-52522676D01*
X76745227Y-52554669D01*
X76726933Y-52569171D01*
X76713245Y-52569286D01*
X76706359Y-52564729D01*
X76687878Y-52541335D01*
X76665427Y-52501617D01*
X76642552Y-52453262D01*
X76622802Y-52403957D01*
X76609726Y-52361388D01*
X76607570Y-52350693D01*
X76600165Y-52320421D01*
X76591441Y-52304319D01*
X76589387Y-52303516D01*
X76578831Y-52314938D01*
X76566261Y-52345094D01*
X76553281Y-52387820D01*
X76541497Y-52436949D01*
X76532513Y-52486316D01*
X76527933Y-52529756D01*
X76527658Y-52540725D01*
X76377093Y-52540725D01*
X76375577Y-52519371D01*
X76345813Y-52245490D01*
X76307215Y-51993689D01*
X76259653Y-51763181D01*
X76202995Y-51553178D01*
X76168949Y-51449105D01*
X76137656Y-51365549D01*
X76103329Y-51284171D01*
X76068414Y-51210082D01*
X76035360Y-51148395D01*
X76006616Y-51104222D01*
X75999761Y-51095789D01*
X75972293Y-51064338D01*
X74953494Y-51064338D01*
X74944611Y-51015956D01*
X74909655Y-50735205D01*
X74890774Y-50450586D01*
X74887447Y-50278058D01*
X74888002Y-50163944D01*
X74890140Y-50070728D01*
X74894077Y-49994185D01*
X74900027Y-49930090D01*
X74908012Y-49875332D01*
X74952540Y-49676770D01*
X75013331Y-49496836D01*
X75090254Y-49335733D01*
X75183177Y-49193664D01*
X75291969Y-49070833D01*
X75416499Y-48967443D01*
X75545582Y-48889294D01*
X75632801Y-48846926D01*
X75703344Y-48818507D01*
X75760767Y-48803031D01*
X75808628Y-48799493D01*
X75843954Y-48804987D01*
X75896192Y-48819053D01*
X75786836Y-48928966D01*
X75691959Y-49037635D01*
X75616920Y-49154253D01*
X75559937Y-49282524D01*
X75519227Y-49426155D01*
X75501905Y-49521014D01*
X75485934Y-49696076D01*
X75489572Y-49881004D01*
X75512952Y-50077502D01*
X75556206Y-50287276D01*
X75564252Y-50319347D01*
X75584555Y-50393492D01*
X75609189Y-50475567D01*
X75636282Y-50560044D01*
X75663964Y-50641396D01*
X75690363Y-50714098D01*
X75713607Y-50772621D01*
X75729149Y-50806438D01*
X75745433Y-50837889D01*
X75751887Y-50806438D01*
X75757658Y-50777628D01*
X75766187Y-50734289D01*
X75774188Y-50693214D01*
X75802179Y-50595282D01*
X75845771Y-50501513D01*
X75901618Y-50416671D01*
X75910679Y-50406715D01*
X76335668Y-50406715D01*
X76344285Y-50502788D01*
X76358959Y-50593956D01*
X76385782Y-50693990D01*
X76421360Y-50792522D01*
X76462301Y-50879186D01*
X76474274Y-50899932D01*
X76502278Y-50942863D01*
X76533255Y-50985432D01*
X76563482Y-51023130D01*
X76589236Y-51051452D01*
X76606794Y-51065891D01*
X76611652Y-51066240D01*
X76612388Y-51052195D01*
X76609357Y-51020455D01*
X76603693Y-50980989D01*
X76597333Y-50925500D01*
X76593552Y-50858503D01*
X76592406Y-50788117D01*
X76593952Y-50722463D01*
X76598245Y-50669660D01*
X76601414Y-50650731D01*
X76609361Y-50614539D01*
X76706991Y-50716779D01*
X76746302Y-50757555D01*
X76778877Y-50790607D01*
X76801061Y-50812274D01*
X76809094Y-50819018D01*
X76815339Y-50808200D01*
X76827256Y-50779944D01*
X76841090Y-50743536D01*
X76855877Y-50704719D01*
X76867466Y-50677477D01*
X76873036Y-50668053D01*
X76881966Y-50677449D01*
X76902120Y-50702589D01*
X76929879Y-50738897D01*
X76944018Y-50757835D01*
X77010576Y-50847617D01*
X77026913Y-50811302D01*
X77041540Y-50778156D01*
X77060347Y-50734738D01*
X77070045Y-50712084D01*
X77096839Y-50649182D01*
X77120024Y-50699504D01*
X77140318Y-50744984D01*
X77160088Y-50791410D01*
X77162764Y-50797940D01*
X77182319Y-50846054D01*
X77253285Y-50755356D01*
X77324251Y-50664658D01*
X77345365Y-50719822D01*
X77360133Y-50758700D01*
X77372249Y-50791084D01*
X77375275Y-50799350D01*
X77381184Y-50807952D01*
X77391842Y-50806946D01*
X77410391Y-50794169D01*
X77439970Y-50767457D01*
X77483704Y-50724665D01*
X77527382Y-50681888D01*
X77556918Y-50655128D01*
X77575531Y-50642192D01*
X77586443Y-50640885D01*
X77592871Y-50649013D01*
X77593278Y-50649980D01*
X77597804Y-50674987D01*
X77600431Y-50718830D01*
X77601263Y-50775260D01*
X77600407Y-50838034D01*
X77597970Y-50900904D01*
X77594057Y-50957625D01*
X77588774Y-51001950D01*
X77587149Y-51010871D01*
X77582119Y-51045304D01*
X77582738Y-51066900D01*
X77585680Y-51070628D01*
X77599918Y-51060836D01*
X77623847Y-51034757D01*
X77653659Y-50997333D01*
X77685544Y-50953511D01*
X77715693Y-50908234D01*
X77733386Y-50878915D01*
X77756888Y-50832334D01*
X77781902Y-50774288D01*
X77802647Y-50718375D01*
X77816437Y-50671288D01*
X77829709Y-50616135D01*
X77841464Y-50558603D01*
X77850704Y-50504377D01*
X77856429Y-50459145D01*
X77857642Y-50428591D01*
X77855236Y-50418947D01*
X77841278Y-50419111D01*
X77807794Y-50424098D01*
X77759771Y-50433055D01*
X77702196Y-50445125D01*
X77700980Y-50445393D01*
X77445317Y-50490952D01*
X77196206Y-50513114D01*
X76950827Y-50511834D01*
X76706363Y-50487067D01*
X76459996Y-50438767D01*
X76403322Y-50424470D01*
X76335668Y-50406715D01*
X75910679Y-50406715D01*
X75966372Y-50345522D01*
X76036688Y-50292831D01*
X76065874Y-50277879D01*
X76160460Y-50248359D01*
X76268767Y-50236101D01*
X76386110Y-50241213D01*
X76507801Y-50263802D01*
X76521297Y-50267371D01*
X76578569Y-50277549D01*
X76645910Y-50281416D01*
X76714215Y-50279188D01*
X76774381Y-50271084D01*
X76810648Y-50260467D01*
X76883083Y-50216663D01*
X76938843Y-50154882D01*
X76976948Y-50076814D01*
X76996416Y-49984151D01*
X76998847Y-49936372D01*
X76998122Y-49884774D01*
X76993816Y-49849433D01*
X76983726Y-49821483D01*
X76965648Y-49792055D01*
X76961499Y-49786093D01*
X76905485Y-49727096D01*
X76834996Y-49688432D01*
X76750979Y-49670556D01*
X76717709Y-49669297D01*
X76637406Y-49678082D01*
X76575089Y-49703422D01*
X76531499Y-49744697D01*
X76507378Y-49801290D01*
X76502473Y-49848784D01*
X76502426Y-49903859D01*
X76448959Y-49895612D01*
X76342052Y-49870989D01*
X76249336Y-49833083D01*
X76173699Y-49783530D01*
X76118027Y-49723968D01*
X76102869Y-49699355D01*
X76086175Y-49663793D01*
X76077918Y-49630451D01*
X76076310Y-49588983D01*
X76077866Y-49554680D01*
X76094193Y-49460173D01*
X76131381Y-49377070D01*
X76190033Y-49304746D01*
X76270753Y-49242574D01*
X76374144Y-49189930D01*
X76459758Y-49158597D01*
X76581901Y-49126467D01*
X76720515Y-49103359D01*
X76877882Y-49089003D01*
X77056282Y-49083128D01*
X77097499Y-49082947D01*
X77280370Y-49086959D01*
X77441595Y-49099188D01*
X77583438Y-49120015D01*
X77708162Y-49149818D01*
X77818030Y-49188979D01*
X77868458Y-49212367D01*
X77939045Y-49255598D01*
X78003782Y-49309412D01*
X78056664Y-49368030D01*
X78091683Y-49425668D01*
X78092809Y-49428306D01*
X78118896Y-49517634D01*
X78121100Y-49601194D01*
X78100321Y-49677550D01*
X78057463Y-49745269D01*
X77993425Y-49802916D01*
X77909110Y-49849056D01*
X77807893Y-49881676D01*
X77764828Y-49891373D01*
X77730960Y-49898169D01*
X77715050Y-49900457D01*
X77705698Y-49889280D01*
X77697231Y-49860535D01*
X77693741Y-49838701D01*
X77677982Y-49771216D01*
X77647711Y-49722155D01*
X77601012Y-49690021D01*
X77535968Y-49673316D01*
X77477774Y-49670001D01*
X77393035Y-49678453D01*
X77322999Y-49705192D01*
X77263127Y-49752291D01*
X77239881Y-49778692D01*
X77208953Y-49836003D01*
X77194632Y-49906302D01*
X77196554Y-49984007D01*
X77214353Y-50063532D01*
X77247664Y-50139292D01*
X77265317Y-50167389D01*
X77318268Y-50222211D01*
X77388287Y-50259325D01*
X77474361Y-50278518D01*
X77575475Y-50279579D01*
X77690616Y-50262293D01*
X77703863Y-50259317D01*
X77835374Y-50238410D01*
X77957429Y-50238396D01*
X78068431Y-50259044D01*
X78166779Y-50300126D01*
X78216924Y-50332872D01*
X78278641Y-50392711D01*
X78334140Y-50471845D01*
X78380639Y-50564642D01*
X78415353Y-50665470D01*
X78435498Y-50768699D01*
X78436384Y-50776768D01*
X78440777Y-50816281D01*
X78444787Y-50833852D01*
X78450605Y-50832568D01*
X78460426Y-50815516D01*
X78461906Y-50812693D01*
X78488033Y-50755855D01*
X78517692Y-50679775D01*
X78549201Y-50589827D01*
X78580881Y-50491385D01*
X78611050Y-50389822D01*
X78638029Y-50290512D01*
X78660136Y-50198829D01*
X78672060Y-50140736D01*
X78699332Y-49946977D01*
X78708206Y-49761480D01*
X78699075Y-49585801D01*
X78672332Y-49421496D01*
X78628370Y-49270122D01*
X78567581Y-49133235D01*
X78490360Y-49012391D01*
X78397098Y-48909146D01*
X78351151Y-48869749D01*
X78288085Y-48819899D01*
X78341937Y-48806035D01*
X78473657Y-48766443D01*
X78588741Y-48718722D01*
X78695314Y-48659218D01*
X78749918Y-48622511D01*
X78833015Y-48550115D01*
X78901785Y-48462928D01*
X78953042Y-48366192D01*
X78983601Y-48265148D01*
X78988842Y-48229503D01*
X78992179Y-48189203D01*
X78992831Y-48161164D01*
X78990983Y-48151956D01*
X78981513Y-48161625D01*
X78963122Y-48186666D01*
X78945294Y-48213262D01*
X78884696Y-48284932D01*
X78806145Y-48344399D01*
X78714825Y-48389345D01*
X78615921Y-48417454D01*
X78514618Y-48426409D01*
X78473698Y-48424017D01*
X78420805Y-48417592D01*
X78372233Y-48409177D01*
X78324588Y-48397446D01*
X78274476Y-48381073D01*
X78218504Y-48358730D01*
X78153278Y-48329092D01*
X78075406Y-48290833D01*
X77981492Y-48242625D01*
X77898860Y-48199338D01*
X77726200Y-48116262D01*
X77674216Y-48096528D01*
X78190999Y-48096528D01*
X78192425Y-48122320D01*
X78213647Y-48160770D01*
X78216817Y-48165521D01*
X78241308Y-48195511D01*
X78270851Y-48222815D01*
X78301365Y-48245163D01*
X78328770Y-48260285D01*
X78348984Y-48265910D01*
X78357926Y-48259768D01*
X78352200Y-48240846D01*
X78341084Y-48196258D01*
X78350083Y-48150954D01*
X78375240Y-48111537D01*
X78412596Y-48084610D01*
X78450732Y-48076473D01*
X78495376Y-48088003D01*
X78534017Y-48118435D01*
X78559622Y-48161530D01*
X78563879Y-48176806D01*
X78572739Y-48220130D01*
X78603779Y-48176607D01*
X78621664Y-48146535D01*
X78631169Y-48114021D01*
X78634614Y-48069505D01*
X78634819Y-48048796D01*
X78632897Y-48003836D01*
X78627872Y-47968435D01*
X78621203Y-47950891D01*
X78606646Y-47947740D01*
X78576298Y-47953598D01*
X78527804Y-47969093D01*
X78463947Y-47992861D01*
X78400772Y-48016534D01*
X78339063Y-48038315D01*
X78286460Y-48055581D01*
X78254259Y-48064838D01*
X78211049Y-48078875D01*
X78190999Y-48096528D01*
X77674216Y-48096528D01*
X77561717Y-48053822D01*
X77401187Y-48010762D01*
X77240390Y-47985824D01*
X77162197Y-47979938D01*
X77026842Y-47979277D01*
X76892589Y-47991792D01*
X76756417Y-48018374D01*
X76615308Y-48059912D01*
X76466240Y-48117296D01*
X76306193Y-48191416D01*
X76132148Y-48283160D01*
X76131302Y-48283629D01*
X75992131Y-48351818D01*
X75860653Y-48398047D01*
X75737779Y-48422095D01*
X75624422Y-48423741D01*
X75579092Y-48417556D01*
X75467517Y-48385468D01*
X75370217Y-48333944D01*
X75288969Y-48264118D01*
X75240842Y-48202278D01*
X75203976Y-48145665D01*
X75210036Y-48229189D01*
X75230173Y-48332963D01*
X75275350Y-48434574D01*
X75323996Y-48507171D01*
X75369736Y-48566744D01*
X75335363Y-48574407D01*
X75151831Y-48627923D01*
X74971399Y-48705555D01*
X74795996Y-48806283D01*
X74627551Y-48929090D01*
X74567235Y-48980044D01*
X74526681Y-49014327D01*
X74500294Y-49032804D01*
X74484499Y-49037515D01*
X74476471Y-49031808D01*
X74468379Y-49013408D01*
X74454416Y-48976317D01*
X74436483Y-48925772D01*
X74416483Y-48867013D01*
X74414763Y-48861849D01*
X74373339Y-48717117D01*
X74348436Y-48582720D01*
X74340448Y-48461421D01*
X74345993Y-48379247D01*
X74351022Y-48335841D01*
X74352841Y-48304180D01*
X74351119Y-48290484D01*
X74350709Y-48290341D01*
X74339525Y-48298845D01*
X74314582Y-48322028D01*
X74279518Y-48356394D01*
X74237975Y-48398447D01*
X74236055Y-48400420D01*
X74121466Y-48530456D01*
X74030390Y-48661806D01*
X73961244Y-48797608D01*
X73912447Y-48940999D01*
X73882415Y-49095115D01*
X73881300Y-49103773D01*
X73865831Y-49226944D01*
X73807133Y-49132766D01*
X73712276Y-48958633D01*
X73634440Y-48769078D01*
X73575420Y-48568711D01*
X73559752Y-48497919D01*
X73546022Y-48418876D01*
X73534074Y-48328582D01*
X73524435Y-48233595D01*
X73517634Y-48140470D01*
X73514196Y-48055766D01*
X73514473Y-48013316D01*
X75552373Y-48013316D01*
X75554560Y-48081095D01*
X75578308Y-48146581D01*
X75622551Y-48204390D01*
X75623629Y-48205423D01*
X75652147Y-48231561D01*
X75672886Y-48248693D01*
X75679504Y-48252599D01*
X75681675Y-48241784D01*
X75678773Y-48215221D01*
X75677823Y-48209892D01*
X75678424Y-48156099D01*
X75699959Y-48113487D01*
X75739313Y-48085837D01*
X75787366Y-48076873D01*
X75833392Y-48087580D01*
X75870031Y-48116416D01*
X75891823Y-48157175D01*
X75894312Y-48198436D01*
X75892470Y-48226321D01*
X75896849Y-48239792D01*
X75897890Y-48240019D01*
X75915752Y-48230730D01*
X75939837Y-48206913D01*
X75965812Y-48174637D01*
X75989340Y-48139975D01*
X76006087Y-48108999D01*
X76011717Y-48087780D01*
X76009791Y-48083298D01*
X75996643Y-48078191D01*
X75965008Y-48067737D01*
X75920513Y-48053767D01*
X75895553Y-48046141D01*
X75829227Y-48024528D01*
X75756265Y-47998406D01*
X75691249Y-47973022D01*
X75684682Y-47970278D01*
X75635634Y-47950153D01*
X75604565Y-47939482D01*
X75586544Y-47937310D01*
X75576643Y-47942684D01*
X75572811Y-47948626D01*
X75552373Y-48013316D01*
X73514473Y-48013316D01*
X73514651Y-47986039D01*
X73516436Y-47959507D01*
X73519241Y-47917862D01*
X73516997Y-47896985D01*
X73508966Y-47897489D01*
X73494412Y-47919982D01*
X73472599Y-47965077D01*
X73451260Y-48013570D01*
X73346723Y-48288097D01*
X73266538Y-48568606D01*
X73210803Y-48854377D01*
X73179618Y-49144689D01*
X73173082Y-49438822D01*
X72453578Y-49438822D01*
X72476785Y-49267872D01*
X72526464Y-49024832D01*
X72594374Y-48770345D01*
X72604392Y-48736948D01*
X72644365Y-48615850D01*
X72694971Y-48479129D01*
X72753681Y-48332604D01*
X72817965Y-48182095D01*
X72885293Y-48033420D01*
X72953133Y-47892399D01*
X73018957Y-47764851D01*
X73056543Y-47697014D01*
X73121957Y-47582705D01*
X73077032Y-47398707D01*
X73052479Y-47296341D01*
X73033656Y-47211682D01*
X73019825Y-47138475D01*
X73010248Y-47070466D01*
X73004188Y-47001403D01*
X73000907Y-46925031D01*
X72999667Y-46835096D01*
X72999668Y-46742941D01*
X72999960Y-46685069D01*
X73501817Y-46685069D01*
X73502189Y-46819653D01*
X73520709Y-46958369D01*
X73558093Y-47099200D01*
X73615059Y-47240132D01*
X73621023Y-47252451D01*
X73653986Y-47314470D01*
X73691808Y-47377725D01*
X73728655Y-47432744D01*
X73746802Y-47456568D01*
X73778639Y-47492398D01*
X73818374Y-47532660D01*
X73861517Y-47573343D01*
X73903578Y-47610436D01*
X73940068Y-47639931D01*
X73966498Y-47657815D01*
X73976020Y-47661317D01*
X73976067Y-47650950D01*
X73967340Y-47623921D01*
X73953586Y-47590408D01*
X73912403Y-47475920D01*
X73885806Y-47355026D01*
X73874718Y-47234834D01*
X73880064Y-47122451D01*
X73887261Y-47080088D01*
X73919483Y-46981930D01*
X73972301Y-46885002D01*
X74041596Y-46795262D01*
X74123252Y-46718669D01*
X74151365Y-46697877D01*
X74201977Y-46662803D01*
X74170952Y-46646548D01*
X74144645Y-46635577D01*
X74101981Y-46620703D01*
X74050878Y-46604639D01*
X74034822Y-46599917D01*
X73929717Y-46569541D01*
X73981184Y-46555651D01*
X74117523Y-46527752D01*
X74255317Y-46516181D01*
X74389770Y-46520629D01*
X74516084Y-46540784D01*
X74629461Y-46576334D01*
X74682339Y-46601136D01*
X74714793Y-46621888D01*
X74755167Y-46652520D01*
X74798925Y-46688948D01*
X74841528Y-46727087D01*
X74878438Y-46762851D01*
X74905118Y-46792156D01*
X74917030Y-46810918D01*
X74917263Y-46812613D01*
X74907477Y-46825763D01*
X74882524Y-46845954D01*
X74863796Y-46858598D01*
X74787724Y-46916258D01*
X74726043Y-46982157D01*
X74681551Y-47052272D01*
X74657046Y-47122577D01*
X74653095Y-47161557D01*
X74663958Y-47233747D01*
X74696965Y-47302832D01*
X74752739Y-47369442D01*
X74831906Y-47434204D01*
X74935090Y-47497746D01*
X75039460Y-47550029D01*
X75082495Y-47568676D01*
X75136819Y-47590399D01*
X75197902Y-47613600D01*
X75261213Y-47636682D01*
X75322224Y-47658046D01*
X75376404Y-47676096D01*
X75419223Y-47689234D01*
X75446152Y-47695863D01*
X75453035Y-47695882D01*
X75450889Y-47682975D01*
X75441094Y-47653311D01*
X75425817Y-47613431D01*
X75407990Y-47564871D01*
X75389410Y-47507029D01*
X75371955Y-47446694D01*
X75357501Y-47390658D01*
X75347925Y-47345712D01*
X75345022Y-47321087D01*
X75349842Y-47314230D01*
X75366125Y-47318362D01*
X75396605Y-47334746D01*
X75444018Y-47364643D01*
X75455193Y-47371974D01*
X75614779Y-47471917D01*
X75776312Y-47563244D01*
X75935409Y-47643790D01*
X76087684Y-47711389D01*
X76228752Y-47763875D01*
X76282712Y-47780634D01*
X76368355Y-47804241D01*
X76438208Y-47820050D01*
X76500010Y-47829174D01*
X76561503Y-47832726D01*
X76630425Y-47831820D01*
X76636888Y-47831572D01*
X76703536Y-47827152D01*
X76755022Y-47818726D01*
X76801266Y-47804286D01*
X76828709Y-47792763D01*
X76910972Y-47742431D01*
X76981609Y-47671912D01*
X77038076Y-47584485D01*
X77077828Y-47483427D01*
X77082641Y-47465526D01*
X77097872Y-47405037D01*
X77118629Y-47479710D01*
X77155683Y-47583339D01*
X77204246Y-47666484D01*
X77266140Y-47731885D01*
X77305522Y-47760642D01*
X77395642Y-47804947D01*
X77498176Y-47829916D01*
X77613615Y-47835482D01*
X77742446Y-47821576D01*
X77885158Y-47788133D01*
X78042239Y-47735083D01*
X78214177Y-47662360D01*
X78295146Y-47623876D01*
X78546467Y-47490146D01*
X78798022Y-47335490D01*
X78809861Y-47327691D01*
X78846518Y-47303469D01*
X78838093Y-47375152D01*
X78829942Y-47419065D01*
X78815131Y-47476901D01*
X78796210Y-47539170D01*
X78785993Y-47569035D01*
X78768248Y-47620075D01*
X78754794Y-47661482D01*
X78747240Y-47688123D01*
X78746368Y-47695286D01*
X78759588Y-47693307D01*
X78791742Y-47683991D01*
X78838247Y-47668951D01*
X78894521Y-47649797D01*
X78955980Y-47628140D01*
X79018043Y-47605594D01*
X79076126Y-47583768D01*
X79125647Y-47564275D01*
X79158242Y-47550448D01*
X79261734Y-47497995D01*
X79352955Y-47440095D01*
X79429142Y-47379098D01*
X79487529Y-47317354D01*
X79525353Y-47257213D01*
X79535344Y-47229791D01*
X79542704Y-47155552D01*
X79526207Y-47080280D01*
X79486950Y-47006183D01*
X79426026Y-46935470D01*
X79363848Y-46883851D01*
X79325769Y-46854485D01*
X79297276Y-46829177D01*
X79283341Y-46812443D01*
X79282714Y-46810143D01*
X79291103Y-46794988D01*
X79313469Y-46767469D01*
X79345603Y-46732613D01*
X79358828Y-46719162D01*
X79448521Y-46645336D01*
X79554687Y-46584725D01*
X79670471Y-46541119D01*
X79691077Y-46535552D01*
X79764580Y-46523125D01*
X79853957Y-46517619D01*
X79951590Y-46518642D01*
X80049859Y-46525797D01*
X80141145Y-46538689D01*
X80217829Y-46556923D01*
X80238317Y-46563927D01*
X80256085Y-46571655D01*
X80255033Y-46576852D01*
X80232602Y-46582356D01*
X80219447Y-46584839D01*
X80180188Y-46593858D01*
X80133018Y-46607154D01*
X80085098Y-46622387D01*
X80043588Y-46637216D01*
X80015651Y-46649300D01*
X80008957Y-46653633D01*
X80013448Y-46665120D01*
X80034109Y-46687118D01*
X80066772Y-46715326D01*
X80075042Y-46721851D01*
X80168430Y-46809550D01*
X80240759Y-46910782D01*
X80291345Y-47024316D01*
X80319501Y-47148923D01*
X80321322Y-47164387D01*
X80322600Y-47236436D01*
X80314156Y-47322429D01*
X80297490Y-47413789D01*
X80274099Y-47501939D01*
X80251318Y-47564945D01*
X80234133Y-47607501D01*
X80222310Y-47640018D01*
X80217972Y-47656574D01*
X80218191Y-47657451D01*
X80230849Y-47653747D01*
X80257049Y-47636550D01*
X80292041Y-47609644D01*
X80331074Y-47576810D01*
X80369398Y-47541832D01*
X80393473Y-47517873D01*
X80493828Y-47395307D01*
X80574865Y-47258217D01*
X80635481Y-47109434D01*
X80674571Y-46951792D01*
X80691032Y-46788127D01*
X80691510Y-46752907D01*
X80682691Y-46605440D01*
X80656272Y-46474644D01*
X80611514Y-46358519D01*
X80547677Y-46255062D01*
X80478916Y-46176627D01*
X80394486Y-46104004D01*
X80306372Y-46051943D01*
X80206716Y-46016192D01*
X80162970Y-46005741D01*
X80045273Y-45992759D01*
X79916428Y-46000611D01*
X79778346Y-46028626D01*
X79632938Y-46076130D01*
X79482113Y-46142451D01*
X79327782Y-46226917D01*
X79171856Y-46328853D01*
X79103733Y-46378691D01*
X79046295Y-46420523D01*
X79004820Y-46446820D01*
X78976728Y-46459055D01*
X78961911Y-46459639D01*
X78804296Y-46418120D01*
X78639766Y-46382303D01*
X78466094Y-46351966D01*
X78281048Y-46326885D01*
X78082399Y-46306836D01*
X77867918Y-46291596D01*
X77635374Y-46280941D01*
X77382538Y-46274649D01*
X77107180Y-46272496D01*
X77093709Y-46272493D01*
X76809108Y-46274757D01*
X76547372Y-46281613D01*
X76306594Y-46293232D01*
X76084870Y-46309786D01*
X75880294Y-46331445D01*
X75690961Y-46358380D01*
X75514966Y-46390764D01*
X75350403Y-46428768D01*
X75347753Y-46429448D01*
X75205810Y-46465945D01*
X75127595Y-46404715D01*
X74978984Y-46296927D01*
X74828231Y-46203908D01*
X74677800Y-46126600D01*
X74530153Y-46065943D01*
X74387753Y-46022880D01*
X74253062Y-45998352D01*
X74128545Y-45993300D01*
X74066264Y-45999022D01*
X73947225Y-46027987D01*
X73840606Y-46077210D01*
X73747124Y-46144675D01*
X73667494Y-46228365D01*
X73602432Y-46326265D01*
X73552654Y-46436360D01*
X73518877Y-46556633D01*
X73501817Y-46685069D01*
X72999960Y-46685069D01*
X73000139Y-46649461D01*
X73001137Y-46576551D01*
X73003047Y-46519619D01*
X73006256Y-46474075D01*
X73011150Y-46435327D01*
X73018115Y-46398786D01*
X73027537Y-46359859D01*
X73033928Y-46335688D01*
X73085076Y-46183080D01*
X73152475Y-46043090D01*
X73234279Y-45918781D01*
X73328639Y-45813212D01*
X73373003Y-45774023D01*
X73439762Y-45726319D01*
X73522501Y-45677514D01*
X73612748Y-45631853D01*
X73702027Y-45593581D01*
X73781864Y-45566943D01*
X73791332Y-45564500D01*
X73858490Y-45552728D01*
X73943494Y-45545042D01*
X74039364Y-45541444D01*
X74139118Y-45541935D01*
G37*
D13*
X114830000Y-53445000D02*
X114830000Y-54825000D01*
X113450000Y-53445000D02*
X114830000Y-53445000D01*
X112180000Y-53445000D02*
X106990000Y-53445000D01*
X112180000Y-53445000D02*
X112180000Y-56205000D01*
X106990000Y-53445000D02*
X106990000Y-56205000D01*
X112180000Y-56205000D02*
X106990000Y-56205000D01*
X144255000Y-53720000D02*
X144255000Y-56480000D01*
X151985000Y-53720000D02*
X144255000Y-53720000D01*
X151985000Y-53720000D02*
X151985000Y-56480000D01*
X151985000Y-56480000D02*
X144255000Y-56480000D01*
X153255000Y-53720000D02*
X154635000Y-53720000D01*
X154635000Y-53720000D02*
X154635000Y-55100000D01*
X121680000Y-88450000D02*
X121680000Y-94990000D01*
X121680000Y-94990000D02*
X124420000Y-94990000D01*
X123050000Y-87680000D02*
X123050000Y-88450000D01*
X123050000Y-95760000D02*
X123050000Y-94990000D01*
X124420000Y-88450000D02*
X121680000Y-88450000D01*
X124420000Y-94990000D02*
X124420000Y-88450000D01*
X136635000Y-53720000D02*
X136635000Y-56480000D01*
X139285000Y-53720000D02*
X136635000Y-53720000D01*
X139285000Y-53720000D02*
X139285000Y-56480000D01*
X139285000Y-56480000D02*
X136635000Y-56480000D01*
X140555000Y-53720000D02*
X141935000Y-53720000D01*
X141935000Y-53720000D02*
X141935000Y-55100000D01*
X139602064Y-86515000D02*
X138147936Y-86515000D01*
X139602064Y-88335000D02*
X138147936Y-88335000D01*
X132015000Y-54652064D02*
X132015000Y-53197936D01*
X133835000Y-54652064D02*
X133835000Y-53197936D01*
X131427064Y-86515000D02*
X129972936Y-86515000D01*
X131427064Y-88335000D02*
X129972936Y-88335000D01*
X159520000Y-86545000D02*
X160900000Y-86545000D01*
X159520000Y-87925000D02*
X159520000Y-86545000D01*
X159520000Y-89195000D02*
X159520000Y-91845000D01*
X159520000Y-89195000D02*
X162280000Y-89195000D01*
X159520000Y-91845000D02*
X162280000Y-91845000D01*
X162280000Y-89195000D02*
X162280000Y-91845000D01*
X136350000Y-91450000D02*
X136350000Y-95950000D01*
X138850000Y-97200000D02*
X140350000Y-97200000D01*
X140350000Y-90200000D02*
X138850000Y-90200000D01*
X142850000Y-95950000D02*
X142850000Y-91450000D01*
X131473752Y-83390000D02*
X130951248Y-83390000D01*
X131473752Y-84860000D02*
X130951248Y-84860000D01*
X156955000Y-53720000D02*
X156955000Y-56480000D01*
X159605000Y-53720000D02*
X156955000Y-53720000D01*
X159605000Y-53720000D02*
X159605000Y-56480000D01*
X159605000Y-56480000D02*
X156955000Y-56480000D01*
X160875000Y-53720000D02*
X162255000Y-53720000D01*
X162255000Y-53720000D02*
X162255000Y-55100000D01*
D14*
X53980000Y-49765000D02*
X53980000Y-65765000D01*
X53980000Y-76765000D02*
X53980000Y-92765000D01*
X67780000Y-48765000D02*
X68980000Y-48765000D01*
X67780000Y-49765000D02*
X53980000Y-49765000D01*
X67780000Y-49765000D02*
X67780000Y-48765000D01*
X67780000Y-65765000D02*
X53980000Y-65765000D01*
X67780000Y-65765000D02*
X67780000Y-49765000D01*
X67780000Y-76765000D02*
X53980000Y-76765000D01*
X67780000Y-76765000D02*
X67780000Y-65765000D01*
X67780000Y-92765000D02*
X53980000Y-92765000D01*
X67780000Y-92765000D02*
X67780000Y-76765000D01*
X67780000Y-93765000D02*
X67780000Y-92765000D01*
X68980000Y-48765000D02*
X68980000Y-93765000D01*
X68980000Y-93765000D02*
X67780000Y-93765000D01*
D13*
X110620000Y-91001500D02*
X110155000Y-91001500D01*
X113245000Y-91001500D02*
X112780000Y-91001500D01*
X110619173Y-96349315D02*
G75*
G02*
X110155170Y-91001500I1080827J2787815D01*
G01*
X110619571Y-95815979D02*
G75*
G02*
X110620000Y-91306816I1080429J2254479D01*
G01*
X112780000Y-91306816D02*
G75*
G02*
X112780429Y-95815979I-1080000J-2254684D01*
G01*
X113244830Y-91001500D02*
G75*
G02*
X112780827Y-96349315I-1544830J-2560000D01*
G01*
X138623752Y-83390000D02*
X138101248Y-83390000D01*
X138623752Y-84860000D02*
X138101248Y-84860000D01*
X90990000Y-45790000D02*
X92040000Y-45790000D01*
X90990000Y-46940000D02*
X90990000Y-45790000D01*
X98040000Y-48910000D02*
X92160000Y-48910000D01*
X98160000Y-45790000D02*
X98160000Y-44800000D01*
X99210000Y-45790000D02*
X98160000Y-45790000D01*
X99210000Y-46940000D02*
X99210000Y-45790000D01*
X126750000Y-91450000D02*
X126750000Y-95950000D01*
X129250000Y-97200000D02*
X130750000Y-97200000D01*
X130750000Y-90200000D02*
X129250000Y-90200000D01*
X133250000Y-95950000D02*
X133250000Y-91450000D01*
X129477064Y-54565000D02*
X128022936Y-54565000D01*
X129477064Y-56385000D02*
X128022936Y-56385000D01*
X90990000Y-95790000D02*
X92040000Y-95790000D01*
X90990000Y-96940000D02*
X90990000Y-95790000D01*
X98040000Y-98910000D02*
X92160000Y-98910000D01*
X98160000Y-95790000D02*
X98160000Y-94800000D01*
X99210000Y-95790000D02*
X98160000Y-95790000D01*
X99210000Y-96940000D02*
X99210000Y-95790000D01*
X72155000Y-92605000D02*
X72155000Y-95365000D01*
X72155000Y-95365000D02*
X77455000Y-95365000D01*
X73105000Y-92292358D02*
X73105000Y-92605000D01*
X73105000Y-101365000D02*
X73105000Y-95365000D01*
X73965000Y-92292358D02*
X73965000Y-92605000D01*
X73965000Y-95365000D02*
X73965000Y-101365000D01*
X73965000Y-101365000D02*
X73105000Y-101365000D01*
X74805000Y-92605000D02*
X74805000Y-95365000D01*
X75645000Y-92375000D02*
X75645000Y-92605000D01*
X76075000Y-89945000D02*
X77345000Y-89945000D01*
X76505000Y-92375000D02*
X76505000Y-92605000D01*
X77345000Y-89945000D02*
X77345000Y-91215000D01*
X77455000Y-92605000D02*
X72155000Y-92605000D01*
X77455000Y-95365000D02*
X77455000Y-92605000D01*
X76505000Y-95365000D02*
X75645000Y-95365000D01*
X75645000Y-101365000D01*
X76505000Y-101365000D01*
X76505000Y-95365000D01*
G36*
X76505000Y-95365000D02*
G01*
X75645000Y-95365000D01*
X75645000Y-101365000D01*
X76505000Y-101365000D01*
X76505000Y-95365000D01*
G37*
D14*
X79430000Y-60990000D02*
X94670000Y-60990000D01*
X79430000Y-81310000D02*
X79430000Y-60990000D01*
X94670000Y-60990000D02*
X94670000Y-81310000D01*
X94670000Y-81310000D02*
X79430000Y-81310000D01*
D15*
X79000000Y-62250000D02*
G75*
G02*
X78700000Y-62250000I-150000J0D01*
G01*
X78700000Y-62250000D02*
G75*
G02*
X79000000Y-62250000I150000J0D01*
G01*
D13*
X118555000Y-88450000D02*
X118555000Y-94990000D01*
X118555000Y-94990000D02*
X121295000Y-94990000D01*
X119925000Y-87680000D02*
X119925000Y-88450000D01*
X119925000Y-95760000D02*
X119925000Y-94990000D01*
X121295000Y-88450000D02*
X118555000Y-88450000D01*
X121295000Y-94990000D02*
X121295000Y-88450000D01*
X143995000Y-86545000D02*
X145375000Y-86545000D01*
X143995000Y-87925000D02*
X143995000Y-86545000D01*
X143995000Y-89195000D02*
X143995000Y-91845000D01*
X143995000Y-89195000D02*
X146755000Y-89195000D01*
X143995000Y-91845000D02*
X146755000Y-91845000D01*
X146755000Y-89195000D02*
X146755000Y-91845000D01*
X111135000Y-61190000D02*
X111135000Y-65027939D01*
X111135000Y-67590000D02*
X111135000Y-65952061D01*
X111135000Y-76427939D02*
X111135000Y-74790000D01*
X111135000Y-77352061D02*
X111135000Y-81190000D01*
X111198000Y-81460000D02*
X162292000Y-81460000D01*
X112048520Y-63680000D02*
X111135000Y-63680000D01*
X112048520Y-78700000D02*
X111135000Y-78700000D01*
X157835000Y-75090000D02*
X157835000Y-67290000D01*
X159048520Y-63680000D02*
X114441480Y-63680000D01*
X159048520Y-78700000D02*
X114441480Y-78700000D01*
X159051000Y-67290000D02*
X157835000Y-67290000D01*
X159051000Y-75090000D02*
X157835000Y-75090000D01*
X160075000Y-60260000D02*
X161675000Y-60260000D01*
X161745000Y-60580000D02*
X111745000Y-60580000D01*
X161745000Y-81800000D02*
X111745000Y-81800000D01*
X162292000Y-60920000D02*
X111198000Y-60920000D01*
X162355000Y-61190000D02*
X162355000Y-63680000D01*
X162355000Y-63680000D02*
X161441480Y-63680000D01*
X162355000Y-63680000D02*
X162355000Y-65027940D01*
X162355000Y-65952061D02*
X162355000Y-66955000D01*
X162355000Y-66955000D02*
X162355000Y-75425000D01*
X162355000Y-75425000D02*
X162355000Y-76427939D01*
X162355000Y-77352061D02*
X162355000Y-78700000D01*
X162355000Y-78700000D02*
X161441480Y-78700000D01*
X162355000Y-81190000D02*
X162355000Y-78700000D01*
X162835000Y-67080000D02*
X162835000Y-67290000D01*
X162835000Y-67290000D02*
X161439000Y-67290000D01*
X162835000Y-75090000D02*
X161439000Y-75090000D01*
X162835000Y-75300000D02*
X162835000Y-75090000D01*
X163655000Y-67080000D02*
X162835000Y-67080000D01*
X163655000Y-67080000D02*
X163655000Y-75300000D01*
X163655000Y-75300000D02*
X162835000Y-75300000D01*
X161745000Y-60580000D02*
G75*
G02*
X162355000Y-61190000I0J-610000D01*
G01*
X162355000Y-81190000D02*
G75*
G02*
X161745000Y-81800000I-610000J0D01*
G01*
X115430000Y-88450000D02*
X115430000Y-94990000D01*
X115430000Y-94990000D02*
X118170000Y-94990000D01*
X116800000Y-87680000D02*
X116800000Y-88450000D01*
X116800000Y-95760000D02*
X116800000Y-94990000D01*
X118170000Y-88450000D02*
X115430000Y-88450000D01*
X118170000Y-94990000D02*
X118170000Y-88450000D01*
M02*
