M48
; DRILL file {KiCad 9.0.1-1.fc42} date 2025-05-14T23:42:57-0500
; FORMAT={-:-/ absolute / metric / decimal}
; #@! TF.CreationDate,2025-05-14T23:42:57-05:00
; #@! TF.GenerationSoftware,Kicad,Pcbnew,9.0.1-1.fc42
; #@! TF.FileFunction,Plated,1,4,PTH
FMAT,2
METRIC
; #@! TA.AperFunction,Plated,PTH,ViaDrill
T1C0.300
; #@! TA.AperFunction,Plated,PTH,ComponentDrill
T2C0.800
; #@! TA.AperFunction,Plated,PTH,ComponentDrill
T3C0.900
; #@! TA.AperFunction,Plated,PTH,ComponentDrill
T4C1.000
; #@! TA.AperFunction,Plated,PTH,ComponentDrill
T5C1.020
; #@! TA.AperFunction,Plated,PTH,ComponentDrill
T6C1.040
; #@! TA.AperFunction,Plated,PTH,ComponentDrill
T7C1.100
%
G90
G05
T1
X76.1Y-79.8
X92.6Y-52.5
X92.6Y-91.9
X93.6Y-51.8
X93.6Y-91.5
X99.8Y-52.275
X104.2Y-51.2
X105.3Y-60.0
X118.325Y-72.85
X125.1Y-51.0
X125.1Y-84.4
X127.9Y-85.0
X130.8Y-85.6
X134.2Y-82.4
T2
X116.8Y-86.64
X116.8Y-96.8
X119.925Y-86.64
X119.925Y-96.8
X123.05Y-86.64
X123.05Y-96.8
T3
X111.7Y-90.323
X111.7Y-92.482
X111.7Y-94.641
X111.7Y-96.8
T4
X73.535Y-91.215
X76.075Y-91.215
X108.37Y-46.23
X108.37Y-48.77
X108.37Y-54.825
X110.91Y-46.23
X110.91Y-48.77
X110.91Y-54.825
X112.615Y-62.3
X112.615Y-80.08
X113.45Y-46.23
X113.45Y-48.77
X113.45Y-54.825
X115.155Y-62.3
X115.155Y-80.08
X115.99Y-46.23
X115.99Y-48.77
X117.695Y-62.3
X117.695Y-80.08
X118.53Y-46.23
X118.53Y-48.77
X120.235Y-62.3
X120.235Y-80.08
X121.07Y-46.23
X121.07Y-48.77
X122.775Y-62.3
X122.775Y-80.08
X123.61Y-46.23
X123.61Y-48.77
X125.315Y-62.3
X125.315Y-80.08
X126.15Y-46.23
X126.15Y-48.77
X127.855Y-62.3
X127.855Y-80.08
X128.69Y-46.23
X128.69Y-48.77
X130.395Y-62.3
X130.395Y-80.08
X131.23Y-46.23
X131.23Y-48.77
X132.935Y-62.3
X132.935Y-80.08
X133.77Y-46.23
X133.77Y-48.77
X135.475Y-62.3
X135.475Y-80.08
X136.31Y-46.23
X136.31Y-48.77
X138.015Y-55.1
X138.015Y-62.3
X138.015Y-80.08
X138.85Y-46.23
X138.85Y-48.77
X140.555Y-55.1
X140.555Y-62.3
X140.555Y-80.08
X141.39Y-46.23
X141.39Y-48.77
X143.095Y-62.3
X143.095Y-80.08
X143.93Y-46.23
X143.93Y-48.77
X145.375Y-87.925
X145.375Y-90.465
X145.635Y-55.1
X145.635Y-62.3
X145.635Y-80.08
X146.47Y-46.23
X146.47Y-48.77
X148.175Y-55.1
X148.175Y-62.3
X148.175Y-80.08
X149.01Y-46.23
X149.01Y-48.77
X150.715Y-55.1
X150.715Y-62.3
X150.715Y-80.08
X151.55Y-46.23
X151.55Y-48.77
X153.255Y-55.1
X153.255Y-62.3
X153.255Y-80.08
X154.09Y-46.23
X154.09Y-48.77
X155.795Y-62.3
X155.795Y-80.08
X156.63Y-46.23
X156.63Y-48.77
X158.335Y-55.1
X158.335Y-62.3
X158.335Y-80.08
X160.875Y-55.1
X160.875Y-62.3
X160.875Y-80.08
X160.9Y-87.925
X160.9Y-90.465
T5
X73.25Y-67.455
X73.25Y-69.995
X73.25Y-72.535
X73.25Y-75.075
T6
X80.7Y-62.26
X80.7Y-64.8
X80.7Y-67.34
X80.7Y-69.88
X80.7Y-72.42
X80.7Y-74.96
X80.7Y-77.5
X80.7Y-80.04
X93.4Y-62.26
X93.4Y-64.8
X93.4Y-67.34
X93.4Y-69.88
X93.4Y-72.42
X93.4Y-74.96
X93.4Y-77.5
X93.4Y-80.04
T7
X127.75Y-90.45
X127.75Y-96.95
X132.25Y-90.45
X132.25Y-96.95
X137.35Y-90.45
X137.35Y-96.95
X141.85Y-90.45
X141.85Y-96.95
M30
