%TF.GenerationSoftware,KiCad,Pcbnew,9.0.2-1.fc42*%
%TF.CreationDate,2025-05-23T23:54:00-05:00*%
%TF.ProjectId,cerebellum,63657265-6265-46c6-9c75-6d2e6b696361,rev?*%
%TF.SameCoordinates,Original*%
%TF.FileFunction,Drillmap*%
%TF.FilePolarity,Positive*%
%FSLAX45Y45*%
G04 Gerber Fmt 4.5, Leading zero omitted, Abs format (unit mm)*
G04 Created by KiCad (PCBNEW 9.0.2-1.fc42) date 2025-05-23 23:54:00*
%MOMM*%
%LPD*%
G01*
G04 APERTURE LIST*
%ADD10C,0.100000*%
%ADD11C,0.050000*%
%ADD12C,0.200000*%
%ADD13C,0.270000*%
G04 APERTURE END LIST*
D10*
X15830000Y-10000000D02*
G75*
G02*
X15750000Y-9920000I0J80000D01*
G01*
D11*
X8430000Y-8862500D02*
G75*
G02*
X8470000Y-8822500I40000J0D01*
G01*
X10240000Y-9172500D02*
X8470000Y-9172500D01*
X8470000Y-8822500D02*
X10240000Y-8822500D01*
D10*
X16200000Y-4400000D02*
G75*
G02*
X16500000Y-4700000I0J-300000D01*
G01*
X16500000Y-9700000D02*
X16500000Y-4700000D01*
X14670000Y-10000000D02*
X7300000Y-10000000D01*
X15670000Y-8400000D02*
G75*
G02*
X15750000Y-8480000I0J-80000D01*
G01*
X14750000Y-9920000D02*
G75*
G02*
X14670000Y-10000000I-80000J0D01*
G01*
X7000000Y-4700000D02*
X7000000Y-9700000D01*
D11*
X10280000Y-9132500D02*
G75*
G02*
X10240000Y-9172500I-40000J0D01*
G01*
X10280000Y-5290000D02*
X10280000Y-5560000D01*
D10*
X10000000Y-8050000D02*
G75*
G02*
X9950000Y-8000000I0J50000D01*
G01*
X14750000Y-8480000D02*
X14750000Y-9920000D01*
X9950000Y-6400000D02*
X9950000Y-8000000D01*
D11*
X8430000Y-5560000D02*
X8430000Y-5290000D01*
X10240000Y-8822500D02*
G75*
G02*
X10280000Y-8862500I0J-40000D01*
G01*
D10*
X16200000Y-10000000D02*
X15830000Y-10000000D01*
X15750000Y-9920000D02*
X15750000Y-8480000D01*
X10450000Y-8050000D02*
X10000000Y-8050000D01*
D11*
X8470000Y-5600000D02*
G75*
G02*
X8430000Y-5560000I0J40000D01*
G01*
X10280000Y-8862500D02*
X10280000Y-9132500D01*
D10*
X7000000Y-4700000D02*
G75*
G02*
X7300000Y-4400000I300000J0D01*
G01*
D11*
X8470000Y-9172500D02*
G75*
G02*
X8430000Y-9132500I0J40000D01*
G01*
D10*
X16500000Y-9700000D02*
G75*
G02*
X16200000Y-10000000I-300000J0D01*
G01*
X10500000Y-6400000D02*
X10500000Y-8000000D01*
X9950000Y-6400000D02*
G75*
G02*
X10000000Y-6350000I50000J0D01*
G01*
X14750000Y-8480000D02*
G75*
G02*
X14830000Y-8400000I80000J0D01*
G01*
X7300000Y-10000000D02*
G75*
G02*
X7000000Y-9700000I0J300000D01*
G01*
D11*
X10240000Y-5250000D02*
G75*
G02*
X10280000Y-5290000I0J-40000D01*
G01*
X8430000Y-5290000D02*
G75*
G02*
X8470000Y-5250000I40000J0D01*
G01*
D10*
X10000000Y-6350000D02*
X10450000Y-6350000D01*
D11*
X8430000Y-9132500D02*
X8430000Y-8862500D01*
D10*
X15670000Y-8400000D02*
X14830000Y-8400000D01*
X10500000Y-8000000D02*
G75*
G02*
X10450000Y-8050000I-50000J0D01*
G01*
D11*
X10240000Y-5600000D02*
X8470000Y-5600000D01*
X8470000Y-5250000D02*
X10240000Y-5250000D01*
D10*
X10450000Y-6350000D02*
G75*
G02*
X10500000Y-6400000I0J-50000D01*
G01*
D11*
X10280000Y-5560000D02*
G75*
G02*
X10240000Y-5600000I-40000J0D01*
G01*
D10*
X16200000Y-4400000D02*
X7300000Y-4400000D01*
D12*
D13*
X10215000Y-4615000D02*
X10485000Y-4885000D01*
X10485000Y-4615000D02*
X10215000Y-4885000D01*
X10215000Y-9515000D02*
X10485000Y-9785000D01*
X10485000Y-9515000D02*
X10215000Y-9785000D01*
X16015000Y-4615000D02*
X16285000Y-4885000D01*
X16285000Y-4615000D02*
X16015000Y-4885000D01*
X16015000Y-9515000D02*
X16285000Y-9785000D01*
X16285000Y-9515000D02*
X16015000Y-9785000D01*
D12*
X7255777Y-10316484D02*
X7255777Y-10116484D01*
X7255777Y-10116484D02*
X7303396Y-10116484D01*
X7303396Y-10116484D02*
X7331967Y-10126008D01*
X7331967Y-10126008D02*
X7351015Y-10145055D01*
X7351015Y-10145055D02*
X7360539Y-10164103D01*
X7360539Y-10164103D02*
X7370062Y-10202198D01*
X7370062Y-10202198D02*
X7370062Y-10230770D01*
X7370062Y-10230770D02*
X7360539Y-10268865D01*
X7360539Y-10268865D02*
X7351015Y-10287912D01*
X7351015Y-10287912D02*
X7331967Y-10306960D01*
X7331967Y-10306960D02*
X7303396Y-10316484D01*
X7303396Y-10316484D02*
X7255777Y-10316484D01*
X7455777Y-10316484D02*
X7455777Y-10183150D01*
X7455777Y-10221246D02*
X7465301Y-10202198D01*
X7465301Y-10202198D02*
X7474824Y-10192674D01*
X7474824Y-10192674D02*
X7493872Y-10183150D01*
X7493872Y-10183150D02*
X7512920Y-10183150D01*
X7579586Y-10316484D02*
X7579586Y-10183150D01*
X7579586Y-10116484D02*
X7570062Y-10126008D01*
X7570062Y-10126008D02*
X7579586Y-10135531D01*
X7579586Y-10135531D02*
X7589110Y-10126008D01*
X7589110Y-10126008D02*
X7579586Y-10116484D01*
X7579586Y-10116484D02*
X7579586Y-10135531D01*
X7703396Y-10316484D02*
X7684348Y-10306960D01*
X7684348Y-10306960D02*
X7674824Y-10287912D01*
X7674824Y-10287912D02*
X7674824Y-10116484D01*
X7808158Y-10316484D02*
X7789110Y-10306960D01*
X7789110Y-10306960D02*
X7779586Y-10287912D01*
X7779586Y-10287912D02*
X7779586Y-10116484D01*
X8036729Y-10316484D02*
X8036729Y-10116484D01*
X8036729Y-10116484D02*
X8103396Y-10259341D01*
X8103396Y-10259341D02*
X8170062Y-10116484D01*
X8170062Y-10116484D02*
X8170062Y-10316484D01*
X8351015Y-10316484D02*
X8351015Y-10211722D01*
X8351015Y-10211722D02*
X8341491Y-10192674D01*
X8341491Y-10192674D02*
X8322443Y-10183150D01*
X8322443Y-10183150D02*
X8284348Y-10183150D01*
X8284348Y-10183150D02*
X8265301Y-10192674D01*
X8351015Y-10306960D02*
X8331967Y-10316484D01*
X8331967Y-10316484D02*
X8284348Y-10316484D01*
X8284348Y-10316484D02*
X8265301Y-10306960D01*
X8265301Y-10306960D02*
X8255777Y-10287912D01*
X8255777Y-10287912D02*
X8255777Y-10268865D01*
X8255777Y-10268865D02*
X8265301Y-10249817D01*
X8265301Y-10249817D02*
X8284348Y-10240293D01*
X8284348Y-10240293D02*
X8331967Y-10240293D01*
X8331967Y-10240293D02*
X8351015Y-10230770D01*
X8446253Y-10183150D02*
X8446253Y-10383150D01*
X8446253Y-10192674D02*
X8465301Y-10183150D01*
X8465301Y-10183150D02*
X8503396Y-10183150D01*
X8503396Y-10183150D02*
X8522444Y-10192674D01*
X8522444Y-10192674D02*
X8531967Y-10202198D01*
X8531967Y-10202198D02*
X8541491Y-10221246D01*
X8541491Y-10221246D02*
X8541491Y-10278389D01*
X8541491Y-10278389D02*
X8531967Y-10297436D01*
X8531967Y-10297436D02*
X8522444Y-10306960D01*
X8522444Y-10306960D02*
X8503396Y-10316484D01*
X8503396Y-10316484D02*
X8465301Y-10316484D01*
X8465301Y-10316484D02*
X8446253Y-10306960D01*
X8627205Y-10297436D02*
X8636729Y-10306960D01*
X8636729Y-10306960D02*
X8627205Y-10316484D01*
X8627205Y-10316484D02*
X8617682Y-10306960D01*
X8617682Y-10306960D02*
X8627205Y-10297436D01*
X8627205Y-10297436D02*
X8627205Y-10316484D01*
X8627205Y-10192674D02*
X8636729Y-10202198D01*
X8636729Y-10202198D02*
X8627205Y-10211722D01*
X8627205Y-10211722D02*
X8617682Y-10202198D01*
X8617682Y-10202198D02*
X8627205Y-10192674D01*
X8627205Y-10192674D02*
X8627205Y-10211722D01*
X6795000Y-10545000D02*
X6995000Y-10745000D01*
X6995000Y-10545000D02*
X6795000Y-10745000D01*
X7246253Y-10555531D02*
X7255777Y-10546008D01*
X7255777Y-10546008D02*
X7274824Y-10536484D01*
X7274824Y-10536484D02*
X7322443Y-10536484D01*
X7322443Y-10536484D02*
X7341491Y-10546008D01*
X7341491Y-10546008D02*
X7351015Y-10555531D01*
X7351015Y-10555531D02*
X7360539Y-10574579D01*
X7360539Y-10574579D02*
X7360539Y-10593627D01*
X7360539Y-10593627D02*
X7351015Y-10622198D01*
X7351015Y-10622198D02*
X7236729Y-10736484D01*
X7236729Y-10736484D02*
X7360539Y-10736484D01*
X7446253Y-10717436D02*
X7455777Y-10726960D01*
X7455777Y-10726960D02*
X7446253Y-10736484D01*
X7446253Y-10736484D02*
X7436729Y-10726960D01*
X7436729Y-10726960D02*
X7446253Y-10717436D01*
X7446253Y-10717436D02*
X7446253Y-10736484D01*
X7522443Y-10536484D02*
X7655777Y-10536484D01*
X7655777Y-10536484D02*
X7570062Y-10736484D01*
X7770062Y-10536484D02*
X7789110Y-10536484D01*
X7789110Y-10536484D02*
X7808158Y-10546008D01*
X7808158Y-10546008D02*
X7817682Y-10555531D01*
X7817682Y-10555531D02*
X7827205Y-10574579D01*
X7827205Y-10574579D02*
X7836729Y-10612674D01*
X7836729Y-10612674D02*
X7836729Y-10660293D01*
X7836729Y-10660293D02*
X7827205Y-10698389D01*
X7827205Y-10698389D02*
X7817682Y-10717436D01*
X7817682Y-10717436D02*
X7808158Y-10726960D01*
X7808158Y-10726960D02*
X7789110Y-10736484D01*
X7789110Y-10736484D02*
X7770062Y-10736484D01*
X7770062Y-10736484D02*
X7751015Y-10726960D01*
X7751015Y-10726960D02*
X7741491Y-10717436D01*
X7741491Y-10717436D02*
X7731967Y-10698389D01*
X7731967Y-10698389D02*
X7722443Y-10660293D01*
X7722443Y-10660293D02*
X7722443Y-10612674D01*
X7722443Y-10612674D02*
X7731967Y-10574579D01*
X7731967Y-10574579D02*
X7741491Y-10555531D01*
X7741491Y-10555531D02*
X7751015Y-10546008D01*
X7751015Y-10546008D02*
X7770062Y-10536484D01*
X7960539Y-10536484D02*
X7979586Y-10536484D01*
X7979586Y-10536484D02*
X7998634Y-10546008D01*
X7998634Y-10546008D02*
X8008158Y-10555531D01*
X8008158Y-10555531D02*
X8017682Y-10574579D01*
X8017682Y-10574579D02*
X8027205Y-10612674D01*
X8027205Y-10612674D02*
X8027205Y-10660293D01*
X8027205Y-10660293D02*
X8017682Y-10698389D01*
X8017682Y-10698389D02*
X8008158Y-10717436D01*
X8008158Y-10717436D02*
X7998634Y-10726960D01*
X7998634Y-10726960D02*
X7979586Y-10736484D01*
X7979586Y-10736484D02*
X7960539Y-10736484D01*
X7960539Y-10736484D02*
X7941491Y-10726960D01*
X7941491Y-10726960D02*
X7931967Y-10717436D01*
X7931967Y-10717436D02*
X7922443Y-10698389D01*
X7922443Y-10698389D02*
X7912920Y-10660293D01*
X7912920Y-10660293D02*
X7912920Y-10612674D01*
X7912920Y-10612674D02*
X7922443Y-10574579D01*
X7922443Y-10574579D02*
X7931967Y-10555531D01*
X7931967Y-10555531D02*
X7941491Y-10546008D01*
X7941491Y-10546008D02*
X7960539Y-10536484D01*
X8112920Y-10736484D02*
X8112920Y-10603150D01*
X8112920Y-10622198D02*
X8122443Y-10612674D01*
X8122443Y-10612674D02*
X8141491Y-10603150D01*
X8141491Y-10603150D02*
X8170063Y-10603150D01*
X8170063Y-10603150D02*
X8189110Y-10612674D01*
X8189110Y-10612674D02*
X8198634Y-10631722D01*
X8198634Y-10631722D02*
X8198634Y-10736484D01*
X8198634Y-10631722D02*
X8208158Y-10612674D01*
X8208158Y-10612674D02*
X8227205Y-10603150D01*
X8227205Y-10603150D02*
X8255777Y-10603150D01*
X8255777Y-10603150D02*
X8274824Y-10612674D01*
X8274824Y-10612674D02*
X8284348Y-10631722D01*
X8284348Y-10631722D02*
X8284348Y-10736484D01*
X8379586Y-10736484D02*
X8379586Y-10603150D01*
X8379586Y-10622198D02*
X8389110Y-10612674D01*
X8389110Y-10612674D02*
X8408158Y-10603150D01*
X8408158Y-10603150D02*
X8436729Y-10603150D01*
X8436729Y-10603150D02*
X8455777Y-10612674D01*
X8455777Y-10612674D02*
X8465301Y-10631722D01*
X8465301Y-10631722D02*
X8465301Y-10736484D01*
X8465301Y-10631722D02*
X8474825Y-10612674D01*
X8474825Y-10612674D02*
X8493872Y-10603150D01*
X8493872Y-10603150D02*
X8522444Y-10603150D01*
X8522444Y-10603150D02*
X8541491Y-10612674D01*
X8541491Y-10612674D02*
X8551015Y-10631722D01*
X8551015Y-10631722D02*
X8551015Y-10736484D01*
X8941491Y-10526960D02*
X8770063Y-10784103D01*
X9198634Y-10536484D02*
X9217682Y-10536484D01*
X9217682Y-10536484D02*
X9236729Y-10546008D01*
X9236729Y-10546008D02*
X9246253Y-10555531D01*
X9246253Y-10555531D02*
X9255777Y-10574579D01*
X9255777Y-10574579D02*
X9265301Y-10612674D01*
X9265301Y-10612674D02*
X9265301Y-10660293D01*
X9265301Y-10660293D02*
X9255777Y-10698389D01*
X9255777Y-10698389D02*
X9246253Y-10717436D01*
X9246253Y-10717436D02*
X9236729Y-10726960D01*
X9236729Y-10726960D02*
X9217682Y-10736484D01*
X9217682Y-10736484D02*
X9198634Y-10736484D01*
X9198634Y-10736484D02*
X9179587Y-10726960D01*
X9179587Y-10726960D02*
X9170063Y-10717436D01*
X9170063Y-10717436D02*
X9160539Y-10698389D01*
X9160539Y-10698389D02*
X9151015Y-10660293D01*
X9151015Y-10660293D02*
X9151015Y-10612674D01*
X9151015Y-10612674D02*
X9160539Y-10574579D01*
X9160539Y-10574579D02*
X9170063Y-10555531D01*
X9170063Y-10555531D02*
X9179587Y-10546008D01*
X9179587Y-10546008D02*
X9198634Y-10536484D01*
X9351015Y-10717436D02*
X9360539Y-10726960D01*
X9360539Y-10726960D02*
X9351015Y-10736484D01*
X9351015Y-10736484D02*
X9341491Y-10726960D01*
X9341491Y-10726960D02*
X9351015Y-10717436D01*
X9351015Y-10717436D02*
X9351015Y-10736484D01*
X9551015Y-10736484D02*
X9436729Y-10736484D01*
X9493872Y-10736484D02*
X9493872Y-10536484D01*
X9493872Y-10536484D02*
X9474825Y-10565055D01*
X9474825Y-10565055D02*
X9455777Y-10584103D01*
X9455777Y-10584103D02*
X9436729Y-10593627D01*
X9674825Y-10536484D02*
X9693872Y-10536484D01*
X9693872Y-10536484D02*
X9712920Y-10546008D01*
X9712920Y-10546008D02*
X9722444Y-10555531D01*
X9722444Y-10555531D02*
X9731968Y-10574579D01*
X9731968Y-10574579D02*
X9741491Y-10612674D01*
X9741491Y-10612674D02*
X9741491Y-10660293D01*
X9741491Y-10660293D02*
X9731968Y-10698389D01*
X9731968Y-10698389D02*
X9722444Y-10717436D01*
X9722444Y-10717436D02*
X9712920Y-10726960D01*
X9712920Y-10726960D02*
X9693872Y-10736484D01*
X9693872Y-10736484D02*
X9674825Y-10736484D01*
X9674825Y-10736484D02*
X9655777Y-10726960D01*
X9655777Y-10726960D02*
X9646253Y-10717436D01*
X9646253Y-10717436D02*
X9636729Y-10698389D01*
X9636729Y-10698389D02*
X9627206Y-10660293D01*
X9627206Y-10660293D02*
X9627206Y-10612674D01*
X9627206Y-10612674D02*
X9636729Y-10574579D01*
X9636729Y-10574579D02*
X9646253Y-10555531D01*
X9646253Y-10555531D02*
X9655777Y-10546008D01*
X9655777Y-10546008D02*
X9674825Y-10536484D01*
X9912920Y-10536484D02*
X9874825Y-10536484D01*
X9874825Y-10536484D02*
X9855777Y-10546008D01*
X9855777Y-10546008D02*
X9846253Y-10555531D01*
X9846253Y-10555531D02*
X9827206Y-10584103D01*
X9827206Y-10584103D02*
X9817682Y-10622198D01*
X9817682Y-10622198D02*
X9817682Y-10698389D01*
X9817682Y-10698389D02*
X9827206Y-10717436D01*
X9827206Y-10717436D02*
X9836729Y-10726960D01*
X9836729Y-10726960D02*
X9855777Y-10736484D01*
X9855777Y-10736484D02*
X9893872Y-10736484D01*
X9893872Y-10736484D02*
X9912920Y-10726960D01*
X9912920Y-10726960D02*
X9922444Y-10717436D01*
X9922444Y-10717436D02*
X9931968Y-10698389D01*
X9931968Y-10698389D02*
X9931968Y-10650770D01*
X9931968Y-10650770D02*
X9922444Y-10631722D01*
X9922444Y-10631722D02*
X9912920Y-10622198D01*
X9912920Y-10622198D02*
X9893872Y-10612674D01*
X9893872Y-10612674D02*
X9855777Y-10612674D01*
X9855777Y-10612674D02*
X9836729Y-10622198D01*
X9836729Y-10622198D02*
X9827206Y-10631722D01*
X9827206Y-10631722D02*
X9817682Y-10650770D01*
X9998634Y-10536484D02*
X10122444Y-10536484D01*
X10122444Y-10536484D02*
X10055777Y-10612674D01*
X10055777Y-10612674D02*
X10084349Y-10612674D01*
X10084349Y-10612674D02*
X10103396Y-10622198D01*
X10103396Y-10622198D02*
X10112920Y-10631722D01*
X10112920Y-10631722D02*
X10122444Y-10650770D01*
X10122444Y-10650770D02*
X10122444Y-10698389D01*
X10122444Y-10698389D02*
X10112920Y-10717436D01*
X10112920Y-10717436D02*
X10103396Y-10726960D01*
X10103396Y-10726960D02*
X10084349Y-10736484D01*
X10084349Y-10736484D02*
X10027206Y-10736484D01*
X10027206Y-10736484D02*
X10008158Y-10726960D01*
X10008158Y-10726960D02*
X9998634Y-10717436D01*
X10198634Y-10536484D02*
X10198634Y-10574579D01*
X10274825Y-10536484D02*
X10274825Y-10574579D01*
X10570063Y-10812674D02*
X10560539Y-10803150D01*
X10560539Y-10803150D02*
X10541491Y-10774579D01*
X10541491Y-10774579D02*
X10531968Y-10755531D01*
X10531968Y-10755531D02*
X10522444Y-10726960D01*
X10522444Y-10726960D02*
X10512920Y-10679341D01*
X10512920Y-10679341D02*
X10512920Y-10641246D01*
X10512920Y-10641246D02*
X10522444Y-10593627D01*
X10522444Y-10593627D02*
X10531968Y-10565055D01*
X10531968Y-10565055D02*
X10541491Y-10546008D01*
X10541491Y-10546008D02*
X10560539Y-10517436D01*
X10560539Y-10517436D02*
X10570063Y-10507912D01*
X10731968Y-10603150D02*
X10731968Y-10736484D01*
X10684349Y-10526960D02*
X10636730Y-10669817D01*
X10636730Y-10669817D02*
X10760539Y-10669817D01*
X10989111Y-10736484D02*
X10989111Y-10536484D01*
X11074825Y-10736484D02*
X11074825Y-10631722D01*
X11074825Y-10631722D02*
X11065301Y-10612674D01*
X11065301Y-10612674D02*
X11046253Y-10603150D01*
X11046253Y-10603150D02*
X11017682Y-10603150D01*
X11017682Y-10603150D02*
X10998634Y-10612674D01*
X10998634Y-10612674D02*
X10989111Y-10622198D01*
X11198634Y-10736484D02*
X11179587Y-10726960D01*
X11179587Y-10726960D02*
X11170063Y-10717436D01*
X11170063Y-10717436D02*
X11160539Y-10698389D01*
X11160539Y-10698389D02*
X11160539Y-10641246D01*
X11160539Y-10641246D02*
X11170063Y-10622198D01*
X11170063Y-10622198D02*
X11179587Y-10612674D01*
X11179587Y-10612674D02*
X11198634Y-10603150D01*
X11198634Y-10603150D02*
X11227206Y-10603150D01*
X11227206Y-10603150D02*
X11246253Y-10612674D01*
X11246253Y-10612674D02*
X11255777Y-10622198D01*
X11255777Y-10622198D02*
X11265301Y-10641246D01*
X11265301Y-10641246D02*
X11265301Y-10698389D01*
X11265301Y-10698389D02*
X11255777Y-10717436D01*
X11255777Y-10717436D02*
X11246253Y-10726960D01*
X11246253Y-10726960D02*
X11227206Y-10736484D01*
X11227206Y-10736484D02*
X11198634Y-10736484D01*
X11379587Y-10736484D02*
X11360539Y-10726960D01*
X11360539Y-10726960D02*
X11351015Y-10707912D01*
X11351015Y-10707912D02*
X11351015Y-10536484D01*
X11531968Y-10726960D02*
X11512920Y-10736484D01*
X11512920Y-10736484D02*
X11474825Y-10736484D01*
X11474825Y-10736484D02*
X11455777Y-10726960D01*
X11455777Y-10726960D02*
X11446253Y-10707912D01*
X11446253Y-10707912D02*
X11446253Y-10631722D01*
X11446253Y-10631722D02*
X11455777Y-10612674D01*
X11455777Y-10612674D02*
X11474825Y-10603150D01*
X11474825Y-10603150D02*
X11512920Y-10603150D01*
X11512920Y-10603150D02*
X11531968Y-10612674D01*
X11531968Y-10612674D02*
X11541491Y-10631722D01*
X11541491Y-10631722D02*
X11541491Y-10650770D01*
X11541491Y-10650770D02*
X11446253Y-10669817D01*
X11617682Y-10726960D02*
X11636730Y-10736484D01*
X11636730Y-10736484D02*
X11674825Y-10736484D01*
X11674825Y-10736484D02*
X11693872Y-10726960D01*
X11693872Y-10726960D02*
X11703396Y-10707912D01*
X11703396Y-10707912D02*
X11703396Y-10698389D01*
X11703396Y-10698389D02*
X11693872Y-10679341D01*
X11693872Y-10679341D02*
X11674825Y-10669817D01*
X11674825Y-10669817D02*
X11646253Y-10669817D01*
X11646253Y-10669817D02*
X11627206Y-10660293D01*
X11627206Y-10660293D02*
X11617682Y-10641246D01*
X11617682Y-10641246D02*
X11617682Y-10631722D01*
X11617682Y-10631722D02*
X11627206Y-10612674D01*
X11627206Y-10612674D02*
X11646253Y-10603150D01*
X11646253Y-10603150D02*
X11674825Y-10603150D01*
X11674825Y-10603150D02*
X11693872Y-10612674D01*
X11770063Y-10812674D02*
X11779587Y-10803150D01*
X11779587Y-10803150D02*
X11798634Y-10774579D01*
X11798634Y-10774579D02*
X11808158Y-10755531D01*
X11808158Y-10755531D02*
X11817682Y-10726960D01*
X11817682Y-10726960D02*
X11827206Y-10679341D01*
X11827206Y-10679341D02*
X11827206Y-10641246D01*
X11827206Y-10641246D02*
X11817682Y-10593627D01*
X11817682Y-10593627D02*
X11808158Y-10565055D01*
X11808158Y-10565055D02*
X11798634Y-10546008D01*
X11798634Y-10546008D02*
X11779587Y-10517436D01*
X11779587Y-10517436D02*
X11770063Y-10507912D01*
X12131968Y-10812674D02*
X12122444Y-10803150D01*
X12122444Y-10803150D02*
X12103396Y-10774579D01*
X12103396Y-10774579D02*
X12093872Y-10755531D01*
X12093872Y-10755531D02*
X12084349Y-10726960D01*
X12084349Y-10726960D02*
X12074825Y-10679341D01*
X12074825Y-10679341D02*
X12074825Y-10641246D01*
X12074825Y-10641246D02*
X12084349Y-10593627D01*
X12084349Y-10593627D02*
X12093872Y-10565055D01*
X12093872Y-10565055D02*
X12103396Y-10546008D01*
X12103396Y-10546008D02*
X12122444Y-10517436D01*
X12122444Y-10517436D02*
X12131968Y-10507912D01*
X12208158Y-10603150D02*
X12208158Y-10736484D01*
X12208158Y-10622198D02*
X12217682Y-10612674D01*
X12217682Y-10612674D02*
X12236730Y-10603150D01*
X12236730Y-10603150D02*
X12265301Y-10603150D01*
X12265301Y-10603150D02*
X12284349Y-10612674D01*
X12284349Y-10612674D02*
X12293872Y-10631722D01*
X12293872Y-10631722D02*
X12293872Y-10736484D01*
X12417682Y-10736484D02*
X12398634Y-10726960D01*
X12398634Y-10726960D02*
X12389111Y-10717436D01*
X12389111Y-10717436D02*
X12379587Y-10698389D01*
X12379587Y-10698389D02*
X12379587Y-10641246D01*
X12379587Y-10641246D02*
X12389111Y-10622198D01*
X12389111Y-10622198D02*
X12398634Y-10612674D01*
X12398634Y-10612674D02*
X12417682Y-10603150D01*
X12417682Y-10603150D02*
X12446253Y-10603150D01*
X12446253Y-10603150D02*
X12465301Y-10612674D01*
X12465301Y-10612674D02*
X12474825Y-10622198D01*
X12474825Y-10622198D02*
X12484349Y-10641246D01*
X12484349Y-10641246D02*
X12484349Y-10698389D01*
X12484349Y-10698389D02*
X12474825Y-10717436D01*
X12474825Y-10717436D02*
X12465301Y-10726960D01*
X12465301Y-10726960D02*
X12446253Y-10736484D01*
X12446253Y-10736484D02*
X12417682Y-10736484D01*
X12541492Y-10603150D02*
X12617682Y-10603150D01*
X12570063Y-10536484D02*
X12570063Y-10707912D01*
X12570063Y-10707912D02*
X12579587Y-10726960D01*
X12579587Y-10726960D02*
X12598634Y-10736484D01*
X12598634Y-10736484D02*
X12617682Y-10736484D01*
X12836730Y-10603150D02*
X12836730Y-10803150D01*
X12836730Y-10612674D02*
X12855777Y-10603150D01*
X12855777Y-10603150D02*
X12893873Y-10603150D01*
X12893873Y-10603150D02*
X12912920Y-10612674D01*
X12912920Y-10612674D02*
X12922444Y-10622198D01*
X12922444Y-10622198D02*
X12931968Y-10641246D01*
X12931968Y-10641246D02*
X12931968Y-10698389D01*
X12931968Y-10698389D02*
X12922444Y-10717436D01*
X12922444Y-10717436D02*
X12912920Y-10726960D01*
X12912920Y-10726960D02*
X12893873Y-10736484D01*
X12893873Y-10736484D02*
X12855777Y-10736484D01*
X12855777Y-10736484D02*
X12836730Y-10726960D01*
X13046253Y-10736484D02*
X13027206Y-10726960D01*
X13027206Y-10726960D02*
X13017682Y-10707912D01*
X13017682Y-10707912D02*
X13017682Y-10536484D01*
X13208158Y-10736484D02*
X13208158Y-10631722D01*
X13208158Y-10631722D02*
X13198634Y-10612674D01*
X13198634Y-10612674D02*
X13179587Y-10603150D01*
X13179587Y-10603150D02*
X13141492Y-10603150D01*
X13141492Y-10603150D02*
X13122444Y-10612674D01*
X13208158Y-10726960D02*
X13189111Y-10736484D01*
X13189111Y-10736484D02*
X13141492Y-10736484D01*
X13141492Y-10736484D02*
X13122444Y-10726960D01*
X13122444Y-10726960D02*
X13112920Y-10707912D01*
X13112920Y-10707912D02*
X13112920Y-10688865D01*
X13112920Y-10688865D02*
X13122444Y-10669817D01*
X13122444Y-10669817D02*
X13141492Y-10660293D01*
X13141492Y-10660293D02*
X13189111Y-10660293D01*
X13189111Y-10660293D02*
X13208158Y-10650770D01*
X13274825Y-10603150D02*
X13351015Y-10603150D01*
X13303396Y-10536484D02*
X13303396Y-10707912D01*
X13303396Y-10707912D02*
X13312920Y-10726960D01*
X13312920Y-10726960D02*
X13331968Y-10736484D01*
X13331968Y-10736484D02*
X13351015Y-10736484D01*
X13493873Y-10726960D02*
X13474825Y-10736484D01*
X13474825Y-10736484D02*
X13436730Y-10736484D01*
X13436730Y-10736484D02*
X13417682Y-10726960D01*
X13417682Y-10726960D02*
X13408158Y-10707912D01*
X13408158Y-10707912D02*
X13408158Y-10631722D01*
X13408158Y-10631722D02*
X13417682Y-10612674D01*
X13417682Y-10612674D02*
X13436730Y-10603150D01*
X13436730Y-10603150D02*
X13474825Y-10603150D01*
X13474825Y-10603150D02*
X13493873Y-10612674D01*
X13493873Y-10612674D02*
X13503396Y-10631722D01*
X13503396Y-10631722D02*
X13503396Y-10650770D01*
X13503396Y-10650770D02*
X13408158Y-10669817D01*
X13674825Y-10736484D02*
X13674825Y-10536484D01*
X13674825Y-10726960D02*
X13655777Y-10736484D01*
X13655777Y-10736484D02*
X13617682Y-10736484D01*
X13617682Y-10736484D02*
X13598634Y-10726960D01*
X13598634Y-10726960D02*
X13589111Y-10717436D01*
X13589111Y-10717436D02*
X13579587Y-10698389D01*
X13579587Y-10698389D02*
X13579587Y-10641246D01*
X13579587Y-10641246D02*
X13589111Y-10622198D01*
X13589111Y-10622198D02*
X13598634Y-10612674D01*
X13598634Y-10612674D02*
X13617682Y-10603150D01*
X13617682Y-10603150D02*
X13655777Y-10603150D01*
X13655777Y-10603150D02*
X13674825Y-10612674D01*
X13751015Y-10812674D02*
X13760539Y-10803150D01*
X13760539Y-10803150D02*
X13779587Y-10774579D01*
X13779587Y-10774579D02*
X13789111Y-10755531D01*
X13789111Y-10755531D02*
X13798634Y-10726960D01*
X13798634Y-10726960D02*
X13808158Y-10679341D01*
X13808158Y-10679341D02*
X13808158Y-10641246D01*
X13808158Y-10641246D02*
X13798634Y-10593627D01*
X13798634Y-10593627D02*
X13789111Y-10565055D01*
X13789111Y-10565055D02*
X13779587Y-10546008D01*
X13779587Y-10546008D02*
X13760539Y-10517436D01*
X13760539Y-10517436D02*
X13751015Y-10507912D01*
M02*
